G04 FreePCB version 1.359*
G04 C:\jww\Projects\PPMScope\PCB\Version 1.20\CAM\bottom_copper.grb*
G04 bottom copper layer *
G04 Scale: 100 percent, Rotated: No, Reflected: No *
%FSLAX24Y24*%
%MOIN*%
%LN bottom copper *%
G04 Rounded Rectangle Macro, params: W/2, H/2, R *
%AMRNDREC*
21,1,$1+$1,$2+$2-$3-$3,0,0,0*
21,1,$1+$1-$3-$3,$2+$2,0,0,0*
1,1,$3+$3,$1-$3,$2-$3*
1,1,$3+$3,$3-$1,$2-$3*
1,1,$3+$3,$1-$3,$3-$2*
1,1,$3+$3,$3-$1,$3-$2*%
G04 Rectangular Thermal Macro, params: W/2, H/2, T/2 *
%AMRECTHERM*
$4=$3/2*
21,1,$1-$3,$2-$3,0-$1/2-$4,0-$2/2-$4,0*
21,1,$1-$3,$2-$3,0-$1/2-$4,$2/2+$4,0*
21,1,$1-$3,$2-$3,$1/2+$4,0-$2/2-$4,0*
21,1,$1-$3,$2-$3,$1/2+$4,$2/2+$4,0*%
%ADD10C,0.005000*%
%ADD11R,0.060000X0.060000*%
%ADD12C,0.060000*%
%ADD13C,0.075000*%
%ADD14C,0.065000*%
%ADD15C,0.080000*%
%ADD16C,0.250000*%
%ADD17C,0.025000*%
%ADD18C,0.010000*%
%ADD19C,0.020000*%
%ADD20C,0.040000*%
%ADD21C,0.056000*%
G90*
G70D02*

G04 Step and Repeat for panelization *

G04 ----------------------- Draw board outline (positive)*
%LPD*%
G54D10*
G01X0Y0D02*
G01X60000Y0D01*
G04 end of side 1*
G01X60000Y30000D01*
G04 end of side 2*
G01X0Y30000D01*
G04 end of side 3*
G01X0Y0D01*

G04 -------------- Draw Parts, Pads, Traces, Vias and Text (positive)*
%LPD*%
G04 Draw part U1*
G54D11*
G01X47000Y5000D03*
G54D12*
G01X47000Y6000D03*
G01X47000Y7000D03*
G01X47000Y8000D03*
G01X47000Y9000D03*
G01X47000Y10000D03*
G01X47000Y11000D03*
G01X47000Y12000D03*
G01X47000Y13000D03*
G01X47000Y14000D03*
G01X47000Y15000D03*
G01X47000Y16000D03*
G01X47000Y17000D03*
G01X47000Y18000D03*
G01X47000Y19000D03*
G01X47000Y20000D03*
G01X47000Y21000D03*
G01X47000Y22000D03*
G01X47000Y23000D03*
G01X47000Y24000D03*
G01X41000Y24000D03*
G01X41000Y23000D03*
G01X41000Y22000D03*
G01X41000Y21000D03*
G01X41000Y20000D03*
G01X41000Y19000D03*
G01X41000Y18000D03*
G01X41000Y17000D03*
G01X41000Y16000D03*
G01X41000Y15000D03*
G01X41000Y14000D03*
G01X41000Y13000D03*
G01X41000Y12000D03*
G01X41000Y11000D03*
G01X41000Y10000D03*
G01X41000Y9000D03*
G01X41000Y8000D03*
G01X41000Y7000D03*
G01X41000Y6000D03*
G01X41000Y5000D03*
G04 Draw part U2*
G54D11*
G01X35000Y5000D03*
G54D12*
G01X35000Y6000D03*
G01X35000Y7000D03*
G01X35000Y8000D03*
G01X35000Y9000D03*
G01X35000Y10000D03*
G01X35000Y11000D03*
G01X35000Y12000D03*
G01X35000Y13000D03*
G01X35000Y14000D03*
G01X35000Y15000D03*
G01X35000Y16000D03*
G01X35000Y17000D03*
G01X35000Y18000D03*
G01X29000Y18000D03*
G01X29000Y17000D03*
G01X29000Y16000D03*
G01X29000Y15000D03*
G01X29000Y14000D03*
G01X29000Y13000D03*
G01X29000Y12000D03*
G01X29000Y11000D03*
G01X29000Y10000D03*
G01X29000Y9000D03*
G01X29000Y8000D03*
G01X29000Y7000D03*
G01X29000Y6000D03*
G01X29000Y5000D03*
G04 Draw part R1*
G01X52000Y5000D03*
G01X48000Y5000D03*
G04 Draw part R2*
G01X40000Y9000D03*
G01X40000Y14000D03*
G04 Draw part X1*
G54D13*
G01X50000Y16000D03*
G01X50000Y18000D03*
G04 Draw part R9*
G54D12*
G01X50000Y3000D03*
G01X46000Y3000D03*
G04 Draw part R6*
G01X51000Y3000D03*
G01X55000Y3000D03*
G04 Draw part R12*
G01X53000Y20000D03*
G01X49000Y20000D03*
G04 Draw part R10*
G01X53000Y21000D03*
G01X49000Y21000D03*
G04 Draw part R11*
G01X53000Y22000D03*
G01X49000Y22000D03*
G04 Draw part R13*
G01X52000Y6000D03*
G01X48000Y6000D03*
G04 Draw part R14*
G01X52000Y7000D03*
G01X48000Y7000D03*
G04 Draw part R44*
G01X52000Y10000D03*
G01X48000Y10000D03*
G04 Draw part R45*
G01X52000Y11000D03*
G01X48000Y11000D03*
G04 Draw part U8*
G54D11*
G01X58000Y5000D03*
G54D12*
G01X58000Y6000D03*
G01X58000Y7000D03*
G01X58000Y8000D03*
G01X58000Y9000D03*
G01X58000Y10000D03*
G01X58000Y11000D03*
G01X55000Y11000D03*
G01X55000Y10000D03*
G01X55000Y9000D03*
G01X55000Y8000D03*
G01X55000Y7000D03*
G01X55000Y6000D03*
G01X55000Y5000D03*
G04 Draw part R5*
G01X44900Y3000D03*
G01X40900Y3000D03*
G04 Draw part R4*
G01X51000Y4000D03*
G01X55000Y4000D03*
G04 Draw part R3*
G01X53000Y12000D03*
G01X57000Y12000D03*
G04 Draw part U3*
G54D11*
G01X14000Y24000D03*
G54D12*
G01X14000Y25000D03*
G01X14000Y26000D03*
G01X14000Y27000D03*
G01X11000Y27000D03*
G01X11000Y26000D03*
G01X11000Y25000D03*
G01X11000Y24000D03*
G04 Draw part U4*
G54D11*
G01X13000Y13000D03*
G54D12*
G01X13000Y14000D03*
G01X13000Y15000D03*
G01X13000Y16000D03*
G01X10000Y16000D03*
G01X10000Y15000D03*
G01X10000Y14000D03*
G01X10000Y13000D03*
G04 Draw part U5*
G54D11*
G01X13000Y7000D03*
G54D12*
G01X13000Y8000D03*
G01X13000Y9000D03*
G01X13000Y10000D03*
G01X10000Y10000D03*
G01X10000Y9000D03*
G01X10000Y8000D03*
G01X10000Y7000D03*
G04 Draw part R15*
G01X14000Y18000D03*
G01X14000Y14000D03*
G04 Draw part R16*
G01X15000Y12000D03*
G01X15000Y8000D03*
G04 Draw part C7*
G54D14*
G01X13000Y20980D03*
G01X13000Y20000D03*
G04 Draw part R17*
G54D12*
G01X16000Y28000D03*
G01X16000Y24000D03*
G04 Draw part R18*
G01X6000Y24000D03*
G01X6000Y28000D03*
G04 Draw part D11*
G01X5000Y24000D03*
G01X5000Y27000D03*
G04 Draw part D1*
G01X18000Y24000D03*
G01X18000Y27000D03*
G04 Draw part D2*
G01X17000Y27000D03*
G01X17000Y24000D03*
G04 Draw part R20*
G01X15000Y17000D03*
G01X15000Y13000D03*
G04 Draw part R21*
G01X17000Y13000D03*
G01X17000Y17000D03*
G04 Draw part R22*
G01X16000Y13000D03*
G01X16000Y17000D03*
G04 Draw part R23*
G01X14000Y8000D03*
G01X14000Y4000D03*
G04 Draw part R25*
G01X16000Y3000D03*
G01X16000Y7000D03*
G04 Draw part D3*
G01X21000Y10000D03*
G01X21000Y13000D03*
G04 Draw part D4*
G01X22000Y13000D03*
G01X22000Y10000D03*
G04 Draw part R26*
G01X9000Y19000D03*
G01X9000Y15000D03*
G04 Draw part R27*
G01X8000Y13000D03*
G01X8000Y9000D03*
G04 Draw part C8*
G54D14*
G01X10000Y20980D03*
G01X10000Y20000D03*
G04 Draw part R28*
G54D12*
G01X9000Y28000D03*
G01X9000Y24000D03*
G04 Draw part R29*
G01X19000Y24000D03*
G01X19000Y28000D03*
G04 Draw part D12*
G01X20000Y27000D03*
G01X20000Y24000D03*
G04 Draw part D5*
G01X7000Y24000D03*
G01X7000Y27000D03*
G04 Draw part D6*
G01X8000Y27000D03*
G01X8000Y24000D03*
G04 Draw part R31*
G01X8000Y18000D03*
G01X8000Y14000D03*
G04 Draw part R32*
G01X6000Y14000D03*
G01X6000Y18000D03*
G04 Draw part R33*
G01X7000Y14000D03*
G01X7000Y18000D03*
G04 Draw part R34*
G01X8000Y8000D03*
G01X8000Y4000D03*
G04 Draw part R35*
G01X9000Y8000D03*
G01X9000Y4000D03*
G04 Draw part D7*
G01X24000Y9000D03*
G01X24000Y12000D03*
G04 Draw part D8*
G01X23000Y12000D03*
G01X23000Y9000D03*
G04 Draw part U6*
G54D11*
G01X33000Y23000D03*
G54D12*
G01X33000Y24000D03*
G01X33000Y25000D03*
G01X33000Y26000D03*
G01X30000Y26000D03*
G01X30000Y25000D03*
G01X30000Y24000D03*
G01X30000Y23000D03*
G04 Draw part R36*
G01X36000Y28000D03*
G01X36000Y24000D03*
G04 Draw part R37*
G01X35000Y28000D03*
G01X35000Y24000D03*
G04 Draw part R38*
G01X24000Y24000D03*
G01X28000Y24000D03*
G04 Draw part Q1*
G01X23000Y25000D03*
G01X23000Y26000D03*
G01X23000Y27000D03*
G04 Draw part R39*
G01X28000Y25000D03*
G01X24000Y25000D03*
G04 Draw part R40*
G01X24000Y26000D03*
G01X28000Y26000D03*
G04 Draw part R41*
G01X29000Y26000D03*
G01X29000Y22000D03*
G04 Draw part D9*
G01X28000Y27000D03*
G01X31000Y27000D03*
G04 Draw part D10*
G01X31000Y28000D03*
G01X28000Y28000D03*
G04 Draw part U7*
G54D11*
G01X24000Y3000D03*
G54D12*
G01X24000Y4000D03*
G01X24000Y5000D03*
G01X24000Y6000D03*
G01X21000Y6000D03*
G01X21000Y5000D03*
G01X21000Y4000D03*
G01X21000Y3000D03*
G04 Draw part R43*
G01X37000Y5000D03*
G01X37000Y9000D03*
G04 Draw part C1*
G01X55000Y16000D03*
G01X52000Y16000D03*
G04 Draw part C2*
G01X23000Y16000D03*
G01X23000Y19000D03*
G04 Draw part C3*
G01X44000Y13000D03*
G01X44000Y16000D03*
G04 Draw part C4*
G01X32000Y11000D03*
G01X32000Y14000D03*
G04 Draw part C5*
G01X55000Y18000D03*
G01X52000Y18000D03*
G04 Draw part C6*
G54D14*
G01X25000Y17980D03*
G01X25000Y17000D03*
G04 Draw part R24*
G54D15*
G01X20000Y16000D03*
G01X20000Y17970D03*
G01X19010Y16990D03*
G04 Draw part PGVPP*
G54D13*
G01X48000Y4000D03*
G04 Draw part I2CCLK*
G01X55000Y14000D03*
G04 Draw part I2CDATA*
G01X56000Y14000D03*
G04 Draw part SER/PAR*
G01X46000Y2100D03*
G04 Draw part AGND*
G01X19000Y1000D03*
G01X20000Y1000D03*
G01X21000Y1000D03*
G04 Draw part PGCLK*
G01X43000Y4000D03*
G04 Draw part PGDATA*
G01X42100Y4000D03*
G04 Draw part I2CDATAIN*
G01X57000Y14000D03*
G04 Draw part CH1_IN*
G01X15000Y28000D03*
G04 Draw part S1*
G01X15000Y21000D03*
G04 Draw part S1A*
G01X16000Y21000D03*
G04 Draw part S4*
G01X5000Y19000D03*
G01X6000Y19000D03*
G01X7000Y19000D03*
G04 Draw part S3*
G01X16000Y20000D03*
G01X17000Y20000D03*
G01X18000Y20000D03*
G04 Draw part CH2_IN*
G01X10000Y28000D03*
G04 Draw part S2*
G01X8000Y20000D03*
G04 Draw part S2A*
G01X7000Y20000D03*
G04 Draw part RX*
G01X28000Y22000D03*
G04 Draw part TX*
G01X30000Y22000D03*
G04 Draw part GND*
G01X23000Y1000D03*
G01X24000Y1000D03*
G01X25000Y1000D03*
G04 Draw part +12*
G01X15000Y2000D03*
G01X16000Y2000D03*
G01X17000Y2000D03*
G04 Draw part -12*
G01X12000Y3000D03*
G01X13000Y3000D03*
G01X14000Y3000D03*
G04 Draw part VREF*
G01X19000Y13000D03*
G04 Draw part TRLVL*
G01X27000Y1000D03*
G04 Draw part +5*
G01X29000Y1000D03*
G01X30000Y1000D03*
G01X31000Y1000D03*
G04 Draw part CH1SelG*
G01X53000Y10000D03*
G04 Draw part CH2SelG*
G01X53000Y11000D03*
G04 Draw part Gain1*
G01X50000Y8000D03*
G04 Draw part Gain5*
G01X49000Y8000D03*
G04 Draw part M1*
G54D16*
G01X2200Y2200D03*
G04 Draw part M2*
G01X2100Y27800D03*
G04 Draw part M3*
G01X58000Y28000D03*
G04 Draw part M4*
G01X58000Y2000D03*
G04 Draw part CH1_G*
G54D13*
G01X15000Y27000D03*
G04 Draw part CH2_G*
G01X10000Y27000D03*
G04 Draw part R46*
G54D12*
G01X17000Y7000D03*
G01X17000Y3000D03*
G04 Draw part R47*
G01X18100Y3000D03*
G01X18100Y7000D03*
G04 Draw part Ch1Sel*
G54D13*
G01X54000Y21000D03*
G04 Draw part Ch2Sel*
G01X54000Y22000D03*
G04 Draw part R48*
G54D12*
G01X46000Y25000D03*
G01X42000Y25000D03*
G04 Draw part R49*
G01X42000Y26000D03*
G01X46000Y26000D03*
G04 Draw part USB5+*
G54D13*
G01X41000Y25000D03*
G04 Draw part USBD-*
G01X40000Y25000D03*
G04 Draw part USBD+*
G01X39000Y25000D03*
G04 Draw part USBG*
G01X38000Y25000D03*
G04 Draw part C9*
G54D12*
G01X50000Y24000D03*
G01X53000Y24000D03*
G04 Draw part SC1*
G04 Draw part AC/DC*
G54D13*
G01X48000Y19000D03*

G04 Draw traces*
G54D17*
G01X47000Y19000D02*
G01X48000Y19000D01*
G01X48000Y19000D02*
G01X49000Y20000D01*
G01X48000Y19000D02*
G01X47000Y19000D01*
G01X8000Y13000D02*
G01X8625Y13000D01*
G01X8625Y13000D02*
G01X9000Y13375D01*
G01X9000Y13375D02*
G01X9000Y14000D01*
G01X10000Y14000D02*
G01X9000Y14000D01*
G01X9000Y14000D02*
G01X8000Y15000D01*
G01X8000Y15000D02*
G01X7375Y15000D01*
G01X7375Y15000D02*
G01X7000Y14625D01*
G01X7000Y14625D02*
G01X7000Y14000D01*
G01X35000Y24000D02*
G01X36000Y24000D01*
G01X33000Y24000D02*
G01X35000Y24000D01*
G01X47000Y6000D02*
G01X48125Y6000D01*
G01X48125Y6000D02*
G01X48000Y6000D01*
G01X48000Y6000D02*
G01X50000Y8000D01*
G01X14000Y8000D02*
G01X14875Y8000D01*
G54D18*
G01X14875Y8000D02*
G01X15000Y8000D01*
G54D17*
G01X13000Y8000D02*
G01X14000Y8000D01*
G01X8000Y9000D02*
G01X10000Y9000D01*
G01X8000Y8000D02*
G01X8000Y9000D01*
G01X24000Y26000D02*
G01X23000Y26000D01*
G01X47000Y7000D02*
G01X48000Y7000D01*
G01X48000Y7000D02*
G01X49000Y8000D01*
G01X50000Y16000D02*
G01X49000Y17000D01*
G01X49000Y17000D02*
G01X47000Y17000D01*
G01X52000Y16000D02*
G01X50000Y16000D01*
G01X15000Y17000D02*
G01X14000Y18000D01*
G01X15000Y21000D02*
G01X14000Y20000D01*
G01X13000Y20000D02*
G01X14000Y20000D01*
G01X14000Y20000D02*
G01X14000Y18000D01*
G01X10000Y28000D02*
G01X9000Y28000D01*
G01X28000Y26000D02*
G01X29000Y26000D01*
G01X28000Y27000D02*
G01X28000Y26000D01*
G01X28000Y28000D02*
G01X28000Y27000D01*
G01X58000Y7000D02*
G01X56375Y8625D01*
G01X56375Y8625D02*
G01X56375Y13750D01*
G01X56375Y13750D02*
G01X56000Y14125D01*
G01X56000Y14125D02*
G01X56000Y14000D01*
G01X15000Y28000D02*
G01X16000Y28000D01*
G01X9000Y24000D02*
G01X10000Y25000D01*
G01X10000Y25000D02*
G01X10000Y26000D01*
G01X10000Y26000D02*
G01X11000Y27000D01*
G01X8000Y24000D02*
G01X9000Y24000D01*
G01X7000Y24000D02*
G01X8000Y24000D01*
G01X29000Y22000D02*
G01X28000Y22000D01*
G01X48000Y5000D02*
G01X48000Y4000D01*
G01X47000Y5000D02*
G01X48000Y5000D01*
G01X43000Y4000D02*
G01X41000Y6000D01*
G01X46000Y3000D02*
G01X44875Y3000D01*
G01X44875Y3000D02*
G01X44900Y3000D01*
G01X46000Y3000D02*
G01X46000Y2100D01*
G01X16000Y24000D02*
G01X14000Y26000D01*
G01X17000Y24000D02*
G01X18000Y24000D01*
G01X16000Y24000D02*
G01X17000Y24000D01*
G01X19000Y28000D02*
G01X19000Y28500D01*
G01X19000Y28500D02*
G01X18500Y29000D01*
G01X18500Y29000D02*
G01X17500Y29000D01*
G01X17500Y29000D02*
G01X17000Y28500D01*
G01X17000Y28500D02*
G01X17000Y28000D01*
G01X17000Y27000D02*
G01X17000Y28000D01*
G54D12*
G01X17000Y28000D03*
G01X8000Y28000D03*
G54D17*
G01X8000Y28000D02*
G01X8000Y27000D01*
G01X20000Y27000D02*
G01X19000Y28000D01*
G01X52000Y10000D02*
G01X53000Y10000D01*
G01X48000Y11000D02*
G01X47000Y11000D01*
G01X42100Y4000D02*
G01X42000Y4000D01*
G01X42000Y4000D02*
G01X41000Y5000D01*
G01X57000Y12000D02*
G01X57000Y14000D01*
G01X58000Y10000D02*
G01X57000Y11000D01*
G01X57000Y11000D02*
G01X57000Y12000D01*
G01X18000Y27000D02*
G01X18000Y28000D01*
G54D12*
G01X18000Y28000D03*
G01X7000Y28000D03*
G54D17*
G01X7000Y28000D02*
G01X7000Y27000D01*
G01X6000Y28000D02*
G01X7000Y28000D01*
G01X7000Y28000D02*
G01X7000Y26875D01*
G01X7000Y26875D02*
G01X7000Y27000D01*
G01X5000Y27000D02*
G01X6000Y28000D01*
G01X8000Y14000D02*
G01X7000Y13000D01*
G01X7000Y13000D02*
G01X5500Y13000D01*
G01X5500Y13000D02*
G01X5000Y13500D01*
G01X5000Y13500D02*
G01X5000Y19000D01*
G01X18100Y7000D02*
G01X17000Y7000D01*
G01X24000Y4000D02*
G01X21000Y7000D01*
G01X21000Y7000D02*
G01X18100Y7000D01*
G54D19*
G01X46000Y25000D02*
G01X48000Y25000D01*
G54D12*
G01X48000Y25000D03*
G01X48000Y14000D03*
G54D19*
G01X48000Y14000D02*
G01X47000Y14000D01*
G54D17*
G01X52000Y11000D02*
G01X53000Y11000D01*
G01X50000Y18000D02*
G01X52000Y18000D01*
G01X47000Y18000D02*
G01X50000Y18000D01*
G01X35000Y15000D02*
G01X37000Y17000D01*
G01X37000Y17000D02*
G01X37000Y18000D01*
G01X37000Y18000D02*
G01X35000Y20000D01*
G01X35000Y20000D02*
G01X35000Y22500D01*
G01X35000Y22500D02*
G01X35500Y23000D01*
G01X35500Y23000D02*
G01X41000Y23000D01*
G01X33000Y25000D02*
G01X34000Y25000D01*
G54D12*
G01X34000Y25000D03*
G01X37000Y22000D03*
G54D17*
G01X37000Y22000D02*
G01X37000Y21000D01*
G01X37000Y21000D02*
G01X38000Y20000D01*
G01X38000Y20000D02*
G01X41000Y20000D01*
G01X47000Y20000D02*
G01X48000Y20000D01*
G01X48000Y20000D02*
G01X49000Y21000D01*
G01X15000Y13000D02*
G01X16000Y12000D01*
G01X16000Y12000D02*
G01X18000Y12000D01*
G01X18000Y12000D02*
G01X18250Y12250D01*
G01X18250Y12250D02*
G01X18250Y19125D01*
G01X18250Y19125D02*
G01X18000Y19375D01*
G01X18000Y19375D02*
G01X18000Y20000D01*
G01X14000Y24000D02*
G01X14000Y22000D01*
G01X14000Y25000D02*
G01X14000Y24000D01*
G01X16000Y21000D02*
G01X16000Y22000D01*
G01X16000Y22000D02*
G01X14000Y22000D01*
G01X14000Y24000D02*
G01X14000Y24125D01*
G01X14000Y24125D02*
G01X14000Y22000D01*
G01X14000Y22000D02*
G01X13000Y22000D01*
G01X13000Y22000D02*
G01X13000Y20980D01*
G01X41000Y25000D02*
G01X42000Y25000D01*
G01X42000Y25000D02*
G01X42000Y26000D01*
G01X47000Y21000D02*
G01X48000Y21000D01*
G01X48000Y21000D02*
G01X49000Y22000D01*
G01X35000Y16000D02*
G01X36000Y17000D01*
G54D12*
G01X36000Y17000D03*
G01X37000Y11000D03*
G54D17*
G01X37000Y11000D02*
G01X37500Y10500D01*
G54D19*
G01X37500Y10500D02*
G01X44500Y10500D01*
G54D17*
G01X44500Y10500D02*
G01X46000Y12000D01*
G01X46000Y12000D02*
G01X47000Y12000D01*
G01X48000Y10000D02*
G01X47125Y10000D01*
G01X47125Y10000D02*
G01X47000Y9875D01*
G01X47000Y9875D02*
G01X47000Y10000D01*
G01X11000Y26000D02*
G01X11000Y25000D01*
G01X10000Y20980D02*
G01X9020Y20980D01*
G01X9020Y20980D02*
G01X9000Y21000D01*
G01X9000Y21000D02*
G01X9000Y23000D01*
G01X9000Y23000D02*
G01X11000Y25000D01*
G01X11000Y25000D02*
G01X11000Y26000D01*
G01X7000Y20000D02*
G01X7000Y20500D01*
G01X7000Y20500D02*
G01X7500Y21000D01*
G01X7500Y21000D02*
G01X10000Y21000D01*
G01X10000Y21000D02*
G01X10000Y20980D01*
G01X17000Y20000D02*
G01X17000Y18500D01*
G01X17000Y18500D02*
G01X17750Y17750D01*
G01X17750Y17750D02*
G01X17750Y15375D01*
G01X17750Y15375D02*
G01X17375Y15000D01*
G01X17375Y15000D02*
G01X17000Y15000D01*
G01X14000Y14000D02*
G01X15000Y15000D01*
G01X15000Y15000D02*
G01X17000Y15000D01*
G01X17000Y15000D02*
G01X17000Y13000D01*
G01X13000Y14000D02*
G01X14000Y14000D01*
G01X41000Y22000D02*
G01X40000Y22000D01*
G54D12*
G01X40000Y22000D03*
G54D17*
G01X58000Y6000D02*
G01X59000Y5000D01*
G01X59000Y5000D02*
G01X59000Y4500D01*
G01X59000Y4500D02*
G01X58500Y4000D01*
G01X58500Y4000D02*
G01X57000Y4000D01*
G01X57000Y4000D02*
G01X56000Y3000D01*
G01X56000Y3000D02*
G01X55000Y3000D01*
G01X41000Y7000D02*
G01X43000Y7000D01*
G01X43000Y7000D02*
G01X49000Y1000D01*
G01X49000Y1000D02*
G01X53000Y1000D01*
G01X53000Y1000D02*
G01X55000Y3000D01*
G54D19*
G01X41000Y17000D02*
G01X39000Y17000D01*
G54D12*
G01X39000Y17000D03*
G01X28000Y13000D03*
G54D19*
G01X28000Y13000D02*
G01X29000Y13000D01*
G54D17*
G01X58000Y5000D02*
G01X55625Y7375D01*
G01X55625Y7375D02*
G01X55625Y13375D01*
G01X55625Y13375D02*
G01X55000Y14000D01*
G01X9000Y8000D02*
G01X10000Y8000D01*
G01X8000Y4000D02*
G01X8000Y5500D01*
G01X8000Y5500D02*
G01X9000Y6500D01*
G01X9000Y6500D02*
G01X9000Y8000D01*
G01X16000Y17000D02*
G01X16000Y20000D01*
G01X16000Y17000D02*
G01X17000Y17000D01*
G01X41000Y21000D02*
G01X39500Y21000D01*
G01X39500Y21000D02*
G01X39000Y21500D01*
G01X39000Y21500D02*
G01X39000Y22000D01*
G54D12*
G01X39000Y22000D03*
G54D17*
G01X54000Y22000D02*
G01X53000Y22000D01*
G54D19*
G01X47000Y23000D02*
G01X43500Y19500D01*
G01X43500Y19500D02*
G01X43500Y16625D01*
G01X43500Y16625D02*
G01X41375Y14500D01*
G01X41375Y14500D02*
G01X37500Y14500D01*
G01X37500Y14500D02*
G01X35000Y12000D01*
G01X41000Y15000D02*
G01X40000Y15000D01*
G54D12*
G01X40000Y15000D03*
G01X27000Y11000D03*
G54D19*
G01X27000Y11000D02*
G01X29000Y11000D01*
G54D17*
G01X58000Y9000D02*
G01X58000Y8000D01*
G01X58000Y8000D02*
G01X59000Y7000D01*
G54D12*
G01X59000Y7000D03*
G01X56000Y4000D03*
G54D17*
G01X56000Y4000D02*
G01X55000Y4000D01*
G01X55000Y4000D02*
G01X53000Y2000D01*
G01X53000Y2000D02*
G01X49000Y2000D01*
G01X49000Y2000D02*
G01X43000Y8000D01*
G01X43000Y8000D02*
G01X41000Y8000D01*
G01X8000Y18000D02*
G01X9000Y19000D01*
G01X8000Y20000D02*
G01X10000Y20000D01*
G01X9000Y19000D02*
G01X9000Y20000D01*
G01X9000Y20000D02*
G01X10000Y20000D01*
G01X7000Y18000D02*
G01X7000Y19000D01*
G01X6000Y18000D02*
G01X7000Y18000D01*
G01X47000Y22000D02*
G01X48000Y22000D01*
G01X48000Y22000D02*
G01X50000Y24000D01*
G01X54000Y21000D02*
G01X53000Y21000D01*
G54D19*
G01X47000Y24000D02*
G01X42625Y19625D01*
G01X42625Y19625D02*
G01X42625Y16625D01*
G01X42625Y16625D02*
G01X41500Y15500D01*
G01X41500Y15500D02*
G01X37500Y15500D01*
G01X37500Y15500D02*
G01X35000Y13000D01*
G54D17*
G01X40000Y9000D02*
G01X40500Y9500D01*
G54D19*
G01X40500Y9500D02*
G01X43500Y9500D01*
G54D17*
G01X43500Y9500D02*
G01X44000Y9000D01*
G54D12*
G01X44000Y9000D03*
G01X44000Y12000D03*
G54D17*
G01X44000Y12000D02*
G01X45000Y13000D01*
G01X45000Y13000D02*
G01X47000Y13000D01*
G01X40000Y9000D02*
G01X40000Y8000D01*
G01X40000Y8000D02*
G01X38000Y6000D01*
G01X38000Y6000D02*
G01X38000Y4000D01*
G54D12*
G01X38000Y4000D03*
G01X28000Y8000D03*
G54D17*
G01X28000Y8000D02*
G01X29000Y8000D01*
G01X21000Y13000D02*
G01X21000Y14000D01*
G01X21000Y14000D02*
G01X20000Y15000D01*
G01X20000Y15000D02*
G01X20000Y16000D01*
G01X21000Y13000D02*
G01X21000Y14000D01*
G01X23000Y16000D02*
G01X24000Y16000D01*
G54D20*
G01X24000Y16000D02*
G01X24000Y14000D01*
G54D12*
G01X24000Y14000D03*
G01X21000Y14000D03*
G54D17*
G01X21000Y14000D02*
G01X21000Y13000D01*
G01X24000Y12000D02*
G01X24000Y14000D01*
G54D20*
G01X25000Y17000D02*
G01X24000Y16000D01*
G01X29000Y17000D02*
G01X25000Y17000D01*
G01X52000Y5000D02*
G01X52000Y6000D01*
G01X52000Y6000D02*
G01X52000Y7000D01*
G01X44000Y13000D02*
G01X46000Y15000D01*
G01X46000Y15000D02*
G01X47000Y15000D01*
G01X44000Y13000D02*
G01X41000Y13000D01*
G01X25000Y17000D02*
G01X29000Y17000D01*
G54D17*
G01X28000Y25000D02*
G01X27375Y25000D01*
G01X27375Y25000D02*
G01X27000Y25375D01*
G01X27000Y25375D02*
G01X27000Y28000D01*
G54D12*
G01X27000Y28000D03*
G01X33000Y28000D03*
G54D17*
G01X33000Y28000D02*
G01X32000Y27000D01*
G01X32000Y27000D02*
G01X31000Y27000D01*
G01X31000Y27000D02*
G01X32000Y27000D01*
G54D20*
G01X35000Y28000D02*
G01X32875Y28000D01*
G54D17*
G01X32875Y28000D02*
G01X33000Y28000D01*
G54D20*
G01X53000Y20000D02*
G01X54000Y20000D01*
G54D13*
G01X54000Y20000D03*
G01X49000Y15000D03*
G54D20*
G01X49000Y15000D02*
G01X47000Y15000D01*
G01X41000Y13000D02*
G01X38000Y13000D01*
G01X38000Y13000D02*
G01X36000Y11000D01*
G01X36000Y11000D02*
G01X36000Y4000D01*
G01X36000Y4000D02*
G01X28000Y4000D01*
G01X28000Y4000D02*
G01X28000Y1875D01*
G01X28000Y1875D02*
G01X29000Y1000D01*
G54D17*
G01X37000Y5000D02*
G01X36000Y5000D01*
G01X36000Y5000D02*
G01X36000Y4000D01*
G01X31000Y1000D02*
G01X30000Y1000D01*
G01X30000Y1000D02*
G01X29000Y1000D01*
G54D20*
G01X29000Y1000D02*
G01X28000Y2000D01*
G01X28000Y2000D02*
G01X28000Y5000D01*
G01X28000Y5000D02*
G01X29000Y6000D01*
G01X29000Y6000D02*
G01X29000Y7000D01*
G01X29000Y7000D02*
G01X31000Y7000D01*
G01X31000Y7000D02*
G01X32000Y8000D01*
G01X32000Y8000D02*
G01X32000Y11000D01*
G01X32000Y11000D02*
G01X31000Y12000D01*
G01X31000Y12000D02*
G01X31000Y16000D01*
G01X31000Y16000D02*
G01X30000Y17000D01*
G01X30000Y17000D02*
G01X29000Y17000D01*
G54D17*
G01X55000Y5000D02*
G01X52000Y5000D01*
G01X47000Y15000D02*
G01X49000Y15000D01*
G01X53000Y12000D02*
G01X51000Y12000D01*
G54D20*
G01X51000Y12000D02*
G01X51000Y13000D01*
G01X51000Y13000D02*
G01X49000Y15000D01*
G01X52000Y7000D02*
G01X51000Y8000D01*
G01X51000Y8000D02*
G01X51000Y12000D01*
G01X53000Y20000D02*
G01X52000Y21000D01*
G01X52000Y21000D02*
G01X52000Y26000D01*
G01X52000Y26000D02*
G01X51000Y27000D01*
G01X51000Y27000D02*
G01X34500Y27000D01*
G01X34500Y27000D02*
G01X34000Y27500D01*
G01X34000Y27500D02*
G01X34000Y28000D01*
G01X34000Y28000D02*
G01X35000Y28000D01*
G01X52000Y5000D02*
G01X51000Y4000D01*
G01X51000Y4000D02*
G01X51000Y3000D01*
G01X50000Y3000D02*
G01X51000Y3000D01*
G54D17*
G01X21000Y10000D02*
G01X20000Y10000D01*
G54D12*
G01X20000Y10000D03*
G01X16000Y8000D03*
G54D17*
G01X16000Y8000D02*
G01X16000Y7000D01*
G54D19*
G01X22000Y10000D02*
G01X24625Y10000D01*
G01X24625Y10000D02*
G01X25125Y9500D01*
G01X25125Y9500D02*
G01X30500Y9500D01*
G01X30500Y9500D02*
G01X31000Y10000D01*
G54D12*
G01X31000Y10000D03*
G01X34000Y10000D03*
G54D19*
G01X34000Y10000D02*
G01X35000Y10000D01*
G54D17*
G01X21000Y10000D02*
G01X22000Y10000D01*
G01X40900Y3000D02*
G01X43500Y3000D01*
G01X43500Y3000D02*
G01X44000Y3500D01*
G01X44000Y3500D02*
G01X44000Y5000D01*
G01X44000Y5000D02*
G01X43000Y6000D01*
G54D12*
G01X43000Y6000D03*
G01X46000Y6000D03*
G54D17*
G01X46000Y6000D02*
G01X46000Y7000D01*
G01X46000Y7000D02*
G01X47000Y8000D01*
G01X17000Y2000D02*
G01X20000Y2000D01*
G01X16000Y2000D02*
G01X17000Y2000D01*
G01X15000Y2000D02*
G01X16000Y2000D01*
G01X11000Y24000D02*
G01X11000Y24125D01*
G01X11000Y24125D02*
G01X11000Y22000D01*
G01X30000Y23000D02*
G01X24000Y23000D01*
G01X24000Y24000D02*
G01X24000Y23000D01*
G54D20*
G01X24000Y23000D02*
G01X22000Y23000D01*
G54D13*
G01X22000Y23000D03*
G54D12*
G01X11000Y22000D03*
G54D17*
G01X11000Y22000D02*
G01X11000Y24000D01*
G01X6000Y24000D02*
G01X6000Y22000D01*
G54D12*
G01X6000Y22000D03*
G01X10000Y22000D03*
G54D17*
G01X10000Y22000D02*
G01X11000Y22000D01*
G01X11000Y22000D02*
G01X11000Y23125D01*
G01X10000Y13000D02*
G01X11000Y13000D01*
G54D20*
G01X11000Y13000D02*
G01X11000Y24000D01*
G01X10000Y7000D02*
G01X11000Y7000D01*
G01X11000Y7000D02*
G01X11000Y13000D01*
G01X11000Y13000D02*
G01X10000Y13000D01*
G01X21000Y3000D02*
G01X20000Y2000D01*
G01X20000Y2000D02*
G01X11375Y2000D01*
G01X11375Y2000D02*
G01X11000Y2375D01*
G01X11000Y2375D02*
G01X11000Y7000D01*
G01X11000Y7000D02*
G01X10000Y7000D01*
G54D17*
G01X6000Y19000D02*
G01X5375Y18375D01*
G01X5375Y18375D02*
G01X5375Y16625D01*
G01X5375Y16625D02*
G01X6000Y16000D01*
G01X9000Y15000D02*
G01X8000Y16000D01*
G01X8000Y16000D02*
G01X6000Y16000D01*
G01X6000Y16000D02*
G01X6000Y14000D01*
G01X10000Y15000D02*
G01X9000Y15000D01*
G54D19*
G01X35000Y14000D02*
G01X37500Y16500D01*
G01X37500Y16500D02*
G01X41500Y16500D01*
G01X41500Y16500D02*
G01X42000Y17000D01*
G01X42000Y17000D02*
G01X42000Y23000D01*
G01X42000Y23000D02*
G01X41125Y24000D01*
G01X41125Y24000D02*
G01X41000Y24000D01*
G54D17*
G01X18100Y3000D02*
G01X18100Y3100D01*
G01X18100Y3100D02*
G01X19000Y4000D01*
G01X19000Y4000D02*
G01X20000Y4000D01*
G01X37000Y9000D02*
G01X37000Y10000D01*
G54D12*
G01X37000Y10000D03*
G01X39000Y12000D03*
G54D17*
G01X39000Y12000D02*
G01X41000Y12000D01*
G01X41000Y12000D02*
G01X39000Y12000D01*
G01X21000Y4000D02*
G01X20000Y4000D01*
G54D12*
G01X20000Y4000D03*
G01X39000Y8000D03*
G54D17*
G01X39000Y8000D02*
G01X38000Y8000D01*
G01X38000Y8000D02*
G01X37000Y9000D01*
G01X23000Y9000D02*
G01X20000Y9000D01*
G54D12*
G01X20000Y9000D03*
G01X9000Y2000D03*
G54D17*
G01X9000Y2000D02*
G01X9000Y4000D01*
G01X24000Y9000D02*
G01X23000Y9000D01*
G54D19*
G01X35000Y9000D02*
G01X34000Y9000D01*
G54D12*
G01X34000Y9000D03*
G01X31000Y9000D03*
G54D19*
G01X31000Y9000D02*
G01X30500Y8500D01*
G01X30500Y8500D02*
G01X24500Y8500D01*
G01X24500Y8500D02*
G01X24000Y9000D01*
G54D17*
G01X41000Y10000D02*
G01X39000Y10000D01*
G01X39000Y10000D02*
G01X38000Y9000D01*
G54D12*
G01X38000Y9000D03*
G01X27000Y9000D03*
G54D17*
G01X27000Y9000D02*
G01X29000Y9000D01*
G01X23000Y25000D02*
G01X23000Y24000D01*
G54D12*
G01X23000Y24000D03*
G01X36000Y22000D03*
G54D17*
G01X36000Y22000D02*
G01X36000Y21000D01*
G01X36000Y21000D02*
G01X38000Y19000D01*
G01X38000Y19000D02*
G01X41000Y19000D01*
G01X24000Y25000D02*
G01X23000Y25000D01*
G01X13000Y13000D02*
G01X14000Y13000D01*
G01X14000Y13000D02*
G01X15000Y14000D01*
G01X15000Y14000D02*
G01X15625Y14000D01*
G01X15625Y14000D02*
G01X16000Y13625D01*
G01X16000Y13625D02*
G01X16000Y13000D01*
G01X13000Y13000D02*
G01X14000Y13000D01*
G01X14000Y13000D02*
G01X14000Y12500D01*
G01X14000Y12500D02*
G01X14500Y12000D01*
G01X14500Y12000D02*
G01X15000Y12000D01*
G01X29000Y10000D02*
G01X26000Y10000D01*
G54D12*
G01X26000Y10000D03*
G01X39000Y3000D03*
G54D17*
G01X39000Y3000D02*
G01X39000Y6000D01*
G01X39000Y6000D02*
G01X40500Y7500D01*
G54D19*
G01X40500Y7500D02*
G01X40500Y8500D01*
G54D17*
G01X40500Y8500D02*
G01X41000Y9000D01*
G54D19*
G01X29000Y14000D02*
G01X28000Y14000D01*
G54D12*
G01X28000Y14000D03*
G01X39000Y18000D03*
G54D19*
G01X39000Y18000D02*
G01X41000Y18000D01*
G54D17*
G01X41000Y11000D02*
G01X38000Y11000D01*
G54D12*
G01X38000Y11000D03*
G01X28000Y15000D03*
G54D17*
G01X28000Y15000D02*
G01X29000Y15000D01*
G54D19*
G01X35000Y8000D02*
G01X34000Y8000D01*
G54D12*
G01X34000Y8000D03*
G01X31000Y8000D03*
G54D19*
G01X31000Y8000D02*
G01X30500Y7500D01*
G01X30500Y7500D02*
G01X27500Y7500D01*
G01X27500Y7500D02*
G01X27000Y7000D01*
G01X27000Y7000D02*
G01X27000Y5000D01*
G01X27000Y1000D02*
G01X27000Y5000D01*
G01X27000Y5000D02*
G01X24000Y5000D01*
G54D17*
G01X13000Y10000D02*
G01X18000Y10000D01*
G01X18000Y10000D02*
G01X20000Y8000D01*
G01X20000Y8000D02*
G01X22000Y8000D01*
G01X22000Y8000D02*
G01X24000Y6000D01*
G01X13000Y16000D02*
G01X12000Y16000D01*
G01X12000Y16000D02*
G01X12000Y2875D01*
G01X12000Y2875D02*
G01X12000Y3000D01*
G01X13000Y10000D02*
G01X12000Y10000D01*
G01X12000Y10000D02*
G01X12000Y3000D01*
G54D20*
G01X12000Y3000D02*
G01X12000Y26000D01*
G01X12000Y26000D02*
G01X13000Y27000D01*
G01X13000Y27000D02*
G01X14000Y27000D01*
G54D17*
G01X19000Y24000D02*
G01X19000Y26000D01*
G54D20*
G01X33000Y23000D02*
G01X33000Y21625D01*
G01X33000Y21625D02*
G01X32375Y21000D01*
G01X32375Y21000D02*
G01X22000Y21000D01*
G01X22000Y21000D02*
G01X21000Y22000D01*
G01X21000Y22000D02*
G01X21000Y25000D01*
G01X21000Y25000D02*
G01X20000Y26000D01*
G01X20000Y26000D02*
G01X19000Y26000D01*
G01X19000Y26000D02*
G01X15000Y26000D01*
G01X15000Y26000D02*
G01X14000Y27000D01*
G54D17*
G01X33000Y26000D02*
G01X32000Y25000D01*
G01X32000Y25000D02*
G01X32000Y24000D01*
G01X32000Y24000D02*
G01X33000Y23000D01*
G54D20*
G01X13000Y3000D02*
G01X12000Y3000D01*
G01X14000Y3000D02*
G01X13000Y3000D01*
G54D17*
G01X19000Y13000D02*
G01X19000Y17000D01*
G01X19000Y17000D02*
G01X19010Y16990D01*
G01X13000Y9000D02*
G01X17000Y9000D01*
G54D12*
G01X17000Y9000D03*
G01X19000Y11000D03*
G54D17*
G01X19000Y11000D02*
G01X19000Y17000D01*
G01X10000Y10000D02*
G01X10000Y11000D01*
G54D12*
G01X10000Y11000D03*
G01X13000Y11000D03*
G54D17*
G01X13000Y11000D02*
G01X19000Y11000D01*
G01X19000Y11000D02*
G01X19000Y17000D01*
G01X19000Y17000D02*
G01X19010Y16990D01*
G01X29000Y12000D02*
G01X27000Y12000D01*
G54D12*
G01X27000Y12000D03*
G01X40000Y16000D03*
G54D17*
G01X40000Y16000D02*
G01X41000Y16000D01*
G54D20*
G01X23000Y1000D02*
G01X21000Y1000D01*
G54D17*
G01X15000Y27000D02*
G01X14000Y28000D01*
G01X14000Y28000D02*
G01X11000Y28000D01*
G01X11000Y28000D02*
G01X10000Y27000D01*
G01X58000Y11000D02*
G01X58000Y15000D01*
G01X58000Y15000D02*
G01X55000Y15000D01*
G01X55000Y16000D02*
G01X55000Y15000D01*
G01X55000Y15000D02*
G01X54000Y15000D01*
G54D20*
G01X54000Y15000D02*
G01X54000Y10000D01*
G54D17*
G01X55000Y10000D02*
G01X54000Y10000D01*
G01X55000Y10000D02*
G01X54000Y10000D01*
G54D20*
G01X54000Y10000D02*
G01X54000Y8125D01*
G54D17*
G01X54000Y8125D02*
G01X54000Y8000D01*
G01X55000Y8000D02*
G01X54000Y8000D01*
G01X55000Y6000D02*
G01X54000Y7000D01*
G01X54000Y7000D02*
G01X54000Y8000D01*
G01X54000Y8000D02*
G01X55000Y8000D01*
G01X23000Y27000D02*
G01X23000Y28000D01*
G01X23000Y28000D02*
G01X24000Y29000D01*
G01X24000Y29000D02*
G01X31000Y29000D01*
G01X31000Y28000D02*
G01X31000Y29000D01*
G54D20*
G01X31000Y29000D02*
G01X36000Y29000D01*
G01X55000Y18000D02*
G01X56000Y19000D01*
G01X56000Y19000D02*
G01X56000Y24000D01*
G01X56000Y24000D02*
G01X51000Y29000D01*
G01X51000Y29000D02*
G01X38000Y29000D01*
G01X38000Y29000D02*
G01X36000Y29000D01*
G54D17*
G01X36000Y29000D02*
G01X36000Y28000D01*
G54D20*
G01X55000Y16000D02*
G01X55000Y18000D01*
G01X47000Y16000D02*
G01X49000Y16000D01*
G01X49000Y16000D02*
G01X50000Y15000D01*
G01X50000Y15000D02*
G01X55000Y15000D01*
G01X55000Y15000D02*
G01X55000Y16000D01*
G01X44000Y16000D02*
G01X47000Y16000D01*
G01X41000Y14000D02*
G01X42000Y14000D01*
G01X42000Y14000D02*
G01X44000Y16000D01*
G01X40000Y14000D02*
G01X41000Y14000D01*
G01X35000Y11000D02*
G01X38000Y14000D01*
G01X38000Y14000D02*
G01X40000Y14000D01*
G01X35000Y7000D02*
G01X33500Y7000D01*
G01X33500Y7000D02*
G01X33000Y7500D01*
G01X33000Y7500D02*
G01X33000Y11000D01*
G01X35000Y6000D02*
G01X35000Y7000D01*
G01X35000Y5000D02*
G01X35000Y6000D01*
G54D17*
G01X29000Y5000D02*
G01X35000Y5000D01*
G01X29000Y5000D02*
G01X35000Y5000D01*
G01X35000Y11000D02*
G01X33000Y11000D01*
G54D20*
G01X35000Y11000D02*
G01X33000Y11000D01*
G01X33000Y11000D02*
G01X33000Y13000D01*
G01X33000Y13000D02*
G01X32000Y14000D01*
G54D17*
G01X35000Y18000D02*
G01X32000Y18000D01*
G54D20*
G01X29000Y18000D02*
G01X32000Y18000D01*
G01X32000Y18000D02*
G01X32000Y14000D01*
G01X25000Y17980D02*
G01X28980Y17980D01*
G54D17*
G01X28980Y17980D02*
G01X29000Y18000D01*
G54D20*
G01X23000Y12000D02*
G01X23000Y11250D01*
G01X23000Y11250D02*
G01X23250Y11000D01*
G01X23250Y11000D02*
G01X25000Y11000D01*
G54D12*
G01X25000Y11000D03*
G54D13*
G01X25000Y3000D03*
G54D20*
G01X25000Y3000D02*
G01X25000Y1000D01*
G01X25000Y1000D02*
G01X24000Y1000D01*
G54D17*
G01X25000Y1000D02*
G01X25000Y3000D01*
G54D20*
G01X23000Y19000D02*
G01X24000Y19000D01*
G01X24000Y19000D02*
G01X25000Y18000D01*
G01X25000Y18000D02*
G01X25000Y17980D01*
G01X22000Y13000D02*
G01X22000Y18000D01*
G01X22000Y18000D02*
G01X23000Y19000D01*
G01X23000Y12000D02*
G01X22000Y13000D01*
G01X25000Y1000D02*
G01X25000Y3000D01*
G54D17*
G01X25000Y3000D02*
G01X24000Y3000D01*
G54D20*
G01X24000Y1000D02*
G01X25000Y1000D01*
G01X23000Y1000D02*
G01X24000Y1000D01*
G01X20000Y17970D02*
G01X20000Y20000D01*
G01X20000Y20000D02*
G01X19000Y21000D01*
G54D13*
G01X19000Y21000D03*
G01X13000Y18000D03*
G54D20*
G01X13000Y18000D02*
G01X13000Y17000D01*
G01X20000Y17970D02*
G01X20000Y20000D01*
G01X13000Y15000D02*
G01X13625Y15625D01*
G01X20000Y1000D02*
G01X21125Y1000D01*
G01X21125Y1000D02*
G01X21000Y1000D01*
G01X19000Y1000D02*
G01X20000Y1000D01*
G01X19000Y1000D02*
G01X5000Y1000D01*
G01X5000Y1000D02*
G01X4000Y2000D01*
G01X4000Y2000D02*
G01X4000Y22000D01*
G01X4000Y22000D02*
G01X5000Y23000D01*
G54D12*
G01X5000Y23000D03*
G54D20*
G01X13000Y15000D02*
G01X13625Y15625D01*
G54D17*
G01X10000Y16000D02*
G01X10000Y17000D01*
G54D12*
G01X10000Y17000D03*
G01X13000Y17000D03*
G54D20*
G01X13000Y17000D02*
G01X13625Y16375D01*
G01X13625Y16375D02*
G01X13625Y15625D01*
G01X13625Y15625D02*
G01X13000Y15000D01*
G01X20000Y17970D02*
G01X20000Y20000D01*
G01X20000Y20000D02*
G01X19000Y21000D01*
G01X19000Y21000D02*
G01X19000Y23000D01*
G54D21*
G01X19000Y23000D03*
G54D12*
G01X5000Y23000D03*
G54D17*
G01X5000Y23000D02*
G01X5000Y24000D01*
G54D12*
G01X38000Y28000D03*
G54D17*
G01X38000Y28000D02*
G01X38000Y29000D01*
G01X53000Y24000D02*
G01X56000Y24000D01*
G01X46000Y26000D02*
G01X48000Y26000D01*
G54D12*
G01X48000Y26000D03*
G01X48000Y29000D03*
G54D17*
G01X48000Y29000D02*
G01X51000Y29000D01*
G54D20*
G01X5000Y24000D02*
G01X5000Y23000D01*
G54D17*
G01X5000Y23000D02*
G01X4000Y22000D01*
G54D20*
G01X5000Y24000D02*
G01X5000Y25000D01*
G01X5000Y25000D02*
G01X6000Y26000D01*
G01X6000Y26000D02*
G01X9000Y26000D01*
G01X9000Y26000D02*
G01X10000Y27000D01*
G01X20000Y24000D02*
G01X19000Y23000D01*
G54D17*
G01X19000Y23000D02*
G01X19000Y21000D01*
G01X14000Y4000D02*
G01X13000Y5000D01*
G01X13000Y5000D02*
G01X13000Y7000D01*
G01X16000Y3000D02*
G01X15000Y4000D01*
G01X15000Y4000D02*
G01X14000Y4000D01*
G01X17000Y3000D02*
G01X16000Y3000D01*
G01X30000Y24000D02*
G01X28000Y24000D01*
G01X30000Y22000D02*
G01X30750Y22000D01*
G01X30750Y22000D02*
G01X31000Y22250D01*
G01X31000Y22250D02*
G01X31000Y23625D01*
G01X31000Y23625D02*
G01X30625Y24000D01*
G01X30625Y24000D02*
G01X30000Y24000D01*

G04 Draw Text*

G04 ----------------------- Draw Pilot Holes (scratch)*
%LPC*%
G04 draw pilot holes for part U1*
G54D18*
G01X47000Y5000D03*
G01X47000Y6000D03*
G01X47000Y7000D03*
G01X47000Y8000D03*
G01X47000Y9000D03*
G01X47000Y10000D03*
G01X47000Y11000D03*
G01X47000Y12000D03*
G01X47000Y13000D03*
G01X47000Y14000D03*
G01X47000Y15000D03*
G01X47000Y16000D03*
G01X47000Y17000D03*
G01X47000Y18000D03*
G01X47000Y19000D03*
G01X47000Y20000D03*
G01X47000Y21000D03*
G01X47000Y22000D03*
G01X47000Y23000D03*
G01X47000Y24000D03*
G01X41000Y24000D03*
G01X41000Y23000D03*
G01X41000Y22000D03*
G01X41000Y21000D03*
G01X41000Y20000D03*
G01X41000Y19000D03*
G01X41000Y18000D03*
G01X41000Y17000D03*
G01X41000Y16000D03*
G01X41000Y15000D03*
G01X41000Y14000D03*
G01X41000Y13000D03*
G01X41000Y12000D03*
G01X41000Y11000D03*
G01X41000Y10000D03*
G01X41000Y9000D03*
G01X41000Y8000D03*
G01X41000Y7000D03*
G01X41000Y6000D03*
G01X41000Y5000D03*
G04 draw pilot holes for part U2*
G01X35000Y5000D03*
G01X35000Y6000D03*
G01X35000Y7000D03*
G01X35000Y8000D03*
G01X35000Y9000D03*
G01X35000Y10000D03*
G01X35000Y11000D03*
G01X35000Y12000D03*
G01X35000Y13000D03*
G01X35000Y14000D03*
G01X35000Y15000D03*
G01X35000Y16000D03*
G01X35000Y17000D03*
G01X35000Y18000D03*
G01X29000Y18000D03*
G01X29000Y17000D03*
G01X29000Y16000D03*
G01X29000Y15000D03*
G01X29000Y14000D03*
G01X29000Y13000D03*
G01X29000Y12000D03*
G01X29000Y11000D03*
G01X29000Y10000D03*
G01X29000Y9000D03*
G01X29000Y8000D03*
G01X29000Y7000D03*
G01X29000Y6000D03*
G01X29000Y5000D03*
G04 draw pilot holes for part R1*
G01X52000Y5000D03*
G01X48000Y5000D03*
G04 draw pilot holes for part R2*
G01X40000Y9000D03*
G01X40000Y14000D03*
G04 draw pilot holes for part X1*
G01X50000Y16000D03*
G01X50000Y18000D03*
G04 draw pilot holes for part R9*
G01X50000Y3000D03*
G01X46000Y3000D03*
G04 draw pilot holes for part R6*
G01X51000Y3000D03*
G01X55000Y3000D03*
G04 draw pilot holes for part R12*
G01X53000Y20000D03*
G01X49000Y20000D03*
G04 draw pilot holes for part R10*
G01X53000Y21000D03*
G01X49000Y21000D03*
G04 draw pilot holes for part R11*
G01X53000Y22000D03*
G01X49000Y22000D03*
G04 draw pilot holes for part R13*
G01X52000Y6000D03*
G01X48000Y6000D03*
G04 draw pilot holes for part R14*
G01X52000Y7000D03*
G01X48000Y7000D03*
G04 draw pilot holes for part R44*
G01X52000Y10000D03*
G01X48000Y10000D03*
G04 draw pilot holes for part R45*
G01X52000Y11000D03*
G01X48000Y11000D03*
G04 draw pilot holes for part U8*
G01X58000Y5000D03*
G01X58000Y6000D03*
G01X58000Y7000D03*
G01X58000Y8000D03*
G01X58000Y9000D03*
G01X58000Y10000D03*
G01X58000Y11000D03*
G01X55000Y11000D03*
G01X55000Y10000D03*
G01X55000Y9000D03*
G01X55000Y8000D03*
G01X55000Y7000D03*
G01X55000Y6000D03*
G01X55000Y5000D03*
G04 draw pilot holes for part R5*
G01X44900Y3000D03*
G01X40900Y3000D03*
G04 draw pilot holes for part R4*
G01X51000Y4000D03*
G01X55000Y4000D03*
G04 draw pilot holes for part R3*
G01X53000Y12000D03*
G01X57000Y12000D03*
G04 draw pilot holes for part U3*
G01X14000Y24000D03*
G01X14000Y25000D03*
G01X14000Y26000D03*
G01X14000Y27000D03*
G01X11000Y27000D03*
G01X11000Y26000D03*
G01X11000Y25000D03*
G01X11000Y24000D03*
G04 draw pilot holes for part U4*
G01X13000Y13000D03*
G01X13000Y14000D03*
G01X13000Y15000D03*
G01X13000Y16000D03*
G01X10000Y16000D03*
G01X10000Y15000D03*
G01X10000Y14000D03*
G01X10000Y13000D03*
G04 draw pilot holes for part U5*
G01X13000Y7000D03*
G01X13000Y8000D03*
G01X13000Y9000D03*
G01X13000Y10000D03*
G01X10000Y10000D03*
G01X10000Y9000D03*
G01X10000Y8000D03*
G01X10000Y7000D03*
G04 draw pilot holes for part R15*
G01X14000Y18000D03*
G01X14000Y14000D03*
G04 draw pilot holes for part R16*
G01X15000Y12000D03*
G01X15000Y8000D03*
G04 draw pilot holes for part C7*
G01X13000Y20980D03*
G01X13000Y20000D03*
G04 draw pilot holes for part R17*
G01X16000Y28000D03*
G01X16000Y24000D03*
G04 draw pilot holes for part R18*
G01X6000Y24000D03*
G01X6000Y28000D03*
G04 draw pilot holes for part D11*
G01X5000Y24000D03*
G01X5000Y27000D03*
G04 draw pilot holes for part D1*
G01X18000Y24000D03*
G01X18000Y27000D03*
G04 draw pilot holes for part D2*
G01X17000Y27000D03*
G01X17000Y24000D03*
G04 draw pilot holes for part R20*
G01X15000Y17000D03*
G01X15000Y13000D03*
G04 draw pilot holes for part R21*
G01X17000Y13000D03*
G01X17000Y17000D03*
G04 draw pilot holes for part R22*
G01X16000Y13000D03*
G01X16000Y17000D03*
G04 draw pilot holes for part R23*
G01X14000Y8000D03*
G01X14000Y4000D03*
G04 draw pilot holes for part R25*
G01X16000Y3000D03*
G01X16000Y7000D03*
G04 draw pilot holes for part D3*
G01X21000Y10000D03*
G01X21000Y13000D03*
G04 draw pilot holes for part D4*
G01X22000Y13000D03*
G01X22000Y10000D03*
G04 draw pilot holes for part R26*
G01X9000Y19000D03*
G01X9000Y15000D03*
G04 draw pilot holes for part R27*
G01X8000Y13000D03*
G01X8000Y9000D03*
G04 draw pilot holes for part C8*
G01X10000Y20980D03*
G01X10000Y20000D03*
G04 draw pilot holes for part R28*
G01X9000Y28000D03*
G01X9000Y24000D03*
G04 draw pilot holes for part R29*
G01X19000Y24000D03*
G01X19000Y28000D03*
G04 draw pilot holes for part D12*
G01X20000Y27000D03*
G01X20000Y24000D03*
G04 draw pilot holes for part D5*
G01X7000Y24000D03*
G01X7000Y27000D03*
G04 draw pilot holes for part D6*
G01X8000Y27000D03*
G01X8000Y24000D03*
G04 draw pilot holes for part R31*
G01X8000Y18000D03*
G01X8000Y14000D03*
G04 draw pilot holes for part R32*
G01X6000Y14000D03*
G01X6000Y18000D03*
G04 draw pilot holes for part R33*
G01X7000Y14000D03*
G01X7000Y18000D03*
G04 draw pilot holes for part R34*
G01X8000Y8000D03*
G01X8000Y4000D03*
G04 draw pilot holes for part R35*
G01X9000Y8000D03*
G01X9000Y4000D03*
G04 draw pilot holes for part D7*
G01X24000Y9000D03*
G01X24000Y12000D03*
G04 draw pilot holes for part D8*
G01X23000Y12000D03*
G01X23000Y9000D03*
G04 draw pilot holes for part U6*
G01X33000Y23000D03*
G01X33000Y24000D03*
G01X33000Y25000D03*
G01X33000Y26000D03*
G01X30000Y26000D03*
G01X30000Y25000D03*
G01X30000Y24000D03*
G01X30000Y23000D03*
G04 draw pilot holes for part R36*
G01X36000Y28000D03*
G01X36000Y24000D03*
G04 draw pilot holes for part R37*
G01X35000Y28000D03*
G01X35000Y24000D03*
G04 draw pilot holes for part R38*
G01X24000Y24000D03*
G01X28000Y24000D03*
G04 draw pilot holes for part Q1*
G01X23000Y25000D03*
G01X23000Y26000D03*
G01X23000Y27000D03*
G04 draw pilot holes for part R39*
G01X28000Y25000D03*
G01X24000Y25000D03*
G04 draw pilot holes for part R40*
G01X24000Y26000D03*
G01X28000Y26000D03*
G04 draw pilot holes for part R41*
G01X29000Y26000D03*
G01X29000Y22000D03*
G04 draw pilot holes for part D9*
G01X28000Y27000D03*
G01X31000Y27000D03*
G04 draw pilot holes for part D10*
G01X31000Y28000D03*
G01X28000Y28000D03*
G04 draw pilot holes for part U7*
G01X24000Y3000D03*
G01X24000Y4000D03*
G01X24000Y5000D03*
G01X24000Y6000D03*
G01X21000Y6000D03*
G01X21000Y5000D03*
G01X21000Y4000D03*
G01X21000Y3000D03*
G04 draw pilot holes for part R43*
G01X37000Y5000D03*
G01X37000Y9000D03*
G04 draw pilot holes for part C1*
G01X55000Y16000D03*
G01X52000Y16000D03*
G04 draw pilot holes for part C2*
G01X23000Y16000D03*
G01X23000Y19000D03*
G04 draw pilot holes for part C3*
G01X44000Y13000D03*
G01X44000Y16000D03*
G04 draw pilot holes for part C4*
G01X32000Y11000D03*
G01X32000Y14000D03*
G04 draw pilot holes for part C5*
G01X55000Y18000D03*
G01X52000Y18000D03*
G04 draw pilot holes for part C6*
G01X25000Y17980D03*
G01X25000Y17000D03*
G04 draw pilot holes for part R24*
G01X20000Y16000D03*
G01X20000Y17970D03*
G01X19010Y16990D03*
G04 draw pilot holes for part PGVPP*
G01X48000Y4000D03*
G04 draw pilot holes for part I2CCLK*
G01X55000Y14000D03*
G04 draw pilot holes for part I2CDATA*
G01X56000Y14000D03*
G04 draw pilot holes for part SER/PAR*
G01X46000Y2100D03*
G04 draw pilot holes for part AGND*
G01X19000Y1000D03*
G01X20000Y1000D03*
G01X21000Y1000D03*
G04 draw pilot holes for part PGCLK*
G01X43000Y4000D03*
G04 draw pilot holes for part PGDATA*
G01X42100Y4000D03*
G04 draw pilot holes for part I2CDATAIN*
G01X57000Y14000D03*
G04 draw pilot holes for part CH1_IN*
G01X15000Y28000D03*
G04 draw pilot holes for part S1*
G01X15000Y21000D03*
G04 draw pilot holes for part S1A*
G01X16000Y21000D03*
G04 draw pilot holes for part S4*
G01X5000Y19000D03*
G01X6000Y19000D03*
G01X7000Y19000D03*
G04 draw pilot holes for part S3*
G01X16000Y20000D03*
G01X17000Y20000D03*
G01X18000Y20000D03*
G04 draw pilot holes for part CH2_IN*
G01X10000Y28000D03*
G04 draw pilot holes for part S2*
G01X8000Y20000D03*
G04 draw pilot holes for part S2A*
G01X7000Y20000D03*
G04 draw pilot holes for part RX*
G01X28000Y22000D03*
G04 draw pilot holes for part TX*
G01X30000Y22000D03*
G04 draw pilot holes for part GND*
G01X23000Y1000D03*
G01X24000Y1000D03*
G01X25000Y1000D03*
G04 draw pilot holes for part +12*
G01X15000Y2000D03*
G01X16000Y2000D03*
G01X17000Y2000D03*
G04 draw pilot holes for part -12*
G01X12000Y3000D03*
G01X13000Y3000D03*
G01X14000Y3000D03*
G04 draw pilot holes for part VREF*
G01X19000Y13000D03*
G04 draw pilot holes for part TRLVL*
G01X27000Y1000D03*
G04 draw pilot holes for part +5*
G01X29000Y1000D03*
G01X30000Y1000D03*
G01X31000Y1000D03*
G04 draw pilot holes for part CH1SelG*
G01X53000Y10000D03*
G04 draw pilot holes for part CH2SelG*
G01X53000Y11000D03*
G04 draw pilot holes for part Gain1*
G01X50000Y8000D03*
G04 draw pilot holes for part Gain5*
G01X49000Y8000D03*
G04 draw pilot holes for part M1*
G01X2200Y2200D03*
G04 draw pilot holes for part M2*
G01X2100Y27800D03*
G04 draw pilot holes for part M3*
G01X58000Y28000D03*
G04 draw pilot holes for part M4*
G01X58000Y2000D03*
G04 draw pilot holes for part CH1_G*
G01X15000Y27000D03*
G04 draw pilot holes for part CH2_G*
G01X10000Y27000D03*
G04 draw pilot holes for part R46*
G01X17000Y7000D03*
G01X17000Y3000D03*
G04 draw pilot holes for part R47*
G01X18100Y3000D03*
G01X18100Y7000D03*
G04 draw pilot holes for part Ch1Sel*
G01X54000Y21000D03*
G04 draw pilot holes for part Ch2Sel*
G01X54000Y22000D03*
G04 draw pilot holes for part R48*
G01X46000Y25000D03*
G01X42000Y25000D03*
G04 draw pilot holes for part R49*
G01X42000Y26000D03*
G01X46000Y26000D03*
G04 draw pilot holes for part USB5+*
G01X41000Y25000D03*
G04 draw pilot holes for part USBD-*
G01X40000Y25000D03*
G04 draw pilot holes for part USBD+*
G01X39000Y25000D03*
G04 draw pilot holes for part USBG*
G01X38000Y25000D03*
G04 draw pilot holes for part C9*
G01X50000Y24000D03*
G01X53000Y24000D03*
G04 draw pilot holes for part SC1*
G04 draw pilot holes for part AC/DC*
G01X48000Y19000D03*

G04 Draw pilot holes for vias*
G01X17000Y28000D03*
G01X8000Y28000D03*
G01X18000Y28000D03*
G01X7000Y28000D03*
G01X48000Y25000D03*
G01X48000Y14000D03*
G01X34000Y25000D03*
G01X37000Y22000D03*
G01X36000Y17000D03*
G01X37000Y11000D03*
G01X40000Y22000D03*
G01X39000Y17000D03*
G01X28000Y13000D03*
G01X39000Y22000D03*
G01X40000Y15000D03*
G01X27000Y11000D03*
G01X59000Y7000D03*
G01X56000Y4000D03*
G01X44000Y9000D03*
G01X44000Y12000D03*
G01X38000Y4000D03*
G01X28000Y8000D03*
G01X24000Y14000D03*
G01X21000Y14000D03*
G01X27000Y28000D03*
G01X33000Y28000D03*
G01X54000Y20000D03*
G01X49000Y15000D03*
G01X20000Y10000D03*
G01X16000Y8000D03*
G01X31000Y10000D03*
G01X34000Y10000D03*
G01X43000Y6000D03*
G01X46000Y6000D03*
G01X22000Y23000D03*
G01X11000Y22000D03*
G01X6000Y22000D03*
G01X10000Y22000D03*
G01X37000Y10000D03*
G01X39000Y12000D03*
G01X20000Y4000D03*
G01X39000Y8000D03*
G01X20000Y9000D03*
G01X9000Y2000D03*
G01X34000Y9000D03*
G01X31000Y9000D03*
G01X38000Y9000D03*
G01X27000Y9000D03*
G01X23000Y24000D03*
G01X36000Y22000D03*
G01X26000Y10000D03*
G01X39000Y3000D03*
G01X28000Y14000D03*
G01X39000Y18000D03*
G01X38000Y11000D03*
G01X28000Y15000D03*
G01X34000Y8000D03*
G01X31000Y8000D03*
G01X17000Y9000D03*
G01X19000Y11000D03*
G01X10000Y11000D03*
G01X13000Y11000D03*
G01X27000Y12000D03*
G01X40000Y16000D03*
G01X25000Y11000D03*
G01X25000Y3000D03*
G01X19000Y21000D03*
G01X13000Y18000D03*
G01X5000Y23000D03*
G01X10000Y17000D03*
G01X13000Y17000D03*
G01X19000Y23000D03*
G01X5000Y23000D03*
G01X38000Y28000D03*
G01X48000Y26000D03*
G01X48000Y29000D03*
M00*
M02*
