;Holesize 1 =   28.0 PLATED MILS
;Holesize 2 =   29.0 PLATED MILS
;Holesize 3 =   45.0 PLATED MILS
;Holesize 4 =   20.0 PLATED MILS
;Holesize 5 =   40.0 PLATED MILS
;Holesize 6 =  125.0 PLATED MILS
M48
INCH,00.0000
T01C0.028
T02C0.029
T03C0.045
T04C0.020
T05C0.040
T06C0.125
%
G05
G90
T01
X047000Y005000
X047000Y006000
X047000Y007000
X047000Y008000
X047000Y009000
X047000Y010000
X047000Y011000
X047000Y012000
X047000Y013000
X047000Y014000
X047000Y015000
X047000Y016000
X047000Y017000
X047000Y018000
X047000Y019000
X047000Y020000
X047000Y021000
X047000Y022000
X047000Y023000
X047000Y024000
X041000Y024000
X041000Y023000
X041000Y022000
X041000Y021000
X041000Y020000
X041000Y019000
X041000Y018000
X041000Y017000
X041000Y016000
X041000Y015000
X041000Y014000
X041000Y013000
X041000Y012000
X041000Y011000
X041000Y010000
X041000Y009000
X041000Y008000
X041000Y007000
X041000Y006000
X041000Y005000
X035000Y005000
X035000Y006000
X035000Y007000
X035000Y008000
X035000Y009000
X035000Y010000
X035000Y011000
X035000Y012000
X035000Y013000
X035000Y014000
X035000Y015000
X035000Y016000
X035000Y017000
X035000Y018000
X029000Y018000
X029000Y017000
X029000Y016000
X029000Y015000
X029000Y014000
X029000Y013000
X029000Y012000
X029000Y011000
X029000Y010000
X029000Y009000
X029000Y008000
X029000Y007000
X029000Y006000
X029000Y005000
X052000Y005000
X048000Y005000
X046000Y026000
X042000Y026000
X053000Y024000
X049000Y024000
X053000Y020000
X049000Y020000
X053000Y021000
X049000Y021000
X053000Y022000
X049000Y022000
X052000Y006000
X048000Y006000
X052000Y007000
X048000Y007000
X052000Y010000
X048000Y010000
X052000Y011000
X048000Y011000
X058000Y005000
X058000Y006000
X058000Y007000
X058000Y008000
X058000Y009000
X058000Y010000
X058000Y011000
X055000Y011000
X055000Y010000
X055000Y009000
X055000Y008000
X055000Y007000
X055000Y006000
X055000Y005000
X038000Y026000
X038000Y022000
X046000Y027000
X042000Y027000
X053000Y012000
X057000Y012000
X014000Y024000
X014000Y025000
X014000Y026000
X014000Y027000
X011000Y027000
X011000Y026000
X011000Y025000
X011000Y024000
X013000Y013000
X013000Y014000
X013000Y015000
X013000Y016000
X010000Y016000
X010000Y015000
X010000Y014000
X010000Y013000
X013000Y007000
X013000Y008000
X013000Y009000
X013000Y010000
X010000Y010000
X010000Y009000
X010000Y008000
X010000Y007000
X014000Y018000
X014000Y014000
X015000Y012000
X015000Y008000
X013000Y020980
X013000Y020000
X016000Y028000
X016000Y024000
X006000Y024000
X006000Y028000
X005000Y028000
X005000Y024000
X018000Y024000
X018000Y027000
X017000Y027000
X017000Y024000
X017000Y017000
X017000Y013000
X016000Y013000
X016000Y017000
X015000Y013000
X015000Y017000
X014000Y008000
X014000Y004000
X016000Y003000
X016000Y007000
X021000Y010000
X021000Y013000
X022000Y013000
X022000Y010000
X009000Y019000
X009000Y015000
X008000Y013000
X008000Y009000
X010000Y020980
X010000Y020000
X009000Y028000
X009000Y024000
X019000Y024000
X019000Y028000
X020000Y028000
X020000Y024000
X007000Y024000
X007000Y027000
X008000Y027000
X008000Y024000
X006000Y018000
X006000Y014000
X007000Y014000
X007000Y018000
X008000Y014000
X008000Y018000
X008000Y008000
X008000Y004000
X009000Y008000
X009000Y004000
X024000Y009000
X024000Y012000
X023000Y012000
X023000Y009000
X033000Y023000
X033000Y024000
X033000Y025000
X033000Y026000
X030000Y026000
X030000Y025000
X030000Y024000
X030000Y023000
X036000Y028000
X036000Y024000
X035000Y028000
X035000Y024000
X024000Y024000
X028000Y024000
X028000Y025000
X024000Y025000
X024000Y026000
X028000Y026000
X029000Y026000
X029000Y022000
X028000Y027000
X031000Y027000
X031000Y028000
X028000Y028000
X024000Y003000
X024000Y004000
X024000Y005000
X024000Y006000
X021000Y006000
X021000Y005000
X021000Y004000
X021000Y003000
X037000Y005000
X037000Y009000
X025000Y017980
X025000Y017000
X020000Y016000
X020000Y017970
X019010Y016990
T02
X040000Y009000
X040000Y014000
X055000Y016000
X052000Y016000
X023000Y016000
X023000Y019000
X044000Y013000
X044000Y016000
X032000Y011000
X032000Y014000
X055000Y018000
X052000Y018000
X026000Y010000
X039000Y003000
X017000Y028000
X008000Y028000
X018000Y028000
X007000Y028000
X034000Y025000
X037000Y022000
X045000Y013000
X045000Y010000
X037000Y011000
X036000Y017000
X039000Y017000
X028000Y013000
X059000Y007000
X049000Y023000
X040000Y022000
X040000Y027000
X057000Y025000
X044000Y025000
X040000Y015000
X027000Y011000
X022000Y023000
X011000Y022000
X006000Y022000
X010000Y022000
X020000Y010000
X016000Y008000
X031000Y010000
X034000Y010000
X027000Y028000
X033000Y028000
X054000Y020000
X049000Y015000
X024000Y014000
X021000Y014000
X034000Y028000
X047000Y026000
X038000Y005000
X028000Y008000
X036000Y022000
X023000Y024000
X023000Y024000
X039000Y004000
X027000Y009000
X020000Y009000
X009000Y002000
X034000Y009000
X031000Y009000
X037000Y010000
X039000Y012000
X039000Y012000
X020000Y004000
X038000Y009000
X017000Y009000
X019000Y011000
X010000Y011000
X013000Y011000
X034000Y008000
X031000Y008000
X038000Y011000
X028000Y015000
X028000Y014000
X039000Y018000
X027000Y012000
X040000Y016000
X010000Y018000
X025000Y011000
X025000Y003000
X019000Y021000
X013000Y018000
X010000Y017000
X013000Y017000
X019000Y023000
X005000Y023000
T03
X050000Y016000
X050000Y018000
T04
X023000Y025000
X023000Y026000
X023000Y027000
T05
X048000Y004000
X055000Y014000
X056000Y014000
X038000Y027000
X019000Y001000
X020000Y001000
X021000Y001000
X043000Y004000
X042000Y004000
X057000Y014000
X015000Y028000
X015000Y021000
X016000Y021000
X005000Y019000
X006000Y019000
X007000Y019000
X016000Y020000
X017000Y020000
X018000Y020000
X010000Y028000
X008000Y020000
X007000Y020000
X028000Y022000
X030000Y022000
X023000Y001000
X024000Y001000
X025000Y001000
X015000Y002000
X016000Y002000
X017000Y002000
X012000Y003000
X013000Y003000
X014000Y003000
X019000Y013000
X027000Y001000
X029000Y001000
X030000Y001000
X031000Y001000
X053000Y010000
X053000Y011000
X050000Y008000
X049000Y008000
X015000Y027000
X010000Y027000
X054000Y021000
X054000Y022000
T06
X002200Y002200
X002100Y027800
X058000Y028000
X058000Y002000
M30
