G04 FreePCB version 1.359*
G04 C:\Users\pmesser\_Paul\Design\DSOscope\PCB\A03\CAM_DSOscope_CPUBrd_A03\bottom_copper.grb*
G04 bottom copper layer *
G04 Scale: 100 percent, Rotated: No, Reflected: No *
%FSLAX24Y24*%
%MOIN*%
%LN bottom copper *%
G04 Rounded Rectangle Macro, params: W/2, H/2, R *
%AMRNDREC*
21,1,$1+$1,$2+$2-$3-$3,0,0,0*
21,1,$1+$1-$3-$3,$2+$2,0,0,0*
1,1,$3+$3,$1-$3,$2-$3*
1,1,$3+$3,$3-$1,$2-$3*
1,1,$3+$3,$1-$3,$3-$2*
1,1,$3+$3,$3-$1,$3-$2*%
G04 Rectangular Thermal Macro, params: W/2, H/2, T/2 *
%AMRECTHERM*
$4=$3/2*
21,1,$1-$3,$2-$3,0-$1/2-$4,0-$2/2-$4,0*
21,1,$1-$3,$2-$3,0-$1/2-$4,$2/2+$4,0*
21,1,$1-$3,$2-$3,$1/2+$4,0-$2/2-$4,0*
21,1,$1-$3,$2-$3,$1/2+$4,$2/2+$4,0*%
%ADD10C,0.005000*%
%ADD11R,0.115000X0.115000*%
%ADD12C,0.115000*%
%AMTHERM13*7,0,0,0.115000,0.085000,0.020000,45.0*%
%ADD13THERM13*%
%ADD14C,0.001000*%
%ADD15R,0.080000X0.080000*%
%ADD16R,0.055000X0.060000*%
%ADD17C,0.155000*%
%ADD18C,0.230000*%
%ADD19R,0.110000X0.090000*%
%ADD20RNDREC,0.055000X0.045000X0.035000*%
%ADD21RECTHERM,0.055000X0.045000X0.010000*%
%ADD22RECTHERM,0.065000X0.065000X0.010000*%
%AMTHERM23*7,0,0,0.130000,0.100000,0.020000,45.0*%
%ADD23THERM23*%
%ADD24R,0.130000X0.130000*%
%ADD25RECTHERM,0.057500X0.057500X0.010000*%
%ADD26C,0.130000*%
%ADD27R,0.077000X0.073000*%
%ADD28R,0.073000X0.077000*%
%ADD29R,0.145000X0.090000*%
%ADD30C,0.080000*%
%ADD31C,0.045000*%
%AMTHERM32*7,0,0,0.080000,0.050000,0.020000,45.0*%
%ADD32THERM32*%
%ADD33C,0.065000*%
%ADD34C,0.055000*%
%ADD35C,0.015000*%
%ADD36C,0.010000*%
%ADD37R,0.085000X0.085000*%
%ADD38C,0.085000*%
%ADD39R,0.050000X0.050000*%
%ADD40R,0.025000X0.030000*%
%ADD41C,0.125000*%
%ADD42C,0.200000*%
%ADD43R,0.080000X0.060000*%
%ADD44RNDREC,0.040000X0.030000X0.020000*%
%ADD45R,0.100000X0.100000*%
%ADD46C,0.100000*%
%ADD47R,0.047000X0.043000*%
%ADD48R,0.043000X0.047000*%
%ADD49R,0.115000X0.060000*%
%ADD50C,0.050000*%
%ADD51C,0.025000*%
%ADD52C,0.035000*%
G90*
G70D02*

G04 Step and Repeat for panelization *

G04 ----------------------- Draw board outline (positive)*
%LPD*%
G54D10*
G01X0Y5000D02*
G01X0Y16500D01*
G04 end of side 1*
G01X0Y19000D01*
G04 end of side 2*
G01X37000Y19000D01*
G04 end of side 3*
G01X37000Y5000D01*
G04 end of side 4*
G01X28500Y5000D01*
G04 end of side 5*
G01X28500Y0D01*
G04 end of side 6*
G01X8500Y0D01*
G04 end of side 7*
G01X8500Y5000D01*
G04 end of side 8*
G01X0Y5000D01*
G01X8500Y0D02*
G01X0Y0D01*
G04 end of side 1*
G01X0Y5000D01*
G04 end of side 2*
G01X8500Y5000D01*
G04 end of side 3*
G01X8500Y0D01*
G01X28500Y0D02*
G01X37000Y0D01*
G04 end of side 1*
G01X37000Y5000D01*
G04 end of side 2*
G01X28500Y5000D01*
G04 end of side 3*
G01X28500Y0D01*

G04 ----------------------- Draw copper area (positive)*
G36*
G01X30690Y11620D02*
G01X32620Y11620D01*
G01X33040Y11200D01*
G01X33040Y10610D01*
G01X33180Y10460D01*
G01X33180Y9020D01*
G01X35300Y9020D01*
G01X35550Y8770D01*
G01X35550Y7470D01*
G01X34180Y7470D01*
G01X33640Y8000D01*
G01X29050Y8000D01*
G01X29050Y8600D01*
G01X27690Y8600D01*
G01X27690Y9230D01*
G01X29100Y10640D01*
G01X29100Y12130D01*
G01X29650Y12700D01*
G01X30690Y12700D01*
G01X30690Y11620D01*
G37*

G04 ----------------------- Draw copper area (positive)*
G36*
G01X28200Y14800D02*
G01X26360Y12950D01*
G01X26360Y12120D01*
G01X27510Y12120D01*
G01X27510Y11270D01*
G01X26550Y10310D01*
G01X26550Y8710D01*
G01X26100Y8260D01*
G01X26100Y6640D01*
G01X25840Y6380D01*
G01X25530Y6070D01*
G01X25260Y6070D01*
G01X25260Y4940D01*
G01X25070Y4940D01*
G01X25070Y3630D01*
G01X24330Y3630D01*
G01X24330Y6420D01*
G01X25380Y6420D01*
G01X25590Y6630D01*
G01X25590Y13890D01*
G01X26670Y14980D01*
G01X26670Y17430D01*
G01X28200Y17430D01*
G01X28200Y14800D01*
G37*

G04 ----------------------- Draw copper area (positive)*
G36*
G01X36750Y14580D02*
G01X29590Y14580D01*
G01X27500Y12500D01*
G01X26650Y12500D01*
G01X26650Y12880D01*
G01X28470Y14700D01*
G01X28470Y16400D01*
G01X28580Y16400D01*
G01X28580Y17710D01*
G01X26410Y17710D01*
G01X26410Y15090D01*
G01X25250Y13930D01*
G01X25250Y6810D01*
G01X25060Y6620D01*
G01X24070Y6620D01*
G01X24070Y3270D01*
G01X25310Y3270D01*
G01X25310Y4740D01*
G01X26640Y4740D01*
G01X26760Y4860D01*
G01X26760Y5640D01*
G01X27070Y5950D01*
G01X27140Y6130D01*
G01X28120Y6130D01*
G01X28340Y6350D01*
G01X28340Y7010D01*
G01X29050Y7010D01*
G01X29050Y7750D01*
G01X33450Y7750D01*
G01X34060Y7140D01*
G01X35840Y7140D01*
G01X35840Y9040D01*
G01X35560Y9320D01*
G01X33410Y9320D01*
G01X33410Y10670D01*
G01X33250Y10840D01*
G01X33250Y11300D01*
G01X32700Y11850D01*
G01X30920Y11850D01*
G01X30920Y12700D01*
G01X32800Y12700D01*
G01X33500Y12000D01*
G01X33500Y11240D01*
G01X33730Y11000D01*
G01X36750Y11000D01*
G01X36750Y5250D01*
G01X28250Y5250D01*
G01X28250Y4500D01*
G01X28250Y250D01*
G01X8750Y250D01*
G01X8750Y5250D01*
G01X250Y5250D01*
G01X250Y18750D01*
G01X36750Y18750D01*
G01X36750Y14580D01*
G37*

G04 ----------------------- Draw copper area (positive)*
G36*
G01X36250Y13520D02*
G01X36510Y13520D01*
G01X36510Y12480D01*
G01X36250Y12480D01*
G01X36250Y11240D01*
G01X33740Y11240D01*
G01X33740Y12080D01*
G01X32840Y12980D01*
G01X29560Y12980D01*
G01X28810Y12230D01*
G01X28810Y10810D01*
G01X27390Y9390D01*
G01X27390Y8350D01*
G01X27000Y7960D01*
G01X27000Y6350D01*
G01X26900Y6050D01*
G01X26550Y5700D01*
G01X26550Y5000D01*
G01X26490Y4940D01*
G01X25470Y4940D01*
G01X25470Y5890D01*
G01X25730Y5890D01*
G01X26330Y6490D01*
G01X26330Y8180D01*
G01X26790Y8640D01*
G01X26790Y10260D01*
G01X27790Y11260D01*
G01X27790Y12070D01*
G01X27670Y12190D01*
G01X27670Y12410D01*
G01X29600Y14320D01*
G01X36250Y14320D01*
G01X36250Y13520D01*
G37*

G04 -------------------- Draw copper area cutout (negative)*
%LPC*%
G36*
G01X19910Y8840D02*
G01X17280Y8840D01*
G01X17280Y7750D01*
G01X17610Y7750D01*
G01X17810Y7550D01*
G01X17810Y3940D01*
G01X18200Y3550D01*
G01X20480Y3550D01*
G01X22180Y5250D01*
G01X23150Y5250D01*
G01X23350Y5450D01*
G01X23350Y7620D01*
G01X23090Y7880D01*
G01X20860Y7880D01*
G01X19910Y8840D01*
G37*

G04 ----------------------- Draw copper area (positive)*
%LPD*%
G36*
G01X20710Y7650D02*
G01X22990Y7650D01*
G01X23160Y7480D01*
G01X23160Y5530D01*
G01X23080Y5450D01*
G01X22070Y5450D01*
G01X20390Y3770D01*
G01X18330Y3770D01*
G01X18060Y4040D01*
G01X18060Y7720D01*
G01X17830Y7950D01*
G01X17520Y7950D01*
G01X17520Y8600D01*
G01X19780Y8600D01*
G01X20710Y7650D01*
G37*

G04 -------------------- Draw copper area clearances (negative)*
%LPC*%

G04 Draw clearances for pads*
G54D11*
G01X27000Y1500D03*
G54D12*
G01X26000Y1500D03*
G01X25000Y1500D03*
G01X24000Y1500D03*
G01X23000Y1500D03*
G01X22000Y1500D03*
G01X21000Y1500D03*
G01X20000Y1500D03*
G54D13*
G01X19000Y1500D03*
G54D14*
G54D12*
G01X18000Y1500D03*
G54D13*
G01X17000Y1500D03*
G54D14*
G54D12*
G01X16000Y1500D03*
G54D13*
G01X15000Y1500D03*
G54D14*
G54D12*
G01X14000Y1500D03*
G54D13*
G01X13000Y1500D03*
G54D14*
G54D12*
G01X12000Y1500D03*
G01X11000Y1500D03*
G01X10000Y1500D03*
G54D15*
G01X5200Y12500D03*
G01X5200Y11600D03*
G54D11*
G01X1500Y11500D03*
G54D12*
G01X1500Y12500D03*
G54D13*
G01X1500Y13500D03*
G54D14*
G54D12*
G01X1500Y14500D03*
G01X1500Y15500D03*
G01X1500Y16500D03*
G01X1500Y17500D03*
G54D11*
G01X3000Y9800D03*
G54D12*
G01X3000Y10800D03*
G54D16*
G01X3000Y10300D03*
G54D15*
G01X7700Y10400D03*
G01X7700Y11300D03*
G01X9800Y10000D03*
G01X9800Y9100D03*
G54D17*
G01X4700Y6800D03*
G01X2800Y6800D03*
G54D15*
G01X7700Y8700D03*
G01X7700Y9600D03*
G01X13600Y7500D03*
G01X14500Y7500D03*
G54D18*
G01X20900Y15950D03*
G01X16100Y15950D03*
G54D19*
G01X18010Y14100D03*
G54D20*
G01X18990Y14100D03*
G01X18990Y14890D03*
G54D21*
G01X18010Y14890D03*
G54D14*
G54D11*
G01X13900Y12900D03*
G54D12*
G01X13900Y13900D03*
G01X13900Y14900D03*
G54D13*
G01X13900Y15900D03*
G54D14*
G54D12*
G01X13900Y16900D03*
G01X13900Y17900D03*
G54D15*
G01X34000Y8700D03*
G01X34000Y9600D03*
G54D22*
G01X35000Y6000D03*
G54D14*
G54D23*
G01X35000Y8000D03*
G54D14*
G54D24*
G01X32500Y6000D03*
G54D23*
G01X32500Y11000D03*
G54D14*
G54D25*
G01X27100Y11700D03*
G54D14*
G54D13*
G01X27100Y12700D03*
G54D14*
G54D25*
G01X27900Y17000D03*
G54D14*
G54D13*
G01X27900Y18000D03*
G54D14*
G36*
G01X27900Y17425D02*
G01X27849Y17430D01*
G01X27950Y17430D01*
G01X27900Y17425D01*
G37*
G01X27900Y17425D02*
G01X27849Y17430D01*
G01X27950Y17430D01*
G01X27900Y17425D01*
G36*
G01X27900Y17425D02*
G01X27849Y17430D01*
G01X27950Y17430D01*
G01X27900Y17425D01*
G37*
G01X27900Y17425D02*
G01X27849Y17430D01*
G01X27950Y17430D01*
G01X27900Y17425D01*
G54D22*
G01X36000Y13000D03*
G54D14*
G54D26*
G01X36000Y18000D03*
G54D22*
G01X35000Y12100D03*
G54D14*
G54D23*
G01X35000Y10100D03*
G54D14*
G54D15*
G01X34000Y11500D03*
G01X34000Y10600D03*
G01X30000Y15900D03*
G01X29100Y15900D03*
G01X30000Y8300D03*
G01X30000Y7400D03*
G54D11*
G01X24900Y10300D03*
G54D13*
G01X24900Y11300D03*
G54D14*
G54D25*
G01X24700Y4000D03*
G54D14*
G54D13*
G01X23700Y4000D03*
G54D14*
G54D27*
G01X22000Y7400D03*
G01X22000Y8070D03*
G54D15*
G01X27700Y6600D03*
G01X28600Y6600D03*
G54D28*
G01X18300Y6600D03*
G01X17630Y6600D03*
G54D15*
G01X18700Y8300D03*
G01X18700Y9200D03*
G54D29*
G01X28300Y8900D03*
G01X28300Y7550D03*
G54D15*
G01X9300Y12700D03*
G01X9300Y13600D03*
G01X8500Y12700D03*
G01X8500Y13600D03*

G04 Draw clearances for traces*
G54D30*
G01X6550Y8170D03*
G01X21090Y8170D03*
G01X7940Y14130D03*
G01X7940Y17350D03*
G54D31*
G01X7940Y17350D02*
G01X7550Y17280D01*
G01X7550Y17280D02*
G01X3330Y17280D01*
G01X3330Y17280D02*
G01X2550Y16500D01*
G01X2550Y16500D02*
G01X1500Y16500D01*
G54D30*
G01X14250Y8750D03*
G01X15740Y8750D03*
G54D31*
G01X14250Y8750D02*
G01X15740Y8750D01*
G01X30000Y15900D02*
G01X30000Y15890D01*
G54D30*
G01X30000Y16970D03*
G54D31*
G01X30000Y15890D02*
G01X30000Y16970D01*
G54D30*
G01X14250Y9430D03*
G01X15650Y9430D03*
G54D31*
G01X14250Y9430D02*
G01X15650Y9430D01*
G54D30*
G01X19100Y11160D03*
G01X9080Y11160D03*
G01X14250Y10110D03*
G01X15220Y10110D03*
G54D31*
G01X14250Y10110D02*
G01X15220Y10110D01*
G01X7700Y8700D02*
G01X8080Y8700D01*
G01X8080Y8700D02*
G01X8300Y8920D01*
G54D30*
G01X9100Y8920D03*
G54D31*
G01X8300Y8920D02*
G01X9100Y8920D01*
G54D30*
G01X10890Y17570D03*
G54D31*
G01X10890Y17570D02*
G01X11350Y17570D01*
G01X11350Y17570D02*
G01X11590Y17330D01*
G01X11590Y17330D02*
G01X11590Y14040D01*
G01X11590Y14040D02*
G01X10600Y13050D01*
G01X10600Y13050D02*
G01X10600Y10220D01*
G01X10600Y10220D02*
G01X10870Y9730D01*
G01X10870Y9730D02*
G01X11290Y9370D01*
G54D30*
G01X11290Y8900D03*
G54D31*
G01X11290Y9370D02*
G01X11290Y8900D01*
G54D30*
G01X6760Y12730D03*
G01X19050Y11950D03*
G01X17850Y10250D03*
G01X16550Y10250D03*
G54D31*
G01X17850Y10250D02*
G01X16550Y10250D01*
G54D30*
G01X12020Y6620D03*
G54D31*
G01X12020Y6620D02*
G01X11320Y6630D01*
G01X11320Y6630D02*
G01X10420Y7530D01*
G01X10420Y7530D02*
G01X6430Y7530D01*
G01X6430Y7530D02*
G01X5550Y8400D01*
G01X5550Y8400D02*
G01X5550Y10990D01*
G54D30*
G01X6010Y11450D03*
G54D31*
G01X5550Y10990D02*
G01X6010Y11450D01*
G54D14*
G54D32*
G01X30320Y12200D03*
G54D14*
G54D32*
G01X29980Y11160D03*
G54D14*
G54D32*
G01X29980Y11160D03*
G54D14*
G54D32*
G01X29980Y11160D03*
G54D14*
G54D31*
G01X13900Y12900D02*
G01X13910Y12910D01*
G01X13910Y12910D02*
G01X11810Y12910D01*
G01X11810Y12910D02*
G01X10910Y12020D01*
G01X10910Y12020D02*
G01X10910Y10270D01*
G01X10910Y10270D02*
G01X11160Y9890D01*
G01X11160Y9890D02*
G01X11830Y9330D01*
G01X11830Y9330D02*
G01X11830Y7710D01*
G54D30*
G01X12090Y7460D03*
G54D31*
G01X11830Y7710D02*
G01X12090Y7460D01*
G54D14*
G54D31*
G01X27700Y7550D02*
G01X28300Y7550D01*
G54D30*
G01X26000Y2370D03*
G54D31*
G01X5200Y11600D02*
G01X5200Y8260D01*
G01X5200Y8260D02*
G01X6280Y7180D01*
G01X6280Y7180D02*
G01X10260Y7180D01*
G01X10260Y7180D02*
G01X11000Y6430D01*
G01X11000Y6430D02*
G01X11000Y1500D01*
G01X7700Y10400D02*
G01X7860Y10390D01*
G54D30*
G01X8960Y10390D03*
G54D33*
G01X7860Y10390D02*
G01X8960Y10390D01*
G54D30*
G01X9680Y10780D03*
G54D31*
G01X9680Y10780D02*
G01X9800Y10460D01*
G01X9800Y10460D02*
G01X9800Y10000D01*
G54D30*
G01X9680Y10780D03*
G54D31*
G01X9680Y10780D02*
G01X9800Y10460D01*
G01X9800Y10460D02*
G01X9800Y10000D01*
G01X7700Y10400D02*
G01X7710Y10380D01*
G01X7710Y10380D02*
G01X7870Y10390D01*
G54D30*
G01X8960Y10390D03*
G54D31*
G01X7870Y10390D02*
G01X8960Y10390D01*
G54D30*
G01X3000Y10800D02*
G01X3000Y12090D01*
G01X3000Y12090D02*
G01X2590Y12500D01*
G01X2590Y12500D02*
G01X1500Y12500D01*
G01X12500Y14400D03*
G01X14890Y14400D03*
G01X9590Y14600D03*
G54D31*
G01X9590Y14600D02*
G01X9040Y15150D01*
G01X9040Y15150D02*
G01X2980Y15150D01*
G01X2980Y15150D02*
G01X2330Y14500D01*
G01X2330Y14500D02*
G01X1500Y14500D01*
G54D30*
G01X9590Y14600D03*
G54D31*
G01X9590Y14600D02*
G01X9110Y14120D01*
G01X9110Y14120D02*
G01X8700Y14120D01*
G01X8700Y14120D02*
G01X8500Y13920D01*
G01X8500Y13920D02*
G01X8500Y13600D01*
G54D30*
G01X11070Y16900D03*
G54D31*
G01X11070Y16900D02*
G01X11210Y16530D01*
G01X11210Y16530D02*
G01X11220Y14200D01*
G01X11220Y14200D02*
G01X10300Y13310D01*
G01X10300Y13310D02*
G01X10300Y10050D01*
G54D30*
G01X10700Y9230D03*
G54D31*
G01X10300Y10050D02*
G01X10700Y9230D01*
G01X1500Y15500D02*
G01X9450Y15500D01*
G01X9450Y15500D02*
G01X10090Y14860D01*
G54D30*
G01X10340Y14600D03*
G54D31*
G01X10090Y14860D02*
G01X10340Y14600D01*
G54D30*
G01X10340Y14600D03*
G54D31*
G01X10340Y14600D02*
G01X10340Y13840D01*
G01X10340Y13840D02*
G01X10100Y13600D01*
G01X10100Y13600D02*
G01X9300Y13600D01*
G54D32*
G01X20000Y4120D03*
G54D14*
G54D32*
G01X18600Y4110D03*
G54D14*
G54D32*
G01X22900Y7360D03*
G54D14*
G54D32*
G01X20000Y4120D03*
G54D14*
G54D31*
G01X13900Y14900D02*
G01X13900Y14910D01*
G54D33*
G01X13900Y14910D02*
G01X13110Y14910D01*
G01X13110Y14910D02*
G01X12270Y15750D01*
G01X12270Y15750D02*
G01X12270Y17360D01*
G01X12270Y17360D02*
G01X11470Y18160D01*
G01X11470Y18160D02*
G01X10300Y18160D01*
G01X10300Y18160D02*
G01X9900Y17760D01*
G54D30*
G01X9900Y17280D03*
G54D33*
G01X9900Y17760D02*
G01X9900Y17280D01*
G54D30*
G01X3000Y9800D02*
G01X3620Y9800D01*
G01X3620Y9800D02*
G01X3870Y10060D01*
G01X3870Y10060D02*
G01X3870Y12730D01*
G01X3870Y12730D02*
G01X4600Y13460D01*
G01X4600Y14100D03*
G01X4600Y13460D02*
G01X4600Y14100D01*
G01X13300Y8270D03*
G54D31*
G01X13300Y8270D02*
G01X13600Y7970D01*
G01X13600Y7970D02*
G01X13600Y7500D01*
G54D30*
G01X13300Y8270D03*
G54D31*
G01X13300Y8270D02*
G01X13600Y7970D01*
G01X13600Y7970D02*
G01X13600Y7500D01*
G54D34*
G01X13900Y14900D02*
G01X15180Y14900D01*
G01X15180Y14900D02*
G01X15510Y14570D01*
G54D33*
G01X15510Y14570D02*
G01X16060Y14020D01*
G01X16060Y14020D02*
G01X16060Y12770D01*
G01X16060Y12770D02*
G01X15850Y12560D01*
G54D30*
G01X15850Y12560D02*
G01X14930Y11650D01*
G01X14930Y11650D02*
G01X13630Y11650D01*
G01X13630Y11650D02*
G01X13290Y11300D01*
G01X13290Y11300D02*
G01X13300Y8270D01*
G54D31*
G01X13300Y8270D02*
G01X13600Y7970D01*
G01X13600Y7970D02*
G01X13600Y7500D01*
G54D32*
G01X17880Y8260D03*
G54D14*
G54D30*
G01X13300Y8270D03*
G54D32*
G01X17880Y8260D03*
G54D14*
G54D32*
G01X22900Y7360D03*
G54D14*
G54D32*
G01X18600Y4100D03*
G54D14*
G54D31*
G01X8500Y12700D02*
G01X9300Y12700D01*
G54D30*
G01X4600Y14100D03*
G54D31*
G01X4600Y14100D02*
G01X4600Y13460D01*
G01X4600Y13460D02*
G01X3950Y12810D01*
G01X3950Y12810D02*
G01X3040Y12810D01*
G01X3040Y12810D02*
G01X2360Y13490D01*
G54D30*
G01X2360Y14010D03*
G54D31*
G01X2360Y13490D02*
G01X2360Y14010D01*
G01X8500Y12700D02*
G01X7100Y14100D01*
G54D30*
G01X4600Y14100D03*
G54D31*
G01X7100Y14100D02*
G01X4600Y14100D01*
G54D30*
G01X6010Y12500D03*
G54D31*
G01X5200Y12500D02*
G01X6010Y12500D01*
G01X18990Y14100D02*
G01X19500Y14100D01*
G01X19500Y14100D02*
G01X19640Y14250D01*
G01X19640Y14250D02*
G01X19640Y15150D01*
G01X19640Y15150D02*
G01X17390Y17400D01*
G01X17390Y17400D02*
G01X15270Y17400D01*
G01X15270Y17400D02*
G01X14770Y16900D01*
G01X14770Y16900D02*
G01X13900Y16900D01*
G54D14*
G54D32*
G01X8420Y16700D03*
G54D14*
G54D32*
G01X6600Y16170D03*
G54D14*
G54D32*
G01X4580Y12500D03*
G54D14*
G54D32*
G01X8660Y9700D03*
G54D14*
G54D32*
G01X12770Y7450D03*
G54D14*
G54D32*
G01X11420Y10370D03*
G54D14*
G54D32*
G01X8660Y9700D03*
G54D14*
G54D32*
G01X17020Y7450D03*
G54D14*
G54D32*
G01X12770Y7450D03*
G54D14*
G54D32*
G01X12730Y4100D03*
G54D14*
G54D32*
G01X15000Y3230D03*
G54D14*
G54D32*
G01X17020Y4100D03*
G54D14*
G54D32*
G01X16660Y13520D03*
G54D14*
G54D32*
G01X30790Y17170D03*
G54D14*
G54D32*
G01X28110Y13360D03*
G54D14*
G36*
G01X28479Y13206D02*
G01X28442Y13137D01*
G01X28392Y13077D01*
G01X28332Y13027D01*
G01X28263Y12990D01*
G01X28253Y12987D01*
G01X28481Y13212D01*
G01X28479Y13206D01*
G37*
G01X28479Y13206D02*
G01X28442Y13137D01*
G01X28392Y13077D01*
G01X28332Y13027D01*
G01X28263Y12990D01*
G01X28253Y12987D01*
G01X28481Y13212D01*
G01X28479Y13206D01*
G36*
G01X28479Y13206D02*
G01X28442Y13137D01*
G01X28392Y13077D01*
G01X28332Y13027D01*
G01X28263Y12990D01*
G01X28253Y12987D01*
G01X28481Y13212D01*
G01X28479Y13206D01*
G37*
G01X28479Y13206D02*
G01X28442Y13137D01*
G01X28392Y13077D01*
G01X28332Y13027D01*
G01X28263Y12990D01*
G01X28253Y12987D01*
G01X28481Y13212D01*
G01X28479Y13206D01*
G54D32*
G01X4100Y8400D03*
G54D14*
G54D32*
G01X8660Y9700D03*
G54D14*
G54D32*
G01X26100Y4450D03*
G54D14*
G54D32*
G01X31400Y12420D03*
G54D14*
G54D32*
G01X26100Y4450D03*
G54D14*
G54D32*
G01X12770Y7450D03*
G54D14*
G54D32*
G01X28600Y5690D03*
G54D14*
G54D32*
G01X17020Y7450D03*
G54D14*
G54D32*
G01X17020Y7450D03*
G54D14*
G54D30*
G01X12770Y6640D03*
G01X5810Y6650D03*
G54D31*
G01X5810Y6650D02*
G01X5810Y7140D01*
G01X5810Y7140D02*
G01X4830Y8110D01*
G01X4830Y8110D02*
G01X4830Y10870D01*
G01X4830Y10870D02*
G01X4580Y11120D01*
G54D30*
G01X4580Y11610D03*
G54D31*
G01X4580Y11120D02*
G01X4580Y11610D01*
G01X13900Y13900D02*
G01X13880Y13900D01*
G01X13880Y13900D02*
G01X14470Y13890D01*
G01X14470Y13890D02*
G01X14700Y13650D01*
G01X14700Y13650D02*
G01X14690Y12440D01*
G01X14690Y12440D02*
G01X14430Y12180D01*
G01X14430Y12180D02*
G01X12630Y12180D01*
G01X12630Y12180D02*
G01X12330Y11870D01*
G54D30*
G01X12330Y8160D03*
G54D31*
G01X12330Y11870D02*
G01X12330Y8160D01*
G54D30*
G01X14020Y11010D03*
G54D31*
G01X14020Y11010D02*
G01X14310Y10720D01*
G01X14310Y10720D02*
G01X15340Y10730D01*
G01X15340Y10730D02*
G01X16310Y9760D01*
G01X16310Y9760D02*
G01X16310Y8470D01*
G01X16310Y8470D02*
G01X15430Y7590D01*
G01X15430Y7590D02*
G01X15440Y4450D01*
G01X15440Y4450D02*
G01X14000Y3010D01*
G01X14000Y3010D02*
G01X14000Y1500D01*
G54D30*
G01X15490Y13420D03*
G01X3600Y13420D03*
G54D14*
G54D32*
G01X28010Y12350D03*
G54D14*
G54D32*
G01X26290Y5240D03*
G54D14*
G54D30*
G01X6380Y6000D03*
G01X22900Y6000D03*
G01X3010Y14310D03*
G54D31*
G01X3010Y14310D02*
G01X3470Y14780D01*
G01X3470Y14780D02*
G01X8470Y14780D01*
G54D30*
G01X8900Y14600D03*
G54D31*
G01X8470Y14780D02*
G01X8900Y14600D01*
G54D30*
G01X18350Y11800D03*
G01X9740Y11790D03*

G04 Draw clearances for text*
G54D35*
G01X1427Y7409D02*
G01X1472Y7409D01*
G01X1472Y7409D02*
G01X1563Y7454D01*
G01X1563Y7454D02*
G01X1609Y7500D01*
G01X1609Y7500D02*
G01X1654Y7590D01*
G01X1654Y7590D02*
G01X1654Y7772D01*
G01X1654Y7772D02*
G01X1609Y7863D01*
G01X1609Y7863D02*
G01X1563Y7909D01*
G01X1563Y7909D02*
G01X1472Y7954D01*
G01X1472Y7954D02*
G01X1381Y7954D01*
G01X1381Y7954D02*
G01X1290Y7909D01*
G01X1290Y7909D02*
G01X1154Y7818D01*
G01X1154Y7818D02*
G01X700Y7363D01*
G01X700Y7363D02*
G01X700Y8000D01*
G54D36*
G01X20354Y18120D02*
G01X20029Y18120D01*
G01X20029Y18120D02*
G01X20206Y17884D01*
G01X20206Y17884D02*
G01X20118Y17884D01*
G01X20118Y17884D02*
G01X20059Y17854D01*
G01X20059Y17854D02*
G01X20029Y17825D01*
G01X20029Y17825D02*
G01X20000Y17736D01*
G01X20000Y17736D02*
G01X20000Y17677D01*
G01X20000Y17677D02*
G01X20029Y17588D01*
G01X20029Y17588D02*
G01X20088Y17529D01*
G01X20088Y17529D02*
G01X20177Y17500D01*
G01X20177Y17500D02*
G01X20265Y17500D01*
G01X20265Y17500D02*
G01X20354Y17529D01*
G01X20354Y17529D02*
G01X20384Y17559D01*
G01X20384Y17559D02*
G01X20413Y17618D01*
G01X20886Y18120D02*
G01X20975Y18090D01*
G01X20975Y18090D02*
G01X21034Y18002D01*
G01X21034Y18002D02*
G01X21063Y17854D01*
G01X21063Y17854D02*
G01X21063Y17765D01*
G01X21063Y17765D02*
G01X21034Y17618D01*
G01X21034Y17618D02*
G01X20975Y17529D01*
G01X20975Y17529D02*
G01X20886Y17500D01*
G01X20886Y17500D02*
G01X20827Y17500D01*
G01X20827Y17500D02*
G01X20738Y17529D01*
G01X20738Y17529D02*
G01X20679Y17618D01*
G01X20679Y17618D02*
G01X20650Y17765D01*
G01X20650Y17765D02*
G01X20650Y17854D01*
G01X20650Y17854D02*
G01X20679Y18002D01*
G01X20679Y18002D02*
G01X20738Y18090D01*
G01X20738Y18090D02*
G01X20827Y18120D01*
G01X20827Y18120D02*
G01X20886Y18120D01*
G01X21536Y18120D02*
G01X21772Y17500D01*
G01X21536Y18120D02*
G01X21300Y17500D01*
G01X21684Y17706D02*
G01X21388Y17706D01*
G01X22954Y18120D02*
G01X22718Y17500D01*
G01X22481Y18120D02*
G01X22718Y17500D01*
G01X23574Y18120D02*
G01X23574Y17500D01*
G01X23574Y18120D02*
G01X23190Y18120D01*
G01X23574Y17825D02*
G01X23338Y17825D01*
G01X23574Y17500D02*
G01X23190Y17500D01*
G01X24224Y18120D02*
G01X24224Y17500D01*
G01X24224Y18120D02*
G01X23959Y18120D01*
G01X23959Y18120D02*
G01X23870Y18090D01*
G01X23870Y18090D02*
G01X23840Y18061D01*
G01X23840Y18061D02*
G01X23811Y18002D01*
G01X23811Y18002D02*
G01X23811Y17943D01*
G01X23811Y17943D02*
G01X23840Y17884D01*
G01X23840Y17884D02*
G01X23870Y17854D01*
G01X23870Y17854D02*
G01X23959Y17825D01*
G01X23959Y17825D02*
G01X24224Y17825D01*
G01X24018Y17825D02*
G01X23811Y17500D01*
G01X31854Y16236D02*
G01X31500Y16236D01*
G01X31500Y16236D02*
G01X31500Y16295D01*
G01X31500Y16295D02*
G01X31529Y16354D01*
G01X31529Y16354D02*
G01X31559Y16384D01*
G01X31559Y16384D02*
G01X31618Y16413D01*
G01X31618Y16413D02*
G01X31706Y16413D01*
G01X31706Y16413D02*
G01X31765Y16384D01*
G01X31765Y16384D02*
G01X31825Y16325D01*
G01X31825Y16325D02*
G01X31854Y16236D01*
G01X31854Y16236D02*
G01X31854Y16177D01*
G01X31854Y16177D02*
G01X31825Y16088D01*
G01X31825Y16088D02*
G01X31765Y16029D01*
G01X31765Y16029D02*
G01X31706Y16000D01*
G01X31706Y16000D02*
G01X31618Y16000D01*
G01X31618Y16000D02*
G01X31559Y16029D01*
G01X31559Y16029D02*
G01X31500Y16088D01*
G01X32445Y16413D02*
G01X32445Y15793D01*
G01X32445Y16325D02*
G01X32386Y16384D01*
G01X32386Y16384D02*
G01X32327Y16413D01*
G01X32327Y16413D02*
G01X32238Y16413D01*
G01X32238Y16413D02*
G01X32179Y16384D01*
G01X32179Y16384D02*
G01X32120Y16325D01*
G01X32120Y16325D02*
G01X32090Y16236D01*
G01X32090Y16236D02*
G01X32090Y16177D01*
G01X32090Y16177D02*
G01X32120Y16088D01*
G01X32120Y16088D02*
G01X32179Y16029D01*
G01X32179Y16029D02*
G01X32238Y16000D01*
G01X32238Y16000D02*
G01X32327Y16000D01*
G01X32327Y16000D02*
G01X32386Y16029D01*
G01X32386Y16029D02*
G01X32445Y16088D01*
G01X32918Y16413D02*
G01X32977Y16384D01*
G01X32977Y16384D02*
G01X33036Y16325D01*
G01X33036Y16325D02*
G01X33065Y16236D01*
G01X33065Y16236D02*
G01X33065Y16177D01*
G01X33065Y16177D02*
G01X33036Y16088D01*
G01X33036Y16088D02*
G01X32977Y16029D01*
G01X32977Y16029D02*
G01X32918Y16000D01*
G01X32918Y16000D02*
G01X32829Y16000D01*
G01X32829Y16000D02*
G01X32770Y16029D01*
G01X32770Y16029D02*
G01X32711Y16088D01*
G01X32711Y16088D02*
G01X32681Y16177D01*
G01X32681Y16177D02*
G01X32681Y16236D01*
G01X32681Y16236D02*
G01X32711Y16325D01*
G01X32711Y16325D02*
G01X32770Y16384D01*
G01X32770Y16384D02*
G01X32829Y16413D01*
G01X32829Y16413D02*
G01X32918Y16413D01*
G01X33302Y16325D02*
G01X33361Y16384D01*
G01X33361Y16384D02*
G01X33420Y16413D01*
G01X33420Y16413D02*
G01X33509Y16413D01*
G01X33509Y16413D02*
G01X33568Y16384D01*
G01X33568Y16384D02*
G01X33627Y16325D01*
G01X33627Y16325D02*
G01X33656Y16236D01*
G01X33656Y16236D02*
G01X33656Y16177D01*
G01X33656Y16177D02*
G01X33627Y16088D01*
G01X33627Y16088D02*
G01X33568Y16029D01*
G01X33568Y16029D02*
G01X33509Y16000D01*
G01X33509Y16000D02*
G01X33420Y16000D01*
G01X33420Y16000D02*
G01X33361Y16029D01*
G01X33361Y16029D02*
G01X33302Y16088D01*
G01X33893Y16325D02*
G01X33922Y16384D01*
G01X33922Y16384D02*
G01X34011Y16413D01*
G01X34011Y16413D02*
G01X34099Y16413D01*
G01X34099Y16413D02*
G01X34188Y16384D01*
G01X34188Y16384D02*
G01X34218Y16325D01*
G01X34218Y16325D02*
G01X34188Y16265D01*
G01X34188Y16265D02*
G01X34129Y16236D01*
G01X34129Y16236D02*
G01X33981Y16206D01*
G01X33981Y16206D02*
G01X33922Y16177D01*
G01X33922Y16177D02*
G01X33893Y16118D01*
G01X33893Y16118D02*
G01X33893Y16088D01*
G01X33893Y16088D02*
G01X33922Y16029D01*
G01X33922Y16029D02*
G01X34011Y16000D01*
G01X34011Y16000D02*
G01X34099Y16000D01*
G01X34099Y16000D02*
G01X34188Y16029D01*
G01X34188Y16029D02*
G01X34218Y16088D01*
G01X34749Y16620D02*
G01X34809Y16590D01*
G01X34809Y16590D02*
G01X34868Y16531D01*
G01X34868Y16531D02*
G01X34897Y16472D01*
G01X34897Y16472D02*
G01X34927Y16384D01*
G01X34927Y16384D02*
G01X34927Y16236D01*
G01X34927Y16236D02*
G01X34897Y16147D01*
G01X34897Y16147D02*
G01X34868Y16088D01*
G01X34868Y16088D02*
G01X34809Y16029D01*
G01X34809Y16029D02*
G01X34749Y16000D01*
G01X34749Y16000D02*
G01X34631Y16000D01*
G01X34631Y16000D02*
G01X34572Y16029D01*
G01X34572Y16029D02*
G01X34513Y16088D01*
G01X34513Y16088D02*
G01X34484Y16147D01*
G01X34484Y16147D02*
G01X34454Y16236D01*
G01X34454Y16236D02*
G01X34454Y16384D01*
G01X34454Y16384D02*
G01X34484Y16472D01*
G01X34484Y16472D02*
G01X34513Y16531D01*
G01X34513Y16531D02*
G01X34572Y16590D01*
G01X34572Y16590D02*
G01X34631Y16620D01*
G01X34631Y16620D02*
G01X34749Y16620D01*
G01X35163Y16531D02*
G01X35222Y16590D01*
G01X35222Y16590D02*
G01X35311Y16620D01*
G01X35311Y16620D02*
G01X35429Y16620D01*
G01X35429Y16620D02*
G01X35518Y16590D01*
G01X35518Y16590D02*
G01X35577Y16531D01*
G01X35577Y16531D02*
G01X35577Y16472D01*
G01X35577Y16472D02*
G01X35547Y16413D01*
G01X35547Y16413D02*
G01X35518Y16384D01*
G01X35518Y16384D02*
G01X35459Y16354D01*
G01X35459Y16354D02*
G01X35281Y16295D01*
G01X35281Y16295D02*
G01X35222Y16265D01*
G01X35222Y16265D02*
G01X35193Y16236D01*
G01X35193Y16236D02*
G01X35163Y16177D01*
G01X35163Y16177D02*
G01X35163Y16088D01*
G01X35163Y16088D02*
G01X35222Y16029D01*
G01X35222Y16029D02*
G01X35311Y16000D01*
G01X35311Y16000D02*
G01X35429Y16000D01*
G01X35429Y16000D02*
G01X35518Y16029D01*
G01X35518Y16029D02*
G01X35577Y16088D01*
G01X36227Y16620D02*
G01X36227Y16000D01*
G01X36227Y16620D02*
G01X36020Y16620D01*
G01X36020Y16620D02*
G01X35931Y16590D01*
G01X35931Y16590D02*
G01X35872Y16531D01*
G01X35872Y16531D02*
G01X35843Y16472D01*
G01X35843Y16472D02*
G01X35813Y16384D01*
G01X35813Y16384D02*
G01X35813Y16236D01*
G01X35813Y16236D02*
G01X35843Y16147D01*
G01X35843Y16147D02*
G01X35872Y16088D01*
G01X35872Y16088D02*
G01X35931Y16029D01*
G01X35931Y16029D02*
G01X36020Y16000D01*
G01X36020Y16000D02*
G01X36227Y16000D01*
G01X19400Y13072D02*
G01X19429Y13131D01*
G01X19429Y13131D02*
G01X19488Y13190D01*
G01X19488Y13190D02*
G01X19547Y13220D01*
G01X19547Y13220D02*
G01X19665Y13220D01*
G01X19665Y13220D02*
G01X19725Y13190D01*
G01X19725Y13190D02*
G01X19784Y13131D01*
G01X19784Y13131D02*
G01X19813Y13072D01*
G01X19813Y13072D02*
G01X19843Y12984D01*
G01X19843Y12984D02*
G01X19843Y12836D01*
G01X19843Y12836D02*
G01X19813Y12747D01*
G01X19813Y12747D02*
G01X19784Y12688D01*
G01X19784Y12688D02*
G01X19725Y12629D01*
G01X19725Y12629D02*
G01X19665Y12600D01*
G01X19665Y12600D02*
G01X19547Y12600D01*
G01X19547Y12600D02*
G01X19488Y12629D01*
G01X19488Y12629D02*
G01X19429Y12688D01*
G01X19429Y12688D02*
G01X19400Y12747D01*
G01X19400Y12747D02*
G01X19400Y12836D01*
G01X19547Y12836D02*
G01X19400Y12836D01*
G01X20493Y13220D02*
G01X20493Y12600D01*
G01X20493Y13220D02*
G01X20227Y13220D01*
G01X20227Y13220D02*
G01X20138Y13190D01*
G01X20138Y13190D02*
G01X20109Y13161D01*
G01X20109Y13161D02*
G01X20079Y13102D01*
G01X20079Y13102D02*
G01X20079Y13043D01*
G01X20079Y13043D02*
G01X20109Y12984D01*
G01X20109Y12984D02*
G01X20138Y12954D01*
G01X20138Y12954D02*
G01X20227Y12925D01*
G01X20227Y12925D02*
G01X20493Y12925D01*
G01X20286Y12925D02*
G01X20079Y12600D01*
G01X21024Y13220D02*
G01X21084Y13190D01*
G01X21084Y13190D02*
G01X21143Y13131D01*
G01X21143Y13131D02*
G01X21172Y13072D01*
G01X21172Y13072D02*
G01X21202Y12984D01*
G01X21202Y12984D02*
G01X21202Y12836D01*
G01X21202Y12836D02*
G01X21172Y12747D01*
G01X21172Y12747D02*
G01X21143Y12688D01*
G01X21143Y12688D02*
G01X21084Y12629D01*
G01X21084Y12629D02*
G01X21024Y12600D01*
G01X21024Y12600D02*
G01X20906Y12600D01*
G01X20906Y12600D02*
G01X20847Y12629D01*
G01X20847Y12629D02*
G01X20788Y12688D01*
G01X20788Y12688D02*
G01X20759Y12747D01*
G01X20759Y12747D02*
G01X20729Y12836D01*
G01X20729Y12836D02*
G01X20729Y12984D01*
G01X20729Y12984D02*
G01X20759Y13072D01*
G01X20759Y13072D02*
G01X20788Y13131D01*
G01X20788Y13131D02*
G01X20847Y13190D01*
G01X20847Y13190D02*
G01X20906Y13220D01*
G01X20906Y13220D02*
G01X21024Y13220D01*
G01X21468Y12659D02*
G01X21497Y12629D01*
G01X21497Y12629D02*
G01X21468Y12600D01*
G01X21468Y12600D02*
G01X21438Y12629D01*
G01X21438Y12629D02*
G01X21468Y12659D01*
G01X21734Y13072D02*
G01X21763Y13131D01*
G01X21763Y13131D02*
G01X21822Y13190D01*
G01X21822Y13190D02*
G01X21881Y13220D01*
G01X21881Y13220D02*
G01X21999Y13220D01*
G01X21999Y13220D02*
G01X22059Y13190D01*
G01X22059Y13190D02*
G01X22118Y13131D01*
G01X22118Y13131D02*
G01X22147Y13072D01*
G01X22147Y13072D02*
G01X22177Y12984D01*
G01X22177Y12984D02*
G01X22177Y12836D01*
G01X22177Y12836D02*
G01X22147Y12747D01*
G01X22147Y12747D02*
G01X22118Y12688D01*
G01X22118Y12688D02*
G01X22059Y12629D01*
G01X22059Y12629D02*
G01X21999Y12600D01*
G01X21999Y12600D02*
G01X21881Y12600D01*
G01X21881Y12600D02*
G01X21822Y12629D01*
G01X21822Y12629D02*
G01X21763Y12688D01*
G01X21763Y12688D02*
G01X21734Y12747D01*
G01X21734Y12747D02*
G01X21734Y12836D01*
G01X21881Y12836D02*
G01X21734Y12836D01*
G01X22827Y13220D02*
G01X22827Y12600D01*
G01X22827Y13220D02*
G01X22561Y13220D01*
G01X22561Y13220D02*
G01X22472Y13190D01*
G01X22472Y13190D02*
G01X22443Y13161D01*
G01X22443Y13161D02*
G01X22413Y13102D01*
G01X22413Y13102D02*
G01X22413Y13043D01*
G01X22413Y13043D02*
G01X22443Y12984D01*
G01X22443Y12984D02*
G01X22472Y12954D01*
G01X22472Y12954D02*
G01X22561Y12925D01*
G01X22561Y12925D02*
G01X22827Y12925D01*
G01X22620Y12925D02*
G01X22413Y12600D01*
G01X23063Y13072D02*
G01X23093Y13131D01*
G01X23093Y13131D02*
G01X23152Y13190D01*
G01X23152Y13190D02*
G01X23211Y13220D01*
G01X23211Y13220D02*
G01X23329Y13220D01*
G01X23329Y13220D02*
G01X23388Y13190D01*
G01X23388Y13190D02*
G01X23447Y13131D01*
G01X23447Y13131D02*
G01X23477Y13072D01*
G01X23477Y13072D02*
G01X23506Y12984D01*
G01X23506Y12984D02*
G01X23506Y12836D01*
G01X23506Y12836D02*
G01X23477Y12747D01*
G01X23477Y12747D02*
G01X23447Y12688D01*
G01X23447Y12688D02*
G01X23388Y12629D01*
G01X23388Y12629D02*
G01X23329Y12600D01*
G01X23329Y12600D02*
G01X23211Y12600D01*
G01X23211Y12600D02*
G01X23152Y12629D01*
G01X23152Y12629D02*
G01X23093Y12688D01*
G01X23093Y12688D02*
G01X23063Y12747D01*
G01X24038Y13220D02*
G01X24097Y13190D01*
G01X24097Y13190D02*
G01X24156Y13131D01*
G01X24156Y13131D02*
G01X24186Y13072D01*
G01X24186Y13072D02*
G01X24215Y12984D01*
G01X24215Y12984D02*
G01X24215Y12836D01*
G01X24215Y12836D02*
G01X24186Y12747D01*
G01X24186Y12747D02*
G01X24156Y12688D01*
G01X24156Y12688D02*
G01X24097Y12629D01*
G01X24097Y12629D02*
G01X24038Y12600D01*
G01X24038Y12600D02*
G01X23920Y12600D01*
G01X23920Y12600D02*
G01X23861Y12629D01*
G01X23861Y12629D02*
G01X23802Y12688D01*
G01X23802Y12688D02*
G01X23772Y12747D01*
G01X23772Y12747D02*
G01X23743Y12836D01*
G01X23743Y12836D02*
G01X23743Y12984D01*
G01X23743Y12984D02*
G01X23772Y13072D01*
G01X23772Y13072D02*
G01X23802Y13131D01*
G01X23802Y13131D02*
G01X23861Y13190D01*
G01X23861Y13190D02*
G01X23920Y13220D01*
G01X23920Y13220D02*
G01X24038Y13220D01*
G01X32513Y15520D02*
G01X32513Y14900D01*
G01X32513Y15520D02*
G01X32306Y15520D01*
G01X32306Y15520D02*
G01X32218Y15490D01*
G01X32218Y15490D02*
G01X32159Y15431D01*
G01X32159Y15431D02*
G01X32129Y15372D01*
G01X32129Y15372D02*
G01X32100Y15284D01*
G01X32100Y15284D02*
G01X32100Y15136D01*
G01X32100Y15136D02*
G01X32129Y15047D01*
G01X32129Y15047D02*
G01X32159Y14988D01*
G01X32159Y14988D02*
G01X32218Y14929D01*
G01X32218Y14929D02*
G01X32306Y14900D01*
G01X32306Y14900D02*
G01X32513Y14900D01*
G01X33163Y15520D02*
G01X33163Y14900D01*
G01X33163Y15520D02*
G01X32897Y15520D01*
G01X32897Y15520D02*
G01X32809Y15490D01*
G01X32809Y15490D02*
G01X32779Y15461D01*
G01X32779Y15461D02*
G01X32750Y15402D01*
G01X32750Y15402D02*
G01X32750Y15343D01*
G01X32750Y15343D02*
G01X32779Y15284D01*
G01X32779Y15284D02*
G01X32809Y15254D01*
G01X32809Y15254D02*
G01X32897Y15225D01*
G01X32897Y15225D02*
G01X33163Y15225D01*
G01X32956Y15225D02*
G01X32750Y14900D01*
G01X33813Y15520D02*
G01X33813Y14900D01*
G01X33813Y15520D02*
G01X33547Y15520D01*
G01X33547Y15520D02*
G01X33459Y15490D01*
G01X33459Y15490D02*
G01X33429Y15461D01*
G01X33429Y15461D02*
G01X33400Y15402D01*
G01X33400Y15402D02*
G01X33400Y15343D01*
G01X33400Y15343D02*
G01X33429Y15284D01*
G01X33429Y15284D02*
G01X33459Y15254D01*
G01X33459Y15254D02*
G01X33547Y15225D01*
G01X33813Y15225D02*
G01X33547Y15225D01*
G01X33547Y15225D02*
G01X33459Y15195D01*
G01X33459Y15195D02*
G01X33429Y15165D01*
G01X33429Y15165D02*
G01X33400Y15106D01*
G01X33400Y15106D02*
G01X33400Y15018D01*
G01X33400Y15018D02*
G01X33429Y14959D01*
G01X33429Y14959D02*
G01X33459Y14929D01*
G01X33459Y14929D02*
G01X33547Y14900D01*
G01X33547Y14900D02*
G01X33813Y14900D01*
G01X34936Y15520D02*
G01X34936Y15077D01*
G01X34936Y15077D02*
G01X34906Y14988D01*
G01X34906Y14988D02*
G01X34847Y14929D01*
G01X34847Y14929D02*
G01X34759Y14900D01*
G01X34759Y14900D02*
G01X34699Y14900D01*
G01X34699Y14900D02*
G01X34611Y14929D01*
G01X34611Y14929D02*
G01X34552Y14988D01*
G01X34552Y14988D02*
G01X34522Y15077D01*
G01X34522Y15077D02*
G01X34522Y15520D01*
G01X35586Y15520D02*
G01X35586Y14900D01*
G01X35586Y15520D02*
G01X35320Y15520D01*
G01X35320Y15520D02*
G01X35231Y15490D01*
G01X35231Y15490D02*
G01X35202Y15461D01*
G01X35202Y15461D02*
G01X35172Y15402D01*
G01X35172Y15402D02*
G01X35172Y15313D01*
G01X35172Y15313D02*
G01X35202Y15254D01*
G01X35202Y15254D02*
G01X35231Y15225D01*
G01X35231Y15225D02*
G01X35320Y15195D01*
G01X35320Y15195D02*
G01X35586Y15195D01*
G01X35822Y15372D02*
G01X35852Y15431D01*
G01X35852Y15431D02*
G01X35911Y15490D01*
G01X35911Y15490D02*
G01X35970Y15520D01*
G01X35970Y15520D02*
G01X36088Y15520D01*
G01X36088Y15520D02*
G01X36147Y15490D01*
G01X36147Y15490D02*
G01X36206Y15431D01*
G01X36206Y15431D02*
G01X36236Y15372D01*
G01X36236Y15372D02*
G01X36265Y15284D01*
G01X36265Y15284D02*
G01X36265Y15136D01*
G01X36265Y15136D02*
G01X36236Y15047D01*
G01X36236Y15047D02*
G01X36206Y14988D01*
G01X36206Y14988D02*
G01X36147Y14929D01*
G01X36147Y14929D02*
G01X36088Y14900D01*
G01X36088Y14900D02*
G01X35970Y14900D01*
G01X35970Y14900D02*
G01X35911Y14929D01*
G01X35911Y14929D02*
G01X35852Y14988D01*
G01X35852Y14988D02*
G01X35822Y15047D01*

G04 -------------- Draw Parts, Pads, Traces, Vias and Text (positive)*
%LPD*%
G04 Draw part U2*
G04 Draw part J3*
G54D37*
G01X27000Y1500D03*
G54D38*
G01X26000Y1500D03*
G01X25000Y1500D03*
G01X24000Y1500D03*
G01X23000Y1500D03*
G01X22000Y1500D03*
G01X21000Y1500D03*
G01X20000Y1500D03*
G01X19000Y1500D03*
G01X18000Y1500D03*
G01X17000Y1500D03*
G01X16000Y1500D03*
G01X15000Y1500D03*
G01X14000Y1500D03*
G01X13000Y1500D03*
G01X12000Y1500D03*
G01X11000Y1500D03*
G01X10000Y1500D03*
G04 Draw part R14*
G04 Draw part R12*
G54D39*
G01X5200Y12500D03*
G01X5200Y11600D03*
G04 Draw part U1*
G04 Draw part R4*
G04 Draw part R3*
G04 Draw part R2*
G04 Draw part R10*
G04 Draw part J2*
G54D37*
G01X1500Y11500D03*
G54D38*
G01X1500Y12500D03*
G01X1500Y13500D03*
G01X1500Y14500D03*
G01X1500Y15500D03*
G01X1500Y16500D03*
G01X1500Y17500D03*
G04 Draw part J1*
G54D37*
G01X3000Y9800D03*
G54D38*
G01X3000Y10800D03*
G54D40*
G01X3000Y10300D03*
G04 Draw part R5*
G04 Draw part R15*
G04 Draw part R16*
G04 Draw part R1*
G04 Draw part R7*
G04 Draw part R6*
G04 Draw part R8*
G04 Draw part R9*
G04 Draw part C6*
G54D39*
G01X7700Y10400D03*
G01X7700Y11300D03*
G04 Draw part C5*
G01X9800Y10000D03*
G01X9800Y9100D03*
G04 Draw part X1*
G54D41*
G01X4700Y6800D03*
G01X2800Y6800D03*
G04 Draw part C3*
G04 Draw part C4*
G04 Draw part C2*
G54D39*
G01X7700Y8700D03*
G01X7700Y9600D03*
G04 Draw part C1*
G01X13600Y7500D03*
G01X14500Y7500D03*
G04 Draw part C7*
G04 Draw part D1*
G04 Draw part D2*
G04 Draw part R11*
G04 Draw part R13*
G04 Draw part J5*
G54D42*
G01X20900Y15950D03*
G01X16100Y15950D03*
G54D43*
G01X18010Y14100D03*
G54D44*
G01X18990Y14100D03*
G01X18990Y14890D03*
G01X18010Y14890D03*
G04 Draw part R17*
G04 Draw part R18*
G04 Draw part J4*
G54D37*
G01X13900Y12900D03*
G54D38*
G01X13900Y13900D03*
G01X13900Y14900D03*
G01X13900Y15900D03*
G01X13900Y16900D03*
G01X13900Y17900D03*
G04 Draw part R27*
G04 Draw part C17*
G04 Draw part C19*
G54D39*
G01X34000Y8700D03*
G01X34000Y9600D03*
G04 Draw part U5*
G04 Draw part L2*
G04 Draw part C18*
G54D45*
G01X35000Y6000D03*
G54D46*
G01X35000Y8000D03*
G04 Draw part R28*
G04 Draw part D5*
G54D45*
G01X32500Y6000D03*
G54D46*
G01X32500Y11000D03*
G04 Draw part C16*
G54D37*
G01X27100Y11700D03*
G54D38*
G01X27100Y12700D03*
G04 Draw part R30*
G04 Draw part R31*
G04 Draw part U4*
G04 Draw part R24*
G04 Draw part R25*
G04 Draw part R26*
G04 Draw part R21*
G04 Draw part C12*
G54D37*
G01X27900Y17000D03*
G54D38*
G01X27900Y18000D03*
G04 Draw part L1*
G04 Draw part D4*
G54D45*
G01X36000Y13000D03*
G54D46*
G01X36000Y18000D03*
G04 Draw part C13*
G54D45*
G01X35000Y12100D03*
G54D46*
G01X35000Y10100D03*
G04 Draw part C14*
G54D39*
G01X34000Y11500D03*
G01X34000Y10600D03*
G04 Draw part R23*
G04 Draw part C11*
G01X30000Y15900D03*
G01X29100Y15900D03*
G04 Draw part R22*
G04 Draw part R29*
G04 Draw part C20*
G01X30000Y8300D03*
G01X30000Y7400D03*
G04 Draw part C15*
G04 Draw part F1*
G04 Draw part C8*
G54D37*
G01X24900Y10300D03*
G54D38*
G01X24900Y11300D03*
G04 Draw part C10*
G54D37*
G01X24700Y4000D03*
G54D38*
G01X23700Y4000D03*
G04 Draw part C9*
G04 Draw part C21*
G54D47*
G01X22000Y7400D03*
G01X22000Y8070D03*
G04 Draw part R32*
G04 Draw part C24*
G04 Draw part C25*
G54D39*
G01X27700Y6600D03*
G01X28600Y6600D03*
G04 Draw part C23*
G54D48*
G01X18300Y6600D03*
G01X17630Y6600D03*
G04 Draw part C22*
G54D39*
G01X18700Y8300D03*
G01X18700Y9200D03*
G04 Draw part L3*
G04 Draw part L4*
G54D49*
G01X28300Y8900D03*
G01X28300Y7550D03*
G04 Draw part R34*
G54D39*
G01X9300Y12700D03*
G01X9300Y13600D03*
G04 Draw part R33*
G01X8500Y12700D03*
G01X8500Y13600D03*
G04 Draw part R35*

G04 Draw traces*
G54D50*
G01X6550Y8170D03*
G01X21090Y8170D03*
G01X7940Y14130D03*
G01X7940Y17350D03*
G54D35*
G01X7940Y17350D02*
G01X7550Y17280D01*
G01X7550Y17280D02*
G01X3330Y17280D01*
G01X3330Y17280D02*
G01X2550Y16500D01*
G01X2550Y16500D02*
G01X1500Y16500D01*
G54D50*
G01X14250Y8750D03*
G54D35*
G01X14250Y8750D02*
G01X15740Y8750D01*
G54D50*
G01X15740Y8750D03*
G54D35*
G01X30000Y15900D02*
G01X30000Y15890D01*
G01X30000Y15890D02*
G01X30000Y16970D01*
G54D50*
G01X30000Y16970D03*
G01X14250Y9430D03*
G54D35*
G01X14250Y9430D02*
G01X15650Y9430D01*
G54D50*
G01X15650Y9430D03*
G01X19100Y11160D03*
G01X9080Y11160D03*
G01X14250Y10110D03*
G54D35*
G01X14250Y10110D02*
G01X15220Y10110D01*
G54D50*
G01X15220Y10110D03*
G54D35*
G01X7700Y8700D02*
G01X8080Y8700D01*
G01X8080Y8700D02*
G01X8300Y8920D01*
G01X8300Y8920D02*
G01X9100Y8920D01*
G54D50*
G01X9100Y8920D03*
G01X10890Y17570D03*
G54D35*
G01X10890Y17570D02*
G01X11350Y17570D01*
G01X11350Y17570D02*
G01X11590Y17330D01*
G01X11590Y17330D02*
G01X11590Y14040D01*
G01X11590Y14040D02*
G01X10600Y13050D01*
G01X10600Y13050D02*
G01X10600Y10220D01*
G01X10600Y10220D02*
G01X10870Y9730D01*
G01X10870Y9730D02*
G01X11290Y9370D01*
G01X11290Y9370D02*
G01X11290Y8900D01*
G54D50*
G01X11290Y8900D03*
G01X6760Y12730D03*
G01X19050Y11950D03*
G01X17850Y10250D03*
G54D35*
G01X17850Y10250D02*
G01X16550Y10250D01*
G54D50*
G01X16550Y10250D03*
G01X12020Y6620D03*
G54D35*
G01X12020Y6620D02*
G01X11320Y6630D01*
G01X11320Y6630D02*
G01X10420Y7530D01*
G01X10420Y7530D02*
G01X6430Y7530D01*
G01X6430Y7530D02*
G01X5550Y8400D01*
G01X5550Y8400D02*
G01X5550Y10990D01*
G01X5550Y10990D02*
G01X6010Y11450D01*
G54D50*
G01X6010Y11450D03*
G54D35*
G01X35000Y8000D02*
G01X34500Y8500D01*
G01X34500Y8500D02*
G01X34500Y8700D01*
G01X34500Y8700D02*
G01X34000Y8700D01*
G01X32500Y11000D02*
G01X33080Y10420D01*
G01X33080Y10420D02*
G01X33080Y8320D01*
G01X33080Y8320D02*
G01X33080Y8700D01*
G01X33080Y8700D02*
G01X34000Y8700D01*
G54D50*
G01X30320Y12200D03*
G54D35*
G01X30320Y12200D02*
G01X29980Y11860D01*
G01X29980Y11860D02*
G01X29980Y11160D01*
G54D50*
G01X29980Y11160D03*
G54D35*
G01X32500Y11000D02*
G01X31910Y10410D01*
G01X31910Y10410D02*
G01X31300Y10410D01*
G01X31300Y10410D02*
G01X30900Y10810D01*
G01X30900Y10810D02*
G01X30330Y10810D01*
G01X30330Y10810D02*
G01X29980Y11160D01*
G54D50*
G01X29980Y11160D03*
G54D35*
G01X28300Y8900D02*
G01X29250Y8900D01*
G01X29250Y8900D02*
G01X28300Y8900D01*
G01X28300Y8900D02*
G01X28300Y9460D01*
G01X28300Y9460D02*
G01X28670Y9830D01*
G01X28670Y9830D02*
G01X30000Y9830D01*
G01X30000Y9830D02*
G01X29990Y8300D01*
G01X29990Y8300D02*
G01X29470Y8300D01*
G01X29470Y8300D02*
G01X30570Y8300D01*
G01X30570Y8300D02*
G01X30000Y8300D01*
G01X30000Y8300D02*
G01X30000Y9830D01*
G01X30000Y9830D02*
G01X29630Y9830D01*
G01X29630Y9830D02*
G01X29630Y10810D01*
G01X29630Y10810D02*
G01X29980Y11160D01*
G54D50*
G01X29980Y11160D03*
G54D35*
G01X13900Y12900D02*
G01X13910Y12910D01*
G01X13910Y12910D02*
G01X11810Y12910D01*
G01X11810Y12910D02*
G01X10910Y12020D01*
G01X10910Y12020D02*
G01X10910Y10270D01*
G01X10910Y10270D02*
G01X11160Y9890D01*
G01X11160Y9890D02*
G01X11830Y9330D01*
G01X11830Y9330D02*
G01X11830Y7710D01*
G01X11830Y7710D02*
G01X12090Y7460D01*
G54D50*
G01X12090Y7460D03*
G54D51*
G01X27700Y6600D02*
G01X27700Y7550D01*
G54D35*
G01X27700Y7550D02*
G01X28300Y7550D01*
G54D50*
G01X26000Y2370D03*
G54D35*
G01X5200Y11600D02*
G01X5200Y8260D01*
G01X5200Y8260D02*
G01X6280Y7180D01*
G01X6280Y7180D02*
G01X10260Y7180D01*
G01X10260Y7180D02*
G01X11000Y6430D01*
G01X11000Y6430D02*
G01X11000Y1500D01*
G01X7700Y10400D02*
G01X7860Y10390D01*
G54D52*
G01X7860Y10390D02*
G01X8960Y10390D01*
G54D50*
G01X8960Y10390D03*
G01X9680Y10780D03*
G54D35*
G01X9680Y10780D02*
G01X9800Y10460D01*
G01X9800Y10460D02*
G01X9800Y10000D01*
G54D50*
G01X9680Y10780D03*
G54D35*
G01X9680Y10780D02*
G01X9800Y10460D01*
G01X9800Y10460D02*
G01X9800Y10000D01*
G01X7700Y10400D02*
G01X7710Y10380D01*
G01X7710Y10380D02*
G01X7870Y10390D01*
G01X7870Y10390D02*
G01X8960Y10390D01*
G54D50*
G01X8960Y10390D03*
G01X3000Y10800D02*
G01X3000Y12090D01*
G01X3000Y12090D02*
G01X2590Y12500D01*
G01X2590Y12500D02*
G01X1500Y12500D01*
G01X12500Y14400D03*
G01X14890Y14400D03*
G01X9590Y14600D03*
G54D35*
G01X9590Y14600D02*
G01X9040Y15150D01*
G01X9040Y15150D02*
G01X2980Y15150D01*
G01X2980Y15150D02*
G01X2330Y14500D01*
G01X2330Y14500D02*
G01X1500Y14500D01*
G54D50*
G01X9590Y14600D03*
G54D35*
G01X9590Y14600D02*
G01X9110Y14120D01*
G01X9110Y14120D02*
G01X8700Y14120D01*
G01X8700Y14120D02*
G01X8500Y13920D01*
G01X8500Y13920D02*
G01X8500Y13600D01*
G54D50*
G01X11070Y16900D03*
G54D35*
G01X11070Y16900D02*
G01X11210Y16530D01*
G01X11210Y16530D02*
G01X11220Y14200D01*
G01X11220Y14200D02*
G01X10300Y13310D01*
G01X10300Y13310D02*
G01X10300Y10050D01*
G01X10300Y10050D02*
G01X10700Y9230D01*
G54D50*
G01X10700Y9230D03*
G54D35*
G01X1500Y15500D02*
G01X9450Y15500D01*
G01X9450Y15500D02*
G01X10090Y14860D01*
G01X10090Y14860D02*
G01X10340Y14600D01*
G54D50*
G01X10340Y14600D03*
G01X10340Y14600D03*
G54D35*
G01X10340Y14600D02*
G01X10340Y13840D01*
G01X10340Y13840D02*
G01X10100Y13600D01*
G01X10100Y13600D02*
G01X9300Y13600D01*
G54D50*
G01X20000Y4120D03*
G54D35*
G01X20000Y4120D02*
G01X19640Y4480D01*
G01X19640Y4480D02*
G01X18970Y4480D01*
G01X18970Y4480D02*
G01X18600Y4120D01*
G01X18600Y4120D02*
G01X18600Y4110D01*
G54D50*
G01X18600Y4110D03*
G54D35*
G01X27900Y17000D02*
G01X27010Y17000D01*
G01X27010Y17000D02*
G01X27010Y13880D01*
G01X27010Y13880D02*
G01X25900Y12750D01*
G01X25900Y12750D02*
G01X25900Y11700D01*
G01X25900Y11700D02*
G01X27100Y11700D01*
G54D50*
G01X22900Y7360D03*
G54D35*
G01X22900Y7360D02*
G01X22500Y6960D01*
G01X22500Y6960D02*
G01X22040Y6960D01*
G01X22040Y6960D02*
G01X22040Y6160D01*
G01X22040Y6160D02*
G01X20480Y4570D01*
G01X20480Y4570D02*
G01X20000Y4120D01*
G54D50*
G01X20000Y4120D03*
G54D35*
G01X13900Y14900D02*
G01X13900Y14910D01*
G54D52*
G01X13900Y14910D02*
G01X13110Y14910D01*
G01X13110Y14910D02*
G01X12270Y15750D01*
G01X12270Y15750D02*
G01X12270Y17360D01*
G01X12270Y17360D02*
G01X11470Y18160D01*
G01X11470Y18160D02*
G01X10300Y18160D01*
G01X10300Y18160D02*
G01X9900Y17760D01*
G01X9900Y17760D02*
G01X9900Y17280D01*
G54D50*
G01X9900Y17280D03*
G01X3000Y9800D02*
G01X3620Y9800D01*
G01X3620Y9800D02*
G01X3870Y10060D01*
G01X3870Y10060D02*
G01X3870Y12730D01*
G01X3870Y12730D02*
G01X4600Y13460D01*
G01X4600Y13460D02*
G01X4600Y14100D01*
G01X4600Y14100D03*
G01X13300Y8270D03*
G54D35*
G01X13300Y8270D02*
G01X13600Y7970D01*
G01X13600Y7970D02*
G01X13600Y7500D01*
G54D50*
G01X13300Y8270D03*
G54D35*
G01X13300Y8270D02*
G01X13600Y7970D01*
G01X13600Y7970D02*
G01X13600Y7500D01*
G54D51*
G01X13900Y14900D02*
G01X15180Y14900D01*
G01X15180Y14900D02*
G01X15510Y14570D01*
G54D52*
G01X15510Y14570D02*
G01X16060Y14020D01*
G01X16060Y14020D02*
G01X16060Y12770D01*
G01X16060Y12770D02*
G01X15850Y12560D01*
G54D50*
G01X15850Y12560D02*
G01X14930Y11650D01*
G01X14930Y11650D02*
G01X13630Y11650D01*
G01X13630Y11650D02*
G01X13290Y11300D01*
G01X13290Y11300D02*
G01X13300Y8270D01*
G54D35*
G01X13300Y8270D02*
G01X13600Y7970D01*
G01X13600Y7970D02*
G01X13600Y7500D01*
G54D50*
G01X17880Y8260D03*
G54D35*
G01X17880Y8260D02*
G01X18700Y8260D01*
G01X18700Y8260D02*
G01X18700Y8300D01*
G54D50*
G01X13300Y8270D03*
G01X17880Y8260D03*
G54D35*
G01X22000Y7400D02*
G01X21490Y7400D01*
G01X21490Y7400D02*
G01X22530Y7400D01*
G01X22530Y7400D02*
G01X22000Y7400D01*
G01X22000Y7400D02*
G01X22000Y6960D01*
G01X22000Y6960D02*
G01X22500Y6960D01*
G01X22500Y6960D02*
G01X22900Y7360D01*
G54D50*
G01X22900Y7360D03*
G54D35*
G01X18300Y6600D02*
G01X18300Y7110D01*
G01X18300Y7110D02*
G01X18300Y6100D01*
G01X18300Y6100D02*
G01X18300Y6600D01*
G01X18300Y6600D02*
G01X18800Y6600D01*
G01X18800Y6600D02*
G01X18980Y6420D01*
G01X18980Y6420D02*
G01X18980Y4480D01*
G01X18980Y4480D02*
G01X18600Y4100D01*
G54D50*
G01X18600Y4100D03*
G54D35*
G01X18300Y6600D02*
G01X18800Y6600D01*
G01X18800Y6600D02*
G01X18800Y7640D01*
G01X18800Y7640D02*
G01X18700Y7750D01*
G01X18700Y7750D02*
G01X18700Y8300D01*
G01X8500Y12700D02*
G01X9300Y12700D01*
G54D50*
G01X4600Y14100D03*
G54D35*
G01X4600Y14100D02*
G01X4600Y13460D01*
G01X4600Y13460D02*
G01X3950Y12810D01*
G01X3950Y12810D02*
G01X3040Y12810D01*
G01X3040Y12810D02*
G01X2360Y13490D01*
G01X2360Y13490D02*
G01X2360Y14010D01*
G54D50*
G01X2360Y14010D03*
G54D35*
G01X8500Y12700D02*
G01X7100Y14100D01*
G01X7100Y14100D02*
G01X4600Y14100D01*
G54D50*
G01X4600Y14100D03*
G54D35*
G01X5200Y12500D02*
G01X6010Y12500D01*
G54D50*
G01X6010Y12500D03*
G54D35*
G01X18990Y14100D02*
G01X19500Y14100D01*
G01X19500Y14100D02*
G01X19640Y14250D01*
G01X19640Y14250D02*
G01X19640Y15150D01*
G01X19640Y15150D02*
G01X17390Y17400D01*
G01X17390Y17400D02*
G01X15270Y17400D01*
G01X15270Y17400D02*
G01X14770Y16900D01*
G01X14770Y16900D02*
G01X13900Y16900D01*
G01X35000Y10100D02*
G01X34490Y10610D01*
G01X34490Y10610D02*
G01X34000Y10600D01*
G54D50*
G01X8420Y16700D03*
G54D35*
G01X8420Y16700D02*
G01X8020Y16300D01*
G01X8020Y16300D02*
G01X7580Y16300D01*
G01X7580Y16300D02*
G01X7360Y16520D01*
G01X7360Y16520D02*
G01X6950Y16520D01*
G01X6950Y16520D02*
G01X6600Y16160D01*
G01X6600Y16160D02*
G01X6600Y16170D01*
G54D50*
G01X6600Y16170D03*
G01X4580Y12500D03*
G54D35*
G01X4580Y12500D02*
G01X4730Y12900D01*
G01X4730Y12900D02*
G01X5170Y13340D01*
G01X5170Y13340D02*
G01X7340Y13340D01*
G01X7340Y13340D02*
G01X7690Y12990D01*
G01X7690Y12990D02*
G01X7690Y11300D01*
G01X7690Y11300D02*
G01X8330Y11300D01*
G01X8330Y11300D02*
G01X7060Y11300D01*
G01X7060Y11300D02*
G01X7700Y11300D01*
G54D50*
G01X8660Y9700D03*
G54D35*
G01X8660Y9700D02*
G01X8980Y9380D01*
G01X8980Y9380D02*
G01X9510Y9380D01*
G01X9510Y9380D02*
G01X9800Y9090D01*
G01X9800Y9090D02*
G01X9800Y8440D01*
G01X9800Y8440D02*
G01X9800Y9100D01*
G54D50*
G01X12770Y7450D03*
G01X11420Y10370D03*
G54D35*
G01X7700Y9600D02*
G01X7000Y9600D01*
G01X7000Y9600D02*
G01X8020Y9600D01*
G01X8020Y9600D02*
G01X8290Y9330D01*
G01X8290Y9330D02*
G01X8660Y9700D01*
G54D50*
G01X8660Y9700D03*
G01X17020Y7450D03*
G01X12770Y7450D03*
G54D35*
G01X12770Y7450D02*
G01X13390Y6830D01*
G01X13390Y6830D02*
G01X14500Y6830D01*
G01X14500Y6830D02*
G01X14500Y8100D01*
G01X14500Y8100D02*
G01X14490Y7510D01*
G01X14490Y7510D02*
G01X15080Y7500D01*
G01X15080Y7500D02*
G01X14500Y7500D01*
G54D50*
G01X12730Y4100D03*
G01X15000Y3230D03*
G01X17020Y4100D03*
G01X16660Y13520D03*
G01X30790Y17170D03*
G54D35*
G01X30790Y17170D02*
G01X30450Y17510D01*
G01X30450Y17510D02*
G01X30450Y18160D01*
G01X30450Y18160D02*
G01X30140Y18470D01*
G01X30140Y18470D02*
G01X28370Y18470D01*
G01X28370Y18470D02*
G01X27900Y18000D01*
G54D50*
G01X28110Y13360D03*
G01X4100Y8400D03*
G01X8660Y9700D03*
G01X26100Y4450D03*
G54D35*
G01X26100Y4450D02*
G01X26960Y4450D01*
G01X26960Y4450D02*
G01X27440Y4930D01*
G01X27440Y4930D02*
G01X27440Y5290D01*
G01X27440Y5290D02*
G01X27840Y5690D01*
G01X27840Y5690D02*
G01X29430Y5690D01*
G01X29430Y5690D02*
G01X30000Y6260D01*
G01X30000Y6260D02*
G01X29990Y7400D01*
G01X29990Y7400D02*
G01X29350Y7400D01*
G01X29350Y7400D02*
G01X30570Y7400D01*
G01X30570Y7400D02*
G01X30000Y7400D01*
G54D50*
G01X31400Y12420D03*
G54D35*
G01X31400Y12420D02*
G01X31780Y12040D01*
G01X31780Y12040D02*
G01X33350Y12040D01*
G01X33350Y12040D02*
G01X33350Y11270D01*
G01X33350Y11270D02*
G01X34000Y10600D01*
G01X29100Y15900D02*
G01X29100Y15260D01*
G01X29100Y15260D02*
G01X29100Y15880D01*
G01X29100Y15880D02*
G01X28550Y15880D01*
G01X28550Y15880D02*
G01X29100Y15890D01*
G01X29100Y15890D02*
G01X29100Y18470D01*
G01X29100Y18470D02*
G01X28370Y18470D01*
G01X28370Y18470D02*
G01X27900Y18000D01*
G54D50*
G01X26100Y4450D03*
G54D35*
G01X26100Y4450D02*
G01X26960Y4450D01*
G01X26960Y4450D02*
G01X27440Y4930D01*
G01X27440Y4930D02*
G01X27440Y5290D01*
G01X27440Y5290D02*
G01X27840Y5690D01*
G01X27840Y5690D02*
G01X29430Y5690D01*
G01X29430Y5690D02*
G01X30000Y6260D01*
G01X30000Y6260D02*
G01X30000Y7400D01*
G01X34000Y10600D02*
G01X34490Y10610D01*
G01X34490Y10610D02*
G01X34010Y10610D01*
G01X34010Y10610D02*
G01X34010Y10140D01*
G01X34010Y10140D02*
G01X34000Y10020D01*
G01X34000Y10020D02*
G01X34000Y9590D01*
G01X34000Y9590D02*
G01X34470Y9590D01*
G01X34470Y9590D02*
G01X33530Y9600D01*
G01X33530Y9600D02*
G01X34000Y9600D01*
G54D50*
G01X12770Y7450D03*
G54D35*
G01X12770Y7450D02*
G01X13390Y6830D01*
G01X13390Y6830D02*
G01X14500Y6830D01*
G01X14500Y6830D02*
G01X14500Y7500D01*
G54D51*
G01X28600Y6600D02*
G01X29270Y6600D01*
G01X29270Y6600D02*
G01X28600Y6600D01*
G01X28600Y6600D02*
G01X28600Y5690D01*
G54D50*
G01X28600Y5690D03*
G54D35*
G01X17630Y6600D02*
G01X17630Y7110D01*
G01X17630Y7110D02*
G01X17630Y6070D01*
G01X17630Y6070D02*
G01X17630Y6600D01*
G01X17630Y6600D02*
G01X17020Y6600D01*
G01X17020Y6600D02*
G01X17020Y7450D01*
G54D50*
G01X17020Y7450D03*
G54D35*
G01X18700Y9200D02*
G01X18700Y9770D01*
G01X18700Y9770D02*
G01X18700Y9200D01*
G01X18700Y9200D02*
G01X19370Y9200D01*
G01X19370Y9200D02*
G01X17020Y9200D01*
G01X17020Y9200D02*
G01X17020Y7450D01*
G54D50*
G01X17020Y7450D03*
G54D35*
G01X18700Y9200D02*
G01X22000Y9200D01*
G01X22000Y9200D02*
G01X22000Y8110D01*
G01X22000Y8110D02*
G01X21600Y8110D01*
G01X21600Y8110D02*
G01X22640Y8110D01*
G01X22640Y8110D02*
G01X22000Y8110D01*
G01X22000Y8110D02*
G01X22000Y8070D01*
G54D50*
G01X12770Y6640D03*
G01X5810Y6650D03*
G54D35*
G01X5810Y6650D02*
G01X5810Y7140D01*
G01X5810Y7140D02*
G01X4830Y8110D01*
G01X4830Y8110D02*
G01X4830Y10870D01*
G01X4830Y10870D02*
G01X4580Y11120D01*
G01X4580Y11120D02*
G01X4580Y11610D01*
G54D50*
G01X4580Y11610D03*
G54D35*
G01X13900Y13900D02*
G01X13880Y13900D01*
G01X13880Y13900D02*
G01X14470Y13890D01*
G01X14470Y13890D02*
G01X14700Y13650D01*
G01X14700Y13650D02*
G01X14690Y12440D01*
G01X14690Y12440D02*
G01X14430Y12180D01*
G01X14430Y12180D02*
G01X12630Y12180D01*
G01X12630Y12180D02*
G01X12330Y11870D01*
G01X12330Y11870D02*
G01X12330Y8160D01*
G54D50*
G01X12330Y8160D03*
G01X14020Y11010D03*
G54D35*
G01X14020Y11010D02*
G01X14310Y10720D01*
G01X14310Y10720D02*
G01X15340Y10730D01*
G01X15340Y10730D02*
G01X16310Y9760D01*
G01X16310Y9760D02*
G01X16310Y8470D01*
G01X16310Y8470D02*
G01X15430Y7590D01*
G01X15430Y7590D02*
G01X15440Y4450D01*
G01X15440Y4450D02*
G01X14000Y3010D01*
G01X14000Y3010D02*
G01X14000Y1500D01*
G54D50*
G01X15490Y13420D03*
G01X3600Y13420D03*
G54D35*
G01X34000Y11500D02*
G01X34000Y12100D01*
G01X34000Y12100D02*
G01X35000Y12100D01*
G01X35000Y12100D02*
G01X35000Y13000D01*
G01X35000Y13000D02*
G01X36000Y13000D01*
G01X34000Y11500D02*
G01X34000Y11490D01*
G01X34000Y11490D02*
G01X34000Y12270D01*
G01X34000Y12270D02*
G01X33750Y12520D01*
G01X33750Y12520D02*
G01X32920Y13340D01*
G01X32920Y13340D02*
G01X28980Y13340D01*
G01X28980Y13340D02*
G01X28010Y12360D01*
G01X28010Y12360D02*
G01X28010Y12350D01*
G54D50*
G01X28010Y12350D03*
G01X26290Y5240D03*
G54D35*
G01X26290Y5240D02*
G01X26300Y5900D01*
G01X26300Y5900D02*
G01X26640Y6230D01*
G01X26640Y6230D02*
G01X26640Y8040D01*
G01X26640Y8040D02*
G01X27100Y8500D01*
G01X27100Y8500D02*
G01X27100Y9550D01*
G01X27100Y9550D02*
G01X28530Y10980D01*
G01X28530Y10980D02*
G01X28530Y11830D01*
G01X28530Y11830D02*
G01X28000Y12360D01*
G01X28000Y12360D02*
G01X28010Y12350D01*
G01X28010Y12350D02*
G01X28980Y13340D01*
G01X28980Y13340D02*
G01X29460Y13330D01*
G01X29460Y13330D02*
G01X32940Y13330D01*
G01X32940Y13330D02*
G01X34000Y12270D01*
G01X34000Y12270D02*
G01X34000Y11500D01*
G54D50*
G01X6380Y6000D03*
G01X22900Y6000D03*
G01X3010Y14310D03*
G54D35*
G01X3010Y14310D02*
G01X3470Y14780D01*
G01X3470Y14780D02*
G01X8470Y14780D01*
G01X8470Y14780D02*
G01X8900Y14600D01*
G54D50*
G01X8900Y14600D03*
G01X18350Y11800D03*
G01X9740Y11790D03*

G04 Draw Text*

G04 ----------------------- Draw Pilot Holes (scratch)*
%LPC*%
G04 draw pilot holes for part U2*
G04 draw pilot holes for part J3*
G54D36*
G01X27000Y1500D03*
G01X26000Y1500D03*
G01X25000Y1500D03*
G01X24000Y1500D03*
G01X23000Y1500D03*
G01X22000Y1500D03*
G01X21000Y1500D03*
G01X20000Y1500D03*
G01X19000Y1500D03*
G01X18000Y1500D03*
G01X17000Y1500D03*
G01X16000Y1500D03*
G01X15000Y1500D03*
G01X14000Y1500D03*
G01X13000Y1500D03*
G01X12000Y1500D03*
G01X11000Y1500D03*
G01X10000Y1500D03*
G04 draw pilot holes for part R14*
G04 draw pilot holes for part R12*
G04 draw pilot holes for part U1*
G04 draw pilot holes for part R4*
G04 draw pilot holes for part R3*
G04 draw pilot holes for part R2*
G04 draw pilot holes for part R10*
G04 draw pilot holes for part J2*
G01X1500Y11500D03*
G01X1500Y12500D03*
G01X1500Y13500D03*
G01X1500Y14500D03*
G01X1500Y15500D03*
G01X1500Y16500D03*
G01X1500Y17500D03*
G04 draw pilot holes for part J1*
G01X3000Y9800D03*
G01X3000Y10800D03*
G04 draw pilot holes for part R5*
G04 draw pilot holes for part R15*
G04 draw pilot holes for part R16*
G04 draw pilot holes for part R1*
G04 draw pilot holes for part R7*
G04 draw pilot holes for part R6*
G04 draw pilot holes for part R8*
G04 draw pilot holes for part R9*
G04 draw pilot holes for part C6*
G04 draw pilot holes for part C5*
G04 draw pilot holes for part X1*
G01X4700Y6800D03*
G01X2800Y6800D03*
G04 draw pilot holes for part C3*
G04 draw pilot holes for part C4*
G04 draw pilot holes for part C2*
G04 draw pilot holes for part C1*
G04 draw pilot holes for part C7*
G04 draw pilot holes for part D1*
G04 draw pilot holes for part D2*
G04 draw pilot holes for part R11*
G04 draw pilot holes for part R13*
G04 draw pilot holes for part J5*
G01X20900Y15950D03*
G01X16100Y15950D03*
G01X18010Y14100D03*
G01X18990Y14100D03*
G01X18990Y14890D03*
G01X18010Y14890D03*
G04 draw pilot holes for part R17*
G04 draw pilot holes for part R18*
G04 draw pilot holes for part J4*
G01X13900Y12900D03*
G01X13900Y13900D03*
G01X13900Y14900D03*
G01X13900Y15900D03*
G01X13900Y16900D03*
G01X13900Y17900D03*
G04 draw pilot holes for part R27*
G04 draw pilot holes for part C17*
G04 draw pilot holes for part C19*
G04 draw pilot holes for part U5*
G04 draw pilot holes for part L2*
G04 draw pilot holes for part C18*
G01X35000Y6000D03*
G01X35000Y8000D03*
G04 draw pilot holes for part R28*
G04 draw pilot holes for part D5*
G01X32500Y6000D03*
G01X32500Y11000D03*
G04 draw pilot holes for part C16*
G01X27100Y11700D03*
G01X27100Y12700D03*
G04 draw pilot holes for part R30*
G04 draw pilot holes for part R31*
G04 draw pilot holes for part U4*
G04 draw pilot holes for part R24*
G04 draw pilot holes for part R25*
G04 draw pilot holes for part R26*
G04 draw pilot holes for part R21*
G04 draw pilot holes for part C12*
G01X27900Y17000D03*
G01X27900Y18000D03*
G04 draw pilot holes for part L1*
G04 draw pilot holes for part D4*
G01X36000Y13000D03*
G01X36000Y18000D03*
G04 draw pilot holes for part C13*
G01X35000Y12100D03*
G01X35000Y10100D03*
G04 draw pilot holes for part C14*
G04 draw pilot holes for part R23*
G04 draw pilot holes for part C11*
G04 draw pilot holes for part R22*
G04 draw pilot holes for part R29*
G04 draw pilot holes for part C20*
G04 draw pilot holes for part C15*
G04 draw pilot holes for part F1*
G04 draw pilot holes for part C8*
G01X24900Y10300D03*
G01X24900Y11300D03*
G04 draw pilot holes for part C10*
G01X24700Y4000D03*
G01X23700Y4000D03*
G04 draw pilot holes for part C9*
G04 draw pilot holes for part C21*
G04 draw pilot holes for part R32*
G04 draw pilot holes for part C24*
G04 draw pilot holes for part C25*
G04 draw pilot holes for part C23*
G04 draw pilot holes for part C22*
G04 draw pilot holes for part L3*
G04 draw pilot holes for part L4*
G04 draw pilot holes for part R34*
G04 draw pilot holes for part R33*
G04 draw pilot holes for part R35*

G04 Draw pilot holes for vias*
G01X6550Y8170D03*
G01X21090Y8170D03*
G01X7940Y14130D03*
G01X7940Y17350D03*
G01X14250Y8750D03*
G01X15740Y8750D03*
G01X30000Y16970D03*
G01X14250Y9430D03*
G01X15650Y9430D03*
G01X19100Y11160D03*
G01X9080Y11160D03*
G01X14250Y10110D03*
G01X15220Y10110D03*
G01X9100Y8920D03*
G01X10890Y17570D03*
G01X11290Y8900D03*
G01X6760Y12730D03*
G01X19050Y11950D03*
G01X17850Y10250D03*
G01X16550Y10250D03*
G01X12020Y6620D03*
G01X6010Y11450D03*
G01X30320Y12200D03*
G01X29980Y11160D03*
G01X29980Y11160D03*
G01X29980Y11160D03*
G01X12090Y7460D03*
G01X26000Y2370D03*
G01X8960Y10390D03*
G01X9680Y10780D03*
G01X9680Y10780D03*
G01X8960Y10390D03*
G01X12500Y14400D03*
G01X14890Y14400D03*
G01X9590Y14600D03*
G01X9590Y14600D03*
G01X11070Y16900D03*
G01X10700Y9230D03*
G01X10340Y14600D03*
G01X10340Y14600D03*
G01X20000Y4120D03*
G01X18600Y4110D03*
G01X22900Y7360D03*
G01X20000Y4120D03*
G01X9900Y17280D03*
G01X4600Y14100D03*
G01X13300Y8270D03*
G01X13300Y8270D03*
G01X17880Y8260D03*
G01X13300Y8270D03*
G01X17880Y8260D03*
G01X22900Y7360D03*
G01X18600Y4100D03*
G01X4600Y14100D03*
G01X2360Y14010D03*
G01X4600Y14100D03*
G01X6010Y12500D03*
G01X8420Y16700D03*
G01X6600Y16170D03*
G01X4580Y12500D03*
G01X8660Y9700D03*
G01X12770Y7450D03*
G01X11420Y10370D03*
G01X8660Y9700D03*
G01X17020Y7450D03*
G01X12770Y7450D03*
G01X12730Y4100D03*
G01X15000Y3230D03*
G01X17020Y4100D03*
G01X16660Y13520D03*
G01X30790Y17170D03*
G01X28110Y13360D03*
G01X4100Y8400D03*
G01X8660Y9700D03*
G01X26100Y4450D03*
G01X31400Y12420D03*
G01X26100Y4450D03*
G01X12770Y7450D03*
G01X28600Y5690D03*
G01X17020Y7450D03*
G01X17020Y7450D03*
G01X12770Y6640D03*
G01X5810Y6650D03*
G01X4580Y11610D03*
G01X12330Y8160D03*
G01X14020Y11010D03*
G01X15490Y13420D03*
G01X3600Y13420D03*
G01X28010Y12350D03*
G01X26290Y5240D03*
G01X6380Y6000D03*
G01X22900Y6000D03*
G01X3010Y14310D03*
G01X8900Y14600D03*
G01X18350Y11800D03*
G01X9740Y11790D03*
M00*
M02*
