G04 FreePCB version 1.359*
G04 C:\Users\pmesser\_Paul\Design\DSOscope\PCB\A03\CAM_DSOscope_CPUBrd_A03\top_copper.grb*
G04 top copper layer *
G04 Scale: 100 percent, Rotated: No, Reflected: No *
%FSLAX24Y24*%
%MOIN*%
%LN top copper *%
G04 Rounded Rectangle Macro, params: W/2, H/2, R *
%AMRNDREC*
21,1,$1+$1,$2+$2-$3-$3,0,0,0*
21,1,$1+$1-$3-$3,$2+$2,0,0,0*
1,1,$3+$3,$1-$3,$2-$3*
1,1,$3+$3,$3-$1,$2-$3*
1,1,$3+$3,$1-$3,$3-$2*
1,1,$3+$3,$3-$1,$3-$2*%
G04 Rectangular Thermal Macro, params: W/2, H/2, T/2 *
%AMRECTHERM*
$4=$3/2*
21,1,$1-$3,$2-$3,0-$1/2-$4,0-$2/2-$4,0*
21,1,$1-$3,$2-$3,0-$1/2-$4,$2/2+$4,0*
21,1,$1-$3,$2-$3,$1/2+$4,0-$2/2-$4,0*
21,1,$1-$3,$2-$3,$1/2+$4,$2/2+$4,0*%
%ADD10C,0.005000*%
%ADD11R,0.180000X0.050000*%
%ADD12R,0.050000X0.180000*%
%ADD13R,0.115000X0.115000*%
%ADD14C,0.115000*%
%ADD15R,0.080000X0.080000*%
%ADD16R,0.045000X0.120000*%
%ADD17C,0.155000*%
%ADD18R,0.073000X0.077000*%
%ADD19R,0.130000X0.105000*%
%ADD20R,0.105000X0.075000*%
%ADD21C,0.230000*%
%ADD22R,0.110000X0.090000*%
%ADD23RNDREC,0.055000X0.045000X0.035000*%
%ADD24R,0.115000X0.060000*%
%ADD25RNDREC,0.095000X0.165000X0.055000*%
%ADD26R,0.130000X0.130000*%
%ADD27C,0.130000*%
%ADD28R,0.060000X0.115000*%
%ADD29RNDREC,0.165000X0.095000X0.055000*%
%AMTHERM30*7,0,0,0.130000,0.100000,0.020000,45.0*%
%ADD30THERM30*%
%ADD31C,0.001000*%
%ADD32R,0.110000X0.180000*%
%ADD33R,0.145000X0.090000*%
%ADD34C,0.045000*%
%ADD35C,0.080000*%
%ADD36C,0.042000*%
%ADD37C,0.055000*%
%ADD38C,0.065000*%
%AMTHERM39*7,0,0,0.080000,0.050000,0.020000,45.0*%
%ADD39THERM39*%
%ADD40R,0.150000X0.020000*%
%ADD41R,0.020000X0.150000*%
%ADD42R,0.085000X0.085000*%
%ADD43C,0.085000*%
%ADD44R,0.050000X0.050000*%
%ADD45R,0.015000X0.090000*%
%ADD46C,0.125000*%
%ADD47R,0.043000X0.047000*%
%ADD48R,0.100000X0.075000*%
%ADD49R,0.075000X0.045000*%
%ADD50C,0.200000*%
%ADD51R,0.080000X0.060000*%
%ADD52RNDREC,0.040000X0.030000X0.020000*%
%ADD53R,0.085000X0.030000*%
%ADD54RNDREC,0.080000X0.150000X0.040000*%
%ADD55R,0.100000X0.100000*%
%ADD56C,0.100000*%
%ADD57R,0.030000X0.085000*%
%ADD58RNDREC,0.150000X0.080000X0.040000*%
%ADD59R,0.080000X0.150000*%
%ADD60C,0.015000*%
%ADD61C,0.050000*%
%ADD62C,0.012000*%
%ADD63C,0.025000*%
%ADD64C,0.035000*%
%ADD65C,0.040000*%
%ADD66C,0.010000*%
G90*
G70D02*

G04 Step and Repeat for panelization *

G04 ----------------------- Draw board outline (positive)*
%LPD*%
G54D10*
G01X0Y5000D02*
G01X0Y16500D01*
G04 end of side 1*
G01X0Y19000D01*
G04 end of side 2*
G01X37000Y19000D01*
G04 end of side 3*
G01X37000Y5000D01*
G04 end of side 4*
G01X28500Y5000D01*
G04 end of side 5*
G01X28500Y0D01*
G04 end of side 6*
G01X8500Y0D01*
G04 end of side 7*
G01X8500Y5000D01*
G04 end of side 8*
G01X0Y5000D01*
G01X8500Y0D02*
G01X0Y0D01*
G04 end of side 1*
G01X0Y5000D01*
G04 end of side 2*
G01X8500Y5000D01*
G04 end of side 3*
G01X8500Y0D01*
G01X28500Y0D02*
G01X37000Y0D01*
G04 end of side 1*
G01X37000Y5000D01*
G04 end of side 2*
G01X28500Y5000D01*
G04 end of side 3*
G01X28500Y0D01*

G04 ----------------------- Draw copper area (positive)*
G36*
G01X26020Y8900D02*
G01X26420Y8900D01*
G01X26420Y6720D01*
G01X25460Y6180D01*
G01X23420Y6180D01*
G01X23420Y6700D01*
G01X22650Y6700D01*
G01X22650Y7670D01*
G01X23490Y7670D01*
G01X23490Y9490D01*
G01X26020Y9490D01*
G01X26020Y8900D01*
G37*

G04 ----------------------- Draw copper area (positive)*
G36*
G01X11770Y10460D02*
G01X11770Y10030D01*
G01X11620Y9880D01*
G01X11620Y9320D01*
G01X11180Y9320D01*
G01X10870Y9630D01*
G01X10430Y9630D01*
G01X9990Y9190D01*
G01X9490Y9190D01*
G01X9330Y9350D01*
G01X8270Y9350D01*
G01X8270Y10000D01*
G01X9470Y10000D01*
G01X9890Y10420D01*
G01X10850Y10420D01*
G01X11140Y10710D01*
G01X11520Y10710D01*
G01X11770Y10460D01*
G37*

G04 ----------------------- Draw copper area (positive)*
G36*
G01X36750Y13920D02*
G01X35470Y13920D01*
G01X34150Y12600D01*
G01X34150Y11600D01*
G01X34500Y11240D01*
G01X36750Y11240D01*
G01X36750Y9320D01*
G01X32680Y9320D01*
G01X32680Y10030D01*
G01X33470Y10820D01*
G01X33470Y14320D01*
G01X34770Y14320D01*
G01X35310Y14860D01*
G01X35310Y16300D01*
G01X36750Y16300D01*
G01X36750Y13920D01*
G37*

G04 ----------------------- Draw copper area (positive)*
G36*
G01X26050Y5640D02*
G01X25850Y5440D01*
G01X25850Y4910D01*
G01X26020Y4740D01*
G01X26350Y4740D01*
G01X26350Y4410D01*
G01X26350Y3780D01*
G01X25420Y3780D01*
G01X25420Y4420D01*
G01X25180Y4660D01*
G01X24190Y4660D01*
G01X23980Y4620D01*
G01X23420Y4620D01*
G01X23420Y5790D01*
G01X26050Y5790D01*
G01X26050Y5640D01*
G37*

G04 -------------------- Draw copper area clearances (negative)*
%LPC*%

G04 Draw clearances for pads*
G54D11*
G01X12725Y8800D03*
G01X12725Y9115D03*
G01X12725Y9430D03*
G01X12725Y9745D03*
G01X12725Y10060D03*
G01X12725Y10375D03*
G01X12725Y10690D03*
G01X12725Y11005D03*
G01X12725Y11320D03*
G01X12725Y11635D03*
G01X12725Y11950D03*
G54D12*
G01X11600Y13075D03*
G01X11285Y13075D03*
G01X10970Y13075D03*
G01X10655Y13075D03*
G01X10340Y13075D03*
G01X10025Y13075D03*
G01X9710Y13075D03*
G01X9395Y13075D03*
G01X9080Y13075D03*
G01X8765Y13075D03*
G01X8450Y13075D03*
G54D11*
G01X7325Y11950D03*
G01X7325Y11635D03*
G01X7325Y11320D03*
G01X7325Y11005D03*
G01X7325Y10690D03*
G01X7325Y10375D03*
G01X7325Y10060D03*
G01X7325Y9745D03*
G01X7325Y9430D03*
G01X7325Y9115D03*
G01X7325Y8800D03*
G54D12*
G01X8450Y7675D03*
G01X8765Y7675D03*
G01X9080Y7675D03*
G01X9395Y7675D03*
G01X9710Y7675D03*
G01X10025Y7675D03*
G01X10340Y7675D03*
G01X10655Y7675D03*
G01X10970Y7675D03*
G01X11285Y7675D03*
G01X11600Y7675D03*
G54D13*
G01X27000Y1500D03*
G54D14*
G01X26000Y1500D03*
G01X25000Y1500D03*
G01X24000Y1500D03*
G01X23000Y1500D03*
G01X22000Y1500D03*
G01X21000Y1500D03*
G01X20000Y1500D03*
G01X19000Y1500D03*
G01X18000Y1500D03*
G01X17000Y1500D03*
G01X16000Y1500D03*
G01X15000Y1500D03*
G01X14000Y1500D03*
G01X13000Y1500D03*
G01X12000Y1500D03*
G01X11000Y1500D03*
G01X10000Y1500D03*
G54D15*
G01X7300Y13500D03*
G01X6400Y13500D03*
G54D16*
G01X13200Y4100D03*
G01X13460Y4100D03*
G01X13710Y4100D03*
G01X13970Y4100D03*
G01X14220Y4100D03*
G01X14480Y4100D03*
G01X14740Y4100D03*
G01X14990Y4100D03*
G01X15250Y4100D03*
G01X15500Y4100D03*
G01X15760Y4100D03*
G01X16020Y4100D03*
G01X16270Y4100D03*
G01X16530Y4100D03*
G01X13200Y7450D03*
G01X13456Y7450D03*
G01X13710Y7450D03*
G01X13968Y7450D03*
G01X14224Y7450D03*
G01X14480Y7450D03*
G01X14736Y7450D03*
G01X14992Y7450D03*
G01X15248Y7450D03*
G01X15504Y7450D03*
G01X15760Y7450D03*
G01X16016Y7450D03*
G01X16272Y7450D03*
G01X16528Y7450D03*
G54D15*
G01X22900Y8100D03*
G01X22000Y8100D03*
G01X7700Y7200D03*
G01X6800Y7200D03*
G01X10000Y4100D03*
G01X10000Y3200D03*
G01X7400Y15600D03*
G01X8300Y15600D03*
G54D13*
G01X1500Y11500D03*
G54D14*
G01X1500Y12500D03*
G01X1500Y13500D03*
G01X1500Y14500D03*
G01X1500Y15500D03*
G01X1500Y16500D03*
G01X1500Y17500D03*
G54D13*
G01X3000Y9800D03*
G54D14*
G01X3000Y10800D03*
G54D15*
G01X12500Y15500D03*
G01X11600Y15500D03*
G01X18600Y5000D03*
G01X18600Y5900D03*
G01X20000Y5000D03*
G01X20000Y5900D03*
G01X5200Y11600D03*
G01X5200Y12500D03*
G01X17200Y12800D03*
G01X16300Y12800D03*
G01X15900Y12000D03*
G01X16800Y12000D03*
G01X9100Y16500D03*
G01X9100Y15600D03*
G01X9900Y16500D03*
G01X9900Y15600D03*
G54D17*
G01X4700Y6800D03*
G01X2800Y6800D03*
G54D18*
G01X5400Y8400D03*
G01X4730Y8400D03*
G01X2800Y8400D03*
G01X3470Y8400D03*
G54D15*
G01X5700Y15600D03*
G01X6600Y15600D03*
G54D19*
G01X2900Y16700D03*
G01X4900Y16700D03*
G54D20*
G01X5900Y16700D03*
G01X7650Y16700D03*
G54D15*
G01X4000Y15600D03*
G01X4900Y15600D03*
G01X4000Y14800D03*
G01X4900Y14800D03*
G54D21*
G01X20900Y15950D03*
G01X16100Y15950D03*
G54D22*
G01X18010Y14100D03*
G54D23*
G01X18990Y14100D03*
G01X18990Y14890D03*
G01X18010Y14890D03*
G54D15*
G01X11700Y16900D03*
G01X12600Y16900D03*
G01X11700Y17900D03*
G01X12600Y17900D03*
G54D13*
G01X13900Y12900D03*
G54D14*
G01X13900Y13900D03*
G01X13900Y14900D03*
G01X13900Y15900D03*
G01X13900Y16900D03*
G01X13900Y17900D03*
G54D15*
G01X26700Y10400D03*
G01X27600Y10400D03*
G01X32300Y12200D03*
G01X32300Y13100D03*
G54D24*
G01X31100Y9800D03*
G01X31100Y10300D03*
G01X31100Y10800D03*
G01X31100Y11300D03*
G01X28900Y9800D03*
G01X28900Y10300D03*
G01X28900Y10800D03*
G01X28900Y11300D03*
G54D25*
G01X31000Y7500D03*
G01X28600Y7500D03*
G54D26*
G01X35000Y6000D03*
G54D27*
G01X35000Y8000D03*
G54D15*
G01X26700Y9600D03*
G01X27600Y9600D03*
G54D26*
G01X32500Y6000D03*
G54D27*
G01X32500Y11000D03*
G54D13*
G01X27100Y11700D03*
G54D14*
G01X27100Y12700D03*
G54D15*
G01X28800Y12200D03*
G01X29700Y12200D03*
G01X30500Y13100D03*
G01X31400Y13100D03*
G54D28*
G01X31000Y18000D03*
G01X30500Y18000D03*
G01X30000Y18000D03*
G01X29500Y18000D03*
G01X31000Y15800D03*
G01X30500Y15800D03*
G01X30000Y15800D03*
G01X29500Y15800D03*
G54D15*
G01X27600Y15800D03*
G01X27600Y14900D03*
G01X28400Y15800D03*
G01X28400Y14900D03*
G01X28400Y14100D03*
G01X27500Y14100D03*
G01X29200Y14800D03*
G01X29200Y13900D03*
G54D13*
G01X27900Y17000D03*
G54D14*
G01X27900Y18000D03*
G54D29*
G01X33400Y15500D03*
G01X33400Y17900D03*
G54D26*
G01X36000Y13000D03*
G54D27*
G01X36000Y18000D03*
G54D26*
G01X35000Y12100D03*
G54D30*
G01X35000Y10100D03*
G54D31*
G54D15*
G01X31000Y13900D03*
G01X31000Y14800D03*
G01X30000Y14800D03*
G01X30000Y13900D03*
G01X29700Y13100D03*
G01X28800Y13100D03*
G01X27100Y5100D03*
G01X27100Y6000D03*
G54D32*
G01X21100Y11300D03*
G01X23100Y11300D03*
G54D13*
G01X24900Y10300D03*
G54D14*
G01X24900Y11300D03*
G54D13*
G01X24700Y4000D03*
G54D14*
G01X23700Y4000D03*
G54D15*
G01X27100Y7000D03*
G01X27100Y7900D03*
G01X17600Y11100D03*
G01X17600Y12000D03*
G01X26100Y3100D03*
G01X26100Y4000D03*
G54D33*
G01X27200Y4200D03*
G01X27200Y2850D03*
G54D15*
G01X7300Y14300D03*
G01X6400Y14300D03*

G04 Draw clearances for traces*
G54D34*
G01X22000Y8100D02*
G01X22000Y7520D01*
G01X22000Y7520D02*
G01X22340Y7180D01*
G01X22340Y7180D02*
G01X22340Y3220D01*
G01X22340Y3220D02*
G01X23000Y2560D01*
G01X23000Y2560D02*
G01X23000Y1490D01*
G01X23000Y1490D02*
G01X23000Y1500D01*
G01X7325Y9115D02*
G01X6405Y9115D01*
G01X6405Y9115D02*
G01X6140Y8850D01*
G01X6140Y8850D02*
G01X6140Y8580D01*
G54D35*
G01X6550Y8170D03*
G54D34*
G01X6140Y8580D02*
G01X6550Y8170D01*
G54D35*
G01X21090Y8170D03*
G54D34*
G01X21090Y8170D02*
G01X21990Y8170D01*
G01X21990Y8170D02*
G01X22000Y8100D01*
G01X10655Y7675D02*
G01X10655Y6735D01*
G01X10655Y6735D02*
G01X11630Y5760D01*
G01X11630Y5760D02*
G01X15350Y5760D01*
G01X15350Y5760D02*
G01X15760Y5350D01*
G01X15760Y5350D02*
G01X15760Y4750D01*
G54D36*
G01X15760Y4750D02*
G01X15760Y4100D01*
G54D34*
G01X8450Y13075D02*
G01X8065Y13075D01*
G01X8065Y13075D02*
G01X8060Y13070D01*
G01X8060Y13070D02*
G01X7940Y13190D01*
G01X7940Y13190D02*
G01X7940Y14130D01*
G01X7940Y14130D02*
G01X7700Y14300D01*
G01X7700Y14300D02*
G01X7300Y14300D01*
G01X7300Y14300D02*
G01X7700Y14300D01*
G54D35*
G01X7940Y14130D03*
G54D34*
G01X7700Y14300D02*
G01X7940Y14130D01*
G54D35*
G01X7940Y17350D03*
G54D34*
G01X12725Y9115D02*
G01X13650Y9110D01*
G01X13650Y9110D02*
G01X13850Y8750D01*
G54D35*
G01X14250Y8750D03*
G54D34*
G01X13850Y8750D02*
G01X14250Y8750D01*
G54D35*
G01X15740Y8750D03*
G54D34*
G01X15740Y8750D02*
G01X15510Y8510D01*
G01X15510Y8510D02*
G01X15510Y7460D01*
G01X15510Y7460D02*
G01X15504Y7450D01*
G01X4900Y15600D02*
G01X4900Y15590D01*
G01X4900Y15590D02*
G01X4900Y16700D01*
G01X5900Y16700D02*
G01X4890Y16700D01*
G01X4890Y16700D02*
G01X4900Y16700D01*
G01X4900Y15600D02*
G01X5700Y15600D01*
G01X4900Y14800D02*
G01X4900Y14760D01*
G01X4900Y14760D02*
G01X4900Y15600D01*
G54D35*
G01X30000Y16970D03*
G54D34*
G01X30000Y16970D02*
G01X30000Y18000D01*
G54D35*
G01X14250Y9430D03*
G54D34*
G01X12725Y9430D02*
G01X14250Y9430D01*
G54D35*
G01X15650Y9430D03*
G54D34*
G01X15650Y9430D02*
G01X15250Y9020D01*
G01X15250Y9020D02*
G01X15250Y7460D01*
G01X15250Y7460D02*
G01X15248Y7450D01*
G01X31100Y10800D02*
G01X31640Y10800D01*
G01X31640Y10800D02*
G01X31780Y10940D01*
G01X31780Y10940D02*
G01X31780Y11680D01*
G01X31780Y11680D02*
G01X32300Y12200D01*
G01X20000Y5900D02*
G01X20660Y5900D01*
G01X20660Y5900D02*
G01X21000Y5560D01*
G01X21000Y5560D02*
G01X21000Y1500D01*
G01X20000Y5900D02*
G01X20000Y9670D01*
G01X20000Y9670D02*
G01X19100Y10570D01*
G54D35*
G01X19100Y11160D03*
G54D34*
G01X19100Y10570D02*
G01X19100Y11160D01*
G54D35*
G01X9080Y11160D03*
G54D34*
G01X9080Y11160D02*
G01X9080Y13075D01*
G01X12725Y9745D02*
G01X13850Y9740D01*
G54D35*
G01X14250Y10110D03*
G54D34*
G01X13850Y9740D02*
G01X14250Y10110D01*
G54D35*
G01X15220Y10110D03*
G54D34*
G01X15220Y10110D02*
G01X15220Y9660D01*
G01X15220Y9660D02*
G01X14990Y9360D01*
G01X14990Y9360D02*
G01X14990Y7490D01*
G01X14990Y7490D02*
G01X14992Y7450D01*
G01X17600Y12000D02*
G01X18010Y12410D01*
G01X18010Y12410D02*
G01X18010Y12750D01*
G01X18010Y12750D02*
G01X18300Y13040D01*
G01X18300Y13040D02*
G01X18010Y13330D01*
G01X18010Y13330D02*
G01X18010Y14110D01*
G01X18010Y14110D02*
G01X18010Y14100D01*
G54D35*
G01X21100Y11300D02*
G01X21100Y12530D01*
G01X21100Y12530D02*
G01X20620Y13010D01*
G01X20620Y13010D02*
G01X18340Y13010D01*
G01X18340Y13010D02*
G01X18010Y13340D01*
G01X18010Y13340D02*
G01X18010Y14100D01*
G54D34*
G01X10000Y4100D02*
G01X10000Y5260D01*
G01X10000Y5260D02*
G01X9080Y6180D01*
G01X9080Y6180D02*
G01X9080Y7675D01*
G01X31000Y7500D02*
G01X30980Y8140D01*
G54D37*
G01X30980Y8140D02*
G01X32090Y9250D01*
G01X32090Y9250D02*
G01X32090Y9940D01*
G01X32090Y9940D02*
G01X31730Y10300D01*
G01X31730Y10300D02*
G01X31100Y10300D01*
G01X32500Y6000D02*
G01X31900Y6000D01*
G01X31900Y6000D02*
G01X31000Y6900D01*
G54D34*
G01X31000Y6900D02*
G01X31000Y7500D01*
G01X12725Y10060D02*
G01X13640Y10060D01*
G01X13640Y10060D02*
G01X13970Y10580D01*
G01X13970Y10580D02*
G01X14540Y10580D01*
G01X14540Y10580D02*
G01X14730Y10390D01*
G01X14730Y10390D02*
G01X14730Y7480D01*
G01X14730Y7480D02*
G01X14736Y7450D01*
G01X15760Y7450D02*
G01X15760Y8090D01*
G01X15760Y8090D02*
G01X16210Y8540D01*
G01X16210Y8540D02*
G01X16210Y9530D01*
G01X16210Y9530D02*
G01X15720Y10020D01*
G01X15720Y10020D02*
G01X15720Y10300D01*
G01X15720Y10300D02*
G01X15440Y10580D01*
G01X15440Y10580D02*
G01X15210Y10580D01*
G01X15210Y10580D02*
G01X14290Y11500D01*
G01X14290Y11500D02*
G01X13910Y11500D01*
G01X13910Y11500D02*
G01X13660Y11320D01*
G01X13660Y11320D02*
G01X12725Y11320D01*
G54D35*
G01X9100Y8920D03*
G54D34*
G01X9100Y8920D02*
G01X9400Y8620D01*
G01X9400Y8620D02*
G01X9400Y7680D01*
G01X9400Y7680D02*
G01X9395Y7675D01*
G01X28800Y12200D02*
G01X28800Y13100D01*
G01X11700Y17900D02*
G01X11210Y17890D01*
G54D35*
G01X10890Y17570D03*
G54D34*
G01X11210Y17890D02*
G01X10890Y17570D01*
G54D35*
G01X11290Y8900D03*
G54D34*
G01X11290Y8900D02*
G01X11285Y8895D01*
G01X11285Y8895D02*
G01X11285Y7675D01*
G01X6400Y13500D02*
G01X6400Y13090D01*
G54D35*
G01X6760Y12730D03*
G54D34*
G01X6400Y13090D02*
G01X6760Y12730D01*
G54D35*
G01X19050Y11950D03*
G54D34*
G01X19050Y11950D02*
G01X19600Y11950D01*
G01X19600Y11950D02*
G01X19900Y11650D01*
G01X19900Y11650D02*
G01X19900Y10530D01*
G01X19900Y10530D02*
G01X20530Y9900D01*
G01X20530Y9900D02*
G01X20530Y7240D01*
G01X20530Y7240D02*
G01X21670Y6100D01*
G01X21670Y6100D02*
G01X21670Y2910D01*
G01X21670Y2910D02*
G01X22000Y2580D01*
G01X22000Y2580D02*
G01X22000Y1500D01*
G54D36*
G01X14224Y7450D02*
G01X14224Y6874D01*
G54D34*
G01X14224Y6874D02*
G01X14220Y6870D01*
G01X14220Y6870D02*
G01X14220Y6680D01*
G01X14220Y6680D02*
G01X14500Y6400D01*
G01X14500Y6400D02*
G01X17670Y6410D01*
G01X17670Y6410D02*
G01X18010Y6740D01*
G01X18010Y6740D02*
G01X18410Y6750D01*
G01X18410Y6750D02*
G01X19030Y7370D01*
G01X19030Y7370D02*
G01X19050Y9050D01*
G54D35*
G01X17850Y10250D03*
G54D34*
G01X19050Y9050D02*
G01X17850Y10250D01*
G54D35*
G01X16550Y10250D03*
G54D34*
G01X16550Y10250D02*
G01X15810Y10980D01*
G01X15810Y10980D02*
G01X15410Y10980D01*
G01X15410Y10980D02*
G01X14460Y11930D01*
G01X14460Y11930D02*
G01X13900Y11930D01*
G01X13900Y11930D02*
G01X13620Y11640D01*
G01X13620Y11640D02*
G01X13595Y11635D01*
G01X13595Y11635D02*
G01X12725Y11635D01*
G54D36*
G01X16020Y4100D02*
G01X16020Y4750D01*
G54D34*
G01X16020Y4750D02*
G01X16020Y5550D01*
G01X16020Y5550D02*
G01X15500Y6070D01*
G01X15500Y6070D02*
G01X12570Y6070D01*
G54D35*
G01X12020Y6620D03*
G54D34*
G01X12570Y6070D02*
G01X12020Y6620D01*
G54D35*
G01X6010Y11450D03*
G54D34*
G01X6010Y11450D02*
G01X6330Y11320D01*
G01X6330Y11320D02*
G01X7325Y11320D01*
G54D31*
G54D38*
G01X32990Y12860D02*
G01X32760Y13090D01*
G01X32760Y13090D02*
G01X32290Y13100D01*
G54D34*
G01X32290Y13100D02*
G01X32300Y13100D01*
G54D35*
G01X30320Y12200D03*
G54D31*
G54D35*
G01X29980Y11160D03*
G54D31*
G54D35*
G01X29980Y11160D03*
G54D31*
G54D35*
G01X29980Y11160D03*
G54D31*
G54D35*
G01X12090Y7460D03*
G54D34*
G01X12090Y7460D02*
G01X11840Y7670D01*
G01X11840Y7670D02*
G01X11600Y7675D01*
G54D35*
G01X26000Y2370D03*
G01X26000Y2370D02*
G01X26000Y1500D01*
G54D36*
G01X13970Y4100D02*
G01X13970Y3310D01*
G01X13970Y3310D02*
G01X13850Y3190D01*
G54D34*
G01X13850Y3190D02*
G01X12380Y3190D01*
G01X12380Y3190D02*
G01X12000Y2810D01*
G01X12000Y2810D02*
G01X12000Y1500D01*
G54D35*
G01X8960Y10390D03*
G54D38*
G01X8960Y10390D02*
G01X9290Y10390D01*
G54D35*
G01X9680Y10780D03*
G54D38*
G01X9290Y10390D02*
G01X9680Y10780D01*
G54D34*
G01X12725Y10690D02*
G01X12720Y10680D01*
G01X12720Y10680D02*
G01X11870Y10680D01*
G01X11870Y10680D02*
G01X11590Y10940D01*
G01X11590Y10940D02*
G01X11100Y10940D01*
G01X11100Y10940D02*
G01X10940Y10780D01*
G01X10940Y10780D02*
G01X10730Y10790D01*
G54D35*
G01X9680Y10780D03*
G54D38*
G01X10730Y10790D02*
G01X9680Y10780D01*
G54D35*
G01X3000Y10800D02*
G01X3740Y10800D01*
G01X3740Y10800D02*
G01X4320Y10230D01*
G01X4320Y10230D02*
G01X5680Y10230D01*
G54D34*
G01X5680Y10230D02*
G01X6110Y10220D01*
G01X6110Y10220D02*
G01X6270Y10370D01*
G01X6270Y10370D02*
G01X7325Y10375D01*
G54D35*
G01X8960Y10390D03*
G54D34*
G01X8960Y10390D02*
G01X8030Y10390D01*
G01X8030Y10390D02*
G01X7325Y10375D01*
G01X9900Y15600D02*
G01X10600Y15600D01*
G01X10600Y15600D02*
G01X11220Y14980D01*
G01X11220Y14980D02*
G01X11220Y14230D01*
G01X11220Y14230D02*
G01X10970Y13970D01*
G01X10970Y13970D02*
G01X10970Y13075D01*
G01X12500Y15500D02*
G01X12500Y14350D01*
G54D35*
G01X12500Y14400D03*
G54D34*
G01X12500Y14350D02*
G01X12500Y14400D01*
G54D35*
G01X14890Y14400D03*
G54D34*
G01X14890Y14400D02*
G01X14890Y12340D01*
G01X14890Y12340D02*
G01X15280Y11960D01*
G01X15280Y11960D02*
G01X15280Y11590D01*
G01X15280Y11590D02*
G01X15530Y11350D01*
G01X15530Y11350D02*
G01X16250Y11350D01*
G01X16250Y11350D02*
G01X17100Y10500D01*
G01X17100Y10500D02*
G01X17100Y9900D01*
G01X17100Y9900D02*
G01X18600Y8400D01*
G01X18600Y8400D02*
G01X18610Y7500D01*
G01X18610Y7500D02*
G01X18270Y7170D01*
G01X18270Y7170D02*
G01X17870Y7170D01*
G01X17870Y7170D02*
G01X17400Y6690D01*
G01X17400Y6690D02*
G01X14680Y6700D01*
G01X14680Y6700D02*
G01X14480Y6900D01*
G54D36*
G01X14480Y6900D02*
G01X14480Y7450D01*
G54D34*
G01X28400Y15800D02*
G01X27590Y15800D01*
G01X27590Y15800D02*
G01X27600Y15800D01*
G01X28400Y15800D02*
G01X29500Y15800D01*
G01X10025Y13075D02*
G01X10025Y14165D01*
G54D35*
G01X9590Y14600D03*
G54D34*
G01X10025Y14165D02*
G01X9590Y14600D01*
G01X10025Y13075D02*
G01X10025Y14165D01*
G54D35*
G01X9590Y14600D03*
G54D34*
G01X10025Y14165D02*
G01X9590Y14600D01*
G54D35*
G01X11070Y16900D03*
G54D34*
G01X11700Y16900D02*
G01X11070Y16900D01*
G54D35*
G01X10700Y9230D03*
G54D34*
G01X10700Y9230D02*
G01X10700Y8820D01*
G01X10700Y8820D02*
G01X10970Y8560D01*
G01X10970Y8560D02*
G01X10970Y7675D01*
G01X9100Y15600D02*
G01X9100Y15230D01*
G01X9100Y15230D02*
G01X9240Y15090D01*
G01X9240Y15090D02*
G01X10590Y15090D01*
G01X10590Y15090D02*
G01X10900Y14780D01*
G01X10900Y14780D02*
G01X10900Y14370D01*
G01X10900Y14370D02*
G01X10660Y14120D01*
G01X10660Y14120D02*
G01X10655Y13075D01*
G01X16800Y12000D02*
G01X16810Y12000D01*
G01X16810Y12000D02*
G01X17200Y12390D01*
G01X17200Y12390D02*
G01X17200Y12800D01*
G01X17600Y11100D02*
G01X17100Y11100D01*
G01X17100Y11100D02*
G01X16800Y11400D01*
G01X16800Y11400D02*
G01X16800Y12000D01*
G01X33400Y15500D02*
G01X32720Y15490D01*
G54D37*
G01X32720Y15490D02*
G01X31560Y16650D01*
G01X31560Y16650D02*
G01X30730Y16650D01*
G01X30730Y16650D02*
G01X30500Y16420D01*
G01X30500Y16420D02*
G01X30500Y15800D01*
G54D34*
G01X31000Y13900D02*
G01X30960Y13900D01*
G54D37*
G01X30960Y13900D02*
G01X30500Y13900D01*
G01X30500Y13900D02*
G01X30500Y14480D01*
G54D34*
G01X30500Y14480D02*
G01X30500Y15120D01*
G54D37*
G01X30500Y15120D02*
G01X30500Y15800D01*
G01X29200Y13900D02*
G01X30020Y13900D01*
G54D34*
G01X30020Y13900D02*
G01X30000Y13900D01*
G01X31000Y13900D02*
G01X31010Y13900D01*
G54D37*
G01X31010Y13900D02*
G01X30000Y13900D01*
G54D35*
G01X10340Y14600D03*
G54D34*
G01X10340Y14600D02*
G01X10340Y13075D01*
G54D35*
G01X10340Y14600D03*
G54D34*
G01X10340Y13075D02*
G01X10340Y14600D01*
G54D35*
G01X27200Y2850D02*
G01X27200Y2370D01*
G01X27200Y2370D02*
G01X27000Y2170D01*
G01X27000Y2170D02*
G01X27000Y1560D01*
G54D34*
G01X27000Y1560D02*
G01X27000Y1500D01*
G54D37*
G01X26100Y3100D02*
G01X26350Y2850D01*
G01X26350Y2850D02*
G01X27150Y2850D01*
G54D34*
G01X27150Y2850D02*
G01X27200Y2850D01*
G01X9100Y16500D02*
G01X9090Y16510D01*
G01X9090Y16510D02*
G01X9090Y17580D01*
G01X9090Y17580D02*
G01X8830Y17840D01*
G01X8830Y17840D02*
G01X7380Y17840D01*
G01X7380Y17840D02*
G01X7080Y17530D01*
G01X7080Y17530D02*
G01X3180Y17530D01*
G01X3180Y17530D02*
G01X2900Y17250D01*
G01X2900Y17250D02*
G01X2900Y16700D01*
G54D38*
G01X9900Y16500D02*
G01X9100Y16500D01*
G54D31*
G54D37*
G01X29200Y14800D02*
G01X30000Y14800D01*
G01X30000Y14800D02*
G01X30000Y15810D01*
G54D34*
G01X30000Y15810D02*
G01X30000Y15800D01*
G54D31*
G54D35*
G01X20000Y4120D03*
G54D31*
G54D35*
G01X18600Y4110D03*
G54D31*
G54D37*
G01X27900Y11140D02*
G01X28240Y10800D01*
G01X28240Y10800D02*
G01X28900Y10800D01*
G54D31*
G54D38*
G01X29200Y17000D02*
G01X29430Y16770D01*
G54D34*
G01X29430Y16770D02*
G01X29720Y16480D01*
G01X29720Y16480D02*
G01X29870Y16480D01*
G01X29870Y16480D02*
G01X30000Y16350D01*
G01X30000Y16350D02*
G01X30000Y15800D01*
G54D39*
G01X22900Y7360D03*
G54D31*
G54D35*
G01X20000Y4120D03*
G54D31*
G54D35*
G01X9900Y17280D03*
G54D38*
G01X9900Y17280D02*
G01X9900Y16500D01*
G54D35*
G01X4600Y14100D03*
G54D34*
G01X4600Y14100D02*
G01X4100Y14100D01*
G54D38*
G01X4100Y14100D02*
G01X4000Y14200D01*
G01X4000Y14200D02*
G01X4000Y14800D01*
G54D34*
G01X13710Y7450D02*
G01X13710Y8110D01*
G01X13710Y8110D02*
G01X13460Y8110D01*
G54D35*
G01X13300Y8270D03*
G54D34*
G01X13460Y8110D02*
G01X13300Y8270D01*
G54D36*
G01X13456Y7450D02*
G01X13456Y8114D01*
G54D35*
G01X13300Y8270D03*
G54D34*
G01X13456Y8114D02*
G01X13300Y8270D01*
G01X16272Y7450D02*
G01X16272Y8138D01*
G01X16272Y8138D02*
G01X16270Y8140D01*
G01X16270Y8140D02*
G01X16380Y8260D01*
G54D35*
G01X17880Y8260D03*
G54D31*
G54D34*
G01X13710Y7450D02*
G01X13710Y8110D01*
G01X13710Y8110D02*
G01X13460Y8110D01*
G54D35*
G01X13300Y8270D03*
G54D34*
G01X13460Y8110D02*
G01X13300Y8270D01*
G54D35*
G01X17880Y8260D03*
G54D31*
G54D34*
G01X16390Y8260D02*
G01X16270Y8150D01*
G01X16270Y8150D02*
G01X16272Y7450D01*
G54D31*
G54D35*
G01X24700Y2420D02*
G01X25010Y2110D01*
G01X25010Y2110D02*
G01X25010Y1510D01*
G54D34*
G01X25010Y1510D02*
G01X25000Y1500D01*
G54D39*
G01X22900Y7360D03*
G54D31*
G54D35*
G01X18600Y4100D03*
G54D31*
G54D35*
G01X24900Y10300D02*
G01X24320Y10300D01*
G01X24320Y10300D02*
G01X23970Y10650D01*
G01X23970Y10650D02*
G01X23970Y11040D01*
G01X23970Y11040D02*
G01X23710Y11300D01*
G01X23710Y11300D02*
G01X23100Y11300D01*
G54D31*
G54D34*
G01X8300Y15600D02*
G01X8300Y15940D01*
G01X8300Y15940D02*
G01X8840Y16350D01*
G01X8840Y16350D02*
G01X9110Y16350D01*
G01X9110Y16350D02*
G01X9100Y16500D01*
G01X4000Y14800D02*
G01X4000Y14200D01*
G01X4000Y14200D02*
G01X4100Y14100D01*
G54D35*
G01X4600Y14100D03*
G54D34*
G01X4100Y14100D02*
G01X4600Y14100D01*
G54D35*
G01X2360Y14010D03*
G54D34*
G01X2360Y14010D02*
G01X2360Y15220D01*
G01X2360Y15220D02*
G01X2900Y15760D01*
G01X2900Y15760D02*
G01X2900Y16700D01*
G54D35*
G01X4600Y14100D03*
G54D34*
G01X4600Y14100D02*
G01X5510Y14100D01*
G01X5510Y14100D02*
G01X5710Y14300D01*
G01X5710Y14300D02*
G01X6400Y14300D01*
G01X9100Y16500D02*
G01X9090Y16350D01*
G01X9090Y16350D02*
G01X8840Y16350D01*
G01X8840Y16350D02*
G01X8300Y15940D01*
G01X8300Y15940D02*
G01X8300Y15600D01*
G01X6400Y14300D02*
G01X5710Y14300D01*
G01X5710Y14300D02*
G01X5510Y14100D01*
G01X5510Y14100D02*
G01X4590Y14100D01*
G54D38*
G01X4590Y14100D02*
G01X4100Y14100D01*
G54D34*
G01X4100Y14100D02*
G01X4000Y14200D01*
G01X4000Y14200D02*
G01X4000Y14810D01*
G01X4000Y14810D02*
G01X4000Y14800D01*
G01X7300Y13500D02*
G01X7320Y13500D01*
G01X7320Y13500D02*
G01X7325Y13495D01*
G01X7325Y13495D02*
G01X7325Y11950D01*
G01X2800Y8400D02*
G01X2810Y8400D01*
G01X2810Y8400D02*
G01X2810Y8730D01*
G01X2810Y8730D02*
G01X3080Y9000D01*
G01X3080Y9000D02*
G01X4110Y9000D01*
G01X4110Y9000D02*
G01X4850Y9740D01*
G01X4850Y9740D02*
G01X7325Y9745D01*
G01X2800Y8400D02*
G01X2800Y6800D01*
G01X28400Y14100D02*
G01X28400Y14070D01*
G01X28400Y14070D02*
G01X28400Y14900D01*
G54D35*
G01X6010Y12500D03*
G54D34*
G01X6010Y12500D02*
G01X6010Y12100D01*
G01X6010Y12100D02*
G01X6475Y11635D01*
G01X6475Y11635D02*
G01X7325Y11635D01*
G01X13900Y16900D02*
G01X12600Y16900D01*
G54D37*
G01X31000Y14800D02*
G01X31000Y15800D01*
G54D35*
G01X8420Y16700D03*
G54D31*
G54D35*
G01X6600Y16170D03*
G54D31*
G54D35*
G01X4580Y12500D03*
G54D31*
G54D39*
G01X8660Y9700D03*
G54D31*
G54D35*
G01X12770Y7450D03*
G54D31*
G54D39*
G01X11420Y10370D03*
G54D31*
G54D39*
G01X8660Y9700D03*
G54D31*
G54D35*
G01X17020Y7450D03*
G54D31*
G54D35*
G01X12770Y7450D03*
G01X12730Y4100D03*
G54D31*
G54D35*
G01X15000Y3230D03*
G54D31*
G54D35*
G01X17020Y4100D03*
G54D31*
G54D35*
G01X16660Y13520D03*
G54D31*
G54D35*
G01X30790Y17170D03*
G54D31*
G54D35*
G01X28110Y13360D03*
G54D31*
G54D35*
G01X4100Y8400D03*
G54D31*
G54D39*
G01X8660Y9700D03*
G54D31*
G54D34*
G01X28600Y7500D02*
G01X28600Y7900D01*
G54D38*
G01X28600Y7900D02*
G01X27100Y7900D01*
G54D31*
G54D34*
G01X28600Y7500D02*
G01X28600Y7900D01*
G01X28600Y7900D02*
G01X27100Y7900D01*
G54D31*
G54D39*
G01X26100Y4450D03*
G54D31*
G54D35*
G01X31400Y12420D03*
G54D31*
G54D39*
G01X26100Y4450D03*
G54D31*
G54D35*
G01X12770Y7450D03*
G54D31*
G54D35*
G01X28600Y5690D03*
G54D31*
G54D35*
G01X17020Y7450D03*
G54D31*
G54D35*
G01X17020Y7450D03*
G54D31*
G54D36*
G01X14480Y4100D02*
G01X14480Y3450D01*
G54D34*
G01X14480Y3450D02*
G01X14480Y2940D01*
G01X14480Y2940D02*
G01X14680Y2740D01*
G01X14680Y2740D02*
G01X17390Y2740D01*
G01X17390Y2740D02*
G01X18000Y2130D01*
G01X18000Y2130D02*
G01X18000Y1500D01*
G54D36*
G01X13968Y7450D02*
G01X13960Y6870D01*
G54D34*
G01X13960Y6870D02*
G01X13960Y6740D01*
G01X13960Y6740D02*
G01X13860Y6640D01*
G54D35*
G01X12770Y6640D03*
G54D34*
G01X13860Y6640D02*
G01X12770Y6640D01*
G54D35*
G01X5810Y6650D03*
G01X4580Y11610D03*
G54D34*
G01X4580Y11610D02*
G01X5200Y11610D01*
G01X5200Y11610D02*
G01X5200Y11600D01*
G01X5200Y11600D02*
G01X5795Y11005D01*
G01X5795Y11005D02*
G01X7325Y11005D01*
G01X18990Y14890D02*
G01X18990Y15800D01*
G01X18990Y15800D02*
G01X17390Y17400D01*
G01X17390Y17400D02*
G01X15270Y17400D01*
G01X15270Y17400D02*
G01X14770Y17900D01*
G01X14770Y17900D02*
G01X13900Y17900D01*
G01X13900Y17900D02*
G01X12600Y17900D01*
G54D35*
G01X36000Y18000D02*
G01X33470Y18000D01*
G54D34*
G01X33470Y18000D02*
G01X33400Y17900D01*
G54D37*
G01X31000Y18000D02*
G01X33470Y18000D01*
G54D34*
G01X33470Y18000D02*
G01X33400Y17900D01*
G54D35*
G01X12330Y8160D03*
G54D34*
G01X12330Y8160D02*
G01X12725Y8555D01*
G01X12725Y8555D02*
G01X12725Y8800D01*
G54D36*
G01X14220Y4100D02*
G01X14220Y3450D01*
G54D34*
G01X14220Y3450D02*
G01X14220Y2650D01*
G01X14220Y2650D02*
G01X14420Y2450D01*
G01X14420Y2450D02*
G01X15820Y2450D01*
G01X15820Y2450D02*
G01X16000Y2270D01*
G01X16000Y2270D02*
G01X16000Y1500D01*
G01X12725Y11005D02*
G01X13855Y11005D01*
G54D35*
G01X14020Y11010D03*
G54D34*
G01X13855Y11005D02*
G01X14020Y11010D01*
G01X10000Y3200D02*
G01X10000Y3220D01*
G01X10000Y3220D02*
G01X10000Y1500D01*
G01X15900Y12000D02*
G01X15490Y12410D01*
G54D35*
G01X15490Y13420D03*
G54D34*
G01X15490Y12410D02*
G01X15490Y13420D01*
G54D35*
G01X3600Y13420D03*
G54D34*
G01X3600Y13420D02*
G01X3600Y11840D01*
G01X3600Y11840D02*
G01X4740Y10700D01*
G01X4740Y10700D02*
G01X7325Y10690D01*
G54D37*
G01X28900Y9800D02*
G01X31100Y9800D01*
G01X28900Y10300D02*
G01X28300Y10300D01*
G01X28300Y10300D02*
G01X28200Y10400D01*
G01X28200Y10400D02*
G01X27600Y10400D01*
G54D34*
G01X27600Y9600D02*
G01X27600Y9570D01*
G54D38*
G01X27600Y9570D02*
G01X27600Y10400D01*
G54D37*
G01X28900Y9800D02*
G01X28900Y10300D01*
G54D35*
G01X28010Y12350D03*
G54D31*
G54D34*
G01X27330Y13410D02*
G01X27060Y13410D01*
G01X27060Y13410D02*
G01X26790Y13680D01*
G01X26790Y13680D02*
G01X26790Y14600D01*
G01X26790Y14600D02*
G01X27090Y14900D01*
G01X27090Y14900D02*
G01X27600Y14900D01*
G54D31*
G54D35*
G01X26290Y5240D03*
G54D31*
G54D34*
G01X27200Y4200D02*
G01X27100Y4210D01*
G54D38*
G01X27100Y4210D02*
G01X27100Y5100D01*
G54D34*
G01X6800Y7200D02*
G01X6380Y6780D01*
G54D35*
G01X6380Y6000D03*
G54D34*
G01X6380Y6780D02*
G01X6380Y6000D01*
G54D35*
G01X22900Y6000D03*
G54D34*
G01X22900Y6000D02*
G01X22900Y3480D01*
G01X22900Y3480D02*
G01X24000Y2380D01*
G01X24000Y2380D02*
G01X24000Y1490D01*
G01X24000Y1490D02*
G01X24000Y1500D01*
G01X7400Y15600D02*
G01X7390Y15550D01*
G01X7390Y15550D02*
G01X7390Y15000D01*
G01X7390Y15000D02*
G01X7490Y14900D01*
G01X7490Y14900D02*
G01X7840Y14900D01*
G01X7840Y14900D02*
G01X8765Y13975D01*
G01X8765Y13975D02*
G01X8765Y13075D01*
G01X5400Y8400D02*
G01X5400Y9280D01*
G01X5400Y9280D02*
G01X5550Y9430D01*
G01X5550Y9430D02*
G01X7325Y9430D01*
G01X5400Y8400D02*
G01X5400Y7500D01*
G01X5400Y7500D02*
G01X4700Y6800D01*
G01X30500Y13100D02*
G01X30510Y12760D01*
G01X30510Y12760D02*
G01X30870Y12410D01*
G01X30870Y12410D02*
G01X30860Y12010D01*
G01X30860Y12010D02*
G01X30500Y11660D01*
G01X30500Y11660D02*
G01X29790Y11660D01*
G01X29790Y11660D02*
G01X29420Y11290D01*
G01X29420Y11290D02*
G01X28900Y11300D01*
G01X29700Y13100D02*
G01X30500Y13100D01*
G01X7700Y7200D02*
G01X7700Y6700D01*
G01X7700Y6700D02*
G01X7990Y6410D01*
G01X7990Y6410D02*
G01X8580Y6410D01*
G01X8580Y6410D02*
G01X8765Y6595D01*
G01X8765Y6595D02*
G01X8765Y7675D01*
G01X9710Y7675D02*
G01X9710Y6270D01*
G01X9710Y6270D02*
G01X11140Y4840D01*
G01X11140Y4840D02*
G01X14870Y4840D01*
G01X14870Y4840D02*
G01X14990Y4710D01*
G54D36*
G01X14990Y4710D02*
G01X14990Y4100D01*
G54D34*
G01X10025Y7675D02*
G01X10025Y6415D01*
G01X10025Y6415D02*
G01X11290Y5150D01*
G01X11290Y5150D02*
G01X15020Y5150D01*
G01X15020Y5150D02*
G01X15250Y4920D01*
G01X15250Y4920D02*
G01X15250Y4750D01*
G54D36*
G01X15250Y4750D02*
G01X15250Y4100D01*
G54D34*
G01X11600Y15500D02*
G01X11600Y14600D01*
G01X11600Y14600D02*
G01X12730Y13470D01*
G01X12730Y13470D02*
G01X12730Y11950D01*
G01X12730Y11950D02*
G01X12725Y11950D01*
G01X11600Y15500D02*
G01X10400Y16710D01*
G01X10400Y16710D02*
G01X10390Y17690D01*
G01X10390Y17690D02*
G01X9870Y18200D01*
G01X9870Y18200D02*
G01X7010Y18200D01*
G01X7010Y18200D02*
G01X6730Y17910D01*
G01X6730Y17910D02*
G01X2710Y17910D01*
G01X2710Y17910D02*
G01X2300Y17500D01*
G01X2300Y17500D02*
G01X1500Y17500D01*
G01X4000Y15600D02*
G01X3360Y15600D01*
G01X3360Y15600D02*
G01X3010Y15250D01*
G01X3010Y15250D02*
G01X3010Y12270D01*
G01X3010Y12270D02*
G01X2240Y11500D01*
G01X2240Y11500D02*
G01X1500Y11500D01*
G01X4000Y15600D02*
G01X3360Y15600D01*
G01X3360Y15600D02*
G01X3010Y15250D01*
G01X3010Y15250D02*
G01X3010Y13730D01*
G54D35*
G01X3010Y14310D03*
G54D34*
G01X3010Y13730D02*
G01X3010Y14310D01*
G54D35*
G01X8900Y14600D03*
G54D34*
G01X8900Y14600D02*
G01X9390Y14110D01*
G01X9390Y14110D02*
G01X9560Y14110D01*
G01X9560Y14110D02*
G01X9710Y13960D01*
G01X9710Y13960D02*
G01X9710Y13075D01*
G01X18600Y5900D02*
G01X19060Y5900D01*
G01X19060Y5900D02*
G01X19290Y5670D01*
G01X19290Y5670D02*
G01X19290Y3460D01*
G01X19290Y3460D02*
G01X20000Y2750D01*
G01X20000Y2750D02*
G01X20000Y1500D01*
G01X18600Y5900D02*
G01X18590Y6350D01*
G01X18590Y6350D02*
G01X19530Y7280D01*
G01X19530Y7280D02*
G01X19530Y9410D01*
G01X19530Y9410D02*
G01X18590Y10340D01*
G01X18590Y10340D02*
G01X18600Y11370D01*
G54D35*
G01X18350Y11800D03*
G54D34*
G01X18600Y11370D02*
G01X18350Y11800D01*
G54D35*
G01X9740Y11790D03*
G54D34*
G01X9740Y11790D02*
G01X9395Y12135D01*
G01X9395Y12135D02*
G01X9395Y13075D01*
G01X10340Y7675D02*
G01X10340Y6560D01*
G01X10340Y6560D02*
G01X11440Y5460D01*
G01X11440Y5460D02*
G01X15190Y5460D01*
G01X15190Y5460D02*
G01X15500Y5150D01*
G01X15500Y5150D02*
G01X15500Y4750D01*
G54D36*
G01X15500Y4750D02*
G01X15500Y4100D01*

G04 Draw clearances for text*
G54D34*
G01X1472Y8800D02*
G01X1518Y8709D01*
G01X1518Y8709D02*
G01X1654Y8572D01*
G01X1654Y8572D02*
G01X700Y8572D01*

G04 -------------- Draw Parts, Pads, Traces, Vias and Text (positive)*
%LPD*%
G04 Draw part U2*
G54D40*
G01X12725Y8800D03*
G01X12725Y9115D03*
G01X12725Y9430D03*
G01X12725Y9745D03*
G01X12725Y10060D03*
G01X12725Y10375D03*
G01X12725Y10690D03*
G01X12725Y11005D03*
G01X12725Y11320D03*
G01X12725Y11635D03*
G01X12725Y11950D03*
G54D41*
G01X11600Y13075D03*
G01X11285Y13075D03*
G01X10970Y13075D03*
G01X10655Y13075D03*
G01X10340Y13075D03*
G01X10025Y13075D03*
G01X9710Y13075D03*
G01X9395Y13075D03*
G01X9080Y13075D03*
G01X8765Y13075D03*
G01X8450Y13075D03*
G54D40*
G01X7325Y11950D03*
G01X7325Y11635D03*
G01X7325Y11320D03*
G01X7325Y11005D03*
G01X7325Y10690D03*
G01X7325Y10375D03*
G01X7325Y10060D03*
G01X7325Y9745D03*
G01X7325Y9430D03*
G01X7325Y9115D03*
G01X7325Y8800D03*
G54D41*
G01X8450Y7675D03*
G01X8765Y7675D03*
G01X9080Y7675D03*
G01X9395Y7675D03*
G01X9710Y7675D03*
G01X10025Y7675D03*
G01X10340Y7675D03*
G01X10655Y7675D03*
G01X10970Y7675D03*
G01X11285Y7675D03*
G01X11600Y7675D03*
G04 Draw part J3*
G54D42*
G01X27000Y1500D03*
G54D43*
G01X26000Y1500D03*
G01X25000Y1500D03*
G01X24000Y1500D03*
G01X23000Y1500D03*
G01X22000Y1500D03*
G01X21000Y1500D03*
G01X20000Y1500D03*
G01X19000Y1500D03*
G01X18000Y1500D03*
G01X17000Y1500D03*
G01X16000Y1500D03*
G01X15000Y1500D03*
G01X14000Y1500D03*
G01X13000Y1500D03*
G01X12000Y1500D03*
G01X11000Y1500D03*
G01X10000Y1500D03*
G04 Draw part R14*
G54D44*
G01X7300Y13500D03*
G01X6400Y13500D03*
G04 Draw part R12*
G04 Draw part U1*
G54D45*
G01X13200Y4100D03*
G01X13460Y4100D03*
G01X13710Y4100D03*
G01X13970Y4100D03*
G01X14220Y4100D03*
G01X14480Y4100D03*
G01X14740Y4100D03*
G01X14990Y4100D03*
G01X15250Y4100D03*
G01X15500Y4100D03*
G01X15760Y4100D03*
G01X16020Y4100D03*
G01X16270Y4100D03*
G01X16530Y4100D03*
G01X13200Y7450D03*
G01X13456Y7450D03*
G01X13710Y7450D03*
G01X13968Y7450D03*
G01X14224Y7450D03*
G01X14480Y7450D03*
G01X14736Y7450D03*
G01X14992Y7450D03*
G01X15248Y7450D03*
G01X15504Y7450D03*
G01X15760Y7450D03*
G01X16016Y7450D03*
G01X16272Y7450D03*
G01X16528Y7450D03*
G04 Draw part R4*
G54D44*
G01X22900Y8100D03*
G01X22000Y8100D03*
G04 Draw part R3*
G01X7700Y7200D03*
G01X6800Y7200D03*
G04 Draw part R2*
G01X10000Y4100D03*
G01X10000Y3200D03*
G04 Draw part R10*
G01X7400Y15600D03*
G01X8300Y15600D03*
G04 Draw part J2*
G54D42*
G01X1500Y11500D03*
G54D43*
G01X1500Y12500D03*
G01X1500Y13500D03*
G01X1500Y14500D03*
G01X1500Y15500D03*
G01X1500Y16500D03*
G01X1500Y17500D03*
G04 Draw part J1*
G54D42*
G01X3000Y9800D03*
G54D43*
G01X3000Y10800D03*
G04 Draw part R5*
G54D44*
G01X12500Y15500D03*
G01X11600Y15500D03*
G04 Draw part R15*
G01X18600Y5000D03*
G01X18600Y5900D03*
G04 Draw part R16*
G01X20000Y5000D03*
G01X20000Y5900D03*
G04 Draw part R1*
G01X5200Y11600D03*
G01X5200Y12500D03*
G04 Draw part R7*
G01X17200Y12800D03*
G01X16300Y12800D03*
G04 Draw part R6*
G01X15900Y12000D03*
G01X16800Y12000D03*
G04 Draw part R8*
G01X9100Y16500D03*
G01X9100Y15600D03*
G04 Draw part R9*
G01X9900Y16500D03*
G01X9900Y15600D03*
G04 Draw part C6*
G04 Draw part C5*
G04 Draw part X1*
G54D46*
G01X4700Y6800D03*
G01X2800Y6800D03*
G04 Draw part C3*
G54D47*
G01X5400Y8400D03*
G01X4730Y8400D03*
G04 Draw part C4*
G01X2800Y8400D03*
G01X3470Y8400D03*
G04 Draw part C2*
G04 Draw part C1*
G04 Draw part C7*
G54D44*
G01X5700Y15600D03*
G01X6600Y15600D03*
G04 Draw part D1*
G54D48*
G01X2900Y16700D03*
G01X4900Y16700D03*
G04 Draw part D2*
G54D49*
G01X5900Y16700D03*
G01X7650Y16700D03*
G04 Draw part R11*
G54D44*
G01X4000Y15600D03*
G01X4900Y15600D03*
G04 Draw part R13*
G01X4000Y14800D03*
G01X4900Y14800D03*
G04 Draw part J5*
G54D50*
G01X20900Y15950D03*
G01X16100Y15950D03*
G54D51*
G01X18010Y14100D03*
G54D52*
G01X18990Y14100D03*
G01X18990Y14890D03*
G01X18010Y14890D03*
G04 Draw part R17*
G54D44*
G01X11700Y16900D03*
G01X12600Y16900D03*
G04 Draw part R18*
G01X11700Y17900D03*
G01X12600Y17900D03*
G04 Draw part J4*
G54D42*
G01X13900Y12900D03*
G54D43*
G01X13900Y13900D03*
G01X13900Y14900D03*
G01X13900Y15900D03*
G01X13900Y16900D03*
G01X13900Y17900D03*
G04 Draw part R27*
G54D44*
G01X26700Y10400D03*
G01X27600Y10400D03*
G04 Draw part C17*
G01X32300Y12200D03*
G01X32300Y13100D03*
G04 Draw part C19*
G04 Draw part U5*
G54D53*
G01X31100Y9800D03*
G01X31100Y10300D03*
G01X31100Y10800D03*
G01X31100Y11300D03*
G01X28900Y9800D03*
G01X28900Y10300D03*
G01X28900Y10800D03*
G01X28900Y11300D03*
G04 Draw part L2*
G54D54*
G01X31000Y7500D03*
G01X28600Y7500D03*
G04 Draw part C18*
G54D55*
G01X35000Y6000D03*
G54D56*
G01X35000Y8000D03*
G04 Draw part R28*
G54D44*
G01X26700Y9600D03*
G01X27600Y9600D03*
G04 Draw part D5*
G54D55*
G01X32500Y6000D03*
G54D56*
G01X32500Y11000D03*
G04 Draw part C16*
G54D42*
G01X27100Y11700D03*
G54D43*
G01X27100Y12700D03*
G04 Draw part R30*
G54D44*
G01X28800Y12200D03*
G01X29700Y12200D03*
G04 Draw part R31*
G01X30500Y13100D03*
G01X31400Y13100D03*
G04 Draw part U4*
G54D57*
G01X31000Y18000D03*
G01X30500Y18000D03*
G01X30000Y18000D03*
G01X29500Y18000D03*
G01X31000Y15800D03*
G01X30500Y15800D03*
G01X30000Y15800D03*
G01X29500Y15800D03*
G04 Draw part R24*
G54D44*
G01X27600Y15800D03*
G01X27600Y14900D03*
G04 Draw part R25*
G01X28400Y15800D03*
G01X28400Y14900D03*
G04 Draw part R26*
G01X28400Y14100D03*
G01X27500Y14100D03*
G04 Draw part R21*
G01X29200Y14800D03*
G01X29200Y13900D03*
G04 Draw part C12*
G54D42*
G01X27900Y17000D03*
G54D43*
G01X27900Y18000D03*
G04 Draw part L1*
G54D58*
G01X33400Y15500D03*
G01X33400Y17900D03*
G04 Draw part D4*
G54D55*
G01X36000Y13000D03*
G54D56*
G01X36000Y18000D03*
G04 Draw part C13*
G54D55*
G01X35000Y12100D03*
G54D56*
G01X35000Y10100D03*
G04 Draw part C14*
G04 Draw part R23*
G54D44*
G01X31000Y13900D03*
G01X31000Y14800D03*
G04 Draw part C11*
G04 Draw part R22*
G01X30000Y14800D03*
G01X30000Y13900D03*
G04 Draw part R29*
G01X29700Y13100D03*
G01X28800Y13100D03*
G04 Draw part C20*
G04 Draw part C15*
G01X27100Y5100D03*
G01X27100Y6000D03*
G04 Draw part F1*
G54D59*
G01X21100Y11300D03*
G01X23100Y11300D03*
G04 Draw part C8*
G54D42*
G01X24900Y10300D03*
G54D43*
G01X24900Y11300D03*
G04 Draw part C10*
G54D42*
G01X24700Y4000D03*
G54D43*
G01X23700Y4000D03*
G04 Draw part C9*
G54D44*
G01X27100Y7000D03*
G01X27100Y7900D03*
G04 Draw part C21*
G04 Draw part R32*
G01X17600Y11100D03*
G01X17600Y12000D03*
G04 Draw part C24*
G01X26100Y3100D03*
G01X26100Y4000D03*
G04 Draw part C25*
G04 Draw part C23*
G04 Draw part C22*
G04 Draw part L3*
G54D24*
G01X27200Y4200D03*
G01X27200Y2850D03*
G04 Draw part L4*
G04 Draw part R34*
G04 Draw part R33*
G04 Draw part R35*
G54D44*
G01X7300Y14300D03*
G01X6400Y14300D03*

G04 Draw traces*
G54D60*
G01X22000Y8100D02*
G01X22000Y7520D01*
G01X22000Y7520D02*
G01X22340Y7180D01*
G01X22340Y7180D02*
G01X22340Y3220D01*
G01X22340Y3220D02*
G01X23000Y2560D01*
G01X23000Y2560D02*
G01X23000Y1490D01*
G01X23000Y1490D02*
G01X23000Y1500D01*
G01X7325Y9115D02*
G01X6405Y9115D01*
G01X6405Y9115D02*
G01X6140Y8850D01*
G01X6140Y8850D02*
G01X6140Y8580D01*
G01X6140Y8580D02*
G01X6550Y8170D01*
G54D61*
G01X6550Y8170D03*
G01X21090Y8170D03*
G54D60*
G01X21090Y8170D02*
G01X21990Y8170D01*
G01X21990Y8170D02*
G01X22000Y8100D01*
G01X10655Y7675D02*
G01X10655Y6735D01*
G01X10655Y6735D02*
G01X11630Y5760D01*
G01X11630Y5760D02*
G01X15350Y5760D01*
G01X15350Y5760D02*
G01X15760Y5350D01*
G01X15760Y5350D02*
G01X15760Y4750D01*
G54D62*
G01X15760Y4750D02*
G01X15760Y4100D01*
G54D60*
G01X8450Y13075D02*
G01X8065Y13075D01*
G01X8065Y13075D02*
G01X8060Y13070D01*
G01X8060Y13070D02*
G01X7940Y13190D01*
G01X7940Y13190D02*
G01X7940Y14130D01*
G01X7940Y14130D02*
G01X7700Y14300D01*
G01X7700Y14300D02*
G01X7300Y14300D01*
G01X7300Y14300D02*
G01X7700Y14300D01*
G01X7700Y14300D02*
G01X7940Y14130D01*
G54D61*
G01X7940Y14130D03*
G01X7940Y17350D03*
G54D60*
G01X12725Y9115D02*
G01X13650Y9110D01*
G01X13650Y9110D02*
G01X13850Y8750D01*
G01X13850Y8750D02*
G01X14250Y8750D01*
G54D61*
G01X14250Y8750D03*
G01X15740Y8750D03*
G54D60*
G01X15740Y8750D02*
G01X15510Y8510D01*
G01X15510Y8510D02*
G01X15510Y7460D01*
G01X15510Y7460D02*
G01X15504Y7450D01*
G01X4900Y15600D02*
G01X4900Y15590D01*
G01X4900Y15590D02*
G01X4900Y16700D01*
G01X5900Y16700D02*
G01X4890Y16700D01*
G01X4890Y16700D02*
G01X4900Y16700D01*
G01X4900Y15600D02*
G01X5700Y15600D01*
G01X4900Y14800D02*
G01X4900Y14760D01*
G01X4900Y14760D02*
G01X4900Y15600D01*
G54D61*
G01X30000Y16970D03*
G54D60*
G01X30000Y16970D02*
G01X30000Y18000D01*
G01X12725Y9430D02*
G01X14250Y9430D01*
G54D61*
G01X14250Y9430D03*
G01X15650Y9430D03*
G54D60*
G01X15650Y9430D02*
G01X15250Y9020D01*
G01X15250Y9020D02*
G01X15250Y7460D01*
G01X15250Y7460D02*
G01X15248Y7450D01*
G01X31100Y10800D02*
G01X31640Y10800D01*
G01X31640Y10800D02*
G01X31780Y10940D01*
G01X31780Y10940D02*
G01X31780Y11680D01*
G01X31780Y11680D02*
G01X32300Y12200D01*
G01X20000Y5900D02*
G01X20660Y5900D01*
G01X20660Y5900D02*
G01X21000Y5560D01*
G01X21000Y5560D02*
G01X21000Y1500D01*
G01X20000Y5900D02*
G01X20000Y9670D01*
G01X20000Y9670D02*
G01X19100Y10570D01*
G01X19100Y10570D02*
G01X19100Y11160D01*
G54D61*
G01X19100Y11160D03*
G01X9080Y11160D03*
G54D60*
G01X9080Y11160D02*
G01X9080Y13075D01*
G01X12725Y9745D02*
G01X13850Y9740D01*
G01X13850Y9740D02*
G01X14250Y10110D01*
G54D61*
G01X14250Y10110D03*
G01X15220Y10110D03*
G54D60*
G01X15220Y10110D02*
G01X15220Y9660D01*
G01X15220Y9660D02*
G01X14990Y9360D01*
G01X14990Y9360D02*
G01X14990Y7490D01*
G01X14990Y7490D02*
G01X14992Y7450D01*
G01X17600Y12000D02*
G01X18010Y12410D01*
G01X18010Y12410D02*
G01X18010Y12750D01*
G01X18010Y12750D02*
G01X18300Y13040D01*
G01X18300Y13040D02*
G01X18010Y13330D01*
G01X18010Y13330D02*
G01X18010Y14110D01*
G01X18010Y14110D02*
G01X18010Y14100D01*
G54D61*
G01X21100Y11300D02*
G01X21100Y12530D01*
G01X21100Y12530D02*
G01X20620Y13010D01*
G01X20620Y13010D02*
G01X18340Y13010D01*
G01X18340Y13010D02*
G01X18010Y13340D01*
G01X18010Y13340D02*
G01X18010Y14100D01*
G54D60*
G01X10000Y4100D02*
G01X10000Y5260D01*
G01X10000Y5260D02*
G01X9080Y6180D01*
G01X9080Y6180D02*
G01X9080Y7675D01*
G01X31000Y7500D02*
G01X30980Y8140D01*
G54D63*
G01X30980Y8140D02*
G01X32090Y9250D01*
G01X32090Y9250D02*
G01X32090Y9940D01*
G01X32090Y9940D02*
G01X31730Y10300D01*
G01X31730Y10300D02*
G01X31100Y10300D01*
G01X32500Y6000D02*
G01X31900Y6000D01*
G01X31900Y6000D02*
G01X31000Y6900D01*
G54D60*
G01X31000Y6900D02*
G01X31000Y7500D01*
G01X12725Y10060D02*
G01X13640Y10060D01*
G01X13640Y10060D02*
G01X13970Y10580D01*
G01X13970Y10580D02*
G01X14540Y10580D01*
G01X14540Y10580D02*
G01X14730Y10390D01*
G01X14730Y10390D02*
G01X14730Y7480D01*
G01X14730Y7480D02*
G01X14736Y7450D01*
G01X15760Y7450D02*
G01X15760Y8090D01*
G01X15760Y8090D02*
G01X16210Y8540D01*
G01X16210Y8540D02*
G01X16210Y9530D01*
G01X16210Y9530D02*
G01X15720Y10020D01*
G01X15720Y10020D02*
G01X15720Y10300D01*
G01X15720Y10300D02*
G01X15440Y10580D01*
G01X15440Y10580D02*
G01X15210Y10580D01*
G01X15210Y10580D02*
G01X14290Y11500D01*
G01X14290Y11500D02*
G01X13910Y11500D01*
G01X13910Y11500D02*
G01X13660Y11320D01*
G01X13660Y11320D02*
G01X12725Y11320D01*
G54D61*
G01X9100Y8920D03*
G54D60*
G01X9100Y8920D02*
G01X9400Y8620D01*
G01X9400Y8620D02*
G01X9400Y7680D01*
G01X9400Y7680D02*
G01X9395Y7675D01*
G01X28800Y12200D02*
G01X28800Y13100D01*
G01X11700Y17900D02*
G01X11210Y17890D01*
G01X11210Y17890D02*
G01X10890Y17570D01*
G54D61*
G01X10890Y17570D03*
G01X11290Y8900D03*
G54D60*
G01X11290Y8900D02*
G01X11285Y8895D01*
G01X11285Y8895D02*
G01X11285Y7675D01*
G01X6400Y13500D02*
G01X6400Y13090D01*
G01X6400Y13090D02*
G01X6760Y12730D01*
G54D61*
G01X6760Y12730D03*
G01X19050Y11950D03*
G54D60*
G01X19050Y11950D02*
G01X19600Y11950D01*
G01X19600Y11950D02*
G01X19900Y11650D01*
G01X19900Y11650D02*
G01X19900Y10530D01*
G01X19900Y10530D02*
G01X20530Y9900D01*
G01X20530Y9900D02*
G01X20530Y7240D01*
G01X20530Y7240D02*
G01X21670Y6100D01*
G01X21670Y6100D02*
G01X21670Y2910D01*
G01X21670Y2910D02*
G01X22000Y2580D01*
G01X22000Y2580D02*
G01X22000Y1500D01*
G54D62*
G01X14224Y7450D02*
G01X14224Y6874D01*
G54D60*
G01X14224Y6874D02*
G01X14220Y6870D01*
G01X14220Y6870D02*
G01X14220Y6680D01*
G01X14220Y6680D02*
G01X14500Y6400D01*
G01X14500Y6400D02*
G01X17670Y6410D01*
G01X17670Y6410D02*
G01X18010Y6740D01*
G01X18010Y6740D02*
G01X18410Y6750D01*
G01X18410Y6750D02*
G01X19030Y7370D01*
G01X19030Y7370D02*
G01X19050Y9050D01*
G01X19050Y9050D02*
G01X17850Y10250D01*
G54D61*
G01X17850Y10250D03*
G01X16550Y10250D03*
G54D60*
G01X16550Y10250D02*
G01X15810Y10980D01*
G01X15810Y10980D02*
G01X15410Y10980D01*
G01X15410Y10980D02*
G01X14460Y11930D01*
G01X14460Y11930D02*
G01X13900Y11930D01*
G01X13900Y11930D02*
G01X13620Y11640D01*
G01X13620Y11640D02*
G01X13595Y11635D01*
G01X13595Y11635D02*
G01X12725Y11635D01*
G54D62*
G01X16020Y4100D02*
G01X16020Y4750D01*
G54D60*
G01X16020Y4750D02*
G01X16020Y5550D01*
G01X16020Y5550D02*
G01X15500Y6070D01*
G01X15500Y6070D02*
G01X12570Y6070D01*
G01X12570Y6070D02*
G01X12020Y6620D01*
G54D61*
G01X12020Y6620D03*
G01X6010Y11450D03*
G54D60*
G01X6010Y11450D02*
G01X6330Y11320D01*
G01X6330Y11320D02*
G01X7325Y11320D01*
G54D64*
G01X32500Y11000D02*
G01X32990Y11500D01*
G01X32990Y11500D02*
G01X32990Y12860D01*
G01X32990Y12860D02*
G01X32760Y13090D01*
G01X32760Y13090D02*
G01X32290Y13100D01*
G54D60*
G01X32290Y13100D02*
G01X32300Y13100D01*
G01X29700Y12200D02*
G01X30320Y12200D01*
G54D61*
G01X30320Y12200D03*
G01X29980Y11160D03*
G54D60*
G01X29980Y11160D02*
G01X30390Y11160D01*
G01X30390Y11160D02*
G01X30530Y11300D01*
G01X30530Y11300D02*
G01X31100Y11300D01*
G54D61*
G01X29980Y11160D03*
G54D60*
G01X29980Y11160D02*
G01X30390Y11160D01*
G01X30390Y11160D02*
G01X30530Y11300D01*
G01X30530Y11300D02*
G01X31100Y11300D01*
G54D61*
G01X29980Y11160D03*
G54D60*
G01X29980Y11160D02*
G01X30390Y11160D01*
G01X30390Y11160D02*
G01X30530Y11300D01*
G01X30530Y11300D02*
G01X31100Y11300D01*
G54D61*
G01X12090Y7460D03*
G54D60*
G01X12090Y7460D02*
G01X11840Y7670D01*
G01X11840Y7670D02*
G01X11600Y7675D01*
G54D61*
G01X26000Y2370D03*
G01X26000Y2370D02*
G01X26000Y1500D01*
G54D62*
G01X13970Y4100D02*
G01X13970Y3310D01*
G01X13970Y3310D02*
G01X13850Y3190D01*
G54D60*
G01X13850Y3190D02*
G01X12380Y3190D01*
G01X12380Y3190D02*
G01X12000Y2810D01*
G01X12000Y2810D02*
G01X12000Y1500D01*
G54D61*
G01X8960Y10390D03*
G54D64*
G01X8960Y10390D02*
G01X9290Y10390D01*
G01X9290Y10390D02*
G01X9680Y10780D01*
G54D61*
G01X9680Y10780D03*
G54D60*
G01X12725Y10690D02*
G01X12720Y10680D01*
G01X12720Y10680D02*
G01X11870Y10680D01*
G01X11870Y10680D02*
G01X11590Y10940D01*
G01X11590Y10940D02*
G01X11100Y10940D01*
G01X11100Y10940D02*
G01X10940Y10780D01*
G01X10940Y10780D02*
G01X10730Y10790D01*
G54D64*
G01X10730Y10790D02*
G01X9680Y10780D01*
G54D61*
G01X9680Y10780D03*
G01X3000Y10800D02*
G01X3740Y10800D01*
G01X3740Y10800D02*
G01X4320Y10230D01*
G01X4320Y10230D02*
G01X5680Y10230D01*
G54D60*
G01X5680Y10230D02*
G01X6110Y10220D01*
G01X6110Y10220D02*
G01X6270Y10370D01*
G01X6270Y10370D02*
G01X7325Y10375D01*
G54D61*
G01X8960Y10390D03*
G54D60*
G01X8960Y10390D02*
G01X8030Y10390D01*
G01X8030Y10390D02*
G01X7325Y10375D01*
G01X9900Y15600D02*
G01X10600Y15600D01*
G01X10600Y15600D02*
G01X11220Y14980D01*
G01X11220Y14980D02*
G01X11220Y14230D01*
G01X11220Y14230D02*
G01X10970Y13970D01*
G01X10970Y13970D02*
G01X10970Y13075D01*
G01X12500Y15500D02*
G01X12500Y14350D01*
G01X12500Y14350D02*
G01X12500Y14400D01*
G54D61*
G01X12500Y14400D03*
G01X14890Y14400D03*
G54D60*
G01X14890Y14400D02*
G01X14890Y12340D01*
G01X14890Y12340D02*
G01X15280Y11960D01*
G01X15280Y11960D02*
G01X15280Y11590D01*
G01X15280Y11590D02*
G01X15530Y11350D01*
G01X15530Y11350D02*
G01X16250Y11350D01*
G01X16250Y11350D02*
G01X17100Y10500D01*
G01X17100Y10500D02*
G01X17100Y9900D01*
G01X17100Y9900D02*
G01X18600Y8400D01*
G01X18600Y8400D02*
G01X18610Y7500D01*
G01X18610Y7500D02*
G01X18270Y7170D01*
G01X18270Y7170D02*
G01X17870Y7170D01*
G01X17870Y7170D02*
G01X17400Y6690D01*
G01X17400Y6690D02*
G01X14680Y6700D01*
G01X14680Y6700D02*
G01X14480Y6900D01*
G54D62*
G01X14480Y6900D02*
G01X14480Y7450D01*
G54D60*
G01X28400Y15800D02*
G01X27590Y15800D01*
G01X27590Y15800D02*
G01X27600Y15800D01*
G01X28400Y15800D02*
G01X29500Y15800D01*
G01X10025Y13075D02*
G01X10025Y14165D01*
G01X10025Y14165D02*
G01X9590Y14600D01*
G54D61*
G01X9590Y14600D03*
G54D60*
G01X10025Y13075D02*
G01X10025Y14165D01*
G01X10025Y14165D02*
G01X9590Y14600D01*
G54D61*
G01X9590Y14600D03*
G54D60*
G01X11700Y16900D02*
G01X11070Y16900D01*
G54D61*
G01X11070Y16900D03*
G01X10700Y9230D03*
G54D60*
G01X10700Y9230D02*
G01X10700Y8820D01*
G01X10700Y8820D02*
G01X10970Y8560D01*
G01X10970Y8560D02*
G01X10970Y7675D01*
G01X9100Y15600D02*
G01X9100Y15230D01*
G01X9100Y15230D02*
G01X9240Y15090D01*
G01X9240Y15090D02*
G01X10590Y15090D01*
G01X10590Y15090D02*
G01X10900Y14780D01*
G01X10900Y14780D02*
G01X10900Y14370D01*
G01X10900Y14370D02*
G01X10660Y14120D01*
G01X10660Y14120D02*
G01X10655Y13075D01*
G01X16800Y12000D02*
G01X16810Y12000D01*
G01X16810Y12000D02*
G01X17200Y12390D01*
G01X17200Y12390D02*
G01X17200Y12800D01*
G01X17600Y11100D02*
G01X17100Y11100D01*
G01X17100Y11100D02*
G01X16800Y11400D01*
G01X16800Y11400D02*
G01X16800Y12000D01*
G01X33400Y15500D02*
G01X32720Y15490D01*
G54D63*
G01X32720Y15490D02*
G01X31560Y16650D01*
G01X31560Y16650D02*
G01X30730Y16650D01*
G01X30730Y16650D02*
G01X30500Y16420D01*
G01X30500Y16420D02*
G01X30500Y15800D01*
G54D60*
G01X31000Y13900D02*
G01X30960Y13900D01*
G54D63*
G01X30960Y13900D02*
G01X30500Y13900D01*
G01X30500Y13900D02*
G01X30500Y14480D01*
G54D60*
G01X30500Y14480D02*
G01X30500Y15120D01*
G54D63*
G01X30500Y15120D02*
G01X30500Y15800D01*
G01X29200Y13900D02*
G01X30020Y13900D01*
G54D60*
G01X30020Y13900D02*
G01X30000Y13900D01*
G01X31000Y13900D02*
G01X31010Y13900D01*
G54D63*
G01X31010Y13900D02*
G01X30000Y13900D01*
G54D61*
G01X10340Y14600D03*
G54D60*
G01X10340Y14600D02*
G01X10340Y13075D01*
G01X10340Y13075D02*
G01X10340Y14600D01*
G54D61*
G01X10340Y14600D03*
G01X27200Y2850D02*
G01X27200Y2370D01*
G01X27200Y2370D02*
G01X27000Y2170D01*
G01X27000Y2170D02*
G01X27000Y1560D01*
G54D60*
G01X27000Y1560D02*
G01X27000Y1500D01*
G54D63*
G01X26100Y3100D02*
G01X26350Y2850D01*
G01X26350Y2850D02*
G01X27150Y2850D01*
G54D60*
G01X27150Y2850D02*
G01X27200Y2850D01*
G01X9100Y16500D02*
G01X9090Y16510D01*
G01X9090Y16510D02*
G01X9090Y17580D01*
G01X9090Y17580D02*
G01X8830Y17840D01*
G01X8830Y17840D02*
G01X7380Y17840D01*
G01X7380Y17840D02*
G01X7080Y17530D01*
G01X7080Y17530D02*
G01X3180Y17530D01*
G01X3180Y17530D02*
G01X2900Y17250D01*
G01X2900Y17250D02*
G01X2900Y16700D01*
G54D64*
G01X9900Y16500D02*
G01X9100Y16500D01*
G54D60*
G01X26700Y9600D02*
G01X26700Y9570D01*
G54D64*
G01X26700Y9570D02*
G01X26700Y10400D01*
G54D63*
G01X29200Y14800D02*
G01X30000Y14800D01*
G01X30000Y14800D02*
G01X30000Y15810D01*
G54D60*
G01X30000Y15810D02*
G01X30000Y15800D01*
G54D64*
G01X26700Y10400D02*
G01X26700Y11290D01*
G01X26700Y11290D02*
G01X27100Y11700D01*
G54D60*
G01X20000Y5000D02*
G01X19990Y5020D01*
G01X19990Y5020D02*
G01X19990Y4120D01*
G01X19990Y4120D02*
G01X20000Y4120D01*
G54D61*
G01X20000Y4120D03*
G01X18600Y4110D03*
G54D60*
G01X18600Y4110D02*
G01X18600Y5000D01*
G54D63*
G01X27100Y11700D02*
G01X27660Y11140D01*
G01X27660Y11140D02*
G01X27900Y11140D01*
G01X27900Y11140D02*
G01X28240Y10800D01*
G01X28240Y10800D02*
G01X28900Y10800D01*
G54D64*
G01X27900Y17000D02*
G01X29200Y17000D01*
G01X29200Y17000D02*
G01X29430Y16770D01*
G54D60*
G01X29430Y16770D02*
G01X29720Y16480D01*
G01X29720Y16480D02*
G01X29870Y16480D01*
G01X29870Y16480D02*
G01X30000Y16350D01*
G01X30000Y16350D02*
G01X30000Y15800D01*
G01X22900Y8100D02*
G01X22900Y7360D01*
G54D61*
G01X22900Y7360D03*
G01X20000Y4120D03*
G54D60*
G01X20000Y4120D02*
G01X20000Y5000D01*
G54D61*
G01X9900Y17280D03*
G54D64*
G01X9900Y17280D02*
G01X9900Y16500D01*
G54D61*
G01X4600Y14100D03*
G54D60*
G01X4600Y14100D02*
G01X4100Y14100D01*
G54D64*
G01X4100Y14100D02*
G01X4000Y14200D01*
G01X4000Y14200D02*
G01X4000Y14800D01*
G54D60*
G01X13710Y7450D02*
G01X13710Y8110D01*
G01X13710Y8110D02*
G01X13460Y8110D01*
G01X13460Y8110D02*
G01X13300Y8270D01*
G54D61*
G01X13300Y8270D03*
G54D62*
G01X13456Y7450D02*
G01X13456Y8114D01*
G54D60*
G01X13456Y8114D02*
G01X13300Y8270D01*
G54D61*
G01X13300Y8270D03*
G54D60*
G01X16272Y7450D02*
G01X16272Y8138D01*
G01X16272Y8138D02*
G01X16270Y8140D01*
G01X16270Y8140D02*
G01X16380Y8260D01*
G01X16380Y8260D02*
G01X17880Y8260D01*
G54D61*
G01X17880Y8260D03*
G54D60*
G01X13710Y7450D02*
G01X13710Y8110D01*
G01X13710Y8110D02*
G01X13460Y8110D01*
G01X13460Y8110D02*
G01X13300Y8270D01*
G54D61*
G01X13300Y8270D03*
G01X17880Y8260D03*
G54D60*
G01X17880Y8260D02*
G01X16390Y8260D01*
G01X16390Y8260D02*
G01X16270Y8150D01*
G01X16270Y8150D02*
G01X16272Y7450D01*
G54D61*
G01X24700Y4000D02*
G01X24700Y2420D01*
G01X24700Y2420D02*
G01X25010Y2110D01*
G01X25010Y2110D02*
G01X25010Y1510D01*
G54D60*
G01X25010Y1510D02*
G01X25000Y1500D01*
G54D61*
G01X22900Y7360D03*
G54D60*
G01X22900Y7360D02*
G01X22900Y8100D01*
G54D61*
G01X18600Y4100D03*
G54D60*
G01X18600Y4100D02*
G01X18600Y5000D01*
G54D61*
G01X24900Y10300D02*
G01X24320Y10300D01*
G01X24320Y10300D02*
G01X23970Y10650D01*
G01X23970Y10650D02*
G01X23970Y11040D01*
G01X23970Y11040D02*
G01X23710Y11300D01*
G01X23710Y11300D02*
G01X23100Y11300D01*
G01X24900Y10300D02*
G01X25660Y10300D01*
G54D60*
G01X25660Y10300D02*
G01X25760Y10400D01*
G54D61*
G01X25760Y10400D02*
G01X26620Y10400D01*
G54D60*
G01X26620Y10400D02*
G01X26700Y10400D01*
G54D61*
G01X27100Y7000D02*
G01X24900Y7000D01*
G01X24900Y7000D02*
G01X24900Y10300D01*
G54D60*
G01X24900Y10300D02*
G01X24900Y7360D01*
G01X24900Y7360D02*
G01X22900Y7360D01*
G01X22900Y7360D02*
G01X22900Y8100D01*
G01X8300Y15600D02*
G01X8300Y15940D01*
G01X8300Y15940D02*
G01X8840Y16350D01*
G01X8840Y16350D02*
G01X9110Y16350D01*
G01X9110Y16350D02*
G01X9100Y16500D01*
G01X4000Y14800D02*
G01X4000Y14200D01*
G01X4000Y14200D02*
G01X4100Y14100D01*
G01X4100Y14100D02*
G01X4600Y14100D01*
G54D61*
G01X4600Y14100D03*
G01X2360Y14010D03*
G54D60*
G01X2360Y14010D02*
G01X2360Y15220D01*
G01X2360Y15220D02*
G01X2900Y15760D01*
G01X2900Y15760D02*
G01X2900Y16700D01*
G54D61*
G01X4600Y14100D03*
G54D60*
G01X4600Y14100D02*
G01X5510Y14100D01*
G01X5510Y14100D02*
G01X5710Y14300D01*
G01X5710Y14300D02*
G01X6400Y14300D01*
G01X9100Y16500D02*
G01X9090Y16350D01*
G01X9090Y16350D02*
G01X8840Y16350D01*
G01X8840Y16350D02*
G01X8300Y15940D01*
G01X8300Y15940D02*
G01X8300Y15600D01*
G01X6400Y14300D02*
G01X5710Y14300D01*
G01X5710Y14300D02*
G01X5510Y14100D01*
G01X5510Y14100D02*
G01X4590Y14100D01*
G54D64*
G01X4590Y14100D02*
G01X4100Y14100D01*
G54D60*
G01X4100Y14100D02*
G01X4000Y14200D01*
G01X4000Y14200D02*
G01X4000Y14810D01*
G01X4000Y14810D02*
G01X4000Y14800D01*
G01X7300Y13500D02*
G01X7320Y13500D01*
G01X7320Y13500D02*
G01X7325Y13495D01*
G01X7325Y13495D02*
G01X7325Y11950D01*
G01X2800Y8400D02*
G01X2810Y8400D01*
G01X2810Y8400D02*
G01X2810Y8730D01*
G01X2810Y8730D02*
G01X3080Y9000D01*
G01X3080Y9000D02*
G01X4110Y9000D01*
G01X4110Y9000D02*
G01X4850Y9740D01*
G01X4850Y9740D02*
G01X7325Y9745D01*
G01X2800Y8400D02*
G01X2800Y6800D01*
G01X28400Y14100D02*
G01X28400Y14070D01*
G01X28400Y14070D02*
G01X28400Y14900D01*
G54D61*
G01X6010Y12500D03*
G54D60*
G01X6010Y12500D02*
G01X6010Y12100D01*
G01X6010Y12100D02*
G01X6475Y11635D01*
G01X6475Y11635D02*
G01X7325Y11635D01*
G01X13900Y16900D02*
G01X12600Y16900D01*
G54D63*
G01X31000Y14800D02*
G01X31000Y15800D01*
G54D60*
G01X7650Y16700D02*
G01X8420Y16700D01*
G54D61*
G01X8420Y16700D03*
G01X6600Y16170D03*
G54D60*
G01X6600Y16170D02*
G01X6600Y15600D01*
G01X5200Y12500D02*
G01X4580Y12500D01*
G54D61*
G01X4580Y12500D03*
G54D60*
G01X4730Y8400D02*
G01X3470Y8400D01*
G01X7325Y10060D02*
G01X8300Y10060D01*
G01X8300Y10060D02*
G01X8660Y9700D01*
G54D61*
G01X8660Y9700D03*
G54D60*
G01X13200Y7450D02*
G01X12770Y7450D01*
G54D61*
G01X12770Y7450D03*
G01X11420Y10370D03*
G54D60*
G01X11420Y10370D02*
G01X12640Y10370D01*
G01X12640Y10370D02*
G01X12725Y10375D01*
G54D61*
G01X8660Y9700D03*
G54D60*
G01X8660Y9700D02*
G01X8300Y10060D01*
G01X8300Y10060D02*
G01X7325Y10060D01*
G01X16528Y7450D02*
G01X17020Y7450D01*
G54D61*
G01X17020Y7450D03*
G01X12770Y7450D03*
G54D60*
G01X13200Y4100D02*
G01X12730Y4100D01*
G54D61*
G01X12730Y4100D03*
G54D60*
G01X13460Y4100D02*
G01X13460Y3480D01*
G01X13460Y3480D02*
G01X13710Y3480D01*
G01X13710Y3480D02*
G01X13710Y4100D01*
G01X13200Y4100D02*
G01X13200Y3480D01*
G01X13200Y3480D02*
G01X13460Y3480D01*
G01X13460Y3480D02*
G01X13460Y4100D01*
G54D62*
G01X14740Y4100D02*
G01X14740Y3490D01*
G54D60*
G01X14740Y3490D02*
G01X15000Y3230D01*
G54D61*
G01X15000Y3230D03*
G01X17020Y4100D03*
G54D60*
G01X17020Y4100D02*
G01X16530Y4100D01*
G54D61*
G01X16660Y13520D03*
G54D60*
G01X16660Y13520D02*
G01X16300Y13160D01*
G01X16300Y13160D02*
G01X16300Y12800D01*
G01X30500Y18000D02*
G01X30500Y17460D01*
G01X30500Y17460D02*
G01X30790Y17170D01*
G54D61*
G01X30790Y17170D03*
G54D63*
G01X27900Y18000D02*
G01X29500Y18000D01*
G54D60*
G01X27500Y14100D02*
G01X27500Y13710D01*
G01X27500Y13710D02*
G01X28110Y13360D01*
G54D61*
G01X28110Y13360D03*
G54D60*
G01X4730Y8400D02*
G01X4100Y8400D01*
G54D61*
G01X4100Y8400D03*
G01X8660Y9700D03*
G54D60*
G01X8660Y9700D02*
G01X8300Y10060D01*
G01X8300Y10060D02*
G01X7325Y10060D01*
G01X28600Y7500D02*
G01X28600Y7900D01*
G54D64*
G01X28600Y7900D02*
G01X27100Y7900D01*
G01X27100Y6000D02*
G01X27730Y6000D01*
G01X27730Y6000D02*
G01X28600Y6870D01*
G54D60*
G01X28600Y6870D02*
G01X28600Y7500D01*
G01X28600Y7500D02*
G01X28600Y7900D01*
G01X28600Y7900D02*
G01X27100Y7900D01*
G01X23700Y4000D02*
G01X23700Y4650D01*
G01X23700Y4650D02*
G01X23930Y4880D01*
G01X23930Y4880D02*
G01X25670Y4880D01*
G01X25670Y4880D02*
G01X25610Y4870D01*
G01X25610Y4870D02*
G01X25610Y3960D01*
G01X25610Y3960D02*
G01X26100Y3960D01*
G01X26100Y3960D02*
G01X25700Y4050D01*
G01X25700Y4050D02*
G01X26100Y4450D01*
G54D61*
G01X26100Y4450D03*
G54D60*
G01X31400Y13100D02*
G01X31400Y12420D01*
G54D61*
G01X31400Y12420D03*
G54D63*
G01X27100Y6000D02*
G01X26160Y6000D01*
G01X26160Y6000D02*
G01X25670Y5500D01*
G54D60*
G01X25670Y5500D02*
G01X25670Y4880D01*
G01X25670Y4880D02*
G01X26100Y4450D01*
G54D61*
G01X26100Y4450D03*
G54D60*
G01X13200Y7450D02*
G01X12770Y7450D01*
G54D61*
G01X12770Y7450D03*
G54D60*
G01X26100Y4000D02*
G01X26100Y4020D01*
G54D61*
G01X26100Y4020D02*
G01X26100Y4450D01*
G54D60*
G01X26100Y4450D02*
G01X25670Y4880D01*
G01X25670Y4880D02*
G01X23940Y4880D01*
G01X23940Y4880D02*
G01X23700Y4640D01*
G54D64*
G01X23700Y4640D02*
G01X23700Y4000D01*
G54D61*
G01X28600Y5690D03*
G54D63*
G01X28600Y5690D02*
G01X28600Y6490D01*
G54D60*
G01X28600Y6490D02*
G01X28600Y7500D01*
G54D61*
G01X17020Y7450D03*
G54D60*
G01X17020Y7450D02*
G01X16528Y7450D01*
G54D61*
G01X17020Y7450D03*
G54D60*
G01X17020Y7450D02*
G01X16528Y7450D01*
G54D62*
G01X14480Y4100D02*
G01X14480Y3450D01*
G54D60*
G01X14480Y3450D02*
G01X14480Y2940D01*
G01X14480Y2940D02*
G01X14680Y2740D01*
G01X14680Y2740D02*
G01X17390Y2740D01*
G01X17390Y2740D02*
G01X18000Y2130D01*
G01X18000Y2130D02*
G01X18000Y1500D01*
G54D62*
G01X13968Y7450D02*
G01X13960Y6870D01*
G54D60*
G01X13960Y6870D02*
G01X13960Y6740D01*
G01X13960Y6740D02*
G01X13860Y6640D01*
G01X13860Y6640D02*
G01X12770Y6640D01*
G54D61*
G01X12770Y6640D03*
G01X5810Y6650D03*
G01X4580Y11610D03*
G54D60*
G01X4580Y11610D02*
G01X5200Y11610D01*
G01X5200Y11610D02*
G01X5200Y11600D01*
G01X5200Y11600D02*
G01X5795Y11005D01*
G01X5795Y11005D02*
G01X7325Y11005D01*
G01X18990Y14890D02*
G01X18990Y15800D01*
G01X18990Y15800D02*
G01X17390Y17400D01*
G01X17390Y17400D02*
G01X15270Y17400D01*
G01X15270Y17400D02*
G01X14770Y17900D01*
G01X14770Y17900D02*
G01X13900Y17900D01*
G01X13900Y17900D02*
G01X12600Y17900D01*
G54D61*
G01X36000Y18000D02*
G01X33470Y18000D01*
G54D60*
G01X33470Y18000D02*
G01X33400Y17900D01*
G54D63*
G01X31000Y18000D02*
G01X33470Y18000D01*
G54D60*
G01X33470Y18000D02*
G01X33400Y17900D01*
G54D61*
G01X12330Y8160D03*
G54D60*
G01X12330Y8160D02*
G01X12725Y8555D01*
G01X12725Y8555D02*
G01X12725Y8800D01*
G54D62*
G01X14220Y4100D02*
G01X14220Y3450D01*
G54D60*
G01X14220Y3450D02*
G01X14220Y2650D01*
G01X14220Y2650D02*
G01X14420Y2450D01*
G01X14420Y2450D02*
G01X15820Y2450D01*
G01X15820Y2450D02*
G01X16000Y2270D01*
G01X16000Y2270D02*
G01X16000Y1500D01*
G01X12725Y11005D02*
G01X13855Y11005D01*
G01X13855Y11005D02*
G01X14020Y11010D01*
G54D61*
G01X14020Y11010D03*
G54D60*
G01X10000Y3200D02*
G01X10000Y3220D01*
G01X10000Y3220D02*
G01X10000Y1500D01*
G01X15900Y12000D02*
G01X15490Y12410D01*
G01X15490Y12410D02*
G01X15490Y13420D01*
G54D61*
G01X15490Y13420D03*
G01X3600Y13420D03*
G54D60*
G01X3600Y13420D02*
G01X3600Y11840D01*
G01X3600Y11840D02*
G01X4740Y10700D01*
G01X4740Y10700D02*
G01X7325Y10690D01*
G54D63*
G01X28900Y9800D02*
G01X31100Y9800D01*
G01X28900Y10300D02*
G01X28300Y10300D01*
G01X28300Y10300D02*
G01X28200Y10400D01*
G01X28200Y10400D02*
G01X27600Y10400D01*
G54D60*
G01X27600Y9600D02*
G01X27600Y9570D01*
G54D64*
G01X27600Y9570D02*
G01X27600Y10400D01*
G54D63*
G01X28900Y9800D02*
G01X28900Y10300D01*
G54D61*
G01X28010Y12350D03*
G54D60*
G01X28010Y12350D02*
G01X28010Y12730D01*
G01X28010Y12730D02*
G01X27330Y13410D01*
G01X27330Y13410D02*
G01X27060Y13410D01*
G01X27060Y13410D02*
G01X26790Y13680D01*
G01X26790Y13680D02*
G01X26790Y14600D01*
G01X26790Y14600D02*
G01X27090Y14900D01*
G01X27090Y14900D02*
G01X27600Y14900D01*
G54D65*
G01X27100Y5100D02*
G01X26590Y5100D01*
G01X26590Y5100D02*
G01X26290Y5240D01*
G54D61*
G01X26290Y5240D03*
G54D60*
G01X27200Y4200D02*
G01X27100Y4210D01*
G54D64*
G01X27100Y4210D02*
G01X27100Y5100D01*
G54D60*
G01X6800Y7200D02*
G01X6380Y6780D01*
G01X6380Y6780D02*
G01X6380Y6000D01*
G54D61*
G01X6380Y6000D03*
G01X22900Y6000D03*
G54D60*
G01X22900Y6000D02*
G01X22900Y3480D01*
G01X22900Y3480D02*
G01X24000Y2380D01*
G01X24000Y2380D02*
G01X24000Y1490D01*
G01X24000Y1490D02*
G01X24000Y1500D01*
G01X7400Y15600D02*
G01X7390Y15550D01*
G01X7390Y15550D02*
G01X7390Y15000D01*
G01X7390Y15000D02*
G01X7490Y14900D01*
G01X7490Y14900D02*
G01X7840Y14900D01*
G01X7840Y14900D02*
G01X8765Y13975D01*
G01X8765Y13975D02*
G01X8765Y13075D01*
G01X5400Y8400D02*
G01X5400Y9280D01*
G01X5400Y9280D02*
G01X5550Y9430D01*
G01X5550Y9430D02*
G01X7325Y9430D01*
G01X5400Y8400D02*
G01X5400Y7500D01*
G01X5400Y7500D02*
G01X4700Y6800D01*
G01X30500Y13100D02*
G01X30510Y12760D01*
G01X30510Y12760D02*
G01X30870Y12410D01*
G01X30870Y12410D02*
G01X30860Y12010D01*
G01X30860Y12010D02*
G01X30500Y11660D01*
G01X30500Y11660D02*
G01X29790Y11660D01*
G01X29790Y11660D02*
G01X29420Y11290D01*
G01X29420Y11290D02*
G01X28900Y11300D01*
G01X29700Y13100D02*
G01X30500Y13100D01*
G01X7700Y7200D02*
G01X7700Y6700D01*
G01X7700Y6700D02*
G01X7990Y6410D01*
G01X7990Y6410D02*
G01X8580Y6410D01*
G01X8580Y6410D02*
G01X8765Y6595D01*
G01X8765Y6595D02*
G01X8765Y7675D01*
G01X9710Y7675D02*
G01X9710Y6270D01*
G01X9710Y6270D02*
G01X11140Y4840D01*
G01X11140Y4840D02*
G01X14870Y4840D01*
G01X14870Y4840D02*
G01X14990Y4710D01*
G54D62*
G01X14990Y4710D02*
G01X14990Y4100D01*
G54D60*
G01X10025Y7675D02*
G01X10025Y6415D01*
G01X10025Y6415D02*
G01X11290Y5150D01*
G01X11290Y5150D02*
G01X15020Y5150D01*
G01X15020Y5150D02*
G01X15250Y4920D01*
G01X15250Y4920D02*
G01X15250Y4750D01*
G54D62*
G01X15250Y4750D02*
G01X15250Y4100D01*
G54D60*
G01X11600Y15500D02*
G01X11600Y14600D01*
G01X11600Y14600D02*
G01X12730Y13470D01*
G01X12730Y13470D02*
G01X12730Y11950D01*
G01X12730Y11950D02*
G01X12725Y11950D01*
G01X11600Y15500D02*
G01X10400Y16710D01*
G01X10400Y16710D02*
G01X10390Y17690D01*
G01X10390Y17690D02*
G01X9870Y18200D01*
G01X9870Y18200D02*
G01X7010Y18200D01*
G01X7010Y18200D02*
G01X6730Y17910D01*
G01X6730Y17910D02*
G01X2710Y17910D01*
G01X2710Y17910D02*
G01X2300Y17500D01*
G01X2300Y17500D02*
G01X1500Y17500D01*
G01X4000Y15600D02*
G01X3360Y15600D01*
G01X3360Y15600D02*
G01X3010Y15250D01*
G01X3010Y15250D02*
G01X3010Y12270D01*
G01X3010Y12270D02*
G01X2240Y11500D01*
G01X2240Y11500D02*
G01X1500Y11500D01*
G01X4000Y15600D02*
G01X3360Y15600D01*
G01X3360Y15600D02*
G01X3010Y15250D01*
G01X3010Y15250D02*
G01X3010Y13730D01*
G01X3010Y13730D02*
G01X3010Y14310D01*
G54D61*
G01X3010Y14310D03*
G01X8900Y14600D03*
G54D60*
G01X8900Y14600D02*
G01X9390Y14110D01*
G01X9390Y14110D02*
G01X9560Y14110D01*
G01X9560Y14110D02*
G01X9710Y13960D01*
G01X9710Y13960D02*
G01X9710Y13075D01*
G01X18600Y5900D02*
G01X19060Y5900D01*
G01X19060Y5900D02*
G01X19290Y5670D01*
G01X19290Y5670D02*
G01X19290Y3460D01*
G01X19290Y3460D02*
G01X20000Y2750D01*
G01X20000Y2750D02*
G01X20000Y1500D01*
G01X18600Y5900D02*
G01X18590Y6350D01*
G01X18590Y6350D02*
G01X19530Y7280D01*
G01X19530Y7280D02*
G01X19530Y9410D01*
G01X19530Y9410D02*
G01X18590Y10340D01*
G01X18590Y10340D02*
G01X18600Y11370D01*
G01X18600Y11370D02*
G01X18350Y11800D01*
G54D61*
G01X18350Y11800D03*
G01X9740Y11790D03*
G54D60*
G01X9740Y11790D02*
G01X9395Y12135D01*
G01X9395Y12135D02*
G01X9395Y13075D01*
G01X10340Y7675D02*
G01X10340Y6560D01*
G01X10340Y6560D02*
G01X11440Y5460D01*
G01X11440Y5460D02*
G01X15190Y5460D01*
G01X15190Y5460D02*
G01X15500Y5150D01*
G01X15500Y5150D02*
G01X15500Y4750D01*
G54D62*
G01X15500Y4750D02*
G01X15500Y4100D01*

G04 Draw Text*
G54D60*
G01X1472Y8800D02*
G01X1518Y8709D01*
G01X1518Y8709D02*
G01X1654Y8572D01*
G01X1654Y8572D02*
G01X700Y8572D01*

G04 ----------------------- Draw Pilot Holes (scratch)*
%LPC*%
G04 draw pilot holes for part U2*
G04 draw pilot holes for part J3*
G54D66*
G01X27000Y1500D03*
G01X26000Y1500D03*
G01X25000Y1500D03*
G01X24000Y1500D03*
G01X23000Y1500D03*
G01X22000Y1500D03*
G01X21000Y1500D03*
G01X20000Y1500D03*
G01X19000Y1500D03*
G01X18000Y1500D03*
G01X17000Y1500D03*
G01X16000Y1500D03*
G01X15000Y1500D03*
G01X14000Y1500D03*
G01X13000Y1500D03*
G01X12000Y1500D03*
G01X11000Y1500D03*
G01X10000Y1500D03*
G04 draw pilot holes for part R14*
G04 draw pilot holes for part R12*
G04 draw pilot holes for part U1*
G04 draw pilot holes for part R4*
G04 draw pilot holes for part R3*
G04 draw pilot holes for part R2*
G04 draw pilot holes for part R10*
G04 draw pilot holes for part J2*
G01X1500Y11500D03*
G01X1500Y12500D03*
G01X1500Y13500D03*
G01X1500Y14500D03*
G01X1500Y15500D03*
G01X1500Y16500D03*
G01X1500Y17500D03*
G04 draw pilot holes for part J1*
G01X3000Y9800D03*
G01X3000Y10800D03*
G04 draw pilot holes for part R5*
G04 draw pilot holes for part R15*
G04 draw pilot holes for part R16*
G04 draw pilot holes for part R1*
G04 draw pilot holes for part R7*
G04 draw pilot holes for part R6*
G04 draw pilot holes for part R8*
G04 draw pilot holes for part R9*
G04 draw pilot holes for part C6*
G04 draw pilot holes for part C5*
G04 draw pilot holes for part X1*
G01X4700Y6800D03*
G01X2800Y6800D03*
G04 draw pilot holes for part C3*
G04 draw pilot holes for part C4*
G04 draw pilot holes for part C2*
G04 draw pilot holes for part C1*
G04 draw pilot holes for part C7*
G04 draw pilot holes for part D1*
G04 draw pilot holes for part D2*
G04 draw pilot holes for part R11*
G04 draw pilot holes for part R13*
G04 draw pilot holes for part J5*
G01X20900Y15950D03*
G01X16100Y15950D03*
G01X18010Y14100D03*
G01X18990Y14100D03*
G01X18990Y14890D03*
G01X18010Y14890D03*
G04 draw pilot holes for part R17*
G04 draw pilot holes for part R18*
G04 draw pilot holes for part J4*
G01X13900Y12900D03*
G01X13900Y13900D03*
G01X13900Y14900D03*
G01X13900Y15900D03*
G01X13900Y16900D03*
G01X13900Y17900D03*
G04 draw pilot holes for part R27*
G04 draw pilot holes for part C17*
G04 draw pilot holes for part C19*
G04 draw pilot holes for part U5*
G04 draw pilot holes for part L2*
G04 draw pilot holes for part C18*
G01X35000Y6000D03*
G01X35000Y8000D03*
G04 draw pilot holes for part R28*
G04 draw pilot holes for part D5*
G01X32500Y6000D03*
G01X32500Y11000D03*
G04 draw pilot holes for part C16*
G01X27100Y11700D03*
G01X27100Y12700D03*
G04 draw pilot holes for part R30*
G04 draw pilot holes for part R31*
G04 draw pilot holes for part U4*
G04 draw pilot holes for part R24*
G04 draw pilot holes for part R25*
G04 draw pilot holes for part R26*
G04 draw pilot holes for part R21*
G04 draw pilot holes for part C12*
G01X27900Y17000D03*
G01X27900Y18000D03*
G04 draw pilot holes for part L1*
G04 draw pilot holes for part D4*
G01X36000Y13000D03*
G01X36000Y18000D03*
G04 draw pilot holes for part C13*
G01X35000Y12100D03*
G01X35000Y10100D03*
G04 draw pilot holes for part C14*
G04 draw pilot holes for part R23*
G04 draw pilot holes for part C11*
G04 draw pilot holes for part R22*
G04 draw pilot holes for part R29*
G04 draw pilot holes for part C20*
G04 draw pilot holes for part C15*
G04 draw pilot holes for part F1*
G04 draw pilot holes for part C8*
G01X24900Y10300D03*
G01X24900Y11300D03*
G04 draw pilot holes for part C10*
G01X24700Y4000D03*
G01X23700Y4000D03*
G04 draw pilot holes for part C9*
G04 draw pilot holes for part C21*
G04 draw pilot holes for part R32*
G04 draw pilot holes for part C24*
G04 draw pilot holes for part C25*
G04 draw pilot holes for part C23*
G04 draw pilot holes for part C22*
G04 draw pilot holes for part L3*
G04 draw pilot holes for part L4*
G04 draw pilot holes for part R34*
G04 draw pilot holes for part R33*
G04 draw pilot holes for part R35*

G04 Draw pilot holes for vias*
G01X6550Y8170D03*
G01X21090Y8170D03*
G01X7940Y14130D03*
G01X7940Y17350D03*
G01X14250Y8750D03*
G01X15740Y8750D03*
G01X30000Y16970D03*
G01X14250Y9430D03*
G01X15650Y9430D03*
G01X19100Y11160D03*
G01X9080Y11160D03*
G01X14250Y10110D03*
G01X15220Y10110D03*
G01X9100Y8920D03*
G01X10890Y17570D03*
G01X11290Y8900D03*
G01X6760Y12730D03*
G01X19050Y11950D03*
G01X17850Y10250D03*
G01X16550Y10250D03*
G01X12020Y6620D03*
G01X6010Y11450D03*
G01X30320Y12200D03*
G01X29980Y11160D03*
G01X29980Y11160D03*
G01X29980Y11160D03*
G01X12090Y7460D03*
G01X26000Y2370D03*
G01X8960Y10390D03*
G01X9680Y10780D03*
G01X9680Y10780D03*
G01X8960Y10390D03*
G01X12500Y14400D03*
G01X14890Y14400D03*
G01X9590Y14600D03*
G01X9590Y14600D03*
G01X11070Y16900D03*
G01X10700Y9230D03*
G01X10340Y14600D03*
G01X10340Y14600D03*
G01X20000Y4120D03*
G01X18600Y4110D03*
G01X22900Y7360D03*
G01X20000Y4120D03*
G01X9900Y17280D03*
G01X4600Y14100D03*
G01X13300Y8270D03*
G01X13300Y8270D03*
G01X17880Y8260D03*
G01X13300Y8270D03*
G01X17880Y8260D03*
G01X22900Y7360D03*
G01X18600Y4100D03*
G01X4600Y14100D03*
G01X2360Y14010D03*
G01X4600Y14100D03*
G01X6010Y12500D03*
G01X8420Y16700D03*
G01X6600Y16170D03*
G01X4580Y12500D03*
G01X8660Y9700D03*
G01X12770Y7450D03*
G01X11420Y10370D03*
G01X8660Y9700D03*
G01X17020Y7450D03*
G01X12770Y7450D03*
G01X12730Y4100D03*
G01X15000Y3230D03*
G01X17020Y4100D03*
G01X16660Y13520D03*
G01X30790Y17170D03*
G01X28110Y13360D03*
G01X4100Y8400D03*
G01X8660Y9700D03*
G01X26100Y4450D03*
G01X31400Y12420D03*
G01X26100Y4450D03*
G01X12770Y7450D03*
G01X28600Y5690D03*
G01X17020Y7450D03*
G01X17020Y7450D03*
G01X12770Y6640D03*
G01X5810Y6650D03*
G01X4580Y11610D03*
G01X12330Y8160D03*
G01X14020Y11010D03*
G01X15490Y13420D03*
G01X3600Y13420D03*
G01X28010Y12350D03*
G01X26290Y5240D03*
G01X6380Y6000D03*
G01X22900Y6000D03*
G01X3010Y14310D03*
G01X8900Y14600D03*
G01X18350Y11800D03*
G01X9740Y11790D03*
M00*
M02*
