G04 FreePCB version 1.359*
G04 C:\Users\pmesser\_Paul\Design\DSOscope\PCB\A03\CAM_DSOscope_AnalogBrd_A03\bottom_copper.grb*
G04 bottom copper layer *
G04 Scale: 100 percent, Rotated: No, Reflected: No *
%FSLAX24Y24*%
%MOIN*%
%LN bottom copper *%
G04 Rounded Rectangle Macro, params: W/2, H/2, R *
%AMRNDREC*
21,1,$1+$1,$2+$2-$3-$3,0,0,0*
21,1,$1+$1-$3-$3,$2+$2,0,0,0*
1,1,$3+$3,$1-$3,$2-$3*
1,1,$3+$3,$3-$1,$2-$3*
1,1,$3+$3,$1-$3,$3-$2*
1,1,$3+$3,$3-$1,$3-$2*%
G04 Rectangular Thermal Macro, params: W/2, H/2, T/2 *
%AMRECTHERM*
$4=$3/2*
21,1,$1-$3,$2-$3,0-$1/2-$4,0-$2/2-$4,0*
21,1,$1-$3,$2-$3,0-$1/2-$4,$2/2+$4,0*
21,1,$1-$3,$2-$3,$1/2+$4,0-$2/2-$4,0*
21,1,$1-$3,$2-$3,$1/2+$4,$2/2+$4,0*%
%ADD10C,0.010000*%
%ADD11R,0.155000X0.155000*%
%AMTHERM12*7,0,0,0.155000,0.125000,0.025000,45.0*%
%ADD12THERM12*%
%ADD13C,0.001000*%
%ADD14R,0.155000X0.115000*%
%ADD15RNDREC,0.077500X0.057500X0.035000*%
%ADD16R,0.115000X0.115000*%
%ADD17C,0.115000*%
%AMTHERM18*7,0,0,0.115000,0.085000,0.025000,45.0*%
%ADD18THERM18*%
%ADD19RECTHERM,0.052500X0.052500X0.012500*%
%ADD20C,0.105000*%
%ADD21R,0.115000X0.155000*%
%ADD22RNDREC,0.057500X0.077500X0.035000*%
%ADD23C,0.155000*%
%ADD24RNDREC,0.115000X0.090000X0.035000*%
%ADD25RECTHERM,0.055000X0.055000X0.012500*%
%ADD26C,0.110000*%
%ADD27R,0.080000X0.080000*%
%ADD28RECTHERM,0.040000X0.040000X0.012500*%
%ADD29C,0.045000*%
%ADD30C,0.080000*%
%AMTHERM31*7,0,0,0.080000,0.050000,0.025000,45.0*%
%ADD31THERM31*%
%ADD32C,0.015000*%
%ADD33R,0.125000X0.125000*%
%ADD34C,0.125000*%
%ADD35R,0.125000X0.085000*%
%ADD36RNDREC,0.062500X0.042500X0.020000*%
%ADD37R,0.085000X0.085000*%
%ADD38C,0.085000*%
%ADD39R,0.075000X0.075000*%
%ADD40C,0.075000*%
%ADD41R,0.085000X0.125000*%
%ADD42RNDREC,0.042500X0.062500X0.020000*%
%ADD43RNDREC,0.100000X0.075000X0.020000*%
%ADD44R,0.080000X0.080000*%
%ADD45R,0.050000X0.050000*%
%ADD46C,0.050000*%
G90*
G70D02*

G04 Step and Repeat for panelization *

G04 ----------------------- Draw board outline (positive)*
%LPD*%
G54D10*
G01X0Y0D02*
G01X0Y19000D01*
G04 end of side 1*
G01X37000Y19000D01*
G04 end of side 2*
G01X37000Y0D01*
G04 end of side 3*
G01X0Y0D01*

G04 ----------------------- Draw copper area (positive)*
G36*
G01X36750Y250D02*
G01X250Y250D01*
G01X250Y18750D01*
G01X36750Y18750D01*
G01X36750Y250D01*
G37*

G04 -------------------- Draw copper area clearances (negative)*
%LPC*%

G04 Draw clearances for pads*
G54D11*
G01X1500Y5500D03*
G54D12*
G01X1500Y7500D03*
G54D13*
G54D14*
G01X6900Y7000D03*
G54D15*
G01X6900Y8000D03*
G01X6900Y9000D03*
G54D14*
G01X5200Y7000D03*
G54D15*
G01X5200Y8000D03*
G01X5200Y9000D03*
G54D16*
G01X2500Y2500D03*
G54D17*
G01X3500Y2500D03*
G01X4500Y2500D03*
G54D18*
G01X6500Y2500D03*
G54D13*
G54D17*
G01X2500Y900D03*
G01X3500Y900D03*
G01X4500Y900D03*
G01X6500Y900D03*
G54D14*
G01X6900Y13000D03*
G54D15*
G01X6900Y14000D03*
G01X6900Y15000D03*
G54D14*
G01X5200Y13000D03*
G54D15*
G01X5200Y14000D03*
G01X5200Y15000D03*
G54D11*
G01X35500Y7500D03*
G54D12*
G01X35500Y5500D03*
G54D13*
G54D14*
G01X31800Y7000D03*
G54D15*
G01X31800Y8000D03*
G01X31800Y9000D03*
G54D14*
G01X30100Y7000D03*
G54D15*
G01X30100Y8000D03*
G01X30100Y9000D03*
G54D16*
G01X30500Y2500D03*
G54D17*
G01X31500Y2500D03*
G01X32500Y2500D03*
G54D18*
G01X34500Y2500D03*
G54D13*
G54D17*
G01X30500Y900D03*
G01X31500Y900D03*
G01X32500Y900D03*
G01X34500Y900D03*
G54D14*
G01X31800Y13000D03*
G54D15*
G01X31800Y14000D03*
G01X31800Y15000D03*
G54D14*
G01X30100Y13000D03*
G54D15*
G01X30100Y14000D03*
G01X30100Y15000D03*
G54D19*
G01X1800Y15900D03*
G54D13*
G54D20*
G01X1800Y14900D03*
G01X1800Y13900D03*
G54D21*
G01X19500Y14900D03*
G54D22*
G01X18500Y14900D03*
G01X17500Y14900D03*
G54D21*
G01X19500Y13200D03*
G54D22*
G01X18500Y13200D03*
G01X17500Y13200D03*
G54D16*
G01X10000Y1500D03*
G54D17*
G01X11000Y1500D03*
G01X12000Y1500D03*
G01X13000Y1500D03*
G01X14000Y1500D03*
G01X15000Y1500D03*
G01X16000Y1500D03*
G01X17000Y1500D03*
G54D18*
G01X18000Y1500D03*
G54D13*
G54D17*
G01X19000Y1500D03*
G54D18*
G01X20000Y1500D03*
G54D13*
G54D17*
G01X21000Y1500D03*
G54D18*
G01X22000Y1500D03*
G54D13*
G54D17*
G01X23000Y1500D03*
G54D18*
G01X24000Y1500D03*
G54D13*
G54D17*
G01X25000Y1500D03*
G01X26000Y1500D03*
G01X27000Y1500D03*
G54D11*
G01X14600Y5500D03*
G54D23*
G01X14600Y7000D03*
G54D12*
G01X14600Y8500D03*
G54D13*
G54D24*
G01X18500Y4800D03*
G01X18500Y9200D03*
G54D19*
G01X34000Y15900D03*
G54D13*
G54D20*
G01X34000Y14900D03*
G01X34000Y13900D03*
G54D25*
G01X2000Y10400D03*
G54D13*
G54D26*
G01X3000Y10400D03*
G54D27*
G01X28300Y7000D03*
G54D28*
G01X28300Y7900D03*
G54D13*
G54D27*
G01X23300Y7000D03*
G54D28*
G01X24200Y7000D03*
G54D13*
G54D27*
G01X9400Y7900D03*
G54D28*
G01X9400Y7000D03*
G54D13*
G54D28*
G01X6900Y4900D03*
G54D13*
G54D27*
G01X6900Y5800D03*
G54D28*
G01X33200Y7900D03*
G54D13*
G54D27*
G01X33200Y7000D03*
G54D16*
G01X35500Y11500D03*
G54D17*
G01X35500Y12500D03*
G54D18*
G01X35500Y13500D03*
G54D13*
G54D17*
G01X35500Y14500D03*
G01X35500Y15500D03*
G01X35500Y16500D03*
G01X35500Y17500D03*

G04 Draw clearances for traces*
G54D29*
G01X35500Y16500D02*
G01X34850Y16500D01*
G01X34850Y16500D02*
G01X34450Y16900D01*
G01X34450Y16900D02*
G01X33600Y16900D01*
G01X33600Y16900D02*
G01X33250Y16550D01*
G01X33250Y16550D02*
G01X33250Y12300D01*
G01X33250Y12300D02*
G01X32850Y11900D01*
G01X32850Y11900D02*
G01X29350Y11900D01*
G01X29350Y11900D02*
G01X28650Y12600D01*
G01X28650Y12600D02*
G01X28650Y14400D01*
G01X28650Y14400D02*
G01X28100Y14950D01*
G01X28100Y14950D02*
G01X23200Y14950D01*
G01X23200Y14950D02*
G01X22200Y15950D01*
G01X22200Y15950D02*
G01X18750Y15950D01*
G01X18750Y15950D02*
G01X18500Y15700D01*
G01X18500Y15700D02*
G01X18500Y14900D01*
G54D30*
G01X14000Y2600D03*
G54D29*
G01X14000Y1500D02*
G01X14000Y2600D01*
G54D30*
G01X9050Y2600D03*
G01X14000Y2600D03*
G01X27850Y2600D03*
G54D29*
G01X27850Y2600D02*
G01X28750Y1700D01*
G01X28750Y1700D02*
G01X32300Y1700D01*
G01X32300Y1700D02*
G01X32500Y1500D01*
G01X32500Y1500D02*
G01X32500Y900D01*
G54D30*
G01X17450Y16700D03*
G54D29*
G01X17450Y16700D02*
G01X16400Y16700D01*
G01X16400Y16700D02*
G01X15900Y17200D01*
G01X15900Y17200D02*
G01X15250Y17200D01*
G01X15250Y17200D02*
G01X15000Y16950D01*
G54D30*
G01X14400Y16950D03*
G54D29*
G01X15000Y16950D02*
G01X14400Y16950D01*
G54D30*
G01X19550Y16600D03*
G54D29*
G01X19550Y16600D02*
G01X18450Y16600D01*
G01X18450Y16600D02*
G01X18000Y16150D01*
G01X18000Y16150D02*
G01X16100Y16150D01*
G54D30*
G01X15550Y16700D03*
G54D29*
G01X16100Y16150D02*
G01X15550Y16700D01*
G01X31800Y13000D02*
G01X32600Y13000D01*
G01X32600Y13000D02*
G01X32850Y13250D01*
G01X32850Y13250D02*
G01X32850Y16550D01*
G01X32850Y16550D02*
G01X31500Y17900D01*
G01X31500Y17900D02*
G01X13650Y17900D01*
G01X13650Y17900D02*
G01X13250Y17500D01*
G01X13250Y17500D02*
G01X4750Y17500D01*
G01X4750Y17500D02*
G01X3750Y16500D01*
G01X3750Y16500D02*
G01X3750Y13600D01*
G01X3750Y13600D02*
G01X4350Y13000D01*
G01X4350Y13000D02*
G01X5200Y13000D01*
G01X1500Y5500D02*
G01X3500Y3500D01*
G01X3500Y3500D02*
G01X3500Y2500D01*
G01X32500Y2500D02*
G01X32500Y3850D01*
G01X32500Y3850D02*
G01X30100Y6250D01*
G54D30*
G01X30100Y7000D03*
G54D29*
G01X30100Y6250D02*
G01X30100Y7000D01*
G01X28300Y7000D02*
G01X30100Y7000D01*
G01X19500Y13200D02*
G01X19500Y12150D01*
G01X19500Y12150D02*
G01X19350Y12000D01*
G01X19350Y12000D02*
G01X15200Y12000D01*
G54D30*
G01X14300Y11100D03*
G54D29*
G01X15200Y12000D02*
G01X14300Y11100D01*
G54D30*
G01X27650Y10400D03*
G01X27650Y3350D03*
G01X22250Y7000D03*
G01X22250Y7000D03*
G54D29*
G01X22250Y7000D02*
G01X22250Y6500D01*
G01X22250Y6500D02*
G01X22750Y6000D01*
G01X22750Y6000D02*
G01X23250Y6000D01*
G01X23250Y6000D02*
G01X25450Y3800D01*
G01X25450Y3800D02*
G01X25450Y2700D01*
G01X25450Y2700D02*
G01X25000Y2250D01*
G01X25000Y2250D02*
G01X25000Y1500D01*
G54D30*
G01X22250Y7000D03*
G54D29*
G01X23300Y7000D02*
G01X22250Y7000D01*
G54D30*
G01X15800Y11150D03*
G01X26900Y11150D03*
G01X10750Y7750D03*
G01X16950Y7750D03*
G01X15800Y11150D03*
G01X12300Y11150D03*
G01X23300Y9250D03*
G01X23300Y9250D02*
G01X25000Y9250D01*
G01X26900Y11150D03*
G01X25000Y9250D02*
G01X26900Y11150D01*
G01X15800Y11150D03*
G01X12300Y11150D03*
G01X7800Y10350D03*
G01X11500Y10350D03*
G01X3400Y17750D03*
G54D29*
G01X3400Y17750D02*
G01X3400Y12600D01*
G01X3400Y12600D02*
G01X4550Y11450D01*
G01X4550Y11450D02*
G01X5900Y11450D01*
G54D30*
G01X6800Y10550D03*
G54D29*
G01X5900Y11450D02*
G01X6800Y10550D01*
G01X6900Y7000D02*
G01X6900Y5800D01*
G54D30*
G01X13800Y14300D03*
G01X13800Y14300D02*
G01X13100Y15000D01*
G01X13100Y15000D02*
G01X11900Y15000D01*
G01X11900Y15000D02*
G01X11200Y14300D01*
G01X10250Y14300D03*
G01X11200Y14300D02*
G01X10250Y14300D01*
G01X10250Y14300D03*
G01X10250Y14300D02*
G01X10250Y13850D01*
G01X10250Y13850D02*
G01X9400Y13000D01*
G01X9400Y13000D02*
G01X9400Y9150D01*
G01X8950Y9150D03*
G01X9400Y9150D02*
G01X8950Y9150D01*
G01X13800Y14300D03*
G01X22800Y14300D03*
G01X24800Y10200D03*
G01X24800Y3400D03*
G01X9400Y7900D02*
G01X9400Y13000D01*
G54D29*
G01X9400Y13000D02*
G01X10250Y13850D01*
G54D30*
G01X10250Y14300D03*
G54D29*
G01X10250Y13850D02*
G01X10250Y14300D01*
G54D30*
G01X22200Y5500D03*
G01X20050Y5500D03*
G01X20050Y5500D03*
G01X13400Y6300D03*
G01X13400Y6300D02*
G01X10500Y9200D01*
G01X10500Y11100D03*
G01X10500Y9200D02*
G01X10500Y11100D01*
G01X1000Y11100D03*
G01X22200Y5500D03*
G01X20050Y5500D03*
G01X20050Y5500D03*
G01X22200Y5500D03*
G01X22200Y5500D03*
G01X20050Y5500D03*
G54D29*
G01X31800Y7000D02*
G01X33200Y7000D01*
G01X17500Y13200D02*
G01X16500Y13200D01*
G54D30*
G01X14600Y15100D03*
G54D29*
G01X16500Y13200D02*
G01X14600Y15100D01*
G54D31*
G01X10050Y15000D03*
G01X12750Y14300D03*
G01X12650Y16550D03*
G01X12750Y14300D03*
G01X22000Y1500D03*
G01X23150Y13400D03*
G01X23150Y13400D03*
G01X26850Y14300D03*
G01X32500Y10500D03*
G01X26850Y9800D03*
G01X22400Y8650D03*
G01X20000Y1500D03*
G01X11650Y9600D03*
G01X12500Y4800D03*
G01X9350Y3600D03*
G01X5100Y9900D03*
G01X17150Y10650D03*
G01X25550Y7300D03*
G01X22400Y8650D03*
G01X25900Y4200D03*
G01X20700Y13400D03*
G01X23150Y13400D03*
G54D29*
G01X6500Y900D02*
G01X6500Y1500D01*
G01X6500Y1500D02*
G01X6300Y1700D01*
G01X6300Y1700D02*
G01X3750Y1700D01*
G01X3750Y1700D02*
G01X3500Y1450D01*
G01X3500Y1450D02*
G01X3500Y900D01*
G01X13000Y1500D02*
G01X13000Y2250D01*
G01X13000Y2250D02*
G01X12700Y2550D01*
G01X12700Y2550D02*
G01X9750Y2550D01*
G01X9750Y2550D02*
G01X8900Y1700D01*
G01X8900Y1700D02*
G01X6750Y1700D01*
G01X6750Y1700D02*
G01X6500Y1450D01*
G01X6500Y1450D02*
G01X6500Y900D01*
G54D30*
G01X16550Y4500D03*
G01X11850Y4500D03*
G54D29*
G01X31800Y15000D02*
G01X31800Y16950D01*
G01X31800Y16950D02*
G01X31250Y17500D01*
G01X31250Y17500D02*
G01X13900Y17500D01*
G01X13900Y17500D02*
G01X13500Y17100D01*
G01X13500Y17100D02*
G01X4950Y17100D01*
G01X4950Y17100D02*
G01X4100Y16250D01*
G01X4100Y16250D02*
G01X4100Y15250D01*
G01X4100Y15250D02*
G01X4350Y15000D01*
G01X4350Y15000D02*
G01X5200Y15000D01*

G04 Draw clearances for text*
G54D32*
G01X35590Y10227D02*
G01X35590Y10272D01*
G01X35590Y10272D02*
G01X35545Y10363D01*
G01X35545Y10363D02*
G01X35500Y10409D01*
G01X35500Y10409D02*
G01X35409Y10454D01*
G01X35409Y10454D02*
G01X35227Y10454D01*
G01X35227Y10454D02*
G01X35136Y10409D01*
G01X35136Y10409D02*
G01X35090Y10363D01*
G01X35090Y10363D02*
G01X35045Y10272D01*
G01X35045Y10272D02*
G01X35045Y10181D01*
G01X35045Y10181D02*
G01X35090Y10090D01*
G01X35090Y10090D02*
G01X35181Y9954D01*
G01X35181Y9954D02*
G01X35636Y9500D01*
G01X35636Y9500D02*
G01X35000Y9500D01*
G54D10*
G01X24354Y16020D02*
G01X24029Y16020D01*
G01X24029Y16020D02*
G01X24206Y15784D01*
G01X24206Y15784D02*
G01X24118Y15784D01*
G01X24118Y15784D02*
G01X24059Y15754D01*
G01X24059Y15754D02*
G01X24029Y15725D01*
G01X24029Y15725D02*
G01X24000Y15636D01*
G01X24000Y15636D02*
G01X24000Y15577D01*
G01X24000Y15577D02*
G01X24029Y15488D01*
G01X24029Y15488D02*
G01X24088Y15429D01*
G01X24088Y15429D02*
G01X24177Y15400D01*
G01X24177Y15400D02*
G01X24265Y15400D01*
G01X24265Y15400D02*
G01X24354Y15429D01*
G01X24354Y15429D02*
G01X24384Y15459D01*
G01X24384Y15459D02*
G01X24413Y15518D01*
G01X24886Y16020D02*
G01X24975Y15990D01*
G01X24975Y15990D02*
G01X25034Y15902D01*
G01X25034Y15902D02*
G01X25063Y15754D01*
G01X25063Y15754D02*
G01X25063Y15665D01*
G01X25063Y15665D02*
G01X25034Y15518D01*
G01X25034Y15518D02*
G01X24975Y15429D01*
G01X24975Y15429D02*
G01X24886Y15400D01*
G01X24886Y15400D02*
G01X24827Y15400D01*
G01X24827Y15400D02*
G01X24738Y15429D01*
G01X24738Y15429D02*
G01X24679Y15518D01*
G01X24679Y15518D02*
G01X24650Y15665D01*
G01X24650Y15665D02*
G01X24650Y15754D01*
G01X24650Y15754D02*
G01X24679Y15902D01*
G01X24679Y15902D02*
G01X24738Y15990D01*
G01X24738Y15990D02*
G01X24827Y16020D01*
G01X24827Y16020D02*
G01X24886Y16020D01*
G01X25536Y16020D02*
G01X25772Y15400D01*
G01X25536Y16020D02*
G01X25300Y15400D01*
G01X25684Y15606D02*
G01X25388Y15606D01*
G01X26954Y16020D02*
G01X26718Y15400D01*
G01X26481Y16020D02*
G01X26718Y15400D01*
G01X27574Y16020D02*
G01X27574Y15400D01*
G01X27574Y16020D02*
G01X27190Y16020D01*
G01X27574Y15725D02*
G01X27338Y15725D01*
G01X27574Y15400D02*
G01X27190Y15400D01*
G01X28224Y16020D02*
G01X28224Y15400D01*
G01X28224Y16020D02*
G01X27959Y16020D01*
G01X27959Y16020D02*
G01X27870Y15990D01*
G01X27870Y15990D02*
G01X27840Y15961D01*
G01X27840Y15961D02*
G01X27811Y15902D01*
G01X27811Y15902D02*
G01X27811Y15843D01*
G01X27811Y15843D02*
G01X27840Y15784D01*
G01X27840Y15784D02*
G01X27870Y15754D01*
G01X27870Y15754D02*
G01X27959Y15725D01*
G01X27959Y15725D02*
G01X28224Y15725D01*
G01X28018Y15725D02*
G01X27811Y15400D01*
G01X6400Y16572D02*
G01X6429Y16631D01*
G01X6429Y16631D02*
G01X6488Y16690D01*
G01X6488Y16690D02*
G01X6547Y16720D01*
G01X6547Y16720D02*
G01X6665Y16720D01*
G01X6665Y16720D02*
G01X6725Y16690D01*
G01X6725Y16690D02*
G01X6784Y16631D01*
G01X6784Y16631D02*
G01X6813Y16572D01*
G01X6813Y16572D02*
G01X6843Y16484D01*
G01X6843Y16484D02*
G01X6843Y16336D01*
G01X6843Y16336D02*
G01X6813Y16247D01*
G01X6813Y16247D02*
G01X6784Y16188D01*
G01X6784Y16188D02*
G01X6725Y16129D01*
G01X6725Y16129D02*
G01X6665Y16100D01*
G01X6665Y16100D02*
G01X6547Y16100D01*
G01X6547Y16100D02*
G01X6488Y16129D01*
G01X6488Y16129D02*
G01X6429Y16188D01*
G01X6429Y16188D02*
G01X6400Y16247D01*
G01X6400Y16247D02*
G01X6400Y16336D01*
G01X6547Y16336D02*
G01X6400Y16336D01*
G01X7493Y16720D02*
G01X7493Y16100D01*
G01X7493Y16720D02*
G01X7227Y16720D01*
G01X7227Y16720D02*
G01X7138Y16690D01*
G01X7138Y16690D02*
G01X7109Y16661D01*
G01X7109Y16661D02*
G01X7079Y16602D01*
G01X7079Y16602D02*
G01X7079Y16543D01*
G01X7079Y16543D02*
G01X7109Y16484D01*
G01X7109Y16484D02*
G01X7138Y16454D01*
G01X7138Y16454D02*
G01X7227Y16425D01*
G01X7227Y16425D02*
G01X7493Y16425D01*
G01X7286Y16425D02*
G01X7079Y16100D01*
G01X8024Y16720D02*
G01X8084Y16690D01*
G01X8084Y16690D02*
G01X8143Y16631D01*
G01X8143Y16631D02*
G01X8172Y16572D01*
G01X8172Y16572D02*
G01X8202Y16484D01*
G01X8202Y16484D02*
G01X8202Y16336D01*
G01X8202Y16336D02*
G01X8172Y16247D01*
G01X8172Y16247D02*
G01X8143Y16188D01*
G01X8143Y16188D02*
G01X8084Y16129D01*
G01X8084Y16129D02*
G01X8024Y16100D01*
G01X8024Y16100D02*
G01X7906Y16100D01*
G01X7906Y16100D02*
G01X7847Y16129D01*
G01X7847Y16129D02*
G01X7788Y16188D01*
G01X7788Y16188D02*
G01X7759Y16247D01*
G01X7759Y16247D02*
G01X7729Y16336D01*
G01X7729Y16336D02*
G01X7729Y16484D01*
G01X7729Y16484D02*
G01X7759Y16572D01*
G01X7759Y16572D02*
G01X7788Y16631D01*
G01X7788Y16631D02*
G01X7847Y16690D01*
G01X7847Y16690D02*
G01X7906Y16720D01*
G01X7906Y16720D02*
G01X8024Y16720D01*
G01X8468Y16159D02*
G01X8497Y16129D01*
G01X8497Y16129D02*
G01X8468Y16100D01*
G01X8468Y16100D02*
G01X8438Y16129D01*
G01X8438Y16129D02*
G01X8468Y16159D01*
G01X8734Y16572D02*
G01X8763Y16631D01*
G01X8763Y16631D02*
G01X8822Y16690D01*
G01X8822Y16690D02*
G01X8881Y16720D01*
G01X8881Y16720D02*
G01X8999Y16720D01*
G01X8999Y16720D02*
G01X9059Y16690D01*
G01X9059Y16690D02*
G01X9118Y16631D01*
G01X9118Y16631D02*
G01X9147Y16572D01*
G01X9147Y16572D02*
G01X9177Y16484D01*
G01X9177Y16484D02*
G01X9177Y16336D01*
G01X9177Y16336D02*
G01X9147Y16247D01*
G01X9147Y16247D02*
G01X9118Y16188D01*
G01X9118Y16188D02*
G01X9059Y16129D01*
G01X9059Y16129D02*
G01X8999Y16100D01*
G01X8999Y16100D02*
G01X8881Y16100D01*
G01X8881Y16100D02*
G01X8822Y16129D01*
G01X8822Y16129D02*
G01X8763Y16188D01*
G01X8763Y16188D02*
G01X8734Y16247D01*
G01X8734Y16247D02*
G01X8734Y16336D01*
G01X8881Y16336D02*
G01X8734Y16336D01*
G01X9827Y16720D02*
G01X9827Y16100D01*
G01X9827Y16720D02*
G01X9561Y16720D01*
G01X9561Y16720D02*
G01X9472Y16690D01*
G01X9472Y16690D02*
G01X9443Y16661D01*
G01X9443Y16661D02*
G01X9413Y16602D01*
G01X9413Y16602D02*
G01X9413Y16543D01*
G01X9413Y16543D02*
G01X9443Y16484D01*
G01X9443Y16484D02*
G01X9472Y16454D01*
G01X9472Y16454D02*
G01X9561Y16425D01*
G01X9561Y16425D02*
G01X9827Y16425D01*
G01X9620Y16425D02*
G01X9413Y16100D01*
G01X10063Y16572D02*
G01X10093Y16631D01*
G01X10093Y16631D02*
G01X10152Y16690D01*
G01X10152Y16690D02*
G01X10211Y16720D01*
G01X10211Y16720D02*
G01X10329Y16720D01*
G01X10329Y16720D02*
G01X10388Y16690D01*
G01X10388Y16690D02*
G01X10447Y16631D01*
G01X10447Y16631D02*
G01X10477Y16572D01*
G01X10477Y16572D02*
G01X10506Y16484D01*
G01X10506Y16484D02*
G01X10506Y16336D01*
G01X10506Y16336D02*
G01X10477Y16247D01*
G01X10477Y16247D02*
G01X10447Y16188D01*
G01X10447Y16188D02*
G01X10388Y16129D01*
G01X10388Y16129D02*
G01X10329Y16100D01*
G01X10329Y16100D02*
G01X10211Y16100D01*
G01X10211Y16100D02*
G01X10152Y16129D01*
G01X10152Y16129D02*
G01X10093Y16188D01*
G01X10093Y16188D02*
G01X10063Y16247D01*
G01X11038Y16720D02*
G01X11097Y16690D01*
G01X11097Y16690D02*
G01X11156Y16631D01*
G01X11156Y16631D02*
G01X11186Y16572D01*
G01X11186Y16572D02*
G01X11215Y16484D01*
G01X11215Y16484D02*
G01X11215Y16336D01*
G01X11215Y16336D02*
G01X11186Y16247D01*
G01X11186Y16247D02*
G01X11156Y16188D01*
G01X11156Y16188D02*
G01X11097Y16129D01*
G01X11097Y16129D02*
G01X11038Y16100D01*
G01X11038Y16100D02*
G01X10920Y16100D01*
G01X10920Y16100D02*
G01X10861Y16129D01*
G01X10861Y16129D02*
G01X10802Y16188D01*
G01X10802Y16188D02*
G01X10772Y16247D01*
G01X10772Y16247D02*
G01X10743Y16336D01*
G01X10743Y16336D02*
G01X10743Y16484D01*
G01X10743Y16484D02*
G01X10772Y16572D01*
G01X10772Y16572D02*
G01X10802Y16631D01*
G01X10802Y16631D02*
G01X10861Y16690D01*
G01X10861Y16690D02*
G01X10920Y16720D01*
G01X10920Y16720D02*
G01X11038Y16720D01*
G01X20300Y17020D02*
G01X20300Y16400D01*
G01X20300Y16725D02*
G01X20359Y16784D01*
G01X20359Y16784D02*
G01X20418Y16813D01*
G01X20418Y16813D02*
G01X20506Y16813D01*
G01X20506Y16813D02*
G01X20565Y16784D01*
G01X20565Y16784D02*
G01X20625Y16725D01*
G01X20625Y16725D02*
G01X20654Y16636D01*
G01X20654Y16636D02*
G01X20654Y16577D01*
G01X20654Y16577D02*
G01X20625Y16488D01*
G01X20625Y16488D02*
G01X20565Y16429D01*
G01X20565Y16429D02*
G01X20506Y16400D01*
G01X20506Y16400D02*
G01X20418Y16400D01*
G01X20418Y16400D02*
G01X20359Y16429D01*
G01X20359Y16429D02*
G01X20300Y16488D01*
G01X21127Y16813D02*
G01X21127Y16400D01*
G01X21127Y16636D02*
G01X21097Y16725D01*
G01X21097Y16725D02*
G01X21038Y16784D01*
G01X21038Y16784D02*
G01X20979Y16813D01*
G01X20979Y16813D02*
G01X20890Y16813D01*
G01X21777Y17020D02*
G01X21777Y16400D01*
G01X21777Y17020D02*
G01X21511Y17020D01*
G01X21511Y17020D02*
G01X21422Y16990D01*
G01X21422Y16990D02*
G01X21393Y16961D01*
G01X21393Y16961D02*
G01X21363Y16902D01*
G01X21363Y16902D02*
G01X21363Y16843D01*
G01X21363Y16843D02*
G01X21393Y16784D01*
G01X21393Y16784D02*
G01X21422Y16754D01*
G01X21422Y16754D02*
G01X21511Y16725D01*
G01X21777Y16725D02*
G01X21511Y16725D01*
G01X21511Y16725D02*
G01X21422Y16695D01*
G01X21422Y16695D02*
G01X21393Y16665D01*
G01X21393Y16665D02*
G01X21363Y16606D01*
G01X21363Y16606D02*
G01X21363Y16518D01*
G01X21363Y16518D02*
G01X21393Y16459D01*
G01X21393Y16459D02*
G01X21422Y16429D01*
G01X21422Y16429D02*
G01X21511Y16400D01*
G01X21511Y16400D02*
G01X21777Y16400D01*
G01X22486Y16813D02*
G01X22486Y16340D01*
G01X22486Y16340D02*
G01X22515Y16252D01*
G01X22515Y16252D02*
G01X22545Y16222D01*
G01X22545Y16222D02*
G01X22604Y16193D01*
G01X22604Y16193D02*
G01X22693Y16193D01*
G01X22693Y16193D02*
G01X22752Y16222D01*
G01X22486Y16725D02*
G01X22545Y16784D01*
G01X22545Y16784D02*
G01X22604Y16813D01*
G01X22604Y16813D02*
G01X22693Y16813D01*
G01X22693Y16813D02*
G01X22752Y16784D01*
G01X22752Y16784D02*
G01X22811Y16725D01*
G01X22811Y16725D02*
G01X22840Y16636D01*
G01X22840Y16636D02*
G01X22840Y16577D01*
G01X22840Y16577D02*
G01X22811Y16488D01*
G01X22811Y16488D02*
G01X22752Y16429D01*
G01X22752Y16429D02*
G01X22693Y16400D01*
G01X22693Y16400D02*
G01X22604Y16400D01*
G01X22604Y16400D02*
G01X22545Y16429D01*
G01X22545Y16429D02*
G01X22486Y16488D01*
G01X23313Y16813D02*
G01X23372Y16784D01*
G01X23372Y16784D02*
G01X23431Y16725D01*
G01X23431Y16725D02*
G01X23461Y16636D01*
G01X23461Y16636D02*
G01X23461Y16577D01*
G01X23461Y16577D02*
G01X23431Y16488D01*
G01X23431Y16488D02*
G01X23372Y16429D01*
G01X23372Y16429D02*
G01X23313Y16400D01*
G01X23313Y16400D02*
G01X23224Y16400D01*
G01X23224Y16400D02*
G01X23165Y16429D01*
G01X23165Y16429D02*
G01X23106Y16488D01*
G01X23106Y16488D02*
G01X23077Y16577D01*
G01X23077Y16577D02*
G01X23077Y16636D01*
G01X23077Y16636D02*
G01X23106Y16725D01*
G01X23106Y16725D02*
G01X23165Y16784D01*
G01X23165Y16784D02*
G01X23224Y16813D01*
G01X23224Y16813D02*
G01X23313Y16813D01*
G01X23697Y17020D02*
G01X23697Y16400D01*
G01X23934Y16813D02*
G01X23934Y16400D01*
G01X23934Y16725D02*
G01X23993Y16784D01*
G01X23993Y16784D02*
G01X24052Y16813D01*
G01X24052Y16813D02*
G01X24140Y16813D01*
G01X24140Y16813D02*
G01X24199Y16784D01*
G01X24199Y16784D02*
G01X24259Y16725D01*
G01X24259Y16725D02*
G01X24288Y16636D01*
G01X24288Y16636D02*
G01X24288Y16577D01*
G01X24288Y16577D02*
G01X24259Y16488D01*
G01X24259Y16488D02*
G01X24199Y16429D01*
G01X24199Y16429D02*
G01X24140Y16400D01*
G01X24140Y16400D02*
G01X24052Y16400D01*
G01X24052Y16400D02*
G01X23993Y16429D01*
G01X23993Y16429D02*
G01X23934Y16488D01*
G01X24850Y16813D02*
G01X24850Y16400D01*
G01X24850Y16695D02*
G01X24761Y16784D01*
G01X24761Y16784D02*
G01X24702Y16813D01*
G01X24702Y16813D02*
G01X24613Y16813D01*
G01X24613Y16813D02*
G01X24554Y16784D01*
G01X24554Y16784D02*
G01X24525Y16695D01*
G01X24525Y16695D02*
G01X24525Y16400D01*
G01X25322Y17020D02*
G01X25559Y16400D01*
G01X25322Y17020D02*
G01X25086Y16400D01*
G01X25470Y16606D02*
G01X25174Y16606D01*
G01X26622Y16636D02*
G01X26268Y16636D01*
G01X26268Y16636D02*
G01X26268Y16695D01*
G01X26268Y16695D02*
G01X26297Y16754D01*
G01X26297Y16754D02*
G01X26327Y16784D01*
G01X26327Y16784D02*
G01X26386Y16813D01*
G01X26386Y16813D02*
G01X26474Y16813D01*
G01X26474Y16813D02*
G01X26534Y16784D01*
G01X26534Y16784D02*
G01X26593Y16725D01*
G01X26593Y16725D02*
G01X26622Y16636D01*
G01X26622Y16636D02*
G01X26622Y16577D01*
G01X26622Y16577D02*
G01X26593Y16488D01*
G01X26593Y16488D02*
G01X26534Y16429D01*
G01X26534Y16429D02*
G01X26474Y16400D01*
G01X26474Y16400D02*
G01X26386Y16400D01*
G01X26386Y16400D02*
G01X26327Y16429D01*
G01X26327Y16429D02*
G01X26268Y16488D01*
G01X27213Y16813D02*
G01X27213Y16193D01*
G01X27213Y16725D02*
G01X27154Y16784D01*
G01X27154Y16784D02*
G01X27095Y16813D01*
G01X27095Y16813D02*
G01X27006Y16813D01*
G01X27006Y16813D02*
G01X26947Y16784D01*
G01X26947Y16784D02*
G01X26888Y16725D01*
G01X26888Y16725D02*
G01X26859Y16636D01*
G01X26859Y16636D02*
G01X26859Y16577D01*
G01X26859Y16577D02*
G01X26888Y16488D01*
G01X26888Y16488D02*
G01X26947Y16429D01*
G01X26947Y16429D02*
G01X27006Y16400D01*
G01X27006Y16400D02*
G01X27095Y16400D01*
G01X27095Y16400D02*
G01X27154Y16429D01*
G01X27154Y16429D02*
G01X27213Y16488D01*
G01X27686Y16813D02*
G01X27745Y16784D01*
G01X27745Y16784D02*
G01X27804Y16725D01*
G01X27804Y16725D02*
G01X27834Y16636D01*
G01X27834Y16636D02*
G01X27834Y16577D01*
G01X27834Y16577D02*
G01X27804Y16488D01*
G01X27804Y16488D02*
G01X27745Y16429D01*
G01X27745Y16429D02*
G01X27686Y16400D01*
G01X27686Y16400D02*
G01X27597Y16400D01*
G01X27597Y16400D02*
G01X27538Y16429D01*
G01X27538Y16429D02*
G01X27479Y16488D01*
G01X27479Y16488D02*
G01X27450Y16577D01*
G01X27450Y16577D02*
G01X27450Y16636D01*
G01X27450Y16636D02*
G01X27479Y16725D01*
G01X27479Y16725D02*
G01X27538Y16784D01*
G01X27538Y16784D02*
G01X27597Y16813D01*
G01X27597Y16813D02*
G01X27686Y16813D01*
G01X28070Y16725D02*
G01X28129Y16784D01*
G01X28129Y16784D02*
G01X28188Y16813D01*
G01X28188Y16813D02*
G01X28277Y16813D01*
G01X28277Y16813D02*
G01X28336Y16784D01*
G01X28336Y16784D02*
G01X28395Y16725D01*
G01X28395Y16725D02*
G01X28424Y16636D01*
G01X28424Y16636D02*
G01X28424Y16577D01*
G01X28424Y16577D02*
G01X28395Y16488D01*
G01X28395Y16488D02*
G01X28336Y16429D01*
G01X28336Y16429D02*
G01X28277Y16400D01*
G01X28277Y16400D02*
G01X28188Y16400D01*
G01X28188Y16400D02*
G01X28129Y16429D01*
G01X28129Y16429D02*
G01X28070Y16488D01*
G01X28661Y16725D02*
G01X28690Y16784D01*
G01X28690Y16784D02*
G01X28779Y16813D01*
G01X28779Y16813D02*
G01X28868Y16813D01*
G01X28868Y16813D02*
G01X28956Y16784D01*
G01X28956Y16784D02*
G01X28986Y16725D01*
G01X28986Y16725D02*
G01X28956Y16665D01*
G01X28956Y16665D02*
G01X28897Y16636D01*
G01X28897Y16636D02*
G01X28749Y16606D01*
G01X28749Y16606D02*
G01X28690Y16577D01*
G01X28690Y16577D02*
G01X28661Y16518D01*
G01X28661Y16518D02*
G01X28661Y16488D01*
G01X28661Y16488D02*
G01X28690Y16429D01*
G01X28690Y16429D02*
G01X28779Y16400D01*
G01X28779Y16400D02*
G01X28868Y16400D01*
G01X28868Y16400D02*
G01X28956Y16429D01*
G01X28956Y16429D02*
G01X28986Y16488D01*
G01X29518Y17020D02*
G01X29577Y16990D01*
G01X29577Y16990D02*
G01X29636Y16931D01*
G01X29636Y16931D02*
G01X29665Y16872D01*
G01X29665Y16872D02*
G01X29695Y16784D01*
G01X29695Y16784D02*
G01X29695Y16636D01*
G01X29695Y16636D02*
G01X29665Y16547D01*
G01X29665Y16547D02*
G01X29636Y16488D01*
G01X29636Y16488D02*
G01X29577Y16429D01*
G01X29577Y16429D02*
G01X29518Y16400D01*
G01X29518Y16400D02*
G01X29399Y16400D01*
G01X29399Y16400D02*
G01X29340Y16429D01*
G01X29340Y16429D02*
G01X29281Y16488D01*
G01X29281Y16488D02*
G01X29252Y16547D01*
G01X29252Y16547D02*
G01X29222Y16636D01*
G01X29222Y16636D02*
G01X29222Y16784D01*
G01X29222Y16784D02*
G01X29252Y16872D01*
G01X29252Y16872D02*
G01X29281Y16931D01*
G01X29281Y16931D02*
G01X29340Y16990D01*
G01X29340Y16990D02*
G01X29399Y17020D01*
G01X29399Y17020D02*
G01X29518Y17020D01*
G01X29931Y16931D02*
G01X29990Y16990D01*
G01X29990Y16990D02*
G01X30079Y17020D01*
G01X30079Y17020D02*
G01X30197Y17020D01*
G01X30197Y17020D02*
G01X30286Y16990D01*
G01X30286Y16990D02*
G01X30345Y16931D01*
G01X30345Y16931D02*
G01X30345Y16872D01*
G01X30345Y16872D02*
G01X30315Y16813D01*
G01X30315Y16813D02*
G01X30286Y16784D01*
G01X30286Y16784D02*
G01X30227Y16754D01*
G01X30227Y16754D02*
G01X30049Y16695D01*
G01X30049Y16695D02*
G01X29990Y16665D01*
G01X29990Y16665D02*
G01X29961Y16636D01*
G01X29961Y16636D02*
G01X29931Y16577D01*
G01X29931Y16577D02*
G01X29931Y16488D01*
G01X29931Y16488D02*
G01X29990Y16429D01*
G01X29990Y16429D02*
G01X30079Y16400D01*
G01X30079Y16400D02*
G01X30197Y16400D01*
G01X30197Y16400D02*
G01X30286Y16429D01*
G01X30286Y16429D02*
G01X30345Y16488D01*
G01X30995Y17020D02*
G01X30995Y16400D01*
G01X30995Y17020D02*
G01X30788Y17020D01*
G01X30788Y17020D02*
G01X30699Y16990D01*
G01X30699Y16990D02*
G01X30640Y16931D01*
G01X30640Y16931D02*
G01X30611Y16872D01*
G01X30611Y16872D02*
G01X30581Y16784D01*
G01X30581Y16784D02*
G01X30581Y16636D01*
G01X30581Y16636D02*
G01X30611Y16547D01*
G01X30611Y16547D02*
G01X30640Y16488D01*
G01X30640Y16488D02*
G01X30699Y16429D01*
G01X30699Y16429D02*
G01X30788Y16400D01*
G01X30788Y16400D02*
G01X30995Y16400D01*

G04 -------------- Draw Parts, Pads, Traces, Vias and Text (positive)*
%LPD*%
G04 Draw part J1*
G54D33*
G01X1500Y5500D03*
G54D34*
G01X1500Y7500D03*
G04 Draw part U1*
G04 Draw part C1*
G04 Draw part SW2*
G54D35*
G01X6900Y7000D03*
G54D36*
G01X6900Y8000D03*
G01X6900Y9000D03*
G54D35*
G01X5200Y7000D03*
G54D36*
G01X5200Y8000D03*
G01X5200Y9000D03*
G04 Draw part R3*
G04 Draw part R6*
G04 Draw part SW1*
G54D37*
G01X2500Y2500D03*
G54D38*
G01X3500Y2500D03*
G01X4500Y2500D03*
G01X6500Y2500D03*
G01X2500Y900D03*
G01X3500Y900D03*
G01X4500Y900D03*
G01X6500Y900D03*
G04 Draw part R1*
G04 Draw part C2*
G04 Draw part R2*
G04 Draw part R10*
G04 Draw part SW3*
G54D35*
G01X6900Y13000D03*
G54D36*
G01X6900Y14000D03*
G01X6900Y15000D03*
G54D35*
G01X5200Y13000D03*
G54D36*
G01X5200Y14000D03*
G01X5200Y15000D03*
G04 Draw part R5*
G04 Draw part R8*
G04 Draw part R12*
G04 Draw part R11*
G04 Draw part U3*
G04 Draw part R7*
G04 Draw part R4*
G04 Draw part R9*
G04 Draw part J2*
G54D33*
G01X35500Y7500D03*
G54D34*
G01X35500Y5500D03*
G04 Draw part U2*
G04 Draw part C3*
G04 Draw part SW6*
G54D35*
G01X31800Y7000D03*
G54D36*
G01X31800Y8000D03*
G01X31800Y9000D03*
G54D35*
G01X30100Y7000D03*
G54D36*
G01X30100Y8000D03*
G01X30100Y9000D03*
G04 Draw part R16*
G04 Draw part R19*
G04 Draw part SW5*
G54D37*
G01X30500Y2500D03*
G54D38*
G01X31500Y2500D03*
G01X32500Y2500D03*
G01X34500Y2500D03*
G01X30500Y900D03*
G01X31500Y900D03*
G01X32500Y900D03*
G01X34500Y900D03*
G04 Draw part R14*
G04 Draw part C4*
G04 Draw part R15*
G04 Draw part R23*
G04 Draw part SW7*
G54D35*
G01X31800Y13000D03*
G54D36*
G01X31800Y14000D03*
G01X31800Y15000D03*
G54D35*
G01X30100Y13000D03*
G54D36*
G01X30100Y14000D03*
G01X30100Y15000D03*
G04 Draw part R18*
G04 Draw part R21*
G04 Draw part R25*
G04 Draw part R24*
G04 Draw part R20*
G04 Draw part R17*
G04 Draw part R22*
G04 Draw part R13*
G54D39*
G01X1800Y15900D03*
G54D40*
G01X1800Y14900D03*
G01X1800Y13900D03*
G04 Draw part SW4*
G54D41*
G01X19500Y14900D03*
G54D42*
G01X18500Y14900D03*
G01X17500Y14900D03*
G54D41*
G01X19500Y13200D03*
G54D42*
G01X18500Y13200D03*
G01X17500Y13200D03*
G04 Draw part J3*
G54D37*
G01X10000Y1500D03*
G54D38*
G01X11000Y1500D03*
G01X12000Y1500D03*
G01X13000Y1500D03*
G01X14000Y1500D03*
G01X15000Y1500D03*
G01X16000Y1500D03*
G01X17000Y1500D03*
G01X18000Y1500D03*
G01X19000Y1500D03*
G01X20000Y1500D03*
G01X21000Y1500D03*
G01X22000Y1500D03*
G01X23000Y1500D03*
G01X24000Y1500D03*
G01X25000Y1500D03*
G01X26000Y1500D03*
G01X27000Y1500D03*
G04 Draw part C5*
G04 Draw part C6*
G04 Draw part C7*
G04 Draw part C9*
G04 Draw part C10*
G04 Draw part C11*
G04 Draw part U4*
G04 Draw part C8*
G04 Draw part C12*
G04 Draw part D1*
G04 Draw part D2*
G04 Draw part D4*
G04 Draw part D5*
G04 Draw part R29*
G54D33*
G01X14600Y5500D03*
G54D34*
G01X14600Y7000D03*
G01X14600Y8500D03*
G54D43*
G01X18500Y4800D03*
G01X18500Y9200D03*
G04 Draw part R28*
G04 Draw part R26*
G04 Draw part R27*
G04 Draw part C13*
G04 Draw part D6*
G04 Draw part D7*
G04 Draw part R30*
G04 Draw part R31*
G54D39*
G01X34000Y15900D03*
G54D40*
G01X34000Y14900D03*
G01X34000Y13900D03*
G04 Draw part R32*
G04 Draw part D8*
G04 Draw part D11*
G54D44*
G01X2000Y10400D03*
G54D30*
G01X3000Y10400D03*
G04 Draw part D9*
G04 Draw part D10*
G04 Draw part C14*
G04 Draw part C15*
G04 Draw part R33*
G04 Draw part R34*
G54D45*
G01X28300Y7000D03*
G01X28300Y7900D03*
G04 Draw part C18*
G01X23300Y7000D03*
G01X24200Y7000D03*
G04 Draw part C16*
G01X9400Y7900D03*
G01X9400Y7000D03*
G04 Draw part C17*
G04 Draw part D3*
G04 Draw part R35*
G01X6900Y4900D03*
G01X6900Y5800D03*
G04 Draw part R36*
G01X33200Y7900D03*
G01X33200Y7000D03*
G04 Draw part R37*
G04 Draw part J4*
G54D37*
G01X35500Y11500D03*
G54D38*
G01X35500Y12500D03*
G01X35500Y13500D03*
G01X35500Y14500D03*
G01X35500Y15500D03*
G01X35500Y16500D03*
G01X35500Y17500D03*

G04 Draw traces*
G54D32*
G01X35500Y16500D02*
G01X34850Y16500D01*
G01X34850Y16500D02*
G01X34450Y16900D01*
G01X34450Y16900D02*
G01X33600Y16900D01*
G01X33600Y16900D02*
G01X33250Y16550D01*
G01X33250Y16550D02*
G01X33250Y12300D01*
G01X33250Y12300D02*
G01X32850Y11900D01*
G01X32850Y11900D02*
G01X29350Y11900D01*
G01X29350Y11900D02*
G01X28650Y12600D01*
G01X28650Y12600D02*
G01X28650Y14400D01*
G01X28650Y14400D02*
G01X28100Y14950D01*
G01X28100Y14950D02*
G01X23200Y14950D01*
G01X23200Y14950D02*
G01X22200Y15950D01*
G01X22200Y15950D02*
G01X18750Y15950D01*
G01X18750Y15950D02*
G01X18500Y15700D01*
G01X18500Y15700D02*
G01X18500Y14900D01*
G01X14000Y1500D02*
G01X14000Y2600D01*
G54D46*
G01X14000Y2600D03*
G01X9050Y2600D03*
G01X14000Y2600D03*
G01X27850Y2600D03*
G54D32*
G01X27850Y2600D02*
G01X28750Y1700D01*
G01X28750Y1700D02*
G01X32300Y1700D01*
G01X32300Y1700D02*
G01X32500Y1500D01*
G01X32500Y1500D02*
G01X32500Y900D01*
G54D46*
G01X17450Y16700D03*
G54D32*
G01X17450Y16700D02*
G01X16400Y16700D01*
G01X16400Y16700D02*
G01X15900Y17200D01*
G01X15900Y17200D02*
G01X15250Y17200D01*
G01X15250Y17200D02*
G01X15000Y16950D01*
G01X15000Y16950D02*
G01X14400Y16950D01*
G54D46*
G01X14400Y16950D03*
G01X19550Y16600D03*
G54D32*
G01X19550Y16600D02*
G01X18450Y16600D01*
G01X18450Y16600D02*
G01X18000Y16150D01*
G01X18000Y16150D02*
G01X16100Y16150D01*
G01X16100Y16150D02*
G01X15550Y16700D01*
G54D46*
G01X15550Y16700D03*
G54D32*
G01X31800Y13000D02*
G01X32600Y13000D01*
G01X32600Y13000D02*
G01X32850Y13250D01*
G01X32850Y13250D02*
G01X32850Y16550D01*
G01X32850Y16550D02*
G01X31500Y17900D01*
G01X31500Y17900D02*
G01X13650Y17900D01*
G01X13650Y17900D02*
G01X13250Y17500D01*
G01X13250Y17500D02*
G01X4750Y17500D01*
G01X4750Y17500D02*
G01X3750Y16500D01*
G01X3750Y16500D02*
G01X3750Y13600D01*
G01X3750Y13600D02*
G01X4350Y13000D01*
G01X4350Y13000D02*
G01X5200Y13000D01*
G01X1500Y5500D02*
G01X3500Y3500D01*
G01X3500Y3500D02*
G01X3500Y2500D01*
G01X32500Y2500D02*
G01X32500Y3850D01*
G01X32500Y3850D02*
G01X30100Y6250D01*
G01X30100Y6250D02*
G01X30100Y7000D01*
G54D46*
G01X30100Y7000D03*
G54D32*
G01X28300Y7000D02*
G01X30100Y7000D01*
G01X19500Y13200D02*
G01X19500Y12150D01*
G01X19500Y12150D02*
G01X19350Y12000D01*
G01X19350Y12000D02*
G01X15200Y12000D01*
G01X15200Y12000D02*
G01X14300Y11100D01*
G54D46*
G01X14300Y11100D03*
G01X27650Y10400D03*
G01X27650Y3350D03*
G01X22250Y7000D03*
G01X22250Y7000D03*
G54D32*
G01X22250Y7000D02*
G01X22250Y6500D01*
G01X22250Y6500D02*
G01X22750Y6000D01*
G01X22750Y6000D02*
G01X23250Y6000D01*
G01X23250Y6000D02*
G01X25450Y3800D01*
G01X25450Y3800D02*
G01X25450Y2700D01*
G01X25450Y2700D02*
G01X25000Y2250D01*
G01X25000Y2250D02*
G01X25000Y1500D01*
G01X23300Y7000D02*
G01X22250Y7000D01*
G54D46*
G01X22250Y7000D03*
G01X15800Y11150D03*
G01X26900Y11150D03*
G01X10750Y7750D03*
G01X16950Y7750D03*
G01X15800Y11150D03*
G01X12300Y11150D03*
G01X23300Y9250D03*
G01X23300Y9250D02*
G01X25000Y9250D01*
G01X25000Y9250D02*
G01X26900Y11150D01*
G01X26900Y11150D03*
G01X15800Y11150D03*
G01X12300Y11150D03*
G01X7800Y10350D03*
G01X11500Y10350D03*
G01X3400Y17750D03*
G54D32*
G01X3400Y17750D02*
G01X3400Y12600D01*
G01X3400Y12600D02*
G01X4550Y11450D01*
G01X4550Y11450D02*
G01X5900Y11450D01*
G01X5900Y11450D02*
G01X6800Y10550D01*
G54D46*
G01X6800Y10550D03*
G54D32*
G01X6900Y7000D02*
G01X6900Y5800D01*
G54D46*
G01X13800Y14300D03*
G01X13800Y14300D02*
G01X13100Y15000D01*
G01X13100Y15000D02*
G01X11900Y15000D01*
G01X11900Y15000D02*
G01X11200Y14300D01*
G01X11200Y14300D02*
G01X10250Y14300D01*
G01X10250Y14300D03*
G01X10250Y14300D03*
G01X10250Y14300D02*
G01X10250Y13850D01*
G01X10250Y13850D02*
G01X9400Y13000D01*
G01X9400Y13000D02*
G01X9400Y9150D01*
G01X9400Y9150D02*
G01X8950Y9150D01*
G01X8950Y9150D03*
G01X13800Y14300D03*
G01X22800Y14300D03*
G01X24800Y10200D03*
G01X24800Y3400D03*
G01X9400Y7900D02*
G01X9400Y13000D01*
G54D32*
G01X9400Y13000D02*
G01X10250Y13850D01*
G01X10250Y13850D02*
G01X10250Y14300D01*
G54D46*
G01X10250Y14300D03*
G01X22200Y5500D03*
G01X20050Y5500D03*
G01X20050Y5500D03*
G01X13400Y6300D03*
G01X13400Y6300D02*
G01X10500Y9200D01*
G01X10500Y9200D02*
G01X10500Y11100D01*
G01X10500Y11100D03*
G01X1000Y11100D03*
G01X22200Y5500D03*
G01X20050Y5500D03*
G01X20050Y5500D03*
G01X22200Y5500D03*
G01X22200Y5500D03*
G01X20050Y5500D03*
G54D32*
G01X31800Y7000D02*
G01X33200Y7000D01*
G01X17500Y13200D02*
G01X16500Y13200D01*
G01X16500Y13200D02*
G01X14600Y15100D01*
G54D46*
G01X14600Y15100D03*
G01X10050Y15000D03*
G01X12750Y14300D03*
G01X12650Y16550D03*
G01X12750Y14300D03*
G01X22000Y1500D03*
G01X23150Y13400D03*
G01X23150Y13400D03*
G01X26850Y14300D03*
G01X32500Y10500D03*
G01X26850Y9800D03*
G01X22400Y8650D03*
G01X20000Y1500D03*
G01X11650Y9600D03*
G01X12500Y4800D03*
G01X9350Y3600D03*
G01X5100Y9900D03*
G01X17150Y10650D03*
G01X25550Y7300D03*
G01X22400Y8650D03*
G01X25900Y4200D03*
G01X20700Y13400D03*
G01X23150Y13400D03*
G54D32*
G01X6500Y900D02*
G01X6500Y1500D01*
G01X6500Y1500D02*
G01X6300Y1700D01*
G01X6300Y1700D02*
G01X3750Y1700D01*
G01X3750Y1700D02*
G01X3500Y1450D01*
G01X3500Y1450D02*
G01X3500Y900D01*
G01X13000Y1500D02*
G01X13000Y2250D01*
G01X13000Y2250D02*
G01X12700Y2550D01*
G01X12700Y2550D02*
G01X9750Y2550D01*
G01X9750Y2550D02*
G01X8900Y1700D01*
G01X8900Y1700D02*
G01X6750Y1700D01*
G01X6750Y1700D02*
G01X6500Y1450D01*
G01X6500Y1450D02*
G01X6500Y900D01*
G54D46*
G01X16550Y4500D03*
G01X11850Y4500D03*
G54D32*
G01X31800Y15000D02*
G01X31800Y16950D01*
G01X31800Y16950D02*
G01X31250Y17500D01*
G01X31250Y17500D02*
G01X13900Y17500D01*
G01X13900Y17500D02*
G01X13500Y17100D01*
G01X13500Y17100D02*
G01X4950Y17100D01*
G01X4950Y17100D02*
G01X4100Y16250D01*
G01X4100Y16250D02*
G01X4100Y15250D01*
G01X4100Y15250D02*
G01X4350Y15000D01*
G01X4350Y15000D02*
G01X5200Y15000D01*

G04 Draw Text*

G04 ----------------------- Draw Pilot Holes (scratch)*
%LPC*%
G04 draw pilot holes for part J1*
G54D10*
G01X1500Y5500D03*
G01X1500Y7500D03*
G04 draw pilot holes for part U1*
G04 draw pilot holes for part C1*
G04 draw pilot holes for part SW2*
G01X6900Y7000D03*
G01X6900Y8000D03*
G01X6900Y9000D03*
G01X5200Y7000D03*
G01X5200Y8000D03*
G01X5200Y9000D03*
G04 draw pilot holes for part R3*
G04 draw pilot holes for part R6*
G04 draw pilot holes for part SW1*
G01X2500Y2500D03*
G01X3500Y2500D03*
G01X4500Y2500D03*
G01X6500Y2500D03*
G01X2500Y900D03*
G01X3500Y900D03*
G01X4500Y900D03*
G01X6500Y900D03*
G04 draw pilot holes for part R1*
G04 draw pilot holes for part C2*
G04 draw pilot holes for part R2*
G04 draw pilot holes for part R10*
G04 draw pilot holes for part SW3*
G01X6900Y13000D03*
G01X6900Y14000D03*
G01X6900Y15000D03*
G01X5200Y13000D03*
G01X5200Y14000D03*
G01X5200Y15000D03*
G04 draw pilot holes for part R5*
G04 draw pilot holes for part R8*
G04 draw pilot holes for part R12*
G04 draw pilot holes for part R11*
G04 draw pilot holes for part U3*
G04 draw pilot holes for part R7*
G04 draw pilot holes for part R4*
G04 draw pilot holes for part R9*
G04 draw pilot holes for part J2*
G01X35500Y7500D03*
G01X35500Y5500D03*
G04 draw pilot holes for part U2*
G04 draw pilot holes for part C3*
G04 draw pilot holes for part SW6*
G01X31800Y7000D03*
G01X31800Y8000D03*
G01X31800Y9000D03*
G01X30100Y7000D03*
G01X30100Y8000D03*
G01X30100Y9000D03*
G04 draw pilot holes for part R16*
G04 draw pilot holes for part R19*
G04 draw pilot holes for part SW5*
G01X30500Y2500D03*
G01X31500Y2500D03*
G01X32500Y2500D03*
G01X34500Y2500D03*
G01X30500Y900D03*
G01X31500Y900D03*
G01X32500Y900D03*
G01X34500Y900D03*
G04 draw pilot holes for part R14*
G04 draw pilot holes for part C4*
G04 draw pilot holes for part R15*
G04 draw pilot holes for part R23*
G04 draw pilot holes for part SW7*
G01X31800Y13000D03*
G01X31800Y14000D03*
G01X31800Y15000D03*
G01X30100Y13000D03*
G01X30100Y14000D03*
G01X30100Y15000D03*
G04 draw pilot holes for part R18*
G04 draw pilot holes for part R21*
G04 draw pilot holes for part R25*
G04 draw pilot holes for part R24*
G04 draw pilot holes for part R20*
G04 draw pilot holes for part R17*
G04 draw pilot holes for part R22*
G04 draw pilot holes for part R13*
G01X1800Y15900D03*
G01X1800Y14900D03*
G01X1800Y13900D03*
G04 draw pilot holes for part SW4*
G01X19500Y14900D03*
G01X18500Y14900D03*
G01X17500Y14900D03*
G01X19500Y13200D03*
G01X18500Y13200D03*
G01X17500Y13200D03*
G04 draw pilot holes for part J3*
G01X10000Y1500D03*
G01X11000Y1500D03*
G01X12000Y1500D03*
G01X13000Y1500D03*
G01X14000Y1500D03*
G01X15000Y1500D03*
G01X16000Y1500D03*
G01X17000Y1500D03*
G01X18000Y1500D03*
G01X19000Y1500D03*
G01X20000Y1500D03*
G01X21000Y1500D03*
G01X22000Y1500D03*
G01X23000Y1500D03*
G01X24000Y1500D03*
G01X25000Y1500D03*
G01X26000Y1500D03*
G01X27000Y1500D03*
G04 draw pilot holes for part C5*
G04 draw pilot holes for part C6*
G04 draw pilot holes for part C7*
G04 draw pilot holes for part C9*
G04 draw pilot holes for part C10*
G04 draw pilot holes for part C11*
G04 draw pilot holes for part U4*
G04 draw pilot holes for part C8*
G04 draw pilot holes for part C12*
G04 draw pilot holes for part D1*
G04 draw pilot holes for part D2*
G04 draw pilot holes for part D4*
G04 draw pilot holes for part D5*
G04 draw pilot holes for part R29*
G01X14600Y5500D03*
G01X14600Y7000D03*
G01X14600Y8500D03*
G01X18500Y4800D03*
G01X18500Y9200D03*
G04 draw pilot holes for part R28*
G04 draw pilot holes for part R26*
G04 draw pilot holes for part R27*
G04 draw pilot holes for part C13*
G04 draw pilot holes for part D6*
G04 draw pilot holes for part D7*
G04 draw pilot holes for part R30*
G04 draw pilot holes for part R31*
G01X34000Y15900D03*
G01X34000Y14900D03*
G01X34000Y13900D03*
G04 draw pilot holes for part R32*
G04 draw pilot holes for part D8*
G04 draw pilot holes for part D11*
G01X2000Y10400D03*
G01X3000Y10400D03*
G04 draw pilot holes for part D9*
G04 draw pilot holes for part D10*
G04 draw pilot holes for part C14*
G04 draw pilot holes for part C15*
G04 draw pilot holes for part R33*
G04 draw pilot holes for part R34*
G04 draw pilot holes for part C18*
G04 draw pilot holes for part C16*
G04 draw pilot holes for part C17*
G04 draw pilot holes for part D3*
G04 draw pilot holes for part R35*
G04 draw pilot holes for part R36*
G04 draw pilot holes for part R37*
G04 draw pilot holes for part J4*
G01X35500Y11500D03*
G01X35500Y12500D03*
G01X35500Y13500D03*
G01X35500Y14500D03*
G01X35500Y15500D03*
G01X35500Y16500D03*
G01X35500Y17500D03*

G04 Draw pilot holes for vias*
G01X14000Y2600D03*
G01X9050Y2600D03*
G01X14000Y2600D03*
G01X27850Y2600D03*
G01X17450Y16700D03*
G01X14400Y16950D03*
G01X19550Y16600D03*
G01X15550Y16700D03*
G01X30100Y7000D03*
G01X14300Y11100D03*
G01X27650Y10400D03*
G01X27650Y3350D03*
G01X22250Y7000D03*
G01X22250Y7000D03*
G01X22250Y7000D03*
G01X15800Y11150D03*
G01X26900Y11150D03*
G01X10750Y7750D03*
G01X16950Y7750D03*
G01X15800Y11150D03*
G01X12300Y11150D03*
G01X23300Y9250D03*
G01X26900Y11150D03*
G01X15800Y11150D03*
G01X12300Y11150D03*
G01X7800Y10350D03*
G01X11500Y10350D03*
G01X3400Y17750D03*
G01X6800Y10550D03*
G01X13800Y14300D03*
G01X10250Y14300D03*
G01X10250Y14300D03*
G01X8950Y9150D03*
G01X13800Y14300D03*
G01X22800Y14300D03*
G01X24800Y10200D03*
G01X24800Y3400D03*
G01X10250Y14300D03*
G01X22200Y5500D03*
G01X20050Y5500D03*
G01X20050Y5500D03*
G01X13400Y6300D03*
G01X10500Y11100D03*
G01X1000Y11100D03*
G01X22200Y5500D03*
G01X20050Y5500D03*
G01X20050Y5500D03*
G01X22200Y5500D03*
G01X22200Y5500D03*
G01X20050Y5500D03*
G01X14600Y15100D03*
G01X10050Y15000D03*
G01X12750Y14300D03*
G01X12650Y16550D03*
G01X12750Y14300D03*
G01X22000Y1500D03*
G01X23150Y13400D03*
G01X23150Y13400D03*
G01X26850Y14300D03*
G01X32500Y10500D03*
G01X26850Y9800D03*
G01X22400Y8650D03*
G01X20000Y1500D03*
G01X11650Y9600D03*
G01X12500Y4800D03*
G01X9350Y3600D03*
G01X5100Y9900D03*
G01X17150Y10650D03*
G01X25550Y7300D03*
G01X22400Y8650D03*
G01X25900Y4200D03*
G01X20700Y13400D03*
G01X23150Y13400D03*
G01X16550Y4500D03*
G01X11850Y4500D03*
M00*
M02*
