G04 FreePCB version 1.359*
G04 C:\Users\pmesser\_Paul\Design\DSOscope\PCB\A03\CAM_DSOscope_AnalogBrd_A03\top_silk.grb*
G04 top silk layer *
G04 Scale: 100 percent, Rotated: No, Reflected: No *
%FSLAX24Y24*%
%MOIN*%
%LN top silk *%
G04 Rounded Rectangle Macro, params: W/2, H/2, R *
%AMRNDREC*
21,1,$1+$1,$2+$2-$3-$3,0,0,0*
21,1,$1+$1-$3-$3,$2+$2,0,0,0*
1,1,$3+$3,$1-$3,$2-$3*
1,1,$3+$3,$3-$1,$2-$3*
1,1,$3+$3,$1-$3,$3-$2*
1,1,$3+$3,$3-$1,$3-$2*%
G04 Rectangular Thermal Macro, params: W/2, H/2, T/2 *
%AMRECTHERM*
$4=$3/2*
21,1,$1-$3,$2-$3,0-$1/2-$4,0-$2/2-$4,0*
21,1,$1-$3,$2-$3,0-$1/2-$4,$2/2+$4,0*
21,1,$1-$3,$2-$3,$1/2+$4,0-$2/2-$4,0*
21,1,$1-$3,$2-$3,$1/2+$4,$2/2+$4,0*%
%ADD10C,0.010000*%
%ADD11C,0.007000*%
G90*
G70D02*

G04 Step and Repeat for panelization *

G04 ----------------------- Draw board outline (positive)*
%LPD*%
G54D10*
G01X0Y0D02*
G01X0Y19000D01*
G04 end of side 1*
G01X37000Y19000D01*
G04 end of side 2*
G01X37000Y0D01*
G04 end of side 3*
G01X0Y0D01*

G04 -------------- Draw Parts, Pads, Traces, Vias and Text (positive)*
%LPD*%
G04 Draw part J1*
G04 Draw part U1*
G04 draw part outline for part U1*
G54D10*
G01X10500Y14300D02*
G01X12600Y14300D01*
G01X12600Y14300D02*
G01X12600Y12100D01*
G01X12600Y12100D02*
G01X10500Y12100D01*
G01X10500Y12100D02*
G01X10500Y14300D01*
G01X10500Y12900D02*
G01X10800Y13200D01*
G01X10800Y13200D02*
G01X10500Y13500D01*
G04 draw reference designator for part U1*
G54D11*
G01X11100Y13468D02*
G01X11100Y12990D01*
G01X11100Y12990D02*
G01X11131Y12895D01*
G01X11131Y12895D02*
G01X11195Y12831D01*
G01X11195Y12831D02*
G01X11290Y12800D01*
G01X11354Y12800D02*
G01X11290Y12800D01*
G01X11450Y12831D02*
G01X11354Y12800D01*
G01X11513Y12895D02*
G01X11450Y12831D01*
G01X11545Y12990D02*
G01X11513Y12895D01*
G01X11545Y13468D02*
G01X11545Y12990D01*
G01X11863Y13372D02*
G01X11800Y13340D01*
G01X11959Y13468D02*
G01X11863Y13372D01*
G01X11959Y13468D02*
G01X11959Y12800D01*
G04 Draw part C1*
G04 draw part outline for part C1*
G54D10*
G01X2200Y5400D02*
G01X4600Y5400D01*
G01X4600Y5400D02*
G01X4600Y4400D01*
G01X4600Y4400D02*
G01X2200Y4400D01*
G01X2200Y4400D02*
G01X2200Y5400D01*
G04 draw reference designator for part C1*
G54D11*
G01X3318Y5009D02*
G01X3340Y4963D01*
G01X3272Y5054D02*
G01X3318Y5009D01*
G01X3227Y5077D02*
G01X3272Y5054D01*
G01X3136Y5077D02*
G01X3227Y5077D01*
G01X3136Y5077D02*
G01X3090Y5054D01*
G01X3090Y5054D02*
G01X3045Y5009D01*
G01X3045Y5009D02*
G01X3022Y4963D01*
G01X3022Y4963D02*
G01X3000Y4895D01*
G01X3000Y4895D02*
G01X3000Y4781D01*
G01X3000Y4781D02*
G01X3022Y4713D01*
G01X3022Y4713D02*
G01X3045Y4668D01*
G01X3045Y4668D02*
G01X3090Y4622D01*
G01X3090Y4622D02*
G01X3136Y4600D01*
G01X3227Y4600D02*
G01X3136Y4600D01*
G01X3272Y4622D02*
G01X3227Y4600D01*
G01X3318Y4668D02*
G01X3272Y4622D01*
G01X3340Y4713D02*
G01X3318Y4668D01*
G01X3568Y5009D02*
G01X3522Y4986D01*
G01X3636Y5077D02*
G01X3568Y5009D01*
G01X3636Y5077D02*
G01X3636Y4600D01*
G04 Draw part SW2*
G04 draw part outline for part SW2*
G54D10*
G01X7900Y6200D02*
G01X4200Y6200D01*
G01X4200Y6200D02*
G01X4200Y9800D01*
G01X4200Y9800D02*
G01X7900Y9800D01*
G01X7900Y9800D02*
G01X7900Y6200D01*
G04 draw reference designator for part SW2*
G54D11*
G01X8272Y10354D02*
G01X8318Y10309D01*
G01X8204Y10377D02*
G01X8272Y10354D01*
G01X8113Y10377D02*
G01X8204Y10377D01*
G01X8113Y10377D02*
G01X8045Y10354D01*
G01X8045Y10354D02*
G01X8000Y10309D01*
G01X8000Y10309D02*
G01X8000Y10263D01*
G01X8000Y10263D02*
G01X8022Y10218D01*
G01X8022Y10218D02*
G01X8045Y10195D01*
G01X8045Y10195D02*
G01X8090Y10172D01*
G01X8090Y10172D02*
G01X8227Y10127D01*
G01X8227Y10127D02*
G01X8272Y10104D01*
G01X8272Y10104D02*
G01X8295Y10081D01*
G01X8295Y10081D02*
G01X8318Y10036D01*
G01X8318Y10036D02*
G01X8318Y9968D01*
G01X8318Y9968D02*
G01X8272Y9922D01*
G01X8272Y9922D02*
G01X8204Y9900D01*
G01X8113Y9900D02*
G01X8204Y9900D01*
G01X8045Y9922D02*
G01X8113Y9900D01*
G01X8000Y9968D02*
G01X8045Y9922D01*
G01X8500Y10377D02*
G01X8613Y9900D01*
G01X8727Y10377D02*
G01X8613Y9900D01*
G01X8727Y10377D02*
G01X8840Y9900D01*
G01X8954Y10377D02*
G01X8840Y9900D01*
G01X9159Y10286D02*
G01X9159Y10263D01*
G01X9181Y10331D02*
G01X9159Y10286D01*
G01X9204Y10354D02*
G01X9181Y10331D01*
G01X9250Y10377D02*
G01X9204Y10354D01*
G01X9340Y10377D02*
G01X9250Y10377D01*
G01X9340Y10377D02*
G01X9386Y10354D01*
G01X9386Y10354D02*
G01X9409Y10331D01*
G01X9409Y10331D02*
G01X9431Y10286D01*
G01X9431Y10286D02*
G01X9431Y10240D01*
G01X9431Y10240D02*
G01X9409Y10195D01*
G01X9409Y10195D02*
G01X9363Y10127D01*
G01X9363Y10127D02*
G01X9136Y9900D01*
G01X9454Y9900D02*
G01X9136Y9900D01*
G04 Draw part R3*
G04 draw part outline for part R3*
G54D10*
G01X3200Y7400D02*
G01X3200Y9100D01*
G01X3200Y9100D02*
G01X4000Y9100D01*
G01X4000Y9100D02*
G01X4000Y7400D01*
G01X4000Y7400D02*
G01X3200Y7400D01*
G04 draw reference designator for part R3*
G54D11*
G01X3777Y8700D02*
G01X3300Y8700D01*
G01X3777Y8495D02*
G01X3777Y8700D01*
G01X3777Y8495D02*
G01X3754Y8427D01*
G01X3754Y8427D02*
G01X3731Y8404D01*
G01X3731Y8404D02*
G01X3686Y8381D01*
G01X3686Y8381D02*
G01X3640Y8381D01*
G01X3640Y8381D02*
G01X3595Y8404D01*
G01X3595Y8404D02*
G01X3572Y8427D01*
G01X3572Y8427D02*
G01X3550Y8495D01*
G01X3550Y8700D02*
G01X3550Y8495D01*
G01X3550Y8540D02*
G01X3300Y8381D01*
G01X3777Y7904D02*
G01X3777Y8154D01*
G01X3777Y7904D02*
G01X3595Y8040D01*
G01X3595Y7972D02*
G01X3595Y8040D01*
G01X3595Y7972D02*
G01X3572Y7927D01*
G01X3572Y7927D02*
G01X3550Y7904D01*
G01X3550Y7904D02*
G01X3481Y7881D01*
G01X3481Y7881D02*
G01X3436Y7881D01*
G01X3436Y7881D02*
G01X3368Y7904D01*
G01X3368Y7904D02*
G01X3322Y7950D01*
G01X3322Y7950D02*
G01X3300Y8018D01*
G01X3300Y8086D02*
G01X3300Y8018D01*
G01X3322Y8154D02*
G01X3300Y8086D01*
G01X3345Y8177D02*
G01X3322Y8154D01*
G01X3390Y8200D02*
G01X3345Y8177D01*
G04 Draw part R6*
G04 draw part outline for part R6*
G54D10*
G01X3600Y9100D02*
G01X3600Y10800D01*
G01X3600Y10800D02*
G01X4400Y10800D01*
G01X4400Y10800D02*
G01X4400Y9100D01*
G01X4400Y9100D02*
G01X3600Y9100D01*
G04 draw reference designator for part R6*
G54D11*
G01X4177Y10400D02*
G01X3700Y10400D01*
G01X4177Y10195D02*
G01X4177Y10400D01*
G01X4177Y10195D02*
G01X4154Y10127D01*
G01X4154Y10127D02*
G01X4131Y10104D01*
G01X4131Y10104D02*
G01X4086Y10081D01*
G01X4086Y10081D02*
G01X4040Y10081D01*
G01X4040Y10081D02*
G01X3995Y10104D01*
G01X3995Y10104D02*
G01X3972Y10127D01*
G01X3972Y10127D02*
G01X3950Y10195D01*
G01X3950Y10400D02*
G01X3950Y10195D01*
G01X3950Y10240D02*
G01X3700Y10081D01*
G01X4154Y9650D02*
G01X4109Y9627D01*
G01X4177Y9718D02*
G01X4154Y9650D01*
G01X4177Y9763D02*
G01X4177Y9718D01*
G01X4177Y9763D02*
G01X4154Y9831D01*
G01X4154Y9831D02*
G01X4086Y9877D01*
G01X4086Y9877D02*
G01X3972Y9900D01*
G01X3972Y9900D02*
G01X3859Y9900D01*
G01X3859Y9900D02*
G01X3768Y9877D01*
G01X3768Y9877D02*
G01X3722Y9831D01*
G01X3722Y9831D02*
G01X3700Y9763D01*
G01X3700Y9740D02*
G01X3700Y9763D01*
G01X3722Y9672D02*
G01X3700Y9740D01*
G01X3768Y9627D02*
G01X3722Y9672D01*
G01X3836Y9604D02*
G01X3768Y9627D01*
G01X3859Y9604D02*
G01X3836Y9604D01*
G01X3927Y9627D02*
G01X3859Y9604D01*
G01X3972Y9672D02*
G01X3927Y9627D01*
G01X3995Y9740D02*
G01X3972Y9672D01*
G01X3995Y9763D02*
G01X3995Y9740D01*
G01X3995Y9763D02*
G01X3972Y9831D01*
G01X3972Y9831D02*
G01X3927Y9877D01*
G01X3927Y9877D02*
G01X3859Y9900D01*
G04 Draw part SW1*
G04 draw part outline for part SW1*
G54D10*
G01X500Y3600D02*
G01X8500Y3600D01*
G01X8500Y3600D02*
G01X8500Y-100D01*
G01X8500Y-100D02*
G01X500Y-100D01*
G01X500Y-100D02*
G01X500Y3600D01*
G01X2500Y-100D02*
G01X2500Y-2900D01*
G01X2500Y-2900D02*
G01X4700Y-2900D01*
G01X4700Y-2900D02*
G01X4700Y-100D01*
G01X6500Y-100D02*
G01X6500Y-500D01*
G01X6500Y-800D02*
G01X6500Y-1200D01*
G01X6500Y-1500D02*
G01X6500Y-1900D01*
G01X6500Y-2200D02*
G01X6500Y-2600D01*
G01X6500Y-2900D02*
G01X6000Y-2900D01*
G01X5700Y-2900D02*
G01X5200Y-2900D01*
G01X4900Y-2900D02*
G01X4700Y-2900D01*
G04 draw reference designator for part SW1*
G54D11*
G01X872Y2754D02*
G01X918Y2709D01*
G01X804Y2777D02*
G01X872Y2754D01*
G01X713Y2777D02*
G01X804Y2777D01*
G01X713Y2777D02*
G01X645Y2754D01*
G01X645Y2754D02*
G01X600Y2709D01*
G01X600Y2709D02*
G01X600Y2663D01*
G01X600Y2663D02*
G01X622Y2618D01*
G01X622Y2618D02*
G01X645Y2595D01*
G01X645Y2595D02*
G01X690Y2572D01*
G01X690Y2572D02*
G01X827Y2527D01*
G01X827Y2527D02*
G01X872Y2504D01*
G01X872Y2504D02*
G01X895Y2481D01*
G01X895Y2481D02*
G01X918Y2436D01*
G01X918Y2436D02*
G01X918Y2368D01*
G01X918Y2368D02*
G01X872Y2322D01*
G01X872Y2322D02*
G01X804Y2300D01*
G01X713Y2300D02*
G01X804Y2300D01*
G01X645Y2322D02*
G01X713Y2300D01*
G01X600Y2368D02*
G01X645Y2322D01*
G01X1100Y2777D02*
G01X1213Y2300D01*
G01X1327Y2777D02*
G01X1213Y2300D01*
G01X1327Y2777D02*
G01X1440Y2300D01*
G01X1554Y2777D02*
G01X1440Y2300D01*
G01X1781Y2709D02*
G01X1736Y2686D01*
G01X1850Y2777D02*
G01X1781Y2709D01*
G01X1850Y2777D02*
G01X1850Y2300D01*
G04 Draw part R1*
G04 draw part outline for part R1*
G54D10*
G01X5400Y4200D02*
G01X5400Y5900D01*
G01X5400Y5900D02*
G01X6200Y5900D01*
G01X6200Y5900D02*
G01X6200Y4200D01*
G01X6200Y4200D02*
G01X5400Y4200D01*
G04 draw reference designator for part R1*
G54D11*
G01X5977Y5500D02*
G01X5500Y5500D01*
G01X5977Y5295D02*
G01X5977Y5500D01*
G01X5977Y5295D02*
G01X5954Y5227D01*
G01X5954Y5227D02*
G01X5931Y5204D01*
G01X5931Y5204D02*
G01X5886Y5181D01*
G01X5886Y5181D02*
G01X5840Y5181D01*
G01X5840Y5181D02*
G01X5795Y5204D01*
G01X5795Y5204D02*
G01X5772Y5227D01*
G01X5772Y5227D02*
G01X5750Y5295D01*
G01X5750Y5500D02*
G01X5750Y5295D01*
G01X5750Y5340D02*
G01X5500Y5181D01*
G01X5909Y4954D02*
G01X5886Y5000D01*
G01X5977Y4886D02*
G01X5909Y4954D01*
G01X5977Y4886D02*
G01X5500Y4886D01*
G04 Draw part C2*
G04 draw part outline for part C2*
G54D10*
G01X4600Y4500D02*
G01X4600Y6200D01*
G01X4600Y6200D02*
G01X5400Y6200D01*
G01X5400Y6200D02*
G01X5400Y4500D01*
G01X5400Y4500D02*
G01X4600Y4500D01*
G04 draw reference designator for part C2*
G54D11*
G01X5109Y5481D02*
G01X5063Y5459D01*
G01X5154Y5527D02*
G01X5109Y5481D01*
G01X5177Y5572D02*
G01X5154Y5527D01*
G01X5177Y5663D02*
G01X5177Y5572D01*
G01X5177Y5663D02*
G01X5154Y5709D01*
G01X5154Y5709D02*
G01X5109Y5754D01*
G01X5109Y5754D02*
G01X5063Y5777D01*
G01X5063Y5777D02*
G01X4995Y5800D01*
G01X4995Y5800D02*
G01X4881Y5800D01*
G01X4881Y5800D02*
G01X4813Y5777D01*
G01X4813Y5777D02*
G01X4768Y5754D01*
G01X4768Y5754D02*
G01X4722Y5709D01*
G01X4722Y5709D02*
G01X4700Y5663D01*
G01X4700Y5572D02*
G01X4700Y5663D01*
G01X4722Y5527D02*
G01X4700Y5572D01*
G01X4768Y5481D02*
G01X4722Y5527D01*
G01X4813Y5459D02*
G01X4768Y5481D01*
G01X5086Y5254D02*
G01X5063Y5254D01*
G01X5131Y5231D02*
G01X5086Y5254D01*
G01X5154Y5209D02*
G01X5131Y5231D01*
G01X5177Y5163D02*
G01X5154Y5209D01*
G01X5177Y5072D02*
G01X5177Y5163D01*
G01X5177Y5072D02*
G01X5154Y5027D01*
G01X5154Y5027D02*
G01X5131Y5004D01*
G01X5131Y5004D02*
G01X5086Y4981D01*
G01X5086Y4981D02*
G01X5040Y4981D01*
G01X5040Y4981D02*
G01X4995Y5004D01*
G01X4995Y5004D02*
G01X4927Y5050D01*
G01X4927Y5050D02*
G01X4700Y5277D01*
G01X4700Y4959D02*
G01X4700Y5277D01*
G04 Draw part R2*
G04 draw part outline for part R2*
G54D10*
G01X3200Y5700D02*
G01X3200Y7400D01*
G01X3200Y7400D02*
G01X4000Y7400D01*
G01X4000Y7400D02*
G01X4000Y5700D01*
G01X4000Y5700D02*
G01X3200Y5700D01*
G04 draw reference designator for part R2*
G54D11*
G01X3777Y7000D02*
G01X3300Y7000D01*
G01X3777Y6795D02*
G01X3777Y7000D01*
G01X3777Y6795D02*
G01X3754Y6727D01*
G01X3754Y6727D02*
G01X3731Y6704D01*
G01X3731Y6704D02*
G01X3686Y6681D01*
G01X3686Y6681D02*
G01X3640Y6681D01*
G01X3640Y6681D02*
G01X3595Y6704D01*
G01X3595Y6704D02*
G01X3572Y6727D01*
G01X3572Y6727D02*
G01X3550Y6795D01*
G01X3550Y7000D02*
G01X3550Y6795D01*
G01X3550Y6840D02*
G01X3300Y6681D01*
G01X3686Y6477D02*
G01X3663Y6477D01*
G01X3731Y6454D02*
G01X3686Y6477D01*
G01X3754Y6431D02*
G01X3731Y6454D01*
G01X3777Y6386D02*
G01X3754Y6431D01*
G01X3777Y6295D02*
G01X3777Y6386D01*
G01X3777Y6295D02*
G01X3754Y6250D01*
G01X3754Y6250D02*
G01X3731Y6227D01*
G01X3731Y6227D02*
G01X3686Y6204D01*
G01X3686Y6204D02*
G01X3640Y6204D01*
G01X3640Y6204D02*
G01X3595Y6227D01*
G01X3595Y6227D02*
G01X3527Y6272D01*
G01X3527Y6272D02*
G01X3300Y6500D01*
G01X3300Y6181D02*
G01X3300Y6500D01*
G04 Draw part R10*
G04 draw part outline for part R10*
G54D10*
G01X6400Y10100D02*
G01X4700Y10100D01*
G01X4700Y10100D02*
G01X4700Y10900D01*
G01X4700Y10900D02*
G01X6400Y10900D01*
G01X6400Y10900D02*
G01X6400Y10100D01*
G04 draw reference designator for part R10*
G54D11*
G01X5000Y10677D02*
G01X5000Y10200D01*
G01X5204Y10677D02*
G01X5000Y10677D01*
G01X5204Y10677D02*
G01X5272Y10654D01*
G01X5272Y10654D02*
G01X5295Y10631D01*
G01X5295Y10631D02*
G01X5318Y10586D01*
G01X5318Y10586D02*
G01X5318Y10540D01*
G01X5318Y10540D02*
G01X5295Y10495D01*
G01X5295Y10495D02*
G01X5272Y10472D01*
G01X5272Y10472D02*
G01X5204Y10450D01*
G01X5000Y10450D02*
G01X5204Y10450D01*
G01X5159Y10450D02*
G01X5318Y10200D01*
G01X5545Y10609D02*
G01X5500Y10586D01*
G01X5613Y10677D02*
G01X5545Y10609D01*
G01X5613Y10677D02*
G01X5613Y10200D01*
G01X5931Y10677D02*
G01X5863Y10654D01*
G01X5863Y10654D02*
G01X5818Y10586D01*
G01X5818Y10586D02*
G01X5795Y10472D01*
G01X5795Y10472D02*
G01X5795Y10404D01*
G01X5795Y10404D02*
G01X5818Y10290D01*
G01X5818Y10290D02*
G01X5863Y10222D01*
G01X5863Y10222D02*
G01X5931Y10200D01*
G01X5977Y10200D02*
G01X5931Y10200D01*
G01X6045Y10222D02*
G01X5977Y10200D01*
G01X6090Y10290D02*
G01X6045Y10222D01*
G01X6113Y10404D02*
G01X6090Y10290D01*
G01X6113Y10472D02*
G01X6113Y10404D01*
G01X6090Y10586D02*
G01X6113Y10472D01*
G01X6045Y10654D02*
G01X6090Y10586D01*
G01X5977Y10677D02*
G01X6045Y10654D01*
G01X5931Y10677D02*
G01X5977Y10677D01*
G04 Draw part SW3*
G04 draw part outline for part SW3*
G54D10*
G01X7900Y12200D02*
G01X4200Y12200D01*
G01X4200Y12200D02*
G01X4200Y15800D01*
G01X4200Y15800D02*
G01X7900Y15800D01*
G01X7900Y15800D02*
G01X7900Y12200D01*
G04 draw reference designator for part SW3*
G54D11*
G01X5572Y16354D02*
G01X5618Y16309D01*
G01X5504Y16377D02*
G01X5572Y16354D01*
G01X5413Y16377D02*
G01X5504Y16377D01*
G01X5413Y16377D02*
G01X5345Y16354D01*
G01X5345Y16354D02*
G01X5300Y16309D01*
G01X5300Y16309D02*
G01X5300Y16263D01*
G01X5300Y16263D02*
G01X5322Y16218D01*
G01X5322Y16218D02*
G01X5345Y16195D01*
G01X5345Y16195D02*
G01X5390Y16172D01*
G01X5390Y16172D02*
G01X5527Y16127D01*
G01X5527Y16127D02*
G01X5572Y16104D01*
G01X5572Y16104D02*
G01X5595Y16081D01*
G01X5595Y16081D02*
G01X5618Y16036D01*
G01X5618Y16036D02*
G01X5618Y15968D01*
G01X5618Y15968D02*
G01X5572Y15922D01*
G01X5572Y15922D02*
G01X5504Y15900D01*
G01X5413Y15900D02*
G01X5504Y15900D01*
G01X5345Y15922D02*
G01X5413Y15900D01*
G01X5300Y15968D02*
G01X5345Y15922D01*
G01X5800Y16377D02*
G01X5913Y15900D01*
G01X6027Y16377D02*
G01X5913Y15900D01*
G01X6027Y16377D02*
G01X6140Y15900D01*
G01X6254Y16377D02*
G01X6140Y15900D01*
G01X6731Y16377D02*
G01X6481Y16377D01*
G01X6731Y16377D02*
G01X6595Y16195D01*
G01X6663Y16195D02*
G01X6595Y16195D01*
G01X6663Y16195D02*
G01X6709Y16172D01*
G01X6709Y16172D02*
G01X6731Y16150D01*
G01X6731Y16150D02*
G01X6754Y16081D01*
G01X6754Y16081D02*
G01X6754Y16036D01*
G01X6754Y16036D02*
G01X6731Y15968D01*
G01X6731Y15968D02*
G01X6686Y15922D01*
G01X6686Y15922D02*
G01X6618Y15900D01*
G01X6550Y15900D02*
G01X6618Y15900D01*
G01X6481Y15922D02*
G01X6550Y15900D01*
G01X6459Y15945D02*
G01X6481Y15922D01*
G01X6436Y15990D02*
G01X6459Y15945D01*
G04 Draw part R5*
G04 draw part outline for part R5*
G54D10*
G01X8900Y11700D02*
G01X8900Y13400D01*
G01X8900Y13400D02*
G01X9700Y13400D01*
G01X9700Y13400D02*
G01X9700Y11700D01*
G01X9700Y11700D02*
G01X8900Y11700D01*
G04 draw reference designator for part R5*
G54D11*
G01X9477Y13000D02*
G01X9000Y13000D01*
G01X9477Y12795D02*
G01X9477Y13000D01*
G01X9477Y12795D02*
G01X9454Y12727D01*
G01X9454Y12727D02*
G01X9431Y12704D01*
G01X9431Y12704D02*
G01X9386Y12681D01*
G01X9386Y12681D02*
G01X9340Y12681D01*
G01X9340Y12681D02*
G01X9295Y12704D01*
G01X9295Y12704D02*
G01X9272Y12727D01*
G01X9272Y12727D02*
G01X9250Y12795D01*
G01X9250Y13000D02*
G01X9250Y12795D01*
G01X9250Y12840D02*
G01X9000Y12681D01*
G01X9477Y12454D02*
G01X9477Y12227D01*
G01X9477Y12454D02*
G01X9272Y12477D01*
G01X9295Y12454D02*
G01X9272Y12477D01*
G01X9318Y12386D02*
G01X9295Y12454D01*
G01X9318Y12318D02*
G01X9318Y12386D01*
G01X9318Y12318D02*
G01X9295Y12250D01*
G01X9295Y12250D02*
G01X9250Y12204D01*
G01X9250Y12204D02*
G01X9181Y12181D01*
G01X9181Y12181D02*
G01X9136Y12181D01*
G01X9136Y12181D02*
G01X9068Y12204D01*
G01X9068Y12204D02*
G01X9022Y12250D01*
G01X9022Y12250D02*
G01X9000Y12318D01*
G01X9000Y12386D02*
G01X9000Y12318D01*
G01X9022Y12454D02*
G01X9000Y12386D01*
G01X9045Y12477D02*
G01X9022Y12454D01*
G01X9090Y12500D02*
G01X9045Y12477D01*
G04 Draw part R8*
G04 draw part outline for part R8*
G54D10*
G01X8100Y11700D02*
G01X8100Y13400D01*
G01X8100Y13400D02*
G01X8900Y13400D01*
G01X8900Y13400D02*
G01X8900Y11700D01*
G01X8900Y11700D02*
G01X8100Y11700D01*
G04 draw reference designator for part R8*
G54D11*
G01X8677Y13000D02*
G01X8200Y13000D01*
G01X8677Y12795D02*
G01X8677Y13000D01*
G01X8677Y12795D02*
G01X8654Y12727D01*
G01X8654Y12727D02*
G01X8631Y12704D01*
G01X8631Y12704D02*
G01X8586Y12681D01*
G01X8586Y12681D02*
G01X8540Y12681D01*
G01X8540Y12681D02*
G01X8495Y12704D01*
G01X8495Y12704D02*
G01X8472Y12727D01*
G01X8472Y12727D02*
G01X8450Y12795D01*
G01X8450Y13000D02*
G01X8450Y12795D01*
G01X8450Y12840D02*
G01X8200Y12681D01*
G01X8677Y12386D02*
G01X8654Y12454D01*
G01X8654Y12454D02*
G01X8609Y12477D01*
G01X8609Y12477D02*
G01X8563Y12477D01*
G01X8563Y12477D02*
G01X8518Y12454D01*
G01X8518Y12454D02*
G01X8495Y12409D01*
G01X8495Y12409D02*
G01X8472Y12318D01*
G01X8472Y12318D02*
G01X8450Y12250D01*
G01X8450Y12250D02*
G01X8404Y12204D01*
G01X8404Y12204D02*
G01X8359Y12181D01*
G01X8359Y12181D02*
G01X8290Y12181D01*
G01X8290Y12181D02*
G01X8245Y12204D01*
G01X8245Y12204D02*
G01X8222Y12227D01*
G01X8222Y12227D02*
G01X8200Y12295D01*
G01X8200Y12386D02*
G01X8200Y12295D01*
G01X8222Y12454D02*
G01X8200Y12386D01*
G01X8245Y12477D02*
G01X8222Y12454D01*
G01X8290Y12500D02*
G01X8245Y12477D01*
G01X8359Y12500D02*
G01X8290Y12500D01*
G01X8404Y12477D02*
G01X8359Y12500D01*
G01X8450Y12431D02*
G01X8404Y12477D01*
G01X8472Y12363D02*
G01X8450Y12431D01*
G01X8495Y12272D02*
G01X8472Y12363D01*
G01X8518Y12227D02*
G01X8495Y12272D01*
G01X8563Y12204D02*
G01X8518Y12227D01*
G01X8609Y12204D02*
G01X8563Y12204D01*
G01X8654Y12227D02*
G01X8609Y12204D01*
G01X8677Y12295D02*
G01X8654Y12227D01*
G01X8677Y12386D02*
G01X8677Y12295D01*
G04 Draw part R12*
G04 draw part outline for part R12*
G54D10*
G01X8300Y13700D02*
G01X8300Y15400D01*
G01X8300Y15400D02*
G01X9100Y15400D01*
G01X9100Y15400D02*
G01X9100Y13700D01*
G01X9100Y13700D02*
G01X8300Y13700D01*
G04 draw reference designator for part R12*
G54D11*
G01X8877Y15200D02*
G01X8400Y15200D01*
G01X8877Y14995D02*
G01X8877Y15200D01*
G01X8877Y14995D02*
G01X8854Y14927D01*
G01X8854Y14927D02*
G01X8831Y14904D01*
G01X8831Y14904D02*
G01X8786Y14881D01*
G01X8786Y14881D02*
G01X8740Y14881D01*
G01X8740Y14881D02*
G01X8695Y14904D01*
G01X8695Y14904D02*
G01X8672Y14927D01*
G01X8672Y14927D02*
G01X8650Y14995D01*
G01X8650Y15200D02*
G01X8650Y14995D01*
G01X8650Y15040D02*
G01X8400Y14881D01*
G01X8809Y14654D02*
G01X8786Y14700D01*
G01X8877Y14586D02*
G01X8809Y14654D01*
G01X8877Y14586D02*
G01X8400Y14586D01*
G01X8786Y14381D02*
G01X8763Y14381D01*
G01X8831Y14359D02*
G01X8786Y14381D01*
G01X8854Y14336D02*
G01X8831Y14359D01*
G01X8877Y14290D02*
G01X8854Y14336D01*
G01X8877Y14200D02*
G01X8877Y14290D01*
G01X8877Y14200D02*
G01X8854Y14154D01*
G01X8854Y14154D02*
G01X8831Y14131D01*
G01X8831Y14131D02*
G01X8786Y14109D01*
G01X8786Y14109D02*
G01X8740Y14109D01*
G01X8740Y14109D02*
G01X8695Y14131D01*
G01X8695Y14131D02*
G01X8627Y14177D01*
G01X8627Y14177D02*
G01X8400Y14404D01*
G01X8400Y14086D02*
G01X8400Y14404D01*
G04 Draw part R11*
G04 draw part outline for part R11*
G54D10*
G01X10000Y15400D02*
G01X8300Y15400D01*
G01X8300Y15400D02*
G01X8300Y16200D01*
G01X8300Y16200D02*
G01X10000Y16200D01*
G01X10000Y16200D02*
G01X10000Y15400D01*
G04 draw reference designator for part R11*
G54D11*
G01X8700Y15977D02*
G01X8700Y15500D01*
G01X8904Y15977D02*
G01X8700Y15977D01*
G01X8904Y15977D02*
G01X8972Y15954D01*
G01X8972Y15954D02*
G01X8995Y15931D01*
G01X8995Y15931D02*
G01X9018Y15886D01*
G01X9018Y15886D02*
G01X9018Y15840D01*
G01X9018Y15840D02*
G01X8995Y15795D01*
G01X8995Y15795D02*
G01X8972Y15772D01*
G01X8972Y15772D02*
G01X8904Y15750D01*
G01X8700Y15750D02*
G01X8904Y15750D01*
G01X8859Y15750D02*
G01X9018Y15500D01*
G01X9245Y15909D02*
G01X9200Y15886D01*
G01X9313Y15977D02*
G01X9245Y15909D01*
G01X9313Y15977D02*
G01X9313Y15500D01*
G01X9540Y15909D02*
G01X9495Y15886D01*
G01X9609Y15977D02*
G01X9540Y15909D01*
G01X9609Y15977D02*
G01X9609Y15500D01*
G04 Draw part U3*
G04 draw part outline for part U3*
G54D10*
G01X14000Y14300D02*
G01X16100Y14300D01*
G01X16100Y14300D02*
G01X16100Y12100D01*
G01X16100Y12100D02*
G01X14000Y12100D01*
G01X14000Y12100D02*
G01X14000Y14300D01*
G01X14000Y12900D02*
G01X14300Y13200D01*
G01X14300Y13200D02*
G01X14000Y13500D01*
G04 draw reference designator for part U3*
G54D11*
G01X14600Y13568D02*
G01X14600Y13090D01*
G01X14600Y13090D02*
G01X14631Y12995D01*
G01X14631Y12995D02*
G01X14695Y12931D01*
G01X14695Y12931D02*
G01X14790Y12900D01*
G01X14854Y12900D02*
G01X14790Y12900D01*
G01X14950Y12931D02*
G01X14854Y12900D01*
G01X15013Y12995D02*
G01X14950Y12931D01*
G01X15045Y13090D02*
G01X15013Y12995D01*
G01X15045Y13568D02*
G01X15045Y13090D01*
G01X15713Y13568D02*
G01X15363Y13568D01*
G01X15713Y13568D02*
G01X15522Y13313D01*
G01X15618Y13313D02*
G01X15522Y13313D01*
G01X15618Y13313D02*
G01X15681Y13281D01*
G01X15681Y13281D02*
G01X15713Y13250D01*
G01X15713Y13250D02*
G01X15745Y13154D01*
G01X15745Y13154D02*
G01X15745Y13090D01*
G01X15745Y13090D02*
G01X15713Y12995D01*
G01X15713Y12995D02*
G01X15650Y12931D01*
G01X15650Y12931D02*
G01X15554Y12900D01*
G01X15459Y12900D02*
G01X15554Y12900D01*
G01X15363Y12931D02*
G01X15459Y12900D01*
G01X15331Y12963D02*
G01X15363Y12931D01*
G01X15300Y13027D02*
G01X15331Y12963D01*
G04 Draw part R7*
G04 draw part outline for part R7*
G54D10*
G01X10900Y16200D02*
G01X12600Y16200D01*
G01X12600Y16200D02*
G01X12600Y15400D01*
G01X12600Y15400D02*
G01X10900Y15400D01*
G01X10900Y15400D02*
G01X10900Y16200D01*
G04 draw reference designator for part R7*
G54D11*
G01X11300Y15977D02*
G01X11300Y15500D01*
G01X11504Y15977D02*
G01X11300Y15977D01*
G01X11504Y15977D02*
G01X11572Y15954D01*
G01X11572Y15954D02*
G01X11595Y15931D01*
G01X11595Y15931D02*
G01X11618Y15886D01*
G01X11618Y15886D02*
G01X11618Y15840D01*
G01X11618Y15840D02*
G01X11595Y15795D01*
G01X11595Y15795D02*
G01X11572Y15772D01*
G01X11572Y15772D02*
G01X11504Y15750D01*
G01X11300Y15750D02*
G01X11504Y15750D01*
G01X11459Y15750D02*
G01X11618Y15500D01*
G01X12118Y15977D02*
G01X11890Y15500D01*
G01X12118Y15977D02*
G01X11800Y15977D01*
G04 Draw part R4*
G04 draw part outline for part R4*
G54D10*
G01X13700Y13400D02*
G01X13700Y11700D01*
G01X13700Y11700D02*
G01X12900Y11700D01*
G01X12900Y11700D02*
G01X12900Y13400D01*
G01X12900Y13400D02*
G01X13700Y13400D01*
G04 draw reference designator for part R4*
G54D11*
G01X13477Y13000D02*
G01X13000Y13000D01*
G01X13477Y12795D02*
G01X13477Y13000D01*
G01X13477Y12795D02*
G01X13454Y12727D01*
G01X13454Y12727D02*
G01X13431Y12704D01*
G01X13431Y12704D02*
G01X13386Y12681D01*
G01X13386Y12681D02*
G01X13340Y12681D01*
G01X13340Y12681D02*
G01X13295Y12704D01*
G01X13295Y12704D02*
G01X13272Y12727D01*
G01X13272Y12727D02*
G01X13250Y12795D01*
G01X13250Y13000D02*
G01X13250Y12795D01*
G01X13250Y12840D02*
G01X13000Y12681D01*
G01X13477Y12272D02*
G01X13159Y12500D01*
G01X13159Y12159D02*
G01X13159Y12500D01*
G01X13477Y12272D02*
G01X13000Y12272D01*
G04 Draw part R9*
G04 draw part outline for part R9*
G54D10*
G01X12900Y9900D02*
G01X12900Y11600D01*
G01X12900Y11600D02*
G01X13700Y11600D01*
G01X13700Y11600D02*
G01X13700Y9900D01*
G01X13700Y9900D02*
G01X12900Y9900D01*
G04 draw reference designator for part R9*
G54D11*
G01X13477Y11100D02*
G01X13000Y11100D01*
G01X13477Y10895D02*
G01X13477Y11100D01*
G01X13477Y10895D02*
G01X13454Y10827D01*
G01X13454Y10827D02*
G01X13431Y10804D01*
G01X13431Y10804D02*
G01X13386Y10781D01*
G01X13386Y10781D02*
G01X13340Y10781D01*
G01X13340Y10781D02*
G01X13295Y10804D01*
G01X13295Y10804D02*
G01X13272Y10827D01*
G01X13272Y10827D02*
G01X13250Y10895D01*
G01X13250Y11100D02*
G01X13250Y10895D01*
G01X13250Y10940D02*
G01X13000Y10781D01*
G01X13318Y10304D02*
G01X13250Y10327D01*
G01X13250Y10327D02*
G01X13204Y10372D01*
G01X13204Y10372D02*
G01X13181Y10440D01*
G01X13181Y10463D02*
G01X13181Y10440D01*
G01X13204Y10531D02*
G01X13181Y10463D01*
G01X13250Y10577D02*
G01X13204Y10531D01*
G01X13318Y10600D02*
G01X13250Y10577D01*
G01X13340Y10600D02*
G01X13318Y10600D01*
G01X13409Y10577D02*
G01X13340Y10600D01*
G01X13454Y10531D02*
G01X13409Y10577D01*
G01X13477Y10463D02*
G01X13454Y10531D01*
G01X13477Y10440D02*
G01X13477Y10463D01*
G01X13477Y10440D02*
G01X13454Y10372D01*
G01X13454Y10372D02*
G01X13409Y10327D01*
G01X13409Y10327D02*
G01X13318Y10304D01*
G01X13318Y10304D02*
G01X13204Y10304D01*
G01X13204Y10304D02*
G01X13090Y10327D01*
G01X13090Y10327D02*
G01X13022Y10372D01*
G01X13022Y10372D02*
G01X13000Y10440D01*
G01X13000Y10486D02*
G01X13000Y10440D01*
G01X13022Y10554D02*
G01X13000Y10486D01*
G01X13068Y10577D02*
G01X13022Y10554D01*
G04 Draw part J2*
G04 Draw part U2*
G04 draw part outline for part U2*
G54D10*
G01X24400Y14300D02*
G01X26500Y14300D01*
G01X26500Y14300D02*
G01X26500Y12100D01*
G01X26500Y12100D02*
G01X24400Y12100D01*
G01X24400Y12100D02*
G01X24400Y14300D01*
G01X24400Y12900D02*
G01X24700Y13200D01*
G01X24700Y13200D02*
G01X24400Y13500D01*
G04 draw reference designator for part U2*
G54D11*
G01X25000Y13468D02*
G01X25000Y12990D01*
G01X25000Y12990D02*
G01X25031Y12895D01*
G01X25031Y12895D02*
G01X25095Y12831D01*
G01X25095Y12831D02*
G01X25190Y12800D01*
G01X25254Y12800D02*
G01X25190Y12800D01*
G01X25350Y12831D02*
G01X25254Y12800D01*
G01X25413Y12895D02*
G01X25350Y12831D01*
G01X25445Y12990D02*
G01X25413Y12895D01*
G01X25445Y13468D02*
G01X25445Y12990D01*
G01X25731Y13340D02*
G01X25731Y13309D01*
G01X25763Y13404D02*
G01X25731Y13340D01*
G01X25795Y13436D02*
G01X25763Y13404D01*
G01X25859Y13468D02*
G01X25795Y13436D01*
G01X25986Y13468D02*
G01X25859Y13468D01*
G01X25986Y13468D02*
G01X26050Y13436D01*
G01X26050Y13436D02*
G01X26081Y13404D01*
G01X26081Y13404D02*
G01X26113Y13340D01*
G01X26113Y13340D02*
G01X26113Y13277D01*
G01X26113Y13277D02*
G01X26081Y13213D01*
G01X26081Y13213D02*
G01X26018Y13118D01*
G01X26018Y13118D02*
G01X25700Y12800D01*
G01X26145Y12800D02*
G01X25700Y12800D01*
G04 Draw part C3*
G04 draw part outline for part C3*
G54D10*
G01X34300Y5000D02*
G01X31900Y5000D01*
G01X31900Y5000D02*
G01X31900Y6000D01*
G01X31900Y6000D02*
G01X34300Y6000D01*
G01X34300Y6000D02*
G01X34300Y5000D01*
G04 draw reference designator for part C3*
G54D11*
G01X33018Y5609D02*
G01X33040Y5563D01*
G01X32972Y5654D02*
G01X33018Y5609D01*
G01X32927Y5677D02*
G01X32972Y5654D01*
G01X32836Y5677D02*
G01X32927Y5677D01*
G01X32836Y5677D02*
G01X32790Y5654D01*
G01X32790Y5654D02*
G01X32745Y5609D01*
G01X32745Y5609D02*
G01X32722Y5563D01*
G01X32722Y5563D02*
G01X32700Y5495D01*
G01X32700Y5495D02*
G01X32700Y5381D01*
G01X32700Y5381D02*
G01X32722Y5313D01*
G01X32722Y5313D02*
G01X32745Y5268D01*
G01X32745Y5268D02*
G01X32790Y5222D01*
G01X32790Y5222D02*
G01X32836Y5200D01*
G01X32927Y5200D02*
G01X32836Y5200D01*
G01X32972Y5222D02*
G01X32927Y5200D01*
G01X33018Y5268D02*
G01X32972Y5222D01*
G01X33040Y5313D02*
G01X33018Y5268D01*
G01X33518Y5677D02*
G01X33268Y5677D01*
G01X33518Y5677D02*
G01X33381Y5495D01*
G01X33450Y5495D02*
G01X33381Y5495D01*
G01X33450Y5495D02*
G01X33495Y5472D01*
G01X33495Y5472D02*
G01X33518Y5450D01*
G01X33518Y5450D02*
G01X33540Y5381D01*
G01X33540Y5381D02*
G01X33540Y5336D01*
G01X33540Y5336D02*
G01X33518Y5268D01*
G01X33518Y5268D02*
G01X33472Y5222D01*
G01X33472Y5222D02*
G01X33404Y5200D01*
G01X33336Y5200D02*
G01X33404Y5200D01*
G01X33268Y5222D02*
G01X33336Y5200D01*
G01X33245Y5245D02*
G01X33268Y5222D01*
G01X33222Y5290D02*
G01X33245Y5245D01*
G04 Draw part SW6*
G04 draw part outline for part SW6*
G54D10*
G01X32800Y6200D02*
G01X29100Y6200D01*
G01X29100Y6200D02*
G01X29100Y9800D01*
G01X29100Y9800D02*
G01X32800Y9800D01*
G01X32800Y9800D02*
G01X32800Y6200D01*
G04 draw reference designator for part SW6*
G54D11*
G01X33272Y9654D02*
G01X33318Y9609D01*
G01X33204Y9677D02*
G01X33272Y9654D01*
G01X33113Y9677D02*
G01X33204Y9677D01*
G01X33113Y9677D02*
G01X33045Y9654D01*
G01X33045Y9654D02*
G01X33000Y9609D01*
G01X33000Y9609D02*
G01X33000Y9563D01*
G01X33000Y9563D02*
G01X33022Y9518D01*
G01X33022Y9518D02*
G01X33045Y9495D01*
G01X33045Y9495D02*
G01X33090Y9472D01*
G01X33090Y9472D02*
G01X33227Y9427D01*
G01X33227Y9427D02*
G01X33272Y9404D01*
G01X33272Y9404D02*
G01X33295Y9381D01*
G01X33295Y9381D02*
G01X33318Y9336D01*
G01X33318Y9336D02*
G01X33318Y9268D01*
G01X33318Y9268D02*
G01X33272Y9222D01*
G01X33272Y9222D02*
G01X33204Y9200D01*
G01X33113Y9200D02*
G01X33204Y9200D01*
G01X33045Y9222D02*
G01X33113Y9200D01*
G01X33000Y9268D02*
G01X33045Y9222D01*
G01X33500Y9677D02*
G01X33613Y9200D01*
G01X33727Y9677D02*
G01X33613Y9200D01*
G01X33727Y9677D02*
G01X33840Y9200D01*
G01X33954Y9677D02*
G01X33840Y9200D01*
G01X34386Y9654D02*
G01X34409Y9609D01*
G01X34318Y9677D02*
G01X34386Y9654D01*
G01X34272Y9677D02*
G01X34318Y9677D01*
G01X34272Y9677D02*
G01X34204Y9654D01*
G01X34204Y9654D02*
G01X34159Y9586D01*
G01X34159Y9586D02*
G01X34136Y9472D01*
G01X34136Y9472D02*
G01X34136Y9359D01*
G01X34136Y9359D02*
G01X34159Y9268D01*
G01X34159Y9268D02*
G01X34204Y9222D01*
G01X34204Y9222D02*
G01X34272Y9200D01*
G01X34295Y9200D02*
G01X34272Y9200D01*
G01X34363Y9222D02*
G01X34295Y9200D01*
G01X34409Y9268D02*
G01X34363Y9222D01*
G01X34431Y9336D02*
G01X34409Y9268D01*
G01X34431Y9359D02*
G01X34431Y9336D01*
G01X34409Y9427D02*
G01X34431Y9359D01*
G01X34363Y9472D02*
G01X34409Y9427D01*
G01X34295Y9495D02*
G01X34363Y9472D01*
G01X34272Y9495D02*
G01X34295Y9495D01*
G01X34272Y9495D02*
G01X34204Y9472D01*
G01X34204Y9472D02*
G01X34159Y9427D01*
G01X34159Y9427D02*
G01X34136Y9359D01*
G04 Draw part R16*
G04 draw part outline for part R16*
G54D10*
G01X28300Y7100D02*
G01X28300Y8800D01*
G01X28300Y8800D02*
G01X29100Y8800D01*
G01X29100Y8800D02*
G01X29100Y7100D01*
G01X29100Y7100D02*
G01X28300Y7100D01*
G04 draw reference designator for part R16*
G54D11*
G01X28877Y8500D02*
G01X28400Y8500D01*
G01X28877Y8295D02*
G01X28877Y8500D01*
G01X28877Y8295D02*
G01X28854Y8227D01*
G01X28854Y8227D02*
G01X28831Y8204D01*
G01X28831Y8204D02*
G01X28786Y8181D01*
G01X28786Y8181D02*
G01X28740Y8181D01*
G01X28740Y8181D02*
G01X28695Y8204D01*
G01X28695Y8204D02*
G01X28672Y8227D01*
G01X28672Y8227D02*
G01X28650Y8295D01*
G01X28650Y8500D02*
G01X28650Y8295D01*
G01X28650Y8340D02*
G01X28400Y8181D01*
G01X28809Y7954D02*
G01X28786Y8000D01*
G01X28877Y7886D02*
G01X28809Y7954D01*
G01X28877Y7886D02*
G01X28400Y7886D01*
G01X28854Y7454D02*
G01X28809Y7431D01*
G01X28877Y7522D02*
G01X28854Y7454D01*
G01X28877Y7568D02*
G01X28877Y7522D01*
G01X28877Y7568D02*
G01X28854Y7636D01*
G01X28854Y7636D02*
G01X28786Y7681D01*
G01X28786Y7681D02*
G01X28672Y7704D01*
G01X28672Y7704D02*
G01X28559Y7704D01*
G01X28559Y7704D02*
G01X28468Y7681D01*
G01X28468Y7681D02*
G01X28422Y7636D01*
G01X28422Y7636D02*
G01X28400Y7568D01*
G01X28400Y7545D02*
G01X28400Y7568D01*
G01X28422Y7477D02*
G01X28400Y7545D01*
G01X28468Y7431D02*
G01X28422Y7477D01*
G01X28536Y7409D02*
G01X28468Y7431D01*
G01X28559Y7409D02*
G01X28536Y7409D01*
G01X28627Y7431D02*
G01X28559Y7409D01*
G01X28672Y7477D02*
G01X28627Y7431D01*
G01X28695Y7545D02*
G01X28672Y7477D01*
G01X28695Y7568D02*
G01X28695Y7545D01*
G01X28695Y7568D02*
G01X28672Y7636D01*
G01X28672Y7636D02*
G01X28627Y7681D01*
G01X28627Y7681D02*
G01X28559Y7704D01*
G04 Draw part R19*
G04 draw part outline for part R19*
G54D10*
G01X28300Y8800D02*
G01X28300Y7100D01*
G01X28300Y7100D02*
G01X27500Y7100D01*
G01X27500Y7100D02*
G01X27500Y8800D01*
G01X27500Y8800D02*
G01X28300Y8800D01*
G04 draw reference designator for part R19*
G54D11*
G01X28077Y8500D02*
G01X27600Y8500D01*
G01X28077Y8295D02*
G01X28077Y8500D01*
G01X28077Y8295D02*
G01X28054Y8227D01*
G01X28054Y8227D02*
G01X28031Y8204D01*
G01X28031Y8204D02*
G01X27986Y8181D01*
G01X27986Y8181D02*
G01X27940Y8181D01*
G01X27940Y8181D02*
G01X27895Y8204D01*
G01X27895Y8204D02*
G01X27872Y8227D01*
G01X27872Y8227D02*
G01X27850Y8295D01*
G01X27850Y8500D02*
G01X27850Y8295D01*
G01X27850Y8340D02*
G01X27600Y8181D01*
G01X28009Y7954D02*
G01X27986Y8000D01*
G01X28077Y7886D02*
G01X28009Y7954D01*
G01X28077Y7886D02*
G01X27600Y7886D01*
G01X27918Y7409D02*
G01X27850Y7431D01*
G01X27850Y7431D02*
G01X27804Y7477D01*
G01X27804Y7477D02*
G01X27781Y7545D01*
G01X27781Y7568D02*
G01X27781Y7545D01*
G01X27804Y7636D02*
G01X27781Y7568D01*
G01X27850Y7681D02*
G01X27804Y7636D01*
G01X27918Y7704D02*
G01X27850Y7681D01*
G01X27940Y7704D02*
G01X27918Y7704D01*
G01X28009Y7681D02*
G01X27940Y7704D01*
G01X28054Y7636D02*
G01X28009Y7681D01*
G01X28077Y7568D02*
G01X28054Y7636D01*
G01X28077Y7545D02*
G01X28077Y7568D01*
G01X28077Y7545D02*
G01X28054Y7477D01*
G01X28054Y7477D02*
G01X28009Y7431D01*
G01X28009Y7431D02*
G01X27918Y7409D01*
G01X27918Y7409D02*
G01X27804Y7409D01*
G01X27804Y7409D02*
G01X27690Y7431D01*
G01X27690Y7431D02*
G01X27622Y7477D01*
G01X27622Y7477D02*
G01X27600Y7545D01*
G01X27600Y7590D02*
G01X27600Y7545D01*
G01X27622Y7659D02*
G01X27600Y7590D01*
G01X27668Y7681D02*
G01X27622Y7659D01*
G04 Draw part SW5*
G04 draw part outline for part SW5*
G54D10*
G01X28500Y3600D02*
G01X36500Y3600D01*
G01X36500Y3600D02*
G01X36500Y-100D01*
G01X36500Y-100D02*
G01X28500Y-100D01*
G01X28500Y-100D02*
G01X28500Y3600D01*
G01X30500Y-100D02*
G01X30500Y-2900D01*
G01X30500Y-2900D02*
G01X32700Y-2900D01*
G01X32700Y-2900D02*
G01X32700Y-100D01*
G01X34500Y-100D02*
G01X34500Y-500D01*
G01X34500Y-800D02*
G01X34500Y-1200D01*
G01X34500Y-1500D02*
G01X34500Y-1900D01*
G01X34500Y-2200D02*
G01X34500Y-2600D01*
G01X34500Y-2900D02*
G01X34000Y-2900D01*
G01X33700Y-2900D02*
G01X33200Y-2900D01*
G01X32900Y-2900D02*
G01X32700Y-2900D01*
G04 draw reference designator for part SW5*
G54D11*
G01X28772Y2754D02*
G01X28818Y2709D01*
G01X28704Y2777D02*
G01X28772Y2754D01*
G01X28613Y2777D02*
G01X28704Y2777D01*
G01X28613Y2777D02*
G01X28545Y2754D01*
G01X28545Y2754D02*
G01X28500Y2709D01*
G01X28500Y2709D02*
G01X28500Y2663D01*
G01X28500Y2663D02*
G01X28522Y2618D01*
G01X28522Y2618D02*
G01X28545Y2595D01*
G01X28545Y2595D02*
G01X28590Y2572D01*
G01X28590Y2572D02*
G01X28727Y2527D01*
G01X28727Y2527D02*
G01X28772Y2504D01*
G01X28772Y2504D02*
G01X28795Y2481D01*
G01X28795Y2481D02*
G01X28818Y2436D01*
G01X28818Y2436D02*
G01X28818Y2368D01*
G01X28818Y2368D02*
G01X28772Y2322D01*
G01X28772Y2322D02*
G01X28704Y2300D01*
G01X28613Y2300D02*
G01X28704Y2300D01*
G01X28545Y2322D02*
G01X28613Y2300D01*
G01X28500Y2368D02*
G01X28545Y2322D01*
G01X29000Y2777D02*
G01X29113Y2300D01*
G01X29227Y2777D02*
G01X29113Y2300D01*
G01X29227Y2777D02*
G01X29340Y2300D01*
G01X29454Y2777D02*
G01X29340Y2300D01*
G01X29681Y2777D02*
G01X29909Y2777D01*
G01X29681Y2777D02*
G01X29659Y2572D01*
G01X29681Y2595D02*
G01X29659Y2572D01*
G01X29750Y2618D02*
G01X29681Y2595D01*
G01X29818Y2618D02*
G01X29750Y2618D01*
G01X29818Y2618D02*
G01X29886Y2595D01*
G01X29886Y2595D02*
G01X29931Y2550D01*
G01X29931Y2550D02*
G01X29954Y2481D01*
G01X29954Y2481D02*
G01X29954Y2436D01*
G01X29954Y2436D02*
G01X29931Y2368D01*
G01X29931Y2368D02*
G01X29886Y2322D01*
G01X29886Y2322D02*
G01X29818Y2300D01*
G01X29750Y2300D02*
G01X29818Y2300D01*
G01X29681Y2322D02*
G01X29750Y2300D01*
G01X29659Y2345D02*
G01X29681Y2322D01*
G01X29636Y2390D02*
G01X29659Y2345D01*
G04 Draw part R14*
G04 draw part outline for part R14*
G54D10*
G01X31000Y5900D02*
G01X31000Y4200D01*
G01X31000Y4200D02*
G01X30200Y4200D01*
G01X30200Y4200D02*
G01X30200Y5900D01*
G01X30200Y5900D02*
G01X31000Y5900D01*
G04 draw reference designator for part R14*
G54D11*
G01X30777Y5600D02*
G01X30300Y5600D01*
G01X30777Y5395D02*
G01X30777Y5600D01*
G01X30777Y5395D02*
G01X30754Y5327D01*
G01X30754Y5327D02*
G01X30731Y5304D01*
G01X30731Y5304D02*
G01X30686Y5281D01*
G01X30686Y5281D02*
G01X30640Y5281D01*
G01X30640Y5281D02*
G01X30595Y5304D01*
G01X30595Y5304D02*
G01X30572Y5327D01*
G01X30572Y5327D02*
G01X30550Y5395D01*
G01X30550Y5600D02*
G01X30550Y5395D01*
G01X30550Y5440D02*
G01X30300Y5281D01*
G01X30709Y5054D02*
G01X30686Y5100D01*
G01X30777Y4986D02*
G01X30709Y5054D01*
G01X30777Y4986D02*
G01X30300Y4986D01*
G01X30777Y4577D02*
G01X30459Y4804D01*
G01X30459Y4463D02*
G01X30459Y4804D01*
G01X30777Y4577D02*
G01X30300Y4577D01*
G04 Draw part C4*
G04 draw part outline for part C4*
G54D10*
G01X31900Y5900D02*
G01X31900Y4200D01*
G01X31900Y4200D02*
G01X31100Y4200D01*
G01X31100Y4200D02*
G01X31100Y5900D01*
G01X31100Y5900D02*
G01X31900Y5900D01*
G04 draw reference designator for part C4*
G54D11*
G01X31609Y5281D02*
G01X31563Y5259D01*
G01X31654Y5327D02*
G01X31609Y5281D01*
G01X31677Y5372D02*
G01X31654Y5327D01*
G01X31677Y5463D02*
G01X31677Y5372D01*
G01X31677Y5463D02*
G01X31654Y5509D01*
G01X31654Y5509D02*
G01X31609Y5554D01*
G01X31609Y5554D02*
G01X31563Y5577D01*
G01X31563Y5577D02*
G01X31495Y5600D01*
G01X31495Y5600D02*
G01X31381Y5600D01*
G01X31381Y5600D02*
G01X31313Y5577D01*
G01X31313Y5577D02*
G01X31268Y5554D01*
G01X31268Y5554D02*
G01X31222Y5509D01*
G01X31222Y5509D02*
G01X31200Y5463D01*
G01X31200Y5372D02*
G01X31200Y5463D01*
G01X31222Y5327D02*
G01X31200Y5372D01*
G01X31268Y5281D02*
G01X31222Y5327D01*
G01X31313Y5259D02*
G01X31268Y5281D01*
G01X31677Y4850D02*
G01X31359Y5077D01*
G01X31359Y4736D02*
G01X31359Y5077D01*
G01X31677Y4850D02*
G01X31200Y4850D01*
G04 Draw part R15*
G04 draw part outline for part R15*
G54D10*
G01X29300Y4200D02*
G01X29300Y5900D01*
G01X29300Y5900D02*
G01X30100Y5900D01*
G01X30100Y5900D02*
G01X30100Y4200D01*
G01X30100Y4200D02*
G01X29300Y4200D01*
G04 draw reference designator for part R15*
G54D11*
G01X29877Y5600D02*
G01X29400Y5600D01*
G01X29877Y5395D02*
G01X29877Y5600D01*
G01X29877Y5395D02*
G01X29854Y5327D01*
G01X29854Y5327D02*
G01X29831Y5304D01*
G01X29831Y5304D02*
G01X29786Y5281D01*
G01X29786Y5281D02*
G01X29740Y5281D01*
G01X29740Y5281D02*
G01X29695Y5304D01*
G01X29695Y5304D02*
G01X29672Y5327D01*
G01X29672Y5327D02*
G01X29650Y5395D01*
G01X29650Y5600D02*
G01X29650Y5395D01*
G01X29650Y5440D02*
G01X29400Y5281D01*
G01X29809Y5054D02*
G01X29786Y5100D01*
G01X29877Y4986D02*
G01X29809Y5054D01*
G01X29877Y4986D02*
G01X29400Y4986D01*
G01X29877Y4759D02*
G01X29877Y4531D01*
G01X29877Y4759D02*
G01X29672Y4781D01*
G01X29695Y4759D02*
G01X29672Y4781D01*
G01X29718Y4690D02*
G01X29695Y4759D01*
G01X29718Y4622D02*
G01X29718Y4690D01*
G01X29718Y4622D02*
G01X29695Y4554D01*
G01X29695Y4554D02*
G01X29650Y4509D01*
G01X29650Y4509D02*
G01X29581Y4486D01*
G01X29581Y4486D02*
G01X29536Y4486D01*
G01X29536Y4486D02*
G01X29468Y4509D01*
G01X29468Y4509D02*
G01X29422Y4554D01*
G01X29422Y4554D02*
G01X29400Y4622D01*
G01X29400Y4690D02*
G01X29400Y4622D01*
G01X29422Y4759D02*
G01X29400Y4690D01*
G01X29445Y4781D02*
G01X29422Y4759D01*
G01X29490Y4804D02*
G01X29445Y4781D01*
G04 Draw part R23*
G04 draw part outline for part R23*
G54D10*
G01X30600Y10900D02*
G01X32300Y10900D01*
G01X32300Y10900D02*
G01X32300Y10100D01*
G01X32300Y10100D02*
G01X30600Y10100D01*
G01X30600Y10100D02*
G01X30600Y10900D01*
G04 draw reference designator for part R23*
G54D11*
G01X30800Y10677D02*
G01X30800Y10200D01*
G01X31004Y10677D02*
G01X30800Y10677D01*
G01X31004Y10677D02*
G01X31072Y10654D01*
G01X31072Y10654D02*
G01X31095Y10631D01*
G01X31095Y10631D02*
G01X31118Y10586D01*
G01X31118Y10586D02*
G01X31118Y10540D01*
G01X31118Y10540D02*
G01X31095Y10495D01*
G01X31095Y10495D02*
G01X31072Y10472D01*
G01X31072Y10472D02*
G01X31004Y10450D01*
G01X30800Y10450D02*
G01X31004Y10450D01*
G01X30959Y10450D02*
G01X31118Y10200D01*
G01X31322Y10586D02*
G01X31322Y10563D01*
G01X31345Y10631D02*
G01X31322Y10586D01*
G01X31368Y10654D02*
G01X31345Y10631D01*
G01X31413Y10677D02*
G01X31368Y10654D01*
G01X31504Y10677D02*
G01X31413Y10677D01*
G01X31504Y10677D02*
G01X31550Y10654D01*
G01X31550Y10654D02*
G01X31572Y10631D01*
G01X31572Y10631D02*
G01X31595Y10586D01*
G01X31595Y10586D02*
G01X31595Y10540D01*
G01X31595Y10540D02*
G01X31572Y10495D01*
G01X31572Y10495D02*
G01X31527Y10427D01*
G01X31527Y10427D02*
G01X31300Y10200D01*
G01X31618Y10200D02*
G01X31300Y10200D01*
G01X32095Y10677D02*
G01X31845Y10677D01*
G01X32095Y10677D02*
G01X31959Y10495D01*
G01X32027Y10495D02*
G01X31959Y10495D01*
G01X32027Y10495D02*
G01X32072Y10472D01*
G01X32072Y10472D02*
G01X32095Y10450D01*
G01X32095Y10450D02*
G01X32118Y10381D01*
G01X32118Y10381D02*
G01X32118Y10336D01*
G01X32118Y10336D02*
G01X32095Y10268D01*
G01X32095Y10268D02*
G01X32050Y10222D01*
G01X32050Y10222D02*
G01X31981Y10200D01*
G01X31913Y10200D02*
G01X31981Y10200D01*
G01X31845Y10222D02*
G01X31913Y10200D01*
G01X31822Y10245D02*
G01X31845Y10222D01*
G01X31800Y10290D02*
G01X31822Y10245D01*
G04 Draw part SW7*
G04 draw part outline for part SW7*
G54D10*
G01X32800Y12200D02*
G01X29100Y12200D01*
G01X29100Y12200D02*
G01X29100Y15800D01*
G01X29100Y15800D02*
G01X32800Y15800D01*
G01X32800Y15800D02*
G01X32800Y12200D01*
G04 draw reference designator for part SW7*
G54D11*
G01X30572Y16354D02*
G01X30618Y16309D01*
G01X30504Y16377D02*
G01X30572Y16354D01*
G01X30413Y16377D02*
G01X30504Y16377D01*
G01X30413Y16377D02*
G01X30345Y16354D01*
G01X30345Y16354D02*
G01X30300Y16309D01*
G01X30300Y16309D02*
G01X30300Y16263D01*
G01X30300Y16263D02*
G01X30322Y16218D01*
G01X30322Y16218D02*
G01X30345Y16195D01*
G01X30345Y16195D02*
G01X30390Y16172D01*
G01X30390Y16172D02*
G01X30527Y16127D01*
G01X30527Y16127D02*
G01X30572Y16104D01*
G01X30572Y16104D02*
G01X30595Y16081D01*
G01X30595Y16081D02*
G01X30618Y16036D01*
G01X30618Y16036D02*
G01X30618Y15968D01*
G01X30618Y15968D02*
G01X30572Y15922D01*
G01X30572Y15922D02*
G01X30504Y15900D01*
G01X30413Y15900D02*
G01X30504Y15900D01*
G01X30345Y15922D02*
G01X30413Y15900D01*
G01X30300Y15968D02*
G01X30345Y15922D01*
G01X30800Y16377D02*
G01X30913Y15900D01*
G01X31027Y16377D02*
G01X30913Y15900D01*
G01X31027Y16377D02*
G01X31140Y15900D01*
G01X31254Y16377D02*
G01X31140Y15900D01*
G01X31754Y16377D02*
G01X31527Y15900D01*
G01X31754Y16377D02*
G01X31436Y16377D01*
G04 Draw part R18*
G04 draw part outline for part R18*
G54D10*
G01X27300Y11700D02*
G01X27300Y13400D01*
G01X27300Y13400D02*
G01X28100Y13400D01*
G01X28100Y13400D02*
G01X28100Y11700D01*
G01X28100Y11700D02*
G01X27300Y11700D01*
G04 draw reference designator for part R18*
G54D11*
G01X27877Y13100D02*
G01X27400Y13100D01*
G01X27877Y12895D02*
G01X27877Y13100D01*
G01X27877Y12895D02*
G01X27854Y12827D01*
G01X27854Y12827D02*
G01X27831Y12804D01*
G01X27831Y12804D02*
G01X27786Y12781D01*
G01X27786Y12781D02*
G01X27740Y12781D01*
G01X27740Y12781D02*
G01X27695Y12804D01*
G01X27695Y12804D02*
G01X27672Y12827D01*
G01X27672Y12827D02*
G01X27650Y12895D01*
G01X27650Y13100D02*
G01X27650Y12895D01*
G01X27650Y12940D02*
G01X27400Y12781D01*
G01X27809Y12554D02*
G01X27786Y12600D01*
G01X27877Y12486D02*
G01X27809Y12554D01*
G01X27877Y12486D02*
G01X27400Y12486D01*
G01X27877Y12190D02*
G01X27854Y12259D01*
G01X27854Y12259D02*
G01X27809Y12281D01*
G01X27809Y12281D02*
G01X27763Y12281D01*
G01X27763Y12281D02*
G01X27718Y12259D01*
G01X27718Y12259D02*
G01X27695Y12213D01*
G01X27695Y12213D02*
G01X27672Y12122D01*
G01X27672Y12122D02*
G01X27650Y12054D01*
G01X27650Y12054D02*
G01X27604Y12009D01*
G01X27604Y12009D02*
G01X27559Y11986D01*
G01X27559Y11986D02*
G01X27490Y11986D01*
G01X27490Y11986D02*
G01X27445Y12009D01*
G01X27445Y12009D02*
G01X27422Y12031D01*
G01X27422Y12031D02*
G01X27400Y12100D01*
G01X27400Y12190D02*
G01X27400Y12100D01*
G01X27422Y12259D02*
G01X27400Y12190D01*
G01X27445Y12281D02*
G01X27422Y12259D01*
G01X27490Y12304D02*
G01X27445Y12281D01*
G01X27559Y12304D02*
G01X27490Y12304D01*
G01X27604Y12281D02*
G01X27559Y12304D01*
G01X27650Y12236D02*
G01X27604Y12281D01*
G01X27672Y12168D02*
G01X27650Y12236D01*
G01X27695Y12077D02*
G01X27672Y12168D01*
G01X27718Y12031D02*
G01X27695Y12077D01*
G01X27763Y12009D02*
G01X27718Y12031D01*
G01X27809Y12009D02*
G01X27763Y12009D01*
G01X27854Y12031D02*
G01X27809Y12009D01*
G01X27877Y12100D02*
G01X27854Y12031D01*
G01X27877Y12190D02*
G01X27877Y12100D01*
G04 Draw part R21*
G04 draw part outline for part R21*
G54D10*
G01X28100Y11700D02*
G01X28100Y13400D01*
G01X28100Y13400D02*
G01X28900Y13400D01*
G01X28900Y13400D02*
G01X28900Y11700D01*
G01X28900Y11700D02*
G01X28100Y11700D01*
G04 draw reference designator for part R21*
G54D11*
G01X28677Y13100D02*
G01X28200Y13100D01*
G01X28677Y12895D02*
G01X28677Y13100D01*
G01X28677Y12895D02*
G01X28654Y12827D01*
G01X28654Y12827D02*
G01X28631Y12804D01*
G01X28631Y12804D02*
G01X28586Y12781D01*
G01X28586Y12781D02*
G01X28540Y12781D01*
G01X28540Y12781D02*
G01X28495Y12804D01*
G01X28495Y12804D02*
G01X28472Y12827D01*
G01X28472Y12827D02*
G01X28450Y12895D01*
G01X28450Y13100D02*
G01X28450Y12895D01*
G01X28450Y12940D02*
G01X28200Y12781D01*
G01X28586Y12577D02*
G01X28563Y12577D01*
G01X28631Y12554D02*
G01X28586Y12577D01*
G01X28654Y12531D02*
G01X28631Y12554D01*
G01X28677Y12486D02*
G01X28654Y12531D01*
G01X28677Y12395D02*
G01X28677Y12486D01*
G01X28677Y12395D02*
G01X28654Y12350D01*
G01X28654Y12350D02*
G01X28631Y12327D01*
G01X28631Y12327D02*
G01X28586Y12304D01*
G01X28586Y12304D02*
G01X28540Y12304D01*
G01X28540Y12304D02*
G01X28495Y12327D01*
G01X28495Y12327D02*
G01X28427Y12372D01*
G01X28427Y12372D02*
G01X28200Y12600D01*
G01X28200Y12281D02*
G01X28200Y12600D01*
G01X28609Y12054D02*
G01X28586Y12100D01*
G01X28677Y11986D02*
G01X28609Y12054D01*
G01X28677Y11986D02*
G01X28200Y11986D01*
G04 Draw part R25*
G04 draw part outline for part R25*
G54D10*
G01X27900Y13600D02*
G01X27900Y15300D01*
G01X27900Y15300D02*
G01X28700Y15300D01*
G01X28700Y15300D02*
G01X28700Y13600D01*
G01X28700Y13600D02*
G01X27900Y13600D01*
G04 draw reference designator for part R25*
G54D11*
G01X28477Y15100D02*
G01X28000Y15100D01*
G01X28477Y14895D02*
G01X28477Y15100D01*
G01X28477Y14895D02*
G01X28454Y14827D01*
G01X28454Y14827D02*
G01X28431Y14804D01*
G01X28431Y14804D02*
G01X28386Y14781D01*
G01X28386Y14781D02*
G01X28340Y14781D01*
G01X28340Y14781D02*
G01X28295Y14804D01*
G01X28295Y14804D02*
G01X28272Y14827D01*
G01X28272Y14827D02*
G01X28250Y14895D01*
G01X28250Y15100D02*
G01X28250Y14895D01*
G01X28250Y14940D02*
G01X28000Y14781D01*
G01X28386Y14577D02*
G01X28363Y14577D01*
G01X28431Y14554D02*
G01X28386Y14577D01*
G01X28454Y14531D02*
G01X28431Y14554D01*
G01X28477Y14486D02*
G01X28454Y14531D01*
G01X28477Y14395D02*
G01X28477Y14486D01*
G01X28477Y14395D02*
G01X28454Y14350D01*
G01X28454Y14350D02*
G01X28431Y14327D01*
G01X28431Y14327D02*
G01X28386Y14304D01*
G01X28386Y14304D02*
G01X28340Y14304D01*
G01X28340Y14304D02*
G01X28295Y14327D01*
G01X28295Y14327D02*
G01X28227Y14372D01*
G01X28227Y14372D02*
G01X28000Y14600D01*
G01X28000Y14281D02*
G01X28000Y14600D01*
G01X28477Y14054D02*
G01X28477Y13827D01*
G01X28477Y14054D02*
G01X28272Y14077D01*
G01X28295Y14054D02*
G01X28272Y14077D01*
G01X28318Y13986D02*
G01X28295Y14054D01*
G01X28318Y13918D02*
G01X28318Y13986D01*
G01X28318Y13918D02*
G01X28295Y13850D01*
G01X28295Y13850D02*
G01X28250Y13804D01*
G01X28250Y13804D02*
G01X28181Y13781D01*
G01X28181Y13781D02*
G01X28136Y13781D01*
G01X28136Y13781D02*
G01X28068Y13804D01*
G01X28068Y13804D02*
G01X28022Y13850D01*
G01X28022Y13850D02*
G01X28000Y13918D01*
G01X28000Y13986D02*
G01X28000Y13918D01*
G01X28022Y14054D02*
G01X28000Y13986D01*
G01X28045Y14077D02*
G01X28022Y14054D01*
G01X28090Y14100D02*
G01X28045Y14077D01*
G04 Draw part R24*
G04 draw part outline for part R24*
G54D10*
G01X27000Y16200D02*
G01X28700Y16200D01*
G01X28700Y16200D02*
G01X28700Y15400D01*
G01X28700Y15400D02*
G01X27000Y15400D01*
G01X27000Y15400D02*
G01X27000Y16200D01*
G04 draw reference designator for part R24*
G54D11*
G01X27200Y15977D02*
G01X27200Y15500D01*
G01X27404Y15977D02*
G01X27200Y15977D01*
G01X27404Y15977D02*
G01X27472Y15954D01*
G01X27472Y15954D02*
G01X27495Y15931D01*
G01X27495Y15931D02*
G01X27518Y15886D01*
G01X27518Y15886D02*
G01X27518Y15840D01*
G01X27518Y15840D02*
G01X27495Y15795D01*
G01X27495Y15795D02*
G01X27472Y15772D01*
G01X27472Y15772D02*
G01X27404Y15750D01*
G01X27200Y15750D02*
G01X27404Y15750D01*
G01X27359Y15750D02*
G01X27518Y15500D01*
G01X27722Y15886D02*
G01X27722Y15863D01*
G01X27745Y15931D02*
G01X27722Y15886D01*
G01X27768Y15954D02*
G01X27745Y15931D01*
G01X27813Y15977D02*
G01X27768Y15954D01*
G01X27904Y15977D02*
G01X27813Y15977D01*
G01X27904Y15977D02*
G01X27950Y15954D01*
G01X27950Y15954D02*
G01X27972Y15931D01*
G01X27972Y15931D02*
G01X27995Y15886D01*
G01X27995Y15886D02*
G01X27995Y15840D01*
G01X27995Y15840D02*
G01X27972Y15795D01*
G01X27972Y15795D02*
G01X27927Y15727D01*
G01X27927Y15727D02*
G01X27700Y15500D01*
G01X28018Y15500D02*
G01X27700Y15500D01*
G01X28427Y15977D02*
G01X28200Y15659D01*
G01X28540Y15659D02*
G01X28200Y15659D01*
G01X28427Y15977D02*
G01X28427Y15500D01*
G04 Draw part R20*
G04 draw part outline for part R20*
G54D10*
G01X25600Y15400D02*
G01X23900Y15400D01*
G01X23900Y15400D02*
G01X23900Y16200D01*
G01X23900Y16200D02*
G01X25600Y16200D01*
G01X25600Y16200D02*
G01X25600Y15400D01*
G04 draw reference designator for part R20*
G54D11*
G01X24100Y15977D02*
G01X24100Y15500D01*
G01X24304Y15977D02*
G01X24100Y15977D01*
G01X24304Y15977D02*
G01X24372Y15954D01*
G01X24372Y15954D02*
G01X24395Y15931D01*
G01X24395Y15931D02*
G01X24418Y15886D01*
G01X24418Y15886D02*
G01X24418Y15840D01*
G01X24418Y15840D02*
G01X24395Y15795D01*
G01X24395Y15795D02*
G01X24372Y15772D01*
G01X24372Y15772D02*
G01X24304Y15750D01*
G01X24100Y15750D02*
G01X24304Y15750D01*
G01X24259Y15750D02*
G01X24418Y15500D01*
G01X24622Y15886D02*
G01X24622Y15863D01*
G01X24645Y15931D02*
G01X24622Y15886D01*
G01X24668Y15954D02*
G01X24645Y15931D01*
G01X24713Y15977D02*
G01X24668Y15954D01*
G01X24804Y15977D02*
G01X24713Y15977D01*
G01X24804Y15977D02*
G01X24850Y15954D01*
G01X24850Y15954D02*
G01X24872Y15931D01*
G01X24872Y15931D02*
G01X24895Y15886D01*
G01X24895Y15886D02*
G01X24895Y15840D01*
G01X24895Y15840D02*
G01X24872Y15795D01*
G01X24872Y15795D02*
G01X24827Y15727D01*
G01X24827Y15727D02*
G01X24600Y15500D01*
G01X24918Y15500D02*
G01X24600Y15500D01*
G01X25236Y15977D02*
G01X25168Y15954D01*
G01X25168Y15954D02*
G01X25122Y15886D01*
G01X25122Y15886D02*
G01X25100Y15772D01*
G01X25100Y15772D02*
G01X25100Y15704D01*
G01X25100Y15704D02*
G01X25122Y15590D01*
G01X25122Y15590D02*
G01X25168Y15522D01*
G01X25168Y15522D02*
G01X25236Y15500D01*
G01X25281Y15500D02*
G01X25236Y15500D01*
G01X25350Y15522D02*
G01X25281Y15500D01*
G01X25395Y15590D02*
G01X25350Y15522D01*
G01X25418Y15704D02*
G01X25395Y15590D01*
G01X25418Y15772D02*
G01X25418Y15704D01*
G01X25395Y15886D02*
G01X25418Y15772D01*
G01X25350Y15954D02*
G01X25395Y15886D01*
G01X25281Y15977D02*
G01X25350Y15954D01*
G01X25236Y15977D02*
G01X25281Y15977D01*
G04 Draw part R17*
G04 draw part outline for part R17*
G54D10*
G01X15700Y15400D02*
G01X14000Y15400D01*
G01X14000Y15400D02*
G01X14000Y16200D01*
G01X14000Y16200D02*
G01X15700Y16200D01*
G01X15700Y16200D02*
G01X15700Y15400D01*
G04 draw reference designator for part R17*
G54D11*
G01X14300Y15977D02*
G01X14300Y15500D01*
G01X14504Y15977D02*
G01X14300Y15977D01*
G01X14504Y15977D02*
G01X14572Y15954D01*
G01X14572Y15954D02*
G01X14595Y15931D01*
G01X14595Y15931D02*
G01X14618Y15886D01*
G01X14618Y15886D02*
G01X14618Y15840D01*
G01X14618Y15840D02*
G01X14595Y15795D01*
G01X14595Y15795D02*
G01X14572Y15772D01*
G01X14572Y15772D02*
G01X14504Y15750D01*
G01X14300Y15750D02*
G01X14504Y15750D01*
G01X14459Y15750D02*
G01X14618Y15500D01*
G01X14845Y15909D02*
G01X14800Y15886D01*
G01X14913Y15977D02*
G01X14845Y15909D01*
G01X14913Y15977D02*
G01X14913Y15500D01*
G01X15413Y15977D02*
G01X15186Y15500D01*
G01X15413Y15977D02*
G01X15095Y15977D01*
G04 Draw part R22*
G04 draw part outline for part R22*
G54D10*
G01X19600Y10600D02*
G01X17900Y10600D01*
G01X17900Y10600D02*
G01X17900Y11400D01*
G01X17900Y11400D02*
G01X19600Y11400D01*
G01X19600Y11400D02*
G01X19600Y10600D01*
G04 draw reference designator for part R22*
G54D11*
G01X18100Y11177D02*
G01X18100Y10700D01*
G01X18304Y11177D02*
G01X18100Y11177D01*
G01X18304Y11177D02*
G01X18372Y11154D01*
G01X18372Y11154D02*
G01X18395Y11131D01*
G01X18395Y11131D02*
G01X18418Y11086D01*
G01X18418Y11086D02*
G01X18418Y11040D01*
G01X18418Y11040D02*
G01X18395Y10995D01*
G01X18395Y10995D02*
G01X18372Y10972D01*
G01X18372Y10972D02*
G01X18304Y10950D01*
G01X18100Y10950D02*
G01X18304Y10950D01*
G01X18259Y10950D02*
G01X18418Y10700D01*
G01X18622Y11086D02*
G01X18622Y11063D01*
G01X18645Y11131D02*
G01X18622Y11086D01*
G01X18668Y11154D02*
G01X18645Y11131D01*
G01X18713Y11177D02*
G01X18668Y11154D01*
G01X18804Y11177D02*
G01X18713Y11177D01*
G01X18804Y11177D02*
G01X18850Y11154D01*
G01X18850Y11154D02*
G01X18872Y11131D01*
G01X18872Y11131D02*
G01X18895Y11086D01*
G01X18895Y11086D02*
G01X18895Y11040D01*
G01X18895Y11040D02*
G01X18872Y10995D01*
G01X18872Y10995D02*
G01X18827Y10927D01*
G01X18827Y10927D02*
G01X18600Y10700D01*
G01X18918Y10700D02*
G01X18600Y10700D01*
G01X19122Y11086D02*
G01X19122Y11063D01*
G01X19145Y11131D02*
G01X19122Y11086D01*
G01X19168Y11154D02*
G01X19145Y11131D01*
G01X19213Y11177D02*
G01X19168Y11154D01*
G01X19304Y11177D02*
G01X19213Y11177D01*
G01X19304Y11177D02*
G01X19350Y11154D01*
G01X19350Y11154D02*
G01X19372Y11131D01*
G01X19372Y11131D02*
G01X19395Y11086D01*
G01X19395Y11086D02*
G01X19395Y11040D01*
G01X19395Y11040D02*
G01X19372Y10995D01*
G01X19372Y10995D02*
G01X19327Y10927D01*
G01X19327Y10927D02*
G01X19100Y10700D01*
G01X19418Y10700D02*
G01X19100Y10700D01*
G04 Draw part R13*
G04 draw part outline for part R13*
G54D10*
G01X2800Y16900D02*
G01X2800Y12900D01*
G01X2800Y12900D02*
G01X800Y12900D01*
G01X800Y12900D02*
G01X800Y16900D01*
G01X800Y16900D02*
G01X2800Y16900D01*
G01X2400Y16200D02*
G01X2426Y16201D01*
G01X2452Y16204D01*
G01X2477Y16210D01*
G01X2502Y16218D01*
G01X2526Y16228D01*
G01X2550Y16240D01*
G01X2572Y16254D01*
G01X2592Y16270D01*
G01X2612Y16287D01*
G01X2629Y16307D01*
G01X2645Y16327D01*
G01X2659Y16350D01*
G01X2671Y16373D01*
G01X2681Y16397D01*
G01X2689Y16422D01*
G01X2695Y16447D01*
G01X2698Y16473D01*
G01X2700Y16500D01*
G01X2700Y16500D02*
G01X2698Y16526D01*
G01X2695Y16552D01*
G01X2689Y16577D01*
G01X2681Y16602D01*
G01X2671Y16626D01*
G01X2659Y16650D01*
G01X2645Y16672D01*
G01X2629Y16692D01*
G01X2612Y16712D01*
G01X2592Y16729D01*
G01X2572Y16745D01*
G01X2549Y16759D01*
G01X2526Y16771D01*
G01X2502Y16781D01*
G01X2477Y16789D01*
G01X2452Y16795D01*
G01X2426Y16798D01*
G01X2400Y16800D01*
G01X2400Y16800D02*
G01X2373Y16798D01*
G01X2347Y16795D01*
G01X2322Y16789D01*
G01X2297Y16781D01*
G01X2273Y16771D01*
G01X2249Y16759D01*
G01X2227Y16745D01*
G01X2207Y16729D01*
G01X2187Y16712D01*
G01X2170Y16692D01*
G01X2154Y16672D01*
G01X2140Y16649D01*
G01X2128Y16626D01*
G01X2118Y16602D01*
G01X2110Y16577D01*
G01X2104Y16552D01*
G01X2101Y16526D01*
G01X2100Y16500D01*
G01X2100Y16500D02*
G01X2101Y16473D01*
G01X2104Y16447D01*
G01X2110Y16422D01*
G01X2118Y16397D01*
G01X2128Y16373D01*
G01X2140Y16349D01*
G01X2154Y16327D01*
G01X2170Y16307D01*
G01X2187Y16287D01*
G01X2207Y16270D01*
G01X2227Y16254D01*
G01X2250Y16240D01*
G01X2273Y16228D01*
G01X2297Y16218D01*
G01X2322Y16210D01*
G01X2347Y16204D01*
G01X2373Y16201D01*
G01X2400Y16200D01*
G01X2700Y16500D02*
G01X2100Y16500D01*
G04 draw reference designator for part R13*
G54D11*
G01X1000Y17768D02*
G01X1000Y17100D01*
G01X1286Y17768D02*
G01X1000Y17768D01*
G01X1286Y17768D02*
G01X1381Y17736D01*
G01X1381Y17736D02*
G01X1413Y17704D01*
G01X1413Y17704D02*
G01X1445Y17640D01*
G01X1445Y17640D02*
G01X1445Y17577D01*
G01X1445Y17577D02*
G01X1413Y17513D01*
G01X1413Y17513D02*
G01X1381Y17481D01*
G01X1381Y17481D02*
G01X1286Y17450D01*
G01X1000Y17450D02*
G01X1286Y17450D01*
G01X1222Y17450D02*
G01X1445Y17100D01*
G01X1763Y17672D02*
G01X1700Y17640D01*
G01X1859Y17768D02*
G01X1763Y17672D01*
G01X1859Y17768D02*
G01X1859Y17100D01*
G01X2527Y17768D02*
G01X2177Y17768D01*
G01X2527Y17768D02*
G01X2336Y17513D01*
G01X2431Y17513D02*
G01X2336Y17513D01*
G01X2431Y17513D02*
G01X2495Y17481D01*
G01X2495Y17481D02*
G01X2527Y17450D01*
G01X2527Y17450D02*
G01X2559Y17354D01*
G01X2559Y17354D02*
G01X2559Y17290D01*
G01X2559Y17290D02*
G01X2527Y17195D01*
G01X2527Y17195D02*
G01X2463Y17131D01*
G01X2463Y17131D02*
G01X2368Y17100D01*
G01X2272Y17100D02*
G01X2368Y17100D01*
G01X2177Y17131D02*
G01X2272Y17100D01*
G01X2145Y17163D02*
G01X2177Y17131D01*
G01X2113Y17227D02*
G01X2145Y17163D01*
G04 Draw part SW4*
G04 draw part outline for part SW4*
G54D10*
G01X20300Y15900D02*
G01X20300Y12200D01*
G01X20300Y12200D02*
G01X16700Y12200D01*
G01X16700Y12200D02*
G01X16700Y15900D01*
G01X16700Y15900D02*
G01X20300Y15900D01*
G04 draw reference designator for part SW4*
G54D11*
G01X18072Y16554D02*
G01X18118Y16509D01*
G01X18004Y16577D02*
G01X18072Y16554D01*
G01X17913Y16577D02*
G01X18004Y16577D01*
G01X17913Y16577D02*
G01X17845Y16554D01*
G01X17845Y16554D02*
G01X17800Y16509D01*
G01X17800Y16509D02*
G01X17800Y16463D01*
G01X17800Y16463D02*
G01X17822Y16418D01*
G01X17822Y16418D02*
G01X17845Y16395D01*
G01X17845Y16395D02*
G01X17890Y16372D01*
G01X17890Y16372D02*
G01X18027Y16327D01*
G01X18027Y16327D02*
G01X18072Y16304D01*
G01X18072Y16304D02*
G01X18095Y16281D01*
G01X18095Y16281D02*
G01X18118Y16236D01*
G01X18118Y16236D02*
G01X18118Y16168D01*
G01X18118Y16168D02*
G01X18072Y16122D01*
G01X18072Y16122D02*
G01X18004Y16100D01*
G01X17913Y16100D02*
G01X18004Y16100D01*
G01X17845Y16122D02*
G01X17913Y16100D01*
G01X17800Y16168D02*
G01X17845Y16122D01*
G01X18300Y16577D02*
G01X18413Y16100D01*
G01X18527Y16577D02*
G01X18413Y16100D01*
G01X18527Y16577D02*
G01X18640Y16100D01*
G01X18754Y16577D02*
G01X18640Y16100D01*
G01X19163Y16577D02*
G01X18936Y16259D01*
G01X19277Y16259D02*
G01X18936Y16259D01*
G01X19163Y16577D02*
G01X19163Y16100D01*
G04 Draw part J3*
G04 Draw part C5*
G04 draw part outline for part C5*
G54D10*
G01X9100Y13700D02*
G01X9100Y15400D01*
G01X9100Y15400D02*
G01X9900Y15400D01*
G01X9900Y15400D02*
G01X9900Y13700D01*
G01X9900Y13700D02*
G01X9100Y13700D01*
G04 draw reference designator for part C5*
G54D11*
G01X9609Y14781D02*
G01X9563Y14759D01*
G01X9654Y14827D02*
G01X9609Y14781D01*
G01X9677Y14872D02*
G01X9654Y14827D01*
G01X9677Y14963D02*
G01X9677Y14872D01*
G01X9677Y14963D02*
G01X9654Y15009D01*
G01X9654Y15009D02*
G01X9609Y15054D01*
G01X9609Y15054D02*
G01X9563Y15077D01*
G01X9563Y15077D02*
G01X9495Y15100D01*
G01X9495Y15100D02*
G01X9381Y15100D01*
G01X9381Y15100D02*
G01X9313Y15077D01*
G01X9313Y15077D02*
G01X9268Y15054D01*
G01X9268Y15054D02*
G01X9222Y15009D01*
G01X9222Y15009D02*
G01X9200Y14963D01*
G01X9200Y14872D02*
G01X9200Y14963D01*
G01X9222Y14827D02*
G01X9200Y14872D01*
G01X9268Y14781D02*
G01X9222Y14827D01*
G01X9313Y14759D02*
G01X9268Y14781D01*
G01X9677Y14531D02*
G01X9677Y14304D01*
G01X9677Y14531D02*
G01X9472Y14554D01*
G01X9495Y14531D02*
G01X9472Y14554D01*
G01X9518Y14463D02*
G01X9495Y14531D01*
G01X9518Y14395D02*
G01X9518Y14463D01*
G01X9518Y14395D02*
G01X9495Y14327D01*
G01X9495Y14327D02*
G01X9450Y14281D01*
G01X9450Y14281D02*
G01X9381Y14259D01*
G01X9381Y14259D02*
G01X9336Y14259D01*
G01X9336Y14259D02*
G01X9268Y14281D01*
G01X9268Y14281D02*
G01X9222Y14327D01*
G01X9222Y14327D02*
G01X9200Y14395D01*
G01X9200Y14463D02*
G01X9200Y14395D01*
G01X9222Y14531D02*
G01X9200Y14463D01*
G01X9245Y14554D02*
G01X9222Y14531D01*
G01X9290Y14577D02*
G01X9245Y14554D01*
G04 Draw part C6*
G04 draw part outline for part C6*
G54D10*
G01X12900Y15000D02*
G01X12900Y16700D01*
G01X12900Y16700D02*
G01X13700Y16700D01*
G01X13700Y16700D02*
G01X13700Y15000D01*
G01X13700Y15000D02*
G01X12900Y15000D01*
G04 draw reference designator for part C6*
G54D11*
G01X13409Y15981D02*
G01X13363Y15959D01*
G01X13454Y16027D02*
G01X13409Y15981D01*
G01X13477Y16072D02*
G01X13454Y16027D01*
G01X13477Y16163D02*
G01X13477Y16072D01*
G01X13477Y16163D02*
G01X13454Y16209D01*
G01X13454Y16209D02*
G01X13409Y16254D01*
G01X13409Y16254D02*
G01X13363Y16277D01*
G01X13363Y16277D02*
G01X13295Y16300D01*
G01X13295Y16300D02*
G01X13181Y16300D01*
G01X13181Y16300D02*
G01X13113Y16277D01*
G01X13113Y16277D02*
G01X13068Y16254D01*
G01X13068Y16254D02*
G01X13022Y16209D01*
G01X13022Y16209D02*
G01X13000Y16163D01*
G01X13000Y16072D02*
G01X13000Y16163D01*
G01X13022Y16027D02*
G01X13000Y16072D01*
G01X13068Y15981D02*
G01X13022Y16027D01*
G01X13113Y15959D02*
G01X13068Y15981D01*
G01X13454Y15527D02*
G01X13409Y15504D01*
G01X13477Y15595D02*
G01X13454Y15527D01*
G01X13477Y15640D02*
G01X13477Y15595D01*
G01X13477Y15640D02*
G01X13454Y15709D01*
G01X13454Y15709D02*
G01X13386Y15754D01*
G01X13386Y15754D02*
G01X13272Y15777D01*
G01X13272Y15777D02*
G01X13159Y15777D01*
G01X13159Y15777D02*
G01X13068Y15754D01*
G01X13068Y15754D02*
G01X13022Y15709D01*
G01X13022Y15709D02*
G01X13000Y15640D01*
G01X13000Y15618D02*
G01X13000Y15640D01*
G01X13022Y15550D02*
G01X13000Y15618D01*
G01X13068Y15504D02*
G01X13022Y15550D01*
G01X13136Y15481D02*
G01X13068Y15504D01*
G01X13159Y15481D02*
G01X13136Y15481D01*
G01X13227Y15504D02*
G01X13159Y15481D01*
G01X13272Y15550D02*
G01X13227Y15504D01*
G01X13295Y15618D02*
G01X13272Y15550D01*
G01X13295Y15640D02*
G01X13295Y15618D01*
G01X13295Y15640D02*
G01X13272Y15709D01*
G01X13272Y15709D02*
G01X13227Y15754D01*
G01X13227Y15754D02*
G01X13159Y15777D01*
G04 Draw part C7*
G04 draw part outline for part C7*
G54D10*
G01X24200Y14700D02*
G01X24200Y13000D01*
G01X24200Y13000D02*
G01X23400Y13000D01*
G01X23400Y13000D02*
G01X23400Y14700D01*
G01X23400Y14700D02*
G01X24200Y14700D01*
G04 draw reference designator for part C7*
G54D11*
G01X23909Y13981D02*
G01X23863Y13959D01*
G01X23954Y14027D02*
G01X23909Y13981D01*
G01X23977Y14072D02*
G01X23954Y14027D01*
G01X23977Y14163D02*
G01X23977Y14072D01*
G01X23977Y14163D02*
G01X23954Y14209D01*
G01X23954Y14209D02*
G01X23909Y14254D01*
G01X23909Y14254D02*
G01X23863Y14277D01*
G01X23863Y14277D02*
G01X23795Y14300D01*
G01X23795Y14300D02*
G01X23681Y14300D01*
G01X23681Y14300D02*
G01X23613Y14277D01*
G01X23613Y14277D02*
G01X23568Y14254D01*
G01X23568Y14254D02*
G01X23522Y14209D01*
G01X23522Y14209D02*
G01X23500Y14163D01*
G01X23500Y14072D02*
G01X23500Y14163D01*
G01X23522Y14027D02*
G01X23500Y14072D01*
G01X23568Y13981D02*
G01X23522Y14027D01*
G01X23613Y13959D02*
G01X23568Y13981D01*
G01X23977Y13459D02*
G01X23500Y13686D01*
G01X23977Y13459D02*
G01X23977Y13777D01*
G04 Draw part C9*
G04 draw part outline for part C9*
G54D10*
G01X11900Y9200D02*
G01X11900Y10900D01*
G01X11900Y10900D02*
G01X12700Y10900D01*
G01X12700Y10900D02*
G01X12700Y9200D01*
G01X12700Y9200D02*
G01X11900Y9200D01*
G04 draw reference designator for part C9*
G54D11*
G01X12409Y10181D02*
G01X12363Y10159D01*
G01X12454Y10227D02*
G01X12409Y10181D01*
G01X12477Y10272D02*
G01X12454Y10227D01*
G01X12477Y10363D02*
G01X12477Y10272D01*
G01X12477Y10363D02*
G01X12454Y10409D01*
G01X12454Y10409D02*
G01X12409Y10454D01*
G01X12409Y10454D02*
G01X12363Y10477D01*
G01X12363Y10477D02*
G01X12295Y10500D01*
G01X12295Y10500D02*
G01X12181Y10500D01*
G01X12181Y10500D02*
G01X12113Y10477D01*
G01X12113Y10477D02*
G01X12068Y10454D01*
G01X12068Y10454D02*
G01X12022Y10409D01*
G01X12022Y10409D02*
G01X12000Y10363D01*
G01X12000Y10272D02*
G01X12000Y10363D01*
G01X12022Y10227D02*
G01X12000Y10272D01*
G01X12068Y10181D02*
G01X12022Y10227D01*
G01X12113Y10159D02*
G01X12068Y10181D01*
G01X12318Y9681D02*
G01X12250Y9704D01*
G01X12250Y9704D02*
G01X12204Y9750D01*
G01X12204Y9750D02*
G01X12181Y9818D01*
G01X12181Y9840D02*
G01X12181Y9818D01*
G01X12204Y9909D02*
G01X12181Y9840D01*
G01X12250Y9954D02*
G01X12204Y9909D01*
G01X12318Y9977D02*
G01X12250Y9954D01*
G01X12340Y9977D02*
G01X12318Y9977D01*
G01X12409Y9954D02*
G01X12340Y9977D01*
G01X12454Y9909D02*
G01X12409Y9954D01*
G01X12477Y9840D02*
G01X12454Y9909D01*
G01X12477Y9818D02*
G01X12477Y9840D01*
G01X12477Y9818D02*
G01X12454Y9750D01*
G01X12454Y9750D02*
G01X12409Y9704D01*
G01X12409Y9704D02*
G01X12318Y9681D01*
G01X12318Y9681D02*
G01X12204Y9681D01*
G01X12204Y9681D02*
G01X12090Y9704D01*
G01X12090Y9704D02*
G01X12022Y9750D01*
G01X12022Y9750D02*
G01X12000Y9818D01*
G01X12000Y9863D02*
G01X12000Y9818D01*
G01X12022Y9931D02*
G01X12000Y9863D01*
G01X12068Y9954D02*
G01X12022Y9931D01*
G04 Draw part C10*
G04 draw part outline for part C10*
G54D10*
G01X16200Y10800D02*
G01X16200Y12500D01*
G01X16200Y12500D02*
G01X17000Y12500D01*
G01X17000Y12500D02*
G01X17000Y10800D01*
G01X17000Y10800D02*
G01X16200Y10800D01*
G04 draw reference designator for part C10*
G54D11*
G01X16709Y11781D02*
G01X16663Y11759D01*
G01X16754Y11827D02*
G01X16709Y11781D01*
G01X16777Y11872D02*
G01X16754Y11827D01*
G01X16777Y11963D02*
G01X16777Y11872D01*
G01X16777Y11963D02*
G01X16754Y12009D01*
G01X16754Y12009D02*
G01X16709Y12054D01*
G01X16709Y12054D02*
G01X16663Y12077D01*
G01X16663Y12077D02*
G01X16595Y12100D01*
G01X16595Y12100D02*
G01X16481Y12100D01*
G01X16481Y12100D02*
G01X16413Y12077D01*
G01X16413Y12077D02*
G01X16368Y12054D01*
G01X16368Y12054D02*
G01X16322Y12009D01*
G01X16322Y12009D02*
G01X16300Y11963D01*
G01X16300Y11872D02*
G01X16300Y11963D01*
G01X16322Y11827D02*
G01X16300Y11872D01*
G01X16368Y11781D02*
G01X16322Y11827D01*
G01X16413Y11759D02*
G01X16368Y11781D01*
G01X16709Y11531D02*
G01X16686Y11577D01*
G01X16777Y11463D02*
G01X16709Y11531D01*
G01X16777Y11463D02*
G01X16300Y11463D01*
G01X16777Y11145D02*
G01X16754Y11213D01*
G01X16754Y11213D02*
G01X16686Y11259D01*
G01X16686Y11259D02*
G01X16572Y11281D01*
G01X16572Y11281D02*
G01X16504Y11281D01*
G01X16504Y11281D02*
G01X16390Y11259D01*
G01X16390Y11259D02*
G01X16322Y11213D01*
G01X16322Y11213D02*
G01X16300Y11145D01*
G01X16300Y11100D02*
G01X16300Y11145D01*
G01X16322Y11031D02*
G01X16300Y11100D01*
G01X16390Y10986D02*
G01X16322Y11031D01*
G01X16504Y10963D02*
G01X16390Y10986D01*
G01X16572Y10963D02*
G01X16504Y10963D01*
G01X16686Y10986D02*
G01X16572Y10963D01*
G01X16754Y11031D02*
G01X16686Y10986D01*
G01X16777Y11100D02*
G01X16754Y11031D01*
G01X16777Y11145D02*
G01X16777Y11100D01*
G04 Draw part C11*
G04 draw part outline for part C11*
G54D10*
G01X25800Y9400D02*
G01X25800Y11100D01*
G01X25800Y11100D02*
G01X26600Y11100D01*
G01X26600Y11100D02*
G01X26600Y9400D01*
G01X26600Y9400D02*
G01X25800Y9400D01*
G04 draw reference designator for part C11*
G54D11*
G01X26309Y10381D02*
G01X26263Y10359D01*
G01X26354Y10427D02*
G01X26309Y10381D01*
G01X26377Y10472D02*
G01X26354Y10427D01*
G01X26377Y10563D02*
G01X26377Y10472D01*
G01X26377Y10563D02*
G01X26354Y10609D01*
G01X26354Y10609D02*
G01X26309Y10654D01*
G01X26309Y10654D02*
G01X26263Y10677D01*
G01X26263Y10677D02*
G01X26195Y10700D01*
G01X26195Y10700D02*
G01X26081Y10700D01*
G01X26081Y10700D02*
G01X26013Y10677D01*
G01X26013Y10677D02*
G01X25968Y10654D01*
G01X25968Y10654D02*
G01X25922Y10609D01*
G01X25922Y10609D02*
G01X25900Y10563D01*
G01X25900Y10472D02*
G01X25900Y10563D01*
G01X25922Y10427D02*
G01X25900Y10472D01*
G01X25968Y10381D02*
G01X25922Y10427D01*
G01X26013Y10359D02*
G01X25968Y10381D01*
G01X26309Y10131D02*
G01X26286Y10177D01*
G01X26377Y10063D02*
G01X26309Y10131D01*
G01X26377Y10063D02*
G01X25900Y10063D01*
G01X26309Y9836D02*
G01X26286Y9881D01*
G01X26377Y9768D02*
G01X26309Y9836D01*
G01X26377Y9768D02*
G01X25900Y9768D01*
G04 Draw part U4*
G04 draw part outline for part U4*
G54D10*
G01X25100Y4700D02*
G01X23000Y4700D01*
G01X23000Y4700D02*
G01X23000Y6900D01*
G01X23000Y6900D02*
G01X25100Y6900D01*
G01X25100Y6900D02*
G01X25100Y4700D01*
G01X25100Y6100D02*
G01X24800Y5800D01*
G01X24800Y5800D02*
G01X25100Y5500D01*
G04 draw reference designator for part U4*
G54D11*
G01X23400Y6068D02*
G01X23400Y5590D01*
G01X23400Y5590D02*
G01X23431Y5495D01*
G01X23431Y5495D02*
G01X23495Y5431D01*
G01X23495Y5431D02*
G01X23590Y5400D01*
G01X23654Y5400D02*
G01X23590Y5400D01*
G01X23750Y5431D02*
G01X23654Y5400D01*
G01X23813Y5495D02*
G01X23750Y5431D01*
G01X23845Y5590D02*
G01X23813Y5495D01*
G01X23845Y6068D02*
G01X23845Y5590D01*
G01X24418Y6068D02*
G01X24100Y5622D01*
G01X24577Y5622D02*
G01X24100Y5622D01*
G01X24418Y6068D02*
G01X24418Y5400D01*
G04 Draw part C8*
G04 draw part outline for part C8*
G54D10*
G01X25200Y3800D02*
G01X26900Y3800D01*
G01X26900Y3800D02*
G01X26900Y3000D01*
G01X26900Y3000D02*
G01X25200Y3000D01*
G01X25200Y3000D02*
G01X25200Y3800D01*
G04 draw reference designator for part C8*
G54D11*
G01X25918Y3509D02*
G01X25940Y3463D01*
G01X25872Y3554D02*
G01X25918Y3509D01*
G01X25827Y3577D02*
G01X25872Y3554D01*
G01X25736Y3577D02*
G01X25827Y3577D01*
G01X25736Y3577D02*
G01X25690Y3554D01*
G01X25690Y3554D02*
G01X25645Y3509D01*
G01X25645Y3509D02*
G01X25622Y3463D01*
G01X25622Y3463D02*
G01X25600Y3395D01*
G01X25600Y3395D02*
G01X25600Y3281D01*
G01X25600Y3281D02*
G01X25622Y3213D01*
G01X25622Y3213D02*
G01X25645Y3168D01*
G01X25645Y3168D02*
G01X25690Y3122D01*
G01X25690Y3122D02*
G01X25736Y3100D01*
G01X25827Y3100D02*
G01X25736Y3100D01*
G01X25872Y3122D02*
G01X25827Y3100D01*
G01X25918Y3168D02*
G01X25872Y3122D01*
G01X25940Y3213D02*
G01X25918Y3168D01*
G01X26236Y3577D02*
G01X26168Y3554D01*
G01X26168Y3554D02*
G01X26145Y3509D01*
G01X26145Y3509D02*
G01X26145Y3463D01*
G01X26145Y3463D02*
G01X26168Y3418D01*
G01X26168Y3418D02*
G01X26213Y3395D01*
G01X26213Y3395D02*
G01X26304Y3372D01*
G01X26304Y3372D02*
G01X26372Y3350D01*
G01X26372Y3350D02*
G01X26418Y3304D01*
G01X26418Y3304D02*
G01X26440Y3259D01*
G01X26440Y3259D02*
G01X26440Y3190D01*
G01X26440Y3190D02*
G01X26418Y3145D01*
G01X26418Y3145D02*
G01X26395Y3122D01*
G01X26395Y3122D02*
G01X26327Y3100D01*
G01X26236Y3100D02*
G01X26327Y3100D01*
G01X26168Y3122D02*
G01X26236Y3100D01*
G01X26145Y3145D02*
G01X26168Y3122D01*
G01X26122Y3190D02*
G01X26145Y3145D01*
G01X26122Y3259D02*
G01X26122Y3190D01*
G01X26145Y3304D02*
G01X26122Y3259D01*
G01X26190Y3350D02*
G01X26145Y3304D01*
G01X26259Y3372D02*
G01X26190Y3350D01*
G01X26350Y3395D02*
G01X26259Y3372D01*
G01X26395Y3418D02*
G01X26350Y3395D01*
G01X26418Y3463D02*
G01X26395Y3418D01*
G01X26418Y3509D02*
G01X26418Y3463D01*
G01X26395Y3554D02*
G01X26418Y3509D01*
G01X26327Y3577D02*
G01X26395Y3554D01*
G01X26236Y3577D02*
G01X26327Y3577D01*
G04 Draw part C12*
G04 draw part outline for part C12*
G54D10*
G01X22000Y8400D02*
G01X23700Y8400D01*
G01X23700Y8400D02*
G01X23700Y7600D01*
G01X23700Y7600D02*
G01X22000Y7600D01*
G01X22000Y7600D02*
G01X22000Y8400D01*
G04 draw reference designator for part C12*
G54D11*
G01X22618Y8109D02*
G01X22640Y8063D01*
G01X22572Y8154D02*
G01X22618Y8109D01*
G01X22527Y8177D02*
G01X22572Y8154D01*
G01X22436Y8177D02*
G01X22527Y8177D01*
G01X22436Y8177D02*
G01X22390Y8154D01*
G01X22390Y8154D02*
G01X22345Y8109D01*
G01X22345Y8109D02*
G01X22322Y8063D01*
G01X22322Y8063D02*
G01X22300Y7995D01*
G01X22300Y7995D02*
G01X22300Y7881D01*
G01X22300Y7881D02*
G01X22322Y7813D01*
G01X22322Y7813D02*
G01X22345Y7768D01*
G01X22345Y7768D02*
G01X22390Y7722D01*
G01X22390Y7722D02*
G01X22436Y7700D01*
G01X22527Y7700D02*
G01X22436Y7700D01*
G01X22572Y7722D02*
G01X22527Y7700D01*
G01X22618Y7768D02*
G01X22572Y7722D01*
G01X22640Y7813D02*
G01X22618Y7768D01*
G01X22868Y8109D02*
G01X22822Y8086D01*
G01X22936Y8177D02*
G01X22868Y8109D01*
G01X22936Y8177D02*
G01X22936Y7700D01*
G01X23140Y8086D02*
G01X23140Y8063D01*
G01X23163Y8131D02*
G01X23140Y8086D01*
G01X23186Y8154D02*
G01X23163Y8131D01*
G01X23231Y8177D02*
G01X23186Y8154D01*
G01X23322Y8177D02*
G01X23231Y8177D01*
G01X23322Y8177D02*
G01X23368Y8154D01*
G01X23368Y8154D02*
G01X23390Y8131D01*
G01X23390Y8131D02*
G01X23413Y8086D01*
G01X23413Y8086D02*
G01X23413Y8040D01*
G01X23413Y8040D02*
G01X23390Y7995D01*
G01X23390Y7995D02*
G01X23345Y7927D01*
G01X23345Y7927D02*
G01X23118Y7700D01*
G01X23436Y7700D02*
G01X23118Y7700D01*
G04 Draw part D1*
G04 draw part outline for part D1*
G54D10*
G01X8800Y7300D02*
G01X9400Y7300D01*
G01X9400Y7300D02*
G01X9400Y6400D01*
G01X9400Y6400D02*
G01X8800Y6400D01*
G01X8800Y6400D02*
G01X8800Y7300D01*
G01X9400Y7100D02*
G01X8800Y7100D01*
G04 draw reference designator for part D1*
G54D11*
G01X9277Y7200D02*
G01X8800Y7200D01*
G01X9277Y7040D02*
G01X9277Y7200D01*
G01X9277Y7040D02*
G01X9254Y6972D01*
G01X9254Y6972D02*
G01X9209Y6927D01*
G01X9209Y6927D02*
G01X9163Y6904D01*
G01X9163Y6904D02*
G01X9095Y6881D01*
G01X9095Y6881D02*
G01X8981Y6881D01*
G01X8981Y6881D02*
G01X8913Y6904D01*
G01X8913Y6904D02*
G01X8868Y6927D01*
G01X8868Y6927D02*
G01X8822Y6972D01*
G01X8822Y6972D02*
G01X8800Y7040D01*
G01X8800Y7200D02*
G01X8800Y7040D01*
G01X9209Y6654D02*
G01X9186Y6700D01*
G01X9277Y6586D02*
G01X9209Y6654D01*
G01X9277Y6586D02*
G01X8800Y6586D01*
G04 Draw part D2*
G04 draw part outline for part D2*
G54D10*
G01X8700Y6400D02*
G01X8100Y6400D01*
G01X8100Y6400D02*
G01X8100Y7300D01*
G01X8100Y7300D02*
G01X8700Y7300D01*
G01X8700Y7300D02*
G01X8700Y6400D01*
G01X8100Y6600D02*
G01X8700Y6600D01*
G04 draw reference designator for part D2*
G54D11*
G01X8677Y7300D02*
G01X8200Y7300D01*
G01X8677Y7140D02*
G01X8677Y7300D01*
G01X8677Y7140D02*
G01X8654Y7072D01*
G01X8654Y7072D02*
G01X8609Y7027D01*
G01X8609Y7027D02*
G01X8563Y7004D01*
G01X8563Y7004D02*
G01X8495Y6981D01*
G01X8495Y6981D02*
G01X8381Y6981D01*
G01X8381Y6981D02*
G01X8313Y7004D01*
G01X8313Y7004D02*
G01X8268Y7027D01*
G01X8268Y7027D02*
G01X8222Y7072D01*
G01X8222Y7072D02*
G01X8200Y7140D01*
G01X8200Y7300D02*
G01X8200Y7140D01*
G01X8586Y6777D02*
G01X8563Y6777D01*
G01X8631Y6754D02*
G01X8586Y6777D01*
G01X8654Y6731D02*
G01X8631Y6754D01*
G01X8677Y6686D02*
G01X8654Y6731D01*
G01X8677Y6595D02*
G01X8677Y6686D01*
G01X8677Y6595D02*
G01X8654Y6550D01*
G01X8654Y6550D02*
G01X8631Y6527D01*
G01X8631Y6527D02*
G01X8586Y6504D01*
G01X8586Y6504D02*
G01X8540Y6504D01*
G01X8540Y6504D02*
G01X8495Y6527D01*
G01X8495Y6527D02*
G01X8427Y6572D01*
G01X8427Y6572D02*
G01X8200Y6800D01*
G01X8200Y6481D02*
G01X8200Y6800D01*
G04 Draw part D4*
G04 draw part outline for part D4*
G54D10*
G01X7900Y4800D02*
G01X7900Y5600D01*
G01X7900Y5600D02*
G01X9000Y5600D01*
G01X9000Y5600D02*
G01X9000Y4800D01*
G01X9000Y4800D02*
G01X7900Y4800D01*
G01X8200Y5600D02*
G01X8200Y4800D01*
G04 draw reference designator for part D4*
G54D11*
G01X7900Y5377D02*
G01X7900Y4900D01*
G01X8059Y5377D02*
G01X7900Y5377D01*
G01X8059Y5377D02*
G01X8127Y5354D01*
G01X8127Y5354D02*
G01X8172Y5309D01*
G01X8172Y5309D02*
G01X8195Y5263D01*
G01X8195Y5263D02*
G01X8218Y5195D01*
G01X8218Y5195D02*
G01X8218Y5081D01*
G01X8218Y5081D02*
G01X8195Y5013D01*
G01X8195Y5013D02*
G01X8172Y4968D01*
G01X8172Y4968D02*
G01X8127Y4922D01*
G01X8127Y4922D02*
G01X8059Y4900D01*
G01X7900Y4900D02*
G01X8059Y4900D01*
G01X8627Y5377D02*
G01X8400Y5059D01*
G01X8740Y5059D02*
G01X8400Y5059D01*
G01X8627Y5377D02*
G01X8627Y4900D01*
G04 Draw part D5*
G04 draw part outline for part D5*
G54D10*
G01X7900Y3900D02*
G01X7900Y4700D01*
G01X7900Y4700D02*
G01X9000Y4700D01*
G01X9000Y4700D02*
G01X9000Y3900D01*
G01X9000Y3900D02*
G01X7900Y3900D01*
G01X8200Y4700D02*
G01X8200Y3900D01*
G04 draw reference designator for part D5*
G54D11*
G01X8000Y4477D02*
G01X8000Y4000D01*
G01X8159Y4477D02*
G01X8000Y4477D01*
G01X8159Y4477D02*
G01X8227Y4454D01*
G01X8227Y4454D02*
G01X8272Y4409D01*
G01X8272Y4409D02*
G01X8295Y4363D01*
G01X8295Y4363D02*
G01X8318Y4295D01*
G01X8318Y4295D02*
G01X8318Y4181D01*
G01X8318Y4181D02*
G01X8295Y4113D01*
G01X8295Y4113D02*
G01X8272Y4068D01*
G01X8272Y4068D02*
G01X8227Y4022D01*
G01X8227Y4022D02*
G01X8159Y4000D01*
G01X8000Y4000D02*
G01X8159Y4000D01*
G01X8545Y4477D02*
G01X8772Y4477D01*
G01X8545Y4477D02*
G01X8522Y4272D01*
G01X8545Y4295D02*
G01X8522Y4272D01*
G01X8613Y4318D02*
G01X8545Y4295D01*
G01X8681Y4318D02*
G01X8613Y4318D01*
G01X8681Y4318D02*
G01X8750Y4295D01*
G01X8750Y4295D02*
G01X8795Y4250D01*
G01X8795Y4250D02*
G01X8818Y4181D01*
G01X8818Y4181D02*
G01X8818Y4136D01*
G01X8818Y4136D02*
G01X8795Y4068D01*
G01X8795Y4068D02*
G01X8750Y4022D01*
G01X8750Y4022D02*
G01X8681Y4000D01*
G01X8613Y4000D02*
G01X8681Y4000D01*
G01X8545Y4022D02*
G01X8613Y4000D01*
G01X8522Y4045D02*
G01X8545Y4022D01*
G01X8500Y4090D02*
G01X8522Y4045D01*
G04 Draw part R29*
G04 draw part outline for part R29*
G54D10*
G01X14500Y9500D02*
G01X21000Y9500D01*
G01X21000Y9500D02*
G01X21000Y4500D01*
G01X21000Y4500D02*
G01X14500Y4500D01*
G01X14500Y4500D02*
G01X14500Y9500D01*
G04 draw reference designator for part R29*
G54D11*
G01X17700Y7277D02*
G01X17700Y6800D01*
G01X17904Y7277D02*
G01X17700Y7277D01*
G01X17904Y7277D02*
G01X17972Y7254D01*
G01X17972Y7254D02*
G01X17995Y7231D01*
G01X17995Y7231D02*
G01X18018Y7186D01*
G01X18018Y7186D02*
G01X18018Y7140D01*
G01X18018Y7140D02*
G01X17995Y7095D01*
G01X17995Y7095D02*
G01X17972Y7072D01*
G01X17972Y7072D02*
G01X17904Y7050D01*
G01X17700Y7050D02*
G01X17904Y7050D01*
G01X17859Y7050D02*
G01X18018Y6800D01*
G01X18222Y7186D02*
G01X18222Y7163D01*
G01X18245Y7231D02*
G01X18222Y7186D01*
G01X18268Y7254D02*
G01X18245Y7231D01*
G01X18313Y7277D02*
G01X18268Y7254D01*
G01X18404Y7277D02*
G01X18313Y7277D01*
G01X18404Y7277D02*
G01X18450Y7254D01*
G01X18450Y7254D02*
G01X18472Y7231D01*
G01X18472Y7231D02*
G01X18495Y7186D01*
G01X18495Y7186D02*
G01X18495Y7140D01*
G01X18495Y7140D02*
G01X18472Y7095D01*
G01X18472Y7095D02*
G01X18427Y7027D01*
G01X18427Y7027D02*
G01X18200Y6800D01*
G01X18518Y6800D02*
G01X18200Y6800D01*
G01X18995Y7118D02*
G01X18972Y7050D01*
G01X18972Y7050D02*
G01X18927Y7004D01*
G01X18927Y7004D02*
G01X18859Y6981D01*
G01X18836Y6981D02*
G01X18859Y6981D01*
G01X18768Y7004D02*
G01X18836Y6981D01*
G01X18722Y7050D02*
G01X18768Y7004D01*
G01X18700Y7118D02*
G01X18722Y7050D01*
G01X18700Y7140D02*
G01X18700Y7118D01*
G01X18722Y7209D02*
G01X18700Y7140D01*
G01X18768Y7254D02*
G01X18722Y7209D01*
G01X18836Y7277D02*
G01X18768Y7254D01*
G01X18859Y7277D02*
G01X18836Y7277D01*
G01X18859Y7277D02*
G01X18927Y7254D01*
G01X18927Y7254D02*
G01X18972Y7209D01*
G01X18972Y7209D02*
G01X18995Y7118D01*
G01X18995Y7118D02*
G01X18995Y7004D01*
G01X18995Y7004D02*
G01X18972Y6890D01*
G01X18972Y6890D02*
G01X18927Y6822D01*
G01X18927Y6822D02*
G01X18859Y6800D01*
G01X18813Y6800D02*
G01X18859Y6800D01*
G01X18745Y6822D02*
G01X18813Y6800D01*
G01X18722Y6868D02*
G01X18745Y6822D01*
G04 Draw part R28*
G04 draw part outline for part R28*
G54D10*
G01X24700Y9400D02*
G01X24700Y7700D01*
G01X24700Y7700D02*
G01X23900Y7700D01*
G01X23900Y7700D02*
G01X23900Y9400D01*
G01X23900Y9400D02*
G01X24700Y9400D01*
G04 draw reference designator for part R28*
G54D11*
G01X24477Y9200D02*
G01X24000Y9200D01*
G01X24477Y8995D02*
G01X24477Y9200D01*
G01X24477Y8995D02*
G01X24454Y8927D01*
G01X24454Y8927D02*
G01X24431Y8904D01*
G01X24431Y8904D02*
G01X24386Y8881D01*
G01X24386Y8881D02*
G01X24340Y8881D01*
G01X24340Y8881D02*
G01X24295Y8904D01*
G01X24295Y8904D02*
G01X24272Y8927D01*
G01X24272Y8927D02*
G01X24250Y8995D01*
G01X24250Y9200D02*
G01X24250Y8995D01*
G01X24250Y9040D02*
G01X24000Y8881D01*
G01X24386Y8677D02*
G01X24363Y8677D01*
G01X24431Y8654D02*
G01X24386Y8677D01*
G01X24454Y8631D02*
G01X24431Y8654D01*
G01X24477Y8586D02*
G01X24454Y8631D01*
G01X24477Y8495D02*
G01X24477Y8586D01*
G01X24477Y8495D02*
G01X24454Y8450D01*
G01X24454Y8450D02*
G01X24431Y8427D01*
G01X24431Y8427D02*
G01X24386Y8404D01*
G01X24386Y8404D02*
G01X24340Y8404D01*
G01X24340Y8404D02*
G01X24295Y8427D01*
G01X24295Y8427D02*
G01X24227Y8472D01*
G01X24227Y8472D02*
G01X24000Y8700D01*
G01X24000Y8381D02*
G01X24000Y8700D01*
G01X24477Y8086D02*
G01X24454Y8154D01*
G01X24454Y8154D02*
G01X24409Y8177D01*
G01X24409Y8177D02*
G01X24363Y8177D01*
G01X24363Y8177D02*
G01X24318Y8154D01*
G01X24318Y8154D02*
G01X24295Y8109D01*
G01X24295Y8109D02*
G01X24272Y8018D01*
G01X24272Y8018D02*
G01X24250Y7950D01*
G01X24250Y7950D02*
G01X24204Y7904D01*
G01X24204Y7904D02*
G01X24159Y7881D01*
G01X24159Y7881D02*
G01X24090Y7881D01*
G01X24090Y7881D02*
G01X24045Y7904D01*
G01X24045Y7904D02*
G01X24022Y7927D01*
G01X24022Y7927D02*
G01X24000Y7995D01*
G01X24000Y8086D02*
G01X24000Y7995D01*
G01X24022Y8154D02*
G01X24000Y8086D01*
G01X24045Y8177D02*
G01X24022Y8154D01*
G01X24090Y8200D02*
G01X24045Y8177D01*
G01X24159Y8200D02*
G01X24090Y8200D01*
G01X24204Y8177D02*
G01X24159Y8200D01*
G01X24250Y8131D02*
G01X24204Y8177D01*
G01X24272Y8063D02*
G01X24250Y8131D01*
G01X24295Y7972D02*
G01X24272Y8063D01*
G01X24318Y7927D02*
G01X24295Y7972D01*
G01X24363Y7904D02*
G01X24318Y7927D01*
G01X24409Y7904D02*
G01X24363Y7904D01*
G01X24454Y7927D02*
G01X24409Y7904D01*
G01X24477Y7995D02*
G01X24454Y7927D01*
G01X24477Y8086D02*
G01X24477Y7995D01*
G04 Draw part R26*
G04 draw part outline for part R26*
G54D10*
G01X26100Y6700D02*
G01X26100Y5000D01*
G01X26100Y5000D02*
G01X25300Y5000D01*
G01X25300Y5000D02*
G01X25300Y6700D01*
G01X25300Y6700D02*
G01X26100Y6700D01*
G04 draw reference designator for part R26*
G54D11*
G01X25877Y6500D02*
G01X25400Y6500D01*
G01X25877Y6295D02*
G01X25877Y6500D01*
G01X25877Y6295D02*
G01X25854Y6227D01*
G01X25854Y6227D02*
G01X25831Y6204D01*
G01X25831Y6204D02*
G01X25786Y6181D01*
G01X25786Y6181D02*
G01X25740Y6181D01*
G01X25740Y6181D02*
G01X25695Y6204D01*
G01X25695Y6204D02*
G01X25672Y6227D01*
G01X25672Y6227D02*
G01X25650Y6295D01*
G01X25650Y6500D02*
G01X25650Y6295D01*
G01X25650Y6340D02*
G01X25400Y6181D01*
G01X25786Y5977D02*
G01X25763Y5977D01*
G01X25831Y5954D02*
G01X25786Y5977D01*
G01X25854Y5931D02*
G01X25831Y5954D01*
G01X25877Y5886D02*
G01X25854Y5931D01*
G01X25877Y5795D02*
G01X25877Y5886D01*
G01X25877Y5795D02*
G01X25854Y5750D01*
G01X25854Y5750D02*
G01X25831Y5727D01*
G01X25831Y5727D02*
G01X25786Y5704D01*
G01X25786Y5704D02*
G01X25740Y5704D01*
G01X25740Y5704D02*
G01X25695Y5727D01*
G01X25695Y5727D02*
G01X25627Y5772D01*
G01X25627Y5772D02*
G01X25400Y6000D01*
G01X25400Y5681D02*
G01X25400Y6000D01*
G01X25854Y5250D02*
G01X25809Y5227D01*
G01X25877Y5318D02*
G01X25854Y5250D01*
G01X25877Y5363D02*
G01X25877Y5318D01*
G01X25877Y5363D02*
G01X25854Y5431D01*
G01X25854Y5431D02*
G01X25786Y5477D01*
G01X25786Y5477D02*
G01X25672Y5500D01*
G01X25672Y5500D02*
G01X25559Y5500D01*
G01X25559Y5500D02*
G01X25468Y5477D01*
G01X25468Y5477D02*
G01X25422Y5431D01*
G01X25422Y5431D02*
G01X25400Y5363D01*
G01X25400Y5340D02*
G01X25400Y5363D01*
G01X25422Y5272D02*
G01X25400Y5340D01*
G01X25468Y5227D02*
G01X25422Y5272D01*
G01X25536Y5204D02*
G01X25468Y5227D01*
G01X25559Y5204D02*
G01X25536Y5204D01*
G01X25627Y5227D02*
G01X25559Y5204D01*
G01X25672Y5272D02*
G01X25627Y5227D01*
G01X25695Y5340D02*
G01X25672Y5272D01*
G01X25695Y5363D02*
G01X25695Y5340D01*
G01X25695Y5363D02*
G01X25672Y5431D01*
G01X25672Y5431D02*
G01X25627Y5477D01*
G01X25627Y5477D02*
G01X25559Y5500D01*
G04 Draw part R27*
G04 draw part outline for part R27*
G54D10*
G01X22500Y3800D02*
G01X24200Y3800D01*
G01X24200Y3800D02*
G01X24200Y3000D01*
G01X24200Y3000D02*
G01X22500Y3000D01*
G01X22500Y3000D02*
G01X22500Y3800D01*
G04 draw reference designator for part R27*
G54D11*
G01X22700Y3577D02*
G01X22700Y3100D01*
G01X22904Y3577D02*
G01X22700Y3577D01*
G01X22904Y3577D02*
G01X22972Y3554D01*
G01X22972Y3554D02*
G01X22995Y3531D01*
G01X22995Y3531D02*
G01X23018Y3486D01*
G01X23018Y3486D02*
G01X23018Y3440D01*
G01X23018Y3440D02*
G01X22995Y3395D01*
G01X22995Y3395D02*
G01X22972Y3372D01*
G01X22972Y3372D02*
G01X22904Y3350D01*
G01X22700Y3350D02*
G01X22904Y3350D01*
G01X22859Y3350D02*
G01X23018Y3100D01*
G01X23222Y3486D02*
G01X23222Y3463D01*
G01X23245Y3531D02*
G01X23222Y3486D01*
G01X23268Y3554D02*
G01X23245Y3531D01*
G01X23313Y3577D02*
G01X23268Y3554D01*
G01X23404Y3577D02*
G01X23313Y3577D01*
G01X23404Y3577D02*
G01X23450Y3554D01*
G01X23450Y3554D02*
G01X23472Y3531D01*
G01X23472Y3531D02*
G01X23495Y3486D01*
G01X23495Y3486D02*
G01X23495Y3440D01*
G01X23495Y3440D02*
G01X23472Y3395D01*
G01X23472Y3395D02*
G01X23427Y3327D01*
G01X23427Y3327D02*
G01X23200Y3100D01*
G01X23518Y3100D02*
G01X23200Y3100D01*
G01X24018Y3577D02*
G01X23790Y3100D01*
G01X24018Y3577D02*
G01X23700Y3577D01*
G04 Draw part C13*
G04 draw part outline for part C13*
G54D10*
G01X13800Y5100D02*
G01X12100Y5100D01*
G01X12100Y5100D02*
G01X12100Y5900D01*
G01X12100Y5900D02*
G01X13800Y5900D01*
G01X13800Y5900D02*
G01X13800Y5100D01*
G04 draw reference designator for part C13*
G54D11*
G01X12718Y5609D02*
G01X12740Y5563D01*
G01X12672Y5654D02*
G01X12718Y5609D01*
G01X12627Y5677D02*
G01X12672Y5654D01*
G01X12536Y5677D02*
G01X12627Y5677D01*
G01X12536Y5677D02*
G01X12490Y5654D01*
G01X12490Y5654D02*
G01X12445Y5609D01*
G01X12445Y5609D02*
G01X12422Y5563D01*
G01X12422Y5563D02*
G01X12400Y5495D01*
G01X12400Y5495D02*
G01X12400Y5381D01*
G01X12400Y5381D02*
G01X12422Y5313D01*
G01X12422Y5313D02*
G01X12445Y5268D01*
G01X12445Y5268D02*
G01X12490Y5222D01*
G01X12490Y5222D02*
G01X12536Y5200D01*
G01X12627Y5200D02*
G01X12536Y5200D01*
G01X12672Y5222D02*
G01X12627Y5200D01*
G01X12718Y5268D02*
G01X12672Y5222D01*
G01X12740Y5313D02*
G01X12718Y5268D01*
G01X12968Y5609D02*
G01X12922Y5586D01*
G01X13036Y5677D02*
G01X12968Y5609D01*
G01X13036Y5677D02*
G01X13036Y5200D01*
G01X13513Y5677D02*
G01X13263Y5677D01*
G01X13513Y5677D02*
G01X13377Y5495D01*
G01X13445Y5495D02*
G01X13377Y5495D01*
G01X13445Y5495D02*
G01X13490Y5472D01*
G01X13490Y5472D02*
G01X13513Y5450D01*
G01X13513Y5450D02*
G01X13536Y5381D01*
G01X13536Y5381D02*
G01X13536Y5336D01*
G01X13536Y5336D02*
G01X13513Y5268D01*
G01X13513Y5268D02*
G01X13468Y5222D01*
G01X13468Y5222D02*
G01X13400Y5200D01*
G01X13331Y5200D02*
G01X13400Y5200D01*
G01X13263Y5222D02*
G01X13331Y5200D01*
G01X13240Y5245D02*
G01X13263Y5222D01*
G01X13218Y5290D02*
G01X13240Y5245D01*
G04 Draw part D6*
G04 draw part outline for part D6*
G54D10*
G01X27900Y6900D02*
G01X27900Y6300D01*
G01X27900Y6300D02*
G01X27000Y6300D01*
G01X27000Y6300D02*
G01X27000Y6900D01*
G01X27000Y6900D02*
G01X27900Y6900D01*
G01X27700Y6300D02*
G01X27700Y6900D01*
G04 draw reference designator for part D6*
G54D11*
G01X27000Y6877D02*
G01X27000Y6400D01*
G01X27159Y6877D02*
G01X27000Y6877D01*
G01X27159Y6877D02*
G01X27227Y6854D01*
G01X27227Y6854D02*
G01X27272Y6809D01*
G01X27272Y6809D02*
G01X27295Y6763D01*
G01X27295Y6763D02*
G01X27318Y6695D01*
G01X27318Y6695D02*
G01X27318Y6581D01*
G01X27318Y6581D02*
G01X27295Y6513D01*
G01X27295Y6513D02*
G01X27272Y6468D01*
G01X27272Y6468D02*
G01X27227Y6422D01*
G01X27227Y6422D02*
G01X27159Y6400D01*
G01X27000Y6400D02*
G01X27159Y6400D01*
G01X27750Y6854D02*
G01X27772Y6809D01*
G01X27681Y6877D02*
G01X27750Y6854D01*
G01X27636Y6877D02*
G01X27681Y6877D01*
G01X27636Y6877D02*
G01X27568Y6854D01*
G01X27568Y6854D02*
G01X27522Y6786D01*
G01X27522Y6786D02*
G01X27500Y6672D01*
G01X27500Y6672D02*
G01X27500Y6559D01*
G01X27500Y6559D02*
G01X27522Y6468D01*
G01X27522Y6468D02*
G01X27568Y6422D01*
G01X27568Y6422D02*
G01X27636Y6400D01*
G01X27659Y6400D02*
G01X27636Y6400D01*
G01X27727Y6422D02*
G01X27659Y6400D01*
G01X27772Y6468D02*
G01X27727Y6422D01*
G01X27795Y6536D02*
G01X27772Y6468D01*
G01X27795Y6559D02*
G01X27795Y6536D01*
G01X27772Y6627D02*
G01X27795Y6559D01*
G01X27727Y6672D02*
G01X27772Y6627D01*
G01X27659Y6695D02*
G01X27727Y6672D01*
G01X27636Y6695D02*
G01X27659Y6695D01*
G01X27636Y6695D02*
G01X27568Y6672D01*
G01X27568Y6672D02*
G01X27522Y6627D01*
G01X27522Y6627D02*
G01X27500Y6559D01*
G04 Draw part D7*
G04 draw part outline for part D7*
G54D10*
G01X27000Y5600D02*
G01X27000Y6200D01*
G01X27000Y6200D02*
G01X27900Y6200D01*
G01X27900Y6200D02*
G01X27900Y5600D01*
G01X27900Y5600D02*
G01X27000Y5600D01*
G01X27200Y6200D02*
G01X27200Y5600D01*
G04 draw reference designator for part D7*
G54D11*
G01X26900Y6077D02*
G01X26900Y5600D01*
G01X27059Y6077D02*
G01X26900Y6077D01*
G01X27059Y6077D02*
G01X27127Y6054D01*
G01X27127Y6054D02*
G01X27172Y6009D01*
G01X27172Y6009D02*
G01X27195Y5963D01*
G01X27195Y5963D02*
G01X27218Y5895D01*
G01X27218Y5895D02*
G01X27218Y5781D01*
G01X27218Y5781D02*
G01X27195Y5713D01*
G01X27195Y5713D02*
G01X27172Y5668D01*
G01X27172Y5668D02*
G01X27127Y5622D01*
G01X27127Y5622D02*
G01X27059Y5600D01*
G01X26900Y5600D02*
G01X27059Y5600D01*
G01X27718Y6077D02*
G01X27490Y5600D01*
G01X27718Y6077D02*
G01X27400Y6077D01*
G04 Draw part R30*
G04 draw part outline for part R30*
G54D10*
G01X1100Y12600D02*
G01X2800Y12600D01*
G01X2800Y12600D02*
G01X2800Y11800D01*
G01X2800Y11800D02*
G01X1100Y11800D01*
G01X1100Y11800D02*
G01X1100Y12600D01*
G04 draw reference designator for part R30*
G54D11*
G01X1300Y12377D02*
G01X1300Y11900D01*
G01X1504Y12377D02*
G01X1300Y12377D01*
G01X1504Y12377D02*
G01X1572Y12354D01*
G01X1572Y12354D02*
G01X1595Y12331D01*
G01X1595Y12331D02*
G01X1618Y12286D01*
G01X1618Y12286D02*
G01X1618Y12240D01*
G01X1618Y12240D02*
G01X1595Y12195D01*
G01X1595Y12195D02*
G01X1572Y12172D01*
G01X1572Y12172D02*
G01X1504Y12150D01*
G01X1300Y12150D02*
G01X1504Y12150D01*
G01X1459Y12150D02*
G01X1618Y11900D01*
G01X2095Y12377D02*
G01X1845Y12377D01*
G01X2095Y12377D02*
G01X1959Y12195D01*
G01X2027Y12195D02*
G01X1959Y12195D01*
G01X2027Y12195D02*
G01X2072Y12172D01*
G01X2072Y12172D02*
G01X2095Y12150D01*
G01X2095Y12150D02*
G01X2118Y12081D01*
G01X2118Y12081D02*
G01X2118Y12036D01*
G01X2118Y12036D02*
G01X2095Y11968D01*
G01X2095Y11968D02*
G01X2050Y11922D01*
G01X2050Y11922D02*
G01X1981Y11900D01*
G01X1913Y11900D02*
G01X1981Y11900D01*
G01X1845Y11922D02*
G01X1913Y11900D01*
G01X1822Y11945D02*
G01X1845Y11922D01*
G01X1800Y11990D02*
G01X1822Y11945D01*
G01X2436Y12377D02*
G01X2368Y12354D01*
G01X2368Y12354D02*
G01X2322Y12286D01*
G01X2322Y12286D02*
G01X2300Y12172D01*
G01X2300Y12172D02*
G01X2300Y12104D01*
G01X2300Y12104D02*
G01X2322Y11990D01*
G01X2322Y11990D02*
G01X2368Y11922D01*
G01X2368Y11922D02*
G01X2436Y11900D01*
G01X2481Y11900D02*
G01X2436Y11900D01*
G01X2550Y11922D02*
G01X2481Y11900D01*
G01X2595Y11990D02*
G01X2550Y11922D01*
G01X2618Y12104D02*
G01X2595Y11990D01*
G01X2618Y12172D02*
G01X2618Y12104D01*
G01X2595Y12286D02*
G01X2618Y12172D01*
G01X2550Y12354D02*
G01X2595Y12286D01*
G01X2481Y12377D02*
G01X2550Y12354D01*
G01X2436Y12377D02*
G01X2481Y12377D01*
G04 Draw part R31*
G04 draw part outline for part R31*
G54D10*
G01X35000Y16900D02*
G01X35000Y12900D01*
G01X35000Y12900D02*
G01X33000Y12900D01*
G01X33000Y12900D02*
G01X33000Y16900D01*
G01X33000Y16900D02*
G01X35000Y16900D01*
G01X34600Y16200D02*
G01X34626Y16201D01*
G01X34652Y16204D01*
G01X34677Y16210D01*
G01X34702Y16218D01*
G01X34726Y16228D01*
G01X34750Y16240D01*
G01X34772Y16254D01*
G01X34792Y16270D01*
G01X34812Y16287D01*
G01X34829Y16307D01*
G01X34845Y16327D01*
G01X34859Y16350D01*
G01X34871Y16373D01*
G01X34881Y16397D01*
G01X34889Y16422D01*
G01X34895Y16447D01*
G01X34898Y16473D01*
G01X34900Y16500D01*
G01X34900Y16500D02*
G01X34898Y16526D01*
G01X34895Y16552D01*
G01X34889Y16577D01*
G01X34881Y16602D01*
G01X34871Y16626D01*
G01X34859Y16650D01*
G01X34845Y16672D01*
G01X34829Y16692D01*
G01X34812Y16712D01*
G01X34792Y16729D01*
G01X34772Y16745D01*
G01X34749Y16759D01*
G01X34726Y16771D01*
G01X34702Y16781D01*
G01X34677Y16789D01*
G01X34652Y16795D01*
G01X34626Y16798D01*
G01X34600Y16800D01*
G01X34600Y16800D02*
G01X34573Y16798D01*
G01X34547Y16795D01*
G01X34522Y16789D01*
G01X34497Y16781D01*
G01X34473Y16771D01*
G01X34449Y16759D01*
G01X34427Y16745D01*
G01X34407Y16729D01*
G01X34387Y16712D01*
G01X34370Y16692D01*
G01X34354Y16672D01*
G01X34340Y16649D01*
G01X34328Y16626D01*
G01X34318Y16602D01*
G01X34310Y16577D01*
G01X34304Y16552D01*
G01X34301Y16526D01*
G01X34300Y16500D01*
G01X34300Y16500D02*
G01X34301Y16473D01*
G01X34304Y16447D01*
G01X34310Y16422D01*
G01X34318Y16397D01*
G01X34328Y16373D01*
G01X34340Y16349D01*
G01X34354Y16327D01*
G01X34370Y16307D01*
G01X34387Y16287D01*
G01X34407Y16270D01*
G01X34427Y16254D01*
G01X34450Y16240D01*
G01X34473Y16228D01*
G01X34497Y16218D01*
G01X34522Y16210D01*
G01X34547Y16204D01*
G01X34573Y16201D01*
G01X34600Y16200D01*
G01X34900Y16500D02*
G01X34300Y16500D01*
G04 draw reference designator for part R31*
G54D11*
G01X33100Y18068D02*
G01X33100Y17400D01*
G01X33386Y18068D02*
G01X33100Y18068D01*
G01X33386Y18068D02*
G01X33481Y18036D01*
G01X33481Y18036D02*
G01X33513Y18004D01*
G01X33513Y18004D02*
G01X33545Y17940D01*
G01X33545Y17940D02*
G01X33545Y17877D01*
G01X33545Y17877D02*
G01X33513Y17813D01*
G01X33513Y17813D02*
G01X33481Y17781D01*
G01X33481Y17781D02*
G01X33386Y17750D01*
G01X33100Y17750D02*
G01X33386Y17750D01*
G01X33322Y17750D02*
G01X33545Y17400D01*
G01X34213Y18068D02*
G01X33863Y18068D01*
G01X34213Y18068D02*
G01X34022Y17813D01*
G01X34118Y17813D02*
G01X34022Y17813D01*
G01X34118Y17813D02*
G01X34181Y17781D01*
G01X34181Y17781D02*
G01X34213Y17750D01*
G01X34213Y17750D02*
G01X34245Y17654D01*
G01X34245Y17654D02*
G01X34245Y17590D01*
G01X34245Y17590D02*
G01X34213Y17495D01*
G01X34213Y17495D02*
G01X34150Y17431D01*
G01X34150Y17431D02*
G01X34054Y17400D01*
G01X33959Y17400D02*
G01X34054Y17400D01*
G01X33863Y17431D02*
G01X33959Y17400D01*
G01X33831Y17463D02*
G01X33863Y17431D01*
G01X33800Y17527D02*
G01X33831Y17463D01*
G01X34563Y17972D02*
G01X34500Y17940D01*
G01X34659Y18068D02*
G01X34563Y17972D01*
G01X34659Y18068D02*
G01X34659Y17400D01*
G04 Draw part R32*
G04 draw part outline for part R32*
G54D10*
G01X16100Y15300D02*
G01X16100Y17000D01*
G01X16100Y17000D02*
G01X16900Y17000D01*
G01X16900Y17000D02*
G01X16900Y15300D01*
G01X16900Y15300D02*
G01X16100Y15300D01*
G04 draw reference designator for part R32*
G54D11*
G01X16677Y16800D02*
G01X16200Y16800D01*
G01X16677Y16595D02*
G01X16677Y16800D01*
G01X16677Y16595D02*
G01X16654Y16527D01*
G01X16654Y16527D02*
G01X16631Y16504D01*
G01X16631Y16504D02*
G01X16586Y16481D01*
G01X16586Y16481D02*
G01X16540Y16481D01*
G01X16540Y16481D02*
G01X16495Y16504D01*
G01X16495Y16504D02*
G01X16472Y16527D01*
G01X16472Y16527D02*
G01X16450Y16595D01*
G01X16450Y16800D02*
G01X16450Y16595D01*
G01X16450Y16640D02*
G01X16200Y16481D01*
G01X16677Y16004D02*
G01X16677Y16254D01*
G01X16677Y16004D02*
G01X16495Y16140D01*
G01X16495Y16072D02*
G01X16495Y16140D01*
G01X16495Y16072D02*
G01X16472Y16027D01*
G01X16472Y16027D02*
G01X16450Y16004D01*
G01X16450Y16004D02*
G01X16381Y15981D01*
G01X16381Y15981D02*
G01X16336Y15981D01*
G01X16336Y15981D02*
G01X16268Y16004D01*
G01X16268Y16004D02*
G01X16222Y16050D01*
G01X16222Y16050D02*
G01X16200Y16118D01*
G01X16200Y16186D02*
G01X16200Y16118D01*
G01X16222Y16254D02*
G01X16200Y16186D01*
G01X16245Y16277D02*
G01X16222Y16254D01*
G01X16290Y16300D02*
G01X16245Y16277D01*
G01X16586Y15777D02*
G01X16563Y15777D01*
G01X16631Y15754D02*
G01X16586Y15777D01*
G01X16654Y15731D02*
G01X16631Y15754D01*
G01X16677Y15686D02*
G01X16654Y15731D01*
G01X16677Y15595D02*
G01X16677Y15686D01*
G01X16677Y15595D02*
G01X16654Y15550D01*
G01X16654Y15550D02*
G01X16631Y15527D01*
G01X16631Y15527D02*
G01X16586Y15504D01*
G01X16586Y15504D02*
G01X16540Y15504D01*
G01X16540Y15504D02*
G01X16495Y15527D01*
G01X16495Y15527D02*
G01X16427Y15572D01*
G01X16427Y15572D02*
G01X16200Y15800D01*
G01X16200Y15481D02*
G01X16200Y15800D01*
G04 Draw part D8*
G04 draw part outline for part D8*
G54D10*
G01X22200Y2500D02*
G01X20600Y2500D01*
G01X20600Y2500D02*
G01X20600Y3900D01*
G01X20600Y3900D02*
G01X22200Y3900D01*
G01X22200Y3900D02*
G01X22200Y2500D01*
G04 draw reference designator for part D8*
G54D11*
G01X21000Y3377D02*
G01X21000Y2900D01*
G01X21159Y3377D02*
G01X21000Y3377D01*
G01X21159Y3377D02*
G01X21227Y3354D01*
G01X21227Y3354D02*
G01X21272Y3309D01*
G01X21272Y3309D02*
G01X21295Y3263D01*
G01X21295Y3263D02*
G01X21318Y3195D01*
G01X21318Y3195D02*
G01X21318Y3081D01*
G01X21318Y3081D02*
G01X21295Y3013D01*
G01X21295Y3013D02*
G01X21272Y2968D01*
G01X21272Y2968D02*
G01X21227Y2922D01*
G01X21227Y2922D02*
G01X21159Y2900D01*
G01X21000Y2900D02*
G01X21159Y2900D01*
G01X21613Y3377D02*
G01X21545Y3354D01*
G01X21545Y3354D02*
G01X21522Y3309D01*
G01X21522Y3309D02*
G01X21522Y3263D01*
G01X21522Y3263D02*
G01X21545Y3218D01*
G01X21545Y3218D02*
G01X21590Y3195D01*
G01X21590Y3195D02*
G01X21681Y3172D01*
G01X21681Y3172D02*
G01X21750Y3150D01*
G01X21750Y3150D02*
G01X21795Y3104D01*
G01X21795Y3104D02*
G01X21818Y3059D01*
G01X21818Y3059D02*
G01X21818Y2990D01*
G01X21818Y2990D02*
G01X21795Y2945D01*
G01X21795Y2945D02*
G01X21772Y2922D01*
G01X21772Y2922D02*
G01X21704Y2900D01*
G01X21613Y2900D02*
G01X21704Y2900D01*
G01X21545Y2922D02*
G01X21613Y2900D01*
G01X21522Y2945D02*
G01X21545Y2922D01*
G01X21500Y2990D02*
G01X21522Y2945D01*
G01X21500Y3059D02*
G01X21500Y2990D01*
G01X21522Y3104D02*
G01X21500Y3059D01*
G01X21568Y3150D02*
G01X21522Y3104D01*
G01X21636Y3172D02*
G01X21568Y3150D01*
G01X21727Y3195D02*
G01X21636Y3172D01*
G01X21772Y3218D02*
G01X21727Y3195D01*
G01X21795Y3263D02*
G01X21772Y3218D01*
G01X21795Y3309D02*
G01X21795Y3263D01*
G01X21772Y3354D02*
G01X21795Y3309D01*
G01X21704Y3377D02*
G01X21772Y3354D01*
G01X21613Y3377D02*
G01X21704Y3377D01*
G04 Draw part D11*
G04 draw part outline for part D11*
G54D10*
G01X2500Y11400D02*
G01X2460Y11399D01*
G01X2421Y11396D01*
G01X2382Y11393D01*
G01X2343Y11387D01*
G01X2304Y11380D01*
G01X2266Y11372D01*
G01X2228Y11362D01*
G01X2190Y11351D01*
G01X2153Y11338D01*
G01X2117Y11323D01*
G01X2081Y11308D01*
G01X2046Y11291D01*
G01X2011Y11272D01*
G01X1977Y11252D01*
G01X1944Y11231D01*
G01X1912Y11209D01*
G01X1880Y11185D01*
G01X1850Y11160D01*
G01X1821Y11134D01*
G01X1792Y11107D01*
G01X1765Y11078D01*
G01X1739Y11049D01*
G01X1714Y11019D01*
G01X1690Y10987D01*
G01X1668Y10955D01*
G01X1647Y10922D01*
G01X1627Y10888D01*
G01X1608Y10853D01*
G01X1591Y10818D01*
G01X1576Y10782D01*
G01X1561Y10746D01*
G01X1548Y10709D01*
G01X1537Y10671D01*
G01X1527Y10633D01*
G01X1519Y10595D01*
G01X1512Y10556D01*
G01X1506Y10517D01*
G01X1503Y10478D01*
G01X1500Y10439D01*
G01X1500Y10400D01*
G01X1500Y10400D02*
G01X1500Y10360D01*
G01X1503Y10321D01*
G01X1506Y10282D01*
G01X1512Y10243D01*
G01X1519Y10204D01*
G01X1527Y10166D01*
G01X1537Y10128D01*
G01X1548Y10090D01*
G01X1561Y10053D01*
G01X1576Y10017D01*
G01X1591Y9981D01*
G01X1608Y9946D01*
G01X1627Y9911D01*
G01X1647Y9877D01*
G01X1668Y9844D01*
G01X1690Y9812D01*
G01X1714Y9780D01*
G01X1739Y9750D01*
G01X1765Y9721D01*
G01X1792Y9692D01*
G01X1821Y9665D01*
G01X1850Y9639D01*
G01X1880Y9614D01*
G01X1912Y9590D01*
G01X1944Y9568D01*
G01X1977Y9547D01*
G01X2011Y9527D01*
G01X2046Y9508D01*
G01X2081Y9491D01*
G01X2117Y9476D01*
G01X2153Y9461D01*
G01X2190Y9448D01*
G01X2228Y9437D01*
G01X2266Y9427D01*
G01X2304Y9419D01*
G01X2343Y9412D01*
G01X2382Y9406D01*
G01X2421Y9403D01*
G01X2460Y9400D01*
G01X2500Y9400D01*
G01X2500Y9400D02*
G01X2539Y9400D01*
G01X2578Y9403D01*
G01X2617Y9406D01*
G01X2656Y9412D01*
G01X2695Y9419D01*
G01X2733Y9427D01*
G01X2771Y9437D01*
G01X2809Y9448D01*
G01X2846Y9461D01*
G01X2882Y9476D01*
G01X2918Y9491D01*
G01X2953Y9508D01*
G01X2988Y9527D01*
G01X3022Y9547D01*
G01X3055Y9568D01*
G01X3087Y9590D01*
G01X3119Y9614D01*
G01X3149Y9639D01*
G01X3178Y9665D01*
G01X3207Y9692D01*
G01X3234Y9721D01*
G01X3260Y9750D01*
G01X3285Y9780D01*
G01X3309Y9812D01*
G01X3331Y9844D01*
G01X3352Y9877D01*
G01X3372Y9911D01*
G01X3391Y9946D01*
G01X3408Y9981D01*
G01X3423Y10017D01*
G01X3438Y10053D01*
G01X3451Y10090D01*
G01X3462Y10128D01*
G01X3472Y10166D01*
G01X3480Y10204D01*
G01X3487Y10243D01*
G01X3493Y10282D01*
G01X3496Y10321D01*
G01X3499Y10360D01*
G01X3500Y10400D01*
G01X3500Y10400D02*
G01X3499Y10439D01*
G01X3496Y10478D01*
G01X3493Y10517D01*
G01X3487Y10556D01*
G01X3480Y10595D01*
G01X3472Y10633D01*
G01X3462Y10671D01*
G01X3451Y10709D01*
G01X3438Y10746D01*
G01X3423Y10782D01*
G01X3408Y10818D01*
G01X3391Y10853D01*
G01X3372Y10888D01*
G01X3352Y10922D01*
G01X3331Y10955D01*
G01X3309Y10987D01*
G01X3285Y11019D01*
G01X3260Y11049D01*
G01X3234Y11078D01*
G01X3207Y11107D01*
G01X3178Y11134D01*
G01X3149Y11160D01*
G01X3119Y11185D01*
G01X3087Y11209D01*
G01X3055Y11231D01*
G01X3022Y11252D01*
G01X2988Y11272D01*
G01X2953Y11291D01*
G01X2918Y11308D01*
G01X2882Y11323D01*
G01X2846Y11338D01*
G01X2809Y11351D01*
G01X2771Y11362D01*
G01X2733Y11372D01*
G01X2695Y11380D01*
G01X2656Y11387D01*
G01X2617Y11393D01*
G01X2578Y11396D01*
G01X2539Y11399D01*
G01X2500Y11400D01*
G01X2000Y11200D02*
G01X2000Y9600D01*
G04 draw reference designator for part D11*
G54D11*
G01X2000Y11177D02*
G01X2000Y10700D01*
G01X2159Y11177D02*
G01X2000Y11177D01*
G01X2159Y11177D02*
G01X2227Y11154D01*
G01X2227Y11154D02*
G01X2272Y11109D01*
G01X2272Y11109D02*
G01X2295Y11063D01*
G01X2295Y11063D02*
G01X2318Y10995D01*
G01X2318Y10995D02*
G01X2318Y10881D01*
G01X2318Y10881D02*
G01X2295Y10813D01*
G01X2295Y10813D02*
G01X2272Y10768D01*
G01X2272Y10768D02*
G01X2227Y10722D01*
G01X2227Y10722D02*
G01X2159Y10700D01*
G01X2000Y10700D02*
G01X2159Y10700D01*
G01X2545Y11109D02*
G01X2500Y11086D01*
G01X2613Y11177D02*
G01X2545Y11109D01*
G01X2613Y11177D02*
G01X2613Y10700D01*
G01X2840Y11109D02*
G01X2795Y11086D01*
G01X2909Y11177D02*
G01X2840Y11109D01*
G01X2909Y11177D02*
G01X2909Y10700D01*
G04 Draw part D9*
G04 draw part outline for part D9*
G54D10*
G01X28100Y5500D02*
G01X28100Y4700D01*
G01X28100Y4700D02*
G01X27000Y4700D01*
G01X27000Y4700D02*
G01X27000Y5500D01*
G01X27000Y5500D02*
G01X28100Y5500D01*
G01X27800Y4700D02*
G01X27800Y5500D01*
G04 draw reference designator for part D9*
G54D11*
G01X27100Y5277D02*
G01X27100Y4800D01*
G01X27259Y5277D02*
G01X27100Y5277D01*
G01X27259Y5277D02*
G01X27327Y5254D01*
G01X27327Y5254D02*
G01X27372Y5209D01*
G01X27372Y5209D02*
G01X27395Y5163D01*
G01X27395Y5163D02*
G01X27418Y5095D01*
G01X27418Y5095D02*
G01X27418Y4981D01*
G01X27418Y4981D02*
G01X27395Y4913D01*
G01X27395Y4913D02*
G01X27372Y4868D01*
G01X27372Y4868D02*
G01X27327Y4822D01*
G01X27327Y4822D02*
G01X27259Y4800D01*
G01X27100Y4800D02*
G01X27259Y4800D01*
G01X27895Y5118D02*
G01X27872Y5050D01*
G01X27872Y5050D02*
G01X27827Y5004D01*
G01X27827Y5004D02*
G01X27759Y4981D01*
G01X27736Y4981D02*
G01X27759Y4981D01*
G01X27668Y5004D02*
G01X27736Y4981D01*
G01X27622Y5050D02*
G01X27668Y5004D01*
G01X27600Y5118D02*
G01X27622Y5050D01*
G01X27600Y5140D02*
G01X27600Y5118D01*
G01X27622Y5209D02*
G01X27600Y5140D01*
G01X27668Y5254D02*
G01X27622Y5209D01*
G01X27736Y5277D02*
G01X27668Y5254D01*
G01X27759Y5277D02*
G01X27736Y5277D01*
G01X27759Y5277D02*
G01X27827Y5254D01*
G01X27827Y5254D02*
G01X27872Y5209D01*
G01X27872Y5209D02*
G01X27895Y5118D01*
G01X27895Y5118D02*
G01X27895Y5004D01*
G01X27895Y5004D02*
G01X27872Y4890D01*
G01X27872Y4890D02*
G01X27827Y4822D01*
G01X27827Y4822D02*
G01X27759Y4800D01*
G01X27713Y4800D02*
G01X27759Y4800D01*
G01X27645Y4822D02*
G01X27713Y4800D01*
G01X27622Y4868D02*
G01X27645Y4822D01*
G04 Draw part D10*
G04 draw part outline for part D10*
G54D10*
G01X28100Y4600D02*
G01X28100Y3800D01*
G01X28100Y3800D02*
G01X27000Y3800D01*
G01X27000Y3800D02*
G01X27000Y4600D01*
G01X27000Y4600D02*
G01X28100Y4600D01*
G01X27800Y3800D02*
G01X27800Y4600D01*
G04 draw reference designator for part D10*
G54D11*
G01X26900Y4477D02*
G01X26900Y4000D01*
G01X27059Y4477D02*
G01X26900Y4477D01*
G01X27059Y4477D02*
G01X27127Y4454D01*
G01X27127Y4454D02*
G01X27172Y4409D01*
G01X27172Y4409D02*
G01X27195Y4363D01*
G01X27195Y4363D02*
G01X27218Y4295D01*
G01X27218Y4295D02*
G01X27218Y4181D01*
G01X27218Y4181D02*
G01X27195Y4113D01*
G01X27195Y4113D02*
G01X27172Y4068D01*
G01X27172Y4068D02*
G01X27127Y4022D01*
G01X27127Y4022D02*
G01X27059Y4000D01*
G01X26900Y4000D02*
G01X27059Y4000D01*
G01X27445Y4409D02*
G01X27400Y4386D01*
G01X27513Y4477D02*
G01X27445Y4409D01*
G01X27513Y4477D02*
G01X27513Y4000D01*
G01X27831Y4477D02*
G01X27763Y4454D01*
G01X27763Y4454D02*
G01X27718Y4386D01*
G01X27718Y4386D02*
G01X27695Y4272D01*
G01X27695Y4272D02*
G01X27695Y4204D01*
G01X27695Y4204D02*
G01X27718Y4090D01*
G01X27718Y4090D02*
G01X27763Y4022D01*
G01X27763Y4022D02*
G01X27831Y4000D01*
G01X27877Y4000D02*
G01X27831Y4000D01*
G01X27945Y4022D02*
G01X27877Y4000D01*
G01X27990Y4090D02*
G01X27945Y4022D01*
G01X28013Y4204D02*
G01X27990Y4090D01*
G01X28013Y4272D02*
G01X28013Y4204D01*
G01X27990Y4386D02*
G01X28013Y4272D01*
G01X27945Y4454D02*
G01X27990Y4386D01*
G01X27877Y4477D02*
G01X27945Y4454D01*
G01X27831Y4477D02*
G01X27877Y4477D01*
G04 Draw part C14*
G04 draw part outline for part C14*
G01X9700Y11800D02*
G01X9700Y13100D01*
G01X9700Y13100D02*
G01X10300Y13100D01*
G01X10300Y13100D02*
G01X10300Y11800D01*
G01X10300Y11800D02*
G01X9700Y11800D01*
G04 draw reference designator for part C14*
G01X10109Y12681D02*
G01X10063Y12659D01*
G01X10154Y12727D02*
G01X10109Y12681D01*
G01X10177Y12772D02*
G01X10154Y12727D01*
G01X10177Y12863D02*
G01X10177Y12772D01*
G01X10177Y12863D02*
G01X10154Y12909D01*
G01X10154Y12909D02*
G01X10109Y12954D01*
G01X10109Y12954D02*
G01X10063Y12977D01*
G01X10063Y12977D02*
G01X9995Y13000D01*
G01X9995Y13000D02*
G01X9881Y13000D01*
G01X9881Y13000D02*
G01X9813Y12977D01*
G01X9813Y12977D02*
G01X9768Y12954D01*
G01X9768Y12954D02*
G01X9722Y12909D01*
G01X9722Y12909D02*
G01X9700Y12863D01*
G01X9700Y12772D02*
G01X9700Y12863D01*
G01X9722Y12727D02*
G01X9700Y12772D01*
G01X9768Y12681D02*
G01X9722Y12727D01*
G01X9813Y12659D02*
G01X9768Y12681D01*
G01X10109Y12431D02*
G01X10086Y12477D01*
G01X10177Y12363D02*
G01X10109Y12431D01*
G01X10177Y12363D02*
G01X9700Y12363D01*
G01X10177Y11954D02*
G01X9859Y12181D01*
G01X9859Y11840D02*
G01X9859Y12181D01*
G01X10177Y11954D02*
G01X9700Y11954D01*
G04 Draw part C15*
G04 draw part outline for part C15*
G01X26700Y12200D02*
G01X26700Y13500D01*
G01X26700Y13500D02*
G01X27300Y13500D01*
G01X27300Y13500D02*
G01X27300Y12200D01*
G01X27300Y12200D02*
G01X26700Y12200D01*
G04 draw reference designator for part C15*
G01X27109Y13081D02*
G01X27063Y13059D01*
G01X27154Y13127D02*
G01X27109Y13081D01*
G01X27177Y13172D02*
G01X27154Y13127D01*
G01X27177Y13263D02*
G01X27177Y13172D01*
G01X27177Y13263D02*
G01X27154Y13309D01*
G01X27154Y13309D02*
G01X27109Y13354D01*
G01X27109Y13354D02*
G01X27063Y13377D01*
G01X27063Y13377D02*
G01X26995Y13400D01*
G01X26995Y13400D02*
G01X26881Y13400D01*
G01X26881Y13400D02*
G01X26813Y13377D01*
G01X26813Y13377D02*
G01X26768Y13354D01*
G01X26768Y13354D02*
G01X26722Y13309D01*
G01X26722Y13309D02*
G01X26700Y13263D01*
G01X26700Y13172D02*
G01X26700Y13263D01*
G01X26722Y13127D02*
G01X26700Y13172D01*
G01X26768Y13081D02*
G01X26722Y13127D01*
G01X26813Y13059D02*
G01X26768Y13081D01*
G01X27109Y12831D02*
G01X27086Y12877D01*
G01X27177Y12763D02*
G01X27109Y12831D01*
G01X27177Y12763D02*
G01X26700Y12763D01*
G01X27177Y12536D02*
G01X27177Y12309D01*
G01X27177Y12536D02*
G01X26972Y12559D01*
G01X26995Y12536D02*
G01X26972Y12559D01*
G01X27018Y12468D02*
G01X26995Y12536D01*
G01X27018Y12400D02*
G01X27018Y12468D01*
G01X27018Y12400D02*
G01X26995Y12331D01*
G01X26995Y12331D02*
G01X26950Y12286D01*
G01X26950Y12286D02*
G01X26881Y12263D01*
G01X26881Y12263D02*
G01X26836Y12263D01*
G01X26836Y12263D02*
G01X26768Y12286D01*
G01X26768Y12286D02*
G01X26722Y12331D01*
G01X26722Y12331D02*
G01X26700Y12400D01*
G01X26700Y12468D02*
G01X26700Y12400D01*
G01X26722Y12536D02*
G01X26700Y12468D01*
G01X26745Y12559D02*
G01X26722Y12536D01*
G01X26790Y12581D02*
G01X26745Y12559D01*
G04 Draw part R33*
G04 draw part outline for part R33*
G54D10*
G01X2400Y7400D02*
G01X2400Y9100D01*
G01X2400Y9100D02*
G01X3200Y9100D01*
G01X3200Y9100D02*
G01X3200Y7400D01*
G01X3200Y7400D02*
G01X2400Y7400D01*
G04 draw reference designator for part R33*
G54D11*
G01X2977Y9000D02*
G01X2500Y9000D01*
G01X2977Y8795D02*
G01X2977Y9000D01*
G01X2977Y8795D02*
G01X2954Y8727D01*
G01X2954Y8727D02*
G01X2931Y8704D01*
G01X2931Y8704D02*
G01X2886Y8681D01*
G01X2886Y8681D02*
G01X2840Y8681D01*
G01X2840Y8681D02*
G01X2795Y8704D01*
G01X2795Y8704D02*
G01X2772Y8727D01*
G01X2772Y8727D02*
G01X2750Y8795D01*
G01X2750Y9000D02*
G01X2750Y8795D01*
G01X2750Y8840D02*
G01X2500Y8681D01*
G01X2977Y8204D02*
G01X2977Y8454D01*
G01X2977Y8204D02*
G01X2795Y8340D01*
G01X2795Y8272D02*
G01X2795Y8340D01*
G01X2795Y8272D02*
G01X2772Y8227D01*
G01X2772Y8227D02*
G01X2750Y8204D01*
G01X2750Y8204D02*
G01X2681Y8181D01*
G01X2681Y8181D02*
G01X2636Y8181D01*
G01X2636Y8181D02*
G01X2568Y8204D01*
G01X2568Y8204D02*
G01X2522Y8250D01*
G01X2522Y8250D02*
G01X2500Y8318D01*
G01X2500Y8386D02*
G01X2500Y8318D01*
G01X2522Y8454D02*
G01X2500Y8386D01*
G01X2545Y8477D02*
G01X2522Y8454D01*
G01X2590Y8500D02*
G01X2545Y8477D01*
G01X2977Y7704D02*
G01X2977Y7954D01*
G01X2977Y7704D02*
G01X2795Y7840D01*
G01X2795Y7772D02*
G01X2795Y7840D01*
G01X2795Y7772D02*
G01X2772Y7727D01*
G01X2772Y7727D02*
G01X2750Y7704D01*
G01X2750Y7704D02*
G01X2681Y7681D01*
G01X2681Y7681D02*
G01X2636Y7681D01*
G01X2636Y7681D02*
G01X2568Y7704D01*
G01X2568Y7704D02*
G01X2522Y7750D01*
G01X2522Y7750D02*
G01X2500Y7818D01*
G01X2500Y7886D02*
G01X2500Y7818D01*
G01X2522Y7954D02*
G01X2500Y7886D01*
G01X2545Y7977D02*
G01X2522Y7954D01*
G01X2590Y8000D02*
G01X2545Y7977D01*
G04 Draw part R34*
G04 Draw part C18*
G04 Draw part C16*
G04 Draw part C17*
G04 draw part outline for part C17*
G54D10*
G01X12400Y3200D02*
G01X10700Y3200D01*
G01X10700Y3200D02*
G01X10700Y4000D01*
G01X10700Y4000D02*
G01X12400Y4000D01*
G01X12400Y4000D02*
G01X12400Y3200D01*
G04 draw reference designator for part C17*
G54D11*
G01X11318Y3709D02*
G01X11340Y3663D01*
G01X11272Y3754D02*
G01X11318Y3709D01*
G01X11227Y3777D02*
G01X11272Y3754D01*
G01X11136Y3777D02*
G01X11227Y3777D01*
G01X11136Y3777D02*
G01X11090Y3754D01*
G01X11090Y3754D02*
G01X11045Y3709D01*
G01X11045Y3709D02*
G01X11022Y3663D01*
G01X11022Y3663D02*
G01X11000Y3595D01*
G01X11000Y3595D02*
G01X11000Y3481D01*
G01X11000Y3481D02*
G01X11022Y3413D01*
G01X11022Y3413D02*
G01X11045Y3368D01*
G01X11045Y3368D02*
G01X11090Y3322D01*
G01X11090Y3322D02*
G01X11136Y3300D01*
G01X11227Y3300D02*
G01X11136Y3300D01*
G01X11272Y3322D02*
G01X11227Y3300D01*
G01X11318Y3368D02*
G01X11272Y3322D01*
G01X11340Y3413D02*
G01X11318Y3368D01*
G01X11568Y3709D02*
G01X11522Y3686D01*
G01X11636Y3777D02*
G01X11568Y3709D01*
G01X11636Y3777D02*
G01X11636Y3300D01*
G01X12136Y3777D02*
G01X11909Y3300D01*
G01X12136Y3777D02*
G01X11818Y3777D01*
G04 Draw part D3*
G04 draw part outline for part D3*
G54D10*
G01X19800Y2500D02*
G01X18200Y2500D01*
G01X18200Y2500D02*
G01X18200Y3900D01*
G01X18200Y3900D02*
G01X19800Y3900D01*
G01X19800Y3900D02*
G01X19800Y2500D01*
G04 draw reference designator for part D3*
G54D11*
G01X18600Y3377D02*
G01X18600Y2900D01*
G01X18759Y3377D02*
G01X18600Y3377D01*
G01X18759Y3377D02*
G01X18827Y3354D01*
G01X18827Y3354D02*
G01X18872Y3309D01*
G01X18872Y3309D02*
G01X18895Y3263D01*
G01X18895Y3263D02*
G01X18918Y3195D01*
G01X18918Y3195D02*
G01X18918Y3081D01*
G01X18918Y3081D02*
G01X18895Y3013D01*
G01X18895Y3013D02*
G01X18872Y2968D01*
G01X18872Y2968D02*
G01X18827Y2922D01*
G01X18827Y2922D02*
G01X18759Y2900D01*
G01X18600Y2900D02*
G01X18759Y2900D01*
G01X19395Y3377D02*
G01X19145Y3377D01*
G01X19395Y3377D02*
G01X19259Y3195D01*
G01X19327Y3195D02*
G01X19259Y3195D01*
G01X19327Y3195D02*
G01X19372Y3172D01*
G01X19372Y3172D02*
G01X19395Y3150D01*
G01X19395Y3150D02*
G01X19418Y3081D01*
G01X19418Y3081D02*
G01X19418Y3036D01*
G01X19418Y3036D02*
G01X19395Y2968D01*
G01X19395Y2968D02*
G01X19350Y2922D01*
G01X19350Y2922D02*
G01X19281Y2900D01*
G01X19213Y2900D02*
G01X19281Y2900D01*
G01X19145Y2922D02*
G01X19213Y2900D01*
G01X19122Y2945D02*
G01X19145Y2922D01*
G01X19100Y2990D02*
G01X19122Y2945D01*
G04 Draw part R35*
G04 Draw part R36*
G04 Draw part R37*
G04 draw part outline for part R37*
G54D10*
G01X21100Y15300D02*
G01X21100Y13600D01*
G01X21100Y13600D02*
G01X20300Y13600D01*
G01X20300Y13600D02*
G01X20300Y15300D01*
G01X20300Y15300D02*
G01X21100Y15300D01*
G04 draw reference designator for part R37*
G54D11*
G01X20927Y15150D02*
G01X20450Y15150D01*
G01X20927Y14945D02*
G01X20927Y15150D01*
G01X20927Y14945D02*
G01X20904Y14877D01*
G01X20904Y14877D02*
G01X20881Y14854D01*
G01X20881Y14854D02*
G01X20836Y14831D01*
G01X20836Y14831D02*
G01X20790Y14831D01*
G01X20790Y14831D02*
G01X20745Y14854D01*
G01X20745Y14854D02*
G01X20722Y14877D01*
G01X20722Y14877D02*
G01X20700Y14945D01*
G01X20700Y15150D02*
G01X20700Y14945D01*
G01X20700Y14990D02*
G01X20450Y14831D01*
G01X20927Y14354D02*
G01X20927Y14604D01*
G01X20927Y14354D02*
G01X20745Y14490D01*
G01X20745Y14422D02*
G01X20745Y14490D01*
G01X20745Y14422D02*
G01X20722Y14377D01*
G01X20722Y14377D02*
G01X20700Y14354D01*
G01X20700Y14354D02*
G01X20631Y14331D01*
G01X20631Y14331D02*
G01X20586Y14331D01*
G01X20586Y14331D02*
G01X20518Y14354D01*
G01X20518Y14354D02*
G01X20472Y14400D01*
G01X20472Y14400D02*
G01X20450Y14468D01*
G01X20450Y14536D02*
G01X20450Y14468D01*
G01X20472Y14604D02*
G01X20450Y14536D01*
G01X20495Y14627D02*
G01X20472Y14604D01*
G01X20540Y14650D02*
G01X20495Y14627D01*
G01X20927Y13831D02*
G01X20450Y14059D01*
G01X20927Y13831D02*
G01X20927Y14150D01*
G04 Draw part J4*

G04 Draw traces*

G04 Draw Text*
M00*
M02*
