G04 FreePCB version 1.359*
G04 C:\Users\pmesser\_Paul\Design\DSOscope\PCB\A01\CAM_DSOscope_CPUBrd_A01\bottom_copper.grb*
G04 bottom copper layer *
G04 Scale: 100 percent, Rotated: No, Reflected: No *
%FSLAX24Y24*%
%MOIN*%
%LN bottom copper *%
G04 Rounded Rectangle Macro, params: W/2, H/2, R *
%AMRNDREC*
21,1,$1+$1,$2+$2-$3-$3,0,0,0*
21,1,$1+$1-$3-$3,$2+$2,0,0,0*
1,1,$3+$3,$1-$3,$2-$3*
1,1,$3+$3,$3-$1,$2-$3*
1,1,$3+$3,$1-$3,$3-$2*
1,1,$3+$3,$3-$1,$3-$2*%
G04 Rectangular Thermal Macro, params: W/2, H/2, T/2 *
%AMRECTHERM*
$4=$3/2*
21,1,$1-$3,$2-$3,0-$1/2-$4,0-$2/2-$4,0*
21,1,$1-$3,$2-$3,0-$1/2-$4,$2/2+$4,0*
21,1,$1-$3,$2-$3,$1/2+$4,0-$2/2-$4,0*
21,1,$1-$3,$2-$3,$1/2+$4,$2/2+$4,0*%
%ADD10C,0.005000*%
%ADD11R,0.115000X0.115000*%
%ADD12C,0.115000*%
%AMTHERM13*7,0,0,0.115000,0.085000,0.020000,45.0*%
%ADD13THERM13*%
%ADD14C,0.001000*%
%ADD15R,0.080000X0.080000*%
%ADD16R,0.055000X0.060000*%
%ADD17C,0.155000*%
%ADD18C,0.230000*%
%ADD19R,0.110000X0.090000*%
%ADD20RNDREC,0.055000X0.045000X0.035000*%
%ADD21RECTHERM,0.055000X0.045000X0.010000*%
%ADD22RECTHERM,0.065000X0.065000X0.010000*%
%AMTHERM23*7,0,0,0.130000,0.100000,0.020000,45.0*%
%ADD23THERM23*%
%ADD24R,0.130000X0.130000*%
%ADD25RECTHERM,0.057500X0.057500X0.010000*%
%ADD26C,0.130000*%
%ADD27R,0.245000X0.145000*%
%ADD28RECTHERM,0.122500X0.072500X0.010000*%
%ADD29RNDREC,0.072500X0.122500X0.035000*%
%ADD30C,0.080000*%
%ADD31C,0.045000*%
%AMTHERM32*7,0,0,0.080000,0.050000,0.020000,45.0*%
%ADD32THERM32*%
%ADD33C,0.065000*%
%ADD34C,0.055000*%
%ADD35C,0.010000*%
%ADD36C,0.015000*%
%ADD37R,0.085000X0.085000*%
%ADD38C,0.085000*%
%ADD39R,0.050000X0.050000*%
%ADD40R,0.025000X0.030000*%
%ADD41C,0.125000*%
%ADD42C,0.200000*%
%ADD43R,0.080000X0.060000*%
%ADD44RNDREC,0.040000X0.030000X0.020000*%
%ADD45R,0.100000X0.100000*%
%ADD46C,0.100000*%
%ADD47R,0.215000X0.115000*%
%ADD48RNDREC,0.107500X0.057500X0.020000*%
%ADD49RNDREC,0.057500X0.107500X0.020000*%
%ADD50C,0.050000*%
%ADD51C,0.035000*%
%ADD52C,0.025000*%
G90*
G70D02*

G04 Step and Repeat for panelization *
%SRX1Y2I3.700000J2.000000*%

G04 ----------------------- Draw board outline (positive)*
%LPD*%
G54D10*
G01X0Y5000D02*
G01X0Y16500D01*
G04 end of side 1*
G01X0Y19000D01*
G04 end of side 2*
G01X37000Y19000D01*
G04 end of side 3*
G01X37000Y5000D01*
G04 end of side 4*
G01X28500Y5000D01*
G04 end of side 5*
G01X28500Y0D01*
G04 end of side 6*
G01X8500Y0D01*
G04 end of side 7*
G01X8500Y5000D01*
G04 end of side 8*
G01X0Y5000D01*
G01X8500Y0D02*
G01X0Y0D01*
G04 end of side 1*
G01X0Y5000D01*
G04 end of side 2*
G01X8500Y5000D01*
G04 end of side 3*
G01X8500Y0D01*
G01X28500Y0D02*
G01X37000Y0D01*
G04 end of side 1*
G01X37000Y5000D01*
G04 end of side 2*
G01X28500Y5000D01*
G04 end of side 3*
G01X28500Y0D01*

G04 ----------------------- Draw copper area (positive)*
G36*
G01X30690Y11620D02*
G01X32620Y11620D01*
G01X33040Y11200D01*
G01X33040Y10610D01*
G01X33180Y10460D01*
G01X33180Y9020D01*
G01X35300Y9020D01*
G01X35550Y8770D01*
G01X35550Y7470D01*
G01X34180Y7470D01*
G01X33640Y8000D01*
G01X29400Y8000D01*
G01X27780Y6380D01*
G01X27270Y6580D01*
G01X27270Y7970D01*
G01X27690Y8390D01*
G01X27690Y9230D01*
G01X29100Y10640D01*
G01X29100Y12130D01*
G01X29650Y12700D01*
G01X30690Y12700D01*
G01X30690Y11620D01*
G37*

G04 ----------------------- Draw copper area (positive)*
G36*
G01X36250Y13520D02*
G01X36510Y13520D01*
G01X36510Y12480D01*
G01X36250Y12480D01*
G01X36250Y11240D01*
G01X33740Y11240D01*
G01X33740Y12080D01*
G01X32840Y12980D01*
G01X29560Y12980D01*
G01X28810Y12230D01*
G01X28810Y10810D01*
G01X27390Y9390D01*
G01X27390Y8350D01*
G01X27000Y7960D01*
G01X27000Y6350D01*
G01X26680Y5130D01*
G01X26220Y4670D01*
G01X25470Y4670D01*
G01X25470Y5890D01*
G01X25730Y5890D01*
G01X26330Y6490D01*
G01X26330Y8180D01*
G01X26790Y8640D01*
G01X26790Y10260D01*
G01X27790Y11260D01*
G01X27790Y12070D01*
G01X27670Y12190D01*
G01X27670Y12410D01*
G01X29600Y14320D01*
G01X36250Y14320D01*
G01X36250Y13520D01*
G37*

G04 ----------------------- Draw copper area (positive)*
G36*
G01X28200Y14800D02*
G01X26360Y12950D01*
G01X26360Y12120D01*
G01X27510Y12120D01*
G01X27510Y11270D01*
G01X26550Y10310D01*
G01X26550Y8710D01*
G01X26100Y8260D01*
G01X26100Y6640D01*
G01X25840Y6380D01*
G01X25590Y6630D01*
G01X25580Y12650D01*
G01X26670Y13760D01*
G01X26670Y17430D01*
G01X28200Y17430D01*
G01X28200Y14800D01*
G37*

G04 ----------------------- Draw copper area (positive)*
G36*
G01X36750Y14580D02*
G01X29590Y14580D01*
G01X27500Y12500D01*
G01X26650Y12500D01*
G01X26650Y12880D01*
G01X28470Y14700D01*
G01X28470Y16400D01*
G01X28580Y16400D01*
G01X28580Y17710D01*
G01X26410Y17710D01*
G01X26410Y13880D01*
G01X25250Y12710D01*
G01X25250Y6250D01*
G01X25250Y4500D01*
G01X26370Y4500D01*
G01X26760Y4100D01*
G01X27330Y4690D01*
G01X27660Y5910D01*
G01X29500Y7750D01*
G01X33450Y7750D01*
G01X34060Y7140D01*
G01X35840Y7140D01*
G01X35840Y9040D01*
G01X35560Y9320D01*
G01X33410Y9320D01*
G01X33410Y10670D01*
G01X33250Y10840D01*
G01X33250Y11300D01*
G01X32700Y11850D01*
G01X30920Y11850D01*
G01X30920Y12700D01*
G01X32800Y12700D01*
G01X33500Y12000D01*
G01X33500Y11240D01*
G01X33730Y11000D01*
G01X36750Y11000D01*
G01X36750Y5250D01*
G01X28250Y5250D01*
G01X28250Y4500D01*
G01X28250Y250D01*
G01X8750Y250D01*
G01X8750Y5250D01*
G01X250Y5250D01*
G01X250Y18750D01*
G01X36750Y18750D01*
G01X36750Y14580D01*
G37*

G04 -------------------- Draw copper area cutout (negative)*
%LPC*%
G36*
G01X19910Y8840D02*
G01X17280Y8840D01*
G01X17280Y7750D01*
G01X17610Y7750D01*
G01X17810Y7550D01*
G01X17810Y3940D01*
G01X18200Y3550D01*
G01X20480Y3550D01*
G01X22180Y5250D01*
G01X24000Y5250D01*
G01X24190Y5440D01*
G01X24190Y6780D01*
G01X23090Y7880D01*
G01X20860Y7880D01*
G01X19910Y8840D01*
G37*

G04 ----------------------- Draw copper area (positive)*
%LPD*%
G36*
G01X20710Y7650D02*
G01X22990Y7650D01*
G01X23960Y6680D01*
G01X23960Y5580D01*
G01X23850Y5450D01*
G01X22070Y5450D01*
G01X20390Y3770D01*
G01X18330Y3770D01*
G01X18060Y4040D01*
G01X18060Y7720D01*
G01X17830Y7950D01*
G01X17520Y7950D01*
G01X17520Y8600D01*
G01X19780Y8600D01*
G01X20710Y7650D01*
G37*

G04 -------------------- Draw copper area clearances (negative)*
%LPC*%

G04 Draw clearances for pads*
G54D11*
G01X27000Y1500D03*
G54D12*
G01X26000Y1500D03*
G01X25000Y1500D03*
G01X24000Y1500D03*
G01X23000Y1500D03*
G01X22000Y1500D03*
G01X21000Y1500D03*
G01X20000Y1500D03*
G54D13*
G01X19000Y1500D03*
G54D14*
G54D12*
G01X18000Y1500D03*
G54D13*
G01X17000Y1500D03*
G54D14*
G54D12*
G01X16000Y1500D03*
G54D13*
G01X15000Y1500D03*
G54D14*
G54D12*
G01X14000Y1500D03*
G54D13*
G01X13000Y1500D03*
G54D14*
G54D12*
G01X12000Y1500D03*
G01X11000Y1500D03*
G01X10000Y1500D03*
G54D15*
G01X5200Y12500D03*
G01X5200Y11600D03*
G54D11*
G01X1500Y11500D03*
G54D12*
G01X1500Y12500D03*
G54D13*
G01X1500Y13500D03*
G54D14*
G54D12*
G01X1500Y14500D03*
G01X1500Y15500D03*
G01X1500Y16500D03*
G01X1500Y17500D03*
G54D11*
G01X3000Y9800D03*
G54D12*
G01X3000Y10800D03*
G54D16*
G01X3000Y10300D03*
G54D15*
G01X7700Y10400D03*
G01X7700Y11300D03*
G01X9800Y10000D03*
G01X9800Y9100D03*
G54D17*
G01X4700Y6800D03*
G01X2800Y6800D03*
G54D15*
G01X7700Y8700D03*
G01X7700Y9600D03*
G01X13600Y7500D03*
G01X14500Y7500D03*
G54D18*
G01X20900Y15950D03*
G01X16100Y15950D03*
G54D19*
G01X18010Y14100D03*
G54D20*
G01X18990Y14100D03*
G01X18990Y14890D03*
G54D21*
G01X18010Y14890D03*
G54D14*
G54D11*
G01X13900Y12900D03*
G54D12*
G01X13900Y13900D03*
G01X13900Y14900D03*
G54D13*
G01X13900Y15900D03*
G54D14*
G54D12*
G01X13900Y16900D03*
G01X13900Y17900D03*
G54D15*
G01X34000Y8700D03*
G01X34000Y9600D03*
G54D22*
G01X35000Y6000D03*
G54D14*
G54D23*
G01X35000Y8000D03*
G54D14*
G54D24*
G01X32500Y6000D03*
G54D23*
G01X32500Y11000D03*
G54D14*
G54D25*
G01X27100Y11700D03*
G54D14*
G54D13*
G01X27100Y12700D03*
G54D14*
G54D25*
G01X27900Y17000D03*
G54D14*
G54D13*
G01X27900Y18000D03*
G54D14*
G36*
G01X27900Y17425D02*
G01X27849Y17430D01*
G01X27950Y17430D01*
G01X27900Y17425D01*
G37*
G01X27900Y17425D02*
G01X27849Y17430D01*
G01X27950Y17430D01*
G01X27900Y17425D01*
G36*
G01X27900Y17425D02*
G01X27849Y17430D01*
G01X27950Y17430D01*
G01X27900Y17425D01*
G37*
G01X27900Y17425D02*
G01X27849Y17430D01*
G01X27950Y17430D01*
G01X27900Y17425D01*
G54D22*
G01X36000Y13000D03*
G54D14*
G54D26*
G01X36000Y18000D03*
G54D22*
G01X35000Y12100D03*
G54D14*
G54D23*
G01X35000Y10100D03*
G54D14*
G54D15*
G01X34000Y11500D03*
G01X34000Y10600D03*
G01X30000Y15900D03*
G01X29100Y15900D03*
G54D27*
G01X24700Y14600D03*
G54D28*
G01X24700Y17000D03*
G54D14*
G54D29*
G01X22800Y15800D03*
G54D11*
G01X24900Y10300D03*
G54D13*
G01X24900Y11300D03*
G54D14*
G54D11*
G01X25000Y4000D03*
G54D13*
G01X24000Y4000D03*
G54D14*
G54D24*
G01X19900Y12800D03*
G54D26*
G01X24900Y12800D03*
G54D11*
G01X24900Y8400D03*
G54D13*
G01X24900Y7400D03*
G54D14*
G54D12*
G01X24900Y6400D03*

G04 Draw clearances for traces*
G54D30*
G01X6550Y8170D03*
G01X21090Y8170D03*
G01X14250Y8750D03*
G01X15740Y8750D03*
G54D31*
G01X14250Y8750D02*
G01X15740Y8750D01*
G54D30*
G01X14250Y9430D03*
G01X15650Y9430D03*
G54D31*
G01X14250Y9430D02*
G01X15650Y9430D01*
G54D30*
G01X19100Y11160D03*
G01X9080Y11160D03*
G01X14250Y10110D03*
G01X15220Y10110D03*
G54D31*
G01X14250Y10110D02*
G01X15220Y10110D01*
G01X7700Y8700D02*
G01X8080Y8700D01*
G01X8080Y8700D02*
G01X8300Y8920D01*
G54D30*
G01X9100Y8920D03*
G54D31*
G01X8300Y8920D02*
G01X9100Y8920D01*
G54D30*
G01X10890Y17570D03*
G54D31*
G01X10890Y17570D02*
G01X11350Y17570D01*
G01X11350Y17570D02*
G01X11590Y17330D01*
G01X11590Y17330D02*
G01X11590Y14040D01*
G01X11590Y14040D02*
G01X10600Y13050D01*
G01X10600Y13050D02*
G01X10600Y10220D01*
G01X10600Y10220D02*
G01X10870Y9730D01*
G01X10870Y9730D02*
G01X11290Y9370D01*
G54D30*
G01X11290Y8900D03*
G54D31*
G01X11290Y9370D02*
G01X11290Y8900D01*
G54D30*
G01X6760Y12730D03*
G01X18900Y11920D03*
G01X18010Y10580D03*
G54D31*
G01X18010Y10580D02*
G01X16210Y10580D01*
G54D30*
G01X16220Y10570D03*
G54D31*
G01X16210Y10580D02*
G01X16220Y10570D01*
G54D30*
G01X12020Y6620D03*
G54D31*
G01X12020Y6620D02*
G01X11320Y6630D01*
G01X11320Y6630D02*
G01X10420Y7530D01*
G01X10420Y7530D02*
G01X6430Y7530D01*
G01X6430Y7530D02*
G01X5550Y8400D01*
G01X5550Y8400D02*
G01X5550Y10990D01*
G54D30*
G01X6010Y11450D03*
G54D31*
G01X5550Y10990D02*
G01X6010Y11450D01*
G01X13900Y12900D02*
G01X13910Y12910D01*
G01X13910Y12910D02*
G01X11810Y12910D01*
G01X11810Y12910D02*
G01X10910Y12020D01*
G01X10910Y12020D02*
G01X10910Y10270D01*
G01X10910Y10270D02*
G01X11160Y9890D01*
G01X11160Y9890D02*
G01X11830Y9330D01*
G01X11830Y9330D02*
G01X11830Y7710D01*
G54D30*
G01X12090Y7460D03*
G54D31*
G01X11830Y7710D02*
G01X12090Y7460D01*
G54D14*
G54D31*
G01X26000Y1500D02*
G01X26000Y1490D01*
G54D30*
G01X26000Y1490D02*
G01X26000Y3740D01*
G01X26000Y3740D02*
G01X27080Y4840D01*
G54D14*
G36*
G01X27461Y4737D02*
G01X27393Y4599D01*
G01X27277Y4497D01*
G01X27131Y4448D01*
G01X27098Y4450D01*
G01X27330Y4690D01*
G01X27660Y5910D01*
G01X27819Y6069D01*
G01X27461Y4737D01*
G37*
G01X27461Y4737D02*
G01X27393Y4599D01*
G01X27277Y4497D01*
G01X27131Y4448D01*
G01X27098Y4450D01*
G01X27330Y4690D01*
G01X27660Y5910D01*
G01X27819Y6069D01*
G01X27461Y4737D01*
G36*
G01X27461Y4737D02*
G01X27393Y4599D01*
G01X27277Y4497D01*
G01X27131Y4448D01*
G01X27098Y4450D01*
G01X27330Y4690D01*
G01X27660Y5910D01*
G01X27819Y6069D01*
G01X27461Y4737D01*
G37*
G01X27461Y4737D02*
G01X27393Y4599D01*
G01X27277Y4497D01*
G01X27131Y4448D01*
G01X27098Y4450D01*
G01X27330Y4690D01*
G01X27660Y5910D01*
G01X27819Y6069D01*
G01X27461Y4737D01*
G54D32*
G01X30320Y12200D03*
G54D14*
G54D32*
G01X29980Y11160D03*
G54D14*
G54D32*
G01X29980Y11160D03*
G54D14*
G54D31*
G01X5200Y11600D02*
G01X5200Y8260D01*
G01X5200Y8260D02*
G01X6280Y7180D01*
G01X6280Y7180D02*
G01X10260Y7180D01*
G01X10260Y7180D02*
G01X11000Y6430D01*
G01X11000Y6430D02*
G01X11000Y1500D01*
G01X7700Y10400D02*
G01X7860Y10390D01*
G54D30*
G01X8960Y10390D03*
G54D33*
G01X7860Y10390D02*
G01X8960Y10390D01*
G54D30*
G01X9680Y10780D03*
G54D31*
G01X9680Y10780D02*
G01X9800Y10460D01*
G01X9800Y10460D02*
G01X9800Y10000D01*
G54D30*
G01X9680Y10780D03*
G54D31*
G01X9680Y10780D02*
G01X9800Y10460D01*
G01X9800Y10460D02*
G01X9800Y10000D01*
G01X7700Y10400D02*
G01X7710Y10380D01*
G01X7710Y10380D02*
G01X7870Y10390D01*
G54D30*
G01X8960Y10390D03*
G54D31*
G01X7870Y10390D02*
G01X8960Y10390D01*
G54D30*
G01X3000Y10800D02*
G01X3000Y12090D01*
G01X3000Y12090D02*
G01X2590Y12500D01*
G01X2590Y12500D02*
G01X1500Y12500D01*
G01X12500Y14400D03*
G01X14890Y14400D03*
G01X11070Y16900D03*
G54D31*
G01X11070Y16900D02*
G01X11210Y16530D01*
G01X11210Y16530D02*
G01X11220Y14200D01*
G01X11220Y14200D02*
G01X10300Y13310D01*
G01X10300Y13310D02*
G01X10300Y10050D01*
G54D30*
G01X10700Y9230D03*
G54D31*
G01X10300Y10050D02*
G01X10700Y9230D01*
G54D14*
G54D32*
G01X28010Y12350D03*
G54D14*
G54D32*
G01X26290Y5240D03*
G54D14*
G54D32*
G01X20000Y4120D03*
G54D14*
G54D32*
G01X18600Y4110D03*
G54D14*
G54D30*
G01X24900Y6400D02*
G01X24900Y5510D01*
G01X24900Y5510D02*
G01X25000Y5410D01*
G01X25000Y5410D02*
G01X25000Y4000D01*
G54D31*
G01X25000Y4000D02*
G01X25000Y4030D01*
G54D30*
G01X25000Y4030D02*
G01X25000Y1500D01*
G54D31*
G01X24900Y6400D02*
G01X24910Y6400D01*
G54D14*
G36*
G01X25061Y6764D02*
G01X25189Y6679D01*
G01X25250Y6588D01*
G01X25250Y6250D01*
G01X25250Y6211D01*
G01X25189Y6120D01*
G01X25061Y6035D01*
G01X24910Y6005D01*
G01X24190Y6005D01*
G01X24190Y6780D01*
G01X24175Y6795D01*
G01X24909Y6795D01*
G01X25061Y6764D01*
G37*
G01X25061Y6764D02*
G01X25189Y6679D01*
G01X25250Y6588D01*
G01X25250Y6250D01*
G01X25250Y6211D01*
G01X25189Y6120D01*
G01X25061Y6035D01*
G01X24910Y6005D01*
G01X24190Y6005D01*
G01X24190Y6780D01*
G01X24175Y6795D01*
G01X24909Y6795D01*
G01X25061Y6764D01*
G36*
G01X25061Y6764D02*
G01X25189Y6679D01*
G01X25250Y6588D01*
G01X25250Y6250D01*
G01X25250Y6211D01*
G01X25189Y6120D01*
G01X25061Y6035D01*
G01X24910Y6005D01*
G01X24190Y6005D01*
G01X24190Y6780D01*
G01X24175Y6795D01*
G01X24909Y6795D01*
G01X25061Y6764D01*
G37*
G01X25061Y6764D02*
G01X25189Y6679D01*
G01X25250Y6588D01*
G01X25250Y6250D01*
G01X25250Y6211D01*
G01X25189Y6120D01*
G01X25061Y6035D01*
G01X24910Y6005D01*
G01X24190Y6005D01*
G01X24190Y6780D01*
G01X24175Y6795D01*
G01X24909Y6795D01*
G01X25061Y6764D01*
G54D32*
G01X22900Y7350D03*
G54D14*
G36*
G01X25250Y6250D02*
G01X25250Y6005D01*
G01X24900Y6005D01*
G01X24748Y6035D01*
G01X24620Y6120D01*
G01X24535Y6248D01*
G01X24505Y6399D01*
G01X24535Y6551D01*
G01X24620Y6679D01*
G01X24748Y6764D01*
G01X24899Y6795D01*
G01X25250Y6795D01*
G01X25250Y6250D01*
G37*
G01X25250Y6250D02*
G01X25250Y6005D01*
G01X24900Y6005D01*
G01X24748Y6035D01*
G01X24620Y6120D01*
G01X24535Y6248D01*
G01X24505Y6399D01*
G01X24535Y6551D01*
G01X24620Y6679D01*
G01X24748Y6764D01*
G01X24899Y6795D01*
G01X25250Y6795D01*
G01X25250Y6250D01*
G36*
G01X25250Y6250D02*
G01X25250Y6005D01*
G01X24900Y6005D01*
G01X24748Y6035D01*
G01X24620Y6120D01*
G01X24535Y6248D01*
G01X24505Y6399D01*
G01X24535Y6551D01*
G01X24620Y6679D01*
G01X24748Y6764D01*
G01X24899Y6795D01*
G01X25250Y6795D01*
G01X25250Y6250D01*
G37*
G01X25250Y6250D02*
G01X25250Y6005D01*
G01X24900Y6005D01*
G01X24748Y6035D01*
G01X24620Y6120D01*
G01X24535Y6248D01*
G01X24505Y6399D01*
G01X24535Y6551D01*
G01X24620Y6679D01*
G01X24748Y6764D01*
G01X24899Y6795D01*
G01X25250Y6795D01*
G01X25250Y6250D01*
G36*
G01X25250Y6250D02*
G01X25250Y6154D01*
G01X25192Y6232D01*
G01X25155Y6381D01*
G01X25178Y6534D01*
G01X25250Y6652D01*
G01X25250Y6250D01*
G37*
G01X25250Y6250D02*
G01X25250Y6154D01*
G01X25192Y6232D01*
G01X25155Y6381D01*
G01X25178Y6534D01*
G01X25250Y6652D01*
G01X25250Y6250D01*
G36*
G01X25250Y6250D02*
G01X25250Y6154D01*
G01X25192Y6232D01*
G01X25155Y6381D01*
G01X25178Y6534D01*
G01X25250Y6652D01*
G01X25250Y6250D01*
G37*
G01X25250Y6250D02*
G01X25250Y6154D01*
G01X25192Y6232D01*
G01X25155Y6381D01*
G01X25178Y6534D01*
G01X25250Y6652D01*
G01X25250Y6250D01*
G54D32*
G01X26300Y8810D03*
G54D14*
G54D32*
G01X22900Y7360D03*
G54D14*
G54D32*
G01X20000Y4120D03*
G54D14*
G54D31*
G01X13900Y14900D02*
G01X13900Y14910D01*
G54D33*
G01X13900Y14910D02*
G01X13110Y14910D01*
G01X13110Y14910D02*
G01X12270Y15750D01*
G01X12270Y15750D02*
G01X12270Y17360D01*
G01X12270Y17360D02*
G01X11470Y18160D01*
G01X11470Y18160D02*
G01X10300Y18160D01*
G01X10300Y18160D02*
G01X9900Y17760D01*
G54D30*
G01X9900Y17280D03*
G54D33*
G01X9900Y17760D02*
G01X9900Y17280D01*
G54D30*
G01X3000Y9800D02*
G01X3620Y9800D01*
G01X3620Y9800D02*
G01X3870Y10060D01*
G01X3870Y10060D02*
G01X3870Y12730D01*
G01X3870Y12730D02*
G01X4600Y13460D01*
G01X4600Y14100D03*
G01X4600Y13460D02*
G01X4600Y14100D01*
G01X13300Y8270D03*
G54D31*
G01X13300Y8270D02*
G01X13600Y7970D01*
G01X13600Y7970D02*
G01X13600Y7500D01*
G54D30*
G01X13300Y8270D03*
G54D31*
G01X13300Y8270D02*
G01X13600Y7970D01*
G01X13600Y7970D02*
G01X13600Y7500D01*
G54D34*
G01X13900Y14900D02*
G01X15180Y14900D01*
G01X15180Y14900D02*
G01X15510Y14570D01*
G54D33*
G01X15510Y14570D02*
G01X16060Y14020D01*
G01X16060Y14020D02*
G01X16060Y12770D01*
G01X16060Y12770D02*
G01X15850Y12560D01*
G54D30*
G01X15850Y12560D02*
G01X14930Y11650D01*
G01X14930Y11650D02*
G01X13630Y11650D01*
G01X13630Y11650D02*
G01X13290Y11300D01*
G01X13290Y11300D02*
G01X13300Y8270D01*
G54D31*
G01X13300Y8270D02*
G01X13600Y7970D01*
G01X13600Y7970D02*
G01X13600Y7500D01*
G54D32*
G01X17880Y8260D03*
G54D14*
G54D32*
G01X18600Y4110D03*
G54D14*
G54D30*
G01X13300Y8270D03*
G54D32*
G01X17880Y8260D03*
G54D14*
G54D30*
G01X9590Y14600D03*
G54D31*
G01X9590Y14600D02*
G01X9040Y15150D01*
G01X9040Y15150D02*
G01X2980Y15150D01*
G01X2980Y15150D02*
G01X2330Y14500D01*
G01X2330Y14500D02*
G01X1500Y14500D01*
G01X18990Y14100D02*
G01X19500Y14100D01*
G01X19500Y14100D02*
G01X19640Y14250D01*
G01X19640Y14250D02*
G01X19640Y15150D01*
G01X19640Y15150D02*
G01X17390Y17400D01*
G01X17390Y17400D02*
G01X15270Y17400D01*
G01X15270Y17400D02*
G01X14770Y16900D01*
G01X14770Y16900D02*
G01X13900Y16900D01*
G54D30*
G01X6010Y12500D03*
G54D31*
G01X5200Y12500D02*
G01X6010Y12500D01*
G01X30000Y15900D02*
G01X30000Y15890D01*
G54D30*
G01X30000Y16970D03*
G54D31*
G01X30000Y15890D02*
G01X30000Y16970D01*
G54D14*
G54D32*
G01X8420Y16700D03*
G54D14*
G54D32*
G01X6600Y16170D03*
G54D14*
G54D32*
G01X4580Y12500D03*
G54D14*
G54D32*
G01X8660Y9700D03*
G54D14*
G54D32*
G01X12770Y7450D03*
G54D14*
G54D32*
G01X11420Y10370D03*
G54D14*
G54D32*
G01X8660Y9700D03*
G54D14*
G54D32*
G01X17020Y7450D03*
G54D14*
G54D32*
G01X12770Y7450D03*
G54D14*
G54D32*
G01X12730Y4100D03*
G54D14*
G54D32*
G01X15000Y3230D03*
G54D14*
G54D32*
G01X17020Y4100D03*
G54D14*
G54D32*
G01X16660Y13520D03*
G54D14*
G54D32*
G01X30790Y17170D03*
G54D14*
G54D32*
G01X28110Y13360D03*
G54D14*
G36*
G01X28479Y13206D02*
G01X28442Y13137D01*
G01X28392Y13077D01*
G01X28332Y13027D01*
G01X28263Y12990D01*
G01X28253Y12987D01*
G01X28481Y13212D01*
G01X28479Y13206D01*
G37*
G01X28479Y13206D02*
G01X28442Y13137D01*
G01X28392Y13077D01*
G01X28332Y13027D01*
G01X28263Y12990D01*
G01X28253Y12987D01*
G01X28481Y13212D01*
G01X28479Y13206D01*
G36*
G01X28479Y13206D02*
G01X28442Y13137D01*
G01X28392Y13077D01*
G01X28332Y13027D01*
G01X28263Y12990D01*
G01X28253Y12987D01*
G01X28481Y13212D01*
G01X28479Y13206D01*
G37*
G01X28479Y13206D02*
G01X28442Y13137D01*
G01X28392Y13077D01*
G01X28332Y13027D01*
G01X28263Y12990D01*
G01X28253Y12987D01*
G01X28481Y13212D01*
G01X28479Y13206D01*
G54D32*
G01X4100Y8400D03*
G54D14*
G54D32*
G01X8660Y9700D03*
G54D14*
G54D32*
G01X31400Y12420D03*
G54D14*
G54D32*
G01X12770Y7450D03*
G54D14*
G54D30*
G01X12770Y6640D03*
G01X5810Y6650D03*
G54D31*
G01X5810Y6650D02*
G01X5810Y7140D01*
G01X5810Y7140D02*
G01X4830Y8110D01*
G01X4830Y8110D02*
G01X4830Y10870D01*
G01X4830Y10870D02*
G01X4580Y11120D01*
G54D30*
G01X4580Y11610D03*
G54D31*
G01X4580Y11120D02*
G01X4580Y11610D01*
G01X13900Y13900D02*
G01X13880Y13900D01*
G01X13880Y13900D02*
G01X14470Y13890D01*
G01X14470Y13890D02*
G01X14700Y13650D01*
G01X14700Y13650D02*
G01X14690Y12440D01*
G01X14690Y12440D02*
G01X14430Y12180D01*
G01X14430Y12180D02*
G01X12630Y12180D01*
G01X12630Y12180D02*
G01X12330Y11870D01*
G54D30*
G01X12330Y8160D03*
G54D31*
G01X12330Y11870D02*
G01X12330Y8160D01*
G54D30*
G01X14020Y11010D03*
G54D31*
G01X14020Y11010D02*
G01X14310Y10720D01*
G01X14310Y10720D02*
G01X15340Y10730D01*
G01X15340Y10730D02*
G01X16310Y9760D01*
G01X16310Y9760D02*
G01X16310Y8470D01*
G01X16310Y8470D02*
G01X15430Y7590D01*
G01X15430Y7590D02*
G01X15440Y4450D01*
G01X15440Y4450D02*
G01X14000Y3010D01*
G01X14000Y3010D02*
G01X14000Y1500D01*
G54D30*
G01X15490Y13420D03*
G01X3600Y13420D03*
G01X6380Y6000D03*
G01X22990Y6000D03*
G54D31*
G01X1500Y15500D02*
G01X9450Y15500D01*
G01X9450Y15500D02*
G01X10090Y14860D01*
G54D30*
G01X10340Y14600D03*
G54D31*
G01X10090Y14860D02*
G01X10340Y14600D01*
G54D30*
G01X3010Y14070D03*
G54D31*
G01X3010Y14070D02*
G01X3720Y14780D01*
G01X3720Y14780D02*
G01X8470Y14780D01*
G54D30*
G01X8900Y14600D03*
G54D31*
G01X8470Y14780D02*
G01X8900Y14600D01*
G54D30*
G01X18180Y11790D03*
G01X9740Y11790D03*

G04 Draw clearances for text*
G54D35*
G01X31654Y16936D02*
G01X31300Y16936D01*
G01X31300Y16936D02*
G01X31300Y16995D01*
G01X31300Y16995D02*
G01X31329Y17054D01*
G01X31329Y17054D02*
G01X31359Y17084D01*
G01X31359Y17084D02*
G01X31418Y17113D01*
G01X31418Y17113D02*
G01X31506Y17113D01*
G01X31506Y17113D02*
G01X31565Y17084D01*
G01X31565Y17084D02*
G01X31625Y17025D01*
G01X31625Y17025D02*
G01X31654Y16936D01*
G01X31654Y16936D02*
G01X31654Y16877D01*
G01X31654Y16877D02*
G01X31625Y16788D01*
G01X31625Y16788D02*
G01X31565Y16729D01*
G01X31565Y16729D02*
G01X31506Y16700D01*
G01X31506Y16700D02*
G01X31418Y16700D01*
G01X31418Y16700D02*
G01X31359Y16729D01*
G01X31359Y16729D02*
G01X31300Y16788D01*
G01X32245Y17113D02*
G01X32245Y16493D01*
G01X32245Y17025D02*
G01X32186Y17084D01*
G01X32186Y17084D02*
G01X32127Y17113D01*
G01X32127Y17113D02*
G01X32038Y17113D01*
G01X32038Y17113D02*
G01X31979Y17084D01*
G01X31979Y17084D02*
G01X31920Y17025D01*
G01X31920Y17025D02*
G01X31890Y16936D01*
G01X31890Y16936D02*
G01X31890Y16877D01*
G01X31890Y16877D02*
G01X31920Y16788D01*
G01X31920Y16788D02*
G01X31979Y16729D01*
G01X31979Y16729D02*
G01X32038Y16700D01*
G01X32038Y16700D02*
G01X32127Y16700D01*
G01X32127Y16700D02*
G01X32186Y16729D01*
G01X32186Y16729D02*
G01X32245Y16788D01*
G01X32718Y17113D02*
G01X32777Y17084D01*
G01X32777Y17084D02*
G01X32836Y17025D01*
G01X32836Y17025D02*
G01X32865Y16936D01*
G01X32865Y16936D02*
G01X32865Y16877D01*
G01X32865Y16877D02*
G01X32836Y16788D01*
G01X32836Y16788D02*
G01X32777Y16729D01*
G01X32777Y16729D02*
G01X32718Y16700D01*
G01X32718Y16700D02*
G01X32629Y16700D01*
G01X32629Y16700D02*
G01X32570Y16729D01*
G01X32570Y16729D02*
G01X32511Y16788D01*
G01X32511Y16788D02*
G01X32481Y16877D01*
G01X32481Y16877D02*
G01X32481Y16936D01*
G01X32481Y16936D02*
G01X32511Y17025D01*
G01X32511Y17025D02*
G01X32570Y17084D01*
G01X32570Y17084D02*
G01X32629Y17113D01*
G01X32629Y17113D02*
G01X32718Y17113D01*
G01X33102Y17025D02*
G01X33161Y17084D01*
G01X33161Y17084D02*
G01X33220Y17113D01*
G01X33220Y17113D02*
G01X33309Y17113D01*
G01X33309Y17113D02*
G01X33368Y17084D01*
G01X33368Y17084D02*
G01X33427Y17025D01*
G01X33427Y17025D02*
G01X33456Y16936D01*
G01X33456Y16936D02*
G01X33456Y16877D01*
G01X33456Y16877D02*
G01X33427Y16788D01*
G01X33427Y16788D02*
G01X33368Y16729D01*
G01X33368Y16729D02*
G01X33309Y16700D01*
G01X33309Y16700D02*
G01X33220Y16700D01*
G01X33220Y16700D02*
G01X33161Y16729D01*
G01X33161Y16729D02*
G01X33102Y16788D01*
G01X33693Y17025D02*
G01X33722Y17084D01*
G01X33722Y17084D02*
G01X33811Y17113D01*
G01X33811Y17113D02*
G01X33899Y17113D01*
G01X33899Y17113D02*
G01X33988Y17084D01*
G01X33988Y17084D02*
G01X34018Y17025D01*
G01X34018Y17025D02*
G01X33988Y16965D01*
G01X33988Y16965D02*
G01X33929Y16936D01*
G01X33929Y16936D02*
G01X33781Y16906D01*
G01X33781Y16906D02*
G01X33722Y16877D01*
G01X33722Y16877D02*
G01X33693Y16818D01*
G01X33693Y16818D02*
G01X33693Y16788D01*
G01X33693Y16788D02*
G01X33722Y16729D01*
G01X33722Y16729D02*
G01X33811Y16700D01*
G01X33811Y16700D02*
G01X33899Y16700D01*
G01X33899Y16700D02*
G01X33988Y16729D01*
G01X33988Y16729D02*
G01X34018Y16788D01*
G01X34549Y17320D02*
G01X34609Y17290D01*
G01X34609Y17290D02*
G01X34668Y17231D01*
G01X34668Y17231D02*
G01X34697Y17172D01*
G01X34697Y17172D02*
G01X34727Y17084D01*
G01X34727Y17084D02*
G01X34727Y16936D01*
G01X34727Y16936D02*
G01X34697Y16847D01*
G01X34697Y16847D02*
G01X34668Y16788D01*
G01X34668Y16788D02*
G01X34609Y16729D01*
G01X34609Y16729D02*
G01X34549Y16700D01*
G01X34549Y16700D02*
G01X34431Y16700D01*
G01X34431Y16700D02*
G01X34372Y16729D01*
G01X34372Y16729D02*
G01X34313Y16788D01*
G01X34313Y16788D02*
G01X34284Y16847D01*
G01X34284Y16847D02*
G01X34254Y16936D01*
G01X34254Y16936D02*
G01X34254Y17084D01*
G01X34254Y17084D02*
G01X34284Y17172D01*
G01X34284Y17172D02*
G01X34313Y17231D01*
G01X34313Y17231D02*
G01X34372Y17290D01*
G01X34372Y17290D02*
G01X34431Y17320D01*
G01X34431Y17320D02*
G01X34549Y17320D01*
G01X34963Y17231D02*
G01X35022Y17290D01*
G01X35022Y17290D02*
G01X35111Y17320D01*
G01X35111Y17320D02*
G01X35229Y17320D01*
G01X35229Y17320D02*
G01X35318Y17290D01*
G01X35318Y17290D02*
G01X35377Y17231D01*
G01X35377Y17231D02*
G01X35377Y17172D01*
G01X35377Y17172D02*
G01X35347Y17113D01*
G01X35347Y17113D02*
G01X35318Y17084D01*
G01X35318Y17084D02*
G01X35259Y17054D01*
G01X35259Y17054D02*
G01X35081Y16995D01*
G01X35081Y16995D02*
G01X35022Y16965D01*
G01X35022Y16965D02*
G01X34993Y16936D01*
G01X34993Y16936D02*
G01X34963Y16877D01*
G01X34963Y16877D02*
G01X34963Y16788D01*
G01X34963Y16788D02*
G01X35022Y16729D01*
G01X35022Y16729D02*
G01X35111Y16700D01*
G01X35111Y16700D02*
G01X35229Y16700D01*
G01X35229Y16700D02*
G01X35318Y16729D01*
G01X35318Y16729D02*
G01X35377Y16788D01*
G01X36027Y17320D02*
G01X36027Y16700D01*
G01X36027Y17320D02*
G01X35820Y17320D01*
G01X35820Y17320D02*
G01X35731Y17290D01*
G01X35731Y17290D02*
G01X35672Y17231D01*
G01X35672Y17231D02*
G01X35643Y17172D01*
G01X35643Y17172D02*
G01X35613Y17084D01*
G01X35613Y17084D02*
G01X35613Y16936D01*
G01X35613Y16936D02*
G01X35643Y16847D01*
G01X35643Y16847D02*
G01X35672Y16788D01*
G01X35672Y16788D02*
G01X35731Y16729D01*
G01X35731Y16729D02*
G01X35820Y16700D01*
G01X35820Y16700D02*
G01X36027Y16700D01*
G01X30900Y16320D02*
G01X30900Y15700D01*
G01X30900Y16025D02*
G01X30959Y16084D01*
G01X30959Y16084D02*
G01X31018Y16113D01*
G01X31018Y16113D02*
G01X31106Y16113D01*
G01X31106Y16113D02*
G01X31165Y16084D01*
G01X31165Y16084D02*
G01X31225Y16025D01*
G01X31225Y16025D02*
G01X31254Y15936D01*
G01X31254Y15936D02*
G01X31254Y15877D01*
G01X31254Y15877D02*
G01X31225Y15788D01*
G01X31225Y15788D02*
G01X31165Y15729D01*
G01X31165Y15729D02*
G01X31106Y15700D01*
G01X31106Y15700D02*
G01X31018Y15700D01*
G01X31018Y15700D02*
G01X30959Y15729D01*
G01X30959Y15729D02*
G01X30900Y15788D01*
G01X31727Y16113D02*
G01X31727Y15700D01*
G01X31727Y15936D02*
G01X31697Y16025D01*
G01X31697Y16025D02*
G01X31638Y16084D01*
G01X31638Y16084D02*
G01X31579Y16113D01*
G01X31579Y16113D02*
G01X31490Y16113D01*
G01X31963Y16113D02*
G01X31963Y15700D01*
G01X31963Y16025D02*
G01X32022Y16084D01*
G01X32022Y16084D02*
G01X32081Y16113D01*
G01X32081Y16113D02*
G01X32170Y16113D01*
G01X32170Y16113D02*
G01X32229Y16084D01*
G01X32229Y16084D02*
G01X32288Y16025D01*
G01X32288Y16025D02*
G01X32318Y15936D01*
G01X32318Y15936D02*
G01X32318Y15877D01*
G01X32318Y15877D02*
G01X32288Y15788D01*
G01X32288Y15788D02*
G01X32229Y15729D01*
G01X32229Y15729D02*
G01X32170Y15700D01*
G01X32170Y15700D02*
G01X32081Y15700D01*
G01X32081Y15700D02*
G01X32022Y15729D01*
G01X32022Y15729D02*
G01X31963Y15788D01*
G01X32790Y16113D02*
G01X32849Y16084D01*
G01X32849Y16084D02*
G01X32909Y16025D01*
G01X32909Y16025D02*
G01X32938Y15936D01*
G01X32938Y15936D02*
G01X32938Y15877D01*
G01X32938Y15877D02*
G01X32909Y15788D01*
G01X32909Y15788D02*
G01X32849Y15729D01*
G01X32849Y15729D02*
G01X32790Y15700D01*
G01X32790Y15700D02*
G01X32702Y15700D01*
G01X32702Y15700D02*
G01X32643Y15729D01*
G01X32643Y15729D02*
G01X32584Y15788D01*
G01X32584Y15788D02*
G01X32554Y15877D01*
G01X32554Y15877D02*
G01X32554Y15936D01*
G01X32554Y15936D02*
G01X32584Y16025D01*
G01X32584Y16025D02*
G01X32643Y16084D01*
G01X32643Y16084D02*
G01X32702Y16113D01*
G01X32702Y16113D02*
G01X32790Y16113D01*
G01X33588Y16320D02*
G01X33588Y15700D01*
G01X33588Y16320D02*
G01X33322Y16320D01*
G01X33322Y16320D02*
G01X33234Y16290D01*
G01X33234Y16290D02*
G01X33204Y16261D01*
G01X33204Y16261D02*
G01X33175Y16202D01*
G01X33175Y16202D02*
G01X33175Y16143D01*
G01X33175Y16143D02*
G01X33204Y16084D01*
G01X33204Y16084D02*
G01X33234Y16054D01*
G01X33234Y16054D02*
G01X33322Y16025D01*
G01X33588Y16025D02*
G01X33322Y16025D01*
G01X33322Y16025D02*
G01X33234Y15995D01*
G01X33234Y15995D02*
G01X33204Y15965D01*
G01X33204Y15965D02*
G01X33175Y15906D01*
G01X33175Y15906D02*
G01X33175Y15818D01*
G01X33175Y15818D02*
G01X33204Y15759D01*
G01X33204Y15759D02*
G01X33234Y15729D01*
G01X33234Y15729D02*
G01X33322Y15700D01*
G01X33322Y15700D02*
G01X33588Y15700D01*
G01X34711Y16320D02*
G01X34711Y15877D01*
G01X34711Y15877D02*
G01X34681Y15788D01*
G01X34681Y15788D02*
G01X34622Y15729D01*
G01X34622Y15729D02*
G01X34534Y15700D01*
G01X34534Y15700D02*
G01X34474Y15700D01*
G01X34474Y15700D02*
G01X34386Y15729D01*
G01X34386Y15729D02*
G01X34327Y15788D01*
G01X34327Y15788D02*
G01X34297Y15877D01*
G01X34297Y15877D02*
G01X34297Y16320D01*
G01X35361Y16320D02*
G01X35361Y15700D01*
G01X35361Y16320D02*
G01X35095Y16320D01*
G01X35095Y16320D02*
G01X35006Y16290D01*
G01X35006Y16290D02*
G01X34977Y16261D01*
G01X34977Y16261D02*
G01X34947Y16202D01*
G01X34947Y16202D02*
G01X34947Y16113D01*
G01X34947Y16113D02*
G01X34977Y16054D01*
G01X34977Y16054D02*
G01X35006Y16025D01*
G01X35006Y16025D02*
G01X35095Y15995D01*
G01X35095Y15995D02*
G01X35361Y15995D01*
G01X35597Y16172D02*
G01X35627Y16231D01*
G01X35627Y16231D02*
G01X35686Y16290D01*
G01X35686Y16290D02*
G01X35745Y16320D01*
G01X35745Y16320D02*
G01X35863Y16320D01*
G01X35863Y16320D02*
G01X35922Y16290D01*
G01X35922Y16290D02*
G01X35981Y16231D01*
G01X35981Y16231D02*
G01X36011Y16172D01*
G01X36011Y16172D02*
G01X36040Y16084D01*
G01X36040Y16084D02*
G01X36040Y15936D01*
G01X36040Y15936D02*
G01X36011Y15847D01*
G01X36011Y15847D02*
G01X35981Y15788D01*
G01X35981Y15788D02*
G01X35922Y15729D01*
G01X35922Y15729D02*
G01X35863Y15700D01*
G01X35863Y15700D02*
G01X35745Y15700D01*
G01X35745Y15700D02*
G01X35686Y15729D01*
G01X35686Y15729D02*
G01X35627Y15788D01*
G01X35627Y15788D02*
G01X35597Y15847D01*
G01X32247Y15302D02*
G01X32188Y15331D01*
G01X32188Y15331D02*
G01X32100Y15420D01*
G01X32100Y15420D02*
G01X32100Y14800D01*
G01X32720Y15420D02*
G01X32809Y15390D01*
G01X32809Y15390D02*
G01X32868Y15302D01*
G01X32868Y15302D02*
G01X32897Y15154D01*
G01X32897Y15154D02*
G01X32897Y15065D01*
G01X32897Y15065D02*
G01X32868Y14918D01*
G01X32868Y14918D02*
G01X32809Y14829D01*
G01X32809Y14829D02*
G01X32720Y14800D01*
G01X32720Y14800D02*
G01X32661Y14800D01*
G01X32661Y14800D02*
G01X32572Y14829D01*
G01X32572Y14829D02*
G01X32513Y14918D01*
G01X32513Y14918D02*
G01X32484Y15065D01*
G01X32484Y15065D02*
G01X32484Y15154D01*
G01X32484Y15154D02*
G01X32513Y15302D01*
G01X32513Y15302D02*
G01X32572Y15390D01*
G01X32572Y15390D02*
G01X32661Y15420D01*
G01X32661Y15420D02*
G01X32720Y15420D01*
G01X33370Y15420D02*
G01X33606Y14800D01*
G01X33370Y15420D02*
G01X33134Y14800D01*
G01X33518Y15006D02*
G01X33222Y15006D01*
G01X34788Y15420D02*
G01X34552Y14800D01*
G01X34315Y15420D02*
G01X34552Y14800D01*
G01X35409Y15420D02*
G01X35409Y14800D01*
G01X35409Y15420D02*
G01X35025Y15420D01*
G01X35409Y15125D02*
G01X35172Y15125D01*
G01X35409Y14800D02*
G01X35025Y14800D01*
G01X36059Y15420D02*
G01X36059Y14800D01*
G01X36059Y15420D02*
G01X35793Y15420D01*
G01X35793Y15420D02*
G01X35704Y15390D01*
G01X35704Y15390D02*
G01X35674Y15361D01*
G01X35674Y15361D02*
G01X35645Y15302D01*
G01X35645Y15302D02*
G01X35645Y15243D01*
G01X35645Y15243D02*
G01X35674Y15184D01*
G01X35674Y15184D02*
G01X35704Y15154D01*
G01X35704Y15154D02*
G01X35793Y15125D01*
G01X35793Y15125D02*
G01X36059Y15125D01*
G01X35852Y15125D02*
G01X35645Y14800D01*
G01X3472Y18020D02*
G01X3236Y17725D01*
G01X3236Y17725D02*
G01X3236Y17400D01*
G01X3000Y18020D02*
G01X3236Y17725D01*
G01X4181Y18020D02*
G01X3945Y17400D01*
G01X3709Y18020D02*
G01X3945Y17400D01*
G01X4418Y18020D02*
G01X4831Y17400D01*
G01X4831Y18020D02*
G01X4418Y18020D01*
G01X4831Y17400D02*
G01X4418Y17400D01*
G01X5068Y18020D02*
G01X5363Y17400D01*
G01X5481Y18020D02*
G01X5068Y18020D01*
G01X5954Y18020D02*
G01X6190Y17400D01*
G01X5954Y18020D02*
G01X5718Y17400D01*
G01X6102Y17606D02*
G01X5806Y17606D01*
G01X7018Y18020D02*
G01X6870Y17400D01*
G01X6722Y18020D02*
G01X6870Y17400D01*
G01X6722Y18020D02*
G01X6574Y17400D01*
G01X6427Y18020D02*
G01X6574Y17400D01*
G54D36*
G01X1427Y7409D02*
G01X1472Y7409D01*
G01X1472Y7409D02*
G01X1563Y7454D01*
G01X1563Y7454D02*
G01X1609Y7500D01*
G01X1609Y7500D02*
G01X1654Y7590D01*
G01X1654Y7590D02*
G01X1654Y7772D01*
G01X1654Y7772D02*
G01X1609Y7863D01*
G01X1609Y7863D02*
G01X1563Y7909D01*
G01X1563Y7909D02*
G01X1472Y7954D01*
G01X1472Y7954D02*
G01X1381Y7954D01*
G01X1381Y7954D02*
G01X1290Y7909D01*
G01X1290Y7909D02*
G01X1154Y7818D01*
G01X1154Y7818D02*
G01X700Y7363D01*
G01X700Y7363D02*
G01X700Y8000D01*

G04 -------------- Draw Parts, Pads, Traces, Vias and Text (positive)*
%LPD*%
G04 Draw part U2*
G04 Draw part J3*
G54D37*
G01X27000Y1500D03*
G54D38*
G01X26000Y1500D03*
G01X25000Y1500D03*
G01X24000Y1500D03*
G01X23000Y1500D03*
G01X22000Y1500D03*
G01X21000Y1500D03*
G01X20000Y1500D03*
G01X19000Y1500D03*
G01X18000Y1500D03*
G01X17000Y1500D03*
G01X16000Y1500D03*
G01X15000Y1500D03*
G01X14000Y1500D03*
G01X13000Y1500D03*
G01X12000Y1500D03*
G01X11000Y1500D03*
G01X10000Y1500D03*
G04 Draw part R14*
G04 Draw part R12*
G54D39*
G01X5200Y12500D03*
G01X5200Y11600D03*
G04 Draw part U1*
G04 Draw part R4*
G04 Draw part R3*
G04 Draw part R2*
G04 Draw part R10*
G04 Draw part J2*
G54D37*
G01X1500Y11500D03*
G54D38*
G01X1500Y12500D03*
G01X1500Y13500D03*
G01X1500Y14500D03*
G01X1500Y15500D03*
G01X1500Y16500D03*
G01X1500Y17500D03*
G04 Draw part J1*
G54D37*
G01X3000Y9800D03*
G54D38*
G01X3000Y10800D03*
G54D40*
G01X3000Y10300D03*
G04 Draw part R5*
G04 Draw part R15*
G04 Draw part R16*
G04 Draw part R1*
G04 Draw part R7*
G04 Draw part R6*
G04 Draw part R8*
G04 Draw part R9*
G04 Draw part C6*
G54D39*
G01X7700Y10400D03*
G01X7700Y11300D03*
G04 Draw part C5*
G01X9800Y10000D03*
G01X9800Y9100D03*
G04 Draw part X1*
G54D41*
G01X4700Y6800D03*
G01X2800Y6800D03*
G04 Draw part C3*
G04 Draw part C4*
G04 Draw part C2*
G54D39*
G01X7700Y8700D03*
G01X7700Y9600D03*
G04 Draw part C1*
G01X13600Y7500D03*
G01X14500Y7500D03*
G04 Draw part C7*
G04 Draw part D1*
G04 Draw part D2*
G04 Draw part R11*
G04 Draw part R13*
G04 Draw part J5*
G54D42*
G01X20900Y15950D03*
G01X16100Y15950D03*
G54D43*
G01X18010Y14100D03*
G54D44*
G01X18990Y14100D03*
G01X18990Y14890D03*
G01X18010Y14890D03*
G04 Draw part R17*
G04 Draw part R18*
G04 Draw part J4*
G54D37*
G01X13900Y12900D03*
G54D38*
G01X13900Y13900D03*
G01X13900Y14900D03*
G01X13900Y15900D03*
G01X13900Y16900D03*
G01X13900Y17900D03*
G04 Draw part R27*
G04 Draw part C17*
G04 Draw part C19*
G54D39*
G01X34000Y8700D03*
G01X34000Y9600D03*
G04 Draw part U5*
G04 Draw part L2*
G04 Draw part C18*
G54D45*
G01X35000Y6000D03*
G54D46*
G01X35000Y8000D03*
G04 Draw part R28*
G04 Draw part D5*
G54D45*
G01X32500Y6000D03*
G54D46*
G01X32500Y11000D03*
G04 Draw part C16*
G54D37*
G01X27100Y11700D03*
G54D38*
G01X27100Y12700D03*
G04 Draw part R30*
G04 Draw part R31*
G04 Draw part U4*
G04 Draw part R24*
G04 Draw part R25*
G04 Draw part R26*
G04 Draw part R21*
G04 Draw part C12*
G54D37*
G01X27900Y17000D03*
G54D38*
G01X27900Y18000D03*
G04 Draw part L1*
G04 Draw part D4*
G54D45*
G01X36000Y13000D03*
G54D46*
G01X36000Y18000D03*
G04 Draw part C13*
G54D45*
G01X35000Y12100D03*
G54D46*
G01X35000Y10100D03*
G04 Draw part C14*
G54D39*
G01X34000Y11500D03*
G01X34000Y10600D03*
G04 Draw part R23*
G04 Draw part C11*
G01X30000Y15900D03*
G01X29100Y15900D03*
G04 Draw part R22*
G04 Draw part R29*
G04 Draw part C20*
G04 Draw part C15*
G04 Draw part J6*
G54D47*
G01X24700Y14600D03*
G54D48*
G01X24700Y17000D03*
G54D49*
G01X22800Y15800D03*
G04 Draw part F1*
G04 Draw part C8*
G54D37*
G01X24900Y10300D03*
G54D38*
G01X24900Y11300D03*
G04 Draw part C10*
G54D37*
G01X25000Y4000D03*
G54D38*
G01X24000Y4000D03*
G04 Draw part C9*
G04 Draw part R20*
G04 Draw part R19*
G04 Draw part D3*
G54D45*
G01X19900Y12800D03*
G54D46*
G01X24900Y12800D03*
G04 Draw part U3*
G54D37*
G01X24900Y8400D03*
G54D38*
G01X24900Y7400D03*
G01X24900Y6400D03*

G04 Draw traces*
G54D50*
G01X6550Y8170D03*
G01X21090Y8170D03*
G01X14250Y8750D03*
G54D36*
G01X14250Y8750D02*
G01X15740Y8750D01*
G54D50*
G01X15740Y8750D03*
G01X14250Y9430D03*
G54D36*
G01X14250Y9430D02*
G01X15650Y9430D01*
G54D50*
G01X15650Y9430D03*
G01X19100Y11160D03*
G01X9080Y11160D03*
G01X14250Y10110D03*
G54D36*
G01X14250Y10110D02*
G01X15220Y10110D01*
G54D50*
G01X15220Y10110D03*
G54D36*
G01X7700Y8700D02*
G01X8080Y8700D01*
G01X8080Y8700D02*
G01X8300Y8920D01*
G01X8300Y8920D02*
G01X9100Y8920D01*
G54D50*
G01X9100Y8920D03*
G01X10890Y17570D03*
G54D36*
G01X10890Y17570D02*
G01X11350Y17570D01*
G01X11350Y17570D02*
G01X11590Y17330D01*
G01X11590Y17330D02*
G01X11590Y14040D01*
G01X11590Y14040D02*
G01X10600Y13050D01*
G01X10600Y13050D02*
G01X10600Y10220D01*
G01X10600Y10220D02*
G01X10870Y9730D01*
G01X10870Y9730D02*
G01X11290Y9370D01*
G01X11290Y9370D02*
G01X11290Y8900D01*
G54D50*
G01X11290Y8900D03*
G01X6760Y12730D03*
G01X18900Y11920D03*
G01X18010Y10580D03*
G54D36*
G01X18010Y10580D02*
G01X16210Y10580D01*
G01X16210Y10580D02*
G01X16220Y10570D01*
G54D50*
G01X16220Y10570D03*
G01X12020Y6620D03*
G54D36*
G01X12020Y6620D02*
G01X11320Y6630D01*
G01X11320Y6630D02*
G01X10420Y7530D01*
G01X10420Y7530D02*
G01X6430Y7530D01*
G01X6430Y7530D02*
G01X5550Y8400D01*
G01X5550Y8400D02*
G01X5550Y10990D01*
G01X5550Y10990D02*
G01X6010Y11450D01*
G54D50*
G01X6010Y11450D03*
G54D36*
G01X13900Y12900D02*
G01X13910Y12910D01*
G01X13910Y12910D02*
G01X11810Y12910D01*
G01X11810Y12910D02*
G01X10910Y12020D01*
G01X10910Y12020D02*
G01X10910Y10270D01*
G01X10910Y10270D02*
G01X11160Y9890D01*
G01X11160Y9890D02*
G01X11830Y9330D01*
G01X11830Y9330D02*
G01X11830Y7710D01*
G01X11830Y7710D02*
G01X12090Y7460D01*
G54D50*
G01X12090Y7460D03*
G54D36*
G01X35000Y8000D02*
G01X34500Y8500D01*
G01X34500Y8500D02*
G01X34500Y8700D01*
G01X34500Y8700D02*
G01X34000Y8700D01*
G01X32500Y11000D02*
G01X33080Y10420D01*
G01X33080Y10420D02*
G01X33080Y8320D01*
G01X33080Y8320D02*
G01X33080Y8700D01*
G01X33080Y8700D02*
G01X34770Y8700D01*
G01X34770Y8700D02*
G01X34000Y8700D01*
G01X26000Y1500D02*
G01X26000Y1490D01*
G54D50*
G01X26000Y1490D02*
G01X26000Y3740D01*
G01X26000Y3740D02*
G01X27080Y4840D01*
G01X27080Y4840D02*
G01X27550Y6590D01*
G01X27550Y6590D02*
G01X27550Y7860D01*
G01X27550Y7860D02*
G01X28010Y8320D01*
G01X28010Y8320D02*
G01X33080Y8320D01*
G54D36*
G01X33080Y8320D02*
G01X33080Y8700D01*
G01X33080Y8700D02*
G01X34000Y8700D01*
G54D50*
G01X30320Y12200D03*
G54D36*
G01X30320Y12200D02*
G01X29980Y11860D01*
G01X29980Y11860D02*
G01X29980Y11160D01*
G54D50*
G01X29980Y11160D03*
G54D36*
G01X32500Y11000D02*
G01X31910Y10410D01*
G01X31910Y10410D02*
G01X31300Y10410D01*
G01X31300Y10410D02*
G01X30900Y10810D01*
G01X30900Y10810D02*
G01X30330Y10810D01*
G01X30330Y10810D02*
G01X29980Y11160D01*
G54D50*
G01X29980Y11160D03*
G54D36*
G01X5200Y11600D02*
G01X5200Y8260D01*
G01X5200Y8260D02*
G01X6280Y7180D01*
G01X6280Y7180D02*
G01X10260Y7180D01*
G01X10260Y7180D02*
G01X11000Y6430D01*
G01X11000Y6430D02*
G01X11000Y1500D01*
G01X7700Y10400D02*
G01X7860Y10390D01*
G54D51*
G01X7860Y10390D02*
G01X8960Y10390D01*
G54D50*
G01X8960Y10390D03*
G01X9680Y10780D03*
G54D36*
G01X9680Y10780D02*
G01X9800Y10460D01*
G01X9800Y10460D02*
G01X9800Y10000D01*
G54D50*
G01X9680Y10780D03*
G54D36*
G01X9680Y10780D02*
G01X9800Y10460D01*
G01X9800Y10460D02*
G01X9800Y10000D01*
G01X7700Y10400D02*
G01X7710Y10380D01*
G01X7710Y10380D02*
G01X7870Y10390D01*
G01X7870Y10390D02*
G01X8960Y10390D01*
G54D50*
G01X8960Y10390D03*
G01X3000Y10800D02*
G01X3000Y12090D01*
G01X3000Y12090D02*
G01X2590Y12500D01*
G01X2590Y12500D02*
G01X1500Y12500D01*
G01X12500Y14400D03*
G01X14890Y14400D03*
G01X11070Y16900D03*
G54D36*
G01X11070Y16900D02*
G01X11210Y16530D01*
G01X11210Y16530D02*
G01X11220Y14200D01*
G01X11220Y14200D02*
G01X10300Y13310D01*
G01X10300Y13310D02*
G01X10300Y10050D01*
G01X10300Y10050D02*
G01X10700Y9230D01*
G54D50*
G01X10700Y9230D03*
G54D36*
G01X34000Y11500D02*
G01X34000Y12100D01*
G01X34000Y12100D02*
G01X35000Y12100D01*
G01X35000Y12100D02*
G01X35000Y13000D01*
G01X35000Y13000D02*
G01X36000Y13000D01*
G01X34000Y11500D02*
G01X34000Y11490D01*
G01X34000Y11490D02*
G01X34000Y12270D01*
G54D51*
G01X34000Y12270D02*
G01X33750Y12520D01*
G54D50*
G01X33750Y12520D02*
G01X32920Y13340D01*
G54D36*
G01X32920Y13340D02*
G01X28980Y13340D01*
G01X28980Y13340D02*
G01X28010Y12360D01*
G01X28010Y12360D02*
G01X28010Y12350D01*
G54D50*
G01X28010Y12350D03*
G01X26290Y5240D03*
G54D36*
G01X26290Y5240D02*
G01X26640Y5590D01*
G01X26640Y5590D02*
G01X26640Y6230D01*
G54D50*
G01X26640Y6230D02*
G01X26640Y8040D01*
G01X26640Y8040D02*
G01X27100Y8500D01*
G01X27100Y8500D02*
G01X27100Y9550D01*
G01X27100Y9550D02*
G01X28530Y10980D01*
G54D36*
G01X28530Y10980D02*
G01X28530Y11830D01*
G01X28530Y11830D02*
G01X28000Y12360D01*
G01X28000Y12360D02*
G01X28010Y12350D01*
G01X28010Y12350D02*
G01X28980Y13340D01*
G01X28980Y13340D02*
G01X29460Y13330D01*
G54D50*
G01X29460Y13330D02*
G01X32940Y13330D01*
G54D36*
G01X32940Y13330D02*
G01X34000Y12270D01*
G01X34000Y12270D02*
G01X34000Y11500D01*
G54D50*
G01X20000Y4120D03*
G54D36*
G01X20000Y4120D02*
G01X19640Y4480D01*
G01X19640Y4480D02*
G01X18970Y4480D01*
G01X18970Y4480D02*
G01X18600Y4120D01*
G01X18600Y4120D02*
G01X18600Y4110D01*
G54D50*
G01X18600Y4110D03*
G01X24900Y6400D02*
G01X24900Y5510D01*
G01X24900Y5510D02*
G01X25000Y5410D01*
G01X25000Y5410D02*
G01X25000Y4000D01*
G54D36*
G01X25000Y4000D02*
G01X25000Y4030D01*
G54D50*
G01X25000Y4030D02*
G01X25000Y1500D01*
G54D36*
G01X24900Y6400D02*
G01X24910Y6400D01*
G54D50*
G01X24910Y6400D02*
G01X23850Y6400D01*
G54D36*
G01X23850Y6400D02*
G01X22900Y7350D01*
G54D50*
G01X22900Y7350D03*
G01X24900Y6400D02*
G01X25550Y6400D01*
G01X25550Y6400D02*
G01X25860Y6740D01*
G54D31*
G01X25860Y6740D02*
G01X25860Y8380D01*
G54D36*
G01X25860Y8380D02*
G01X26300Y8810D01*
G54D50*
G01X26300Y8810D03*
G54D36*
G01X27900Y17000D02*
G01X27010Y17000D01*
G01X27010Y17000D02*
G01X27010Y13880D01*
G01X27010Y13880D02*
G01X25900Y12750D01*
G01X25900Y12750D02*
G01X25900Y11700D01*
G01X25900Y11700D02*
G01X27100Y11700D01*
G54D50*
G01X22900Y7360D03*
G54D36*
G01X22900Y7360D02*
G01X22500Y6960D01*
G01X22500Y6960D02*
G01X22040Y6960D01*
G54D50*
G01X22040Y6960D02*
G01X22040Y6160D01*
G01X22040Y6160D02*
G01X20480Y4570D01*
G54D36*
G01X20480Y4570D02*
G01X20000Y4120D01*
G54D50*
G01X20000Y4120D03*
G54D36*
G01X13900Y14900D02*
G01X13900Y14910D01*
G54D51*
G01X13900Y14910D02*
G01X13110Y14910D01*
G01X13110Y14910D02*
G01X12270Y15750D01*
G01X12270Y15750D02*
G01X12270Y17360D01*
G01X12270Y17360D02*
G01X11470Y18160D01*
G01X11470Y18160D02*
G01X10300Y18160D01*
G01X10300Y18160D02*
G01X9900Y17760D01*
G01X9900Y17760D02*
G01X9900Y17280D01*
G54D50*
G01X9900Y17280D03*
G01X3000Y9800D02*
G01X3620Y9800D01*
G01X3620Y9800D02*
G01X3870Y10060D01*
G01X3870Y10060D02*
G01X3870Y12730D01*
G01X3870Y12730D02*
G01X4600Y13460D01*
G01X4600Y13460D02*
G01X4600Y14100D01*
G01X4600Y14100D03*
G01X13300Y8270D03*
G54D36*
G01X13300Y8270D02*
G01X13600Y7970D01*
G01X13600Y7970D02*
G01X13600Y7500D01*
G54D50*
G01X13300Y8270D03*
G54D36*
G01X13300Y8270D02*
G01X13600Y7970D01*
G01X13600Y7970D02*
G01X13600Y7500D01*
G54D52*
G01X13900Y14900D02*
G01X15180Y14900D01*
G01X15180Y14900D02*
G01X15510Y14570D01*
G54D51*
G01X15510Y14570D02*
G01X16060Y14020D01*
G01X16060Y14020D02*
G01X16060Y12770D01*
G01X16060Y12770D02*
G01X15850Y12560D01*
G54D50*
G01X15850Y12560D02*
G01X14930Y11650D01*
G01X14930Y11650D02*
G01X13630Y11650D01*
G01X13630Y11650D02*
G01X13290Y11300D01*
G01X13290Y11300D02*
G01X13300Y8270D01*
G54D36*
G01X13300Y8270D02*
G01X13600Y7970D01*
G01X13600Y7970D02*
G01X13600Y7500D01*
G54D50*
G01X17880Y8260D03*
G54D36*
G01X17880Y8260D02*
G01X18600Y7540D01*
G54D50*
G01X18600Y7540D02*
G01X18600Y5490D01*
G54D36*
G01X18600Y5490D02*
G01X18240Y5130D01*
G01X18240Y5130D02*
G01X18240Y4470D01*
G01X18240Y4470D02*
G01X18600Y4110D01*
G54D50*
G01X18600Y4110D03*
G01X13300Y8270D03*
G01X17880Y8260D03*
G01X9590Y14600D03*
G54D36*
G01X9590Y14600D02*
G01X9040Y15150D01*
G01X9040Y15150D02*
G01X2980Y15150D01*
G01X2980Y15150D02*
G01X2330Y14500D01*
G01X2330Y14500D02*
G01X1500Y14500D01*
G01X18990Y14100D02*
G01X19500Y14100D01*
G01X19500Y14100D02*
G01X19640Y14250D01*
G01X19640Y14250D02*
G01X19640Y15150D01*
G01X19640Y15150D02*
G01X17390Y17400D01*
G01X17390Y17400D02*
G01X15270Y17400D01*
G01X15270Y17400D02*
G01X14770Y16900D01*
G01X14770Y16900D02*
G01X13900Y16900D01*
G01X5200Y12500D02*
G01X6010Y12500D01*
G54D50*
G01X6010Y12500D03*
G54D36*
G01X30000Y15900D02*
G01X30000Y15890D01*
G01X30000Y15890D02*
G01X30000Y16970D01*
G54D50*
G01X30000Y16970D03*
G54D36*
G01X35000Y10100D02*
G01X34490Y10610D01*
G01X34490Y10610D02*
G01X34000Y10600D01*
G54D50*
G01X8420Y16700D03*
G54D36*
G01X8420Y16700D02*
G01X8020Y16300D01*
G01X8020Y16300D02*
G01X7580Y16300D01*
G01X7580Y16300D02*
G01X7360Y16520D01*
G01X7360Y16520D02*
G01X6950Y16520D01*
G01X6950Y16520D02*
G01X6600Y16160D01*
G01X6600Y16160D02*
G01X6600Y16170D01*
G54D50*
G01X6600Y16170D03*
G01X4580Y12500D03*
G54D36*
G01X4580Y12500D02*
G01X4730Y12900D01*
G01X4730Y12900D02*
G01X5170Y13340D01*
G01X5170Y13340D02*
G01X7340Y13340D01*
G01X7340Y13340D02*
G01X7690Y12990D01*
G01X7690Y12990D02*
G01X7690Y11300D01*
G01X7690Y11300D02*
G01X8330Y11300D01*
G01X8330Y11300D02*
G01X7060Y11300D01*
G01X7060Y11300D02*
G01X7700Y11300D01*
G54D50*
G01X8660Y9700D03*
G54D36*
G01X8660Y9700D02*
G01X8980Y9380D01*
G01X8980Y9380D02*
G01X9510Y9380D01*
G01X9510Y9380D02*
G01X9800Y9090D01*
G01X9800Y9090D02*
G01X9800Y8440D01*
G01X9800Y8440D02*
G01X9800Y9100D01*
G54D50*
G01X12770Y7450D03*
G01X11420Y10370D03*
G54D36*
G01X7700Y9600D02*
G01X7000Y9600D01*
G01X7000Y9600D02*
G01X8020Y9600D01*
G01X8020Y9600D02*
G01X8290Y9330D01*
G01X8290Y9330D02*
G01X8660Y9700D01*
G54D50*
G01X8660Y9700D03*
G01X17020Y7450D03*
G01X12770Y7450D03*
G54D36*
G01X12770Y7450D02*
G01X13390Y6830D01*
G01X13390Y6830D02*
G01X14500Y6830D01*
G01X14500Y6830D02*
G01X14500Y8100D01*
G01X14500Y8100D02*
G01X14490Y7510D01*
G01X14490Y7510D02*
G01X15080Y7500D01*
G01X15080Y7500D02*
G01X14500Y7500D01*
G54D50*
G01X12730Y4100D03*
G01X15000Y3230D03*
G01X17020Y4100D03*
G01X16660Y13520D03*
G01X30790Y17170D03*
G54D36*
G01X30790Y17170D02*
G01X31150Y17530D01*
G01X31150Y17530D02*
G01X31150Y18100D01*
G01X31150Y18100D02*
G01X30780Y18470D01*
G01X30780Y18470D02*
G01X28370Y18470D01*
G01X28370Y18470D02*
G01X27900Y18000D01*
G54D50*
G01X28110Y13360D03*
G01X4100Y8400D03*
G01X8660Y9700D03*
G01X31400Y12420D03*
G54D36*
G01X31400Y12420D02*
G01X31780Y12040D01*
G01X31780Y12040D02*
G01X33350Y12040D01*
G01X33350Y12040D02*
G01X33350Y11270D01*
G01X33350Y11270D02*
G01X34000Y10600D01*
G01X29100Y15900D02*
G01X29100Y15260D01*
G01X29100Y15260D02*
G01X29100Y15880D01*
G01X29100Y15880D02*
G01X28550Y15880D01*
G01X28550Y15880D02*
G01X29100Y15890D01*
G01X29100Y15890D02*
G01X29100Y18470D01*
G01X29100Y18470D02*
G01X28370Y18470D01*
G01X28370Y18470D02*
G01X27900Y18000D01*
G01X34000Y10600D02*
G01X34490Y10610D01*
G01X34490Y10610D02*
G01X34010Y10610D01*
G01X34010Y10610D02*
G01X34010Y10140D01*
G01X34010Y10140D02*
G01X34000Y10020D01*
G01X34000Y10020D02*
G01X34000Y9590D01*
G01X34000Y9590D02*
G01X34470Y9590D01*
G01X34470Y9590D02*
G01X33530Y9600D01*
G01X33530Y9600D02*
G01X34000Y9600D01*
G54D50*
G01X12770Y7450D03*
G54D36*
G01X12770Y7450D02*
G01X13390Y6830D01*
G01X13390Y6830D02*
G01X14500Y6830D01*
G01X14500Y6830D02*
G01X14500Y7500D01*
G54D50*
G01X12770Y6640D03*
G01X5810Y6650D03*
G54D36*
G01X5810Y6650D02*
G01X5810Y7140D01*
G01X5810Y7140D02*
G01X4830Y8110D01*
G01X4830Y8110D02*
G01X4830Y10870D01*
G01X4830Y10870D02*
G01X4580Y11120D01*
G01X4580Y11120D02*
G01X4580Y11610D01*
G54D50*
G01X4580Y11610D03*
G54D36*
G01X13900Y13900D02*
G01X13880Y13900D01*
G01X13880Y13900D02*
G01X14470Y13890D01*
G01X14470Y13890D02*
G01X14700Y13650D01*
G01X14700Y13650D02*
G01X14690Y12440D01*
G01X14690Y12440D02*
G01X14430Y12180D01*
G01X14430Y12180D02*
G01X12630Y12180D01*
G01X12630Y12180D02*
G01X12330Y11870D01*
G01X12330Y11870D02*
G01X12330Y8160D01*
G54D50*
G01X12330Y8160D03*
G01X14020Y11010D03*
G54D36*
G01X14020Y11010D02*
G01X14310Y10720D01*
G01X14310Y10720D02*
G01X15340Y10730D01*
G01X15340Y10730D02*
G01X16310Y9760D01*
G01X16310Y9760D02*
G01X16310Y8470D01*
G01X16310Y8470D02*
G01X15430Y7590D01*
G01X15430Y7590D02*
G01X15440Y4450D01*
G01X15440Y4450D02*
G01X14000Y3010D01*
G01X14000Y3010D02*
G01X14000Y1500D01*
G54D50*
G01X15490Y13420D03*
G01X3600Y13420D03*
G01X6380Y6000D03*
G01X22990Y6000D03*
G54D36*
G01X1500Y15500D02*
G01X9450Y15500D01*
G01X9450Y15500D02*
G01X10090Y14860D01*
G01X10090Y14860D02*
G01X10340Y14600D01*
G54D50*
G01X10340Y14600D03*
G01X3010Y14070D03*
G54D36*
G01X3010Y14070D02*
G01X3720Y14780D01*
G01X3720Y14780D02*
G01X8470Y14780D01*
G01X8470Y14780D02*
G01X8900Y14600D01*
G54D50*
G01X8900Y14600D03*
G01X18180Y11790D03*
G01X9740Y11790D03*

G04 Draw Text*

G04 ----------------------- Draw Pilot Holes (scratch)*
%LPC*%
G04 draw pilot holes for part U2*
G04 draw pilot holes for part J3*
G54D35*
G01X27000Y1500D03*
G01X26000Y1500D03*
G01X25000Y1500D03*
G01X24000Y1500D03*
G01X23000Y1500D03*
G01X22000Y1500D03*
G01X21000Y1500D03*
G01X20000Y1500D03*
G01X19000Y1500D03*
G01X18000Y1500D03*
G01X17000Y1500D03*
G01X16000Y1500D03*
G01X15000Y1500D03*
G01X14000Y1500D03*
G01X13000Y1500D03*
G01X12000Y1500D03*
G01X11000Y1500D03*
G01X10000Y1500D03*
G04 draw pilot holes for part R14*
G04 draw pilot holes for part R12*
G04 draw pilot holes for part U1*
G04 draw pilot holes for part R4*
G04 draw pilot holes for part R3*
G04 draw pilot holes for part R2*
G04 draw pilot holes for part R10*
G04 draw pilot holes for part J2*
G01X1500Y11500D03*
G01X1500Y12500D03*
G01X1500Y13500D03*
G01X1500Y14500D03*
G01X1500Y15500D03*
G01X1500Y16500D03*
G01X1500Y17500D03*
G04 draw pilot holes for part J1*
G01X3000Y9800D03*
G01X3000Y10800D03*
G04 draw pilot holes for part R5*
G04 draw pilot holes for part R15*
G04 draw pilot holes for part R16*
G04 draw pilot holes for part R1*
G04 draw pilot holes for part R7*
G04 draw pilot holes for part R6*
G04 draw pilot holes for part R8*
G04 draw pilot holes for part R9*
G04 draw pilot holes for part C6*
G04 draw pilot holes for part C5*
G04 draw pilot holes for part X1*
G01X4700Y6800D03*
G01X2800Y6800D03*
G04 draw pilot holes for part C3*
G04 draw pilot holes for part C4*
G04 draw pilot holes for part C2*
G04 draw pilot holes for part C1*
G04 draw pilot holes for part C7*
G04 draw pilot holes for part D1*
G04 draw pilot holes for part D2*
G04 draw pilot holes for part R11*
G04 draw pilot holes for part R13*
G04 draw pilot holes for part J5*
G01X20900Y15950D03*
G01X16100Y15950D03*
G01X18010Y14100D03*
G01X18990Y14100D03*
G01X18990Y14890D03*
G01X18010Y14890D03*
G04 draw pilot holes for part R17*
G04 draw pilot holes for part R18*
G04 draw pilot holes for part J4*
G01X13900Y12900D03*
G01X13900Y13900D03*
G01X13900Y14900D03*
G01X13900Y15900D03*
G01X13900Y16900D03*
G01X13900Y17900D03*
G04 draw pilot holes for part R27*
G04 draw pilot holes for part C17*
G04 draw pilot holes for part C19*
G04 draw pilot holes for part U5*
G04 draw pilot holes for part L2*
G04 draw pilot holes for part C18*
G01X35000Y6000D03*
G01X35000Y8000D03*
G04 draw pilot holes for part R28*
G04 draw pilot holes for part D5*
G01X32500Y6000D03*
G01X32500Y11000D03*
G04 draw pilot holes for part C16*
G01X27100Y11700D03*
G01X27100Y12700D03*
G04 draw pilot holes for part R30*
G04 draw pilot holes for part R31*
G04 draw pilot holes for part U4*
G04 draw pilot holes for part R24*
G04 draw pilot holes for part R25*
G04 draw pilot holes for part R26*
G04 draw pilot holes for part R21*
G04 draw pilot holes for part C12*
G01X27900Y17000D03*
G01X27900Y18000D03*
G04 draw pilot holes for part L1*
G04 draw pilot holes for part D4*
G01X36000Y13000D03*
G01X36000Y18000D03*
G04 draw pilot holes for part C13*
G01X35000Y12100D03*
G01X35000Y10100D03*
G04 draw pilot holes for part C14*
G04 draw pilot holes for part R23*
G04 draw pilot holes for part C11*
G04 draw pilot holes for part R22*
G04 draw pilot holes for part R29*
G04 draw pilot holes for part C20*
G04 draw pilot holes for part C15*
G04 draw pilot holes for part J6*
G01X24700Y14600D03*
G01X24700Y17000D03*
G01X22800Y15800D03*
G04 draw pilot holes for part F1*
G04 draw pilot holes for part C8*
G01X24900Y10300D03*
G01X24900Y11300D03*
G04 draw pilot holes for part C10*
G01X25000Y4000D03*
G01X24000Y4000D03*
G04 draw pilot holes for part C9*
G04 draw pilot holes for part R20*
G04 draw pilot holes for part R19*
G04 draw pilot holes for part D3*
G01X19900Y12800D03*
G01X24900Y12800D03*
G04 draw pilot holes for part U3*
G01X24900Y8400D03*
G01X24900Y7400D03*
G01X24900Y6400D03*

G04 Draw pilot holes for vias*
G01X6550Y8170D03*
G01X21090Y8170D03*
G01X14250Y8750D03*
G01X15740Y8750D03*
G01X14250Y9430D03*
G01X15650Y9430D03*
G01X19100Y11160D03*
G01X9080Y11160D03*
G01X14250Y10110D03*
G01X15220Y10110D03*
G01X9100Y8920D03*
G01X10890Y17570D03*
G01X11290Y8900D03*
G01X6760Y12730D03*
G01X18900Y11920D03*
G01X18010Y10580D03*
G01X16220Y10570D03*
G01X12020Y6620D03*
G01X6010Y11450D03*
G01X12090Y7460D03*
G01X30320Y12200D03*
G01X29980Y11160D03*
G01X29980Y11160D03*
G01X8960Y10390D03*
G01X9680Y10780D03*
G01X9680Y10780D03*
G01X8960Y10390D03*
G01X12500Y14400D03*
G01X14890Y14400D03*
G01X11070Y16900D03*
G01X10700Y9230D03*
G01X28010Y12350D03*
G01X26290Y5240D03*
G01X20000Y4120D03*
G01X18600Y4110D03*
G01X22900Y7350D03*
G01X26300Y8810D03*
G01X22900Y7360D03*
G01X20000Y4120D03*
G01X9900Y17280D03*
G01X4600Y14100D03*
G01X13300Y8270D03*
G01X13300Y8270D03*
G01X17880Y8260D03*
G01X18600Y4110D03*
G01X13300Y8270D03*
G01X17880Y8260D03*
G01X9590Y14600D03*
G01X6010Y12500D03*
G01X30000Y16970D03*
G01X8420Y16700D03*
G01X6600Y16170D03*
G01X4580Y12500D03*
G01X8660Y9700D03*
G01X12770Y7450D03*
G01X11420Y10370D03*
G01X8660Y9700D03*
G01X17020Y7450D03*
G01X12770Y7450D03*
G01X12730Y4100D03*
G01X15000Y3230D03*
G01X17020Y4100D03*
G01X16660Y13520D03*
G01X30790Y17170D03*
G01X28110Y13360D03*
G01X4100Y8400D03*
G01X8660Y9700D03*
G01X31400Y12420D03*
G01X12770Y7450D03*
G01X12770Y6640D03*
G01X5810Y6650D03*
G01X4580Y11610D03*
G01X12330Y8160D03*
G01X14020Y11010D03*
G01X15490Y13420D03*
G01X3600Y13420D03*
G01X6380Y6000D03*
G01X22990Y6000D03*
G01X10340Y14600D03*
G01X3010Y14070D03*
G01X8900Y14600D03*
G01X18180Y11790D03*
G01X9740Y11790D03*
M00*
M02*
