G04 FreePCB version 1.359*
G04 C:\Users\pmesser\_Paul\Design\DSOscope\PCB\A01\CAM_DSOscope_CPUBrd_A01\bottom_silk.grb*
G04 bottom silk layer *
G04 Scale: 100 percent, Rotated: No, Reflected: No *
%FSLAX24Y24*%
%MOIN*%
%LN bottom silk *%
G04 Rounded Rectangle Macro, params: W/2, H/2, R *
%AMRNDREC*
21,1,$1+$1,$2+$2-$3-$3,0,0,0*
21,1,$1+$1-$3-$3,$2+$2,0,0,0*
1,1,$3+$3,$1-$3,$2-$3*
1,1,$3+$3,$3-$1,$2-$3*
1,1,$3+$3,$1-$3,$3-$2*
1,1,$3+$3,$3-$1,$3-$2*%
G04 Rectangular Thermal Macro, params: W/2, H/2, T/2 *
%AMRECTHERM*
$4=$3/2*
21,1,$1-$3,$2-$3,0-$1/2-$4,0-$2/2-$4,0*
21,1,$1-$3,$2-$3,0-$1/2-$4,$2/2+$4,0*
21,1,$1-$3,$2-$3,$1/2+$4,0-$2/2-$4,0*
21,1,$1-$3,$2-$3,$1/2+$4,$2/2+$4,0*%
%ADD10C,0.005000*%
%ADD11C,0.010000*%
G90*
G70D02*

G04 Step and Repeat for panelization *
%SRX1Y2I3.700000J2.000000*%

G04 ----------------------- Draw board outline (positive)*
%LPD*%
G54D10*
G01X0Y5000D02*
G01X0Y16500D01*
G04 end of side 1*
G01X0Y19000D01*
G04 end of side 2*
G01X37000Y19000D01*
G04 end of side 3*
G01X37000Y5000D01*
G04 end of side 4*
G01X28500Y5000D01*
G04 end of side 5*
G01X28500Y0D01*
G04 end of side 6*
G01X8500Y0D01*
G04 end of side 7*
G01X8500Y5000D01*
G04 end of side 8*
G01X0Y5000D01*
G01X8500Y0D02*
G01X0Y0D01*
G04 end of side 1*
G01X0Y5000D01*
G04 end of side 2*
G01X8500Y5000D01*
G04 end of side 3*
G01X8500Y0D01*
G01X28500Y0D02*
G01X37000Y0D01*
G04 end of side 1*
G01X37000Y5000D01*
G04 end of side 2*
G01X28500Y5000D01*
G04 end of side 3*
G01X28500Y0D01*

G04 -------------- Draw Parts, Pads, Traces, Vias and Text (positive)*
%LPD*%
G04 Draw part U2*
G04 Draw part J3*
G04 draw part outline for part J3*
G54D11*
G01X27700Y800D02*
G01X27700Y2200D01*
G01X27700Y2200D02*
G01X9300Y2200D01*
G01X9300Y2200D02*
G01X9300Y800D01*
G01X9300Y800D02*
G01X27700Y800D01*
G04 draw reference designator for part J3*
G54D10*
G01X26772Y2877D02*
G01X26772Y2513D01*
G01X26772Y2513D02*
G01X26795Y2445D01*
G01X26795Y2445D02*
G01X26818Y2422D01*
G01X26818Y2422D02*
G01X26863Y2400D01*
G01X26909Y2400D02*
G01X26863Y2400D01*
G01X26954Y2422D02*
G01X26909Y2400D01*
G01X26977Y2445D02*
G01X26954Y2422D01*
G01X27000Y2513D02*
G01X26977Y2445D01*
G01X27000Y2559D02*
G01X27000Y2513D01*
G01X26295Y2877D02*
G01X26545Y2877D01*
G01X26295Y2877D02*
G01X26431Y2695D01*
G01X26363Y2695D02*
G01X26431Y2695D01*
G01X26363Y2695D02*
G01X26318Y2672D01*
G01X26318Y2672D02*
G01X26295Y2650D01*
G01X26295Y2650D02*
G01X26272Y2581D01*
G01X26272Y2581D02*
G01X26272Y2536D01*
G01X26272Y2536D02*
G01X26295Y2468D01*
G01X26295Y2468D02*
G01X26340Y2422D01*
G01X26340Y2422D02*
G01X26409Y2400D01*
G01X26477Y2400D02*
G01X26409Y2400D01*
G01X26545Y2422D02*
G01X26477Y2400D01*
G01X26568Y2445D02*
G01X26545Y2422D01*
G01X26590Y2490D02*
G01X26568Y2445D01*
G04 Draw part R14*
G04 Draw part R12*
G04 draw part outline for part R12*
G54D11*
G01X4800Y12900D02*
G01X4800Y11200D01*
G01X4800Y11200D02*
G01X5600Y11200D01*
G01X5600Y11200D02*
G01X5600Y12900D01*
G01X5600Y12900D02*
G01X4800Y12900D01*
G04 draw reference designator for part R12*
G54D10*
G01X5022Y12700D02*
G01X5500Y12700D01*
G01X5022Y12495D02*
G01X5022Y12700D01*
G01X5022Y12495D02*
G01X5045Y12427D01*
G01X5045Y12427D02*
G01X5068Y12404D01*
G01X5068Y12404D02*
G01X5113Y12381D01*
G01X5113Y12381D02*
G01X5159Y12381D01*
G01X5159Y12381D02*
G01X5204Y12404D01*
G01X5204Y12404D02*
G01X5227Y12427D01*
G01X5227Y12427D02*
G01X5250Y12495D01*
G01X5250Y12700D02*
G01X5250Y12495D01*
G01X5250Y12540D02*
G01X5500Y12381D01*
G01X5090Y12154D02*
G01X5113Y12200D01*
G01X5022Y12086D02*
G01X5090Y12154D01*
G01X5022Y12086D02*
G01X5500Y12086D01*
G01X5113Y11881D02*
G01X5136Y11881D01*
G01X5068Y11859D02*
G01X5113Y11881D01*
G01X5045Y11836D02*
G01X5068Y11859D01*
G01X5022Y11790D02*
G01X5045Y11836D01*
G01X5022Y11700D02*
G01X5022Y11790D01*
G01X5022Y11700D02*
G01X5045Y11654D01*
G01X5045Y11654D02*
G01X5068Y11631D01*
G01X5068Y11631D02*
G01X5113Y11609D01*
G01X5113Y11609D02*
G01X5159Y11609D01*
G01X5159Y11609D02*
G01X5204Y11631D01*
G01X5204Y11631D02*
G01X5272Y11677D01*
G01X5272Y11677D02*
G01X5500Y11904D01*
G01X5500Y11586D02*
G01X5500Y11904D01*
G04 Draw part U1*
G04 Draw part R4*
G04 Draw part R3*
G04 Draw part R2*
G04 Draw part R10*
G04 Draw part J2*
G04 Draw part J1*
G04 Draw part R5*
G04 Draw part R15*
G04 Draw part R16*
G04 Draw part R1*
G04 Draw part R7*
G04 Draw part R6*
G04 Draw part R8*
G04 Draw part R9*
G04 Draw part C6*
G04 draw part outline for part C6*
G54D11*
G01X8100Y10000D02*
G01X8100Y11700D01*
G01X8100Y11700D02*
G01X7300Y11700D01*
G01X7300Y11700D02*
G01X7300Y10000D01*
G01X7300Y10000D02*
G01X8100Y10000D01*
G04 draw reference designator for part C6*
G54D10*
G01X7590Y10881D02*
G01X7636Y10859D01*
G01X7545Y10927D02*
G01X7590Y10881D01*
G01X7522Y10972D02*
G01X7545Y10927D01*
G01X7522Y11063D02*
G01X7522Y10972D01*
G01X7522Y11063D02*
G01X7545Y11109D01*
G01X7545Y11109D02*
G01X7590Y11154D01*
G01X7590Y11154D02*
G01X7636Y11177D01*
G01X7636Y11177D02*
G01X7704Y11200D01*
G01X7704Y11200D02*
G01X7818Y11200D01*
G01X7818Y11200D02*
G01X7886Y11177D01*
G01X7886Y11177D02*
G01X7931Y11154D01*
G01X7931Y11154D02*
G01X7977Y11109D01*
G01X7977Y11109D02*
G01X8000Y11063D01*
G01X8000Y10972D02*
G01X8000Y11063D01*
G01X7977Y10927D02*
G01X8000Y10972D01*
G01X7931Y10881D02*
G01X7977Y10927D01*
G01X7886Y10859D02*
G01X7931Y10881D01*
G01X7545Y10427D02*
G01X7590Y10404D01*
G01X7522Y10495D02*
G01X7545Y10427D01*
G01X7522Y10540D02*
G01X7522Y10495D01*
G01X7522Y10540D02*
G01X7545Y10609D01*
G01X7545Y10609D02*
G01X7613Y10654D01*
G01X7613Y10654D02*
G01X7727Y10677D01*
G01X7727Y10677D02*
G01X7840Y10677D01*
G01X7840Y10677D02*
G01X7931Y10654D01*
G01X7931Y10654D02*
G01X7977Y10609D01*
G01X7977Y10609D02*
G01X8000Y10540D01*
G01X8000Y10518D02*
G01X8000Y10540D01*
G01X7977Y10450D02*
G01X8000Y10518D01*
G01X7931Y10404D02*
G01X7977Y10450D01*
G01X7863Y10381D02*
G01X7931Y10404D01*
G01X7840Y10381D02*
G01X7863Y10381D01*
G01X7772Y10404D02*
G01X7840Y10381D01*
G01X7727Y10450D02*
G01X7772Y10404D01*
G01X7704Y10518D02*
G01X7727Y10450D01*
G01X7704Y10540D02*
G01X7704Y10518D01*
G01X7704Y10540D02*
G01X7727Y10609D01*
G01X7727Y10609D02*
G01X7772Y10654D01*
G01X7772Y10654D02*
G01X7840Y10677D01*
G04 Draw part C5*
G04 draw part outline for part C5*
G54D11*
G01X9400Y10400D02*
G01X9400Y8700D01*
G01X9400Y8700D02*
G01X10200Y8700D01*
G01X10200Y8700D02*
G01X10200Y10400D01*
G01X10200Y10400D02*
G01X9400Y10400D01*
G04 draw reference designator for part C5*
G54D10*
G01X9690Y9881D02*
G01X9736Y9859D01*
G01X9645Y9927D02*
G01X9690Y9881D01*
G01X9622Y9972D02*
G01X9645Y9927D01*
G01X9622Y10063D02*
G01X9622Y9972D01*
G01X9622Y10063D02*
G01X9645Y10109D01*
G01X9645Y10109D02*
G01X9690Y10154D01*
G01X9690Y10154D02*
G01X9736Y10177D01*
G01X9736Y10177D02*
G01X9804Y10200D01*
G01X9804Y10200D02*
G01X9918Y10200D01*
G01X9918Y10200D02*
G01X9986Y10177D01*
G01X9986Y10177D02*
G01X10031Y10154D01*
G01X10031Y10154D02*
G01X10077Y10109D01*
G01X10077Y10109D02*
G01X10100Y10063D01*
G01X10100Y9972D02*
G01X10100Y10063D01*
G01X10077Y9927D02*
G01X10100Y9972D01*
G01X10031Y9881D02*
G01X10077Y9927D01*
G01X9986Y9859D02*
G01X10031Y9881D01*
G01X9622Y9631D02*
G01X9622Y9404D01*
G01X9622Y9631D02*
G01X9827Y9654D01*
G01X9804Y9631D02*
G01X9827Y9654D01*
G01X9781Y9563D02*
G01X9804Y9631D01*
G01X9781Y9495D02*
G01X9781Y9563D01*
G01X9781Y9495D02*
G01X9804Y9427D01*
G01X9804Y9427D02*
G01X9850Y9381D01*
G01X9850Y9381D02*
G01X9918Y9359D01*
G01X9918Y9359D02*
G01X9963Y9359D01*
G01X9963Y9359D02*
G01X10031Y9381D01*
G01X10031Y9381D02*
G01X10077Y9427D01*
G01X10077Y9427D02*
G01X10100Y9495D01*
G01X10100Y9563D02*
G01X10100Y9495D01*
G01X10077Y9631D02*
G01X10100Y9563D01*
G01X10054Y9654D02*
G01X10077Y9631D01*
G01X10009Y9677D02*
G01X10054Y9654D01*
G04 Draw part X1*
G04 Draw part C3*
G04 Draw part C4*
G04 Draw part C2*
G04 draw part outline for part C2*
G54D11*
G01X8100Y8300D02*
G01X8100Y10000D01*
G01X8100Y10000D02*
G01X7300Y10000D01*
G01X7300Y10000D02*
G01X7300Y8300D01*
G01X7300Y8300D02*
G01X8100Y8300D01*
G04 draw reference designator for part C2*
G54D10*
G01X7590Y9281D02*
G01X7636Y9259D01*
G01X7545Y9327D02*
G01X7590Y9281D01*
G01X7522Y9372D02*
G01X7545Y9327D01*
G01X7522Y9463D02*
G01X7522Y9372D01*
G01X7522Y9463D02*
G01X7545Y9509D01*
G01X7545Y9509D02*
G01X7590Y9554D01*
G01X7590Y9554D02*
G01X7636Y9577D01*
G01X7636Y9577D02*
G01X7704Y9600D01*
G01X7704Y9600D02*
G01X7818Y9600D01*
G01X7818Y9600D02*
G01X7886Y9577D01*
G01X7886Y9577D02*
G01X7931Y9554D01*
G01X7931Y9554D02*
G01X7977Y9509D01*
G01X7977Y9509D02*
G01X8000Y9463D01*
G01X8000Y9372D02*
G01X8000Y9463D01*
G01X7977Y9327D02*
G01X8000Y9372D01*
G01X7931Y9281D02*
G01X7977Y9327D01*
G01X7886Y9259D02*
G01X7931Y9281D01*
G01X7613Y9054D02*
G01X7636Y9054D01*
G01X7568Y9031D02*
G01X7613Y9054D01*
G01X7545Y9009D02*
G01X7568Y9031D01*
G01X7522Y8963D02*
G01X7545Y9009D01*
G01X7522Y8872D02*
G01X7522Y8963D01*
G01X7522Y8872D02*
G01X7545Y8827D01*
G01X7545Y8827D02*
G01X7568Y8804D01*
G01X7568Y8804D02*
G01X7613Y8781D01*
G01X7613Y8781D02*
G01X7659Y8781D01*
G01X7659Y8781D02*
G01X7704Y8804D01*
G01X7704Y8804D02*
G01X7772Y8850D01*
G01X7772Y8850D02*
G01X8000Y9077D01*
G01X8000Y8759D02*
G01X8000Y9077D01*
G04 Draw part C1*
G04 draw part outline for part C1*
G54D11*
G01X13200Y7100D02*
G01X14900Y7100D01*
G01X14900Y7100D02*
G01X14900Y7900D01*
G01X14900Y7900D02*
G01X13200Y7900D01*
G01X13200Y7900D02*
G01X13200Y7100D01*
G04 draw reference designator for part C1*
G54D10*
G01X14081Y7609D02*
G01X14059Y7563D01*
G01X14127Y7654D02*
G01X14081Y7609D01*
G01X14172Y7677D02*
G01X14127Y7654D01*
G01X14263Y7677D02*
G01X14172Y7677D01*
G01X14263Y7677D02*
G01X14309Y7654D01*
G01X14309Y7654D02*
G01X14354Y7609D01*
G01X14354Y7609D02*
G01X14377Y7563D01*
G01X14377Y7563D02*
G01X14400Y7495D01*
G01X14400Y7495D02*
G01X14400Y7381D01*
G01X14400Y7381D02*
G01X14377Y7313D01*
G01X14377Y7313D02*
G01X14354Y7268D01*
G01X14354Y7268D02*
G01X14309Y7222D01*
G01X14309Y7222D02*
G01X14263Y7200D01*
G01X14172Y7200D02*
G01X14263Y7200D01*
G01X14127Y7222D02*
G01X14172Y7200D01*
G01X14081Y7268D02*
G01X14127Y7222D01*
G01X14059Y7313D02*
G01X14081Y7268D01*
G01X13831Y7609D02*
G01X13877Y7586D01*
G01X13763Y7677D02*
G01X13831Y7609D01*
G01X13763Y7677D02*
G01X13763Y7200D01*
G04 Draw part C7*
G04 Draw part D1*
G04 Draw part D2*
G04 Draw part R11*
G04 Draw part R13*
G04 Draw part J5*
G04 Draw part R17*
G04 Draw part R18*
G04 Draw part J4*
G04 Draw part R27*
G04 Draw part C17*
G04 Draw part C19*
G04 draw part outline for part C19*
G54D11*
G01X34400Y8300D02*
G01X34400Y10000D01*
G01X34400Y10000D02*
G01X33600Y10000D01*
G01X33600Y10000D02*
G01X33600Y8300D01*
G01X33600Y8300D02*
G01X34400Y8300D01*
G04 draw reference designator for part C19*
G54D10*
G01X33890Y9381D02*
G01X33936Y9359D01*
G01X33845Y9427D02*
G01X33890Y9381D01*
G01X33822Y9472D02*
G01X33845Y9427D01*
G01X33822Y9563D02*
G01X33822Y9472D01*
G01X33822Y9563D02*
G01X33845Y9609D01*
G01X33845Y9609D02*
G01X33890Y9654D01*
G01X33890Y9654D02*
G01X33936Y9677D01*
G01X33936Y9677D02*
G01X34004Y9700D01*
G01X34004Y9700D02*
G01X34118Y9700D01*
G01X34118Y9700D02*
G01X34186Y9677D01*
G01X34186Y9677D02*
G01X34231Y9654D01*
G01X34231Y9654D02*
G01X34277Y9609D01*
G01X34277Y9609D02*
G01X34300Y9563D01*
G01X34300Y9472D02*
G01X34300Y9563D01*
G01X34277Y9427D02*
G01X34300Y9472D01*
G01X34231Y9381D02*
G01X34277Y9427D01*
G01X34186Y9359D02*
G01X34231Y9381D01*
G01X33890Y9131D02*
G01X33913Y9177D01*
G01X33822Y9063D02*
G01X33890Y9131D01*
G01X33822Y9063D02*
G01X34300Y9063D01*
G01X33981Y8586D02*
G01X34050Y8609D01*
G01X34050Y8609D02*
G01X34095Y8654D01*
G01X34095Y8654D02*
G01X34118Y8722D01*
G01X34118Y8745D02*
G01X34118Y8722D01*
G01X34095Y8813D02*
G01X34118Y8745D01*
G01X34050Y8859D02*
G01X34095Y8813D01*
G01X33981Y8881D02*
G01X34050Y8859D01*
G01X33959Y8881D02*
G01X33981Y8881D01*
G01X33890Y8859D02*
G01X33959Y8881D01*
G01X33845Y8813D02*
G01X33890Y8859D01*
G01X33822Y8745D02*
G01X33845Y8813D01*
G01X33822Y8722D02*
G01X33822Y8745D01*
G01X33822Y8722D02*
G01X33845Y8654D01*
G01X33845Y8654D02*
G01X33890Y8609D01*
G01X33890Y8609D02*
G01X33981Y8586D01*
G01X33981Y8586D02*
G01X34095Y8586D01*
G01X34095Y8586D02*
G01X34209Y8609D01*
G01X34209Y8609D02*
G01X34277Y8654D01*
G01X34277Y8654D02*
G01X34300Y8722D01*
G01X34300Y8768D02*
G01X34300Y8722D01*
G01X34277Y8836D02*
G01X34300Y8768D01*
G01X34231Y8859D02*
G01X34277Y8836D01*
G04 Draw part U5*
G04 Draw part L2*
G04 Draw part C18*
G04 Draw part R28*
G04 Draw part D5*
G04 Draw part C16*
G04 Draw part R30*
G04 Draw part R31*
G04 Draw part U4*
G04 Draw part R24*
G04 Draw part R25*
G04 Draw part R26*
G04 Draw part R21*
G04 Draw part C12*
G04 Draw part L1*
G04 Draw part D4*
G04 Draw part C13*
G04 Draw part C14*
G04 draw part outline for part C14*
G54D11*
G01X33600Y11900D02*
G01X33600Y10200D01*
G01X33600Y10200D02*
G01X34400Y10200D01*
G01X34400Y10200D02*
G01X34400Y11900D01*
G01X34400Y11900D02*
G01X33600Y11900D01*
G04 draw reference designator for part C14*
G54D10*
G01X33890Y11381D02*
G01X33936Y11359D01*
G01X33845Y11427D02*
G01X33890Y11381D01*
G01X33822Y11472D02*
G01X33845Y11427D01*
G01X33822Y11563D02*
G01X33822Y11472D01*
G01X33822Y11563D02*
G01X33845Y11609D01*
G01X33845Y11609D02*
G01X33890Y11654D01*
G01X33890Y11654D02*
G01X33936Y11677D01*
G01X33936Y11677D02*
G01X34004Y11700D01*
G01X34004Y11700D02*
G01X34118Y11700D01*
G01X34118Y11700D02*
G01X34186Y11677D01*
G01X34186Y11677D02*
G01X34231Y11654D01*
G01X34231Y11654D02*
G01X34277Y11609D01*
G01X34277Y11609D02*
G01X34300Y11563D01*
G01X34300Y11472D02*
G01X34300Y11563D01*
G01X34277Y11427D02*
G01X34300Y11472D01*
G01X34231Y11381D02*
G01X34277Y11427D01*
G01X34186Y11359D02*
G01X34231Y11381D01*
G01X33890Y11131D02*
G01X33913Y11177D01*
G01X33822Y11063D02*
G01X33890Y11131D01*
G01X33822Y11063D02*
G01X34300Y11063D01*
G01X33822Y10654D02*
G01X34140Y10881D01*
G01X34140Y10540D02*
G01X34140Y10881D01*
G01X33822Y10654D02*
G01X34300Y10654D01*
G04 Draw part R23*
G04 Draw part C11*
G04 draw part outline for part C11*
G54D11*
G01X30400Y16300D02*
G01X28700Y16300D01*
G01X28700Y16300D02*
G01X28700Y15500D01*
G01X28700Y15500D02*
G01X30400Y15500D01*
G01X30400Y15500D02*
G01X30400Y16300D01*
G04 draw reference designator for part C11*
G54D10*
G01X29881Y16009D02*
G01X29859Y15963D01*
G01X29927Y16054D02*
G01X29881Y16009D01*
G01X29972Y16077D02*
G01X29927Y16054D01*
G01X30063Y16077D02*
G01X29972Y16077D01*
G01X30063Y16077D02*
G01X30109Y16054D01*
G01X30109Y16054D02*
G01X30154Y16009D01*
G01X30154Y16009D02*
G01X30177Y15963D01*
G01X30177Y15963D02*
G01X30200Y15895D01*
G01X30200Y15895D02*
G01X30200Y15781D01*
G01X30200Y15781D02*
G01X30177Y15713D01*
G01X30177Y15713D02*
G01X30154Y15668D01*
G01X30154Y15668D02*
G01X30109Y15622D01*
G01X30109Y15622D02*
G01X30063Y15600D01*
G01X29972Y15600D02*
G01X30063Y15600D01*
G01X29927Y15622D02*
G01X29972Y15600D01*
G01X29881Y15668D02*
G01X29927Y15622D01*
G01X29859Y15713D02*
G01X29881Y15668D01*
G01X29631Y16009D02*
G01X29677Y15986D01*
G01X29563Y16077D02*
G01X29631Y16009D01*
G01X29563Y16077D02*
G01X29563Y15600D01*
G01X29336Y16009D02*
G01X29381Y15986D01*
G01X29268Y16077D02*
G01X29336Y16009D01*
G01X29268Y16077D02*
G01X29268Y15600D01*
G04 Draw part R22*
G04 Draw part R29*
G04 Draw part C20*
G04 Draw part C15*
G04 Draw part J6*
G04 Draw part F1*
G04 Draw part C8*
G04 Draw part C10*
G04 Draw part C9*
G04 Draw part R20*
G04 Draw part R19*
G04 Draw part D3*
G04 Draw part U3*

G04 Draw traces*

G04 Draw Text*
M00*
M02*
