;Holesize 1 =   41.0 PLATED MILS
;Holesize 2 =   35.0 PLATED MILS
;Holesize 3 =   90.0 PLATED MILS
;Holesize 4 =   36.0 PLATED MILS
;Holesize 5 =   52.0 PLATED MILS
;Holesize 6 =   50.0 PLATED MILS
;Holesize 7 =   21.0 PLATED MILS
M48
INCH,00.0000
T01C0.041
T02C0.035
T03C0.090
T04C0.036
T05C0.052
T06C0.050
T07C0.021
%
G05
G90
T01
X027000Y001500
X026000Y001500
X025000Y001500
X024000Y001500
X023000Y001500
X022000Y001500
X021000Y001500
X020000Y001500
X019000Y001500
X018000Y001500
X017000Y001500
X016000Y001500
X015000Y001500
X014000Y001500
X013000Y001500
X012000Y001500
X011000Y001500
X010000Y001500
X001500Y011500
X001500Y012500
X001500Y013500
X001500Y014500
X001500Y015500
X001500Y016500
X001500Y017500
X003000Y009800
X003000Y010800
X013900Y012900
X013900Y013900
X013900Y014900
X013900Y015900
X013900Y016900
X013900Y017900
X035000Y006000
X035000Y008000
X035000Y012100
X035000Y010100
X027000Y021500
X026000Y021500
X025000Y021500
X024000Y021500
X023000Y021500
X022000Y021500
X021000Y021500
X020000Y021500
X019000Y021500
X018000Y021500
X017000Y021500
X016000Y021500
X015000Y021500
X014000Y021500
X013000Y021500
X012000Y021500
X011000Y021500
X010000Y021500
X001500Y031500
X001500Y032500
X001500Y033500
X001500Y034500
X001500Y035500
X001500Y036500
X001500Y037500
X003000Y029800
X003000Y030800
X013900Y032900
X013900Y033900
X013900Y034900
X013900Y035900
X013900Y036900
X013900Y037900
X035000Y026000
X035000Y028000
X035000Y032100
X035000Y030100
T02
X004700Y006800
X002800Y006800
X027100Y011700
X027100Y012700
X027900Y017000
X027900Y018000
X024900Y010300
X024900Y011300
X025000Y004000
X024000Y004000
X004700Y026800
X002800Y026800
X027100Y031700
X027100Y032700
X027900Y037000
X027900Y038000
X024900Y030300
X024900Y031300
X025000Y024000
X024000Y024000
T03
X020900Y015950
X016100Y015950
X020900Y035950
X016100Y035950
T04
X018010Y014100
X018990Y014100
X018990Y014890
X018010Y014890
X018010Y034100
X018990Y034100
X018990Y034890
X018010Y034890
T05
X032500Y006000
X032500Y011000
X036000Y013000
X036000Y018000
X019900Y012800
X024900Y012800
X024900Y008400
X024900Y007400
X024900Y006400
X032500Y026000
X032500Y031000
X036000Y033000
X036000Y038000
X019900Y032800
X024900Y032800
X024900Y028400
X024900Y027400
X024900Y026400
T06
X024700Y014600
X024700Y017000
X022800Y015800
X024700Y034600
X024700Y037000
X022800Y035800
T07
X006550Y008170
X021090Y008170
X014250Y008750
X015740Y008750
X014250Y009430
X015650Y009430
X019100Y011160
X009080Y011160
X014250Y010110
X015220Y010110
X009100Y008920
X010890Y017570
X011290Y008900
X006760Y012730
X018900Y011920
X018010Y010580
X016220Y010570
X012020Y006620
X006010Y011450
X012090Y007460
X030320Y012200
X029980Y011160
X029980Y011160
X008960Y010390
X009680Y010780
X009680Y010780
X008960Y010390
X012500Y014400
X014890Y014400
X011070Y016900
X010700Y009230
X028010Y012350
X026290Y005240
X020000Y004120
X018600Y004110
X022900Y007350
X026300Y008810
X022900Y007360
X020000Y004120
X009900Y017280
X004600Y014100
X013300Y008270
X013300Y008270
X017880Y008260
X018600Y004110
X013300Y008270
X017880Y008260
X009590Y014600
X006010Y012500
X030000Y016970
X008420Y016700
X006600Y016170
X004580Y012500
X008660Y009700
X012770Y007450
X011420Y010370
X008660Y009700
X017020Y007450
X012770Y007450
X012730Y004100
X015000Y003230
X017020Y004100
X016660Y013520
X030790Y017170
X028110Y013360
X004100Y008400
X008660Y009700
X031400Y012420
X012770Y007450
X012770Y006640
X005810Y006650
X004580Y011610
X012330Y008160
X014020Y011010
X015490Y013420
X003600Y013420
X006380Y006000
X022990Y006000
X010340Y014600
X003010Y014070
X008900Y014600
X018180Y011790
X009740Y011790
X006550Y028170
X021090Y028170
X014250Y028750
X015740Y028750
X014250Y029430
X015650Y029430
X019100Y031160
X009080Y031160
X014250Y030110
X015220Y030110
X009100Y028920
X010890Y037570
X011290Y028900
X006760Y032730
X018900Y031920
X018010Y030580
X016220Y030570
X012020Y026620
X006010Y031450
X012090Y027460
X030320Y032200
X029980Y031160
X029980Y031160
X008960Y030390
X009680Y030780
X009680Y030780
X008960Y030390
X012500Y034400
X014890Y034400
X011070Y036900
X010700Y029230
X028010Y032350
X026290Y025240
X020000Y024120
X018600Y024110
X022900Y027350
X026300Y028810
X022900Y027360
X020000Y024120
X009900Y037280
X004600Y034100
X013300Y028270
X013300Y028270
X017880Y028260
X018600Y024110
X013300Y028270
X017880Y028260
X009590Y034600
X006010Y032500
X030000Y036970
X008420Y036700
X006600Y036170
X004580Y032500
X008660Y029700
X012770Y027450
X011420Y030370
X008660Y029700
X017020Y027450
X012770Y027450
X012730Y024100
X015000Y023230
X017020Y024100
X016660Y033520
X030790Y037170
X028110Y033360
X004100Y028400
X008660Y029700
X031400Y032420
X012770Y027450
X012770Y026640
X005810Y026650
X004580Y031610
X012330Y028160
X014020Y031010
X015490Y033420
X003600Y033420
X006380Y026000
X022990Y026000
X010340Y034600
X003010Y034070
X008900Y034600
X018180Y031790
X009740Y031790
M30
