G04 FreePCB version 1.359*
G04 C:\Users\pmesser\_Paul\Design\DSOscope\PCB\A01\CAM_DSOscope_CPUBrd_A01\inner_copper_1.grb*
G04 inner 1 layer *
G04 Scale: 100 percent, Rotated: No, Reflected: No *
%FSLAX24Y24*%
%MOIN*%
%LN inner 1 *%
G04 Rounded Rectangle Macro, params: W/2, H/2, R *
%AMRNDREC*
21,1,$1+$1,$2+$2-$3-$3,0,0,0*
21,1,$1+$1-$3-$3,$2+$2,0,0,0*
1,1,$3+$3,$1-$3,$2-$3*
1,1,$3+$3,$3-$1,$2-$3*
1,1,$3+$3,$1-$3,$3-$2*
1,1,$3+$3,$3-$1,$3-$2*%
G04 Rectangular Thermal Macro, params: W/2, H/2, T/2 *
%AMRECTHERM*
$4=$3/2*
21,1,$1-$3,$2-$3,0-$1/2-$4,0-$2/2-$4,0*
21,1,$1-$3,$2-$3,0-$1/2-$4,$2/2+$4,0*
21,1,$1-$3,$2-$3,$1/2+$4,0-$2/2-$4,0*
21,1,$1-$3,$2-$3,$1/2+$4,$2/2+$4,0*%
%ADD10C,0.005000*%
%ADD11C,0.055000*%
%ADD12C,0.050000*%
%ADD13C,0.049000*%
%ADD14C,0.031000*%
%ADD15C,0.015000*%
G90*
G70D02*

G04 Step and Repeat for panelization *
%SRX1Y2I3.700000J2.000000*%

G04 ----------------------- Draw board outline (positive)*
%LPD*%
G54D10*
G01X0Y5000D02*
G01X0Y16500D01*
G04 end of side 1*
G01X0Y19000D01*
G04 end of side 2*
G01X37000Y19000D01*
G04 end of side 3*
G01X37000Y5000D01*
G04 end of side 4*
G01X28500Y5000D01*
G04 end of side 5*
G01X28500Y0D01*
G04 end of side 6*
G01X8500Y0D01*
G04 end of side 7*
G01X8500Y5000D01*
G04 end of side 8*
G01X0Y5000D01*
G01X8500Y0D02*
G01X0Y0D01*
G04 end of side 1*
G01X0Y5000D01*
G04 end of side 2*
G01X8500Y5000D01*
G04 end of side 3*
G01X8500Y0D01*
G01X28500Y0D02*
G01X37000Y0D01*
G04 end of side 1*
G01X37000Y5000D01*
G04 end of side 2*
G01X28500Y5000D01*
G04 end of side 3*
G01X28500Y0D01*

G04 -------------- Draw Parts, Pads, Traces, Vias and Text (positive)*
%LPD*%
G04 Draw part U2*
G04 Draw part J3*
G54D11*
G01X13000Y1500D03*
G04 Draw part R14*
G04 Draw part R12*
G04 Draw part U1*
G04 Draw part R4*
G04 Draw part R3*
G04 Draw part R2*
G04 Draw part R10*
G04 Draw part J2*
G04 Draw part J1*
G04 Draw part R5*
G04 Draw part R15*
G04 Draw part R16*
G04 Draw part R1*
G04 Draw part R7*
G04 Draw part R6*
G04 Draw part R8*
G04 Draw part R9*
G04 Draw part C6*
G04 Draw part C5*
G04 Draw part X1*
G04 Draw part C3*
G04 Draw part C4*
G04 Draw part C2*
G04 Draw part C1*
G04 Draw part C7*
G04 Draw part D1*
G04 Draw part D2*
G04 Draw part R11*
G04 Draw part R13*
G04 Draw part J5*
G54D12*
G01X18010Y14890D03*
G04 Draw part R17*
G04 Draw part R18*
G04 Draw part J4*
G04 Draw part R27*
G04 Draw part C17*
G04 Draw part C19*
G04 Draw part U5*
G04 Draw part L2*
G04 Draw part C18*
G04 Draw part R28*
G04 Draw part D5*
G04 Draw part C16*
G54D13*
G01X27100Y12700D03*
G04 Draw part R30*
G04 Draw part R31*
G04 Draw part U4*
G04 Draw part R24*
G04 Draw part R25*
G04 Draw part R26*
G04 Draw part R21*
G04 Draw part C12*
G04 Draw part L1*
G04 Draw part D4*
G04 Draw part C13*
G04 Draw part C14*
G04 Draw part R23*
G04 Draw part C11*
G04 Draw part R22*
G04 Draw part R29*
G04 Draw part C20*
G04 Draw part C15*
G04 Draw part J6*
G04 Draw part F1*
G04 Draw part C8*
G04 Draw part C10*
G04 Draw part C9*
G04 Draw part R20*
G04 Draw part R19*
G04 Draw part D3*
G04 Draw part U3*

G04 Draw traces*
G54D14*
G01X12770Y7450D03*
G54D15*
G01X12770Y7450D02*
G01X12770Y10370D01*
G01X12770Y10370D02*
G01X11420Y10370D01*
G54D14*
G01X11420Y10370D03*
G01X17020Y7450D03*
G54D15*
G01X17020Y7450D02*
G01X12770Y7450D01*
G54D14*
G01X12770Y7450D03*
G01X12730Y4100D03*
G54D15*
G01X12730Y4100D02*
G01X12730Y2840D01*
G01X12730Y2840D02*
G01X13000Y2570D01*
G01X13000Y2570D02*
G01X13000Y1500D01*
G54D14*
G01X15000Y3230D03*
G54D15*
G01X15000Y3230D02*
G01X15000Y4100D01*
G01X15000Y4100D02*
G01X17020Y4100D01*
G54D14*
G01X17020Y4100D03*
G54D15*
G01X18010Y14890D02*
G01X18030Y14890D01*
G01X18030Y14890D02*
G01X16660Y14890D01*
G01X16660Y14890D02*
G01X16660Y13520D01*
G54D14*
G01X16660Y13520D03*
G01X28110Y13360D03*
G54D15*
G01X28110Y13360D02*
G01X27100Y13360D01*
G01X27100Y13360D02*
G01X27100Y12700D01*
G54D14*
G01X4100Y8400D03*
G54D15*
G01X4100Y8400D02*
G01X4100Y9700D01*
G01X4100Y9700D02*
G01X8660Y9700D01*
G54D14*
G01X8660Y9700D03*

G04 Draw Text*
G54D10*
G01X2759Y18577D02*
G01X2759Y18100D01*
G01X2600Y18577D02*
G01X2918Y18577D01*
G01X3100Y18577D02*
G01X3100Y18100D01*
G01X3100Y18327D02*
G01X3168Y18395D01*
G01X3168Y18395D02*
G01X3213Y18418D01*
G01X3213Y18418D02*
G01X3281Y18418D01*
G01X3281Y18418D02*
G01X3327Y18395D01*
G01X3327Y18395D02*
G01X3350Y18327D01*
G01X3350Y18327D02*
G01X3350Y18100D01*
G01X3531Y18577D02*
G01X3554Y18554D01*
G01X3554Y18554D02*
G01X3577Y18577D01*
G01X3577Y18577D02*
G01X3554Y18600D01*
G01X3554Y18600D02*
G01X3531Y18577D01*
G01X3554Y18418D02*
G01X3554Y18100D01*
G01X4009Y18350D02*
G01X3986Y18395D01*
G01X3986Y18395D02*
G01X3918Y18418D01*
G01X3918Y18418D02*
G01X3849Y18418D01*
G01X3849Y18418D02*
G01X3781Y18395D01*
G01X3781Y18395D02*
G01X3759Y18350D01*
G01X3759Y18350D02*
G01X3781Y18304D01*
G01X3781Y18304D02*
G01X3827Y18281D01*
G01X3827Y18281D02*
G01X3940Y18259D01*
G01X3940Y18259D02*
G01X3986Y18236D01*
G01X3986Y18236D02*
G01X4009Y18190D01*
G01X4009Y18190D02*
G01X4009Y18168D01*
G01X4009Y18168D02*
G01X3986Y18122D01*
G01X3986Y18122D02*
G01X3918Y18100D01*
G01X3918Y18100D02*
G01X3849Y18100D01*
G01X3849Y18100D02*
G01X3781Y18122D01*
G01X3781Y18122D02*
G01X3759Y18168D01*
G01X4554Y18577D02*
G01X4577Y18554D01*
G01X4577Y18554D02*
G01X4599Y18577D01*
G01X4599Y18577D02*
G01X4577Y18600D01*
G01X4577Y18600D02*
G01X4554Y18577D01*
G01X4577Y18418D02*
G01X4577Y18100D01*
G01X5031Y18350D02*
G01X5009Y18395D01*
G01X5009Y18395D02*
G01X4940Y18418D01*
G01X4940Y18418D02*
G01X4872Y18418D01*
G01X4872Y18418D02*
G01X4804Y18395D01*
G01X4804Y18395D02*
G01X4781Y18350D01*
G01X4781Y18350D02*
G01X4804Y18304D01*
G01X4804Y18304D02*
G01X4849Y18281D01*
G01X4849Y18281D02*
G01X4963Y18259D01*
G01X4963Y18259D02*
G01X5009Y18236D01*
G01X5009Y18236D02*
G01X5031Y18190D01*
G01X5031Y18190D02*
G01X5031Y18168D01*
G01X5031Y18168D02*
G01X5009Y18122D01*
G01X5009Y18122D02*
G01X4940Y18100D01*
G01X4940Y18100D02*
G01X4872Y18100D01*
G01X4872Y18100D02*
G01X4804Y18122D01*
G01X4804Y18122D02*
G01X4781Y18168D01*
G01X5577Y18418D02*
G01X5577Y18100D01*
G01X5577Y18327D02*
G01X5645Y18395D01*
G01X5645Y18395D02*
G01X5690Y18418D01*
G01X5690Y18418D02*
G01X5759Y18418D01*
G01X5759Y18418D02*
G01X5804Y18395D01*
G01X5804Y18395D02*
G01X5827Y18327D01*
G01X5827Y18327D02*
G01X5827Y18100D01*
G01X6122Y18418D02*
G01X6077Y18395D01*
G01X6077Y18395D02*
G01X6031Y18350D01*
G01X6031Y18350D02*
G01X6009Y18281D01*
G01X6009Y18281D02*
G01X6009Y18236D01*
G01X6009Y18236D02*
G01X6031Y18168D01*
G01X6031Y18168D02*
G01X6077Y18122D01*
G01X6077Y18122D02*
G01X6122Y18100D01*
G01X6122Y18100D02*
G01X6190Y18100D01*
G01X6190Y18100D02*
G01X6236Y18122D01*
G01X6236Y18122D02*
G01X6281Y18168D01*
G01X6281Y18168D02*
G01X6304Y18236D01*
G01X6304Y18236D02*
G01X6304Y18281D01*
G01X6304Y18281D02*
G01X6281Y18350D01*
G01X6281Y18350D02*
G01X6236Y18395D01*
G01X6236Y18395D02*
G01X6190Y18418D01*
G01X6190Y18418D02*
G01X6122Y18418D01*
G01X6554Y18577D02*
G01X6554Y18190D01*
G01X6554Y18190D02*
G01X6577Y18122D01*
G01X6577Y18122D02*
G01X6622Y18100D01*
G01X6622Y18100D02*
G01X6668Y18100D01*
G01X6486Y18418D02*
G01X6645Y18418D01*
G01X7486Y18418D02*
G01X7486Y18100D01*
G01X7486Y18350D02*
G01X7440Y18395D01*
G01X7440Y18395D02*
G01X7395Y18418D01*
G01X7395Y18418D02*
G01X7327Y18418D01*
G01X7327Y18418D02*
G01X7281Y18395D01*
G01X7281Y18395D02*
G01X7236Y18350D01*
G01X7236Y18350D02*
G01X7213Y18281D01*
G01X7213Y18281D02*
G01X7213Y18236D01*
G01X7213Y18236D02*
G01X7236Y18168D01*
G01X7236Y18168D02*
G01X7281Y18122D01*
G01X7281Y18122D02*
G01X7327Y18100D01*
G01X7327Y18100D02*
G01X7395Y18100D01*
G01X7395Y18100D02*
G01X7440Y18122D01*
G01X7440Y18122D02*
G01X7486Y18168D01*
G01X8031Y18418D02*
G01X8031Y18100D01*
G01X8031Y18281D02*
G01X8054Y18350D01*
G01X8054Y18350D02*
G01X8099Y18395D01*
G01X8099Y18395D02*
G01X8145Y18418D01*
G01X8145Y18418D02*
G01X8213Y18418D01*
G01X8395Y18281D02*
G01X8668Y18281D01*
G01X8668Y18281D02*
G01X8668Y18327D01*
G01X8668Y18327D02*
G01X8645Y18372D01*
G01X8645Y18372D02*
G01X8622Y18395D01*
G01X8622Y18395D02*
G01X8577Y18418D01*
G01X8577Y18418D02*
G01X8509Y18418D01*
G01X8509Y18418D02*
G01X8463Y18395D01*
G01X8463Y18395D02*
G01X8418Y18350D01*
G01X8418Y18350D02*
G01X8395Y18281D01*
G01X8395Y18281D02*
G01X8395Y18236D01*
G01X8395Y18236D02*
G01X8418Y18168D01*
G01X8418Y18168D02*
G01X8463Y18122D01*
G01X8463Y18122D02*
G01X8509Y18100D01*
G01X8509Y18100D02*
G01X8577Y18100D01*
G01X8577Y18100D02*
G01X8622Y18122D01*
G01X8622Y18122D02*
G01X8668Y18168D01*
G01X9122Y18418D02*
G01X9122Y18100D01*
G01X9122Y18350D02*
G01X9077Y18395D01*
G01X9077Y18395D02*
G01X9031Y18418D01*
G01X9031Y18418D02*
G01X8963Y18418D01*
G01X8963Y18418D02*
G01X8918Y18395D01*
G01X8918Y18395D02*
G01X8872Y18350D01*
G01X8872Y18350D02*
G01X8849Y18281D01*
G01X8849Y18281D02*
G01X8849Y18236D01*
G01X8849Y18236D02*
G01X8872Y18168D01*
G01X8872Y18168D02*
G01X8918Y18122D01*
G01X8918Y18122D02*
G01X8963Y18100D01*
G01X8963Y18100D02*
G01X9031Y18100D01*
G01X9031Y18100D02*
G01X9077Y18122D01*
G01X9077Y18122D02*
G01X9122Y18168D01*
G01X9304Y18577D02*
G01X9304Y18100D01*
G01X9850Y18577D02*
G01X9850Y18100D01*
G01X10304Y18418D02*
G01X10304Y18100D01*
G01X10304Y18350D02*
G01X10259Y18395D01*
G01X10259Y18395D02*
G01X10213Y18418D01*
G01X10213Y18418D02*
G01X10145Y18418D01*
G01X10145Y18418D02*
G01X10099Y18395D01*
G01X10099Y18395D02*
G01X10054Y18350D01*
G01X10054Y18350D02*
G01X10031Y18281D01*
G01X10031Y18281D02*
G01X10031Y18236D01*
G01X10031Y18236D02*
G01X10054Y18168D01*
G01X10054Y18168D02*
G01X10099Y18122D01*
G01X10099Y18122D02*
G01X10145Y18100D01*
G01X10145Y18100D02*
G01X10213Y18100D01*
G01X10213Y18100D02*
G01X10259Y18122D01*
G01X10259Y18122D02*
G01X10304Y18168D01*
G01X10509Y18418D02*
G01X10645Y18100D01*
G01X10781Y18418D02*
G01X10645Y18100D01*
G01X10645Y18100D02*
G01X10599Y18009D01*
G01X10599Y18009D02*
G01X10554Y17963D01*
G01X10554Y17963D02*
G01X10509Y17940D01*
G01X10509Y17940D02*
G01X10486Y17940D01*
G01X10963Y18281D02*
G01X11236Y18281D01*
G01X11236Y18281D02*
G01X11236Y18327D01*
G01X11236Y18327D02*
G01X11213Y18372D01*
G01X11213Y18372D02*
G01X11190Y18395D01*
G01X11190Y18395D02*
G01X11145Y18418D01*
G01X11145Y18418D02*
G01X11077Y18418D01*
G01X11077Y18418D02*
G01X11031Y18395D01*
G01X11031Y18395D02*
G01X10986Y18350D01*
G01X10986Y18350D02*
G01X10963Y18281D01*
G01X10963Y18281D02*
G01X10963Y18236D01*
G01X10963Y18236D02*
G01X10986Y18168D01*
G01X10986Y18168D02*
G01X11031Y18122D01*
G01X11031Y18122D02*
G01X11077Y18100D01*
G01X11077Y18100D02*
G01X11145Y18100D01*
G01X11145Y18100D02*
G01X11190Y18122D01*
G01X11190Y18122D02*
G01X11236Y18168D01*
G01X11418Y18418D02*
G01X11418Y18100D01*
G01X11418Y18281D02*
G01X11440Y18350D01*
G01X11440Y18350D02*
G01X11486Y18395D01*
G01X11486Y18395D02*
G01X11531Y18418D01*
G01X11531Y18418D02*
G01X11599Y18418D01*
G01X11804Y18145D02*
G01X11781Y18122D01*
G01X11781Y18122D02*
G01X11804Y18100D01*
G01X11804Y18100D02*
G01X11827Y18122D01*
G01X11827Y18122D02*
G01X11804Y18145D01*
G01X12736Y18577D02*
G01X12736Y18100D01*
G01X12736Y18577D02*
G01X12895Y18577D01*
G01X12895Y18577D02*
G01X12963Y18554D01*
G01X12963Y18554D02*
G01X13009Y18509D01*
G01X13009Y18509D02*
G01X13031Y18463D01*
G01X13031Y18463D02*
G01X13054Y18395D01*
G01X13054Y18395D02*
G01X13054Y18281D01*
G01X13054Y18281D02*
G01X13031Y18213D01*
G01X13031Y18213D02*
G01X13009Y18168D01*
G01X13009Y18168D02*
G01X12963Y18122D01*
G01X12963Y18122D02*
G01X12895Y18100D01*
G01X12895Y18100D02*
G01X12736Y18100D01*
G01X13236Y18418D02*
G01X13236Y18190D01*
G01X13236Y18190D02*
G01X13259Y18122D01*
G01X13259Y18122D02*
G01X13304Y18100D01*
G01X13304Y18100D02*
G01X13372Y18100D01*
G01X13372Y18100D02*
G01X13418Y18122D01*
G01X13418Y18122D02*
G01X13486Y18190D01*
G01X13486Y18418D02*
G01X13486Y18100D01*
G01X13668Y18418D02*
G01X13668Y18100D01*
G01X13668Y18327D02*
G01X13736Y18395D01*
G01X13736Y18395D02*
G01X13781Y18418D01*
G01X13781Y18418D02*
G01X13849Y18418D01*
G01X13849Y18418D02*
G01X13895Y18395D01*
G01X13895Y18395D02*
G01X13918Y18327D01*
G01X13918Y18327D02*
G01X13918Y18100D01*
G01X13918Y18327D02*
G01X13986Y18395D01*
G01X13986Y18395D02*
G01X14031Y18418D01*
G01X14031Y18418D02*
G01X14099Y18418D01*
G01X14099Y18418D02*
G01X14145Y18395D01*
G01X14145Y18395D02*
G01X14168Y18327D01*
G01X14168Y18327D02*
G01X14168Y18100D01*
G01X14350Y18418D02*
G01X14350Y18100D01*
G01X14350Y18327D02*
G01X14418Y18395D01*
G01X14418Y18395D02*
G01X14463Y18418D01*
G01X14463Y18418D02*
G01X14531Y18418D01*
G01X14531Y18418D02*
G01X14577Y18395D01*
G01X14577Y18395D02*
G01X14600Y18327D01*
G01X14600Y18327D02*
G01X14600Y18100D01*
G01X14600Y18327D02*
G01X14668Y18395D01*
G01X14668Y18395D02*
G01X14713Y18418D01*
G01X14713Y18418D02*
G01X14781Y18418D01*
G01X14781Y18418D02*
G01X14827Y18395D01*
G01X14827Y18395D02*
G01X14850Y18327D01*
G01X14850Y18327D02*
G01X14850Y18100D01*
G01X15054Y18418D02*
G01X15190Y18100D01*
G01X15327Y18418D02*
G01X15190Y18100D01*
G01X15190Y18100D02*
G01X15145Y18009D01*
G01X15145Y18009D02*
G01X15099Y17963D01*
G01X15099Y17963D02*
G01X15054Y17940D01*
G01X15054Y17940D02*
G01X15031Y17940D01*
G01X16145Y18350D02*
G01X16099Y18395D01*
G01X16099Y18395D02*
G01X16054Y18418D01*
G01X16054Y18418D02*
G01X15986Y18418D01*
G01X15986Y18418D02*
G01X15940Y18395D01*
G01X15940Y18395D02*
G01X15895Y18350D01*
G01X15895Y18350D02*
G01X15872Y18281D01*
G01X15872Y18281D02*
G01X15872Y18236D01*
G01X15872Y18236D02*
G01X15895Y18168D01*
G01X15895Y18168D02*
G01X15940Y18122D01*
G01X15940Y18122D02*
G01X15986Y18100D01*
G01X15986Y18100D02*
G01X16054Y18100D01*
G01X16054Y18100D02*
G01X16099Y18122D01*
G01X16099Y18122D02*
G01X16145Y18168D01*
G01X16440Y18418D02*
G01X16395Y18395D01*
G01X16395Y18395D02*
G01X16349Y18350D01*
G01X16349Y18350D02*
G01X16327Y18281D01*
G01X16327Y18281D02*
G01X16327Y18236D01*
G01X16327Y18236D02*
G01X16349Y18168D01*
G01X16349Y18168D02*
G01X16395Y18122D01*
G01X16395Y18122D02*
G01X16440Y18100D01*
G01X16440Y18100D02*
G01X16509Y18100D01*
G01X16509Y18100D02*
G01X16554Y18122D01*
G01X16554Y18122D02*
G01X16599Y18168D01*
G01X16599Y18168D02*
G01X16622Y18236D01*
G01X16622Y18236D02*
G01X16622Y18281D01*
G01X16622Y18281D02*
G01X16599Y18350D01*
G01X16599Y18350D02*
G01X16554Y18395D01*
G01X16554Y18395D02*
G01X16509Y18418D01*
G01X16509Y18418D02*
G01X16440Y18418D01*
G01X16804Y18418D02*
G01X16804Y18100D01*
G01X16804Y18327D02*
G01X16872Y18395D01*
G01X16872Y18395D02*
G01X16918Y18418D01*
G01X16918Y18418D02*
G01X16986Y18418D01*
G01X16986Y18418D02*
G01X17031Y18395D01*
G01X17031Y18395D02*
G01X17054Y18327D01*
G01X17054Y18327D02*
G01X17054Y18100D01*
G01X17236Y18418D02*
G01X17236Y18100D01*
G01X17236Y18327D02*
G01X17304Y18395D01*
G01X17304Y18395D02*
G01X17349Y18418D01*
G01X17349Y18418D02*
G01X17418Y18418D01*
G01X17418Y18418D02*
G01X17463Y18395D01*
G01X17463Y18395D02*
G01X17486Y18327D01*
G01X17486Y18327D02*
G01X17486Y18100D01*
G01X17668Y18281D02*
G01X17940Y18281D01*
G01X17940Y18281D02*
G01X17940Y18327D01*
G01X17940Y18327D02*
G01X17918Y18372D01*
G01X17918Y18372D02*
G01X17895Y18395D01*
G01X17895Y18395D02*
G01X17849Y18418D01*
G01X17849Y18418D02*
G01X17781Y18418D01*
G01X17781Y18418D02*
G01X17736Y18395D01*
G01X17736Y18395D02*
G01X17690Y18350D01*
G01X17690Y18350D02*
G01X17668Y18281D01*
G01X17668Y18281D02*
G01X17668Y18236D01*
G01X17668Y18236D02*
G01X17690Y18168D01*
G01X17690Y18168D02*
G01X17736Y18122D01*
G01X17736Y18122D02*
G01X17781Y18100D01*
G01X17781Y18100D02*
G01X17849Y18100D01*
G01X17849Y18100D02*
G01X17895Y18122D01*
G01X17895Y18122D02*
G01X17940Y18168D01*
G01X18395Y18350D02*
G01X18349Y18395D01*
G01X18349Y18395D02*
G01X18304Y18418D01*
G01X18304Y18418D02*
G01X18236Y18418D01*
G01X18236Y18418D02*
G01X18190Y18395D01*
G01X18190Y18395D02*
G01X18145Y18350D01*
G01X18145Y18350D02*
G01X18122Y18281D01*
G01X18122Y18281D02*
G01X18122Y18236D01*
G01X18122Y18236D02*
G01X18145Y18168D01*
G01X18145Y18168D02*
G01X18190Y18122D01*
G01X18190Y18122D02*
G01X18236Y18100D01*
G01X18236Y18100D02*
G01X18304Y18100D01*
G01X18304Y18100D02*
G01X18349Y18122D01*
G01X18349Y18122D02*
G01X18395Y18168D01*
G01X18645Y18577D02*
G01X18645Y18190D01*
G01X18645Y18190D02*
G01X18668Y18122D01*
G01X18668Y18122D02*
G01X18713Y18100D01*
G01X18713Y18100D02*
G01X18759Y18100D01*
G01X18577Y18418D02*
G01X18736Y18418D01*
G01X19190Y18350D02*
G01X19168Y18395D01*
G01X19168Y18395D02*
G01X19099Y18418D01*
G01X19099Y18418D02*
G01X19031Y18418D01*
G01X19031Y18418D02*
G01X18963Y18395D01*
G01X18963Y18395D02*
G01X18940Y18350D01*
G01X18940Y18350D02*
G01X18963Y18304D01*
G01X18963Y18304D02*
G01X19009Y18281D01*
G01X19009Y18281D02*
G01X19122Y18259D01*
G01X19122Y18259D02*
G01X19168Y18236D01*
G01X19168Y18236D02*
G01X19190Y18190D01*
G01X19190Y18190D02*
G01X19190Y18168D01*
G01X19190Y18168D02*
G01X19168Y18122D01*
G01X19168Y18122D02*
G01X19099Y18100D01*
G01X19099Y18100D02*
G01X19031Y18100D01*
G01X19031Y18100D02*
G01X18963Y18122D01*
G01X18963Y18122D02*
G01X18940Y18168D01*
G01X19804Y18577D02*
G01X19804Y18190D01*
G01X19804Y18190D02*
G01X19827Y18122D01*
G01X19827Y18122D02*
G01X19872Y18100D01*
G01X19872Y18100D02*
G01X19918Y18100D01*
G01X19736Y18418D02*
G01X19895Y18418D01*
G01X20213Y18418D02*
G01X20168Y18395D01*
G01X20168Y18395D02*
G01X20122Y18350D01*
G01X20122Y18350D02*
G01X20100Y18281D01*
G01X20100Y18281D02*
G01X20100Y18236D01*
G01X20100Y18236D02*
G01X20122Y18168D01*
G01X20122Y18168D02*
G01X20168Y18122D01*
G01X20168Y18122D02*
G01X20213Y18100D01*
G01X20213Y18100D02*
G01X20281Y18100D01*
G01X20281Y18100D02*
G01X20327Y18122D01*
G01X20327Y18122D02*
G01X20372Y18168D01*
G01X20372Y18168D02*
G01X20395Y18236D01*
G01X20395Y18236D02*
G01X20395Y18281D01*
G01X20395Y18281D02*
G01X20372Y18350D01*
G01X20372Y18350D02*
G01X20327Y18395D01*
G01X20327Y18395D02*
G01X20281Y18418D01*
G01X20281Y18418D02*
G01X20213Y18418D01*
G01X20940Y18418D02*
G01X20940Y18100D01*
G01X20940Y18327D02*
G01X21009Y18395D01*
G01X21009Y18395D02*
G01X21054Y18418D01*
G01X21054Y18418D02*
G01X21122Y18418D01*
G01X21122Y18418D02*
G01X21168Y18395D01*
G01X21168Y18395D02*
G01X21190Y18327D01*
G01X21190Y18327D02*
G01X21190Y18100D01*
G01X21190Y18327D02*
G01X21259Y18395D01*
G01X21259Y18395D02*
G01X21304Y18418D01*
G01X21304Y18418D02*
G01X21372Y18418D01*
G01X21372Y18418D02*
G01X21418Y18395D01*
G01X21418Y18395D02*
G01X21440Y18327D01*
G01X21440Y18327D02*
G01X21440Y18100D01*
G01X21895Y18418D02*
G01X21895Y18100D01*
G01X21895Y18350D02*
G01X21849Y18395D01*
G01X21849Y18395D02*
G01X21804Y18418D01*
G01X21804Y18418D02*
G01X21736Y18418D01*
G01X21736Y18418D02*
G01X21690Y18395D01*
G01X21690Y18395D02*
G01X21645Y18350D01*
G01X21645Y18350D02*
G01X21622Y18281D01*
G01X21622Y18281D02*
G01X21622Y18236D01*
G01X21622Y18236D02*
G01X21645Y18168D01*
G01X21645Y18168D02*
G01X21690Y18122D01*
G01X21690Y18122D02*
G01X21736Y18100D01*
G01X21736Y18100D02*
G01X21804Y18100D01*
G01X21804Y18100D02*
G01X21849Y18122D01*
G01X21849Y18122D02*
G01X21895Y18168D01*
G01X22077Y18577D02*
G01X22077Y18100D01*
G01X22304Y18418D02*
G01X22077Y18190D01*
G01X22168Y18281D02*
G01X22327Y18100D01*
G01X22509Y18281D02*
G01X22781Y18281D01*
G01X22781Y18281D02*
G01X22781Y18327D01*
G01X22781Y18327D02*
G01X22759Y18372D01*
G01X22759Y18372D02*
G01X22736Y18395D01*
G01X22736Y18395D02*
G01X22690Y18418D01*
G01X22690Y18418D02*
G01X22622Y18418D01*
G01X22622Y18418D02*
G01X22577Y18395D01*
G01X22577Y18395D02*
G01X22531Y18350D01*
G01X22531Y18350D02*
G01X22509Y18281D01*
G01X22509Y18281D02*
G01X22509Y18236D01*
G01X22509Y18236D02*
G01X22531Y18168D01*
G01X22531Y18168D02*
G01X22577Y18122D01*
G01X22577Y18122D02*
G01X22622Y18100D01*
G01X22622Y18100D02*
G01X22690Y18100D01*
G01X22690Y18100D02*
G01X22736Y18122D01*
G01X22736Y18122D02*
G01X22781Y18168D01*
G01X23327Y18577D02*
G01X23327Y18100D01*
G01X23327Y18577D02*
G01X23622Y18577D01*
G01X23327Y18350D02*
G01X23509Y18350D01*
G01X23804Y18418D02*
G01X23804Y18100D01*
G01X23804Y18281D02*
G01X23827Y18350D01*
G01X23827Y18350D02*
G01X23872Y18395D01*
G01X23872Y18395D02*
G01X23918Y18418D01*
G01X23918Y18418D02*
G01X23986Y18418D01*
G01X24168Y18281D02*
G01X24440Y18281D01*
G01X24440Y18281D02*
G01X24440Y18327D01*
G01X24440Y18327D02*
G01X24418Y18372D01*
G01X24418Y18372D02*
G01X24395Y18395D01*
G01X24395Y18395D02*
G01X24349Y18418D01*
G01X24349Y18418D02*
G01X24281Y18418D01*
G01X24281Y18418D02*
G01X24236Y18395D01*
G01X24236Y18395D02*
G01X24190Y18350D01*
G01X24190Y18350D02*
G01X24168Y18281D01*
G01X24168Y18281D02*
G01X24168Y18236D01*
G01X24168Y18236D02*
G01X24190Y18168D01*
G01X24190Y18168D02*
G01X24236Y18122D01*
G01X24236Y18122D02*
G01X24281Y18100D01*
G01X24281Y18100D02*
G01X24349Y18100D01*
G01X24349Y18100D02*
G01X24395Y18122D01*
G01X24395Y18122D02*
G01X24440Y18168D01*
G01X24622Y18281D02*
G01X24895Y18281D01*
G01X24895Y18281D02*
G01X24895Y18327D01*
G01X24895Y18327D02*
G01X24872Y18372D01*
G01X24872Y18372D02*
G01X24849Y18395D01*
G01X24849Y18395D02*
G01X24804Y18418D01*
G01X24804Y18418D02*
G01X24736Y18418D01*
G01X24736Y18418D02*
G01X24690Y18395D01*
G01X24690Y18395D02*
G01X24645Y18350D01*
G01X24645Y18350D02*
G01X24622Y18281D01*
G01X24622Y18281D02*
G01X24622Y18236D01*
G01X24622Y18236D02*
G01X24645Y18168D01*
G01X24645Y18168D02*
G01X24690Y18122D01*
G01X24690Y18122D02*
G01X24736Y18100D01*
G01X24736Y18100D02*
G01X24804Y18100D01*
G01X24804Y18100D02*
G01X24849Y18122D01*
G01X24849Y18122D02*
G01X24895Y18168D01*
G01X25077Y18577D02*
G01X25077Y18100D01*
G01X25077Y18577D02*
G01X25281Y18577D01*
G01X25281Y18577D02*
G01X25349Y18554D01*
G01X25349Y18554D02*
G01X25372Y18531D01*
G01X25372Y18531D02*
G01X25395Y18486D01*
G01X25395Y18486D02*
G01X25395Y18418D01*
G01X25395Y18418D02*
G01X25372Y18372D01*
G01X25372Y18372D02*
G01X25349Y18350D01*
G01X25349Y18350D02*
G01X25281Y18327D01*
G01X25281Y18327D02*
G01X25077Y18327D01*
G01X25918Y18463D02*
G01X25895Y18509D01*
G01X25895Y18509D02*
G01X25849Y18554D01*
G01X25849Y18554D02*
G01X25804Y18577D01*
G01X25804Y18577D02*
G01X25713Y18577D01*
G01X25713Y18577D02*
G01X25668Y18554D01*
G01X25668Y18554D02*
G01X25622Y18509D01*
G01X25622Y18509D02*
G01X25599Y18463D01*
G01X25599Y18463D02*
G01X25577Y18395D01*
G01X25577Y18395D02*
G01X25577Y18281D01*
G01X25577Y18281D02*
G01X25599Y18213D01*
G01X25599Y18213D02*
G01X25622Y18168D01*
G01X25622Y18168D02*
G01X25668Y18122D01*
G01X25668Y18122D02*
G01X25713Y18100D01*
G01X25713Y18100D02*
G01X25804Y18100D01*
G01X25804Y18100D02*
G01X25849Y18122D01*
G01X25849Y18122D02*
G01X25895Y18168D01*
G01X25895Y18168D02*
G01X25918Y18213D01*
G01X26100Y18577D02*
G01X26100Y18100D01*
G01X26100Y18577D02*
G01X26304Y18577D01*
G01X26304Y18577D02*
G01X26372Y18554D01*
G01X26372Y18554D02*
G01X26395Y18531D01*
G01X26395Y18531D02*
G01X26418Y18486D01*
G01X26418Y18486D02*
G01X26418Y18440D01*
G01X26418Y18440D02*
G01X26395Y18395D01*
G01X26395Y18395D02*
G01X26372Y18372D01*
G01X26372Y18372D02*
G01X26304Y18350D01*
G01X26100Y18350D02*
G01X26304Y18350D01*
G01X26304Y18350D02*
G01X26372Y18327D01*
G01X26372Y18327D02*
G01X26395Y18304D01*
G01X26395Y18304D02*
G01X26418Y18259D01*
G01X26418Y18259D02*
G01X26418Y18190D01*
G01X26418Y18190D02*
G01X26395Y18145D01*
G01X26395Y18145D02*
G01X26372Y18122D01*
G01X26372Y18122D02*
G01X26304Y18100D01*
G01X26304Y18100D02*
G01X26100Y18100D01*
G01X26963Y18418D02*
G01X26963Y18100D01*
G01X26963Y18327D02*
G01X27031Y18395D01*
G01X27031Y18395D02*
G01X27077Y18418D01*
G01X27077Y18418D02*
G01X27145Y18418D01*
G01X27145Y18418D02*
G01X27190Y18395D01*
G01X27190Y18395D02*
G01X27213Y18327D01*
G01X27213Y18327D02*
G01X27213Y18100D01*
G01X27395Y18281D02*
G01X27668Y18281D01*
G01X27668Y18281D02*
G01X27668Y18327D01*
G01X27668Y18327D02*
G01X27645Y18372D01*
G01X27645Y18372D02*
G01X27622Y18395D01*
G01X27622Y18395D02*
G01X27577Y18418D01*
G01X27577Y18418D02*
G01X27509Y18418D01*
G01X27509Y18418D02*
G01X27463Y18395D01*
G01X27463Y18395D02*
G01X27418Y18350D01*
G01X27418Y18350D02*
G01X27395Y18281D01*
G01X27395Y18281D02*
G01X27395Y18236D01*
G01X27395Y18236D02*
G01X27418Y18168D01*
G01X27418Y18168D02*
G01X27463Y18122D01*
G01X27463Y18122D02*
G01X27509Y18100D01*
G01X27509Y18100D02*
G01X27577Y18100D01*
G01X27577Y18100D02*
G01X27622Y18122D01*
G01X27622Y18122D02*
G01X27668Y18168D01*
G01X27918Y18577D02*
G01X27918Y18190D01*
G01X27918Y18190D02*
G01X27940Y18122D01*
G01X27940Y18122D02*
G01X27986Y18100D01*
G01X27986Y18100D02*
G01X28031Y18100D01*
G01X27850Y18418D02*
G01X28009Y18418D01*
G01X28849Y18350D02*
G01X28804Y18395D01*
G01X28804Y18395D02*
G01X28759Y18418D01*
G01X28759Y18418D02*
G01X28690Y18418D01*
G01X28690Y18418D02*
G01X28645Y18395D01*
G01X28645Y18395D02*
G01X28599Y18350D01*
G01X28599Y18350D02*
G01X28577Y18281D01*
G01X28577Y18281D02*
G01X28577Y18236D01*
G01X28577Y18236D02*
G01X28599Y18168D01*
G01X28599Y18168D02*
G01X28645Y18122D01*
G01X28645Y18122D02*
G01X28690Y18100D01*
G01X28690Y18100D02*
G01X28759Y18100D01*
G01X28759Y18100D02*
G01X28804Y18122D01*
G01X28804Y18122D02*
G01X28849Y18168D01*
G01X29031Y18577D02*
G01X29031Y18100D01*
G01X29031Y18327D02*
G01X29099Y18395D01*
G01X29099Y18395D02*
G01X29145Y18418D01*
G01X29145Y18418D02*
G01X29213Y18418D01*
G01X29213Y18418D02*
G01X29259Y18395D01*
G01X29259Y18395D02*
G01X29281Y18327D01*
G01X29281Y18327D02*
G01X29281Y18100D01*
G01X29463Y18281D02*
G01X29736Y18281D01*
G01X29736Y18281D02*
G01X29736Y18327D01*
G01X29736Y18327D02*
G01X29713Y18372D01*
G01X29713Y18372D02*
G01X29690Y18395D01*
G01X29690Y18395D02*
G01X29645Y18418D01*
G01X29645Y18418D02*
G01X29577Y18418D01*
G01X29577Y18418D02*
G01X29531Y18395D01*
G01X29531Y18395D02*
G01X29486Y18350D01*
G01X29486Y18350D02*
G01X29463Y18281D01*
G01X29463Y18281D02*
G01X29463Y18236D01*
G01X29463Y18236D02*
G01X29486Y18168D01*
G01X29486Y18168D02*
G01X29531Y18122D01*
G01X29531Y18122D02*
G01X29577Y18100D01*
G01X29577Y18100D02*
G01X29645Y18100D01*
G01X29645Y18100D02*
G01X29690Y18122D01*
G01X29690Y18122D02*
G01X29736Y18168D01*
G01X30190Y18350D02*
G01X30145Y18395D01*
G01X30145Y18395D02*
G01X30099Y18418D01*
G01X30099Y18418D02*
G01X30031Y18418D01*
G01X30031Y18418D02*
G01X29986Y18395D01*
G01X29986Y18395D02*
G01X29940Y18350D01*
G01X29940Y18350D02*
G01X29918Y18281D01*
G01X29918Y18281D02*
G01X29918Y18236D01*
G01X29918Y18236D02*
G01X29940Y18168D01*
G01X29940Y18168D02*
G01X29986Y18122D01*
G01X29986Y18122D02*
G01X30031Y18100D01*
G01X30031Y18100D02*
G01X30099Y18100D01*
G01X30099Y18100D02*
G01X30145Y18122D01*
G01X30145Y18122D02*
G01X30190Y18168D01*
G01X30372Y18577D02*
G01X30372Y18100D01*
G01X30599Y18418D02*
G01X30372Y18190D01*
G01X30463Y18281D02*
G01X30622Y18100D01*
G01X31168Y18577D02*
G01X31168Y18100D01*
G01X31168Y18327D02*
G01X31236Y18395D01*
G01X31236Y18395D02*
G01X31281Y18418D01*
G01X31281Y18418D02*
G01X31349Y18418D01*
G01X31349Y18418D02*
G01X31395Y18395D01*
G01X31395Y18395D02*
G01X31418Y18327D01*
G01X31418Y18327D02*
G01X31418Y18100D01*
G01X31872Y18418D02*
G01X31872Y18100D01*
G01X31872Y18350D02*
G01X31827Y18395D01*
G01X31827Y18395D02*
G01X31781Y18418D01*
G01X31781Y18418D02*
G01X31713Y18418D01*
G01X31713Y18418D02*
G01X31668Y18395D01*
G01X31668Y18395D02*
G01X31622Y18350D01*
G01X31622Y18350D02*
G01X31600Y18281D01*
G01X31600Y18281D02*
G01X31600Y18236D01*
G01X31600Y18236D02*
G01X31622Y18168D01*
G01X31622Y18168D02*
G01X31668Y18122D01*
G01X31668Y18122D02*
G01X31713Y18100D01*
G01X31713Y18100D02*
G01X31781Y18100D01*
G01X31781Y18100D02*
G01X31827Y18122D01*
G01X31827Y18122D02*
G01X31872Y18168D01*
G01X32054Y18418D02*
G01X32054Y17940D01*
G01X32054Y18350D02*
G01X32099Y18395D01*
G01X32099Y18395D02*
G01X32145Y18418D01*
G01X32145Y18418D02*
G01X32213Y18418D01*
G01X32213Y18418D02*
G01X32259Y18395D01*
G01X32259Y18395D02*
G01X32304Y18350D01*
G01X32304Y18350D02*
G01X32327Y18281D01*
G01X32327Y18281D02*
G01X32327Y18236D01*
G01X32327Y18236D02*
G01X32304Y18168D01*
G01X32304Y18168D02*
G01X32259Y18122D01*
G01X32259Y18122D02*
G01X32213Y18100D01*
G01X32213Y18100D02*
G01X32145Y18100D01*
G01X32145Y18100D02*
G01X32099Y18122D01*
G01X32099Y18122D02*
G01X32054Y18168D01*
G01X32509Y18418D02*
G01X32509Y17940D01*
G01X32509Y18350D02*
G01X32554Y18395D01*
G01X32554Y18395D02*
G01X32599Y18418D01*
G01X32599Y18418D02*
G01X32668Y18418D01*
G01X32668Y18418D02*
G01X32713Y18395D01*
G01X32713Y18395D02*
G01X32759Y18350D01*
G01X32759Y18350D02*
G01X32781Y18281D01*
G01X32781Y18281D02*
G01X32781Y18236D01*
G01X32781Y18236D02*
G01X32759Y18168D01*
G01X32759Y18168D02*
G01X32713Y18122D01*
G01X32713Y18122D02*
G01X32668Y18100D01*
G01X32668Y18100D02*
G01X32599Y18100D01*
G01X32599Y18100D02*
G01X32554Y18122D01*
G01X32554Y18122D02*
G01X32509Y18168D01*
G01X32986Y18418D02*
G01X33122Y18100D01*
G01X33259Y18418D02*
G01X33122Y18100D01*
G01X33122Y18100D02*
G01X33077Y18009D01*
G01X33077Y18009D02*
G01X33031Y17963D01*
G01X33031Y17963D02*
G01X32986Y17940D01*
G01X32986Y17940D02*
G01X32963Y17940D01*
G01X33463Y18145D02*
G01X33440Y18122D01*
G01X33440Y18122D02*
G01X33463Y18100D01*
G01X33463Y18100D02*
G01X33486Y18122D01*
G01X33486Y18122D02*
G01X33463Y18145D01*
M00*
M02*
