G04 FreePCB version 1.359*
G04 C:\Users\pmesser\_Paul\Design\DSOscope\PCB\A03\CAM_DSOscope_AnalogBrd_A03\inner_copper_2.grb*
G04 inner 2 layer *
G04 Scale: 100 percent, Rotated: No, Reflected: No *
%FSLAX24Y24*%
%MOIN*%
%LN inner 2 *%
G04 Rounded Rectangle Macro, params: W/2, H/2, R *
%AMRNDREC*
21,1,$1+$1,$2+$2-$3-$3,0,0,0*
21,1,$1+$1-$3-$3,$2+$2,0,0,0*
1,1,$3+$3,$1-$3,$2-$3*
1,1,$3+$3,$3-$1,$2-$3*
1,1,$3+$3,$1-$3,$3-$2*
1,1,$3+$3,$3-$1,$3-$2*%
G04 Rectangular Thermal Macro, params: W/2, H/2, T/2 *
%AMRECTHERM*
$4=$3/2*
21,1,$1-$3,$2-$3,0-$1/2-$4,0-$2/2-$4,0*
21,1,$1-$3,$2-$3,0-$1/2-$4,$2/2+$4,0*
21,1,$1-$3,$2-$3,$1/2+$4,0-$2/2-$4,0*
21,1,$1-$3,$2-$3,$1/2+$4,$2/2+$4,0*%
%ADD10C,0.010000*%
%ADD11C,0.069000*%
%ADD12C,0.031000*%
%ADD13C,0.015000*%
%ADD14C,0.006500*%
G90*
G70D02*

G04 Step and Repeat for panelization *

G04 ----------------------- Draw board outline (positive)*
%LPD*%
G54D10*
G01X0Y0D02*
G01X0Y19000D01*
G04 end of side 1*
G01X37000Y19000D01*
G04 end of side 2*
G01X37000Y0D01*
G04 end of side 3*
G01X0Y0D01*

G04 -------------- Draw Parts, Pads, Traces, Vias and Text (positive)*
%LPD*%
G04 Draw part J1*
G04 Draw part U1*
G04 Draw part C1*
G04 Draw part SW2*
G04 Draw part R3*
G04 Draw part R6*
G04 Draw part SW1*
G04 Draw part R1*
G04 Draw part C2*
G04 Draw part R2*
G04 Draw part R10*
G04 Draw part SW3*
G04 Draw part R5*
G04 Draw part R8*
G04 Draw part R12*
G04 Draw part R11*
G04 Draw part U3*
G04 Draw part R7*
G04 Draw part R4*
G04 Draw part R9*
G04 Draw part J2*
G04 Draw part U2*
G04 Draw part C3*
G04 Draw part SW6*
G04 Draw part R16*
G04 Draw part R19*
G04 Draw part SW5*
G04 Draw part R14*
G04 Draw part C4*
G04 Draw part R15*
G04 Draw part R23*
G04 Draw part SW7*
G04 Draw part R18*
G04 Draw part R21*
G04 Draw part R25*
G04 Draw part R24*
G04 Draw part R20*
G04 Draw part R17*
G04 Draw part R22*
G04 Draw part R13*
G04 Draw part SW4*
G04 Draw part J3*
G04 Draw part C5*
G04 Draw part C6*
G04 Draw part C7*
G04 Draw part C9*
G04 Draw part C10*
G04 Draw part C11*
G04 Draw part U4*
G04 Draw part C8*
G04 Draw part C12*
G04 Draw part D1*
G04 Draw part D2*
G04 Draw part D4*
G04 Draw part D5*
G04 Draw part R29*
G54D11*
G01X14600Y5500D03*
G01X14600Y7000D03*
G04 Draw part R28*
G04 Draw part R26*
G04 Draw part R27*
G04 Draw part C13*
G04 Draw part D6*
G04 Draw part D7*
G04 Draw part R30*
G04 Draw part R31*
G04 Draw part R32*
G04 Draw part D8*
G04 Draw part D11*
G04 Draw part D9*
G04 Draw part D10*
G04 Draw part C14*
G04 Draw part C15*
G04 Draw part R33*
G04 Draw part R34*
G04 Draw part C18*
G04 Draw part C16*
G04 Draw part C17*
G04 Draw part D3*
G04 Draw part R35*
G04 Draw part R36*
G04 Draw part R37*
G04 Draw part J4*

G04 Draw traces*
G54D12*
G01X14000Y2600D03*
G54D13*
G01X14000Y2600D02*
G01X9050Y2600D01*
G54D12*
G01X9050Y2600D03*
G01X14000Y2600D03*
G54D13*
G01X14000Y2600D02*
G01X27850Y2600D01*
G54D12*
G01X27850Y2600D03*
G01X27650Y10400D03*
G54D13*
G01X27650Y10400D02*
G01X27650Y3350D01*
G54D12*
G01X27650Y3350D03*
G01X22250Y7000D03*
G54D13*
G01X22250Y7000D02*
G01X14600Y7000D01*
G54D12*
G01X15800Y11150D03*
G54D13*
G01X15800Y11150D02*
G01X26900Y11150D01*
G54D12*
G01X26900Y11150D03*
G01X10750Y7750D03*
G54D13*
G01X10750Y7750D02*
G01X16950Y7750D01*
G54D12*
G01X16950Y7750D03*
G01X15800Y11150D03*
G54D13*
G01X15800Y11150D02*
G01X15350Y11600D01*
G01X15350Y11600D02*
G01X13250Y11600D01*
G01X13250Y11600D02*
G01X12800Y11150D01*
G01X12800Y11150D02*
G01X12300Y11150D01*
G54D12*
G01X12300Y11150D03*
G01X15800Y11150D03*
G54D13*
G01X15800Y11150D02*
G01X15350Y11600D01*
G01X15350Y11600D02*
G01X13250Y11600D01*
G01X13250Y11600D02*
G01X12800Y11150D01*
G01X12800Y11150D02*
G01X12300Y11150D01*
G54D12*
G01X12300Y11150D03*
G01X7800Y10350D03*
G54D13*
G01X7800Y10350D02*
G01X11500Y10350D01*
G54D12*
G01X11500Y10350D03*
G01X13800Y14300D03*
G54D13*
G01X13800Y14300D02*
G01X22800Y14300D01*
G54D12*
G01X22800Y14300D03*
G01X24800Y10200D03*
G54D13*
G01X24800Y10200D02*
G01X24800Y3400D01*
G54D12*
G01X24800Y3400D03*
G01X22200Y5500D03*
G54D13*
G01X22200Y5500D02*
G01X20050Y5500D01*
G54D12*
G01X20050Y5500D03*
G01X20050Y5500D03*
G54D13*
G01X20050Y5500D02*
G01X19700Y5850D01*
G01X19700Y5850D02*
G01X16850Y5850D01*
G01X16850Y5850D02*
G01X16500Y5500D01*
G01X16500Y5500D02*
G01X14600Y5500D01*
G54D12*
G01X10500Y11100D03*
G54D13*
G01X10500Y11100D02*
G01X1000Y11100D01*
G54D12*
G01X1000Y11100D03*
G01X22200Y5500D03*
G54D13*
G01X22200Y5500D02*
G01X20050Y5500D01*
G54D12*
G01X20050Y5500D03*
G01X20050Y5500D03*
G54D13*
G01X20050Y5500D02*
G01X22200Y5500D01*
G54D12*
G01X22200Y5500D03*
G01X22200Y5500D03*
G54D13*
G01X22200Y5500D02*
G01X20050Y5500D01*
G54D12*
G01X20050Y5500D03*
G01X16550Y4500D03*
G54D13*
G01X16550Y4500D02*
G01X13150Y4500D01*
G01X13150Y4500D02*
G01X12900Y4250D01*
G01X12900Y4250D02*
G01X12100Y4250D01*
G01X12100Y4250D02*
G01X11850Y4500D01*
G54D12*
G01X11850Y4500D03*

G04 Draw Text*
G54D14*
G01X4722Y17345D02*
G01X4745Y17322D01*
G01X4745Y17322D02*
G01X4722Y17300D01*
G01X4722Y17300D02*
G01X4700Y17322D01*
G01X4700Y17322D02*
G01X4722Y17345D01*
G01X5245Y17777D02*
G01X5245Y17300D01*
G01X5245Y17777D02*
G01X5040Y17777D01*
G01X5040Y17777D02*
G01X4972Y17754D01*
G01X4972Y17754D02*
G01X4949Y17731D01*
G01X4949Y17731D02*
G01X4927Y17686D01*
G01X4927Y17686D02*
G01X4927Y17640D01*
G01X4927Y17640D02*
G01X4949Y17595D01*
G01X4949Y17595D02*
G01X4972Y17572D01*
G01X4972Y17572D02*
G01X5040Y17550D01*
G01X5245Y17550D02*
G01X5040Y17550D01*
G01X5040Y17550D02*
G01X4972Y17527D01*
G01X4972Y17527D02*
G01X4949Y17504D01*
G01X4949Y17504D02*
G01X4927Y17459D01*
G01X4927Y17459D02*
G01X4927Y17390D01*
G01X4927Y17390D02*
G01X4949Y17345D01*
G01X4949Y17345D02*
G01X4972Y17322D01*
G01X4972Y17322D02*
G01X5040Y17300D01*
G01X5040Y17300D02*
G01X5245Y17300D01*
G01X5427Y17663D02*
G01X5449Y17709D01*
G01X5449Y17709D02*
G01X5495Y17754D01*
G01X5495Y17754D02*
G01X5540Y17777D01*
G01X5540Y17777D02*
G01X5631Y17777D01*
G01X5631Y17777D02*
G01X5677Y17754D01*
G01X5677Y17754D02*
G01X5722Y17709D01*
G01X5722Y17709D02*
G01X5745Y17663D01*
G01X5745Y17663D02*
G01X5768Y17595D01*
G01X5768Y17595D02*
G01X5768Y17481D01*
G01X5768Y17481D02*
G01X5745Y17413D01*
G01X5745Y17413D02*
G01X5722Y17368D01*
G01X5722Y17368D02*
G01X5677Y17322D01*
G01X5677Y17322D02*
G01X5631Y17300D01*
G01X5631Y17300D02*
G01X5540Y17300D01*
G01X5540Y17300D02*
G01X5495Y17322D01*
G01X5495Y17322D02*
G01X5449Y17368D01*
G01X5449Y17368D02*
G01X5427Y17413D01*
G01X6268Y17777D02*
G01X6268Y17300D01*
G01X6268Y17777D02*
G01X6063Y17777D01*
G01X6063Y17777D02*
G01X5995Y17754D01*
G01X5995Y17754D02*
G01X5972Y17731D01*
G01X5972Y17731D02*
G01X5950Y17686D01*
G01X5950Y17686D02*
G01X5950Y17618D01*
G01X5950Y17618D02*
G01X5972Y17572D01*
G01X5972Y17572D02*
G01X5995Y17550D01*
G01X5995Y17550D02*
G01X6063Y17527D01*
G01X6063Y17527D02*
G01X6268Y17527D01*
G01X7086Y17481D02*
G01X6813Y17481D01*
G01X6813Y17481D02*
G01X6813Y17527D01*
G01X6813Y17527D02*
G01X6836Y17572D01*
G01X6836Y17572D02*
G01X6859Y17595D01*
G01X6859Y17595D02*
G01X6904Y17618D01*
G01X6904Y17618D02*
G01X6972Y17618D01*
G01X6972Y17618D02*
G01X7018Y17595D01*
G01X7018Y17595D02*
G01X7063Y17550D01*
G01X7063Y17550D02*
G01X7086Y17481D01*
G01X7086Y17481D02*
G01X7086Y17436D01*
G01X7086Y17436D02*
G01X7063Y17368D01*
G01X7063Y17368D02*
G01X7018Y17322D01*
G01X7018Y17322D02*
G01X6972Y17300D01*
G01X6972Y17300D02*
G01X6904Y17300D01*
G01X6904Y17300D02*
G01X6859Y17322D01*
G01X6859Y17322D02*
G01X6813Y17368D01*
G01X7518Y17777D02*
G01X7518Y17300D01*
G01X7518Y17527D02*
G01X7449Y17595D01*
G01X7449Y17595D02*
G01X7404Y17618D01*
G01X7404Y17618D02*
G01X7336Y17618D01*
G01X7336Y17618D02*
G01X7290Y17595D01*
G01X7290Y17595D02*
G01X7268Y17527D01*
G01X7268Y17527D02*
G01X7268Y17300D01*
G01X7813Y17777D02*
G01X7813Y17390D01*
G01X7813Y17390D02*
G01X7790Y17322D01*
G01X7790Y17322D02*
G01X7745Y17300D01*
G01X7745Y17300D02*
G01X7700Y17300D01*
G01X7881Y17618D02*
G01X7722Y17618D01*
G01X8427Y17777D02*
G01X8472Y17777D01*
G01X8472Y17777D02*
G01X8518Y17754D01*
G01X8518Y17754D02*
G01X8540Y17686D01*
G01X8540Y17686D02*
G01X8540Y17300D01*
G01X8609Y17618D02*
G01X8449Y17618D01*
G01X8972Y17618D02*
G01X9018Y17595D01*
G01X9018Y17595D02*
G01X9063Y17550D01*
G01X9063Y17550D02*
G01X9086Y17481D01*
G01X9086Y17481D02*
G01X9086Y17436D01*
G01X9086Y17436D02*
G01X9063Y17368D01*
G01X9063Y17368D02*
G01X9018Y17322D01*
G01X9018Y17322D02*
G01X8972Y17300D01*
G01X8972Y17300D02*
G01X8904Y17300D01*
G01X8904Y17300D02*
G01X8859Y17322D01*
G01X8859Y17322D02*
G01X8813Y17368D01*
G01X8813Y17368D02*
G01X8790Y17436D01*
G01X8790Y17436D02*
G01X8790Y17481D01*
G01X8790Y17481D02*
G01X8813Y17550D01*
G01X8813Y17550D02*
G01X8859Y17595D01*
G01X8859Y17595D02*
G01X8904Y17618D01*
G01X8904Y17618D02*
G01X8972Y17618D01*
G01X9904Y17481D02*
G01X9631Y17481D01*
G01X9631Y17481D02*
G01X9631Y17527D01*
G01X9631Y17527D02*
G01X9654Y17572D01*
G01X9654Y17572D02*
G01X9677Y17595D01*
G01X9677Y17595D02*
G01X9722Y17618D01*
G01X9722Y17618D02*
G01X9790Y17618D01*
G01X9790Y17618D02*
G01X9836Y17595D01*
G01X9836Y17595D02*
G01X9881Y17550D01*
G01X9881Y17550D02*
G01X9904Y17481D01*
G01X9904Y17481D02*
G01X9904Y17436D01*
G01X9904Y17436D02*
G01X9881Y17368D01*
G01X9881Y17368D02*
G01X9836Y17322D01*
G01X9836Y17322D02*
G01X9790Y17300D01*
G01X9790Y17300D02*
G01X9722Y17300D01*
G01X9722Y17300D02*
G01X9677Y17322D01*
G01X9677Y17322D02*
G01X9631Y17368D01*
G01X10086Y17777D02*
G01X10086Y17300D01*
G01X10086Y17550D02*
G01X10131Y17595D01*
G01X10131Y17595D02*
G01X10177Y17618D01*
G01X10177Y17618D02*
G01X10245Y17618D01*
G01X10245Y17618D02*
G01X10290Y17595D01*
G01X10290Y17595D02*
G01X10336Y17550D01*
G01X10336Y17550D02*
G01X10359Y17481D01*
G01X10359Y17481D02*
G01X10359Y17436D01*
G01X10359Y17436D02*
G01X10336Y17368D01*
G01X10336Y17368D02*
G01X10290Y17322D01*
G01X10290Y17322D02*
G01X10245Y17300D01*
G01X10245Y17300D02*
G01X10177Y17300D01*
G01X10177Y17300D02*
G01X10131Y17322D01*
G01X10131Y17322D02*
G01X10086Y17368D01*
G01X10586Y17777D02*
G01X10563Y17754D01*
G01X10563Y17754D02*
G01X10540Y17777D01*
G01X10540Y17777D02*
G01X10563Y17800D01*
G01X10563Y17800D02*
G01X10586Y17777D01*
G01X10563Y17618D02*
G01X10563Y17300D01*
G01X10768Y17550D02*
G01X10790Y17595D01*
G01X10790Y17595D02*
G01X10859Y17618D01*
G01X10859Y17618D02*
G01X10927Y17618D01*
G01X10927Y17618D02*
G01X10995Y17595D01*
G01X10995Y17595D02*
G01X11018Y17550D01*
G01X11018Y17550D02*
G01X10995Y17504D01*
G01X10995Y17504D02*
G01X10949Y17481D01*
G01X10949Y17481D02*
G01X10836Y17459D01*
G01X10836Y17459D02*
G01X10790Y17436D01*
G01X10790Y17436D02*
G01X10768Y17390D01*
G01X10768Y17390D02*
G01X10768Y17368D01*
G01X10768Y17368D02*
G01X10790Y17322D01*
G01X10790Y17322D02*
G01X10859Y17300D01*
G01X10859Y17300D02*
G01X10927Y17300D01*
G01X10927Y17300D02*
G01X10995Y17322D01*
G01X10995Y17322D02*
G01X11018Y17368D01*
G01X11450Y17777D02*
G01X11450Y17300D01*
G01X11222Y17618D02*
G01X11450Y17390D01*
G01X11359Y17481D02*
G01X11199Y17300D01*
G01X11631Y17550D02*
G01X11677Y17595D01*
G01X11677Y17595D02*
G01X11722Y17618D01*
G01X11722Y17618D02*
G01X11790Y17618D01*
G01X11790Y17618D02*
G01X11836Y17595D01*
G01X11836Y17595D02*
G01X11881Y17550D01*
G01X11881Y17550D02*
G01X11904Y17481D01*
G01X11904Y17481D02*
G01X11904Y17436D01*
G01X11904Y17436D02*
G01X11881Y17368D01*
G01X11881Y17368D02*
G01X11836Y17322D01*
G01X11836Y17322D02*
G01X11790Y17300D01*
G01X11790Y17300D02*
G01X11722Y17300D01*
G01X11722Y17300D02*
G01X11677Y17322D01*
G01X11677Y17322D02*
G01X11631Y17368D01*
G01X12086Y17618D02*
G01X12086Y17300D01*
G01X12086Y17550D02*
G01X12131Y17595D01*
G01X12131Y17595D02*
G01X12177Y17618D01*
G01X12177Y17618D02*
G01X12245Y17618D01*
G01X12245Y17618D02*
G01X12290Y17595D01*
G01X12290Y17595D02*
G01X12336Y17550D01*
G01X12336Y17550D02*
G01X12359Y17481D01*
G01X12359Y17481D02*
G01X12359Y17436D01*
G01X12359Y17436D02*
G01X12336Y17368D01*
G01X12336Y17368D02*
G01X12290Y17322D01*
G01X12290Y17322D02*
G01X12245Y17300D01*
G01X12245Y17300D02*
G01X12177Y17300D01*
G01X12177Y17300D02*
G01X12131Y17322D01*
G01X12131Y17322D02*
G01X12086Y17368D01*
G01X12813Y17777D02*
G01X12813Y17300D01*
G01X12813Y17550D02*
G01X12768Y17595D01*
G01X12768Y17595D02*
G01X12722Y17618D01*
G01X12722Y17618D02*
G01X12654Y17618D01*
G01X12654Y17618D02*
G01X12609Y17595D01*
G01X12609Y17595D02*
G01X12563Y17550D01*
G01X12563Y17550D02*
G01X12540Y17481D01*
G01X12540Y17481D02*
G01X12540Y17436D01*
G01X12540Y17436D02*
G01X12563Y17368D01*
G01X12563Y17368D02*
G01X12609Y17322D01*
G01X12609Y17322D02*
G01X12654Y17300D01*
G01X12654Y17300D02*
G01X12722Y17300D01*
G01X12722Y17300D02*
G01X12768Y17322D01*
G01X12768Y17322D02*
G01X12813Y17368D01*
G01X13631Y17481D02*
G01X13359Y17481D01*
G01X13359Y17481D02*
G01X13359Y17527D01*
G01X13359Y17527D02*
G01X13381Y17572D01*
G01X13381Y17572D02*
G01X13404Y17595D01*
G01X13404Y17595D02*
G01X13449Y17618D01*
G01X13449Y17618D02*
G01X13518Y17618D01*
G01X13518Y17618D02*
G01X13563Y17595D01*
G01X13563Y17595D02*
G01X13609Y17550D01*
G01X13609Y17550D02*
G01X13631Y17481D01*
G01X13631Y17481D02*
G01X13631Y17436D01*
G01X13631Y17436D02*
G01X13609Y17368D01*
G01X13609Y17368D02*
G01X13563Y17322D01*
G01X13563Y17322D02*
G01X13518Y17300D01*
G01X13518Y17300D02*
G01X13449Y17300D01*
G01X13449Y17300D02*
G01X13404Y17322D01*
G01X13404Y17322D02*
G01X13359Y17368D01*
G01X14063Y17777D02*
G01X14063Y17300D01*
G01X14063Y17527D02*
G01X13995Y17595D01*
G01X13995Y17595D02*
G01X13949Y17618D01*
G01X13949Y17618D02*
G01X13881Y17618D01*
G01X13881Y17618D02*
G01X13836Y17595D01*
G01X13836Y17595D02*
G01X13813Y17527D01*
G01X13813Y17527D02*
G01X13813Y17300D01*
G01X14359Y17777D02*
G01X14359Y17390D01*
G01X14359Y17390D02*
G01X14336Y17322D01*
G01X14336Y17322D02*
G01X14290Y17300D01*
G01X14290Y17300D02*
G01X14245Y17300D01*
G01X14427Y17618D02*
G01X14268Y17618D01*
G01X15154Y17618D02*
G01X15199Y17595D01*
G01X15199Y17595D02*
G01X15245Y17550D01*
G01X15245Y17550D02*
G01X15268Y17481D01*
G01X15268Y17481D02*
G01X15268Y17436D01*
G01X15268Y17436D02*
G01X15245Y17368D01*
G01X15245Y17368D02*
G01X15199Y17322D01*
G01X15199Y17322D02*
G01X15154Y17300D01*
G01X15154Y17300D02*
G01X15086Y17300D01*
G01X15086Y17300D02*
G01X15040Y17322D01*
G01X15040Y17322D02*
G01X14995Y17368D01*
G01X14995Y17368D02*
G01X14972Y17436D01*
G01X14972Y17436D02*
G01X14972Y17481D01*
G01X14972Y17481D02*
G01X14995Y17550D01*
G01X14995Y17550D02*
G01X15040Y17595D01*
G01X15040Y17595D02*
G01X15086Y17618D01*
G01X15086Y17618D02*
G01X15154Y17618D01*
G01X15563Y17777D02*
G01X15563Y17390D01*
G01X15563Y17390D02*
G01X15540Y17322D01*
G01X15540Y17322D02*
G01X15495Y17300D01*
G01X15495Y17300D02*
G01X15449Y17300D01*
G01X15631Y17618D02*
G01X15472Y17618D01*
G01X16177Y17777D02*
G01X16177Y17300D01*
G01X16177Y17550D02*
G01X16222Y17595D01*
G01X16222Y17595D02*
G01X16268Y17618D01*
G01X16268Y17618D02*
G01X16336Y17618D01*
G01X16336Y17618D02*
G01X16381Y17595D01*
G01X16381Y17595D02*
G01X16427Y17550D01*
G01X16427Y17550D02*
G01X16449Y17481D01*
G01X16449Y17481D02*
G01X16449Y17436D01*
G01X16449Y17436D02*
G01X16427Y17368D01*
G01X16427Y17368D02*
G01X16381Y17322D01*
G01X16381Y17322D02*
G01X16336Y17300D01*
G01X16336Y17300D02*
G01X16268Y17300D01*
G01X16268Y17300D02*
G01X16222Y17322D01*
G01X16222Y17322D02*
G01X16177Y17368D01*
G01X16904Y17481D02*
G01X16631Y17481D01*
G01X16631Y17481D02*
G01X16631Y17527D01*
G01X16631Y17527D02*
G01X16654Y17572D01*
G01X16654Y17572D02*
G01X16677Y17595D01*
G01X16677Y17595D02*
G01X16722Y17618D01*
G01X16722Y17618D02*
G01X16790Y17618D01*
G01X16790Y17618D02*
G01X16836Y17595D01*
G01X16836Y17595D02*
G01X16881Y17550D01*
G01X16881Y17550D02*
G01X16904Y17481D01*
G01X16904Y17481D02*
G01X16904Y17436D01*
G01X16904Y17436D02*
G01X16881Y17368D01*
G01X16881Y17368D02*
G01X16836Y17322D01*
G01X16836Y17322D02*
G01X16790Y17300D01*
G01X16790Y17300D02*
G01X16722Y17300D01*
G01X16722Y17300D02*
G01X16677Y17322D01*
G01X16677Y17322D02*
G01X16631Y17368D01*
G01X17086Y17777D02*
G01X17086Y17300D01*
G01X17086Y17550D02*
G01X17131Y17595D01*
G01X17131Y17595D02*
G01X17177Y17618D01*
G01X17177Y17618D02*
G01X17245Y17618D01*
G01X17245Y17618D02*
G01X17290Y17595D01*
G01X17290Y17595D02*
G01X17336Y17550D01*
G01X17336Y17550D02*
G01X17359Y17481D01*
G01X17359Y17481D02*
G01X17359Y17436D01*
G01X17359Y17436D02*
G01X17336Y17368D01*
G01X17336Y17368D02*
G01X17290Y17322D01*
G01X17290Y17322D02*
G01X17245Y17300D01*
G01X17245Y17300D02*
G01X17177Y17300D01*
G01X17177Y17300D02*
G01X17131Y17322D01*
G01X17131Y17322D02*
G01X17086Y17368D01*
G01X17540Y17777D02*
G01X17540Y17300D01*
G01X17540Y17550D02*
G01X17586Y17595D01*
G01X17586Y17595D02*
G01X17631Y17618D01*
G01X17631Y17618D02*
G01X17699Y17618D01*
G01X17699Y17618D02*
G01X17745Y17595D01*
G01X17745Y17595D02*
G01X17790Y17550D01*
G01X17790Y17550D02*
G01X17813Y17481D01*
G01X17813Y17481D02*
G01X17813Y17436D01*
G01X17813Y17436D02*
G01X17790Y17368D01*
G01X17790Y17368D02*
G01X17745Y17322D01*
G01X17745Y17322D02*
G01X17699Y17300D01*
G01X17699Y17300D02*
G01X17631Y17300D01*
G01X17631Y17300D02*
G01X17586Y17322D01*
G01X17586Y17322D02*
G01X17540Y17368D01*
G01X17995Y17618D02*
G01X17995Y17300D01*
G01X17995Y17550D02*
G01X18040Y17595D01*
G01X18040Y17595D02*
G01X18086Y17618D01*
G01X18086Y17618D02*
G01X18154Y17618D01*
G01X18154Y17618D02*
G01X18199Y17595D01*
G01X18199Y17595D02*
G01X18245Y17550D01*
G01X18245Y17550D02*
G01X18268Y17481D01*
G01X18268Y17481D02*
G01X18268Y17436D01*
G01X18268Y17436D02*
G01X18245Y17368D01*
G01X18245Y17368D02*
G01X18199Y17322D01*
G01X18199Y17322D02*
G01X18154Y17300D01*
G01X18154Y17300D02*
G01X18086Y17300D01*
G01X18086Y17300D02*
G01X18040Y17322D01*
G01X18040Y17322D02*
G01X17995Y17368D01*
G01X19086Y17481D02*
G01X18813Y17481D01*
G01X18813Y17481D02*
G01X18813Y17527D01*
G01X18813Y17527D02*
G01X18836Y17572D01*
G01X18836Y17572D02*
G01X18859Y17595D01*
G01X18859Y17595D02*
G01X18904Y17618D01*
G01X18904Y17618D02*
G01X18972Y17618D01*
G01X18972Y17618D02*
G01X19018Y17595D01*
G01X19018Y17595D02*
G01X19063Y17550D01*
G01X19063Y17550D02*
G01X19086Y17481D01*
G01X19086Y17481D02*
G01X19086Y17436D01*
G01X19086Y17436D02*
G01X19063Y17368D01*
G01X19063Y17368D02*
G01X19018Y17322D01*
G01X19018Y17322D02*
G01X18972Y17300D01*
G01X18972Y17300D02*
G01X18904Y17300D01*
G01X18904Y17300D02*
G01X18859Y17322D01*
G01X18859Y17322D02*
G01X18813Y17368D01*
G01X19540Y17777D02*
G01X19540Y17300D01*
G01X19540Y17550D02*
G01X19495Y17595D01*
G01X19495Y17595D02*
G01X19449Y17618D01*
G01X19449Y17618D02*
G01X19381Y17618D01*
G01X19381Y17618D02*
G01X19336Y17595D01*
G01X19336Y17595D02*
G01X19290Y17550D01*
G01X19290Y17550D02*
G01X19268Y17481D01*
G01X19268Y17481D02*
G01X19268Y17436D01*
G01X19268Y17436D02*
G01X19290Y17368D01*
G01X19290Y17368D02*
G01X19336Y17322D01*
G01X19336Y17322D02*
G01X19381Y17300D01*
G01X19381Y17300D02*
G01X19449Y17300D01*
G01X19449Y17300D02*
G01X19495Y17322D01*
G01X19495Y17322D02*
G01X19540Y17368D01*
G01X20268Y17618D02*
G01X20313Y17595D01*
G01X20313Y17595D02*
G01X20359Y17550D01*
G01X20359Y17550D02*
G01X20381Y17481D01*
G01X20381Y17481D02*
G01X20381Y17436D01*
G01X20381Y17436D02*
G01X20359Y17368D01*
G01X20359Y17368D02*
G01X20313Y17322D01*
G01X20313Y17322D02*
G01X20268Y17300D01*
G01X20268Y17300D02*
G01X20199Y17300D01*
G01X20199Y17300D02*
G01X20154Y17322D01*
G01X20154Y17322D02*
G01X20109Y17368D01*
G01X20109Y17368D02*
G01X20086Y17436D01*
G01X20086Y17436D02*
G01X20086Y17481D01*
G01X20086Y17481D02*
G01X20109Y17550D01*
G01X20109Y17550D02*
G01X20154Y17595D01*
G01X20154Y17595D02*
G01X20199Y17618D01*
G01X20199Y17618D02*
G01X20268Y17618D01*
G01X20677Y17777D02*
G01X20677Y17390D01*
G01X20677Y17390D02*
G01X20654Y17322D01*
G01X20654Y17322D02*
G01X20609Y17300D01*
G01X20609Y17300D02*
G01X20563Y17300D01*
G01X20745Y17618D02*
G01X20586Y17618D01*
G01X21290Y17777D02*
G01X21290Y17300D01*
G01X21290Y17550D02*
G01X21336Y17595D01*
G01X21336Y17595D02*
G01X21381Y17618D01*
G01X21381Y17618D02*
G01X21449Y17618D01*
G01X21449Y17618D02*
G01X21495Y17595D01*
G01X21495Y17595D02*
G01X21540Y17550D01*
G01X21540Y17550D02*
G01X21563Y17481D01*
G01X21563Y17481D02*
G01X21563Y17436D01*
G01X21563Y17436D02*
G01X21540Y17368D01*
G01X21540Y17368D02*
G01X21495Y17322D01*
G01X21495Y17322D02*
G01X21449Y17300D01*
G01X21449Y17300D02*
G01X21381Y17300D01*
G01X21381Y17300D02*
G01X21336Y17322D01*
G01X21336Y17322D02*
G01X21290Y17368D01*
G01X22018Y17481D02*
G01X21745Y17481D01*
G01X21745Y17481D02*
G01X21745Y17527D01*
G01X21745Y17527D02*
G01X21768Y17572D01*
G01X21768Y17572D02*
G01X21790Y17595D01*
G01X21790Y17595D02*
G01X21836Y17618D01*
G01X21836Y17618D02*
G01X21904Y17618D01*
G01X21904Y17618D02*
G01X21949Y17595D01*
G01X21949Y17595D02*
G01X21995Y17550D01*
G01X21995Y17550D02*
G01X22018Y17481D01*
G01X22018Y17481D02*
G01X22018Y17436D01*
G01X22018Y17436D02*
G01X21995Y17368D01*
G01X21995Y17368D02*
G01X21949Y17322D01*
G01X21949Y17322D02*
G01X21904Y17300D01*
G01X21904Y17300D02*
G01X21836Y17300D01*
G01X21836Y17300D02*
G01X21790Y17322D01*
G01X21790Y17322D02*
G01X21745Y17368D01*
G01X22472Y17481D02*
G01X22199Y17481D01*
G01X22199Y17481D02*
G01X22199Y17527D01*
G01X22199Y17527D02*
G01X22222Y17572D01*
G01X22222Y17572D02*
G01X22245Y17595D01*
G01X22245Y17595D02*
G01X22290Y17618D01*
G01X22290Y17618D02*
G01X22359Y17618D01*
G01X22359Y17618D02*
G01X22404Y17595D01*
G01X22404Y17595D02*
G01X22449Y17550D01*
G01X22449Y17550D02*
G01X22472Y17481D01*
G01X22472Y17481D02*
G01X22472Y17436D01*
G01X22472Y17436D02*
G01X22449Y17368D01*
G01X22449Y17368D02*
G01X22404Y17322D01*
G01X22404Y17322D02*
G01X22359Y17300D01*
G01X22359Y17300D02*
G01X22290Y17300D01*
G01X22290Y17300D02*
G01X22245Y17322D01*
G01X22245Y17322D02*
G01X22199Y17368D01*
G01X22904Y17618D02*
G01X22904Y17300D01*
G01X22904Y17527D02*
G01X22836Y17595D01*
G01X22836Y17595D02*
G01X22790Y17618D01*
G01X22790Y17618D02*
G01X22722Y17618D01*
G01X22722Y17618D02*
G01X22677Y17595D01*
G01X22677Y17595D02*
G01X22654Y17527D01*
G01X22654Y17527D02*
G01X22654Y17300D01*
G01X23563Y17777D02*
G01X23563Y17390D01*
G01X23563Y17390D02*
G01X23540Y17322D01*
G01X23540Y17322D02*
G01X23495Y17300D01*
G01X23495Y17300D02*
G01X23449Y17300D01*
G01X23631Y17618D02*
G01X23472Y17618D01*
G01X23813Y17618D02*
G01X23813Y17300D01*
G01X23813Y17550D02*
G01X23859Y17595D01*
G01X23859Y17595D02*
G01X23904Y17618D01*
G01X23904Y17618D02*
G01X23972Y17618D01*
G01X23972Y17618D02*
G01X24018Y17595D01*
G01X24018Y17595D02*
G01X24063Y17550D01*
G01X24063Y17550D02*
G01X24086Y17481D01*
G01X24086Y17481D02*
G01X24086Y17436D01*
G01X24086Y17436D02*
G01X24063Y17368D01*
G01X24063Y17368D02*
G01X24018Y17322D01*
G01X24018Y17322D02*
G01X23972Y17300D01*
G01X23972Y17300D02*
G01X23904Y17300D01*
G01X23904Y17300D02*
G01X23859Y17322D01*
G01X23859Y17322D02*
G01X23813Y17368D01*
G01X24518Y17777D02*
G01X24518Y17300D01*
G01X24518Y17527D02*
G01X24449Y17595D01*
G01X24449Y17595D02*
G01X24404Y17618D01*
G01X24404Y17618D02*
G01X24336Y17618D01*
G01X24336Y17618D02*
G01X24290Y17595D01*
G01X24290Y17595D02*
G01X24268Y17527D01*
G01X24268Y17527D02*
G01X24268Y17300D01*
G01X24813Y17777D02*
G01X24813Y17390D01*
G01X24813Y17390D02*
G01X24790Y17322D01*
G01X24790Y17322D02*
G01X24745Y17300D01*
G01X24745Y17300D02*
G01X24699Y17300D01*
G01X24881Y17618D02*
G01X24722Y17618D01*
G01X25427Y17550D02*
G01X25449Y17595D01*
G01X25449Y17595D02*
G01X25518Y17618D01*
G01X25518Y17618D02*
G01X25586Y17618D01*
G01X25586Y17618D02*
G01X25654Y17595D01*
G01X25654Y17595D02*
G01X25677Y17550D01*
G01X25677Y17550D02*
G01X25654Y17504D01*
G01X25654Y17504D02*
G01X25609Y17481D01*
G01X25609Y17481D02*
G01X25495Y17459D01*
G01X25495Y17459D02*
G01X25449Y17436D01*
G01X25449Y17436D02*
G01X25427Y17390D01*
G01X25427Y17390D02*
G01X25427Y17368D01*
G01X25427Y17368D02*
G01X25449Y17322D01*
G01X25449Y17322D02*
G01X25518Y17300D01*
G01X25518Y17300D02*
G01X25586Y17300D01*
G01X25586Y17300D02*
G01X25654Y17322D01*
G01X25654Y17322D02*
G01X25677Y17368D01*
G01X26131Y17618D02*
G01X26131Y17140D01*
G01X26131Y17550D02*
G01X26086Y17595D01*
G01X26086Y17595D02*
G01X26040Y17618D01*
G01X26040Y17618D02*
G01X25972Y17618D01*
G01X25972Y17618D02*
G01X25927Y17595D01*
G01X25927Y17595D02*
G01X25881Y17550D01*
G01X25881Y17550D02*
G01X25859Y17481D01*
G01X25859Y17481D02*
G01X25859Y17436D01*
G01X25859Y17436D02*
G01X25881Y17368D01*
G01X25881Y17368D02*
G01X25927Y17322D01*
G01X25927Y17322D02*
G01X25972Y17300D01*
G01X25972Y17300D02*
G01X26040Y17300D01*
G01X26040Y17300D02*
G01X26086Y17322D01*
G01X26086Y17322D02*
G01X26131Y17368D01*
G01X26813Y17618D02*
G01X26813Y17300D01*
G01X26813Y17527D02*
G01X26745Y17595D01*
G01X26745Y17595D02*
G01X26699Y17618D01*
G01X26699Y17618D02*
G01X26631Y17618D01*
G01X26631Y17618D02*
G01X26586Y17595D01*
G01X26586Y17595D02*
G01X26563Y17527D01*
G01X26563Y17527D02*
G01X26563Y17300D01*
G01X26563Y17527D02*
G01X26495Y17595D01*
G01X26495Y17595D02*
G01X26449Y17618D01*
G01X26449Y17618D02*
G01X26381Y17618D01*
G01X26381Y17618D02*
G01X26336Y17595D01*
G01X26336Y17595D02*
G01X26313Y17527D01*
G01X26313Y17527D02*
G01X26313Y17300D01*
G01X27245Y17618D02*
G01X27245Y17390D01*
G01X27245Y17390D02*
G01X27222Y17322D01*
G01X27222Y17322D02*
G01X27177Y17300D01*
G01X27177Y17300D02*
G01X27109Y17300D01*
G01X27109Y17300D02*
G01X27063Y17322D01*
G01X27063Y17322D02*
G01X26995Y17390D01*
G01X26995Y17618D02*
G01X26995Y17300D01*
G01X27472Y17777D02*
G01X27449Y17754D01*
G01X27449Y17754D02*
G01X27427Y17777D01*
G01X27427Y17777D02*
G01X27449Y17800D01*
G01X27449Y17800D02*
G01X27472Y17777D01*
G01X27449Y17618D02*
G01X27449Y17231D01*
G01X27449Y17231D02*
G01X27472Y17163D01*
G01X27472Y17163D02*
G01X27518Y17140D01*
G01X27518Y17140D02*
G01X27563Y17140D01*
G01X28381Y17481D02*
G01X28109Y17481D01*
G01X28109Y17481D02*
G01X28109Y17527D01*
G01X28109Y17527D02*
G01X28131Y17572D01*
G01X28131Y17572D02*
G01X28154Y17595D01*
G01X28154Y17595D02*
G01X28199Y17618D01*
G01X28199Y17618D02*
G01X28268Y17618D01*
G01X28268Y17618D02*
G01X28313Y17595D01*
G01X28313Y17595D02*
G01X28359Y17550D01*
G01X28359Y17550D02*
G01X28381Y17481D01*
G01X28381Y17481D02*
G01X28381Y17436D01*
G01X28381Y17436D02*
G01X28359Y17368D01*
G01X28359Y17368D02*
G01X28313Y17322D01*
G01X28313Y17322D02*
G01X28268Y17300D01*
G01X28268Y17300D02*
G01X28199Y17300D01*
G01X28199Y17300D02*
G01X28154Y17322D01*
G01X28154Y17322D02*
G01X28109Y17368D01*
G01X28745Y17618D02*
G01X28745Y17300D01*
G01X28745Y17481D02*
G01X28722Y17550D01*
G01X28722Y17550D02*
G01X28677Y17595D01*
G01X28677Y17595D02*
G01X28631Y17618D01*
G01X28631Y17618D02*
G01X28563Y17618D01*
G01X28972Y17777D02*
G01X28949Y17754D01*
G01X28949Y17754D02*
G01X28927Y17777D01*
G01X28927Y17777D02*
G01X28949Y17800D01*
G01X28949Y17800D02*
G01X28972Y17777D01*
G01X28949Y17618D02*
G01X28949Y17300D01*
G01X29518Y17618D02*
G01X29427Y17300D01*
G01X29336Y17618D02*
G01X29427Y17300D01*
G01X29336Y17618D02*
G01X29245Y17300D01*
G01X29154Y17618D02*
G01X29245Y17300D01*
G01X30063Y17550D02*
G01X30086Y17595D01*
G01X30086Y17595D02*
G01X30154Y17618D01*
G01X30154Y17618D02*
G01X30222Y17618D01*
G01X30222Y17618D02*
G01X30290Y17595D01*
G01X30290Y17595D02*
G01X30313Y17550D01*
G01X30313Y17550D02*
G01X30290Y17504D01*
G01X30290Y17504D02*
G01X30245Y17481D01*
G01X30245Y17481D02*
G01X30131Y17459D01*
G01X30131Y17459D02*
G01X30086Y17436D01*
G01X30086Y17436D02*
G01X30063Y17390D01*
G01X30063Y17390D02*
G01X30063Y17368D01*
G01X30063Y17368D02*
G01X30086Y17322D01*
G01X30086Y17322D02*
G01X30154Y17300D01*
G01X30154Y17300D02*
G01X30222Y17300D01*
G01X30222Y17300D02*
G01X30290Y17322D01*
G01X30290Y17322D02*
G01X30313Y17368D01*
G01X30859Y17618D02*
G01X30768Y17300D01*
G01X30677Y17618D02*
G01X30768Y17300D01*
G01X30677Y17618D02*
G01X30586Y17300D01*
G01X30495Y17618D02*
G01X30586Y17300D01*
G01X31222Y17618D02*
G01X31268Y17595D01*
G01X31268Y17595D02*
G01X31313Y17550D01*
G01X31313Y17550D02*
G01X31336Y17481D01*
G01X31336Y17481D02*
G01X31336Y17436D01*
G01X31336Y17436D02*
G01X31313Y17368D01*
G01X31313Y17368D02*
G01X31268Y17322D01*
G01X31268Y17322D02*
G01X31222Y17300D01*
G01X31222Y17300D02*
G01X31154Y17300D01*
G01X31154Y17300D02*
G01X31109Y17322D01*
G01X31109Y17322D02*
G01X31063Y17368D01*
G01X31063Y17368D02*
G01X31040Y17436D01*
G01X31040Y17436D02*
G01X31040Y17481D01*
G01X31040Y17481D02*
G01X31063Y17550D01*
G01X31063Y17550D02*
G01X31109Y17595D01*
G01X31109Y17595D02*
G01X31154Y17618D01*
G01X31154Y17618D02*
G01X31222Y17618D01*
G01X31768Y17777D02*
G01X31768Y17300D01*
G01X31768Y17527D02*
G01X31699Y17595D01*
G01X31699Y17595D02*
G01X31654Y17618D01*
G01X31654Y17618D02*
G01X31586Y17618D01*
G01X31586Y17618D02*
G01X31540Y17595D01*
G01X31540Y17595D02*
G01X31518Y17527D01*
G01X31518Y17527D02*
G01X31518Y17300D01*
G01X31950Y17550D02*
G01X31972Y17595D01*
G01X31972Y17595D02*
G01X32040Y17618D01*
G01X32040Y17618D02*
G01X32109Y17618D01*
G01X32109Y17618D02*
G01X32177Y17595D01*
G01X32177Y17595D02*
G01X32200Y17550D01*
G01X32200Y17550D02*
G01X32177Y17504D01*
G01X32177Y17504D02*
G01X32131Y17481D01*
G01X32131Y17481D02*
G01X32018Y17459D01*
G01X32018Y17459D02*
G01X31972Y17436D01*
G01X31972Y17436D02*
G01X31950Y17390D01*
G01X31950Y17390D02*
G01X31950Y17368D01*
G01X31950Y17368D02*
G01X31972Y17322D01*
G01X31972Y17322D02*
G01X32040Y17300D01*
G01X32040Y17300D02*
G01X32109Y17300D01*
G01X32109Y17300D02*
G01X32177Y17322D01*
G01X32177Y17322D02*
G01X32200Y17368D01*
G01X32859Y17777D02*
G01X32859Y17390D01*
G01X32859Y17390D02*
G01X32836Y17322D01*
G01X32836Y17322D02*
G01X32790Y17300D01*
G01X32790Y17300D02*
G01X32745Y17300D01*
G01X32927Y17618D02*
G01X32768Y17618D01*
G01X33154Y17777D02*
G01X33131Y17754D01*
G01X33131Y17754D02*
G01X33109Y17777D01*
G01X33109Y17777D02*
G01X33131Y17800D01*
G01X33131Y17800D02*
G01X33154Y17777D01*
G01X33131Y17618D02*
G01X33131Y17300D01*
G01X9000Y18122D02*
G01X9022Y18100D01*
G01X9022Y18100D02*
G01X9045Y18122D01*
G01X9045Y18122D02*
G01X9022Y18145D01*
G01X9022Y18145D02*
G01X9000Y18122D01*
G01X9000Y18122D02*
G01X9000Y18077D01*
G01X9000Y18077D02*
G01X9022Y18031D01*
G01X9022Y18031D02*
G01X9045Y18009D01*
G01X9386Y18668D02*
G01X9340Y18622D01*
G01X9340Y18622D02*
G01X9295Y18554D01*
G01X9295Y18554D02*
G01X9249Y18463D01*
G01X9249Y18463D02*
G01X9227Y18350D01*
G01X9227Y18350D02*
G01X9227Y18259D01*
G01X9227Y18259D02*
G01X9249Y18145D01*
G01X9249Y18145D02*
G01X9295Y18054D01*
G01X9295Y18054D02*
G01X9340Y17986D01*
G01X9340Y17986D02*
G01X9386Y17940D01*
G01X9840Y18281D02*
G01X9568Y18281D01*
G01X9568Y18281D02*
G01X9568Y18327D01*
G01X9568Y18327D02*
G01X9590Y18372D01*
G01X9590Y18372D02*
G01X9613Y18395D01*
G01X9613Y18395D02*
G01X9659Y18418D01*
G01X9659Y18418D02*
G01X9727Y18418D01*
G01X9727Y18418D02*
G01X9772Y18395D01*
G01X9772Y18395D02*
G01X9818Y18350D01*
G01X9818Y18350D02*
G01X9840Y18281D01*
G01X9840Y18281D02*
G01X9840Y18236D01*
G01X9840Y18236D02*
G01X9818Y18168D01*
G01X9818Y18168D02*
G01X9772Y18122D01*
G01X9772Y18122D02*
G01X9727Y18100D01*
G01X9727Y18100D02*
G01X9659Y18100D01*
G01X9659Y18100D02*
G01X9613Y18122D01*
G01X9613Y18122D02*
G01X9568Y18168D01*
G01X10295Y18577D02*
G01X10295Y18100D01*
G01X10295Y18350D02*
G01X10249Y18395D01*
G01X10249Y18395D02*
G01X10204Y18418D01*
G01X10204Y18418D02*
G01X10136Y18418D01*
G01X10136Y18418D02*
G01X10090Y18395D01*
G01X10090Y18395D02*
G01X10045Y18350D01*
G01X10045Y18350D02*
G01X10022Y18281D01*
G01X10022Y18281D02*
G01X10022Y18236D01*
G01X10022Y18236D02*
G01X10045Y18168D01*
G01X10045Y18168D02*
G01X10090Y18122D01*
G01X10090Y18122D02*
G01X10136Y18100D01*
G01X10136Y18100D02*
G01X10204Y18100D01*
G01X10204Y18100D02*
G01X10249Y18122D01*
G01X10249Y18122D02*
G01X10295Y18168D01*
G01X10840Y18577D02*
G01X10840Y18100D01*
G01X10840Y18350D02*
G01X10886Y18395D01*
G01X10886Y18395D02*
G01X10931Y18418D01*
G01X10931Y18418D02*
G01X10999Y18418D01*
G01X10999Y18418D02*
G01X11045Y18395D01*
G01X11045Y18395D02*
G01X11090Y18350D01*
G01X11090Y18350D02*
G01X11113Y18281D01*
G01X11113Y18281D02*
G01X11113Y18236D01*
G01X11113Y18236D02*
G01X11090Y18168D01*
G01X11090Y18168D02*
G01X11045Y18122D01*
G01X11045Y18122D02*
G01X10999Y18100D01*
G01X10999Y18100D02*
G01X10931Y18100D01*
G01X10931Y18100D02*
G01X10886Y18122D01*
G01X10886Y18122D02*
G01X10840Y18168D01*
G01X11295Y18577D02*
G01X11295Y18100D01*
G01X11727Y18418D02*
G01X11727Y18190D01*
G01X11727Y18190D02*
G01X11704Y18122D01*
G01X11704Y18122D02*
G01X11659Y18100D01*
G01X11659Y18100D02*
G01X11590Y18100D01*
G01X11590Y18100D02*
G01X11545Y18122D01*
G01X11545Y18122D02*
G01X11477Y18190D01*
G01X11477Y18418D02*
G01X11477Y18100D01*
G01X12090Y18418D02*
G01X12136Y18395D01*
G01X12136Y18395D02*
G01X12181Y18350D01*
G01X12181Y18350D02*
G01X12204Y18281D01*
G01X12204Y18281D02*
G01X12204Y18236D01*
G01X12204Y18236D02*
G01X12181Y18168D01*
G01X12181Y18168D02*
G01X12136Y18122D01*
G01X12136Y18122D02*
G01X12090Y18100D01*
G01X12090Y18100D02*
G01X12022Y18100D01*
G01X12022Y18100D02*
G01X11977Y18122D01*
G01X11977Y18122D02*
G01X11931Y18168D01*
G01X11931Y18168D02*
G01X11909Y18236D01*
G01X11909Y18236D02*
G01X11909Y18281D01*
G01X11909Y18281D02*
G01X11931Y18350D01*
G01X11931Y18350D02*
G01X11977Y18395D01*
G01X11977Y18395D02*
G01X12022Y18418D01*
G01X12022Y18418D02*
G01X12090Y18418D01*
G01X12386Y18350D02*
G01X12431Y18395D01*
G01X12431Y18395D02*
G01X12477Y18418D01*
G01X12477Y18418D02*
G01X12545Y18418D01*
G01X12545Y18418D02*
G01X12590Y18395D01*
G01X12590Y18395D02*
G01X12636Y18350D01*
G01X12636Y18350D02*
G01X12659Y18281D01*
G01X12659Y18281D02*
G01X12659Y18236D01*
G01X12659Y18236D02*
G01X12636Y18168D01*
G01X12636Y18168D02*
G01X12590Y18122D01*
G01X12590Y18122D02*
G01X12545Y18100D01*
G01X12545Y18100D02*
G01X12477Y18100D01*
G01X12477Y18100D02*
G01X12431Y18122D01*
G01X12431Y18122D02*
G01X12386Y18168D01*
G01X13318Y18577D02*
G01X13318Y18190D01*
G01X13318Y18190D02*
G01X13295Y18122D01*
G01X13295Y18122D02*
G01X13249Y18100D01*
G01X13249Y18100D02*
G01X13204Y18100D01*
G01X13386Y18418D02*
G01X13227Y18418D01*
G01X13613Y18577D02*
G01X13590Y18554D01*
G01X13590Y18554D02*
G01X13568Y18577D01*
G01X13568Y18577D02*
G01X13590Y18600D01*
G01X13590Y18600D02*
G01X13613Y18577D01*
G01X13590Y18418D02*
G01X13590Y18100D01*
G01X14159Y18122D02*
G01X14181Y18100D01*
G01X14181Y18100D02*
G01X14204Y18122D01*
G01X14204Y18122D02*
G01X14181Y18145D01*
G01X14181Y18145D02*
G01X14159Y18122D01*
G01X14159Y18122D02*
G01X14159Y18077D01*
G01X14159Y18077D02*
G01X14181Y18031D01*
G01X14181Y18031D02*
G01X14204Y18009D01*
G01X14636Y18577D02*
G01X14636Y18100D01*
G01X14636Y18327D02*
G01X14568Y18395D01*
G01X14568Y18395D02*
G01X14522Y18418D01*
G01X14522Y18418D02*
G01X14454Y18418D01*
G01X14454Y18418D02*
G01X14409Y18395D01*
G01X14409Y18395D02*
G01X14386Y18327D01*
G01X14386Y18327D02*
G01X14386Y18100D01*
G01X14818Y18418D02*
G01X14818Y18054D01*
G01X14818Y18054D02*
G01X14840Y17986D01*
G01X14840Y17986D02*
G01X14863Y17963D01*
G01X14863Y17963D02*
G01X14909Y17940D01*
G01X14909Y17940D02*
G01X14977Y17940D01*
G01X14977Y17940D02*
G01X15022Y17963D01*
G01X14818Y18350D02*
G01X14863Y18395D01*
G01X14863Y18395D02*
G01X14909Y18418D01*
G01X14909Y18418D02*
G01X14977Y18418D01*
G01X14977Y18418D02*
G01X15022Y18395D01*
G01X15022Y18395D02*
G01X15068Y18350D01*
G01X15068Y18350D02*
G01X15090Y18281D01*
G01X15090Y18281D02*
G01X15090Y18236D01*
G01X15090Y18236D02*
G01X15068Y18168D01*
G01X15068Y18168D02*
G01X15022Y18122D01*
G01X15022Y18122D02*
G01X14977Y18100D01*
G01X14977Y18100D02*
G01X14909Y18100D01*
G01X14909Y18100D02*
G01X14863Y18122D01*
G01X14863Y18122D02*
G01X14818Y18168D01*
G01X15522Y18418D02*
G01X15522Y18190D01*
G01X15522Y18190D02*
G01X15499Y18122D01*
G01X15499Y18122D02*
G01X15454Y18100D01*
G01X15454Y18100D02*
G01X15386Y18100D01*
G01X15386Y18100D02*
G01X15340Y18122D01*
G01X15340Y18122D02*
G01X15272Y18190D01*
G01X15272Y18418D02*
G01X15272Y18100D01*
G01X15886Y18418D02*
G01X15931Y18395D01*
G01X15931Y18395D02*
G01X15977Y18350D01*
G01X15977Y18350D02*
G01X15999Y18281D01*
G01X15999Y18281D02*
G01X15999Y18236D01*
G01X15999Y18236D02*
G01X15977Y18168D01*
G01X15977Y18168D02*
G01X15931Y18122D01*
G01X15931Y18122D02*
G01X15886Y18100D01*
G01X15886Y18100D02*
G01X15818Y18100D01*
G01X15818Y18100D02*
G01X15772Y18122D01*
G01X15772Y18122D02*
G01X15727Y18168D01*
G01X15727Y18168D02*
G01X15704Y18236D01*
G01X15704Y18236D02*
G01X15704Y18281D01*
G01X15704Y18281D02*
G01X15727Y18350D01*
G01X15727Y18350D02*
G01X15772Y18395D01*
G01X15772Y18395D02*
G01X15818Y18418D01*
G01X15818Y18418D02*
G01X15886Y18418D01*
G01X16431Y18577D02*
G01X16431Y18100D01*
G01X16431Y18327D02*
G01X16363Y18395D01*
G01X16363Y18395D02*
G01X16318Y18418D01*
G01X16318Y18418D02*
G01X16249Y18418D01*
G01X16249Y18418D02*
G01X16204Y18395D01*
G01X16204Y18395D02*
G01X16181Y18327D01*
G01X16181Y18327D02*
G01X16181Y18100D01*
G01X16727Y18577D02*
G01X16727Y18190D01*
G01X16727Y18190D02*
G01X16704Y18122D01*
G01X16704Y18122D02*
G01X16659Y18100D01*
G01X16659Y18100D02*
G01X16613Y18100D01*
G01X16795Y18418D02*
G01X16636Y18418D01*
G01X16977Y18577D02*
G01X16977Y18100D01*
G01X17159Y18418D02*
G01X17159Y18100D01*
G01X17159Y18350D02*
G01X17204Y18395D01*
G01X17204Y18395D02*
G01X17249Y18418D01*
G01X17249Y18418D02*
G01X17318Y18418D01*
G01X17318Y18418D02*
G01X17363Y18395D01*
G01X17363Y18395D02*
G01X17409Y18350D01*
G01X17409Y18350D02*
G01X17431Y18281D01*
G01X17431Y18281D02*
G01X17431Y18236D01*
G01X17431Y18236D02*
G01X17409Y18168D01*
G01X17409Y18168D02*
G01X17363Y18122D01*
G01X17363Y18122D02*
G01X17318Y18100D01*
G01X17318Y18100D02*
G01X17249Y18100D01*
G01X17249Y18100D02*
G01X17204Y18122D01*
G01X17204Y18122D02*
G01X17159Y18168D01*
G01X17613Y18668D02*
G01X17659Y18622D01*
G01X17659Y18622D02*
G01X17704Y18554D01*
G01X17704Y18554D02*
G01X17749Y18463D01*
G01X17749Y18463D02*
G01X17772Y18350D01*
G01X17772Y18350D02*
G01X17772Y18259D01*
G01X17772Y18259D02*
G01X17749Y18145D01*
G01X17749Y18145D02*
G01X17704Y18054D01*
G01X17704Y18054D02*
G01X17659Y17986D01*
G01X17659Y17986D02*
G01X17613Y17940D01*
G01X18499Y18418D02*
G01X18499Y18100D01*
G01X18499Y18281D02*
G01X18477Y18350D01*
G01X18477Y18350D02*
G01X18431Y18395D01*
G01X18431Y18395D02*
G01X18386Y18418D01*
G01X18386Y18418D02*
G01X18318Y18418D01*
G01X18954Y18281D02*
G01X18681Y18281D01*
G01X18681Y18281D02*
G01X18681Y18327D01*
G01X18681Y18327D02*
G01X18704Y18372D01*
G01X18704Y18372D02*
G01X18727Y18395D01*
G01X18727Y18395D02*
G01X18772Y18418D01*
G01X18772Y18418D02*
G01X18840Y18418D01*
G01X18840Y18418D02*
G01X18886Y18395D01*
G01X18886Y18395D02*
G01X18931Y18350D01*
G01X18931Y18350D02*
G01X18954Y18281D01*
G01X18954Y18281D02*
G01X18954Y18236D01*
G01X18954Y18236D02*
G01X18931Y18168D01*
G01X18931Y18168D02*
G01X18886Y18122D01*
G01X18886Y18122D02*
G01X18840Y18100D01*
G01X18840Y18100D02*
G01X18772Y18100D01*
G01X18772Y18100D02*
G01X18727Y18122D01*
G01X18727Y18122D02*
G01X18681Y18168D01*
G01X19409Y18418D02*
G01X19272Y18100D01*
G01X19136Y18418D02*
G01X19272Y18100D01*
G01X19272Y18100D02*
G01X19318Y18009D01*
G01X19318Y18009D02*
G01X19363Y17963D01*
G01X19363Y17963D02*
G01X19409Y17940D01*
G01X19409Y17940D02*
G01X19431Y17940D01*
G01X19613Y18418D02*
G01X19613Y18100D01*
G01X19613Y18350D02*
G01X19659Y18395D01*
G01X19659Y18395D02*
G01X19704Y18418D01*
G01X19704Y18418D02*
G01X19772Y18418D01*
G01X19772Y18418D02*
G01X19818Y18395D01*
G01X19818Y18395D02*
G01X19863Y18350D01*
G01X19863Y18350D02*
G01X19886Y18281D01*
G01X19886Y18281D02*
G01X19886Y18236D01*
G01X19886Y18236D02*
G01X19863Y18168D01*
G01X19863Y18168D02*
G01X19818Y18122D01*
G01X19818Y18122D02*
G01X19772Y18100D01*
G01X19772Y18100D02*
G01X19704Y18100D01*
G01X19704Y18100D02*
G01X19659Y18122D01*
G01X19659Y18122D02*
G01X19613Y18168D01*
G01X20068Y18577D02*
G01X20068Y18100D01*
G01X20613Y18577D02*
G01X20613Y18100D01*
G01X20795Y18418D02*
G01X20795Y18100D01*
G01X20795Y18350D02*
G01X20840Y18395D01*
G01X20840Y18395D02*
G01X20886Y18418D01*
G01X20886Y18418D02*
G01X20954Y18418D01*
G01X20954Y18418D02*
G01X20999Y18395D01*
G01X20999Y18395D02*
G01X21045Y18350D01*
G01X21045Y18350D02*
G01X21068Y18281D01*
G01X21068Y18281D02*
G01X21068Y18236D01*
G01X21068Y18236D02*
G01X21045Y18168D01*
G01X21045Y18168D02*
G01X20999Y18122D01*
G01X20999Y18122D02*
G01X20954Y18100D01*
G01X20954Y18100D02*
G01X20886Y18100D01*
G01X20886Y18100D02*
G01X20840Y18122D01*
G01X20840Y18122D02*
G01X20795Y18168D01*
G01X21522Y18281D02*
G01X21249Y18281D01*
G01X21249Y18281D02*
G01X21249Y18327D01*
G01X21249Y18327D02*
G01X21272Y18372D01*
G01X21272Y18372D02*
G01X21295Y18395D01*
G01X21295Y18395D02*
G01X21340Y18418D01*
G01X21340Y18418D02*
G01X21409Y18418D01*
G01X21409Y18418D02*
G01X21454Y18395D01*
G01X21454Y18395D02*
G01X21499Y18350D01*
G01X21499Y18350D02*
G01X21522Y18281D01*
G01X21522Y18281D02*
G01X21522Y18236D01*
G01X21522Y18236D02*
G01X21499Y18168D01*
G01X21499Y18168D02*
G01X21454Y18122D01*
G01X21454Y18122D02*
G01X21409Y18100D01*
G01X21409Y18100D02*
G01X21340Y18100D01*
G01X21340Y18100D02*
G01X21295Y18122D01*
G01X21295Y18122D02*
G01X21249Y18168D01*
G01X21886Y18418D02*
G01X21886Y18100D01*
G01X21886Y18281D02*
G01X21863Y18350D01*
G01X21863Y18350D02*
G01X21818Y18395D01*
G01X21818Y18395D02*
G01X21772Y18418D01*
G01X21772Y18418D02*
G01X21704Y18418D01*
G01X22431Y18418D02*
G01X22431Y18100D01*
G01X22431Y18350D02*
G01X22477Y18395D01*
G01X22477Y18395D02*
G01X22522Y18418D01*
G01X22522Y18418D02*
G01X22590Y18418D01*
G01X22590Y18418D02*
G01X22636Y18395D01*
G01X22636Y18395D02*
G01X22681Y18350D01*
G01X22681Y18350D02*
G01X22704Y18281D01*
G01X22704Y18281D02*
G01X22704Y18236D01*
G01X22704Y18236D02*
G01X22681Y18168D01*
G01X22681Y18168D02*
G01X22636Y18122D01*
G01X22636Y18122D02*
G01X22590Y18100D01*
G01X22590Y18100D02*
G01X22522Y18100D01*
G01X22522Y18100D02*
G01X22477Y18122D01*
G01X22477Y18122D02*
G01X22431Y18168D01*
G01X23363Y18577D02*
G01X23363Y18190D01*
G01X23363Y18190D02*
G01X23340Y18122D01*
G01X23340Y18122D02*
G01X23295Y18100D01*
G01X23295Y18100D02*
G01X23250Y18100D01*
G01X23431Y18418D02*
G01X23272Y18418D01*
G01X23795Y18418D02*
G01X23840Y18395D01*
G01X23840Y18395D02*
G01X23886Y18350D01*
G01X23886Y18350D02*
G01X23909Y18281D01*
G01X23909Y18281D02*
G01X23909Y18236D01*
G01X23909Y18236D02*
G01X23886Y18168D01*
G01X23886Y18168D02*
G01X23840Y18122D01*
G01X23840Y18122D02*
G01X23795Y18100D01*
G01X23795Y18100D02*
G01X23727Y18100D01*
G01X23727Y18100D02*
G01X23681Y18122D01*
G01X23681Y18122D02*
G01X23636Y18168D01*
G01X23636Y18168D02*
G01X23613Y18236D01*
G01X23613Y18236D02*
G01X23613Y18281D01*
G01X23613Y18281D02*
G01X23636Y18350D01*
G01X23636Y18350D02*
G01X23681Y18395D01*
G01X23681Y18395D02*
G01X23727Y18418D01*
G01X23727Y18418D02*
G01X23795Y18418D01*
G01X24340Y18418D02*
G01X24340Y18100D01*
G01X24340Y18327D02*
G01X24272Y18395D01*
G01X24272Y18395D02*
G01X24227Y18418D01*
G01X24227Y18418D02*
G01X24159Y18418D01*
G01X24159Y18418D02*
G01X24113Y18395D01*
G01X24113Y18395D02*
G01X24090Y18327D01*
G01X24090Y18327D02*
G01X24090Y18100D01*
G01X24886Y18350D02*
G01X24909Y18395D01*
G01X24909Y18395D02*
G01X24977Y18418D01*
G01X24977Y18418D02*
G01X25045Y18418D01*
G01X25045Y18418D02*
G01X25113Y18395D01*
G01X25113Y18395D02*
G01X25136Y18350D01*
G01X25136Y18350D02*
G01X25113Y18304D01*
G01X25113Y18304D02*
G01X25068Y18281D01*
G01X25068Y18281D02*
G01X24954Y18259D01*
G01X24954Y18259D02*
G01X24909Y18236D01*
G01X24909Y18236D02*
G01X24886Y18190D01*
G01X24886Y18190D02*
G01X24886Y18168D01*
G01X24886Y18168D02*
G01X24909Y18122D01*
G01X24909Y18122D02*
G01X24977Y18100D01*
G01X24977Y18100D02*
G01X25045Y18100D01*
G01X25045Y18100D02*
G01X25113Y18122D01*
G01X25113Y18122D02*
G01X25136Y18168D01*
G01X25363Y18577D02*
G01X25340Y18554D01*
G01X25340Y18554D02*
G01X25318Y18577D01*
G01X25318Y18577D02*
G01X25340Y18600D01*
G01X25340Y18600D02*
G01X25363Y18577D01*
G01X25340Y18418D02*
G01X25340Y18100D01*
G01X25909Y18350D02*
G01X25931Y18395D01*
G01X25931Y18395D02*
G01X25999Y18418D01*
G01X25999Y18418D02*
G01X26068Y18418D01*
G01X26068Y18418D02*
G01X26136Y18395D01*
G01X26136Y18395D02*
G01X26159Y18350D01*
G01X26159Y18350D02*
G01X26136Y18304D01*
G01X26136Y18304D02*
G01X26090Y18281D01*
G01X26090Y18281D02*
G01X25977Y18259D01*
G01X25977Y18259D02*
G01X25931Y18236D01*
G01X25931Y18236D02*
G01X25909Y18190D01*
G01X25909Y18190D02*
G01X25909Y18168D01*
G01X25909Y18168D02*
G01X25931Y18122D01*
G01X25931Y18122D02*
G01X25999Y18100D01*
G01X25999Y18100D02*
G01X26068Y18100D01*
G01X26068Y18100D02*
G01X26136Y18122D01*
G01X26136Y18122D02*
G01X26159Y18168D01*
G01X26386Y18577D02*
G01X26363Y18554D01*
G01X26363Y18554D02*
G01X26340Y18577D01*
G01X26340Y18577D02*
G01X26363Y18600D01*
G01X26363Y18600D02*
G01X26386Y18577D01*
G01X26363Y18418D02*
G01X26363Y18100D01*
G01X26818Y18577D02*
G01X26818Y18100D01*
G01X26818Y18327D02*
G01X26749Y18395D01*
G01X26749Y18395D02*
G01X26704Y18418D01*
G01X26704Y18418D02*
G01X26636Y18418D01*
G01X26636Y18418D02*
G01X26590Y18395D01*
G01X26590Y18395D02*
G01X26568Y18327D01*
G01X26568Y18327D02*
G01X26568Y18100D01*
G01X27159Y18577D02*
G01X27159Y18100D01*
G01X27318Y18577D02*
G01X27000Y18577D01*
M00*
M02*
