;Holesize 1 =   41.0 PLATED MILS
;Holesize 2 =   21.0 PLATED MILS
M48
INCH,00.0000
T01C0.041
T02C0.021
%
G05
G90
T01
X010000Y003250
X010000Y004250
X010000Y005250
X010000Y006250
X010000Y007250
X010000Y008250
T02
X004370Y000850
X008770Y002450
X006530Y004880
X008410Y008250
X007700Y006130
X006090Y001650
X005170Y007210
X006010Y007210
X006010Y005900
X002870Y000850
X003540Y001360
X000800Y002880
X004300Y006950
X000800Y002880
X002510Y006770
X000800Y002880
X002510Y006770
X004300Y006950
X006090Y002620
M30
