;Holesize 1 =   43.0 PLATED MILS
;Holesize 2 =   40.0 PLATED MILS
;Holesize 3 =   35.0 PLATED MILS
;Holesize 4 =   55.0 PLATED MILS
;Holesize 5 =  100.0 PLATED MILS
;Holesize 6 =   21.0 PLATED MILS
M48
INCH,00.0000
T01C0.043
T02C0.040
T03C0.035
T04C0.055
T05C0.100
T06C0.021
%
G05
G90
T01
X001500Y005500
X001500Y007500
X035500Y007500
X035500Y005500
T02
X006000Y007000
X006000Y008000
X006000Y009000
X006900Y013000
X006900Y014000
X006900Y015000
X005200Y013000
X005200Y014000
X005200Y015000
X031000Y007000
X031000Y008000
X031000Y009000
X031800Y013000
X031800Y014000
X031800Y015000
X030100Y013000
X030100Y014000
X030100Y015000
X001800Y015900
X001800Y014900
X001800Y013900
X019500Y014000
X018500Y014000
X017500Y014000
X010000Y001500
X011000Y001500
X012000Y001500
X013000Y001500
X014000Y001500
X015000Y001500
X016000Y001500
X017000Y001500
X018000Y001500
X019000Y001500
X020000Y001500
X021000Y001500
X022000Y001500
X023000Y001500
X024000Y001500
X025000Y001500
X026000Y001500
X027000Y001500
X034000Y015900
X034000Y014900
X034000Y013900
X002000Y010400
X003000Y010400
T03
X002500Y002500
X003500Y002500
X004500Y002500
X006500Y002500
X002500Y000900
X003500Y000900
X004500Y000900
X006500Y000900
X030500Y002500
X031500Y002500
X032500Y002500
X034500Y002500
X030500Y000900
X031500Y000900
X032500Y000900
X034500Y000900
T04
X014600Y005500
X014600Y007000
X014600Y008500
T05
X018500Y004800
X018500Y009200
T06
X014000Y002600
X009050Y002600
X014000Y002600
X027850Y002600
X017000Y016450
X014900Y016950
X019550Y016600
X016100Y016450
X014300Y011050
X027650Y010400
X027650Y003350
X022250Y007000
X022250Y007000
X022250Y007000
X015800Y011150
X026900Y011150
X010750Y007750
X016950Y007750
X015800Y011150
X012300Y011150
X023300Y009250
X026900Y011150
X015800Y011150
X012300Y011150
X008400Y010350
X011500Y010350
X013800Y014300
X010250Y014300
X010250Y014300
X008950Y009150
X013800Y014300
X022800Y014300
X024800Y010200
X024800Y003400
X010250Y014300
X022200Y005500
X020050Y005500
X020050Y005500
X013400Y006300
X010500Y011100
X001000Y011100
X022200Y005500
X020050Y005500
X020050Y005500
X022200Y005500
X022200Y005500
X020050Y005500
X014400Y016450
X017500Y015000
X010050Y015000
X012750Y014300
X012650Y016550
X012750Y014300
X022000Y001500
X023150Y013400
X023150Y013400
X026850Y014300
X032500Y010500
X026850Y009800
X022400Y008650
X020000Y001500
X011650Y009600
X012500Y004800
X009350Y003600
X005100Y009800
X017150Y010650
X025550Y007300
X022400Y008650
X025900Y004200
X016550Y004500
X011850Y004500
M30
