G04 FreePCB version 1.359*
G04 C:\Users\pmesser\_Paul\Design\DSOscope\PCB\A02\CAM_DSOscope_AnalogBrd_A02\top_copper.grb*
G04 top copper layer *
G04 Scale: 100 percent, Rotated: No, Reflected: No *
%FSLAX24Y24*%
%MOIN*%
%LN top copper *%
G04 Rounded Rectangle Macro, params: W/2, H/2, R *
%AMRNDREC*
21,1,$1+$1,$2+$2-$3-$3,0,0,0*
21,1,$1+$1-$3-$3,$2+$2,0,0,0*
1,1,$3+$3,$1-$3,$2-$3*
1,1,$3+$3,$3-$1,$2-$3*
1,1,$3+$3,$1-$3,$3-$2*
1,1,$3+$3,$3-$1,$3-$2*%
G04 Rectangular Thermal Macro, params: W/2, H/2, T/2 *
%AMRECTHERM*
$4=$3/2*
21,1,$1-$3,$2-$3,0-$1/2-$4,0-$2/2-$4,0*
21,1,$1-$3,$2-$3,0-$1/2-$4,$2/2+$4,0*
21,1,$1-$3,$2-$3,$1/2+$4,0-$2/2-$4,0*
21,1,$1-$3,$2-$3,$1/2+$4,$2/2+$4,0*%
%ADD10C,0.005000*%
%ADD11R,0.125000X0.125000*%
%ADD12C,0.125000*%
%ADD13R,0.030000X0.085000*%
%ADD14R,0.060000X0.075000*%
%ADD15R,0.125000X0.085000*%
%ADD16RNDREC,0.062500X0.042500X0.020000*%
%ADD17R,0.050000X0.050000*%
%ADD18R,0.085000X0.085000*%
%ADD19C,0.085000*%
%ADD20R,0.075000X0.075000*%
%ADD21C,0.075000*%
%ADD22R,0.085000X0.125000*%
%ADD23RNDREC,0.042500X0.062500X0.020000*%
%ADD24R,0.075000X0.035000*%
%ADD25R,0.075000X0.045000*%
%ADD26RNDREC,0.100000X0.075000X0.020000*%
%ADD27R,0.060000X0.035000*%
%ADD28R,0.080000X0.080000*%
%ADD29C,0.080000*%
%ADD30R,0.047000X0.043000*%
%ADD31C,0.050000*%
%ADD32C,0.015000*%
%ADD33C,0.025000*%
%ADD34C,0.035000*%
%ADD35C,0.100000*%
%ADD36C,0.030000*%
%ADD37C,0.010000*%
G90*
G70D02*

G04 Step and Repeat for panelization *

G04 ----------------------- Draw board outline (positive)*
%LPD*%
G54D10*
G01X0Y0D02*
G01X0Y19000D01*
G04 end of side 1*
G01X37000Y19000D01*
G04 end of side 2*
G01X37000Y0D01*
G04 end of side 3*
G01X0Y0D01*

G04 -------------- Draw Parts, Pads, Traces, Vias and Text (positive)*
%LPD*%
G04 Draw part J1*
G54D11*
G01X1500Y5500D03*
G54D12*
G01X1500Y7500D03*
G04 Draw part U1*
G54D13*
G01X10800Y12100D03*
G01X11300Y12100D03*
G01X11800Y12100D03*
G01X12300Y12100D03*
G01X10800Y14300D03*
G01X11300Y14300D03*
G01X11800Y14300D03*
G01X12300Y14300D03*
G04 Draw part C1*
G54D14*
G01X2700Y4900D03*
G01X4050Y4900D03*
G04 Draw part SW2*
G54D15*
G01X6000Y7000D03*
G54D16*
G01X6000Y8000D03*
G01X6000Y9000D03*
G04 Draw part R3*
G54D17*
G01X4100Y7800D03*
G01X4100Y8700D03*
G04 Draw part R6*
G01X7700Y8500D03*
G01X7700Y7600D03*
G04 Draw part SW1*
G54D18*
G01X2500Y2500D03*
G54D19*
G01X3500Y2500D03*
G01X4500Y2500D03*
G01X6500Y2500D03*
G01X2500Y900D03*
G01X3500Y900D03*
G01X4500Y900D03*
G01X6500Y900D03*
G04 Draw part R1*
G54D17*
G01X5800Y4600D03*
G01X5800Y5500D03*
G04 Draw part C2*
G01X5000Y4900D03*
G01X5000Y5800D03*
G04 Draw part R2*
G01X4100Y6100D03*
G01X4100Y7000D03*
G04 Draw part R10*
G01X6000Y10500D03*
G01X5100Y10500D03*
G04 Draw part SW3*
G54D15*
G01X6900Y13000D03*
G54D16*
G01X6900Y14000D03*
G01X6900Y15000D03*
G54D15*
G01X5200Y13000D03*
G54D16*
G01X5200Y14000D03*
G01X5200Y15000D03*
G04 Draw part R5*
G54D17*
G01X9300Y12100D03*
G01X9300Y13000D03*
G04 Draw part R8*
G01X8500Y12100D03*
G01X8500Y13000D03*
G04 Draw part R12*
G01X8700Y14100D03*
G01X8700Y15000D03*
G04 Draw part R11*
G01X9600Y15800D03*
G01X8700Y15800D03*
G04 Draw part U3*
G54D13*
G01X14300Y12100D03*
G01X14800Y12100D03*
G01X15300Y12100D03*
G01X15800Y12100D03*
G01X14300Y14300D03*
G01X14800Y14300D03*
G01X15300Y14300D03*
G01X15800Y14300D03*
G04 Draw part R7*
G54D17*
G01X11300Y15800D03*
G01X12200Y15800D03*
G04 Draw part R4*
G01X13300Y13000D03*
G01X13300Y12100D03*
G04 Draw part R9*
G01X13300Y10300D03*
G01X13300Y11200D03*
G04 Draw part J2*
G54D11*
G01X35500Y7500D03*
G54D12*
G01X35500Y5500D03*
G04 Draw part U2*
G54D13*
G01X24700Y12100D03*
G01X25200Y12100D03*
G01X25700Y12100D03*
G01X26200Y12100D03*
G01X24700Y14300D03*
G01X25200Y14300D03*
G01X25700Y14300D03*
G01X26200Y14300D03*
G04 Draw part C3*
G54D14*
G01X34000Y6500D03*
G01X32650Y6500D03*
G04 Draw part SW6*
G54D15*
G01X31000Y7000D03*
G54D16*
G01X31000Y8000D03*
G01X31000Y9000D03*
G04 Draw part R16*
G54D17*
G01X29300Y7100D03*
G01X29300Y8000D03*
G04 Draw part R19*
G01X28400Y8400D03*
G01X28400Y7500D03*
G04 Draw part SW5*
G54D18*
G01X30500Y2500D03*
G54D19*
G01X31500Y2500D03*
G01X32500Y2500D03*
G01X34500Y2500D03*
G01X30500Y900D03*
G01X31500Y900D03*
G01X32500Y900D03*
G01X34500Y900D03*
G04 Draw part R14*
G54D17*
G01X30600Y5500D03*
G01X30600Y4600D03*
G04 Draw part C4*
G01X32000Y5500D03*
G01X32000Y4600D03*
G04 Draw part R15*
G01X29300Y5400D03*
G01X29300Y6300D03*
G04 Draw part R23*
G01X31000Y10500D03*
G01X31900Y10500D03*
G04 Draw part SW7*
G54D15*
G01X31800Y13000D03*
G54D16*
G01X31800Y14000D03*
G01X31800Y15000D03*
G54D15*
G01X30100Y13000D03*
G54D16*
G01X30100Y14000D03*
G01X30100Y15000D03*
G04 Draw part R18*
G54D17*
G01X27700Y12100D03*
G01X27700Y13000D03*
G04 Draw part R21*
G01X28500Y12100D03*
G01X28500Y13000D03*
G04 Draw part R25*
G01X28300Y14000D03*
G01X28300Y14900D03*
G04 Draw part R24*
G01X27400Y15800D03*
G01X28300Y15800D03*
G04 Draw part R20*
G01X25200Y15800D03*
G01X24300Y15800D03*
G04 Draw part R17*
G01X15300Y15800D03*
G01X14400Y15800D03*
G04 Draw part R22*
G01X18400Y12300D03*
G01X17500Y12300D03*
G04 Draw part R13*
G54D20*
G01X1800Y15900D03*
G54D21*
G01X1800Y14900D03*
G01X1800Y13900D03*
G04 Draw part SW4*
G54D22*
G01X19500Y14000D03*
G54D23*
G01X18500Y14000D03*
G01X17500Y14000D03*
G04 Draw part J3*
G54D18*
G01X10000Y1500D03*
G54D19*
G01X11000Y1500D03*
G01X12000Y1500D03*
G01X13000Y1500D03*
G01X14000Y1500D03*
G01X15000Y1500D03*
G01X16000Y1500D03*
G01X17000Y1500D03*
G01X18000Y1500D03*
G01X19000Y1500D03*
G01X20000Y1500D03*
G01X21000Y1500D03*
G01X22000Y1500D03*
G01X23000Y1500D03*
G01X24000Y1500D03*
G01X25000Y1500D03*
G01X26000Y1500D03*
G01X27000Y1500D03*
G04 Draw part C5*
G54D17*
G01X9500Y14100D03*
G01X9500Y15000D03*
G04 Draw part C6*
G01X13300Y15400D03*
G01X13300Y16300D03*
G04 Draw part C7*
G01X23800Y14300D03*
G01X23800Y13400D03*
G04 Draw part C9*
G01X12300Y9600D03*
G01X12300Y10500D03*
G04 Draw part C10*
G01X16600Y11200D03*
G01X16600Y12100D03*
G04 Draw part C11*
G01X26200Y9800D03*
G01X26200Y10700D03*
G04 Draw part U4*
G54D13*
G01X24800Y6900D03*
G01X24300Y6900D03*
G01X23800Y6900D03*
G01X23300Y6900D03*
G01X24800Y4700D03*
G01X24300Y4700D03*
G01X23800Y4700D03*
G01X23300Y4700D03*
G04 Draw part C8*
G54D17*
G01X25600Y3400D03*
G01X26500Y3400D03*
G04 Draw part C12*
G01X22400Y8000D03*
G01X23300Y8000D03*
G04 Draw part D1*
G54D24*
G01X7700Y6700D03*
G01X9200Y6700D03*
G04 Draw part D2*
G01X9200Y6000D03*
G01X7700Y6000D03*
G04 Draw part D4*
G54D25*
G01X7600Y5200D03*
G01X9350Y5200D03*
G04 Draw part D5*
G01X7600Y4300D03*
G01X9350Y4300D03*
G04 Draw part R29*
G54D11*
G01X14600Y5500D03*
G54D12*
G01X14600Y7000D03*
G01X14600Y8500D03*
G54D26*
G01X18500Y4800D03*
G01X18500Y9200D03*
G04 Draw part R28*
G54D17*
G01X24300Y9000D03*
G01X24300Y8100D03*
G04 Draw part R26*
G01X25700Y6300D03*
G01X25700Y5400D03*
G04 Draw part R27*
G01X22900Y3400D03*
G01X23800Y3400D03*
G04 Draw part C13*
G01X13400Y5500D03*
G01X12500Y5500D03*
G04 Draw part D6*
G54D24*
G01X28400Y6600D03*
G01X26900Y6600D03*
G04 Draw part D7*
G01X26900Y5900D03*
G01X28400Y5900D03*
G04 Draw part R30*
G54D17*
G01X1500Y12200D03*
G01X2400Y12200D03*
G04 Draw part R31*
G54D20*
G01X34000Y15900D03*
G54D21*
G01X34000Y14900D03*
G01X34000Y13900D03*
G04 Draw part R32*
G54D17*
G01X17000Y15800D03*
G01X16100Y15800D03*
G04 Draw part D8*
G54D27*
G01X21800Y2800D03*
G01X21000Y3180D03*
G01X21800Y3560D03*
G04 Draw part D11*
G54D28*
G01X2000Y10400D03*
G54D29*
G01X3000Y10400D03*
G04 Draw part D9*
G54D25*
G01X28400Y5100D03*
G01X26650Y5100D03*
G04 Draw part D10*
G01X28400Y4200D03*
G01X26650Y4200D03*
G04 Draw part C14*
G54D30*
G01X10000Y12100D03*
G01X10000Y12770D03*
G04 Draw part C15*
G01X27000Y12500D03*
G01X27000Y13170D03*
G04 Draw part R33*
G04 Draw part R34*
G04 Draw part C18*
G04 Draw part C16*
G04 Draw part C17*
G54D17*
G01X12000Y3600D03*
G01X11100Y3600D03*
G04 Draw part D3*
G54D27*
G01X19400Y2800D03*
G01X18600Y3180D03*
G01X19400Y3560D03*

G04 Draw traces*
G54D31*
G01X14000Y2600D03*
G01X9050Y2600D03*
G54D32*
G01X9050Y2600D02*
G01X8150Y1700D01*
G01X8150Y1700D02*
G01X5300Y1700D01*
G01X5300Y1700D02*
G01X4500Y900D01*
G01X14000Y1500D02*
G01X14000Y2600D01*
G54D31*
G01X14000Y2600D03*
G01X27850Y2600D03*
G54D32*
G01X15300Y12100D02*
G01X15300Y12700D01*
G01X15300Y12700D02*
G01X15600Y13000D01*
G01X15600Y13000D02*
G01X16050Y13000D01*
G01X16050Y13000D02*
G01X16400Y13350D01*
G01X16400Y13350D02*
G01X16400Y14650D01*
G01X16400Y14650D02*
G01X17000Y15250D01*
G01X17000Y15250D02*
G01X17000Y15800D01*
G01X17000Y15800D02*
G01X17000Y16600D01*
G01X17000Y16600D02*
G01X17000Y16450D01*
G54D31*
G01X17000Y16450D03*
G01X14900Y16950D03*
G54D32*
G01X14900Y16950D02*
G01X14550Y16950D01*
G01X14550Y16950D02*
G01X14400Y17100D01*
G01X14400Y17100D02*
G01X3900Y17100D01*
G01X3900Y17100D02*
G01X3350Y16550D01*
G01X3350Y16550D02*
G01X3350Y15250D01*
G01X3350Y15250D02*
G01X3000Y14900D01*
G01X3000Y14900D02*
G01X1800Y14900D01*
G01X30600Y4600D02*
G01X32000Y4600D01*
G01X30600Y4600D02*
G01X30100Y4600D01*
G01X30100Y4600D02*
G01X29300Y5400D01*
G01X30500Y2500D02*
G01X30600Y2500D01*
G01X30600Y2500D02*
G01X30600Y4600D01*
G01X15800Y14300D02*
G01X15800Y14900D01*
G01X15800Y14900D02*
G01X16100Y15200D01*
G01X16100Y15200D02*
G01X16100Y15800D01*
G01X34000Y14900D02*
G01X33200Y14900D01*
G01X33200Y14900D02*
G01X32950Y15150D01*
G01X32950Y15150D02*
G01X32950Y16000D01*
G01X32950Y16000D02*
G01X32350Y16600D01*
G01X32350Y16600D02*
G01X19550Y16600D01*
G54D31*
G01X19550Y16600D03*
G01X16100Y16450D03*
G54D32*
G01X16100Y16450D02*
G01X16100Y15800D01*
G01X16000Y1500D02*
G01X16000Y9100D01*
G01X16000Y9100D02*
G01X15300Y9800D01*
G01X15300Y9800D02*
G01X13750Y9800D01*
G01X13750Y9800D02*
G01X12900Y8950D01*
G01X12900Y8950D02*
G01X11500Y8950D01*
G01X11500Y8950D02*
G01X9800Y10650D01*
G01X9800Y10650D02*
G01X9800Y11000D01*
G01X9800Y11000D02*
G01X9250Y11550D01*
G01X9250Y11550D02*
G01X8100Y11550D01*
G01X8100Y11550D02*
G01X7500Y12150D01*
G01X7500Y12150D02*
G01X5500Y12150D01*
G01X5500Y12150D02*
G01X5200Y12450D01*
G01X5200Y12450D02*
G01X5200Y13000D01*
G01X10000Y12770D02*
G01X10000Y13000D01*
G01X10000Y13000D02*
G01X9300Y13000D01*
G01X9300Y13000D02*
G01X9300Y13400D01*
G01X9300Y13400D02*
G01X9150Y13550D01*
G01X9150Y13550D02*
G01X8950Y13550D01*
G01X8950Y13550D02*
G01X8700Y13800D01*
G01X8700Y13800D02*
G01X8700Y14100D01*
G01X6900Y14000D02*
G01X6900Y14100D01*
G01X6900Y14100D02*
G01X8700Y14100D01*
G01X10000Y12770D02*
G01X10370Y12770D01*
G01X10370Y12770D02*
G01X10850Y13250D01*
G01X10850Y13250D02*
G01X11550Y13250D01*
G01X11550Y13250D02*
G01X11800Y13500D01*
G01X11800Y13500D02*
G01X11800Y14300D01*
G01X28500Y12100D02*
G01X27700Y12100D01*
G01X25200Y12100D02*
G01X25200Y11550D01*
G01X25200Y11550D02*
G01X25100Y11450D01*
G01X25100Y11450D02*
G01X24800Y11450D01*
G01X24800Y11450D02*
G01X24700Y11550D01*
G01X24700Y11550D02*
G01X24700Y12100D01*
G01X25200Y12100D02*
G01X25200Y12750D01*
G01X25200Y12750D02*
G01X25300Y12850D01*
G01X25300Y12850D02*
G01X26450Y12850D01*
G01X26450Y12850D02*
G01X26550Y12750D01*
G01X26550Y12750D02*
G01X26550Y12650D01*
G01X26550Y12650D02*
G01X26700Y12500D01*
G01X26700Y12500D02*
G01X27000Y12500D01*
G01X27000Y12500D02*
G01X27000Y12150D01*
G01X27000Y12150D02*
G01X27050Y12100D01*
G01X27050Y12100D02*
G01X27700Y12100D01*
G01X9200Y6000D02*
G01X9200Y6700D01*
G01X9350Y5200D02*
G01X9350Y6000D01*
G01X9350Y6000D02*
G01X9200Y6000D01*
G01X28400Y4200D02*
G01X28400Y5100D01*
G01X2700Y4900D02*
G01X2100Y4900D01*
G01X2100Y4900D02*
G01X1500Y5500D01*
G01X8700Y15000D02*
G01X8700Y15800D01*
G01X6900Y15000D02*
G01X8700Y15000D01*
G01X30100Y13000D02*
G01X28500Y13000D01*
G01X15000Y1500D02*
G01X15000Y2550D01*
G01X15000Y2550D02*
G01X15650Y3200D01*
G01X15650Y3200D02*
G01X15650Y8900D01*
G01X15650Y8900D02*
G01X15150Y9400D01*
G01X15150Y9400D02*
G01X14000Y9400D01*
G01X14000Y9400D02*
G01X13100Y8550D01*
G01X13100Y8550D02*
G01X11400Y8550D01*
G01X11400Y8550D02*
G01X9400Y10550D01*
G01X9400Y10550D02*
G01X9400Y10800D01*
G01X9400Y10800D02*
G01X9000Y11200D01*
G01X9000Y11200D02*
G01X7950Y11200D01*
G01X7950Y11200D02*
G01X7350Y11800D01*
G01X7350Y11800D02*
G01X4800Y11800D01*
G01X4800Y11800D02*
G01X4150Y12450D01*
G01X4150Y12450D02*
G01X4150Y13700D01*
G01X4150Y13700D02*
G01X4450Y14000D01*
G01X4450Y14000D02*
G01X5200Y14000D01*
G01X24300Y9000D02*
G01X24300Y9750D01*
G01X24300Y9750D02*
G01X24050Y10000D01*
G01X24050Y10000D02*
G01X23600Y10000D01*
G01X23600Y10000D02*
G01X20600Y13000D01*
G01X20600Y13000D02*
G01X18800Y13000D01*
G01X18800Y13000D02*
G01X18500Y13300D01*
G01X18500Y13300D02*
G01X18500Y14000D01*
G01X7600Y4300D02*
G01X7600Y5200D01*
G01X13300Y11200D02*
G01X13300Y12100D01*
G01X13300Y12100D02*
G01X14300Y12100D01*
G54D31*
G01X14300Y11050D03*
G54D32*
G01X14300Y11050D02*
G01X14300Y12100D01*
G01X27700Y13000D02*
G01X27700Y13400D01*
G01X27700Y13400D02*
G01X28300Y14000D01*
G01X27000Y13170D02*
G01X27530Y13170D01*
G01X27530Y13170D02*
G01X27700Y13000D01*
G01X25700Y14300D02*
G01X25700Y13500D01*
G01X25700Y13500D02*
G01X25800Y13400D01*
G01X25800Y13400D02*
G01X26400Y13400D01*
G01X26400Y13400D02*
G01X26630Y13170D01*
G01X26630Y13170D02*
G01X27000Y13170D01*
G01X30100Y14000D02*
G01X30150Y14000D01*
G01X30150Y14000D02*
G01X28300Y14000D01*
G01X28400Y5900D02*
G01X28400Y6650D01*
G01X28400Y6650D02*
G01X28400Y6600D01*
G01X28400Y7500D02*
G01X28400Y6600D01*
G01X28400Y7500D02*
G01X26550Y7500D01*
G01X26550Y7500D02*
G01X26300Y7750D01*
G01X26300Y7750D02*
G01X26300Y8800D01*
G01X26300Y8800D02*
G01X25700Y9400D01*
G01X25700Y9400D02*
G01X25700Y12100D01*
G01X31800Y14000D02*
G01X32700Y14000D01*
G01X32700Y14000D02*
G01X32950Y13750D01*
G01X32950Y13750D02*
G01X32950Y12100D01*
G01X32950Y12100D02*
G01X32550Y11700D01*
G01X32550Y11700D02*
G01X29650Y11700D01*
G01X29650Y11700D02*
G01X28350Y10400D01*
G01X28350Y10400D02*
G01X27650Y10400D01*
G54D31*
G01X27650Y10400D03*
G01X27650Y3350D03*
G54D32*
G01X27650Y3350D02*
G01X26950Y2650D01*
G01X26950Y2650D02*
G01X26500Y2650D01*
G01X26500Y2650D02*
G01X26000Y2150D01*
G01X26000Y2150D02*
G01X26000Y1500D01*
G01X23800Y6900D02*
G01X23800Y6150D01*
G01X23800Y6150D02*
G01X23650Y6000D01*
G01X23650Y6000D02*
G01X22750Y6000D01*
G01X22750Y6000D02*
G01X22250Y6500D01*
G01X22250Y6500D02*
G01X22250Y7000D01*
G54D31*
G01X22250Y7000D03*
G54D32*
G01X23800Y6900D02*
G01X23800Y6150D01*
G01X23800Y6150D02*
G01X23650Y6000D01*
G01X23650Y6000D02*
G01X22750Y6000D01*
G01X22750Y6000D02*
G01X22250Y6500D01*
G01X22250Y6500D02*
G01X22250Y7000D01*
G54D31*
G01X22250Y7000D03*
G01X22250Y7000D03*
G54D32*
G01X22250Y7000D02*
G01X22250Y6500D01*
G01X22250Y6500D02*
G01X22750Y6000D01*
G01X22750Y6000D02*
G01X23650Y6000D01*
G01X23650Y6000D02*
G01X23800Y6150D01*
G01X23800Y6150D02*
G01X23800Y6900D01*
G54D33*
G01X26200Y12100D02*
G01X26200Y10700D01*
G01X15800Y12100D02*
G01X15800Y11150D01*
G54D31*
G01X15800Y11150D03*
G01X26900Y11150D03*
G54D32*
G01X26900Y11150D02*
G01X26900Y10800D01*
G01X26900Y10800D02*
G01X26800Y10700D01*
G01X26800Y10700D02*
G01X26200Y10700D01*
G54D33*
G01X12300Y12100D02*
G01X12300Y10500D01*
G54D31*
G01X11000Y1500D02*
G01X11000Y2450D01*
G01X11000Y2450D02*
G01X11100Y2550D01*
G01X11100Y2550D02*
G01X11100Y7400D01*
G01X11100Y7400D02*
G01X10750Y7750D01*
G01X10750Y7750D03*
G01X16950Y7750D03*
G01X16950Y7750D02*
G01X16950Y9550D01*
G01X16950Y9550D02*
G01X15800Y10700D01*
G01X15800Y10700D02*
G01X15800Y11150D01*
G01X15800Y11150D03*
G01X12300Y11150D03*
G54D33*
G01X12300Y11150D02*
G01X12300Y10500D01*
G01X15800Y12100D02*
G01X16600Y12100D01*
G01X23300Y8000D02*
G01X23300Y9250D01*
G54D31*
G01X23300Y9250D03*
G01X26900Y11150D03*
G54D34*
G01X26900Y11150D02*
G01X26900Y10800D01*
G01X26900Y10800D02*
G01X26800Y10700D01*
G01X26800Y10700D02*
G01X26200Y10700D01*
G54D33*
G01X23300Y6900D02*
G01X23300Y8000D01*
G54D32*
G01X15800Y12100D02*
G01X15800Y11150D01*
G54D31*
G01X15800Y11150D03*
G01X12300Y11150D03*
G54D33*
G01X12300Y11150D02*
G01X12300Y12100D01*
G54D31*
G01X11100Y3600D02*
G01X11100Y2550D01*
G01X11100Y2550D02*
G01X11000Y2450D01*
G01X11000Y2450D02*
G01X11000Y1550D01*
G54D32*
G01X11000Y1550D02*
G01X11000Y1500D01*
G01X7700Y6000D02*
G01X7700Y6700D01*
G01X7700Y7600D02*
G01X7700Y6700D01*
G01X7700Y7600D02*
G01X8200Y7600D01*
G01X8200Y7600D02*
G01X8400Y7800D01*
G01X8400Y7800D02*
G01X8400Y10350D01*
G54D31*
G01X8400Y10350D03*
G01X11500Y10350D03*
G54D32*
G01X11500Y10350D02*
G01X11500Y11100D01*
G01X11500Y11100D02*
G01X11800Y11400D01*
G01X11800Y11400D02*
G01X11800Y12100D01*
G01X11300Y14300D02*
G01X11300Y15800D01*
G01X9600Y15800D02*
G01X11300Y15800D01*
G01X28300Y14900D02*
G01X28300Y15800D01*
G01X30100Y15000D02*
G01X30100Y14900D01*
G01X30100Y14900D02*
G01X28300Y14900D01*
G01X26900Y5900D02*
G01X26900Y5850D01*
G01X26900Y5850D02*
G01X26900Y6600D01*
G01X26650Y5100D02*
G01X26750Y5150D01*
G01X26750Y5150D02*
G01X26750Y5450D01*
G01X26750Y5450D02*
G01X26900Y5600D01*
G01X26900Y5600D02*
G01X26900Y5900D01*
G01X4500Y2500D02*
G01X5500Y3500D01*
G01X5500Y3500D02*
G01X6450Y3500D01*
G01X6450Y3500D02*
G01X6850Y3900D01*
G01X6850Y3900D02*
G01X6850Y6450D01*
G01X6850Y6450D02*
G01X6000Y7000D01*
G01X4100Y7000D02*
G01X4100Y7800D01*
G01X4100Y7000D02*
G01X6000Y7000D01*
G01X14800Y12100D02*
G01X14800Y12700D01*
G01X14800Y12700D02*
G01X14500Y13000D01*
G01X14500Y13000D02*
G01X13300Y13000D01*
G01X13300Y13000D02*
G01X13300Y14600D01*
G01X13300Y14600D02*
G01X13050Y14850D01*
G01X13050Y14850D02*
G01X12750Y14850D01*
G01X12750Y14850D02*
G01X12200Y15400D01*
G01X12200Y15400D02*
G01X12200Y15800D01*
G01X25200Y14300D02*
G01X25200Y15800D01*
G01X27400Y15800D02*
G01X25200Y15800D01*
G01X9500Y14100D02*
G01X9900Y14100D01*
G01X9900Y14100D02*
G01X10250Y14300D01*
G01X10250Y14300D02*
G01X10800Y14300D01*
G01X14300Y14300D02*
G01X13800Y14300D01*
G54D31*
G01X13800Y14300D03*
G01X10250Y14300D03*
G54D33*
G01X10250Y14300D02*
G01X10800Y14300D01*
G54D32*
G01X14300Y14300D02*
G01X13800Y14300D01*
G54D33*
G01X13800Y14300D02*
G01X13800Y14900D01*
G01X13800Y14900D02*
G01X13300Y15400D01*
G01X9500Y14100D02*
G01X9900Y14100D01*
G01X9900Y14100D02*
G01X10250Y14300D01*
G54D31*
G01X10250Y14300D03*
G01X8950Y9150D03*
G01X8950Y9150D02*
G01X8950Y8300D01*
G01X8950Y8300D02*
G01X10300Y6950D01*
G01X10300Y6950D02*
G01X10300Y2800D01*
G01X10300Y2800D02*
G01X10000Y2500D01*
G01X10000Y2500D02*
G01X10000Y1500D01*
G54D33*
G01X25600Y3400D02*
G01X24800Y3400D01*
G54D32*
G01X24800Y3400D02*
G01X24800Y4700D01*
G54D33*
G01X14300Y14300D02*
G01X13800Y14300D01*
G54D31*
G01X13800Y14300D03*
G01X22800Y14300D03*
G54D34*
G01X22800Y14300D02*
G01X23700Y14300D01*
G54D32*
G01X23700Y14300D02*
G01X23800Y14300D01*
G54D34*
G01X23800Y14300D02*
G01X22350Y14300D01*
G54D31*
G01X22350Y14300D02*
G01X22000Y13950D01*
G01X22000Y13950D02*
G01X22000Y13000D01*
G01X22000Y13000D02*
G01X24800Y10200D01*
G01X24800Y10200D03*
G01X24800Y3400D03*
G54D33*
G01X24800Y3400D02*
G01X24800Y4700D01*
G01X24700Y14300D02*
G01X23800Y14300D01*
G54D31*
G01X10250Y14300D03*
G54D32*
G01X10250Y14300D02*
G01X9900Y14100D01*
G01X9900Y14100D02*
G01X9500Y14100D01*
G54D34*
G01X1500Y12200D02*
G01X1500Y12750D01*
G01X1500Y12750D02*
G01X1800Y13050D01*
G01X1800Y13050D02*
G01X1800Y13900D01*
G01X13400Y5500D02*
G01X13400Y4800D01*
G54D31*
G01X13400Y4800D02*
G01X13400Y3350D01*
G01X13400Y3350D02*
G01X12000Y2450D01*
G01X12000Y2450D02*
G01X12000Y1500D01*
G54D32*
G01X34000Y13900D02*
G01X34100Y13900D01*
G54D21*
G01X34100Y13900D02*
G01X34650Y13900D01*
G01X34650Y13900D02*
G01X35500Y14750D01*
G54D35*
G01X35500Y14750D02*
G01X35500Y16800D01*
G01X35500Y16800D02*
G01X34300Y18000D01*
G01X34300Y18000D02*
G01X2150Y18000D01*
G54D31*
G01X2150Y18000D02*
G01X1250Y18000D01*
G01X1250Y18000D02*
G01X800Y17550D01*
G01X800Y17550D02*
G01X800Y14250D01*
G01X800Y14250D02*
G01X1150Y13900D01*
G01X1150Y13900D02*
G01X1800Y13900D01*
G54D34*
G01X13400Y5500D02*
G01X14600Y5500D01*
G54D36*
G01X21800Y3560D02*
G01X22140Y3560D01*
G54D32*
G01X22140Y3560D02*
G01X22150Y3550D01*
G54D33*
G01X22150Y3550D02*
G01X22450Y3850D01*
G54D32*
G01X22450Y3850D02*
G01X22450Y5250D01*
G01X22450Y5250D02*
G01X22200Y5500D01*
G54D31*
G01X22200Y5500D03*
G01X20050Y5500D03*
G54D32*
G01X20050Y5500D02*
G01X20050Y4000D01*
G54D33*
G01X20050Y4000D02*
G01X20050Y5500D01*
G54D31*
G01X20050Y5500D03*
G54D34*
G01X13400Y5500D02*
G01X13400Y6300D01*
G54D31*
G01X13400Y6300D03*
G01X10500Y11100D03*
G01X1000Y11100D03*
G54D34*
G01X1000Y11100D02*
G01X1500Y11600D01*
G01X1500Y11600D02*
G01X1500Y12200D01*
G54D32*
G01X21800Y3560D02*
G01X22160Y3560D01*
G01X22160Y3560D02*
G01X22450Y3850D01*
G01X22450Y3850D02*
G01X22450Y5250D01*
G01X22450Y5250D02*
G01X22200Y5500D01*
G54D31*
G01X22200Y5500D03*
G01X20050Y5500D03*
G54D32*
G01X20050Y5500D02*
G01X20050Y5000D01*
G54D33*
G01X20050Y5000D02*
G01X20050Y5500D01*
G54D31*
G01X20050Y5500D03*
G01X22200Y5500D03*
G54D33*
G01X22200Y5500D02*
G01X22450Y5250D01*
G01X22450Y5250D02*
G01X22450Y3850D01*
G01X22450Y3850D02*
G01X22900Y3400D01*
G54D32*
G01X21800Y3560D02*
G01X21850Y3550D01*
G01X21850Y3550D02*
G01X22150Y3550D01*
G01X22150Y3550D02*
G01X22450Y3850D01*
G01X22450Y3850D02*
G01X22450Y5250D01*
G01X22450Y5250D02*
G01X22200Y5500D01*
G54D31*
G01X22200Y5500D03*
G01X20050Y5500D03*
G54D32*
G01X20050Y5500D02*
G01X20050Y5000D01*
G54D33*
G01X20050Y5000D02*
G01X20050Y3650D01*
G01X20050Y3650D02*
G01X19950Y3550D01*
G54D32*
G01X19950Y3550D02*
G01X19940Y3560D01*
G54D33*
G01X19940Y3560D02*
G01X19400Y3560D01*
G54D32*
G01X6000Y10500D02*
G01X6000Y9000D01*
G01X34000Y6500D02*
G01X34000Y7150D01*
G01X34000Y7150D02*
G01X34350Y7500D01*
G01X34350Y7500D02*
G01X35500Y7500D01*
G01X34000Y6500D02*
G01X34000Y5350D01*
G01X34000Y5350D02*
G01X32500Y3850D01*
G01X32500Y3850D02*
G01X32050Y3850D01*
G01X32050Y3850D02*
G01X31500Y3300D01*
G01X31500Y3300D02*
G01X31500Y2500D01*
G01X15300Y14300D02*
G01X15300Y15800D01*
G01X15300Y15800D02*
G01X15300Y16650D01*
G01X15300Y16650D02*
G01X15650Y17000D01*
G01X15650Y17000D02*
G01X18050Y17000D01*
G01X18050Y17000D02*
G01X19250Y15800D01*
G01X19250Y15800D02*
G01X24300Y15800D01*
G01X6000Y8000D02*
G01X6800Y8000D01*
G01X6800Y8000D02*
G01X7300Y8500D01*
G01X7300Y8500D02*
G01X7700Y8500D01*
G01X6000Y8000D02*
G01X5250Y8000D01*
G01X5250Y8000D02*
G01X4550Y8700D01*
G01X4550Y8700D02*
G01X4100Y8700D01*
G01X29300Y6300D02*
G01X29300Y7150D01*
G01X29300Y7150D02*
G01X29300Y7100D01*
G01X29300Y7100D02*
G01X31000Y7100D01*
G01X31000Y7100D02*
G01X31000Y7000D01*
G01X14800Y14300D02*
G01X14800Y14900D01*
G01X14800Y14900D02*
G01X14400Y15300D01*
G01X14400Y15300D02*
G01X14400Y15800D01*
G01X17500Y12300D02*
G01X17500Y14000D01*
G01X14400Y15800D02*
G01X14400Y16450D01*
G54D31*
G01X14400Y16450D03*
G01X17500Y15000D03*
G54D32*
G01X17500Y15000D02*
G01X17500Y14000D01*
G54D33*
G01X9500Y15000D02*
G01X10050Y15000D01*
G54D31*
G01X10050Y15000D03*
G01X12750Y14300D03*
G54D33*
G01X12750Y14300D02*
G01X12300Y14300D01*
G01X13300Y16300D02*
G01X12650Y16550D01*
G54D31*
G01X12650Y16550D03*
G01X12750Y14300D03*
G54D32*
G01X12750Y14300D02*
G01X12300Y14300D01*
G54D33*
G01X21800Y2800D02*
G01X21800Y2450D01*
G01X21800Y2450D02*
G01X22000Y2250D01*
G01X22000Y2250D02*
G01X22000Y1500D01*
G54D31*
G01X22000Y1500D03*
G01X23150Y13400D03*
G54D33*
G01X23150Y13400D02*
G01X23750Y13400D01*
G54D32*
G01X23750Y13400D02*
G01X23800Y13400D01*
G01X23800Y13400D02*
G01X23150Y13400D01*
G54D31*
G01X23150Y13400D03*
G01X26850Y14300D03*
G54D33*
G01X26850Y14300D02*
G01X26200Y14300D01*
G54D31*
G01X32500Y10500D03*
G54D33*
G01X32500Y10500D02*
G01X31900Y10500D01*
G01X26200Y9800D02*
G01X26850Y9800D01*
G54D31*
G01X26850Y9800D03*
G01X22400Y8650D03*
G54D33*
G01X22400Y8650D02*
G01X22400Y8000D01*
G01X19400Y2800D02*
G01X19850Y2800D01*
G01X19850Y2800D02*
G01X20000Y2650D01*
G01X20000Y2650D02*
G01X20000Y1500D01*
G54D31*
G01X20000Y1500D03*
G01X11650Y9600D03*
G54D33*
G01X11650Y9600D02*
G01X12300Y9600D01*
G01X12500Y5500D02*
G01X12500Y4800D01*
G54D31*
G01X12500Y4800D03*
G01X9350Y3600D03*
G54D33*
G01X9350Y3600D02*
G01X9350Y4300D01*
G54D31*
G01X5100Y9800D03*
G54D33*
G01X5100Y9800D02*
G01X5100Y10500D01*
G54D31*
G01X17150Y10650D03*
G54D33*
G01X17150Y10650D02*
G01X16600Y11200D01*
G01X24800Y6900D02*
G01X25150Y6900D01*
G01X25150Y6900D02*
G01X25550Y7300D01*
G54D31*
G01X25550Y7300D03*
G01X22400Y8650D03*
G54D32*
G01X22400Y8650D02*
G01X22400Y8000D01*
G01X26650Y4200D02*
G01X26500Y4200D01*
G01X26500Y4200D02*
G01X26500Y3400D01*
G01X26500Y3400D02*
G01X26500Y4200D01*
G01X26500Y4200D02*
G01X26650Y4200D01*
G01X26500Y3400D02*
G01X26500Y4200D01*
G01X26500Y4200D02*
G01X26650Y4200D01*
G54D33*
G01X26500Y3400D02*
G01X26500Y4200D01*
G01X26500Y4200D02*
G01X25900Y4200D01*
G54D31*
G01X25900Y4200D03*
G54D33*
G01X12000Y3600D02*
G01X12500Y4100D01*
G01X12500Y4100D02*
G01X12500Y4800D01*
G54D32*
G01X12500Y4800D02*
G01X12500Y5500D01*
G01X18600Y3180D02*
G01X18550Y3200D01*
G01X18550Y3200D02*
G01X17950Y3200D01*
G01X17950Y3200D02*
G01X17150Y4000D01*
G01X17150Y4000D02*
G01X17150Y4950D01*
G01X17150Y4950D02*
G01X16350Y5750D01*
G01X16350Y5750D02*
G01X16350Y9250D01*
G01X16350Y9250D02*
G01X15300Y10300D01*
G01X15300Y10300D02*
G01X13300Y10300D01*
G01X19000Y1500D02*
G01X19000Y2100D01*
G01X19000Y2100D02*
G01X18600Y2500D01*
G01X18600Y2500D02*
G01X18600Y3180D01*
G01X5000Y4900D02*
G01X5300Y4600D01*
G01X5300Y4600D02*
G01X5800Y4600D01*
G01X5000Y4900D02*
G01X4050Y4900D01*
G01X31000Y10500D02*
G01X31000Y9000D01*
G01X24300Y6900D02*
G01X24300Y8100D01*
G01X24300Y6900D02*
G01X24300Y6300D01*
G01X24300Y6300D02*
G01X24500Y6100D01*
G01X24500Y6100D02*
G01X25000Y6100D01*
G01X25000Y6100D02*
G01X25150Y6250D01*
G01X25150Y6250D02*
G01X25700Y6250D01*
G01X25700Y6250D02*
G01X25700Y6300D01*
G01X34500Y900D02*
G01X34500Y1450D01*
G01X34500Y1450D02*
G01X34300Y1650D01*
G01X34300Y1650D02*
G01X31700Y1650D01*
G01X31700Y1650D02*
G01X31500Y1450D01*
G01X31500Y1450D02*
G01X31500Y900D01*
G01X27000Y1500D02*
G01X28000Y1500D01*
G01X28000Y1500D02*
G01X28150Y1650D01*
G01X28150Y1650D02*
G01X31300Y1650D01*
G01X31300Y1650D02*
G01X31500Y1450D01*
G01X31500Y1450D02*
G01X31500Y900D01*
G01X21000Y3180D02*
G01X21000Y5750D01*
G01X21000Y5750D02*
G01X20750Y6000D01*
G01X20750Y6000D02*
G01X20750Y9900D01*
G01X20750Y9900D02*
G01X19500Y11150D01*
G01X19500Y11150D02*
G01X18750Y11150D01*
G01X18750Y11150D02*
G01X18400Y11500D01*
G01X18400Y11500D02*
G01X18400Y12300D01*
G01X21000Y3180D02*
G01X21000Y3200D01*
G01X21000Y3200D02*
G01X21000Y1500D01*
G01X23800Y3400D02*
G01X24300Y3900D01*
G01X24300Y3900D02*
G01X24300Y4700D01*
G01X24300Y4700D02*
G01X24300Y5250D01*
G01X24300Y5250D02*
G01X24450Y5400D01*
G01X24450Y5400D02*
G01X25700Y5400D01*
G01X23800Y3400D02*
G01X23800Y2900D01*
G01X23800Y2900D02*
G01X23500Y2600D01*
G01X23500Y2600D02*
G01X23250Y2600D01*
G01X23250Y2600D02*
G01X23000Y2350D01*
G01X23000Y2350D02*
G01X23000Y1500D01*
G01X5800Y5500D02*
G01X5500Y5800D01*
G01X5500Y5800D02*
G01X5000Y5800D01*
G01X5000Y5800D02*
G01X4700Y6100D01*
G01X4700Y6100D02*
G01X4100Y6100D01*
G01X2500Y2500D02*
G01X2500Y3500D01*
G01X2500Y3500D02*
G01X2950Y3950D01*
G01X2950Y3950D02*
G01X6100Y3950D01*
G01X6100Y3950D02*
G01X6450Y4300D01*
G01X6450Y4300D02*
G01X6450Y5350D01*
G01X6450Y5350D02*
G01X6300Y5500D01*
G01X6300Y5500D02*
G01X5800Y5500D01*
G01X29300Y8000D02*
G01X28900Y8400D01*
G01X28900Y8400D02*
G01X28400Y8400D01*
G01X31000Y8000D02*
G01X29300Y8000D01*
G01X3000Y10400D02*
G01X3000Y11100D01*
G01X3000Y11100D02*
G01X2400Y11700D01*
G01X2400Y11700D02*
G01X2400Y12200D01*
G01X10800Y12100D02*
G01X10800Y11500D01*
G01X10800Y11500D02*
G01X10950Y11350D01*
G01X10950Y11350D02*
G01X11150Y11350D01*
G01X11150Y11350D02*
G01X11300Y11500D01*
G01X11300Y11500D02*
G01X11300Y12100D01*
G01X10000Y12100D02*
G01X9300Y12100D01*
G01X8500Y12100D02*
G01X9300Y12100D01*
G01X10000Y12100D02*
G01X10800Y12100D01*
G01X32000Y5500D02*
G01X32450Y5500D01*
G01X32450Y5500D02*
G01X32650Y5700D01*
G01X32650Y5700D02*
G01X32650Y6500D01*
G01X32000Y5500D02*
G01X30600Y5500D01*
G01X6900Y13000D02*
G01X8500Y13000D01*
G01X17000Y1500D02*
G01X17000Y3300D01*
G01X17000Y3300D02*
G01X16550Y3750D01*
G01X16550Y3750D02*
G01X16550Y4500D01*
G54D31*
G01X16550Y4500D03*
G01X11850Y4500D03*
G54D32*
G01X11850Y4500D02*
G01X11850Y7600D01*
G01X11850Y7600D02*
G01X9000Y10450D01*
G01X9000Y10450D02*
G01X9000Y10600D01*
G01X9000Y10600D02*
G01X8750Y10850D01*
G01X8750Y10850D02*
G01X7800Y10850D01*
G01X7800Y10850D02*
G01X7200Y11450D01*
G01X7200Y11450D02*
G01X4550Y11450D01*
G01X4550Y11450D02*
G01X3700Y12300D01*
G01X3700Y12300D02*
G01X3700Y14300D01*
G01X3700Y14300D02*
G01X4400Y15000D01*
G01X4400Y15000D02*
G01X5200Y15000D01*

G04 Draw Text*
G01X33600Y11272D02*
G01X33690Y11318D01*
G01X33690Y11318D02*
G01X33827Y11454D01*
G01X33827Y11454D02*
G01X33827Y10500D01*

G04 ----------------------- Draw Pilot Holes (scratch)*
%LPC*%
G04 draw pilot holes for part J1*
G54D37*
G01X1500Y5500D03*
G01X1500Y7500D03*
G04 draw pilot holes for part U1*
G04 draw pilot holes for part C1*
G04 draw pilot holes for part SW2*
G01X6000Y7000D03*
G01X6000Y8000D03*
G01X6000Y9000D03*
G04 draw pilot holes for part R3*
G04 draw pilot holes for part R6*
G04 draw pilot holes for part SW1*
G01X2500Y2500D03*
G01X3500Y2500D03*
G01X4500Y2500D03*
G01X6500Y2500D03*
G01X2500Y900D03*
G01X3500Y900D03*
G01X4500Y900D03*
G01X6500Y900D03*
G04 draw pilot holes for part R1*
G04 draw pilot holes for part C2*
G04 draw pilot holes for part R2*
G04 draw pilot holes for part R10*
G04 draw pilot holes for part SW3*
G01X6900Y13000D03*
G01X6900Y14000D03*
G01X6900Y15000D03*
G01X5200Y13000D03*
G01X5200Y14000D03*
G01X5200Y15000D03*
G04 draw pilot holes for part R5*
G04 draw pilot holes for part R8*
G04 draw pilot holes for part R12*
G04 draw pilot holes for part R11*
G04 draw pilot holes for part U3*
G04 draw pilot holes for part R7*
G04 draw pilot holes for part R4*
G04 draw pilot holes for part R9*
G04 draw pilot holes for part J2*
G01X35500Y7500D03*
G01X35500Y5500D03*
G04 draw pilot holes for part U2*
G04 draw pilot holes for part C3*
G04 draw pilot holes for part SW6*
G01X31000Y7000D03*
G01X31000Y8000D03*
G01X31000Y9000D03*
G04 draw pilot holes for part R16*
G04 draw pilot holes for part R19*
G04 draw pilot holes for part SW5*
G01X30500Y2500D03*
G01X31500Y2500D03*
G01X32500Y2500D03*
G01X34500Y2500D03*
G01X30500Y900D03*
G01X31500Y900D03*
G01X32500Y900D03*
G01X34500Y900D03*
G04 draw pilot holes for part R14*
G04 draw pilot holes for part C4*
G04 draw pilot holes for part R15*
G04 draw pilot holes for part R23*
G04 draw pilot holes for part SW7*
G01X31800Y13000D03*
G01X31800Y14000D03*
G01X31800Y15000D03*
G01X30100Y13000D03*
G01X30100Y14000D03*
G01X30100Y15000D03*
G04 draw pilot holes for part R18*
G04 draw pilot holes for part R21*
G04 draw pilot holes for part R25*
G04 draw pilot holes for part R24*
G04 draw pilot holes for part R20*
G04 draw pilot holes for part R17*
G04 draw pilot holes for part R22*
G04 draw pilot holes for part R13*
G01X1800Y15900D03*
G01X1800Y14900D03*
G01X1800Y13900D03*
G04 draw pilot holes for part SW4*
G01X19500Y14000D03*
G01X18500Y14000D03*
G01X17500Y14000D03*
G04 draw pilot holes for part J3*
G01X10000Y1500D03*
G01X11000Y1500D03*
G01X12000Y1500D03*
G01X13000Y1500D03*
G01X14000Y1500D03*
G01X15000Y1500D03*
G01X16000Y1500D03*
G01X17000Y1500D03*
G01X18000Y1500D03*
G01X19000Y1500D03*
G01X20000Y1500D03*
G01X21000Y1500D03*
G01X22000Y1500D03*
G01X23000Y1500D03*
G01X24000Y1500D03*
G01X25000Y1500D03*
G01X26000Y1500D03*
G01X27000Y1500D03*
G04 draw pilot holes for part C5*
G04 draw pilot holes for part C6*
G04 draw pilot holes for part C7*
G04 draw pilot holes for part C9*
G04 draw pilot holes for part C10*
G04 draw pilot holes for part C11*
G04 draw pilot holes for part U4*
G04 draw pilot holes for part C8*
G04 draw pilot holes for part C12*
G04 draw pilot holes for part D1*
G04 draw pilot holes for part D2*
G04 draw pilot holes for part D4*
G04 draw pilot holes for part D5*
G04 draw pilot holes for part R29*
G01X14600Y5500D03*
G01X14600Y7000D03*
G01X14600Y8500D03*
G01X18500Y4800D03*
G01X18500Y9200D03*
G04 draw pilot holes for part R28*
G04 draw pilot holes for part R26*
G04 draw pilot holes for part R27*
G04 draw pilot holes for part C13*
G04 draw pilot holes for part D6*
G04 draw pilot holes for part D7*
G04 draw pilot holes for part R30*
G04 draw pilot holes for part R31*
G01X34000Y15900D03*
G01X34000Y14900D03*
G01X34000Y13900D03*
G04 draw pilot holes for part R32*
G04 draw pilot holes for part D8*
G04 draw pilot holes for part D11*
G01X2000Y10400D03*
G01X3000Y10400D03*
G04 draw pilot holes for part D9*
G04 draw pilot holes for part D10*
G04 draw pilot holes for part C14*
G04 draw pilot holes for part C15*
G04 draw pilot holes for part R33*
G04 draw pilot holes for part R34*
G04 draw pilot holes for part C18*
G04 draw pilot holes for part C16*
G04 draw pilot holes for part C17*
G04 draw pilot holes for part D3*

G04 Draw pilot holes for vias*
G01X14000Y2600D03*
G01X9050Y2600D03*
G01X14000Y2600D03*
G01X27850Y2600D03*
G01X17000Y16450D03*
G01X14900Y16950D03*
G01X19550Y16600D03*
G01X16100Y16450D03*
G01X14300Y11050D03*
G01X27650Y10400D03*
G01X27650Y3350D03*
G01X22250Y7000D03*
G01X22250Y7000D03*
G01X22250Y7000D03*
G01X15800Y11150D03*
G01X26900Y11150D03*
G01X10750Y7750D03*
G01X16950Y7750D03*
G01X15800Y11150D03*
G01X12300Y11150D03*
G01X23300Y9250D03*
G01X26900Y11150D03*
G01X15800Y11150D03*
G01X12300Y11150D03*
G01X8400Y10350D03*
G01X11500Y10350D03*
G01X13800Y14300D03*
G01X10250Y14300D03*
G01X10250Y14300D03*
G01X8950Y9150D03*
G01X13800Y14300D03*
G01X22800Y14300D03*
G01X24800Y10200D03*
G01X24800Y3400D03*
G01X10250Y14300D03*
G01X22200Y5500D03*
G01X20050Y5500D03*
G01X20050Y5500D03*
G01X13400Y6300D03*
G01X10500Y11100D03*
G01X1000Y11100D03*
G01X22200Y5500D03*
G01X20050Y5500D03*
G01X20050Y5500D03*
G01X22200Y5500D03*
G01X22200Y5500D03*
G01X20050Y5500D03*
G01X14400Y16450D03*
G01X17500Y15000D03*
G01X10050Y15000D03*
G01X12750Y14300D03*
G01X12650Y16550D03*
G01X12750Y14300D03*
G01X22000Y1500D03*
G01X23150Y13400D03*
G01X23150Y13400D03*
G01X26850Y14300D03*
G01X32500Y10500D03*
G01X26850Y9800D03*
G01X22400Y8650D03*
G01X20000Y1500D03*
G01X11650Y9600D03*
G01X12500Y4800D03*
G01X9350Y3600D03*
G01X5100Y9800D03*
G01X17150Y10650D03*
G01X25550Y7300D03*
G01X22400Y8650D03*
G01X25900Y4200D03*
G01X16550Y4500D03*
G01X11850Y4500D03*
M00*
M02*
