G04 FreePCB version 1.359*
G04 C:\Google Drive\Projects\PPMScope\Contributions\Paul Messer\DSOscope_A03\DSOscope_Rev_A03_20130201\PCB\A03\CAM_DSOscope_USBBrd_A03\bottom_copper.grb*
G04 bottom copper layer *
G04 Scale: 100 percent, Rotated: No, Reflected: No *
%FSLAX24Y24*%
%MOIN*%
%LN bottom copper *%
G04 Rounded Rectangle Macro, params: W/2, H/2, R *
%AMRNDREC*
21,1,$1+$1,$2+$2-$3-$3,0,0,0*
21,1,$1+$1-$3-$3,$2+$2,0,0,0*
1,1,$3+$3,$1-$3,$2-$3*
1,1,$3+$3,$3-$1,$2-$3*
1,1,$3+$3,$1-$3,$3-$2*
1,1,$3+$3,$3-$1,$3-$2*%
G04 Rectangular Thermal Macro, params: W/2, H/2, T/2 *
%AMRECTHERM*
$4=$3/2*
21,1,$1-$3,$2-$3,0-$1/2-$4,0-$2/2-$4,0*
21,1,$1-$3,$2-$3,0-$1/2-$4,$2/2+$4,0*
21,1,$1-$3,$2-$3,$1/2+$4,0-$2/2-$4,0*
21,1,$1-$3,$2-$3,$1/2+$4,$2/2+$4,0*%
%ADD10C,0.005000*%
%ADD11R,0.100000X0.100000*%
%ADD12R,0.135000X0.135000*%
%ADD13C,0.135000*%
%AMTHERM14*7,0,0,0.135000,0.085000,0.020000,45.0*%
%ADD14THERM14*%
%ADD15C,0.001000*%
%ADD16C,0.115000*%
%ADD17C,0.075000*%
%AMTHERM18*7,0,0,0.115000,0.065000,0.020000,45.0*%
%ADD18THERM18*%
%AMTHERM19*7,0,0,0.100000,0.050000,0.020000,45.0*%
%ADD19THERM19*%
%ADD20C,0.010000*%
%ADD21R,0.050000X0.050000*%
%ADD22R,0.085000X0.085000*%
%ADD23C,0.085000*%
%ADD24C,0.065000*%
%ADD25C,0.025000*%
%ADD26C,0.050000*%
%ADD27C,0.015000*%
G90*
G70D02*

G04 Step and Repeat for panelization *

G04 ----------------------- Draw board outline (positive)*
%LPD*%
G54D10*
G01X0Y0D02*
G01X0Y2250D01*
G04 end of side 1*
G01X0Y9250D01*
G04 end of side 2*
G01X11500Y9250D01*
G04 end of side 3*
G01X11500Y0D01*
G04 end of side 4*
G01X0Y0D01*

G04 ----------------------- Draw copper area (positive)*
G36*
G01X11250Y250D02*
G01X250Y250D01*
G01X250Y2500D01*
G01X250Y9000D01*
G01X11250Y9000D01*
G01X11250Y250D01*
G37*

G04 -------------------- Draw copper area clearances (negative)*
%LPC*%

G04 Draw clearances for pads*
G54D11*
G01X5200Y850D03*
G01X6100Y850D03*
G01X7000Y1650D03*
G01X7900Y1650D03*
G01X7000Y2450D03*
G01X7900Y2450D03*
G01X2100Y850D03*
G01X1200Y850D03*
G54D12*
G01X10000Y3250D03*
G54D13*
G01X10000Y4250D03*
G01X10000Y5250D03*
G54D14*
G01X10000Y6250D03*
G54D15*
G54D13*
G01X10000Y7250D03*
G01X10000Y8250D03*
G54D11*
G01X4300Y5750D03*
G01X3400Y5750D03*

G04 Draw clearances for traces*
G54D16*
G01X4370Y850D03*
G54D17*
G01X4370Y850D02*
G01X5200Y850D01*
G54D16*
G01X8770Y2450D03*
G54D17*
G01X8770Y2450D02*
G01X8770Y3070D01*
G01X8770Y3070D02*
G01X8240Y3600D01*
G01X8240Y3600D02*
G01X6830Y3600D01*
G01X6830Y3600D02*
G01X6530Y3900D01*
G54D16*
G01X6530Y4880D03*
G54D17*
G01X6530Y3900D02*
G01X6530Y4880D01*
G54D16*
G01X8410Y8250D03*
G54D17*
G01X8410Y8250D02*
G01X8410Y7360D01*
G54D16*
G01X7700Y6130D03*
G54D17*
G01X8410Y7360D02*
G01X7700Y6130D01*
G54D16*
G01X6090Y1650D03*
G54D17*
G01X6090Y1650D02*
G01X7000Y1650D01*
G01X4300Y5750D02*
G01X4300Y6190D01*
G01X4300Y6190D02*
G01X4890Y6190D01*
G01X4890Y6190D02*
G01X5140Y6440D01*
G01X5140Y6440D02*
G01X5160Y7200D01*
G54D16*
G01X5170Y7210D03*
G54D17*
G01X5160Y7200D02*
G01X5170Y7210D01*
G54D16*
G01X6020Y7360D03*
G01X6010Y5900D03*
G54D17*
G01X6020Y7360D02*
G01X6010Y5900D01*
G54D16*
G01X2870Y850D03*
G54D17*
G01X2870Y850D02*
G01X2100Y850D01*
G54D18*
G01X3540Y1360D03*
G01X800Y2880D03*
G01X4300Y6950D03*
G54D19*
G01X800Y2880D03*
G54D18*
G01X2510Y6770D03*
G54D19*
G01X800Y2880D03*
G01X2510Y6770D03*
G01X4300Y6950D03*
G54D16*
G01X6090Y2620D03*
G54D17*
G01X6090Y2620D02*
G01X6510Y2450D01*
G01X6510Y2450D02*
G01X7000Y2450D01*

G04 Draw clearances for text*
G54D20*
G01X9554Y1120D02*
G01X9229Y1120D01*
G01X9229Y1120D02*
G01X9406Y884D01*
G01X9406Y884D02*
G01X9318Y884D01*
G01X9318Y884D02*
G01X9259Y854D01*
G01X9259Y854D02*
G01X9229Y825D01*
G01X9229Y825D02*
G01X9200Y736D01*
G01X9200Y736D02*
G01X9200Y677D01*
G01X9200Y677D02*
G01X9229Y588D01*
G01X9229Y588D02*
G01X9288Y529D01*
G01X9288Y529D02*
G01X9377Y500D01*
G01X9377Y500D02*
G01X9465Y500D01*
G01X9465Y500D02*
G01X9554Y529D01*
G01X9554Y529D02*
G01X9584Y559D01*
G01X9584Y559D02*
G01X9613Y618D01*
G01X10086Y1120D02*
G01X10175Y1090D01*
G01X10175Y1090D02*
G01X10234Y1002D01*
G01X10234Y1002D02*
G01X10263Y854D01*
G01X10263Y854D02*
G01X10263Y765D01*
G01X10263Y765D02*
G01X10234Y618D01*
G01X10234Y618D02*
G01X10175Y529D01*
G01X10175Y529D02*
G01X10086Y500D01*
G01X10086Y500D02*
G01X10027Y500D01*
G01X10027Y500D02*
G01X9938Y529D01*
G01X9938Y529D02*
G01X9879Y618D01*
G01X9879Y618D02*
G01X9850Y765D01*
G01X9850Y765D02*
G01X9850Y854D01*
G01X9850Y854D02*
G01X9879Y1002D01*
G01X9879Y1002D02*
G01X9938Y1090D01*
G01X9938Y1090D02*
G01X10027Y1120D01*
G01X10027Y1120D02*
G01X10086Y1120D01*
G01X10736Y1120D02*
G01X10972Y500D01*
G01X10736Y1120D02*
G01X10500Y500D01*
G01X10884Y706D02*
G01X10588Y706D01*
G01X9672Y2020D02*
G01X9436Y1400D01*
G01X9200Y2020D02*
G01X9436Y1400D01*
G01X10293Y2020D02*
G01X10293Y1400D01*
G01X10293Y2020D02*
G01X9909Y2020D01*
G01X10293Y1725D02*
G01X10056Y1725D01*
G01X10293Y1400D02*
G01X9909Y1400D01*
G01X10943Y2020D02*
G01X10943Y1400D01*
G01X10943Y2020D02*
G01X10677Y2020D01*
G01X10677Y2020D02*
G01X10588Y1990D01*
G01X10588Y1990D02*
G01X10559Y1961D01*
G01X10559Y1961D02*
G01X10529Y1902D01*
G01X10529Y1902D02*
G01X10529Y1843D01*
G01X10529Y1843D02*
G01X10559Y1784D01*
G01X10559Y1784D02*
G01X10588Y1754D01*
G01X10588Y1754D02*
G01X10677Y1725D01*
G01X10677Y1725D02*
G01X10943Y1725D01*
G01X10736Y1725D02*
G01X10529Y1400D01*
G01X913Y8620D02*
G01X913Y8000D01*
G01X913Y8620D02*
G01X706Y8620D01*
G01X706Y8620D02*
G01X618Y8590D01*
G01X618Y8590D02*
G01X559Y8531D01*
G01X559Y8531D02*
G01X529Y8472D01*
G01X529Y8472D02*
G01X500Y8384D01*
G01X500Y8384D02*
G01X500Y8236D01*
G01X500Y8236D02*
G01X529Y8147D01*
G01X529Y8147D02*
G01X559Y8088D01*
G01X559Y8088D02*
G01X618Y8029D01*
G01X618Y8029D02*
G01X706Y8000D01*
G01X706Y8000D02*
G01X913Y8000D01*
G01X1563Y8620D02*
G01X1563Y8000D01*
G01X1563Y8620D02*
G01X1297Y8620D01*
G01X1297Y8620D02*
G01X1209Y8590D01*
G01X1209Y8590D02*
G01X1179Y8561D01*
G01X1179Y8561D02*
G01X1150Y8502D01*
G01X1150Y8502D02*
G01X1150Y8443D01*
G01X1150Y8443D02*
G01X1179Y8384D01*
G01X1179Y8384D02*
G01X1209Y8354D01*
G01X1209Y8354D02*
G01X1297Y8325D01*
G01X1297Y8325D02*
G01X1563Y8325D01*
G01X1356Y8325D02*
G01X1150Y8000D01*
G01X2213Y8620D02*
G01X2213Y8000D01*
G01X2213Y8620D02*
G01X1947Y8620D01*
G01X1947Y8620D02*
G01X1859Y8590D01*
G01X1859Y8590D02*
G01X1829Y8561D01*
G01X1829Y8561D02*
G01X1800Y8502D01*
G01X1800Y8502D02*
G01X1800Y8443D01*
G01X1800Y8443D02*
G01X1829Y8384D01*
G01X1829Y8384D02*
G01X1859Y8354D01*
G01X1859Y8354D02*
G01X1947Y8325D01*
G01X2213Y8325D02*
G01X1947Y8325D01*
G01X1947Y8325D02*
G01X1859Y8295D01*
G01X1859Y8295D02*
G01X1829Y8265D01*
G01X1829Y8265D02*
G01X1800Y8206D01*
G01X1800Y8206D02*
G01X1800Y8118D01*
G01X1800Y8118D02*
G01X1829Y8059D01*
G01X1829Y8059D02*
G01X1859Y8029D01*
G01X1859Y8029D02*
G01X1947Y8000D01*
G01X1947Y8000D02*
G01X2213Y8000D01*
G01X3336Y8620D02*
G01X3336Y8000D01*
G01X3336Y8620D02*
G01X3070Y8620D01*
G01X3070Y8620D02*
G01X2981Y8590D01*
G01X2981Y8590D02*
G01X2952Y8561D01*
G01X2952Y8561D02*
G01X2922Y8502D01*
G01X2922Y8502D02*
G01X2922Y8443D01*
G01X2922Y8443D02*
G01X2952Y8384D01*
G01X2952Y8384D02*
G01X2981Y8354D01*
G01X2981Y8354D02*
G01X3070Y8325D01*
G01X3070Y8325D02*
G01X3336Y8325D01*
G01X3129Y8325D02*
G01X2922Y8000D01*
G01X3779Y8620D02*
G01X3779Y8000D01*
G01X3986Y8620D02*
G01X3572Y8620D01*
G01X4695Y8620D02*
G01X4459Y8000D01*
G01X4222Y8620D02*
G01X4459Y8000D01*
G01X4931Y8472D02*
G01X4961Y8531D01*
G01X4961Y8531D02*
G01X5020Y8590D01*
G01X5020Y8590D02*
G01X5079Y8620D01*
G01X5079Y8620D02*
G01X5197Y8620D01*
G01X5197Y8620D02*
G01X5256Y8590D01*
G01X5256Y8590D02*
G01X5315Y8531D01*
G01X5315Y8531D02*
G01X5345Y8472D01*
G01X5345Y8472D02*
G01X5374Y8384D01*
G01X5374Y8384D02*
G01X5374Y8236D01*
G01X5374Y8236D02*
G01X5345Y8147D01*
G01X5345Y8147D02*
G01X5315Y8088D01*
G01X5315Y8088D02*
G01X5256Y8029D01*
G01X5256Y8029D02*
G01X5197Y8000D01*
G01X5197Y8000D02*
G01X5079Y8000D01*
G01X5079Y8000D02*
G01X5020Y8029D01*
G01X5020Y8029D02*
G01X4961Y8088D01*
G01X4961Y8088D02*
G01X4931Y8147D01*
G01X6497Y8620D02*
G01X6497Y8000D01*
G01X6497Y8620D02*
G01X6231Y8620D01*
G01X6231Y8620D02*
G01X6143Y8590D01*
G01X6143Y8590D02*
G01X6113Y8561D01*
G01X6113Y8561D02*
G01X6084Y8502D01*
G01X6084Y8502D02*
G01X6084Y8443D01*
G01X6084Y8443D02*
G01X6113Y8384D01*
G01X6113Y8384D02*
G01X6143Y8354D01*
G01X6143Y8354D02*
G01X6231Y8325D01*
G01X6497Y8325D02*
G01X6231Y8325D01*
G01X6231Y8325D02*
G01X6143Y8295D01*
G01X6143Y8295D02*
G01X6113Y8265D01*
G01X6113Y8265D02*
G01X6084Y8206D01*
G01X6084Y8206D02*
G01X6084Y8118D01*
G01X6084Y8118D02*
G01X6113Y8059D01*
G01X6113Y8059D02*
G01X6143Y8029D01*
G01X6143Y8029D02*
G01X6231Y8000D01*
G01X6231Y8000D02*
G01X6497Y8000D01*
G01X6734Y8531D02*
G01X6793Y8590D01*
G01X6793Y8590D02*
G01X6881Y8620D01*
G01X6881Y8620D02*
G01X6999Y8620D01*
G01X6999Y8620D02*
G01X7088Y8590D01*
G01X7088Y8590D02*
G01X7147Y8531D01*
G01X7147Y8531D02*
G01X7147Y8472D01*
G01X7147Y8472D02*
G01X7118Y8413D01*
G01X7118Y8413D02*
G01X7088Y8384D01*
G01X7088Y8384D02*
G01X7029Y8354D01*
G01X7029Y8354D02*
G01X6852Y8295D01*
G01X6852Y8295D02*
G01X6793Y8265D01*
G01X6793Y8265D02*
G01X6763Y8236D01*
G01X6763Y8236D02*
G01X6734Y8177D01*
G01X6734Y8177D02*
G01X6734Y8088D01*
G01X6734Y8088D02*
G01X6793Y8029D01*
G01X6793Y8029D02*
G01X6881Y8000D01*
G01X6881Y8000D02*
G01X6999Y8000D01*
G01X6999Y8000D02*
G01X7088Y8029D01*
G01X7088Y8029D02*
G01X7147Y8088D01*
G01X7797Y8620D02*
G01X7797Y8177D01*
G01X7797Y8177D02*
G01X7768Y8088D01*
G01X7768Y8088D02*
G01X7709Y8029D01*
G01X7709Y8029D02*
G01X7620Y8000D01*
G01X7620Y8000D02*
G01X7561Y8000D01*
G01X7561Y8000D02*
G01X7472Y8029D01*
G01X7472Y8029D02*
G01X7413Y8088D01*
G01X7413Y8088D02*
G01X7384Y8177D01*
G01X7384Y8177D02*
G01X7384Y8620D01*

G04 -------------- Draw Parts, Pads, Traces, Vias and Text (positive)*
%LPD*%
G04 Draw part U1*
G04 Draw part C2*
G04 Draw part C1*
G04 Draw part L1*
G04 Draw part R6*
G04 Draw part R5*
G04 Draw part R4*
G04 Draw part R3*
G04 Draw part R9*
G54D21*
G01X5200Y850D03*
G01X6100Y850D03*
G04 Draw part R8*
G01X7000Y1650D03*
G01X7900Y1650D03*
G04 Draw part R7*
G01X7000Y2450D03*
G01X7900Y2450D03*
G04 Draw part R10*
G01X2100Y850D03*
G01X1200Y850D03*
G04 Draw part R2*
G04 Draw part R1*
G04 Draw part D2*
G04 Draw part D1*
G04 Draw part P1*
G54D22*
G01X10000Y3250D03*
G54D23*
G01X10000Y4250D03*
G01X10000Y5250D03*
G01X10000Y6250D03*
G01X10000Y7250D03*
G01X10000Y8250D03*
G04 Draw part C3*
G54D21*
G01X4300Y5750D03*
G01X3400Y5750D03*

G04 Draw traces*
G54D24*
G01X4370Y850D03*
G54D25*
G01X4370Y850D02*
G01X5200Y850D01*
G54D24*
G01X8770Y2450D03*
G54D25*
G01X8770Y2450D02*
G01X8770Y3070D01*
G01X8770Y3070D02*
G01X8240Y3600D01*
G01X8240Y3600D02*
G01X6830Y3600D01*
G01X6830Y3600D02*
G01X6530Y3900D01*
G01X6530Y3900D02*
G01X6530Y4880D01*
G54D24*
G01X6530Y4880D03*
G01X8410Y8250D03*
G54D25*
G01X8410Y8250D02*
G01X8410Y7360D01*
G01X8410Y7360D02*
G01X7700Y6130D01*
G54D24*
G01X7700Y6130D03*
G01X6090Y1650D03*
G54D25*
G01X6090Y1650D02*
G01X7000Y1650D01*
G01X4300Y5750D02*
G01X4300Y6190D01*
G01X4300Y6190D02*
G01X4890Y6190D01*
G01X4890Y6190D02*
G01X5140Y6440D01*
G01X5140Y6440D02*
G01X5160Y7200D01*
G01X5160Y7200D02*
G01X5170Y7210D01*
G54D24*
G01X5170Y7210D03*
G01X6020Y7360D03*
G54D25*
G01X6020Y7360D02*
G01X6010Y5900D01*
G54D24*
G01X6010Y5900D03*
G01X2870Y850D03*
G54D25*
G01X2870Y850D02*
G01X2100Y850D01*
G01X7900Y1650D02*
G01X7900Y2450D01*
G01X6100Y850D02*
G01X7900Y850D01*
G01X7900Y850D02*
G01X7900Y1650D01*
G01X1200Y850D02*
G01X1200Y2040D01*
G01X1200Y2040D02*
G01X2860Y2040D01*
G01X2860Y2040D02*
G01X3540Y1360D01*
G54D24*
G01X3540Y1360D03*
G01X800Y2880D03*
G54D25*
G01X800Y2880D02*
G01X1170Y3250D01*
G01X1170Y3250D02*
G01X1170Y6390D01*
G01X1170Y6390D02*
G01X2130Y6390D01*
G01X2130Y6390D02*
G01X2850Y7110D01*
G01X2850Y7110D02*
G01X3400Y7110D01*
G01X3400Y7110D02*
G01X3400Y6610D01*
G01X3400Y6610D02*
G01X3960Y6610D01*
G01X3960Y6610D02*
G01X4300Y6950D01*
G54D24*
G01X4300Y6950D03*
G54D26*
G01X800Y2880D03*
G54D27*
G01X800Y2880D02*
G01X1170Y3250D01*
G01X1170Y3250D02*
G01X1170Y6390D01*
G01X1170Y6390D02*
G01X2130Y6390D01*
G01X2130Y6390D02*
G01X2850Y7110D01*
G01X2850Y7110D02*
G01X3400Y7110D01*
G01X3400Y7110D02*
G01X2850Y7110D01*
G01X2850Y7110D02*
G01X2510Y6770D01*
G54D24*
G01X2510Y6770D03*
G54D26*
G01X800Y2880D03*
G54D27*
G01X800Y2880D02*
G01X1170Y3250D01*
G01X1170Y3250D02*
G01X1170Y6390D01*
G01X1170Y6390D02*
G01X2130Y6390D01*
G01X2130Y6390D02*
G01X2850Y7110D01*
G01X2850Y7110D02*
G01X3400Y7110D01*
G01X3400Y7110D02*
G01X2850Y7110D01*
G01X2850Y7110D02*
G01X2510Y6770D01*
G54D26*
G01X2510Y6770D03*
G54D25*
G01X3400Y5750D02*
G01X3400Y6610D01*
G54D27*
G01X3400Y6610D02*
G01X3960Y6610D01*
G01X3960Y6610D02*
G01X4300Y6950D01*
G54D26*
G01X4300Y6950D03*
G54D24*
G01X6090Y2620D03*
G54D25*
G01X6090Y2620D02*
G01X6510Y2450D01*
G01X6510Y2450D02*
G01X7000Y2450D01*

G04 Draw Text*

G04 ----------------------- Draw Pilot Holes (scratch)*
%LPC*%
G04 draw pilot holes for part U1*
G04 draw pilot holes for part C2*
G04 draw pilot holes for part C1*
G04 draw pilot holes for part L1*
G04 draw pilot holes for part R6*
G04 draw pilot holes for part R5*
G04 draw pilot holes for part R4*
G04 draw pilot holes for part R3*
G04 draw pilot holes for part R9*
G04 draw pilot holes for part R8*
G04 draw pilot holes for part R7*
G04 draw pilot holes for part R10*
G04 draw pilot holes for part R2*
G04 draw pilot holes for part R1*
G04 draw pilot holes for part D2*
G04 draw pilot holes for part D1*
G04 draw pilot holes for part P1*
G54D20*
G01X10000Y3250D03*
G01X10000Y4250D03*
G01X10000Y5250D03*
G01X10000Y6250D03*
G01X10000Y7250D03*
G01X10000Y8250D03*
G04 draw pilot holes for part C3*

G04 Draw pilot holes for vias*
G01X4370Y850D03*
G01X8770Y2450D03*
G01X6530Y4880D03*
G01X8410Y8250D03*
G01X7700Y6130D03*
G01X6090Y1650D03*
G01X5170Y7210D03*
G01X6020Y7360D03*
G01X6010Y5900D03*
G01X2870Y850D03*
G01X3540Y1360D03*
G01X800Y2880D03*
G01X4300Y6950D03*
G01X800Y2880D03*
G01X2510Y6770D03*
G01X800Y2880D03*
G01X2510Y6770D03*
G01X4300Y6950D03*
G01X6090Y2620D03*
M00*
M02*
