G04 FreePCB version 1.359*
G04 C:\Google Drive\Projects\PPMScope\Contributions\Paul Messer\DSOscope_A03\DSOscope_Rev_A03_20130201\PCB\A03\CAM_DSOscope_USBBrd_A03\top_copper.grb*
G04 top copper layer *
G04 Scale: 100 percent, Rotated: No, Reflected: No *
%FSLAX24Y24*%
%MOIN*%
%LN top copper *%
G04 Rounded Rectangle Macro, params: W/2, H/2, R *
%AMRNDREC*
21,1,$1+$1,$2+$2-$3-$3,0,0,0*
21,1,$1+$1-$3-$3,$2+$2,0,0,0*
1,1,$3+$3,$1-$3,$2-$3*
1,1,$3+$3,$3-$1,$2-$3*
1,1,$3+$3,$1-$3,$3-$2*
1,1,$3+$3,$3-$1,$3-$2*%
G04 Rectangular Thermal Macro, params: W/2, H/2, T/2 *
%AMRECTHERM*
$4=$3/2*
21,1,$1-$3,$2-$3,0-$1/2-$4,0-$2/2-$4,0*
21,1,$1-$3,$2-$3,0-$1/2-$4,$2/2+$4,0*
21,1,$1-$3,$2-$3,$1/2+$4,0-$2/2-$4,0*
21,1,$1-$3,$2-$3,$1/2+$4,$2/2+$4,0*%
%ADD10C,0.005000*%
%ADD11R,0.065000X0.140000*%
%ADD12R,0.100000X0.100000*%
%ADD13R,0.110000X0.125000*%
%ADD14R,0.135000X0.135000*%
%ADD15C,0.135000*%
%ADD16C,0.115000*%
%ADD17C,0.075000*%
%ADD18C,0.065000*%
%ADD19C,0.062000*%
%AMTHERM20*7,0,0,0.115000,0.065000,0.020000,45.0*%
%ADD20THERM20*%
%ADD21C,0.085000*%
%ADD22C,0.100000*%
%ADD23R,0.015000X0.090000*%
%ADD24R,0.050000X0.050000*%
%ADD25R,0.060000X0.075000*%
%ADD26R,0.085000X0.085000*%
%ADD27C,0.025000*%
%ADD28C,0.015000*%
%ADD29C,0.012000*%
%ADD30C,0.035000*%
%ADD31C,0.050000*%
%ADD32C,0.010000*%
G90*
G70D02*

G04 Step and Repeat for panelization *

G04 ----------------------- Draw board outline (positive)*
%LPD*%
G54D10*
G01X0Y0D02*
G01X0Y2250D01*
G04 end of side 1*
G01X0Y9250D01*
G04 end of side 2*
G01X11500Y9250D01*
G04 end of side 3*
G01X11500Y0D01*
G04 end of side 4*
G01X0Y0D01*

G04 ----------------------- Draw copper area (positive)*
G36*
G01X1700Y5350D02*
G01X1800Y5250D01*
G01X6800Y5250D01*
G01X6800Y4350D01*
G01X2500Y4350D01*
G01X1700Y3550D01*
G01X1700Y1950D01*
G01X1900Y1750D01*
G01X2400Y1750D01*
G01X2600Y1550D01*
G01X2400Y1350D01*
G01X800Y1350D01*
G01X800Y2250D01*
G01X1300Y2750D01*
G01X1300Y5060D01*
G01X550Y5060D01*
G01X550Y5650D01*
G01X1400Y5650D01*
G01X1400Y6150D01*
G01X1700Y6150D01*
G01X1700Y5350D01*
G37*

G04 -------------------- Draw copper area clearances (negative)*
%LPC*%

G04 Draw clearances for pads*
G54D11*
G01X2000Y2550D03*
G01X2260Y2550D03*
G01X2510Y2550D03*
G01X2770Y2550D03*
G01X3020Y2550D03*
G01X3280Y2550D03*
G01X3540Y2550D03*
G01X3790Y2550D03*
G01X4050Y2550D03*
G01X4300Y2550D03*
G01X4560Y2550D03*
G01X4820Y2550D03*
G01X5070Y2550D03*
G01X5330Y2550D03*
G01X2000Y5900D03*
G01X2256Y5900D03*
G01X2510Y5900D03*
G01X2768Y5900D03*
G01X3024Y5900D03*
G01X3280Y5900D03*
G01X3536Y5900D03*
G01X3792Y5900D03*
G01X4048Y5900D03*
G01X4304Y5900D03*
G01X4560Y5900D03*
G01X4816Y5900D03*
G01X5072Y5900D03*
G01X5328Y5900D03*
G54D12*
G01X800Y4650D03*
G01X800Y3750D03*
G01X7700Y5350D03*
G01X8600Y5350D03*
G01X7700Y4550D03*
G01X8600Y4550D03*
G01X1300Y850D03*
G01X2200Y850D03*
G01X6000Y850D03*
G01X5100Y850D03*
G01X7800Y1650D03*
G01X6900Y1650D03*
G01X7800Y2450D03*
G01X6900Y2450D03*
G01X7500Y8250D03*
G01X6600Y8250D03*
G01X1000Y6050D03*
G01X1000Y6950D03*
G54D13*
G01X3900Y8250D03*
G01X5250Y8250D03*
G01X2500Y8250D03*
G01X1150Y8250D03*
G54D14*
G01X10000Y3250D03*
G54D15*
G01X10000Y4250D03*
G01X10000Y5250D03*
G01X10000Y6250D03*
G01X10000Y7250D03*
G01X10000Y8250D03*

G04 Draw clearances for traces*
G54D16*
G01X4370Y850D03*
G54D17*
G01X5100Y850D02*
G01X4370Y850D01*
G54D18*
G01X5100Y850D02*
G01X4370Y850D01*
G01X4370Y850D02*
G01X4380Y1350D01*
G01X4380Y1350D02*
G01X4050Y1680D01*
G54D19*
G01X4050Y1680D02*
G01X4050Y2550D01*
G54D16*
G01X8770Y2450D03*
G54D20*
G01X6530Y4880D03*
G54D16*
G01X8410Y8250D03*
G01X7700Y6130D03*
G01X6090Y1650D03*
G54D18*
G01X6900Y1650D02*
G01X6090Y1650D01*
G54D17*
G01X6900Y1650D02*
G01X4870Y1660D01*
G54D18*
G01X4870Y1660D02*
G01X4630Y1650D01*
G01X4630Y1650D02*
G01X4300Y1980D01*
G54D19*
G01X4300Y1980D02*
G01X4300Y2550D01*
G54D16*
G01X5170Y7210D03*
G54D18*
G01X5170Y7210D02*
G01X4820Y6860D01*
G01X4820Y6860D02*
G01X4820Y6510D01*
G54D19*
G01X4820Y6510D02*
G01X4816Y5900D01*
G54D17*
G01X10000Y8250D02*
G01X9430Y8250D01*
G01X9430Y8250D02*
G01X8550Y7380D01*
G54D16*
G01X6020Y7360D03*
G54D17*
G01X8550Y7380D02*
G01X6020Y7360D01*
G54D16*
G01X6010Y5900D03*
G54D17*
G01X6010Y5900D02*
G01X5400Y5910D01*
G54D18*
G01X5400Y5910D02*
G01X5328Y5900D01*
G01X1150Y8250D02*
G01X1000Y8240D01*
G54D17*
G01X1000Y8240D02*
G01X1000Y6950D01*
G01X5250Y8250D02*
G01X6600Y8250D01*
G01X10000Y7250D02*
G01X9353Y7250D01*
G01X9353Y7250D02*
G01X8972Y6890D01*
G01X8972Y6890D02*
G01X7420Y6880D01*
G01X7420Y6880D02*
G01X7180Y6660D01*
G01X7180Y6660D02*
G01X5530Y6640D01*
G54D18*
G01X5530Y6640D02*
G01X5130Y6660D01*
G01X5130Y6660D02*
G01X5070Y6600D01*
G01X5070Y6600D02*
G01X5070Y6540D01*
G01X5070Y6540D02*
G01X5072Y6538D01*
G54D19*
G01X5072Y6538D02*
G01X5072Y5900D01*
G54D21*
G01X10000Y5250D02*
G01X9520Y5250D01*
G01X9520Y5250D02*
G01X9290Y5020D01*
G01X9290Y5020D02*
G01X9290Y4850D01*
G01X9290Y4850D02*
G01X8990Y4550D01*
G01X8990Y4550D02*
G01X8600Y4550D01*
G54D16*
G01X2870Y850D03*
G54D17*
G01X2200Y850D02*
G01X2870Y850D01*
G54D18*
G01X2200Y850D02*
G01X2870Y850D01*
G54D17*
G01X2870Y850D02*
G01X2870Y1460D01*
G54D18*
G01X2870Y1460D02*
G01X3280Y1870D01*
G01X3280Y1870D02*
G01X3280Y1970D01*
G54D19*
G01X3280Y1970D02*
G01X3280Y2550D01*
G54D16*
G01X3540Y1360D03*
G54D18*
G01X3540Y1360D02*
G01X3540Y1960D01*
G54D19*
G01X3540Y1960D02*
G01X3540Y2550D01*
G01X2768Y5900D02*
G01X2768Y6508D01*
G54D18*
G01X2768Y6508D02*
G01X2770Y6510D01*
G01X2770Y6510D02*
G01X2510Y6770D01*
G01X2510Y6770D02*
G01X2510Y6490D01*
G54D19*
G01X2510Y6490D02*
G01X2510Y5900D01*
G01X4560Y5900D02*
G01X4560Y6510D01*
G54D18*
G01X4560Y6510D02*
G01X4560Y6690D01*
G01X4560Y6690D02*
G01X4300Y6950D01*
G01X4300Y6950D02*
G01X3792Y6442D01*
G54D19*
G01X3792Y6442D02*
G01X3792Y5900D01*
G54D21*
G01X10000Y6250D02*
G01X8830Y6250D01*
G01X8830Y6250D02*
G01X8600Y6020D01*
G01X8600Y6020D02*
G01X8600Y5350D01*
G54D16*
G01X800Y2880D03*
G54D17*
G01X800Y3750D02*
G01X800Y2880D01*
G54D16*
G01X4300Y6950D03*
G54D18*
G01X4300Y6950D02*
G01X3790Y6440D01*
G01X3790Y6440D02*
G01X3792Y6438D01*
G54D19*
G01X3792Y6438D02*
G01X3792Y5900D01*
G54D22*
G01X800Y2880D03*
G54D18*
G01X800Y3750D02*
G01X800Y2880D01*
G54D16*
G01X2510Y6770D03*
G54D18*
G01X2510Y6770D02*
G01X2770Y6510D01*
G54D19*
G01X2770Y6510D02*
G01X2768Y5900D01*
G54D22*
G01X800Y2880D03*
G54D18*
G01X800Y3750D02*
G01X800Y2880D01*
G54D22*
G01X2510Y6770D03*
G54D18*
G01X2510Y6770D02*
G01X2770Y6510D01*
G01X2770Y6510D02*
G01X2768Y6508D01*
G54D19*
G01X2768Y6508D02*
G01X2768Y5900D01*
G54D22*
G01X4300Y6950D03*
G54D18*
G01X4300Y6950D02*
G01X3790Y6440D01*
G54D19*
G01X3790Y6440D02*
G01X3790Y5900D01*
G54D18*
G01X3790Y5900D02*
G01X3792Y5900D01*
G54D17*
G01X10000Y3250D02*
G01X6510Y3250D01*
G01X6510Y3250D02*
G01X5950Y3810D01*
G01X5950Y3810D02*
G01X3460Y3810D01*
G01X3460Y3810D02*
G01X3020Y3370D01*
G54D18*
G01X3020Y3370D02*
G01X3020Y3180D01*
G54D19*
G01X3020Y3180D02*
G01X3020Y2550D01*
G54D17*
G01X3900Y8250D02*
G01X3900Y7400D01*
G54D18*
G01X3900Y7400D02*
G01X3530Y7030D01*
G01X3530Y7030D02*
G01X3530Y6550D01*
G01X3530Y6550D02*
G01X3536Y6544D01*
G54D19*
G01X3536Y6544D02*
G01X3536Y5900D01*
G54D17*
G01X2500Y8250D02*
G01X2500Y7600D01*
G54D18*
G01X2500Y7600D02*
G01X2910Y7190D01*
G01X2910Y7190D02*
G01X3090Y7190D01*
G01X3090Y7190D02*
G01X3280Y7000D01*
G01X3280Y7000D02*
G01X3280Y6520D01*
G54D19*
G01X3280Y6520D02*
G01X3280Y5900D01*
G54D17*
G01X10000Y4250D02*
G01X9470Y4250D01*
G01X9470Y4250D02*
G01X9070Y3850D01*
G01X9070Y3850D02*
G01X6600Y3850D01*
G01X6600Y3850D02*
G01X6100Y4350D01*
G01X6100Y4350D02*
G01X2950Y4350D01*
G01X2950Y4350D02*
G01X2000Y3400D01*
G54D18*
G01X2000Y3400D02*
G01X2000Y3250D01*
G54D19*
G01X2000Y3250D02*
G01X2000Y2650D01*
G54D18*
G01X2000Y2650D02*
G01X2000Y2550D01*
G54D17*
G01X6900Y2450D02*
G01X6510Y2450D01*
G54D16*
G01X6090Y2620D03*
G54D17*
G01X6510Y2450D02*
G01X6090Y2620D01*
G54D18*
G01X6900Y2450D02*
G01X6510Y2450D01*
G01X6510Y2450D02*
G01X6090Y2620D01*
G01X6090Y2620D02*
G01X6090Y2940D01*
G01X6090Y2940D02*
G01X5620Y3410D01*
G01X5620Y3410D02*
G01X4790Y3410D01*
G01X4790Y3410D02*
G01X4560Y3180D01*
G54D19*
G01X4560Y3180D02*
G01X4560Y2550D01*

G04 Draw clearances for text*

G04 -------------- Draw Parts, Pads, Traces, Vias and Text (positive)*
%LPD*%
G04 Draw part U1*
G54D23*
G01X2000Y2550D03*
G01X2260Y2550D03*
G01X2510Y2550D03*
G01X2770Y2550D03*
G01X3020Y2550D03*
G01X3280Y2550D03*
G01X3540Y2550D03*
G01X3790Y2550D03*
G01X4050Y2550D03*
G01X4300Y2550D03*
G01X4560Y2550D03*
G01X4820Y2550D03*
G01X5070Y2550D03*
G01X5330Y2550D03*
G01X2000Y5900D03*
G01X2256Y5900D03*
G01X2510Y5900D03*
G01X2768Y5900D03*
G01X3024Y5900D03*
G01X3280Y5900D03*
G01X3536Y5900D03*
G01X3792Y5900D03*
G01X4048Y5900D03*
G01X4304Y5900D03*
G01X4560Y5900D03*
G01X4816Y5900D03*
G01X5072Y5900D03*
G01X5328Y5900D03*
G04 Draw part C2*
G54D24*
G01X800Y4650D03*
G01X800Y3750D03*
G04 Draw part C1*
G01X7700Y5350D03*
G01X8600Y5350D03*
G04 Draw part L1*
G01X7700Y4550D03*
G01X8600Y4550D03*
G04 Draw part R6*
G01X1300Y850D03*
G01X2200Y850D03*
G04 Draw part R5*
G01X6000Y850D03*
G01X5100Y850D03*
G04 Draw part R4*
G01X7800Y1650D03*
G01X6900Y1650D03*
G04 Draw part R3*
G01X7800Y2450D03*
G01X6900Y2450D03*
G04 Draw part R9*
G04 Draw part R8*
G04 Draw part R7*
G04 Draw part R10*
G04 Draw part R2*
G01X7500Y8250D03*
G01X6600Y8250D03*
G04 Draw part R1*
G01X1000Y6050D03*
G01X1000Y6950D03*
G04 Draw part D2*
G54D25*
G01X3900Y8250D03*
G01X5250Y8250D03*
G04 Draw part D1*
G01X2500Y8250D03*
G01X1150Y8250D03*
G04 Draw part P1*
G54D26*
G01X10000Y3250D03*
G54D21*
G01X10000Y4250D03*
G01X10000Y5250D03*
G01X10000Y6250D03*
G01X10000Y7250D03*
G01X10000Y8250D03*
G04 Draw part C3*

G04 Draw traces*
G54D27*
G01X5100Y850D02*
G01X4370Y850D01*
G54D18*
G01X4370Y850D03*
G54D28*
G01X5100Y850D02*
G01X4370Y850D01*
G01X4370Y850D02*
G01X4380Y1350D01*
G01X4380Y1350D02*
G01X4050Y1680D01*
G54D29*
G01X4050Y1680D02*
G01X4050Y2550D01*
G54D28*
G01X4048Y5900D02*
G01X4050Y5600D01*
G01X4050Y5600D02*
G01X4050Y5040D01*
G54D27*
G01X4050Y5040D02*
G01X4220Y4870D01*
G01X4220Y4870D02*
G01X6520Y4870D01*
G01X6520Y4870D02*
G01X7000Y5350D01*
G01X7000Y5350D02*
G01X7700Y5350D01*
G54D30*
G01X7700Y4550D02*
G01X7700Y5350D01*
G54D28*
G01X7700Y5350D02*
G01X7700Y4550D01*
G54D27*
G01X7800Y2450D02*
G01X8770Y2450D01*
G54D18*
G01X8770Y2450D03*
G01X6530Y4880D03*
G54D28*
G01X6530Y4880D02*
G01X7000Y5350D01*
G01X7000Y5350D02*
G01X7700Y5350D01*
G54D27*
G01X7800Y2450D02*
G01X7800Y1650D01*
G01X7800Y1650D02*
G01X7800Y850D01*
G01X7800Y850D02*
G01X6000Y850D01*
G01X1300Y850D02*
G01X1300Y1560D01*
G01X1300Y1560D02*
G01X2340Y1560D01*
G54D28*
G01X2340Y1560D02*
G01X2770Y1990D01*
G54D29*
G01X2770Y1990D02*
G01X2770Y2550D01*
G54D27*
G01X7500Y8250D02*
G01X8410Y8250D01*
G54D18*
G01X8410Y8250D03*
G01X7700Y6130D03*
G54D27*
G01X7700Y6130D02*
G01X7700Y5350D01*
G01X800Y4650D02*
G01X800Y5200D01*
G01X800Y5200D02*
G01X1000Y5400D01*
G01X1000Y5400D02*
G01X1000Y6050D01*
G01X800Y4650D02*
G01X1360Y4650D01*
G01X1360Y4650D02*
G01X1560Y4450D01*
G01X1560Y4450D02*
G01X1560Y1560D01*
G01X1560Y1560D02*
G01X2340Y1560D01*
G01X2340Y1560D02*
G01X2650Y1850D01*
G54D28*
G01X2650Y1850D02*
G01X2770Y1990D01*
G54D29*
G01X2770Y1990D02*
G01X2770Y2550D01*
G54D27*
G01X1000Y6050D02*
G01X1440Y6050D01*
G01X1440Y6050D02*
G01X1560Y5930D01*
G01X1560Y5930D02*
G01X1560Y5280D01*
G01X1560Y5280D02*
G01X1970Y4870D01*
G01X1970Y4870D02*
G01X3880Y4870D01*
G01X3880Y4870D02*
G01X4050Y5040D01*
G54D28*
G01X4050Y5040D02*
G01X4050Y5250D01*
G01X4050Y5250D02*
G01X4048Y5252D01*
G01X4048Y5252D02*
G01X4048Y5900D01*
G01X6900Y1650D02*
G01X6090Y1650D01*
G54D18*
G01X6090Y1650D03*
G54D27*
G01X6900Y1650D02*
G01X4870Y1660D01*
G54D28*
G01X4870Y1660D02*
G01X4630Y1650D01*
G01X4630Y1650D02*
G01X4300Y1980D01*
G54D29*
G01X4300Y1980D02*
G01X4300Y2550D01*
G54D18*
G01X5170Y7210D03*
G54D28*
G01X5170Y7210D02*
G01X4820Y6860D01*
G01X4820Y6860D02*
G01X4820Y6510D01*
G54D29*
G01X4820Y6510D02*
G01X4816Y5900D01*
G54D27*
G01X10000Y8250D02*
G01X9430Y8250D01*
G01X9430Y8250D02*
G01X8550Y7380D01*
G01X8550Y7380D02*
G01X6020Y7360D01*
G54D18*
G01X6020Y7360D03*
G01X6010Y5900D03*
G54D27*
G01X6010Y5900D02*
G01X5400Y5910D01*
G54D28*
G01X5400Y5910D02*
G01X5328Y5900D01*
G01X1150Y8250D02*
G01X1000Y8240D01*
G54D27*
G01X1000Y8240D02*
G01X1000Y6950D01*
G01X5250Y8250D02*
G01X6600Y8250D01*
G01X10000Y7250D02*
G01X9353Y7250D01*
G01X9353Y7250D02*
G01X8972Y6890D01*
G01X8972Y6890D02*
G01X7420Y6880D01*
G01X7420Y6880D02*
G01X7180Y6660D01*
G01X7180Y6660D02*
G01X5530Y6640D01*
G54D28*
G01X5530Y6640D02*
G01X5130Y6660D01*
G01X5130Y6660D02*
G01X5070Y6600D01*
G01X5070Y6600D02*
G01X5070Y6540D01*
G01X5070Y6540D02*
G01X5072Y6538D01*
G54D29*
G01X5072Y6538D02*
G01X5072Y5900D01*
G54D30*
G01X10000Y5250D02*
G01X9520Y5250D01*
G01X9520Y5250D02*
G01X9290Y5020D01*
G01X9290Y5020D02*
G01X9290Y4850D01*
G01X9290Y4850D02*
G01X8990Y4550D01*
G01X8990Y4550D02*
G01X8600Y4550D01*
G54D27*
G01X2200Y850D02*
G01X2870Y850D01*
G54D18*
G01X2870Y850D03*
G54D28*
G01X2200Y850D02*
G01X2870Y850D01*
G54D27*
G01X2870Y850D02*
G01X2870Y1460D01*
G54D28*
G01X2870Y1460D02*
G01X3280Y1870D01*
G01X3280Y1870D02*
G01X3280Y1970D01*
G54D29*
G01X3280Y1970D02*
G01X3280Y2550D01*
G54D18*
G01X3540Y1360D03*
G54D28*
G01X3540Y1360D02*
G01X3540Y1960D01*
G54D29*
G01X3540Y1960D02*
G01X3540Y2550D01*
G01X2768Y5900D02*
G01X2768Y6508D01*
G54D28*
G01X2768Y6508D02*
G01X2770Y6510D01*
G01X2770Y6510D02*
G01X2510Y6770D01*
G01X2510Y6770D02*
G01X2510Y6490D01*
G54D29*
G01X2510Y6490D02*
G01X2510Y5900D01*
G01X4560Y5900D02*
G01X4560Y6510D01*
G54D28*
G01X4560Y6510D02*
G01X4560Y6690D01*
G01X4560Y6690D02*
G01X4300Y6950D01*
G01X4300Y6950D02*
G01X3792Y6442D01*
G54D29*
G01X3792Y6442D02*
G01X3792Y5900D01*
G54D30*
G01X10000Y6250D02*
G01X8830Y6250D01*
G01X8830Y6250D02*
G01X8600Y6020D01*
G01X8600Y6020D02*
G01X8600Y5350D01*
G54D27*
G01X800Y3750D02*
G01X800Y2880D01*
G54D18*
G01X800Y2880D03*
G01X4300Y6950D03*
G54D28*
G01X4300Y6950D02*
G01X3790Y6440D01*
G01X3790Y6440D02*
G01X3792Y6438D01*
G54D29*
G01X3792Y6438D02*
G01X3792Y5900D01*
G54D28*
G01X800Y3750D02*
G01X800Y2880D01*
G54D31*
G01X800Y2880D03*
G54D18*
G01X2510Y6770D03*
G54D28*
G01X2510Y6770D02*
G01X2770Y6510D01*
G54D29*
G01X2770Y6510D02*
G01X2768Y5900D01*
G54D28*
G01X800Y3750D02*
G01X800Y2880D01*
G54D31*
G01X800Y2880D03*
G01X2510Y6770D03*
G54D28*
G01X2510Y6770D02*
G01X2770Y6510D01*
G01X2770Y6510D02*
G01X2768Y6508D01*
G54D29*
G01X2768Y6508D02*
G01X2768Y5900D01*
G54D31*
G01X4300Y6950D03*
G54D28*
G01X4300Y6950D02*
G01X3790Y6440D01*
G54D29*
G01X3790Y6440D02*
G01X3790Y5900D01*
G54D28*
G01X3790Y5900D02*
G01X3792Y5900D01*
G54D27*
G01X10000Y3250D02*
G01X6510Y3250D01*
G01X6510Y3250D02*
G01X5950Y3810D01*
G01X5950Y3810D02*
G01X3460Y3810D01*
G01X3460Y3810D02*
G01X3020Y3370D01*
G54D28*
G01X3020Y3370D02*
G01X3020Y3180D01*
G54D29*
G01X3020Y3180D02*
G01X3020Y2550D01*
G54D27*
G01X3900Y8250D02*
G01X3900Y7400D01*
G54D28*
G01X3900Y7400D02*
G01X3530Y7030D01*
G01X3530Y7030D02*
G01X3530Y6550D01*
G01X3530Y6550D02*
G01X3536Y6544D01*
G54D29*
G01X3536Y6544D02*
G01X3536Y5900D01*
G54D27*
G01X2500Y8250D02*
G01X2500Y7600D01*
G54D28*
G01X2500Y7600D02*
G01X2910Y7190D01*
G01X2910Y7190D02*
G01X3090Y7190D01*
G01X3090Y7190D02*
G01X3280Y7000D01*
G01X3280Y7000D02*
G01X3280Y6520D01*
G54D29*
G01X3280Y6520D02*
G01X3280Y5900D01*
G54D27*
G01X10000Y4250D02*
G01X9470Y4250D01*
G01X9470Y4250D02*
G01X9070Y3850D01*
G01X9070Y3850D02*
G01X6600Y3850D01*
G01X6600Y3850D02*
G01X6100Y4350D01*
G01X6100Y4350D02*
G01X2950Y4350D01*
G01X2950Y4350D02*
G01X2000Y3400D01*
G54D28*
G01X2000Y3400D02*
G01X2000Y3250D01*
G54D29*
G01X2000Y3250D02*
G01X2000Y2650D01*
G54D28*
G01X2000Y2650D02*
G01X2000Y2550D01*
G54D27*
G01X6900Y2450D02*
G01X6510Y2450D01*
G01X6510Y2450D02*
G01X6090Y2620D01*
G54D18*
G01X6090Y2620D03*
G54D28*
G01X6900Y2450D02*
G01X6510Y2450D01*
G01X6510Y2450D02*
G01X6090Y2620D01*
G01X6090Y2620D02*
G01X6090Y2940D01*
G01X6090Y2940D02*
G01X5620Y3410D01*
G01X5620Y3410D02*
G01X4790Y3410D01*
G01X4790Y3410D02*
G01X4560Y3180D01*
G54D29*
G01X4560Y3180D02*
G01X4560Y2550D01*

G04 Draw Text*

G04 ----------------------- Draw Pilot Holes (scratch)*
%LPC*%
G04 draw pilot holes for part U1*
G04 draw pilot holes for part C2*
G04 draw pilot holes for part C1*
G04 draw pilot holes for part L1*
G04 draw pilot holes for part R6*
G04 draw pilot holes for part R5*
G04 draw pilot holes for part R4*
G04 draw pilot holes for part R3*
G04 draw pilot holes for part R9*
G04 draw pilot holes for part R8*
G04 draw pilot holes for part R7*
G04 draw pilot holes for part R10*
G04 draw pilot holes for part R2*
G04 draw pilot holes for part R1*
G04 draw pilot holes for part D2*
G04 draw pilot holes for part D1*
G04 draw pilot holes for part P1*
G54D32*
G01X10000Y3250D03*
G01X10000Y4250D03*
G01X10000Y5250D03*
G01X10000Y6250D03*
G01X10000Y7250D03*
G01X10000Y8250D03*
G04 draw pilot holes for part C3*

G04 Draw pilot holes for vias*
G01X4370Y850D03*
G01X8770Y2450D03*
G01X6530Y4880D03*
G01X8410Y8250D03*
G01X7700Y6130D03*
G01X6090Y1650D03*
G01X5170Y7210D03*
G01X6020Y7360D03*
G01X6010Y5900D03*
G01X2870Y850D03*
G01X3540Y1360D03*
G01X800Y2880D03*
G01X4300Y6950D03*
G01X800Y2880D03*
G01X2510Y6770D03*
G01X800Y2880D03*
G01X2510Y6770D03*
G01X4300Y6950D03*
G01X6090Y2620D03*
M00*
M02*
