G04 FreePCB version 1.359*
G04 C:\Users\pmesser\_Paul\Design\DSOscope\PCB\A02\CAM_DSOscope_USBBrd_A02\bottom_silk.grb*
G04 bottom silk layer *
G04 Scale: 100 percent, Rotated: No, Reflected: No *
%FSLAX24Y24*%
%MOIN*%
%LN bottom silk *%
G04 Rounded Rectangle Macro, params: W/2, H/2, R *
%AMRNDREC*
21,1,$1+$1,$2+$2-$3-$3,0,0,0*
21,1,$1+$1-$3-$3,$2+$2,0,0,0*
1,1,$3+$3,$1-$3,$2-$3*
1,1,$3+$3,$3-$1,$2-$3*
1,1,$3+$3,$1-$3,$3-$2*
1,1,$3+$3,$3-$1,$3-$2*%
G04 Rectangular Thermal Macro, params: W/2, H/2, T/2 *
%AMRECTHERM*
$4=$3/2*
21,1,$1-$3,$2-$3,0-$1/2-$4,0-$2/2-$4,0*
21,1,$1-$3,$2-$3,0-$1/2-$4,$2/2+$4,0*
21,1,$1-$3,$2-$3,$1/2+$4,0-$2/2-$4,0*
21,1,$1-$3,$2-$3,$1/2+$4,$2/2+$4,0*%
%ADD10C,0.005000*%
%ADD11C,0.010000*%
G90*
G70D02*

G04 Step and Repeat for panelization *

G04 ----------------------- Draw board outline (positive)*
%LPD*%
G54D10*
G01X0Y0D02*
G01X0Y2250D01*
G04 end of side 1*
G01X0Y9250D01*
G04 end of side 2*
G01X11500Y9250D01*
G04 end of side 3*
G01X11500Y0D01*
G04 end of side 4*
G01X0Y0D01*

G04 -------------- Draw Parts, Pads, Traces, Vias and Text (positive)*
%LPD*%
G04 Draw part U1*
G04 Draw part C2*
G04 Draw part C1*
G04 Draw part L1*
G04 Draw part R6*
G04 Draw part R5*
G04 Draw part R4*
G04 Draw part R3*
G04 Draw part R9*
G04 draw part outline for part R9*
G54D11*
G01X4800Y450D02*
G01X6500Y450D01*
G01X6500Y450D02*
G01X6500Y1250D01*
G01X6500Y1250D02*
G01X4800Y1250D01*
G01X4800Y1250D02*
G01X4800Y450D01*
G04 draw reference designator for part R9*
G54D10*
G01X6000Y1077D02*
G01X6000Y600D01*
G01X5795Y1077D02*
G01X6000Y1077D01*
G01X5795Y1077D02*
G01X5727Y1054D01*
G01X5727Y1054D02*
G01X5704Y1031D01*
G01X5704Y1031D02*
G01X5681Y986D01*
G01X5681Y986D02*
G01X5681Y940D01*
G01X5681Y940D02*
G01X5704Y895D01*
G01X5704Y895D02*
G01X5727Y872D01*
G01X5727Y872D02*
G01X5795Y850D01*
G01X6000Y850D02*
G01X5795Y850D01*
G01X5840Y850D02*
G01X5681Y600D01*
G01X5204Y918D02*
G01X5227Y850D01*
G01X5227Y850D02*
G01X5272Y804D01*
G01X5272Y804D02*
G01X5340Y781D01*
G01X5363Y781D02*
G01X5340Y781D01*
G01X5431Y804D02*
G01X5363Y781D01*
G01X5477Y850D02*
G01X5431Y804D01*
G01X5500Y918D02*
G01X5477Y850D01*
G01X5500Y940D02*
G01X5500Y918D01*
G01X5477Y1009D02*
G01X5500Y940D01*
G01X5431Y1054D02*
G01X5477Y1009D01*
G01X5363Y1077D02*
G01X5431Y1054D01*
G01X5340Y1077D02*
G01X5363Y1077D01*
G01X5340Y1077D02*
G01X5272Y1054D01*
G01X5272Y1054D02*
G01X5227Y1009D01*
G01X5227Y1009D02*
G01X5204Y918D01*
G01X5204Y918D02*
G01X5204Y804D01*
G01X5204Y804D02*
G01X5227Y690D01*
G01X5227Y690D02*
G01X5272Y622D01*
G01X5272Y622D02*
G01X5340Y600D01*
G01X5386Y600D02*
G01X5340Y600D01*
G01X5454Y622D02*
G01X5386Y600D01*
G01X5477Y668D02*
G01X5454Y622D01*
G04 Draw part R8*
G04 draw part outline for part R8*
G54D11*
G01X6600Y1250D02*
G01X8300Y1250D01*
G01X8300Y1250D02*
G01X8300Y2050D01*
G01X8300Y2050D02*
G01X6600Y2050D01*
G01X6600Y2050D02*
G01X6600Y1250D01*
G04 draw reference designator for part R8*
G54D10*
G01X7800Y1877D02*
G01X7800Y1400D01*
G01X7595Y1877D02*
G01X7800Y1877D01*
G01X7595Y1877D02*
G01X7527Y1854D01*
G01X7527Y1854D02*
G01X7504Y1831D01*
G01X7504Y1831D02*
G01X7481Y1786D01*
G01X7481Y1786D02*
G01X7481Y1740D01*
G01X7481Y1740D02*
G01X7504Y1695D01*
G01X7504Y1695D02*
G01X7527Y1672D01*
G01X7527Y1672D02*
G01X7595Y1650D01*
G01X7800Y1650D02*
G01X7595Y1650D01*
G01X7640Y1650D02*
G01X7481Y1400D01*
G01X7186Y1877D02*
G01X7254Y1854D01*
G01X7254Y1854D02*
G01X7277Y1809D01*
G01X7277Y1809D02*
G01X7277Y1763D01*
G01X7277Y1763D02*
G01X7254Y1718D01*
G01X7254Y1718D02*
G01X7209Y1695D01*
G01X7209Y1695D02*
G01X7118Y1672D01*
G01X7118Y1672D02*
G01X7050Y1650D01*
G01X7050Y1650D02*
G01X7004Y1604D01*
G01X7004Y1604D02*
G01X6981Y1559D01*
G01X6981Y1559D02*
G01X6981Y1490D01*
G01X6981Y1490D02*
G01X7004Y1445D01*
G01X7004Y1445D02*
G01X7027Y1422D01*
G01X7027Y1422D02*
G01X7095Y1400D01*
G01X7186Y1400D02*
G01X7095Y1400D01*
G01X7254Y1422D02*
G01X7186Y1400D01*
G01X7277Y1445D02*
G01X7254Y1422D01*
G01X7300Y1490D02*
G01X7277Y1445D01*
G01X7300Y1559D02*
G01X7300Y1490D01*
G01X7277Y1604D02*
G01X7300Y1559D01*
G01X7231Y1650D02*
G01X7277Y1604D01*
G01X7163Y1672D02*
G01X7231Y1650D01*
G01X7072Y1695D02*
G01X7163Y1672D01*
G01X7027Y1718D02*
G01X7072Y1695D01*
G01X7004Y1763D02*
G01X7027Y1718D01*
G01X7004Y1809D02*
G01X7004Y1763D01*
G01X7027Y1854D02*
G01X7004Y1809D01*
G01X7095Y1877D02*
G01X7027Y1854D01*
G01X7186Y1877D02*
G01X7095Y1877D01*
G04 Draw part R7*
G04 draw part outline for part R7*
G54D11*
G01X6600Y2050D02*
G01X8300Y2050D01*
G01X8300Y2050D02*
G01X8300Y2850D01*
G01X8300Y2850D02*
G01X6600Y2850D01*
G01X6600Y2850D02*
G01X6600Y2050D01*
G04 draw reference designator for part R7*
G54D10*
G01X7800Y2677D02*
G01X7800Y2200D01*
G01X7595Y2677D02*
G01X7800Y2677D01*
G01X7595Y2677D02*
G01X7527Y2654D01*
G01X7527Y2654D02*
G01X7504Y2631D01*
G01X7504Y2631D02*
G01X7481Y2586D01*
G01X7481Y2586D02*
G01X7481Y2540D01*
G01X7481Y2540D02*
G01X7504Y2495D01*
G01X7504Y2495D02*
G01X7527Y2472D01*
G01X7527Y2472D02*
G01X7595Y2450D01*
G01X7800Y2450D02*
G01X7595Y2450D01*
G01X7640Y2450D02*
G01X7481Y2200D01*
G01X6981Y2677D02*
G01X7209Y2200D01*
G01X6981Y2677D02*
G01X7300Y2677D01*
G04 Draw part R10*
G04 draw part outline for part R10*
G54D11*
G01X2500Y1250D02*
G01X800Y1250D01*
G01X800Y1250D02*
G01X800Y450D01*
G01X800Y450D02*
G01X2500Y450D01*
G01X2500Y450D02*
G01X2500Y1250D01*
G04 draw reference designator for part R10*
G54D10*
G01X2200Y1077D02*
G01X2200Y600D01*
G01X1995Y1077D02*
G01X2200Y1077D01*
G01X1995Y1077D02*
G01X1927Y1054D01*
G01X1927Y1054D02*
G01X1904Y1031D01*
G01X1904Y1031D02*
G01X1881Y986D01*
G01X1881Y986D02*
G01X1881Y940D01*
G01X1881Y940D02*
G01X1904Y895D01*
G01X1904Y895D02*
G01X1927Y872D01*
G01X1927Y872D02*
G01X1995Y850D01*
G01X2200Y850D02*
G01X1995Y850D01*
G01X2040Y850D02*
G01X1881Y600D01*
G01X1654Y1009D02*
G01X1700Y986D01*
G01X1586Y1077D02*
G01X1654Y1009D01*
G01X1586Y1077D02*
G01X1586Y600D01*
G01X1268Y1077D02*
G01X1336Y1054D01*
G01X1336Y1054D02*
G01X1381Y986D01*
G01X1381Y986D02*
G01X1404Y872D01*
G01X1404Y872D02*
G01X1404Y804D01*
G01X1404Y804D02*
G01X1381Y690D01*
G01X1381Y690D02*
G01X1336Y622D01*
G01X1336Y622D02*
G01X1268Y600D01*
G01X1222Y600D02*
G01X1268Y600D01*
G01X1154Y622D02*
G01X1222Y600D01*
G01X1109Y690D02*
G01X1154Y622D01*
G01X1086Y804D02*
G01X1109Y690D01*
G01X1086Y872D02*
G01X1086Y804D01*
G01X1109Y986D02*
G01X1086Y872D01*
G01X1154Y1054D02*
G01X1109Y986D01*
G01X1222Y1077D02*
G01X1154Y1054D01*
G01X1268Y1077D02*
G01X1222Y1077D01*
G04 Draw part R2*
G04 Draw part R1*
G04 Draw part D2*
G04 Draw part D1*
G04 Draw part P1*
G04 draw part outline for part P1*
G54D11*
G01X9300Y2550D02*
G01X10700Y2550D01*
G01X10700Y2550D02*
G01X10700Y8950D01*
G01X10700Y8950D02*
G01X9300Y8950D01*
G01X9300Y8950D02*
G01X9300Y2550D01*
G04 draw reference designator for part P1*
G54D10*
G01X10227Y1750D02*
G01X9750Y1750D01*
G01X10227Y1954D02*
G01X10227Y1750D01*
G01X10227Y1954D02*
G01X10204Y2022D01*
G01X10204Y2022D02*
G01X10181Y2045D01*
G01X10181Y2045D02*
G01X10136Y2068D01*
G01X10136Y2068D02*
G01X10068Y2068D01*
G01X10068Y2068D02*
G01X10022Y2045D01*
G01X10022Y2045D02*
G01X10000Y2022D01*
G01X10000Y2022D02*
G01X9977Y1954D01*
G01X9977Y1750D02*
G01X9977Y1954D01*
G01X10159Y2295D02*
G01X10136Y2250D01*
G01X10227Y2363D02*
G01X10159Y2295D01*
G01X10227Y2363D02*
G01X9750Y2363D01*
G04 Draw part C3*
G04 draw part outline for part C3*
G54D11*
G01X4700Y6150D02*
G01X3000Y6150D01*
G01X3000Y6150D02*
G01X3000Y5350D01*
G01X3000Y5350D02*
G01X4700Y5350D01*
G01X4700Y5350D02*
G01X4700Y6150D01*
G04 draw reference designator for part C3*
G54D10*
G01X3981Y5909D02*
G01X3959Y5863D01*
G01X4027Y5954D02*
G01X3981Y5909D01*
G01X4072Y5977D02*
G01X4027Y5954D01*
G01X4163Y5977D02*
G01X4072Y5977D01*
G01X4163Y5977D02*
G01X4209Y5954D01*
G01X4209Y5954D02*
G01X4254Y5909D01*
G01X4254Y5909D02*
G01X4277Y5863D01*
G01X4277Y5863D02*
G01X4300Y5795D01*
G01X4300Y5795D02*
G01X4300Y5681D01*
G01X4300Y5681D02*
G01X4277Y5613D01*
G01X4277Y5613D02*
G01X4254Y5568D01*
G01X4254Y5568D02*
G01X4209Y5522D01*
G01X4209Y5522D02*
G01X4163Y5500D01*
G01X4072Y5500D02*
G01X4163Y5500D01*
G01X4027Y5522D02*
G01X4072Y5500D01*
G01X3981Y5568D02*
G01X4027Y5522D01*
G01X3959Y5613D02*
G01X3981Y5568D01*
G01X3481Y5977D02*
G01X3731Y5977D01*
G01X3481Y5977D02*
G01X3618Y5795D01*
G01X3550Y5795D02*
G01X3618Y5795D01*
G01X3550Y5795D02*
G01X3504Y5772D01*
G01X3504Y5772D02*
G01X3481Y5750D01*
G01X3481Y5750D02*
G01X3459Y5681D01*
G01X3459Y5681D02*
G01X3459Y5636D01*
G01X3459Y5636D02*
G01X3481Y5568D01*
G01X3481Y5568D02*
G01X3527Y5522D01*
G01X3527Y5522D02*
G01X3595Y5500D01*
G01X3663Y5500D02*
G01X3595Y5500D01*
G01X3731Y5522D02*
G01X3663Y5500D01*
G01X3754Y5545D02*
G01X3731Y5522D01*
G01X3777Y5590D02*
G01X3754Y5545D01*

G04 Draw traces*

G04 Draw Text*
M00*
M02*
