;Holesize 1 =   43.0 PLATED MILS
;Holesize 2 =   40.0 PLATED MILS
;Holesize 3 =   35.0 PLATED MILS
;Holesize 4 =   55.0 PLATED MILS
;Holesize 5 =  100.0 PLATED MILS
;Holesize 6 =   21.0 PLATED MILS
;Holesize 7 =   14.0 PLATED MILS
M48
INCH,00.0000
T01C0.043
T02C0.040
T03C0.035
T04C0.055
T05C0.100
T06C0.021
T07C0.014
%
G05
G90
T01
X001500Y005500
X001500Y007500
X035500Y007500
X035500Y005500
X001500Y025500
X001500Y027500
X035500Y027500
X035500Y025500
T02
X006000Y007000
X006000Y008000
X006000Y009000
X006900Y013000
X006900Y014000
X006900Y015000
X005200Y013000
X005200Y014000
X005200Y015000
X031000Y007000
X031000Y008000
X031000Y009000
X031800Y013000
X031800Y014000
X031800Y015000
X030100Y013000
X030100Y014000
X030100Y015000
X001800Y015900
X001800Y014900
X001800Y013900
X019500Y014000
X018500Y014000
X017500Y014000
X010000Y001500
X011000Y001500
X012000Y001500
X013000Y001500
X014000Y001500
X015000Y001500
X016000Y001500
X017000Y001500
X018000Y001500
X019000Y001500
X020000Y001500
X021000Y001500
X022000Y001500
X023000Y001500
X024000Y001500
X025000Y001500
X026000Y001500
X027000Y001500
X034000Y015900
X034000Y014900
X034000Y013900
X002000Y010400
X003000Y010400
X006000Y027000
X006000Y028000
X006000Y029000
X006900Y033000
X006900Y034000
X006900Y035000
X005200Y033000
X005200Y034000
X005200Y035000
X031000Y027000
X031000Y028000
X031000Y029000
X031800Y033000
X031800Y034000
X031800Y035000
X030100Y033000
X030100Y034000
X030100Y035000
X001800Y035900
X001800Y034900
X001800Y033900
X019500Y034000
X018500Y034000
X017500Y034000
X010000Y021500
X011000Y021500
X012000Y021500
X013000Y021500
X014000Y021500
X015000Y021500
X016000Y021500
X017000Y021500
X018000Y021500
X019000Y021500
X020000Y021500
X021000Y021500
X022000Y021500
X023000Y021500
X024000Y021500
X025000Y021500
X026000Y021500
X027000Y021500
X034000Y035900
X034000Y034900
X034000Y033900
X002000Y030400
X003000Y030400
T03
X002500Y002500
X003500Y002500
X004500Y002500
X006500Y002500
X002500Y000900
X003500Y000900
X004500Y000900
X006500Y000900
X030500Y002500
X031500Y002500
X032500Y002500
X034500Y002500
X030500Y000900
X031500Y000900
X032500Y000900
X034500Y000900
X002500Y022500
X003500Y022500
X004500Y022500
X006500Y022500
X002500Y020900
X003500Y020900
X004500Y020900
X006500Y020900
X030500Y022500
X031500Y022500
X032500Y022500
X034500Y022500
X030500Y020900
X031500Y020900
X032500Y020900
X034500Y020900
T04
X014600Y005500
X014600Y007000
X014600Y008500
X014600Y025500
X014600Y027000
X014600Y028500
T05
X018500Y004800
X018500Y009200
X018500Y024800
X018500Y029200
T06
X014000Y002600
X009050Y002600
X014000Y002600
X027850Y002600
X017000Y016450
X014900Y016950
X019550Y016600
X016100Y016450
X014300Y011050
X027650Y010400
X027650Y003350
X022250Y007000
X022250Y007000
X015800Y011150
X026900Y011150
X010750Y007750
X016950Y007750
X015800Y011150
X012300Y011150
X023300Y009250
X026900Y011150
X015800Y011150
X012300Y011150
X008400Y010350
X011500Y010350
X013800Y014300
X010250Y014300
X010250Y014300
X008950Y009150
X013800Y014300
X022800Y014300
X024800Y010200
X024800Y003400
X020050Y005500
X013400Y006300
X010500Y011100
X001000Y011100
X020050Y005500
X022200Y005500
X014400Y016450
X017500Y015000
X010050Y015000
X012750Y014300
X012650Y016550
X012750Y014300
X023150Y013400
X023150Y013400
X026850Y014300
X032500Y010500
X026850Y009800
X022400Y008650
X020200Y004300
X011650Y009600
X012500Y004800
X009350Y003600
X005100Y009800
X017150Y010650
X025550Y007300
X022400Y008650
X025900Y004200
X016600Y003700
X012050Y003700
X014000Y022600
X009050Y022600
X014000Y022600
X027850Y022600
X017000Y036450
X014900Y036950
X019550Y036600
X016100Y036450
X014300Y031050
X027650Y030400
X027650Y023350
X022250Y027000
X022250Y027000
X015800Y031150
X026900Y031150
X010750Y027750
X016950Y027750
X015800Y031150
X012300Y031150
X023300Y029250
X026900Y031150
X015800Y031150
X012300Y031150
X008400Y030350
X011500Y030350
X013800Y034300
X010250Y034300
X010250Y034300
X008950Y029150
X013800Y034300
X022800Y034300
X024800Y030200
X024800Y023400
X020050Y025500
X013400Y026300
X010500Y031100
X001000Y031100
X020050Y025500
X022200Y025500
X014400Y036450
X017500Y035000
X010050Y035000
X012750Y034300
X012650Y036550
X012750Y034300
X023150Y033400
X023150Y033400
X026850Y034300
X032500Y030500
X026850Y029800
X022400Y028650
X020200Y024300
X011650Y029600
X012500Y024800
X009350Y023600
X005100Y029800
X017150Y030650
X025550Y027300
X022400Y028650
X025900Y024200
X016600Y023700
X012050Y023700
T07
X020000Y001500
X020000Y021500
M30
