G04 FreePCB version 1.359*
G04 C:\Users\pmesser\_Paul\Design\DSOscope\PCB\A01\CAM_DSOscope_AnalogBrd_A01\inner_copper_2.grb*
G04 inner 2 layer *
G04 Scale: 100 percent, Rotated: No, Reflected: No *
%FSLAX24Y24*%
%MOIN*%
%LN inner 2 *%
G04 Rounded Rectangle Macro, params: W/2, H/2, R *
%AMRNDREC*
21,1,$1+$1,$2+$2-$3-$3,0,0,0*
21,1,$1+$1-$3-$3,$2+$2,0,0,0*
1,1,$3+$3,$1-$3,$2-$3*
1,1,$3+$3,$3-$1,$2-$3*
1,1,$3+$3,$1-$3,$3-$2*
1,1,$3+$3,$3-$1,$3-$2*%
G04 Rectangular Thermal Macro, params: W/2, H/2, T/2 *
%AMRECTHERM*
$4=$3/2*
21,1,$1-$3,$2-$3,0-$1/2-$4,0-$2/2-$4,0*
21,1,$1-$3,$2-$3,0-$1/2-$4,$2/2+$4,0*
21,1,$1-$3,$2-$3,$1/2+$4,0-$2/2-$4,0*
21,1,$1-$3,$2-$3,$1/2+$4,$2/2+$4,0*%
%ADD10C,0.005000*%
%ADD11C,0.069000*%
%ADD12C,0.031000*%
%ADD13C,0.015000*%
%ADD14C,0.006500*%
G90*
G70D02*

G04 Step and Repeat for panelization *
%SRX1Y2I3.700000J2.000000*%

G04 ----------------------- Draw board outline (positive)*
%LPD*%
G54D10*
G01X0Y0D02*
G01X0Y19000D01*
G04 end of side 1*
G01X37000Y19000D01*
G04 end of side 2*
G01X37000Y0D01*
G04 end of side 3*
G01X0Y0D01*

G04 -------------- Draw Parts, Pads, Traces, Vias and Text (positive)*
%LPD*%
G04 Draw part J1*
G04 Draw part U1*
G04 Draw part C1*
G04 Draw part SW2*
G04 Draw part R3*
G04 Draw part R6*
G04 Draw part SW1*
G04 Draw part R1*
G04 Draw part C2*
G04 Draw part R2*
G04 Draw part R10*
G04 Draw part SW3*
G04 Draw part R5*
G04 Draw part R8*
G04 Draw part R12*
G04 Draw part R11*
G04 Draw part U3*
G04 Draw part R7*
G04 Draw part R4*
G04 Draw part R9*
G04 Draw part J2*
G04 Draw part U2*
G04 Draw part C3*
G04 Draw part SW6*
G04 Draw part R16*
G04 Draw part R19*
G04 Draw part SW5*
G04 Draw part R14*
G04 Draw part C4*
G04 Draw part R15*
G04 Draw part R23*
G04 Draw part SW7*
G04 Draw part R18*
G04 Draw part R21*
G04 Draw part R25*
G04 Draw part R24*
G04 Draw part R20*
G04 Draw part R17*
G04 Draw part R22*
G04 Draw part R13*
G04 Draw part SW4*
G04 Draw part J3*
G04 Draw part C5*
G04 Draw part C6*
G04 Draw part C7*
G04 Draw part C9*
G04 Draw part C10*
G04 Draw part C11*
G04 Draw part U4*
G04 Draw part C8*
G04 Draw part C12*
G04 Draw part D1*
G04 Draw part D2*
G04 Draw part D4*
G04 Draw part D5*
G04 Draw part R29*
G54D11*
G01X14600Y5500D03*
G01X14600Y7000D03*
G04 Draw part R28*
G04 Draw part R26*
G04 Draw part R27*
G04 Draw part C13*
G04 Draw part D6*
G04 Draw part D3*
G04 Draw part D7*
G04 Draw part R30*
G04 Draw part R31*
G04 Draw part R32*
G04 Draw part D8*
G04 Draw part D11*
G04 Draw part D9*
G04 Draw part D10*
G04 Draw part C14*
G04 Draw part C15*

G04 Draw traces*
G54D12*
G01X14000Y2600D03*
G54D13*
G01X14000Y2600D02*
G01X9050Y2600D01*
G54D12*
G01X9050Y2600D03*
G01X14000Y2600D03*
G54D13*
G01X14000Y2600D02*
G01X27850Y2600D01*
G54D12*
G01X27850Y2600D03*
G01X27650Y10400D03*
G54D13*
G01X27650Y10400D02*
G01X27650Y3350D01*
G54D12*
G01X27650Y3350D03*
G01X22250Y7000D03*
G54D13*
G01X22250Y7000D02*
G01X14600Y7000D01*
G54D12*
G01X15800Y11150D03*
G54D13*
G01X15800Y11150D02*
G01X26900Y11150D01*
G54D12*
G01X26900Y11150D03*
G01X10750Y7750D03*
G54D13*
G01X10750Y7750D02*
G01X16950Y7750D01*
G54D12*
G01X16950Y7750D03*
G01X15800Y11150D03*
G54D13*
G01X15800Y11150D02*
G01X15350Y11600D01*
G01X15350Y11600D02*
G01X13250Y11600D01*
G01X13250Y11600D02*
G01X12800Y11150D01*
G01X12800Y11150D02*
G01X12300Y11150D01*
G54D12*
G01X12300Y11150D03*
G01X15800Y11150D03*
G54D13*
G01X15800Y11150D02*
G01X15350Y11600D01*
G01X15350Y11600D02*
G01X13250Y11600D01*
G01X13250Y11600D02*
G01X12800Y11150D01*
G01X12800Y11150D02*
G01X12300Y11150D01*
G54D12*
G01X12300Y11150D03*
G01X8400Y10350D03*
G54D13*
G01X8400Y10350D02*
G01X11500Y10350D01*
G54D12*
G01X11500Y10350D03*
G01X13800Y14300D03*
G54D13*
G01X13800Y14300D02*
G01X16950Y14300D01*
G01X16950Y14300D02*
G01X17150Y14500D01*
G01X17150Y14500D02*
G01X19850Y14500D01*
G01X19850Y14500D02*
G01X20050Y14300D01*
G01X20050Y14300D02*
G01X22800Y14300D01*
G54D12*
G01X22800Y14300D03*
G01X24800Y10200D03*
G54D13*
G01X24800Y10200D02*
G01X24800Y3400D01*
G54D12*
G01X24800Y3400D03*
G01X20050Y5500D03*
G54D13*
G01X20050Y5500D02*
G01X19700Y5850D01*
G01X19700Y5850D02*
G01X16850Y5850D01*
G01X16850Y5850D02*
G01X16500Y5500D01*
G01X16500Y5500D02*
G01X14600Y5500D01*
G54D12*
G01X10500Y11100D03*
G54D13*
G01X10500Y11100D02*
G01X1000Y11100D01*
G54D12*
G01X1000Y11100D03*
G01X20050Y5500D03*
G54D13*
G01X20050Y5500D02*
G01X22200Y5500D01*
G54D12*
G01X22200Y5500D03*
G01X16600Y3700D03*
G54D13*
G01X16600Y3700D02*
G01X12050Y3700D01*
G54D12*
G01X12050Y3700D03*

G04 Draw Text*
G54D14*
G01X4700Y17777D02*
G01X4722Y17754D01*
G01X4722Y17754D02*
G01X4745Y17777D01*
G01X4745Y17777D02*
G01X4722Y17800D01*
G01X4722Y17800D02*
G01X4700Y17777D01*
G01X4722Y17618D02*
G01X4722Y17300D01*
G01X4995Y17777D02*
G01X4995Y17390D01*
G01X4995Y17390D02*
G01X5018Y17322D01*
G01X5018Y17322D02*
G01X5063Y17300D01*
G01X5063Y17300D02*
G01X5109Y17300D01*
G01X4927Y17618D02*
G01X5086Y17618D01*
G01X5904Y17550D02*
G01X5881Y17595D01*
G01X5881Y17595D02*
G01X5813Y17618D01*
G01X5813Y17618D02*
G01X5745Y17618D01*
G01X5745Y17618D02*
G01X5677Y17595D01*
G01X5677Y17595D02*
G01X5654Y17550D01*
G01X5654Y17550D02*
G01X5677Y17504D01*
G01X5677Y17504D02*
G01X5722Y17481D01*
G01X5722Y17481D02*
G01X5836Y17459D01*
G01X5836Y17459D02*
G01X5881Y17436D01*
G01X5881Y17436D02*
G01X5904Y17390D01*
G01X5904Y17390D02*
G01X5904Y17368D01*
G01X5904Y17368D02*
G01X5881Y17322D01*
G01X5881Y17322D02*
G01X5813Y17300D01*
G01X5813Y17300D02*
G01X5745Y17300D01*
G01X5745Y17300D02*
G01X5677Y17322D01*
G01X5677Y17322D02*
G01X5654Y17368D01*
G01X6086Y17777D02*
G01X6086Y17300D01*
G01X6086Y17527D02*
G01X6154Y17595D01*
G01X6154Y17595D02*
G01X6199Y17618D01*
G01X6199Y17618D02*
G01X6268Y17618D01*
G01X6268Y17618D02*
G01X6313Y17595D01*
G01X6313Y17595D02*
G01X6336Y17527D01*
G01X6336Y17527D02*
G01X6336Y17300D01*
G01X6631Y17618D02*
G01X6586Y17595D01*
G01X6586Y17595D02*
G01X6540Y17550D01*
G01X6540Y17550D02*
G01X6518Y17481D01*
G01X6518Y17481D02*
G01X6518Y17436D01*
G01X6518Y17436D02*
G01X6540Y17368D01*
G01X6540Y17368D02*
G01X6586Y17322D01*
G01X6586Y17322D02*
G01X6631Y17300D01*
G01X6631Y17300D02*
G01X6699Y17300D01*
G01X6699Y17300D02*
G01X6745Y17322D01*
G01X6745Y17322D02*
G01X6790Y17368D01*
G01X6790Y17368D02*
G01X6813Y17436D01*
G01X6813Y17436D02*
G01X6813Y17481D01*
G01X6813Y17481D02*
G01X6790Y17550D01*
G01X6790Y17550D02*
G01X6745Y17595D01*
G01X6745Y17595D02*
G01X6699Y17618D01*
G01X6699Y17618D02*
G01X6631Y17618D01*
G01X6995Y17618D02*
G01X7086Y17300D01*
G01X7177Y17618D02*
G01X7086Y17300D01*
G01X7177Y17618D02*
G01X7268Y17300D01*
G01X7359Y17618D02*
G01X7268Y17300D01*
G01X7790Y17550D02*
G01X7768Y17595D01*
G01X7768Y17595D02*
G01X7699Y17618D01*
G01X7699Y17618D02*
G01X7631Y17618D01*
G01X7631Y17618D02*
G01X7563Y17595D01*
G01X7563Y17595D02*
G01X7540Y17550D01*
G01X7540Y17550D02*
G01X7563Y17504D01*
G01X7563Y17504D02*
G01X7609Y17481D01*
G01X7609Y17481D02*
G01X7722Y17459D01*
G01X7722Y17459D02*
G01X7768Y17436D01*
G01X7768Y17436D02*
G01X7790Y17390D01*
G01X7790Y17390D02*
G01X7790Y17368D01*
G01X7790Y17368D02*
G01X7768Y17322D01*
G01X7768Y17322D02*
G01X7699Y17300D01*
G01X7699Y17300D02*
G01X7631Y17300D01*
G01X7631Y17300D02*
G01X7563Y17322D01*
G01X7563Y17322D02*
G01X7540Y17368D01*
G01X8336Y17618D02*
G01X8427Y17300D01*
G01X8518Y17618D02*
G01X8427Y17300D01*
G01X8518Y17618D02*
G01X8609Y17300D01*
G01X8699Y17618D02*
G01X8609Y17300D01*
G01X8881Y17777D02*
G01X8904Y17754D01*
G01X8904Y17754D02*
G01X8927Y17777D01*
G01X8927Y17777D02*
G01X8904Y17800D01*
G01X8904Y17800D02*
G01X8881Y17777D01*
G01X8904Y17618D02*
G01X8904Y17300D01*
G01X9109Y17618D02*
G01X9109Y17300D01*
G01X9109Y17481D02*
G01X9131Y17550D01*
G01X9131Y17550D02*
G01X9177Y17595D01*
G01X9177Y17595D02*
G01X9222Y17618D01*
G01X9222Y17618D02*
G01X9290Y17618D01*
G01X9472Y17481D02*
G01X9745Y17481D01*
G01X9745Y17481D02*
G01X9745Y17527D01*
G01X9745Y17527D02*
G01X9722Y17572D01*
G01X9722Y17572D02*
G01X9699Y17595D01*
G01X9699Y17595D02*
G01X9654Y17618D01*
G01X9654Y17618D02*
G01X9586Y17618D01*
G01X9586Y17618D02*
G01X9540Y17595D01*
G01X9540Y17595D02*
G01X9495Y17550D01*
G01X9495Y17550D02*
G01X9472Y17481D01*
G01X9472Y17481D02*
G01X9472Y17436D01*
G01X9472Y17436D02*
G01X9495Y17368D01*
G01X9495Y17368D02*
G01X9540Y17322D01*
G01X9540Y17322D02*
G01X9586Y17300D01*
G01X9586Y17300D02*
G01X9654Y17300D01*
G01X9654Y17300D02*
G01X9699Y17322D01*
G01X9699Y17322D02*
G01X9745Y17368D01*
G01X10381Y17777D02*
G01X10404Y17754D01*
G01X10404Y17754D02*
G01X10427Y17777D01*
G01X10427Y17777D02*
G01X10404Y17800D01*
G01X10404Y17800D02*
G01X10381Y17777D01*
G01X10404Y17618D02*
G01X10404Y17231D01*
G01X10404Y17231D02*
G01X10381Y17163D01*
G01X10381Y17163D02*
G01X10336Y17140D01*
G01X10336Y17140D02*
G01X10290Y17140D01*
G01X10609Y17618D02*
G01X10609Y17390D01*
G01X10609Y17390D02*
G01X10631Y17322D01*
G01X10631Y17322D02*
G01X10677Y17300D01*
G01X10677Y17300D02*
G01X10745Y17300D01*
G01X10745Y17300D02*
G01X10790Y17322D01*
G01X10790Y17322D02*
G01X10859Y17390D01*
G01X10859Y17618D02*
G01X10859Y17300D01*
G01X11040Y17618D02*
G01X11040Y17300D01*
G01X11040Y17527D02*
G01X11109Y17595D01*
G01X11109Y17595D02*
G01X11154Y17618D01*
G01X11154Y17618D02*
G01X11222Y17618D01*
G01X11222Y17618D02*
G01X11268Y17595D01*
G01X11268Y17595D02*
G01X11290Y17527D01*
G01X11290Y17527D02*
G01X11290Y17300D01*
G01X11290Y17527D02*
G01X11359Y17595D01*
G01X11359Y17595D02*
G01X11404Y17618D01*
G01X11404Y17618D02*
G01X11472Y17618D01*
G01X11472Y17618D02*
G01X11518Y17595D01*
G01X11518Y17595D02*
G01X11540Y17527D01*
G01X11540Y17527D02*
G01X11540Y17300D01*
G01X11722Y17618D02*
G01X11722Y17140D01*
G01X11722Y17550D02*
G01X11768Y17595D01*
G01X11768Y17595D02*
G01X11813Y17618D01*
G01X11813Y17618D02*
G01X11881Y17618D01*
G01X11881Y17618D02*
G01X11927Y17595D01*
G01X11927Y17595D02*
G01X11972Y17550D01*
G01X11972Y17550D02*
G01X11995Y17481D01*
G01X11995Y17481D02*
G01X11995Y17436D01*
G01X11995Y17436D02*
G01X11972Y17368D01*
G01X11972Y17368D02*
G01X11927Y17322D01*
G01X11927Y17322D02*
G01X11881Y17300D01*
G01X11881Y17300D02*
G01X11813Y17300D01*
G01X11813Y17300D02*
G01X11768Y17322D01*
G01X11768Y17322D02*
G01X11722Y17368D01*
G01X12427Y17550D02*
G01X12404Y17595D01*
G01X12404Y17595D02*
G01X12336Y17618D01*
G01X12336Y17618D02*
G01X12268Y17618D01*
G01X12268Y17618D02*
G01X12199Y17595D01*
G01X12199Y17595D02*
G01X12177Y17550D01*
G01X12177Y17550D02*
G01X12199Y17504D01*
G01X12199Y17504D02*
G01X12245Y17481D01*
G01X12245Y17481D02*
G01X12359Y17459D01*
G01X12359Y17459D02*
G01X12404Y17436D01*
G01X12404Y17436D02*
G01X12427Y17390D01*
G01X12427Y17390D02*
G01X12427Y17368D01*
G01X12427Y17368D02*
G01X12404Y17322D01*
G01X12404Y17322D02*
G01X12336Y17300D01*
G01X12336Y17300D02*
G01X12268Y17300D01*
G01X12268Y17300D02*
G01X12199Y17322D01*
G01X12199Y17322D02*
G01X12177Y17368D01*
G01X13040Y17777D02*
G01X13040Y17390D01*
G01X13040Y17390D02*
G01X13063Y17322D01*
G01X13063Y17322D02*
G01X13109Y17300D01*
G01X13109Y17300D02*
G01X13154Y17300D01*
G01X12972Y17618D02*
G01X13131Y17618D01*
G01X13336Y17777D02*
G01X13336Y17300D01*
G01X13336Y17527D02*
G01X13404Y17595D01*
G01X13404Y17595D02*
G01X13449Y17618D01*
G01X13449Y17618D02*
G01X13518Y17618D01*
G01X13518Y17618D02*
G01X13563Y17595D01*
G01X13563Y17595D02*
G01X13586Y17527D01*
G01X13586Y17527D02*
G01X13586Y17300D01*
G01X14040Y17618D02*
G01X14040Y17300D01*
G01X14040Y17550D02*
G01X13995Y17595D01*
G01X13995Y17595D02*
G01X13949Y17618D01*
G01X13949Y17618D02*
G01X13881Y17618D01*
G01X13881Y17618D02*
G01X13836Y17595D01*
G01X13836Y17595D02*
G01X13790Y17550D01*
G01X13790Y17550D02*
G01X13768Y17481D01*
G01X13768Y17481D02*
G01X13768Y17436D01*
G01X13768Y17436D02*
G01X13790Y17368D01*
G01X13790Y17368D02*
G01X13836Y17322D01*
G01X13836Y17322D02*
G01X13881Y17300D01*
G01X13881Y17300D02*
G01X13949Y17300D01*
G01X13949Y17300D02*
G01X13995Y17322D01*
G01X13995Y17322D02*
G01X14040Y17368D01*
G01X14290Y17777D02*
G01X14290Y17390D01*
G01X14290Y17390D02*
G01X14313Y17322D01*
G01X14313Y17322D02*
G01X14359Y17300D01*
G01X14359Y17300D02*
G01X14404Y17300D01*
G01X14222Y17618D02*
G01X14381Y17618D01*
G01X14950Y17618D02*
G01X14950Y17300D01*
G01X14950Y17527D02*
G01X15018Y17595D01*
G01X15018Y17595D02*
G01X15063Y17618D01*
G01X15063Y17618D02*
G01X15131Y17618D01*
G01X15131Y17618D02*
G01X15177Y17595D01*
G01X15177Y17595D02*
G01X15200Y17527D01*
G01X15200Y17527D02*
G01X15200Y17300D01*
G01X15381Y17481D02*
G01X15654Y17481D01*
G01X15654Y17481D02*
G01X15654Y17527D01*
G01X15654Y17527D02*
G01X15631Y17572D01*
G01X15631Y17572D02*
G01X15609Y17595D01*
G01X15609Y17595D02*
G01X15563Y17618D01*
G01X15563Y17618D02*
G01X15495Y17618D01*
G01X15495Y17618D02*
G01X15449Y17595D01*
G01X15449Y17595D02*
G01X15404Y17550D01*
G01X15404Y17550D02*
G01X15381Y17481D01*
G01X15381Y17481D02*
G01X15381Y17436D01*
G01X15381Y17436D02*
G01X15404Y17368D01*
G01X15404Y17368D02*
G01X15449Y17322D01*
G01X15449Y17322D02*
G01X15495Y17300D01*
G01X15495Y17300D02*
G01X15563Y17300D01*
G01X15563Y17300D02*
G01X15609Y17322D01*
G01X15609Y17322D02*
G01X15654Y17368D01*
G01X15836Y17481D02*
G01X16109Y17481D01*
G01X16109Y17481D02*
G01X16109Y17527D01*
G01X16109Y17527D02*
G01X16086Y17572D01*
G01X16086Y17572D02*
G01X16063Y17595D01*
G01X16063Y17595D02*
G01X16018Y17618D01*
G01X16018Y17618D02*
G01X15949Y17618D01*
G01X15949Y17618D02*
G01X15904Y17595D01*
G01X15904Y17595D02*
G01X15859Y17550D01*
G01X15859Y17550D02*
G01X15836Y17481D01*
G01X15836Y17481D02*
G01X15836Y17436D01*
G01X15836Y17436D02*
G01X15859Y17368D01*
G01X15859Y17368D02*
G01X15904Y17322D01*
G01X15904Y17322D02*
G01X15949Y17300D01*
G01X15949Y17300D02*
G01X16018Y17300D01*
G01X16018Y17300D02*
G01X16063Y17322D01*
G01X16063Y17322D02*
G01X16109Y17368D01*
G01X16563Y17777D02*
G01X16563Y17300D01*
G01X16563Y17550D02*
G01X16518Y17595D01*
G01X16518Y17595D02*
G01X16472Y17618D01*
G01X16472Y17618D02*
G01X16404Y17618D01*
G01X16404Y17618D02*
G01X16359Y17595D01*
G01X16359Y17595D02*
G01X16313Y17550D01*
G01X16313Y17550D02*
G01X16290Y17481D01*
G01X16290Y17481D02*
G01X16290Y17436D01*
G01X16290Y17436D02*
G01X16313Y17368D01*
G01X16313Y17368D02*
G01X16359Y17322D01*
G01X16359Y17322D02*
G01X16404Y17300D01*
G01X16404Y17300D02*
G01X16472Y17300D01*
G01X16472Y17300D02*
G01X16518Y17322D01*
G01X16518Y17322D02*
G01X16563Y17368D01*
G01X17177Y17777D02*
G01X17177Y17390D01*
G01X17177Y17390D02*
G01X17199Y17322D01*
G01X17199Y17322D02*
G01X17245Y17300D01*
G01X17245Y17300D02*
G01X17290Y17300D01*
G01X17109Y17618D02*
G01X17268Y17618D01*
G01X17586Y17618D02*
G01X17540Y17595D01*
G01X17540Y17595D02*
G01X17495Y17550D01*
G01X17495Y17550D02*
G01X17472Y17481D01*
G01X17472Y17481D02*
G01X17472Y17436D01*
G01X17472Y17436D02*
G01X17495Y17368D01*
G01X17495Y17368D02*
G01X17540Y17322D01*
G01X17540Y17322D02*
G01X17586Y17300D01*
G01X17586Y17300D02*
G01X17654Y17300D01*
G01X17654Y17300D02*
G01X17699Y17322D01*
G01X17699Y17322D02*
G01X17745Y17368D01*
G01X17745Y17368D02*
G01X17768Y17436D01*
G01X17768Y17436D02*
G01X17768Y17481D01*
G01X17768Y17481D02*
G01X17745Y17550D01*
G01X17745Y17550D02*
G01X17699Y17595D01*
G01X17699Y17595D02*
G01X17654Y17618D01*
G01X17654Y17618D02*
G01X17586Y17618D01*
G01X18313Y17777D02*
G01X18313Y17300D01*
G01X18313Y17550D02*
G01X18359Y17595D01*
G01X18359Y17595D02*
G01X18404Y17618D01*
G01X18404Y17618D02*
G01X18472Y17618D01*
G01X18472Y17618D02*
G01X18518Y17595D01*
G01X18518Y17595D02*
G01X18563Y17550D01*
G01X18563Y17550D02*
G01X18586Y17481D01*
G01X18586Y17481D02*
G01X18586Y17436D01*
G01X18586Y17436D02*
G01X18563Y17368D01*
G01X18563Y17368D02*
G01X18518Y17322D01*
G01X18518Y17322D02*
G01X18472Y17300D01*
G01X18472Y17300D02*
G01X18404Y17300D01*
G01X18404Y17300D02*
G01X18359Y17322D01*
G01X18359Y17322D02*
G01X18313Y17368D01*
G01X18768Y17481D02*
G01X19040Y17481D01*
G01X19040Y17481D02*
G01X19040Y17527D01*
G01X19040Y17527D02*
G01X19018Y17572D01*
G01X19018Y17572D02*
G01X18995Y17595D01*
G01X18995Y17595D02*
G01X18949Y17618D01*
G01X18949Y17618D02*
G01X18881Y17618D01*
G01X18881Y17618D02*
G01X18836Y17595D01*
G01X18836Y17595D02*
G01X18790Y17550D01*
G01X18790Y17550D02*
G01X18768Y17481D01*
G01X18768Y17481D02*
G01X18768Y17436D01*
G01X18768Y17436D02*
G01X18790Y17368D01*
G01X18790Y17368D02*
G01X18836Y17322D01*
G01X18836Y17322D02*
G01X18881Y17300D01*
G01X18881Y17300D02*
G01X18949Y17300D01*
G01X18949Y17300D02*
G01X18995Y17322D01*
G01X18995Y17322D02*
G01X19040Y17368D01*
G01X19859Y17618D02*
G01X19859Y17300D01*
G01X19859Y17550D02*
G01X19813Y17595D01*
G01X19813Y17595D02*
G01X19768Y17618D01*
G01X19768Y17618D02*
G01X19699Y17618D01*
G01X19699Y17618D02*
G01X19654Y17595D01*
G01X19654Y17595D02*
G01X19609Y17550D01*
G01X19609Y17550D02*
G01X19586Y17481D01*
G01X19586Y17481D02*
G01X19586Y17436D01*
G01X19586Y17436D02*
G01X19609Y17368D01*
G01X19609Y17368D02*
G01X19654Y17322D01*
G01X19654Y17322D02*
G01X19699Y17300D01*
G01X19699Y17300D02*
G01X19768Y17300D01*
G01X19768Y17300D02*
G01X19813Y17322D01*
G01X19813Y17322D02*
G01X19859Y17368D01*
G01X20313Y17777D02*
G01X20313Y17300D01*
G01X20313Y17550D02*
G01X20268Y17595D01*
G01X20268Y17595D02*
G01X20222Y17618D01*
G01X20222Y17618D02*
G01X20154Y17618D01*
G01X20154Y17618D02*
G01X20109Y17595D01*
G01X20109Y17595D02*
G01X20063Y17550D01*
G01X20063Y17550D02*
G01X20040Y17481D01*
G01X20040Y17481D02*
G01X20040Y17436D01*
G01X20040Y17436D02*
G01X20063Y17368D01*
G01X20063Y17368D02*
G01X20109Y17322D01*
G01X20109Y17322D02*
G01X20154Y17300D01*
G01X20154Y17300D02*
G01X20222Y17300D01*
G01X20222Y17300D02*
G01X20268Y17322D01*
G01X20268Y17322D02*
G01X20313Y17368D01*
G01X20768Y17777D02*
G01X20768Y17300D01*
G01X20768Y17550D02*
G01X20722Y17595D01*
G01X20722Y17595D02*
G01X20677Y17618D01*
G01X20677Y17618D02*
G01X20609Y17618D01*
G01X20609Y17618D02*
G01X20563Y17595D01*
G01X20563Y17595D02*
G01X20518Y17550D01*
G01X20518Y17550D02*
G01X20495Y17481D01*
G01X20495Y17481D02*
G01X20495Y17436D01*
G01X20495Y17436D02*
G01X20518Y17368D01*
G01X20518Y17368D02*
G01X20563Y17322D01*
G01X20563Y17322D02*
G01X20609Y17300D01*
G01X20609Y17300D02*
G01X20677Y17300D01*
G01X20677Y17300D02*
G01X20722Y17322D01*
G01X20722Y17322D02*
G01X20768Y17368D01*
G01X20950Y17481D02*
G01X21222Y17481D01*
G01X21222Y17481D02*
G01X21222Y17527D01*
G01X21222Y17527D02*
G01X21200Y17572D01*
G01X21200Y17572D02*
G01X21177Y17595D01*
G01X21177Y17595D02*
G01X21131Y17618D01*
G01X21131Y17618D02*
G01X21063Y17618D01*
G01X21063Y17618D02*
G01X21018Y17595D01*
G01X21018Y17595D02*
G01X20972Y17550D01*
G01X20972Y17550D02*
G01X20950Y17481D01*
G01X20950Y17481D02*
G01X20950Y17436D01*
G01X20950Y17436D02*
G01X20972Y17368D01*
G01X20972Y17368D02*
G01X21018Y17322D01*
G01X21018Y17322D02*
G01X21063Y17300D01*
G01X21063Y17300D02*
G01X21131Y17300D01*
G01X21131Y17300D02*
G01X21177Y17322D01*
G01X21177Y17322D02*
G01X21222Y17368D01*
G01X21677Y17777D02*
G01X21677Y17300D01*
G01X21677Y17550D02*
G01X21631Y17595D01*
G01X21631Y17595D02*
G01X21586Y17618D01*
G01X21586Y17618D02*
G01X21518Y17618D01*
G01X21518Y17618D02*
G01X21472Y17595D01*
G01X21472Y17595D02*
G01X21427Y17550D01*
G01X21427Y17550D02*
G01X21404Y17481D01*
G01X21404Y17481D02*
G01X21404Y17436D01*
G01X21404Y17436D02*
G01X21427Y17368D01*
G01X21427Y17368D02*
G01X21472Y17322D01*
G01X21472Y17322D02*
G01X21518Y17300D01*
G01X21518Y17300D02*
G01X21586Y17300D01*
G01X21586Y17300D02*
G01X21631Y17322D01*
G01X21631Y17322D02*
G01X21677Y17368D01*
G01X22290Y17777D02*
G01X22290Y17390D01*
G01X22290Y17390D02*
G01X22313Y17322D01*
G01X22313Y17322D02*
G01X22359Y17300D01*
G01X22359Y17300D02*
G01X22404Y17300D01*
G01X22222Y17618D02*
G01X22381Y17618D01*
G01X22699Y17618D02*
G01X22654Y17595D01*
G01X22654Y17595D02*
G01X22609Y17550D01*
G01X22609Y17550D02*
G01X22586Y17481D01*
G01X22586Y17481D02*
G01X22586Y17436D01*
G01X22586Y17436D02*
G01X22609Y17368D01*
G01X22609Y17368D02*
G01X22654Y17322D01*
G01X22654Y17322D02*
G01X22699Y17300D01*
G01X22699Y17300D02*
G01X22768Y17300D01*
G01X22768Y17300D02*
G01X22813Y17322D01*
G01X22813Y17322D02*
G01X22859Y17368D01*
G01X22859Y17368D02*
G01X22881Y17436D01*
G01X22881Y17436D02*
G01X22881Y17481D01*
G01X22881Y17481D02*
G01X22859Y17550D01*
G01X22859Y17550D02*
G01X22813Y17595D01*
G01X22813Y17595D02*
G01X22768Y17618D01*
G01X22768Y17618D02*
G01X22699Y17618D01*
G01X23495Y17777D02*
G01X23495Y17390D01*
G01X23495Y17390D02*
G01X23518Y17322D01*
G01X23518Y17322D02*
G01X23563Y17300D01*
G01X23563Y17300D02*
G01X23609Y17300D01*
G01X23427Y17618D02*
G01X23586Y17618D01*
G01X23790Y17777D02*
G01X23790Y17300D01*
G01X23790Y17527D02*
G01X23859Y17595D01*
G01X23859Y17595D02*
G01X23904Y17618D01*
G01X23904Y17618D02*
G01X23972Y17618D01*
G01X23972Y17618D02*
G01X24018Y17595D01*
G01X24018Y17595D02*
G01X24040Y17527D01*
G01X24040Y17527D02*
G01X24040Y17300D01*
G01X24222Y17481D02*
G01X24495Y17481D01*
G01X24495Y17481D02*
G01X24495Y17527D01*
G01X24495Y17527D02*
G01X24472Y17572D01*
G01X24472Y17572D02*
G01X24449Y17595D01*
G01X24449Y17595D02*
G01X24404Y17618D01*
G01X24404Y17618D02*
G01X24336Y17618D01*
G01X24336Y17618D02*
G01X24290Y17595D01*
G01X24290Y17595D02*
G01X24245Y17550D01*
G01X24245Y17550D02*
G01X24222Y17481D01*
G01X24222Y17481D02*
G01X24222Y17436D01*
G01X24222Y17436D02*
G01X24245Y17368D01*
G01X24245Y17368D02*
G01X24290Y17322D01*
G01X24290Y17322D02*
G01X24336Y17300D01*
G01X24336Y17300D02*
G01X24404Y17300D01*
G01X24404Y17300D02*
G01X24449Y17322D01*
G01X24449Y17322D02*
G01X24495Y17368D01*
G01X25040Y17777D02*
G01X25040Y17300D01*
G01X25040Y17550D02*
G01X25086Y17595D01*
G01X25086Y17595D02*
G01X25131Y17618D01*
G01X25131Y17618D02*
G01X25199Y17618D01*
G01X25199Y17618D02*
G01X25245Y17595D01*
G01X25245Y17595D02*
G01X25290Y17550D01*
G01X25290Y17550D02*
G01X25313Y17481D01*
G01X25313Y17481D02*
G01X25313Y17436D01*
G01X25313Y17436D02*
G01X25290Y17368D01*
G01X25290Y17368D02*
G01X25245Y17322D01*
G01X25245Y17322D02*
G01X25199Y17300D01*
G01X25199Y17300D02*
G01X25131Y17300D01*
G01X25131Y17300D02*
G01X25086Y17322D01*
G01X25086Y17322D02*
G01X25040Y17368D01*
G01X25768Y17618D02*
G01X25768Y17300D01*
G01X25768Y17550D02*
G01X25722Y17595D01*
G01X25722Y17595D02*
G01X25677Y17618D01*
G01X25677Y17618D02*
G01X25609Y17618D01*
G01X25609Y17618D02*
G01X25563Y17595D01*
G01X25563Y17595D02*
G01X25518Y17550D01*
G01X25518Y17550D02*
G01X25495Y17481D01*
G01X25495Y17481D02*
G01X25495Y17436D01*
G01X25495Y17436D02*
G01X25518Y17368D01*
G01X25518Y17368D02*
G01X25563Y17322D01*
G01X25563Y17322D02*
G01X25609Y17300D01*
G01X25609Y17300D02*
G01X25677Y17300D01*
G01X25677Y17300D02*
G01X25722Y17322D01*
G01X25722Y17322D02*
G01X25768Y17368D01*
G01X26222Y17550D02*
G01X26177Y17595D01*
G01X26177Y17595D02*
G01X26131Y17618D01*
G01X26131Y17618D02*
G01X26063Y17618D01*
G01X26063Y17618D02*
G01X26018Y17595D01*
G01X26018Y17595D02*
G01X25972Y17550D01*
G01X25972Y17550D02*
G01X25950Y17481D01*
G01X25950Y17481D02*
G01X25950Y17436D01*
G01X25950Y17436D02*
G01X25972Y17368D01*
G01X25972Y17368D02*
G01X26018Y17322D01*
G01X26018Y17322D02*
G01X26063Y17300D01*
G01X26063Y17300D02*
G01X26131Y17300D01*
G01X26131Y17300D02*
G01X26177Y17322D01*
G01X26177Y17322D02*
G01X26222Y17368D01*
G01X26404Y17777D02*
G01X26404Y17300D01*
G01X26631Y17618D02*
G01X26404Y17390D01*
G01X26495Y17481D02*
G01X26654Y17300D01*
G01X27086Y17550D02*
G01X27063Y17595D01*
G01X27063Y17595D02*
G01X26995Y17618D01*
G01X26995Y17618D02*
G01X26927Y17618D01*
G01X26927Y17618D02*
G01X26859Y17595D01*
G01X26859Y17595D02*
G01X26836Y17550D01*
G01X26836Y17550D02*
G01X26859Y17504D01*
G01X26859Y17504D02*
G01X26904Y17481D01*
G01X26904Y17481D02*
G01X27018Y17459D01*
G01X27018Y17459D02*
G01X27063Y17436D01*
G01X27063Y17436D02*
G01X27086Y17390D01*
G01X27086Y17390D02*
G01X27086Y17368D01*
G01X27086Y17368D02*
G01X27063Y17322D01*
G01X27063Y17322D02*
G01X26995Y17300D01*
G01X26995Y17300D02*
G01X26927Y17300D01*
G01X26927Y17300D02*
G01X26859Y17322D01*
G01X26859Y17322D02*
G01X26836Y17368D01*
G01X27268Y17777D02*
G01X27290Y17754D01*
G01X27290Y17754D02*
G01X27313Y17777D01*
G01X27313Y17777D02*
G01X27290Y17800D01*
G01X27290Y17800D02*
G01X27268Y17777D01*
G01X27290Y17618D02*
G01X27290Y17300D01*
G01X27768Y17777D02*
G01X27768Y17300D01*
G01X27768Y17550D02*
G01X27722Y17595D01*
G01X27722Y17595D02*
G01X27677Y17618D01*
G01X27677Y17618D02*
G01X27609Y17618D01*
G01X27609Y17618D02*
G01X27563Y17595D01*
G01X27563Y17595D02*
G01X27518Y17550D01*
G01X27518Y17550D02*
G01X27495Y17481D01*
G01X27495Y17481D02*
G01X27495Y17436D01*
G01X27495Y17436D02*
G01X27518Y17368D01*
G01X27518Y17368D02*
G01X27563Y17322D01*
G01X27563Y17322D02*
G01X27609Y17300D01*
G01X27609Y17300D02*
G01X27677Y17300D01*
G01X27677Y17300D02*
G01X27722Y17322D01*
G01X27722Y17322D02*
G01X27768Y17368D01*
G01X27950Y17481D02*
G01X28222Y17481D01*
G01X28222Y17481D02*
G01X28222Y17527D01*
G01X28222Y17527D02*
G01X28200Y17572D01*
G01X28200Y17572D02*
G01X28177Y17595D01*
G01X28177Y17595D02*
G01X28131Y17618D01*
G01X28131Y17618D02*
G01X28063Y17618D01*
G01X28063Y17618D02*
G01X28018Y17595D01*
G01X28018Y17595D02*
G01X27972Y17550D01*
G01X27972Y17550D02*
G01X27950Y17481D01*
G01X27950Y17481D02*
G01X27950Y17436D01*
G01X27950Y17436D02*
G01X27972Y17368D01*
G01X27972Y17368D02*
G01X28018Y17322D01*
G01X28018Y17322D02*
G01X28063Y17300D01*
G01X28063Y17300D02*
G01X28131Y17300D01*
G01X28131Y17300D02*
G01X28177Y17322D01*
G01X28177Y17322D02*
G01X28222Y17368D01*
G01X28881Y17618D02*
G01X28836Y17595D01*
G01X28836Y17595D02*
G01X28790Y17550D01*
G01X28790Y17550D02*
G01X28768Y17481D01*
G01X28768Y17481D02*
G01X28768Y17436D01*
G01X28768Y17436D02*
G01X28790Y17368D01*
G01X28790Y17368D02*
G01X28836Y17322D01*
G01X28836Y17322D02*
G01X28881Y17300D01*
G01X28881Y17300D02*
G01X28949Y17300D01*
G01X28949Y17300D02*
G01X28995Y17322D01*
G01X28995Y17322D02*
G01X29040Y17368D01*
G01X29040Y17368D02*
G01X29063Y17436D01*
G01X29063Y17436D02*
G01X29063Y17481D01*
G01X29063Y17481D02*
G01X29040Y17550D01*
G01X29040Y17550D02*
G01X28995Y17595D01*
G01X28995Y17595D02*
G01X28949Y17618D01*
G01X28949Y17618D02*
G01X28881Y17618D01*
G01X29427Y17777D02*
G01X29381Y17777D01*
G01X29381Y17777D02*
G01X29336Y17754D01*
G01X29336Y17754D02*
G01X29313Y17686D01*
G01X29313Y17686D02*
G01X29313Y17300D01*
G01X29245Y17618D02*
G01X29404Y17618D01*
G01X30040Y17777D02*
G01X30040Y17390D01*
G01X30040Y17390D02*
G01X30063Y17322D01*
G01X30063Y17322D02*
G01X30109Y17300D01*
G01X30109Y17300D02*
G01X30154Y17300D01*
G01X29972Y17618D02*
G01X30131Y17618D01*
G01X30336Y17777D02*
G01X30336Y17300D01*
G01X30336Y17527D02*
G01X30404Y17595D01*
G01X30404Y17595D02*
G01X30449Y17618D01*
G01X30449Y17618D02*
G01X30518Y17618D01*
G01X30518Y17618D02*
G01X30563Y17595D01*
G01X30563Y17595D02*
G01X30586Y17527D01*
G01X30586Y17527D02*
G01X30586Y17300D01*
G01X30768Y17481D02*
G01X31040Y17481D01*
G01X31040Y17481D02*
G01X31040Y17527D01*
G01X31040Y17527D02*
G01X31018Y17572D01*
G01X31018Y17572D02*
G01X30995Y17595D01*
G01X30995Y17595D02*
G01X30949Y17618D01*
G01X30949Y17618D02*
G01X30881Y17618D01*
G01X30881Y17618D02*
G01X30836Y17595D01*
G01X30836Y17595D02*
G01X30790Y17550D01*
G01X30790Y17550D02*
G01X30768Y17481D01*
G01X30768Y17481D02*
G01X30768Y17436D01*
G01X30768Y17436D02*
G01X30790Y17368D01*
G01X30790Y17368D02*
G01X30836Y17322D01*
G01X30836Y17322D02*
G01X30881Y17300D01*
G01X30881Y17300D02*
G01X30949Y17300D01*
G01X30949Y17300D02*
G01X30995Y17322D01*
G01X30995Y17322D02*
G01X31040Y17368D01*
G01X31586Y17777D02*
G01X31586Y17300D01*
G01X31586Y17777D02*
G01X31790Y17777D01*
G01X31790Y17777D02*
G01X31859Y17754D01*
G01X31859Y17754D02*
G01X31881Y17731D01*
G01X31881Y17731D02*
G01X31904Y17686D01*
G01X31904Y17686D02*
G01X31904Y17618D01*
G01X31904Y17618D02*
G01X31881Y17572D01*
G01X31881Y17572D02*
G01X31859Y17550D01*
G01X31859Y17550D02*
G01X31790Y17527D01*
G01X31790Y17527D02*
G01X31586Y17527D01*
G01X32427Y17663D02*
G01X32404Y17709D01*
G01X32404Y17709D02*
G01X32359Y17754D01*
G01X32359Y17754D02*
G01X32313Y17777D01*
G01X32313Y17777D02*
G01X32222Y17777D01*
G01X32222Y17777D02*
G01X32177Y17754D01*
G01X32177Y17754D02*
G01X32131Y17709D01*
G01X32131Y17709D02*
G01X32109Y17663D01*
G01X32109Y17663D02*
G01X32086Y17595D01*
G01X32086Y17595D02*
G01X32086Y17481D01*
G01X32086Y17481D02*
G01X32109Y17413D01*
G01X32109Y17413D02*
G01X32131Y17368D01*
G01X32131Y17368D02*
G01X32177Y17322D01*
G01X32177Y17322D02*
G01X32222Y17300D01*
G01X32222Y17300D02*
G01X32313Y17300D01*
G01X32313Y17300D02*
G01X32359Y17322D01*
G01X32359Y17322D02*
G01X32404Y17368D01*
G01X32404Y17368D02*
G01X32427Y17413D01*
G01X32609Y17777D02*
G01X32609Y17300D01*
G01X32609Y17777D02*
G01X32813Y17777D01*
G01X32813Y17777D02*
G01X32881Y17754D01*
G01X32881Y17754D02*
G01X32904Y17731D01*
G01X32904Y17731D02*
G01X32927Y17686D01*
G01X32927Y17686D02*
G01X32927Y17640D01*
G01X32927Y17640D02*
G01X32904Y17595D01*
G01X32904Y17595D02*
G01X32881Y17572D01*
G01X32881Y17572D02*
G01X32813Y17550D01*
G01X32609Y17550D02*
G01X32813Y17550D01*
G01X32813Y17550D02*
G01X32881Y17527D01*
G01X32881Y17527D02*
G01X32904Y17504D01*
G01X32904Y17504D02*
G01X32927Y17459D01*
G01X32927Y17459D02*
G01X32927Y17390D01*
G01X32927Y17390D02*
G01X32904Y17345D01*
G01X32904Y17345D02*
G01X32881Y17322D01*
G01X32881Y17322D02*
G01X32813Y17300D01*
G01X32813Y17300D02*
G01X32609Y17300D01*
G01X33131Y17345D02*
G01X33109Y17322D01*
G01X33109Y17322D02*
G01X33131Y17300D01*
G01X33131Y17300D02*
G01X33154Y17322D01*
G01X33154Y17322D02*
G01X33131Y17345D01*
G01X13259Y18577D02*
G01X13259Y18100D01*
G01X13100Y18577D02*
G01X13418Y18577D01*
G01X13600Y18577D02*
G01X13600Y18100D01*
G01X13600Y18327D02*
G01X13668Y18395D01*
G01X13668Y18395D02*
G01X13713Y18418D01*
G01X13713Y18418D02*
G01X13781Y18418D01*
G01X13781Y18418D02*
G01X13827Y18395D01*
G01X13827Y18395D02*
G01X13850Y18327D01*
G01X13850Y18327D02*
G01X13850Y18100D01*
G01X14031Y18577D02*
G01X14054Y18554D01*
G01X14054Y18554D02*
G01X14077Y18577D01*
G01X14077Y18577D02*
G01X14054Y18600D01*
G01X14054Y18600D02*
G01X14031Y18577D01*
G01X14054Y18418D02*
G01X14054Y18100D01*
G01X14509Y18350D02*
G01X14486Y18395D01*
G01X14486Y18395D02*
G01X14418Y18418D01*
G01X14418Y18418D02*
G01X14349Y18418D01*
G01X14349Y18418D02*
G01X14281Y18395D01*
G01X14281Y18395D02*
G01X14259Y18350D01*
G01X14259Y18350D02*
G01X14281Y18304D01*
G01X14281Y18304D02*
G01X14327Y18281D01*
G01X14327Y18281D02*
G01X14440Y18259D01*
G01X14440Y18259D02*
G01X14486Y18236D01*
G01X14486Y18236D02*
G01X14509Y18190D01*
G01X14509Y18190D02*
G01X14509Y18168D01*
G01X14509Y18168D02*
G01X14486Y18122D01*
G01X14486Y18122D02*
G01X14418Y18100D01*
G01X14418Y18100D02*
G01X14349Y18100D01*
G01X14349Y18100D02*
G01X14281Y18122D01*
G01X14281Y18122D02*
G01X14259Y18168D01*
G01X15054Y18577D02*
G01X15077Y18554D01*
G01X15077Y18554D02*
G01X15099Y18577D01*
G01X15099Y18577D02*
G01X15077Y18600D01*
G01X15077Y18600D02*
G01X15054Y18577D01*
G01X15077Y18418D02*
G01X15077Y18100D01*
G01X15531Y18350D02*
G01X15509Y18395D01*
G01X15509Y18395D02*
G01X15440Y18418D01*
G01X15440Y18418D02*
G01X15372Y18418D01*
G01X15372Y18418D02*
G01X15304Y18395D01*
G01X15304Y18395D02*
G01X15281Y18350D01*
G01X15281Y18350D02*
G01X15304Y18304D01*
G01X15304Y18304D02*
G01X15349Y18281D01*
G01X15349Y18281D02*
G01X15463Y18259D01*
G01X15463Y18259D02*
G01X15509Y18236D01*
G01X15509Y18236D02*
G01X15531Y18190D01*
G01X15531Y18190D02*
G01X15531Y18168D01*
G01X15531Y18168D02*
G01X15509Y18122D01*
G01X15509Y18122D02*
G01X15440Y18100D01*
G01X15440Y18100D02*
G01X15372Y18100D01*
G01X15372Y18100D02*
G01X15304Y18122D01*
G01X15304Y18122D02*
G01X15281Y18168D01*
G01X16077Y18418D02*
G01X16077Y18100D01*
G01X16077Y18327D02*
G01X16145Y18395D01*
G01X16145Y18395D02*
G01X16190Y18418D01*
G01X16190Y18418D02*
G01X16259Y18418D01*
G01X16259Y18418D02*
G01X16304Y18395D01*
G01X16304Y18395D02*
G01X16327Y18327D01*
G01X16327Y18327D02*
G01X16327Y18100D01*
G01X16622Y18418D02*
G01X16577Y18395D01*
G01X16577Y18395D02*
G01X16531Y18350D01*
G01X16531Y18350D02*
G01X16509Y18281D01*
G01X16509Y18281D02*
G01X16509Y18236D01*
G01X16509Y18236D02*
G01X16531Y18168D01*
G01X16531Y18168D02*
G01X16577Y18122D01*
G01X16577Y18122D02*
G01X16622Y18100D01*
G01X16622Y18100D02*
G01X16690Y18100D01*
G01X16690Y18100D02*
G01X16736Y18122D01*
G01X16736Y18122D02*
G01X16781Y18168D01*
G01X16781Y18168D02*
G01X16804Y18236D01*
G01X16804Y18236D02*
G01X16804Y18281D01*
G01X16804Y18281D02*
G01X16781Y18350D01*
G01X16781Y18350D02*
G01X16736Y18395D01*
G01X16736Y18395D02*
G01X16690Y18418D01*
G01X16690Y18418D02*
G01X16622Y18418D01*
G01X17054Y18577D02*
G01X17054Y18190D01*
G01X17054Y18190D02*
G01X17077Y18122D01*
G01X17077Y18122D02*
G01X17122Y18100D01*
G01X17122Y18100D02*
G01X17168Y18100D01*
G01X16986Y18418D02*
G01X17145Y18418D01*
G01X17986Y18418D02*
G01X17986Y18100D01*
G01X17986Y18350D02*
G01X17940Y18395D01*
G01X17940Y18395D02*
G01X17895Y18418D01*
G01X17895Y18418D02*
G01X17827Y18418D01*
G01X17827Y18418D02*
G01X17781Y18395D01*
G01X17781Y18395D02*
G01X17736Y18350D01*
G01X17736Y18350D02*
G01X17713Y18281D01*
G01X17713Y18281D02*
G01X17713Y18236D01*
G01X17713Y18236D02*
G01X17736Y18168D01*
G01X17736Y18168D02*
G01X17781Y18122D01*
G01X17781Y18122D02*
G01X17827Y18100D01*
G01X17827Y18100D02*
G01X17895Y18100D01*
G01X17895Y18100D02*
G01X17940Y18122D01*
G01X17940Y18122D02*
G01X17986Y18168D01*
G01X18531Y18418D02*
G01X18531Y18100D01*
G01X18531Y18281D02*
G01X18554Y18350D01*
G01X18554Y18350D02*
G01X18599Y18395D01*
G01X18599Y18395D02*
G01X18645Y18418D01*
G01X18645Y18418D02*
G01X18713Y18418D01*
G01X18895Y18281D02*
G01X19168Y18281D01*
G01X19168Y18281D02*
G01X19168Y18327D01*
G01X19168Y18327D02*
G01X19145Y18372D01*
G01X19145Y18372D02*
G01X19122Y18395D01*
G01X19122Y18395D02*
G01X19077Y18418D01*
G01X19077Y18418D02*
G01X19009Y18418D01*
G01X19009Y18418D02*
G01X18963Y18395D01*
G01X18963Y18395D02*
G01X18918Y18350D01*
G01X18918Y18350D02*
G01X18895Y18281D01*
G01X18895Y18281D02*
G01X18895Y18236D01*
G01X18895Y18236D02*
G01X18918Y18168D01*
G01X18918Y18168D02*
G01X18963Y18122D01*
G01X18963Y18122D02*
G01X19009Y18100D01*
G01X19009Y18100D02*
G01X19077Y18100D01*
G01X19077Y18100D02*
G01X19122Y18122D01*
G01X19122Y18122D02*
G01X19168Y18168D01*
G01X19622Y18418D02*
G01X19622Y18100D01*
G01X19622Y18350D02*
G01X19577Y18395D01*
G01X19577Y18395D02*
G01X19531Y18418D01*
G01X19531Y18418D02*
G01X19463Y18418D01*
G01X19463Y18418D02*
G01X19418Y18395D01*
G01X19418Y18395D02*
G01X19372Y18350D01*
G01X19372Y18350D02*
G01X19349Y18281D01*
G01X19349Y18281D02*
G01X19349Y18236D01*
G01X19349Y18236D02*
G01X19372Y18168D01*
G01X19372Y18168D02*
G01X19418Y18122D01*
G01X19418Y18122D02*
G01X19463Y18100D01*
G01X19463Y18100D02*
G01X19531Y18100D01*
G01X19531Y18100D02*
G01X19577Y18122D01*
G01X19577Y18122D02*
G01X19622Y18168D01*
G01X19804Y18577D02*
G01X19804Y18100D01*
G01X20350Y18577D02*
G01X20350Y18100D01*
G01X20804Y18418D02*
G01X20804Y18100D01*
G01X20804Y18350D02*
G01X20759Y18395D01*
G01X20759Y18395D02*
G01X20713Y18418D01*
G01X20713Y18418D02*
G01X20645Y18418D01*
G01X20645Y18418D02*
G01X20599Y18395D01*
G01X20599Y18395D02*
G01X20554Y18350D01*
G01X20554Y18350D02*
G01X20531Y18281D01*
G01X20531Y18281D02*
G01X20531Y18236D01*
G01X20531Y18236D02*
G01X20554Y18168D01*
G01X20554Y18168D02*
G01X20599Y18122D01*
G01X20599Y18122D02*
G01X20645Y18100D01*
G01X20645Y18100D02*
G01X20713Y18100D01*
G01X20713Y18100D02*
G01X20759Y18122D01*
G01X20759Y18122D02*
G01X20804Y18168D01*
G01X21009Y18418D02*
G01X21145Y18100D01*
G01X21281Y18418D02*
G01X21145Y18100D01*
G01X21145Y18100D02*
G01X21099Y18009D01*
G01X21099Y18009D02*
G01X21054Y17963D01*
G01X21054Y17963D02*
G01X21009Y17940D01*
G01X21009Y17940D02*
G01X20986Y17940D01*
G01X21463Y18281D02*
G01X21736Y18281D01*
G01X21736Y18281D02*
G01X21736Y18327D01*
G01X21736Y18327D02*
G01X21713Y18372D01*
G01X21713Y18372D02*
G01X21690Y18395D01*
G01X21690Y18395D02*
G01X21645Y18418D01*
G01X21645Y18418D02*
G01X21577Y18418D01*
G01X21577Y18418D02*
G01X21531Y18395D01*
G01X21531Y18395D02*
G01X21486Y18350D01*
G01X21486Y18350D02*
G01X21463Y18281D01*
G01X21463Y18281D02*
G01X21463Y18236D01*
G01X21463Y18236D02*
G01X21486Y18168D01*
G01X21486Y18168D02*
G01X21531Y18122D01*
G01X21531Y18122D02*
G01X21577Y18100D01*
G01X21577Y18100D02*
G01X21645Y18100D01*
G01X21645Y18100D02*
G01X21690Y18122D01*
G01X21690Y18122D02*
G01X21736Y18168D01*
G01X21918Y18418D02*
G01X21918Y18100D01*
G01X21918Y18281D02*
G01X21940Y18350D01*
G01X21940Y18350D02*
G01X21986Y18395D01*
G01X21986Y18395D02*
G01X22031Y18418D01*
G01X22031Y18418D02*
G01X22099Y18418D01*
G01X22327Y18122D02*
G01X22304Y18100D01*
G01X22304Y18100D02*
G01X22281Y18122D01*
G01X22281Y18122D02*
G01X22304Y18145D01*
G01X22304Y18145D02*
G01X22327Y18122D01*
G01X22327Y18122D02*
G01X22327Y18077D01*
G01X22327Y18077D02*
G01X22304Y18031D01*
G01X22304Y18031D02*
G01X22281Y18009D01*
M00*
M02*
