G04 FreePCB version 1.359*
G04 C:\Google Drive\Projects\PPMScope\Contributions\Paul Messer\DSOscope_A03\DSOscope_Rev_A03_20130201\PCB\A03\CAM_DSOscope_AnalogBrd_A03\top_solder_mask.grb*
G04 top solder mask layer *
G04 Scale: 100 percent, Rotated: No, Reflected: No *
%FSLAX24Y24*%
%MOIN*%
%LN top solder mask *%
G04 Rounded Rectangle Macro, params: W/2, H/2, R *
%AMRNDREC*
21,1,$1+$1,$2+$2-$3-$3,0,0,0*
21,1,$1+$1-$3-$3,$2+$2,0,0,0*
1,1,$3+$3,$1-$3,$2-$3*
1,1,$3+$3,$3-$1,$2-$3*
1,1,$3+$3,$1-$3,$3-$2*
1,1,$3+$3,$3-$1,$3-$2*%
G04 Rectangular Thermal Macro, params: W/2, H/2, T/2 *
%AMRECTHERM*
$4=$3/2*
21,1,$1-$3,$2-$3,0-$1/2-$4,0-$2/2-$4,0*
21,1,$1-$3,$2-$3,0-$1/2-$4,$2/2+$4,0*
21,1,$1-$3,$2-$3,$1/2+$4,0-$2/2-$4,0*
21,1,$1-$3,$2-$3,$1/2+$4,$2/2+$4,0*%
%ADD10C,0.010000*%
%ADD11R,0.141000X0.141000*%
%ADD12C,0.141000*%
%ADD13R,0.046000X0.101000*%
%ADD14R,0.076000X0.091000*%
%ADD15R,0.141000X0.101000*%
%ADD16RNDREC,0.070500X0.050500X0.028000*%
%ADD17R,0.066000X0.066000*%
%ADD18R,0.101000X0.101000*%
%ADD19C,0.101000*%
%ADD20R,0.091000X0.091000*%
%ADD21C,0.091000*%
%ADD22R,0.101000X0.141000*%
%ADD23RNDREC,0.050500X0.070500X0.028000*%
%ADD24R,0.051000X0.091000*%
%ADD25R,0.091000X0.061000*%
%ADD26RNDREC,0.108000X0.083000X0.028000*%
%ADD27R,0.091000X0.051000*%
%ADD28R,0.076000X0.051000*%
%ADD29R,0.096000X0.096000*%
%ADD30C,0.096000*%
%ADD31R,0.063000X0.059000*%
%ADD32C,0.044000*%
%ADD33C,0.081000*%
%ADD34C,0.066000*%
G90*
G70D02*

G04 Step and Repeat for panelization *

G04 ----------------------- Draw board outline (positive)*
%LPD*%
G54D10*
G01X0Y0D02*
G01X0Y19000D01*
G04 end of side 1*
G01X37000Y19000D01*
G04 end of side 2*
G01X37000Y0D01*
G04 end of side 3*
G01X0Y0D01*

G04 -------------- Draw Parts, Pads, Traces, Vias and Text (positive)*
%LPD*%
G04 Draw part J1*
G54D11*
G01X1500Y5500D03*
G54D12*
G01X1500Y7500D03*
G04 Draw part U1*
G54D13*
G01X10800Y12100D03*
G01X11300Y12100D03*
G01X11800Y12100D03*
G01X12300Y12100D03*
G01X10800Y14300D03*
G01X11300Y14300D03*
G01X11800Y14300D03*
G01X12300Y14300D03*
G04 Draw part C1*
G54D14*
G01X2700Y4900D03*
G01X4050Y4900D03*
G04 Draw part SW2*
G54D15*
G01X6900Y7000D03*
G54D16*
G01X6900Y8000D03*
G01X6900Y9000D03*
G54D15*
G01X5200Y7000D03*
G54D16*
G01X5200Y8000D03*
G01X5200Y9000D03*
G04 Draw part R3*
G54D17*
G01X3600Y7800D03*
G01X3600Y8700D03*
G04 Draw part R6*
G01X4000Y9500D03*
G01X4000Y10400D03*
G04 Draw part SW1*
G54D18*
G01X2500Y2500D03*
G54D19*
G01X3500Y2500D03*
G01X4500Y2500D03*
G01X6500Y2500D03*
G01X2500Y900D03*
G01X3500Y900D03*
G01X4500Y900D03*
G01X6500Y900D03*
G04 Draw part R1*
G54D17*
G01X5800Y4600D03*
G01X5800Y5500D03*
G04 Draw part C2*
G01X5000Y4900D03*
G01X5000Y5800D03*
G04 Draw part R2*
G01X3600Y6100D03*
G01X3600Y7000D03*
G04 Draw part R10*
G01X6000Y10500D03*
G01X5100Y10500D03*
G04 Draw part SW3*
G54D15*
G01X6900Y13000D03*
G54D16*
G01X6900Y14000D03*
G01X6900Y15000D03*
G54D15*
G01X5200Y13000D03*
G54D16*
G01X5200Y14000D03*
G01X5200Y15000D03*
G04 Draw part R5*
G54D17*
G01X9300Y12100D03*
G01X9300Y13000D03*
G04 Draw part R8*
G01X8500Y12100D03*
G01X8500Y13000D03*
G04 Draw part R12*
G01X8700Y14100D03*
G01X8700Y15000D03*
G04 Draw part R11*
G01X9600Y15800D03*
G01X8700Y15800D03*
G04 Draw part U3*
G54D13*
G01X14300Y12100D03*
G01X14800Y12100D03*
G01X15300Y12100D03*
G01X15800Y12100D03*
G01X14300Y14300D03*
G01X14800Y14300D03*
G01X15300Y14300D03*
G01X15800Y14300D03*
G04 Draw part R7*
G54D17*
G01X11300Y15800D03*
G01X12200Y15800D03*
G04 Draw part R4*
G01X13300Y13000D03*
G01X13300Y12100D03*
G04 Draw part R9*
G01X13300Y10300D03*
G01X13300Y11200D03*
G04 Draw part J2*
G54D11*
G01X35500Y7500D03*
G54D12*
G01X35500Y5500D03*
G04 Draw part U2*
G54D13*
G01X24700Y12100D03*
G01X25200Y12100D03*
G01X25700Y12100D03*
G01X26200Y12100D03*
G01X24700Y14300D03*
G01X25200Y14300D03*
G01X25700Y14300D03*
G01X26200Y14300D03*
G04 Draw part C3*
G54D14*
G01X33800Y5500D03*
G01X32450Y5500D03*
G04 Draw part SW6*
G54D15*
G01X31800Y7000D03*
G54D16*
G01X31800Y8000D03*
G01X31800Y9000D03*
G54D15*
G01X30100Y7000D03*
G54D16*
G01X30100Y8000D03*
G01X30100Y9000D03*
G04 Draw part R16*
G54D17*
G01X28700Y7500D03*
G01X28700Y8400D03*
G04 Draw part R19*
G01X27900Y8400D03*
G01X27900Y7500D03*
G04 Draw part SW5*
G54D18*
G01X30500Y2500D03*
G54D19*
G01X31500Y2500D03*
G01X32500Y2500D03*
G01X34500Y2500D03*
G01X30500Y900D03*
G01X31500Y900D03*
G01X32500Y900D03*
G01X34500Y900D03*
G04 Draw part R14*
G54D17*
G01X30600Y5500D03*
G01X30600Y4600D03*
G04 Draw part C4*
G01X31500Y5500D03*
G01X31500Y4600D03*
G04 Draw part R15*
G01X29700Y4600D03*
G01X29700Y5500D03*
G04 Draw part R23*
G01X31000Y10500D03*
G01X31900Y10500D03*
G04 Draw part SW7*
G54D15*
G01X31800Y13000D03*
G54D16*
G01X31800Y14000D03*
G01X31800Y15000D03*
G54D15*
G01X30100Y13000D03*
G54D16*
G01X30100Y14000D03*
G01X30100Y15000D03*
G04 Draw part R18*
G54D17*
G01X27700Y12100D03*
G01X27700Y13000D03*
G04 Draw part R21*
G01X28500Y12100D03*
G01X28500Y13000D03*
G04 Draw part R25*
G01X28300Y14000D03*
G01X28300Y14900D03*
G04 Draw part R24*
G01X27400Y15800D03*
G01X28300Y15800D03*
G04 Draw part R20*
G01X25200Y15800D03*
G01X24300Y15800D03*
G04 Draw part R17*
G01X15300Y15800D03*
G01X14400Y15800D03*
G04 Draw part R22*
G01X19200Y11000D03*
G01X18300Y11000D03*
G04 Draw part R13*
G54D20*
G01X1800Y15900D03*
G54D21*
G01X1800Y14900D03*
G01X1800Y13900D03*
G04 Draw part SW4*
G54D22*
G01X19500Y14900D03*
G54D23*
G01X18500Y14900D03*
G01X17500Y14900D03*
G54D22*
G01X19500Y13200D03*
G54D23*
G01X18500Y13200D03*
G01X17500Y13200D03*
G04 Draw part J3*
G54D18*
G01X10000Y1500D03*
G54D19*
G01X11000Y1500D03*
G01X12000Y1500D03*
G01X13000Y1500D03*
G01X14000Y1500D03*
G01X15000Y1500D03*
G01X16000Y1500D03*
G01X17000Y1500D03*
G01X18000Y1500D03*
G01X19000Y1500D03*
G01X20000Y1500D03*
G01X21000Y1500D03*
G01X22000Y1500D03*
G01X23000Y1500D03*
G01X24000Y1500D03*
G01X25000Y1500D03*
G01X26000Y1500D03*
G01X27000Y1500D03*
G04 Draw part C5*
G54D17*
G01X9500Y14100D03*
G01X9500Y15000D03*
G04 Draw part C6*
G01X13300Y15400D03*
G01X13300Y16300D03*
G04 Draw part C7*
G01X23800Y14300D03*
G01X23800Y13400D03*
G04 Draw part C9*
G01X12300Y9600D03*
G01X12300Y10500D03*
G04 Draw part C10*
G01X16600Y11200D03*
G01X16600Y12100D03*
G04 Draw part C11*
G01X26200Y9800D03*
G01X26200Y10700D03*
G04 Draw part U4*
G54D13*
G01X24800Y6900D03*
G01X24300Y6900D03*
G01X23800Y6900D03*
G01X23300Y6900D03*
G01X24800Y4700D03*
G01X24300Y4700D03*
G01X23800Y4700D03*
G01X23300Y4700D03*
G04 Draw part C8*
G54D17*
G01X25600Y3400D03*
G01X26500Y3400D03*
G04 Draw part C12*
G01X22400Y8000D03*
G01X23300Y8000D03*
G04 Draw part D1*
G54D24*
G01X9100Y7600D03*
G01X9100Y6100D03*
G04 Draw part D2*
G01X8400Y6100D03*
G01X8400Y7600D03*
G04 Draw part D4*
G54D25*
G01X7600Y5200D03*
G01X9350Y5200D03*
G04 Draw part D5*
G01X7600Y4300D03*
G01X9350Y4300D03*
G04 Draw part R29*
G54D11*
G01X14600Y5500D03*
G54D12*
G01X14600Y7000D03*
G01X14600Y8500D03*
G54D26*
G01X18500Y4800D03*
G01X18500Y9200D03*
G04 Draw part R28*
G54D17*
G01X24300Y9000D03*
G01X24300Y8100D03*
G04 Draw part R26*
G01X25700Y6300D03*
G01X25700Y5400D03*
G04 Draw part R27*
G01X22900Y3400D03*
G01X23800Y3400D03*
G04 Draw part C13*
G01X13400Y5500D03*
G01X12500Y5500D03*
G04 Draw part D6*
G54D27*
G01X28200Y6600D03*
G01X26700Y6600D03*
G04 Draw part D7*
G01X26700Y5900D03*
G01X28200Y5900D03*
G04 Draw part R30*
G54D17*
G01X1500Y12200D03*
G01X2400Y12200D03*
G04 Draw part R31*
G54D20*
G01X34000Y15900D03*
G54D21*
G01X34000Y14900D03*
G01X34000Y13900D03*
G04 Draw part R32*
G54D17*
G01X16500Y15700D03*
G01X16500Y16600D03*
G04 Draw part D8*
G54D28*
G01X21800Y2800D03*
G01X21000Y3180D03*
G01X21800Y3560D03*
G04 Draw part D11*
G54D29*
G01X2000Y10400D03*
G54D30*
G01X3000Y10400D03*
G04 Draw part D9*
G54D25*
G01X28400Y5100D03*
G01X26650Y5100D03*
G04 Draw part D10*
G01X28400Y4200D03*
G01X26650Y4200D03*
G04 Draw part C14*
G54D31*
G01X10000Y12100D03*
G01X10000Y12770D03*
G04 Draw part C15*
G01X27000Y12500D03*
G01X27000Y13170D03*
G04 Draw part R33*
G54D17*
G01X2800Y7800D03*
G01X2800Y8700D03*
G04 Draw part R34*
G04 Draw part C18*
G04 Draw part C16*
G04 Draw part C17*
G01X12000Y3600D03*
G01X11100Y3600D03*
G04 Draw part D3*
G54D28*
G01X19400Y2800D03*
G01X18600Y3180D03*
G01X19400Y3560D03*
G04 Draw part R35*
G04 Draw part R36*
G04 Draw part R37*
G04 Draw part J4*
G54D18*
G01X35500Y11500D03*
G54D19*
G01X35500Y12500D03*
G01X35500Y13500D03*
G01X35500Y14500D03*
G01X35500Y15500D03*
G01X35500Y16500D03*
G01X35500Y17500D03*

G04 Draw traces*
G54D32*
G01X14000Y2600D03*
G54D33*
G01X8900Y2600D03*
G01X14000Y2600D03*
G01X27850Y2600D03*
G01X17450Y16700D03*
G01X14400Y16950D03*
G01X19550Y16600D03*
G01X15550Y16700D03*
G01X30100Y7000D03*
G01X14300Y11100D03*
G01X8000Y10200D03*
G01X11300Y10350D03*
G01X15800Y11150D03*
G01X26900Y11150D03*
G01X10750Y7750D03*
G01X16950Y7750D03*
G54D34*
G01X15800Y11150D03*
G54D33*
G01X12300Y11150D03*
G01X23300Y9250D03*
G54D34*
G01X26900Y11150D03*
G01X15800Y11150D03*
G01X12300Y11150D03*
G54D33*
G01X22250Y7000D03*
G01X22250Y7000D03*
G54D32*
G01X22250Y7000D03*
G54D33*
G01X27650Y10400D03*
G01X27650Y3350D03*
G01X3400Y17750D03*
G01X6800Y10550D03*
G01X22200Y5500D03*
G54D34*
G01X20050Y5500D03*
G54D33*
G01X20050Y5500D03*
G01X13400Y6300D03*
G01X10500Y11100D03*
G01X1000Y11100D03*
G54D34*
G01X22200Y5500D03*
G01X20050Y5500D03*
G01X20050Y5500D03*
G01X22200Y5500D03*
G01X22200Y5500D03*
G01X20050Y5500D03*
G54D33*
G01X13800Y14300D03*
G01X10250Y14000D03*
G54D34*
G01X10250Y14000D03*
G54D33*
G01X8950Y9150D03*
G54D34*
G01X13800Y14300D03*
G54D33*
G01X22800Y14300D03*
G01X24800Y10200D03*
G01X24800Y3400D03*
G01X10250Y14000D03*
G01X14600Y15100D03*
G01X10050Y15000D03*
G01X12750Y14300D03*
G01X12650Y16550D03*
G54D34*
G01X12750Y14300D03*
G01X22000Y1500D03*
G54D33*
G01X23150Y13400D03*
G54D34*
G01X23150Y13400D03*
G54D33*
G01X26850Y14300D03*
G01X32500Y10500D03*
G01X26850Y9800D03*
G01X22400Y8650D03*
G54D34*
G01X20000Y1500D03*
G54D33*
G01X11650Y9600D03*
G01X12500Y4800D03*
G01X9350Y3600D03*
G01X5100Y9900D03*
G01X17150Y10650D03*
G01X25550Y7300D03*
G54D34*
G01X22400Y8650D03*
G54D33*
G01X25900Y4200D03*
G54D34*
G01X23150Y13400D03*
G54D33*
G01X16550Y4500D03*
G01X11850Y6400D03*

G04 Draw Text*

G04 Draw solder mask cutouts*
M00*
M02*
