G04 FreePCB version 1.359*
G04 E:\Projects\USBToSerial\PCB\CAM\bottom_copper.grb*
G04 bottom copper layer *
G04 Scale: 100 percent, Rotated: No, Reflected: No *
%FSLAX24Y24*%
%MOIN*%
%LN bottom copper *%
G04 Rounded Rectangle Macro, params: W/2, H/2, R *
%AMRNDREC*
21,1,$1+$1,$2+$2-$3-$3,0,0,0*
21,1,$1+$1-$3-$3,$2+$2,0,0,0*
1,1,$3+$3,$1-$3,$2-$3*
1,1,$3+$3,$3-$1,$2-$3*
1,1,$3+$3,$1-$3,$3-$2*
1,1,$3+$3,$3-$1,$3-$2*%
G04 Rectangular Thermal Macro, params: W/2, H/2, T/2 *
%AMRECTHERM*
$4=$3/2*
21,1,$1-$3,$2-$3,0-$1/2-$4,0-$2/2-$4,0*
21,1,$1-$3,$2-$3,0-$1/2-$4,$2/2+$4,0*
21,1,$1-$3,$2-$3,$1/2+$4,0-$2/2-$4,0*
21,1,$1-$3,$2-$3,$1/2+$4,$2/2+$4,0*%
%ADD10C,0.005000*%
%ADD11RECTHERM,0.060000X0.060000X0.005000*%
%ADD12C,0.001000*%
%ADD13C,0.120000*%
%ADD14C,0.200000*%
%ADD15C,0.125000*%
%ADD16C,0.085000*%
%AMTHERM17*7,0,0,0.125000,0.065000,0.010000,45.0*%
%ADD17THERM17*%
%AMTHERM18*7,0,0,0.088000,0.028000,0.010000,45.0*%
%ADD18THERM18*%
%ADD19R,0.060000X0.060000*%
%ADD20C,0.060000*%
%ADD21C,0.140000*%
%ADD22C,0.025000*%
%ADD23C,0.065000*%
%ADD24C,0.028000*%
%ADD25C,0.010000*%
%ADD26C,0.015000*%
G90*
G70D02*

G04 Step and Repeat for panelization *

G04 ----------------------- Draw board outline (positive)*
%LPD*%
G54D10*
G01X0Y0D02*
G01X0Y0D01*
G04 end of side 1*
G01X0Y9000D01*
G04 end of side 2*
G01X19000Y9000D01*
G04 end of side 3*
G01X19000Y0D01*
G04 end of side 4*
G01X0Y0D01*

G04 ----------------------- Draw copper area (positive)*
G36*
G01X18500Y500D02*
G01X500Y500D01*
G01X500Y550D01*
G01X500Y8550D01*
G01X18500Y8550D01*
G01X18500Y500D01*
G37*

G04 -------------------- Draw copper area clearances (negative)*
%LPC*%

G04 Draw clearances for pads*
G54D11*
G01X1000Y8000D03*
G54D12*
G54D13*
G01X1000Y7000D03*
G01X1000Y6000D03*
G01X1000Y5000D03*
G01X1000Y4000D03*
G01X1000Y3000D03*
G01X1000Y2000D03*
G01X1000Y1000D03*
G01X15250Y4000D03*
G01X14250Y4000D03*
G01X15250Y5000D03*
G01X14250Y5000D03*
G54D14*
G01X16320Y2120D03*
G01X16320Y6860D03*

G04 Draw clearances for traces*
G54D15*
G01X3000Y6000D03*
G54D16*
G01X1000Y4000D02*
G01X3000Y6000D01*
G01X1000Y7000D02*
G01X3500Y7000D01*
G01X3500Y7000D02*
G01X4000Y6500D01*
G01X4000Y6500D02*
G01X4000Y6000D01*
G01X4000Y6000D02*
G01X2000Y4000D01*
G01X2000Y4000D02*
G01X2000Y1500D01*
G01X2000Y1500D02*
G01X2500Y1000D01*
G54D15*
G01X7000Y1000D03*
G54D16*
G01X2500Y1000D02*
G01X7000Y1000D01*
G54D15*
G01X8000Y2050D03*
G54D16*
G01X8000Y2050D02*
G01X12250Y2050D01*
G01X12250Y2050D02*
G01X14250Y4000D01*
G54D15*
G01X8000Y1000D03*
G54D16*
G01X8000Y1000D02*
G01X12250Y1000D01*
G01X12250Y1000D02*
G01X15300Y4050D01*
G01X15300Y4050D02*
G01X15250Y4000D01*
G54D17*
G01X3000Y4000D03*
G54D18*
G01X9000Y8000D03*
G54D17*
G01X9000Y8000D03*
G01X9000Y5050D03*
G54D16*
G01X14250Y5000D02*
G01X13000Y6250D01*
G54D15*
G01X13000Y7000D03*
G54D16*
G01X13000Y6250D02*
G01X13000Y7000D01*
G01X15250Y5000D02*
G01X15250Y6000D01*
G01X15250Y6000D02*
G01X13550Y7700D01*
G01X13550Y7700D02*
G01X12650Y7700D01*
G54D15*
G01X11950Y7000D03*
G54D16*
G01X12650Y7700D02*
G01X11950Y7000D01*

G04 Draw clearances for text*

G04 -------------- Draw Parts, Pads, Traces, Vias and Text (positive)*
%LPD*%
G04 Draw part H1*
G54D19*
G01X1000Y8000D03*
G54D20*
G01X1000Y7000D03*
G01X1000Y6000D03*
G01X1000Y5000D03*
G01X1000Y4000D03*
G01X1000Y3000D03*
G01X1000Y2000D03*
G01X1000Y1000D03*
G04 Draw part U1*
G04 Draw part C4*
G04 Draw part C1*
G04 Draw part C2*
G04 Draw part C3*
G04 Draw part L1*
G04 Draw part R1*
G04 Draw part K1*
G01X15250Y4000D03*
G01X14250Y4000D03*
G01X15250Y5000D03*
G01X14250Y5000D03*
G54D21*
G01X16320Y2120D03*
G01X16320Y6860D03*

G04 Draw traces*
G54D22*
G01X1000Y4000D02*
G01X3000Y6000D01*
G54D23*
G01X3000Y6000D03*
G54D22*
G01X1000Y7000D02*
G01X3500Y7000D01*
G01X3500Y7000D02*
G01X4000Y6500D01*
G01X4000Y6500D02*
G01X4000Y6000D01*
G01X4000Y6000D02*
G01X2000Y4000D01*
G01X2000Y4000D02*
G01X2000Y1500D01*
G01X2000Y1500D02*
G01X2500Y1000D01*
G01X2500Y1000D02*
G01X7000Y1000D01*
G54D23*
G01X7000Y1000D03*
G01X8000Y2050D03*
G54D22*
G01X8000Y2050D02*
G01X12250Y2050D01*
G01X12250Y2050D02*
G01X14250Y4000D01*
G54D23*
G01X8000Y1000D03*
G54D22*
G01X8000Y1000D02*
G01X12250Y1000D01*
G01X12250Y1000D02*
G01X15300Y4050D01*
G01X15300Y4050D02*
G01X15250Y4000D01*
G54D23*
G01X3000Y4000D03*
G54D22*
G01X3000Y4000D02*
G01X7950Y4000D01*
G01X7950Y4000D02*
G01X9000Y5050D01*
G01X9000Y5050D02*
G01X9000Y8000D01*
G54D24*
G01X9000Y8000D03*
G54D23*
G01X9000Y8000D03*
G54D25*
G01X9000Y8000D02*
G01X9000Y5050D01*
G54D23*
G01X9000Y5050D03*
G54D22*
G01X1000Y8000D02*
G01X9000Y8000D01*
G01X14250Y5000D02*
G01X13000Y6250D01*
G01X13000Y6250D02*
G01X13000Y7000D01*
G54D23*
G01X13000Y7000D03*
G54D22*
G01X15250Y5000D02*
G01X15250Y6000D01*
G01X15250Y6000D02*
G01X13550Y7700D01*
G01X13550Y7700D02*
G01X12650Y7700D01*
G01X12650Y7700D02*
G01X11950Y7000D01*
G54D23*
G01X11950Y7000D03*

G04 Draw Text*

G04 ----------------------- Draw Pilot Holes (scratch)*
%LPC*%
G04 draw pilot holes for part H1*
G54D26*
G01X1000Y8000D03*
G01X1000Y7000D03*
G01X1000Y6000D03*
G01X1000Y5000D03*
G01X1000Y4000D03*
G01X1000Y3000D03*
G01X1000Y2000D03*
G01X1000Y1000D03*
G04 draw pilot holes for part U1*
G04 draw pilot holes for part C4*
G04 draw pilot holes for part C1*
G04 draw pilot holes for part C2*
G04 draw pilot holes for part C3*
G04 draw pilot holes for part L1*
G04 draw pilot holes for part R1*
G04 draw pilot holes for part K1*
G01X15250Y4000D03*
G01X14250Y4000D03*
G01X15250Y5000D03*
G01X14250Y5000D03*
G01X16320Y2120D03*
G01X16320Y6860D03*

G04 Draw pilot holes for vias*
G01X3000Y6000D03*
G01X7000Y1000D03*
G01X8000Y2050D03*
G01X8000Y1000D03*
G01X3000Y4000D03*
G01X9000Y8000D03*
G01X9000Y8000D03*
G01X9000Y5050D03*
G01X13000Y7000D03*
G01X11950Y7000D03*
M00*
M02*
