;Holesize 1 =   40.0 PLATED MILS
;Holesize 2 =   90.0 PLATED MILS
;Holesize 3 =   14.0 PLATED MILS
M48
INCH,00.0000
T01C0.040
T02C0.090
T03C0.014
%
G05
G90
T01
X001000Y008000
X001000Y007000
X001000Y006000
X001000Y005000
X001000Y004000
X001000Y003000
X001000Y002000
X001000Y001000
X015250Y004000
X014250Y004000
X015250Y005000
X014250Y005000
X003000Y006000
X007000Y001000
X008000Y002050
X008000Y001000
X003000Y004000
X009000Y008000
X009000Y005050
X013000Y007000
X011950Y007000
T02
X016320Y002120
X016320Y006860
T03
X009000Y008000
M30
