G04 FreePCB version 1.359*
G04 E:\Projects\USBToSerial\PCB\CAM\top_silk.grb*
G04 top silk layer *
G04 Scale: 100 percent, Rotated: No, Reflected: No *
%FSLAX24Y24*%
%MOIN*%
%LN top silk *%
G04 Rounded Rectangle Macro, params: W/2, H/2, R *
%AMRNDREC*
21,1,$1+$1,$2+$2-$3-$3,0,0,0*
21,1,$1+$1-$3-$3,$2+$2,0,0,0*
1,1,$3+$3,$1-$3,$2-$3*
1,1,$3+$3,$3-$1,$2-$3*
1,1,$3+$3,$1-$3,$3-$2*
1,1,$3+$3,$3-$1,$3-$2*%
G04 Rectangular Thermal Macro, params: W/2, H/2, T/2 *
%AMRECTHERM*
$4=$3/2*
21,1,$1-$3,$2-$3,0-$1/2-$4,0-$2/2-$4,0*
21,1,$1-$3,$2-$3,0-$1/2-$4,$2/2+$4,0*
21,1,$1-$3,$2-$3,$1/2+$4,0-$2/2-$4,0*
21,1,$1-$3,$2-$3,$1/2+$4,$2/2+$4,0*%
%ADD10C,0.005000*%
%ADD11C,0.007000*%
%ADD12C,0.010000*%
G90*
G70D02*

G04 Step and Repeat for panelization *

G04 ----------------------- Draw board outline (positive)*
%LPD*%
G54D10*
G01X0Y0D02*
G01X0Y0D01*
G04 end of side 1*
G01X0Y9000D01*
G04 end of side 2*
G01X19000Y9000D01*
G04 end of side 3*
G01X19000Y0D01*
G04 end of side 4*
G01X0Y0D01*

G04 -------------- Draw Parts, Pads, Traces, Vias and Text (positive)*
%LPD*%
G04 Draw part H1*
G04 draw part outline for part H1*
G54D11*
G01X1500Y8500D02*
G01X1500Y500D01*
G01X1500Y500D02*
G01X500Y500D01*
G01X500Y500D02*
G01X500Y8500D01*
G01X500Y8500D02*
G01X1500Y8500D01*
G04 draw reference designator for part H1*
G01X2822Y7700D02*
G01X3300Y7700D01*
G01X2822Y8018D02*
G01X3300Y8018D01*
G01X3050Y8018D02*
G01X3050Y7700D01*
G01X2890Y8245D02*
G01X2913Y8200D01*
G01X2822Y8313D02*
G01X2890Y8245D01*
G01X2822Y8313D02*
G01X3300Y8313D01*
G04 Draw part U1*
G04 draw part outline for part U1*
G01X4956Y6351D02*
G01X4956Y6577D01*
G01X4956Y6577D02*
G01X7043Y6577D01*
G01X7043Y6577D02*
G01X7043Y6351D01*
G01X4956Y2648D02*
G01X4956Y2422D01*
G01X4956Y2422D02*
G01X7043Y2422D01*
G01X7043Y2422D02*
G01X7043Y2648D01*
G54D12*
G01X4706Y6527D02*
G01X4706Y6531D01*
G01X4707Y6536D01*
G01X4708Y6540D01*
G01X4709Y6544D01*
G01X4711Y6548D01*
G01X4713Y6552D01*
G01X4715Y6556D01*
G01X4718Y6559D01*
G01X4721Y6562D01*
G01X4724Y6565D01*
G01X4728Y6568D01*
G01X4731Y6570D01*
G01X4735Y6572D01*
G01X4739Y6574D01*
G01X4743Y6575D01*
G01X4748Y6576D01*
G01X4752Y6577D01*
G01X4756Y6577D01*
G01X4756Y6577D02*
G01X4761Y6577D01*
G01X4765Y6576D01*
G01X4769Y6575D01*
G01X4773Y6574D01*
G01X4777Y6572D01*
G01X4781Y6570D01*
G01X4785Y6568D01*
G01X4788Y6565D01*
G01X4792Y6562D01*
G01X4794Y6559D01*
G01X4797Y6556D01*
G01X4799Y6552D01*
G01X4802Y6548D01*
G01X4803Y6544D01*
G01X4804Y6540D01*
G01X4805Y6536D01*
G01X4806Y6531D01*
G01X4806Y6527D01*
G01X4806Y6527D02*
G01X4806Y6523D01*
G01X4805Y6518D01*
G01X4804Y6514D01*
G01X4803Y6510D01*
G01X4802Y6506D01*
G01X4799Y6502D01*
G01X4797Y6498D01*
G01X4794Y6495D01*
G01X4792Y6492D01*
G01X4788Y6489D01*
G01X4785Y6486D01*
G01X4781Y6484D01*
G01X4777Y6482D01*
G01X4773Y6480D01*
G01X4769Y6479D01*
G01X4765Y6478D01*
G01X4761Y6477D01*
G01X4756Y6477D01*
G01X4756Y6477D02*
G01X4752Y6477D01*
G01X4748Y6478D01*
G01X4743Y6479D01*
G01X4739Y6480D01*
G01X4735Y6482D01*
G01X4731Y6484D01*
G01X4728Y6486D01*
G01X4724Y6489D01*
G01X4721Y6492D01*
G01X4718Y6495D01*
G01X4715Y6498D01*
G01X4713Y6502D01*
G01X4711Y6506D01*
G01X4709Y6510D01*
G01X4708Y6514D01*
G01X4707Y6518D01*
G01X4706Y6523D01*
G01X4706Y6527D01*
G04 draw reference designator for part U1*
G54D11*
G01X5772Y7000D02*
G01X6113Y7000D01*
G01X6113Y7000D02*
G01X6181Y7022D01*
G01X6181Y7022D02*
G01X6227Y7068D01*
G01X6227Y7068D02*
G01X6250Y7136D01*
G01X6250Y7181D02*
G01X6250Y7136D01*
G01X6227Y7250D02*
G01X6250Y7181D01*
G01X6181Y7295D02*
G01X6227Y7250D01*
G01X6113Y7318D02*
G01X6181Y7295D01*
G01X5772Y7318D02*
G01X6113Y7318D01*
G01X5840Y7545D02*
G01X5863Y7500D01*
G01X5772Y7613D02*
G01X5840Y7545D01*
G01X5772Y7613D02*
G01X6250Y7613D01*
G04 Draw part C4*
G04 draw part outline for part C4*
G01X8816Y3261D02*
G01X10785Y3261D01*
G01X10785Y3261D02*
G01X10785Y2238D01*
G01X10785Y2238D02*
G01X8816Y2238D01*
G01X8816Y2238D02*
G01X8816Y3261D01*
G04 draw reference designator for part C4*
G01X9718Y2009D02*
G01X9740Y1963D01*
G01X9672Y2054D02*
G01X9718Y2009D01*
G01X9627Y2077D02*
G01X9672Y2054D01*
G01X9536Y2077D02*
G01X9627Y2077D01*
G01X9536Y2077D02*
G01X9490Y2054D01*
G01X9490Y2054D02*
G01X9445Y2009D01*
G01X9445Y2009D02*
G01X9422Y1963D01*
G01X9422Y1963D02*
G01X9400Y1895D01*
G01X9400Y1895D02*
G01X9400Y1781D01*
G01X9400Y1781D02*
G01X9422Y1713D01*
G01X9422Y1713D02*
G01X9445Y1668D01*
G01X9445Y1668D02*
G01X9490Y1622D01*
G01X9490Y1622D02*
G01X9536Y1600D01*
G01X9627Y1600D02*
G01X9536Y1600D01*
G01X9672Y1622D02*
G01X9627Y1600D01*
G01X9718Y1668D02*
G01X9672Y1622D01*
G01X9740Y1713D02*
G01X9718Y1668D01*
G01X10150Y2077D02*
G01X9922Y1759D01*
G01X10263Y1759D02*
G01X9922Y1759D01*
G01X10150Y2077D02*
G01X10150Y1600D01*
G04 Draw part C1*
G04 draw part outline for part C1*
G01X12238Y3566D02*
G01X12238Y5535D01*
G01X12238Y5535D02*
G01X13261Y5535D01*
G01X13261Y5535D02*
G01X13261Y3566D01*
G01X13261Y3566D02*
G01X12238Y3566D01*
G04 draw reference designator for part C1*
G01X12590Y6568D02*
G01X12636Y6590D01*
G01X12545Y6522D02*
G01X12590Y6568D01*
G01X12522Y6477D02*
G01X12545Y6522D01*
G01X12522Y6386D02*
G01X12522Y6477D01*
G01X12522Y6386D02*
G01X12545Y6340D01*
G01X12545Y6340D02*
G01X12590Y6295D01*
G01X12590Y6295D02*
G01X12636Y6272D01*
G01X12636Y6272D02*
G01X12704Y6250D01*
G01X12704Y6250D02*
G01X12818Y6250D01*
G01X12818Y6250D02*
G01X12886Y6272D01*
G01X12886Y6272D02*
G01X12931Y6295D01*
G01X12931Y6295D02*
G01X12977Y6340D01*
G01X12977Y6340D02*
G01X13000Y6386D01*
G01X13000Y6477D02*
G01X13000Y6386D01*
G01X12977Y6522D02*
G01X13000Y6477D01*
G01X12931Y6568D02*
G01X12977Y6522D01*
G01X12886Y6590D02*
G01X12931Y6568D01*
G01X12590Y6818D02*
G01X12613Y6772D01*
G01X12522Y6886D02*
G01X12590Y6818D01*
G01X12522Y6886D02*
G01X13000Y6886D01*
G04 Draw part C2*
G04 draw part outline for part C2*
G01X9738Y3566D02*
G01X9738Y5535D01*
G01X9738Y5535D02*
G01X10761Y5535D01*
G01X10761Y5535D02*
G01X10761Y3566D01*
G01X10761Y3566D02*
G01X9738Y3566D01*
G04 draw reference designator for part C2*
G01X10090Y6568D02*
G01X10136Y6590D01*
G01X10045Y6522D02*
G01X10090Y6568D01*
G01X10022Y6477D02*
G01X10045Y6522D01*
G01X10022Y6386D02*
G01X10022Y6477D01*
G01X10022Y6386D02*
G01X10045Y6340D01*
G01X10045Y6340D02*
G01X10090Y6295D01*
G01X10090Y6295D02*
G01X10136Y6272D01*
G01X10136Y6272D02*
G01X10204Y6250D01*
G01X10204Y6250D02*
G01X10318Y6250D01*
G01X10318Y6250D02*
G01X10386Y6272D01*
G01X10386Y6272D02*
G01X10431Y6295D01*
G01X10431Y6295D02*
G01X10477Y6340D01*
G01X10477Y6340D02*
G01X10500Y6386D01*
G01X10500Y6477D02*
G01X10500Y6386D01*
G01X10477Y6522D02*
G01X10500Y6477D01*
G01X10431Y6568D02*
G01X10477Y6522D01*
G01X10386Y6590D02*
G01X10431Y6568D01*
G01X10113Y6795D02*
G01X10136Y6795D01*
G01X10068Y6818D02*
G01X10113Y6795D01*
G01X10045Y6840D02*
G01X10068Y6818D01*
G01X10022Y6886D02*
G01X10045Y6840D01*
G01X10022Y6977D02*
G01X10022Y6886D01*
G01X10022Y6977D02*
G01X10045Y7022D01*
G01X10045Y7022D02*
G01X10068Y7045D01*
G01X10068Y7045D02*
G01X10113Y7068D01*
G01X10113Y7068D02*
G01X10159Y7068D01*
G01X10159Y7068D02*
G01X10204Y7045D01*
G01X10204Y7045D02*
G01X10272Y7000D01*
G01X10272Y7000D02*
G01X10500Y6772D01*
G01X10500Y7090D02*
G01X10500Y6772D01*
G04 Draw part C3*
G04 draw part outline for part C3*
G01X10988Y3566D02*
G01X10988Y5535D01*
G01X10988Y5535D02*
G01X12011Y5535D01*
G01X12011Y5535D02*
G01X12011Y3566D01*
G01X12011Y3566D02*
G01X10988Y3566D01*
G04 draw reference designator for part C3*
G01X11340Y6568D02*
G01X11386Y6590D01*
G01X11295Y6522D02*
G01X11340Y6568D01*
G01X11272Y6477D02*
G01X11295Y6522D01*
G01X11272Y6386D02*
G01X11272Y6477D01*
G01X11272Y6386D02*
G01X11295Y6340D01*
G01X11295Y6340D02*
G01X11340Y6295D01*
G01X11340Y6295D02*
G01X11386Y6272D01*
G01X11386Y6272D02*
G01X11454Y6250D01*
G01X11454Y6250D02*
G01X11568Y6250D01*
G01X11568Y6250D02*
G01X11636Y6272D01*
G01X11636Y6272D02*
G01X11681Y6295D01*
G01X11681Y6295D02*
G01X11727Y6340D01*
G01X11727Y6340D02*
G01X11750Y6386D01*
G01X11750Y6477D02*
G01X11750Y6386D01*
G01X11727Y6522D02*
G01X11750Y6477D01*
G01X11681Y6568D02*
G01X11727Y6522D01*
G01X11636Y6590D02*
G01X11681Y6568D01*
G01X11272Y7068D02*
G01X11272Y6818D01*
G01X11272Y7068D02*
G01X11454Y6931D01*
G01X11454Y7000D02*
G01X11454Y6931D01*
G01X11454Y7000D02*
G01X11477Y7045D01*
G01X11477Y7045D02*
G01X11500Y7068D01*
G01X11500Y7068D02*
G01X11568Y7090D01*
G01X11568Y7090D02*
G01X11613Y7090D01*
G01X11613Y7090D02*
G01X11681Y7068D01*
G01X11681Y7068D02*
G01X11727Y7022D01*
G01X11727Y7022D02*
G01X11750Y6954D01*
G01X11750Y6886D02*
G01X11750Y6954D01*
G01X11727Y6818D02*
G01X11750Y6886D01*
G01X11704Y6795D02*
G01X11727Y6818D01*
G01X11659Y6772D02*
G01X11704Y6795D01*
G04 Draw part L1*
G04 draw part outline for part L1*
G01X12874Y2316D02*
G01X11377Y2316D01*
G01X11377Y2316D02*
G01X11377Y3183D01*
G01X11377Y3183D02*
G01X12874Y3183D01*
G01X12874Y3183D02*
G01X12874Y2316D01*
G04 draw reference designator for part L1*
G01X11800Y2077D02*
G01X11800Y1600D01*
G01X12072Y1600D02*
G01X11800Y1600D01*
G01X12300Y2009D02*
G01X12254Y1986D01*
G01X12368Y2077D02*
G01X12300Y2009D01*
G01X12368Y2077D02*
G01X12368Y1600D01*
G04 Draw part R1*
G04 draw part outline for part R1*
G01X2566Y1566D02*
G01X2566Y3535D01*
G01X2566Y3535D02*
G01X3433Y3535D01*
G01X3433Y3535D02*
G01X3433Y1566D01*
G01X3433Y1566D02*
G01X2566Y1566D01*
G04 draw reference designator for part R1*
G01X2772Y750D02*
G01X3250Y750D01*
G01X2772Y954D02*
G01X2772Y750D01*
G01X2772Y954D02*
G01X2795Y1022D01*
G01X2795Y1022D02*
G01X2818Y1045D01*
G01X2818Y1045D02*
G01X2863Y1068D01*
G01X2863Y1068D02*
G01X2909Y1068D01*
G01X2909Y1068D02*
G01X2954Y1045D01*
G01X2954Y1045D02*
G01X2977Y1022D01*
G01X2977Y1022D02*
G01X3000Y954D01*
G01X3000Y750D02*
G01X3000Y954D01*
G01X3000Y909D02*
G01X3250Y1068D01*
G01X2840Y1295D02*
G01X2863Y1250D01*
G01X2772Y1363D02*
G01X2840Y1295D01*
G01X2772Y1363D02*
G01X3250Y1363D01*
G04 Draw part K1*
G04 draw part outline for part K1*
G54D12*
G01X15550Y2100D02*
G01X13650Y2100D01*
G01X13650Y2100D02*
G01X13650Y6900D01*
G01X13650Y6900D02*
G01X15550Y6900D01*
G01X17150Y2100D02*
G01X19350Y2100D01*
G01X17150Y6900D02*
G01X19350Y6900D01*
G04 draw reference designator for part K1*
G54D10*
G01X13900Y2877D02*
G01X13900Y2400D01*
G01X14218Y2877D02*
G01X13900Y2559D01*
G01X14013Y2672D02*
G01X14218Y2400D01*
G01X14445Y2809D02*
G01X14400Y2786D01*
G01X14513Y2877D02*
G01X14445Y2809D01*
G01X14513Y2877D02*
G01X14513Y2400D01*

G04 Draw traces*

G04 Draw Text*
G01X1804Y8109D02*
G01X1804Y7700D01*
G01X1600Y7904D02*
G01X2009Y7904D01*
G01X2463Y8177D02*
G01X2236Y8177D01*
G01X2236Y8177D02*
G01X2213Y7972D01*
G01X2213Y7972D02*
G01X2236Y7995D01*
G01X2236Y7995D02*
G01X2304Y8018D01*
G01X2304Y8018D02*
G01X2372Y8018D01*
G01X2372Y8018D02*
G01X2440Y7995D01*
G01X2440Y7995D02*
G01X2486Y7950D01*
G01X2486Y7950D02*
G01X2509Y7881D01*
G01X2509Y7881D02*
G01X2509Y7836D01*
G01X2509Y7836D02*
G01X2486Y7768D01*
G01X2486Y7768D02*
G01X2440Y7722D01*
G01X2440Y7722D02*
G01X2372Y7700D01*
G01X2372Y7700D02*
G01X2304Y7700D01*
G01X2304Y7700D02*
G01X2236Y7722D01*
G01X2236Y7722D02*
G01X2213Y7745D01*
G01X2213Y7745D02*
G01X2190Y7790D01*
G01X1645Y7177D02*
G01X1895Y7177D01*
G01X1895Y7177D02*
G01X1759Y6995D01*
G01X1759Y6995D02*
G01X1827Y6995D01*
G01X1827Y6995D02*
G01X1872Y6972D01*
G01X1872Y6972D02*
G01X1895Y6950D01*
G01X1895Y6950D02*
G01X1918Y6881D01*
G01X1918Y6881D02*
G01X1918Y6836D01*
G01X1918Y6836D02*
G01X1895Y6768D01*
G01X1895Y6768D02*
G01X1850Y6722D01*
G01X1850Y6722D02*
G01X1781Y6700D01*
G01X1781Y6700D02*
G01X1713Y6700D01*
G01X1713Y6700D02*
G01X1645Y6722D01*
G01X1645Y6722D02*
G01X1622Y6745D01*
G01X1622Y6745D02*
G01X1600Y6790D01*
G01X2100Y7177D02*
G01X2281Y6700D01*
G01X2463Y7177D02*
G01X2281Y6700D01*
G01X2690Y7177D02*
G01X2940Y7177D01*
G01X2940Y7177D02*
G01X2804Y6995D01*
G01X2804Y6995D02*
G01X2872Y6995D01*
G01X2872Y6995D02*
G01X2918Y6972D01*
G01X2918Y6972D02*
G01X2940Y6950D01*
G01X2940Y6950D02*
G01X2963Y6881D01*
G01X2963Y6881D02*
G01X2963Y6836D01*
G01X2963Y6836D02*
G01X2940Y6768D01*
G01X2940Y6768D02*
G01X2895Y6722D01*
G01X2895Y6722D02*
G01X2827Y6700D01*
G01X2827Y6700D02*
G01X2759Y6700D01*
G01X2759Y6700D02*
G01X2690Y6722D01*
G01X2690Y6722D02*
G01X2668Y6745D01*
G01X2668Y6745D02*
G01X2645Y6790D01*
G01X1759Y6277D02*
G01X1759Y5800D01*
G01X1600Y6277D02*
G01X1918Y6277D01*
G01X2100Y6277D02*
G01X2418Y5800D01*
G01X2418Y6277D02*
G01X2100Y5800D01*
G01X1600Y5177D02*
G01X1600Y4700D01*
G01X1600Y5177D02*
G01X1804Y5177D01*
G01X1804Y5177D02*
G01X1872Y5154D01*
G01X1872Y5154D02*
G01X1895Y5131D01*
G01X1895Y5131D02*
G01X1918Y5086D01*
G01X1918Y5086D02*
G01X1918Y5040D01*
G01X1918Y5040D02*
G01X1895Y4995D01*
G01X1895Y4995D02*
G01X1872Y4972D01*
G01X1872Y4972D02*
G01X1804Y4950D01*
G01X1804Y4950D02*
G01X1600Y4950D01*
G01X1759Y4950D02*
G01X1918Y4700D01*
G01X2100Y5177D02*
G01X2418Y4700D01*
G01X2418Y5177D02*
G01X2100Y4700D01*
G01X1940Y1163D02*
G01X1918Y1209D01*
G01X1918Y1209D02*
G01X1872Y1254D01*
G01X1872Y1254D02*
G01X1827Y1277D01*
G01X1827Y1277D02*
G01X1736Y1277D01*
G01X1736Y1277D02*
G01X1690Y1254D01*
G01X1690Y1254D02*
G01X1645Y1209D01*
G01X1645Y1209D02*
G01X1622Y1163D01*
G01X1622Y1163D02*
G01X1600Y1095D01*
G01X1600Y1095D02*
G01X1600Y981D01*
G01X1600Y981D02*
G01X1622Y913D01*
G01X1622Y913D02*
G01X1645Y868D01*
G01X1645Y868D02*
G01X1690Y822D01*
G01X1690Y822D02*
G01X1736Y800D01*
G01X1736Y800D02*
G01X1827Y800D01*
G01X1827Y800D02*
G01X1872Y822D01*
G01X1872Y822D02*
G01X1918Y868D01*
G01X1918Y868D02*
G01X1940Y913D01*
G01X1940Y913D02*
G01X1940Y981D01*
G01X1827Y981D02*
G01X1940Y981D01*
G01X1600Y2277D02*
G01X1600Y1800D01*
G01X1600Y2277D02*
G01X1804Y2277D01*
G01X1804Y2277D02*
G01X1872Y2254D01*
G01X1872Y2254D02*
G01X1895Y2231D01*
G01X1895Y2231D02*
G01X1918Y2186D01*
G01X1918Y2186D02*
G01X1918Y2118D01*
G01X1918Y2118D02*
G01X1895Y2072D01*
G01X1895Y2072D02*
G01X1872Y2050D01*
G01X1872Y2050D02*
G01X1804Y2027D01*
G01X1804Y2027D02*
G01X1600Y2027D01*
G01X2100Y2277D02*
G01X2100Y1800D01*
G01X2100Y2277D02*
G01X2395Y2277D01*
G01X2100Y2050D02*
G01X2281Y2050D01*
G01X2100Y1800D02*
G01X2395Y1800D01*
G01X1600Y4177D02*
G01X1600Y3700D01*
G01X1600Y4177D02*
G01X1804Y4177D01*
G01X1804Y4177D02*
G01X1872Y4154D01*
G01X1872Y4154D02*
G01X1895Y4131D01*
G01X1895Y4131D02*
G01X1918Y4086D01*
G01X1918Y4086D02*
G01X1918Y4040D01*
G01X1918Y4040D02*
G01X1895Y3995D01*
G01X1895Y3995D02*
G01X1872Y3972D01*
G01X1872Y3972D02*
G01X1804Y3950D01*
G01X1804Y3950D02*
G01X1600Y3950D01*
G01X1759Y3950D02*
G01X1918Y3700D01*
G01X2259Y4177D02*
G01X2259Y3700D01*
G01X2100Y4177D02*
G01X2418Y4177D01*
G01X1940Y3063D02*
G01X1918Y3109D01*
G01X1918Y3109D02*
G01X1872Y3154D01*
G01X1872Y3154D02*
G01X1827Y3177D01*
G01X1827Y3177D02*
G01X1736Y3177D01*
G01X1736Y3177D02*
G01X1690Y3154D01*
G01X1690Y3154D02*
G01X1645Y3109D01*
G01X1645Y3109D02*
G01X1622Y3063D01*
G01X1622Y3063D02*
G01X1600Y2995D01*
G01X1600Y2995D02*
G01X1600Y2881D01*
G01X1600Y2881D02*
G01X1622Y2813D01*
G01X1622Y2813D02*
G01X1645Y2768D01*
G01X1645Y2768D02*
G01X1690Y2722D01*
G01X1690Y2722D02*
G01X1736Y2700D01*
G01X1736Y2700D02*
G01X1827Y2700D01*
G01X1827Y2700D02*
G01X1872Y2722D01*
G01X1872Y2722D02*
G01X1918Y2768D01*
G01X1918Y2768D02*
G01X1940Y2813D01*
G01X2281Y3177D02*
G01X2281Y2700D01*
G01X2122Y3177D02*
G01X2440Y3177D01*
G01X11290Y8077D02*
G01X11313Y8054D01*
G01X11313Y8054D02*
G01X11336Y8077D01*
G01X11336Y8077D02*
G01X11313Y8100D01*
G01X11313Y8100D02*
G01X11290Y8077D01*
G01X11313Y7918D02*
G01X11313Y7531D01*
G01X11313Y7531D02*
G01X11290Y7463D01*
G01X11290Y7463D02*
G01X11245Y7440D01*
G01X11245Y7440D02*
G01X11200Y7440D01*
G01X11631Y7918D02*
G01X11586Y7895D01*
G01X11586Y7895D02*
G01X11540Y7850D01*
G01X11540Y7850D02*
G01X11518Y7781D01*
G01X11518Y7781D02*
G01X11518Y7736D01*
G01X11518Y7736D02*
G01X11540Y7668D01*
G01X11540Y7668D02*
G01X11586Y7622D01*
G01X11586Y7622D02*
G01X11631Y7600D01*
G01X11631Y7600D02*
G01X11699Y7600D01*
G01X11699Y7600D02*
G01X11745Y7622D01*
G01X11745Y7622D02*
G01X11790Y7668D01*
G01X11790Y7668D02*
G01X11813Y7736D01*
G01X11813Y7736D02*
G01X11813Y7781D01*
G01X11813Y7781D02*
G01X11790Y7850D01*
G01X11790Y7850D02*
G01X11745Y7895D01*
G01X11745Y7895D02*
G01X11699Y7918D01*
G01X11699Y7918D02*
G01X11631Y7918D01*
G01X11995Y7918D02*
G01X11995Y7600D01*
G01X11995Y7827D02*
G01X12063Y7895D01*
G01X12063Y7895D02*
G01X12109Y7918D01*
G01X12109Y7918D02*
G01X12177Y7918D01*
G01X12177Y7918D02*
G01X12222Y7895D01*
G01X12222Y7895D02*
G01X12245Y7827D01*
G01X12245Y7827D02*
G01X12245Y7600D01*
G01X12427Y7918D02*
G01X12518Y7600D01*
G01X12609Y7918D02*
G01X12518Y7600D01*
G01X12609Y7918D02*
G01X12699Y7600D01*
G01X12790Y7918D02*
G01X12699Y7600D01*
G01X13109Y8077D02*
G01X13040Y8054D01*
G01X13040Y8054D02*
G01X12995Y7986D01*
G01X12995Y7986D02*
G01X12972Y7872D01*
G01X12972Y7872D02*
G01X12972Y7804D01*
G01X12972Y7804D02*
G01X12995Y7690D01*
G01X12995Y7690D02*
G01X13040Y7622D01*
G01X13040Y7622D02*
G01X13109Y7600D01*
G01X13109Y7600D02*
G01X13154Y7600D01*
G01X13154Y7600D02*
G01X13222Y7622D01*
G01X13222Y7622D02*
G01X13268Y7690D01*
G01X13268Y7690D02*
G01X13290Y7804D01*
G01X13290Y7804D02*
G01X13290Y7872D01*
G01X13290Y7872D02*
G01X13268Y7986D01*
G01X13268Y7986D02*
G01X13222Y8054D01*
G01X13222Y8054D02*
G01X13154Y8077D01*
G01X13154Y8077D02*
G01X13109Y8077D01*
G01X13495Y7963D02*
G01X13495Y7986D01*
G01X13495Y7986D02*
G01X13518Y8031D01*
G01X13518Y8031D02*
G01X13540Y8054D01*
G01X13540Y8054D02*
G01X13586Y8077D01*
G01X13586Y8077D02*
G01X13677Y8077D01*
G01X13677Y8077D02*
G01X13722Y8054D01*
G01X13722Y8054D02*
G01X13745Y8031D01*
G01X13745Y8031D02*
G01X13768Y7986D01*
G01X13768Y7986D02*
G01X13768Y7940D01*
G01X13768Y7940D02*
G01X13745Y7895D01*
G01X13745Y7895D02*
G01X13699Y7827D01*
G01X13699Y7827D02*
G01X13472Y7600D01*
G01X13472Y7600D02*
G01X13790Y7600D01*
G01X13995Y7963D02*
G01X13995Y7986D01*
G01X13995Y7986D02*
G01X14018Y8031D01*
G01X14018Y8031D02*
G01X14040Y8054D01*
G01X14040Y8054D02*
G01X14086Y8077D01*
G01X14086Y8077D02*
G01X14177Y8077D01*
G01X14177Y8077D02*
G01X14222Y8054D01*
G01X14222Y8054D02*
G01X14245Y8031D01*
G01X14245Y8031D02*
G01X14268Y7986D01*
G01X14268Y7986D02*
G01X14268Y7940D01*
G01X14268Y7940D02*
G01X14245Y7895D01*
G01X14245Y7895D02*
G01X14199Y7827D01*
G01X14199Y7827D02*
G01X13972Y7600D01*
G01X13972Y7600D02*
G01X14290Y7600D01*
G01X14699Y8077D02*
G01X14472Y7759D01*
G01X14472Y7759D02*
G01X14813Y7759D01*
G01X14699Y8077D02*
G01X14699Y7600D01*
G01X15336Y7895D02*
G01X15313Y7940D01*
G01X15313Y7940D02*
G01X15268Y7963D01*
G01X15268Y7963D02*
G01X15199Y7963D01*
G01X15199Y7963D02*
G01X15154Y7940D01*
G01X15154Y7940D02*
G01X15131Y7918D01*
G01X15131Y7918D02*
G01X15109Y7850D01*
G01X15109Y7850D02*
G01X15109Y7781D01*
G01X15109Y7781D02*
G01X15131Y7736D01*
G01X15131Y7736D02*
G01X15177Y7713D01*
G01X15177Y7713D02*
G01X15245Y7713D01*
G01X15245Y7713D02*
G01X15290Y7736D01*
G01X15290Y7736D02*
G01X15313Y7781D01*
G01X15199Y7963D02*
G01X15154Y7918D01*
G01X15154Y7918D02*
G01X15131Y7850D01*
G01X15131Y7850D02*
G01X15131Y7781D01*
G01X15131Y7781D02*
G01X15154Y7736D01*
G01X15154Y7736D02*
G01X15177Y7713D01*
G01X15336Y7963D02*
G01X15313Y7781D01*
G01X15313Y7781D02*
G01X15313Y7736D01*
G01X15313Y7736D02*
G01X15359Y7713D01*
G01X15359Y7713D02*
G01X15404Y7713D01*
G01X15404Y7713D02*
G01X15449Y7759D01*
G01X15449Y7759D02*
G01X15472Y7827D01*
G01X15472Y7827D02*
G01X15472Y7872D01*
G01X15472Y7872D02*
G01X15449Y7940D01*
G01X15449Y7940D02*
G01X15427Y7986D01*
G01X15427Y7986D02*
G01X15381Y8031D01*
G01X15381Y8031D02*
G01X15336Y8054D01*
G01X15336Y8054D02*
G01X15268Y8077D01*
G01X15268Y8077D02*
G01X15199Y8077D01*
G01X15199Y8077D02*
G01X15131Y8054D01*
G01X15131Y8054D02*
G01X15086Y8031D01*
G01X15086Y8031D02*
G01X15040Y7986D01*
G01X15040Y7986D02*
G01X15018Y7940D01*
G01X15018Y7940D02*
G01X14995Y7872D01*
G01X14995Y7872D02*
G01X14995Y7804D01*
G01X14995Y7804D02*
G01X15018Y7736D01*
G01X15018Y7736D02*
G01X15040Y7690D01*
G01X15040Y7690D02*
G01X15086Y7645D01*
G01X15086Y7645D02*
G01X15131Y7622D01*
G01X15131Y7622D02*
G01X15199Y7600D01*
G01X15199Y7600D02*
G01X15268Y7600D01*
G01X15268Y7600D02*
G01X15336Y7622D01*
G01X15336Y7622D02*
G01X15381Y7645D01*
G01X15381Y7645D02*
G01X15404Y7668D01*
G01X15359Y7963D02*
G01X15336Y7781D01*
G01X15336Y7781D02*
G01X15336Y7736D01*
G01X15336Y7736D02*
G01X15359Y7713D01*
G01X15927Y7918D02*
G01X15927Y7600D01*
G01X15927Y7850D02*
G01X15881Y7895D01*
G01X15881Y7895D02*
G01X15836Y7918D01*
G01X15836Y7918D02*
G01X15768Y7918D01*
G01X15768Y7918D02*
G01X15722Y7895D01*
G01X15722Y7895D02*
G01X15677Y7850D01*
G01X15677Y7850D02*
G01X15654Y7781D01*
G01X15654Y7781D02*
G01X15654Y7736D01*
G01X15654Y7736D02*
G01X15677Y7668D01*
G01X15677Y7668D02*
G01X15722Y7622D01*
G01X15722Y7622D02*
G01X15768Y7600D01*
G01X15768Y7600D02*
G01X15836Y7600D01*
G01X15836Y7600D02*
G01X15881Y7622D01*
G01X15881Y7622D02*
G01X15927Y7668D01*
G01X16109Y8077D02*
G01X16131Y8054D01*
G01X16131Y8054D02*
G01X16154Y8077D01*
G01X16154Y8077D02*
G01X16131Y8100D01*
G01X16131Y8100D02*
G01X16109Y8077D01*
G01X16131Y7918D02*
G01X16131Y7600D01*
G01X16336Y7918D02*
G01X16336Y7600D01*
G01X16336Y7827D02*
G01X16404Y7895D01*
G01X16404Y7895D02*
G01X16449Y7918D01*
G01X16449Y7918D02*
G01X16518Y7918D01*
G01X16518Y7918D02*
G01X16563Y7895D01*
G01X16563Y7895D02*
G01X16586Y7827D01*
G01X16586Y7827D02*
G01X16586Y7600D01*
G01X16586Y7827D02*
G01X16654Y7895D01*
G01X16654Y7895D02*
G01X16699Y7918D01*
G01X16699Y7918D02*
G01X16768Y7918D01*
G01X16768Y7918D02*
G01X16813Y7895D01*
G01X16813Y7895D02*
G01X16836Y7827D01*
G01X16836Y7827D02*
G01X16836Y7600D01*
G01X17040Y7645D02*
G01X17018Y7622D01*
G01X17018Y7622D02*
G01X17040Y7600D01*
G01X17040Y7600D02*
G01X17063Y7622D01*
G01X17063Y7622D02*
G01X17040Y7645D01*
G01X17518Y7850D02*
G01X17472Y7895D01*
G01X17472Y7895D02*
G01X17427Y7918D01*
G01X17427Y7918D02*
G01X17359Y7918D01*
G01X17359Y7918D02*
G01X17313Y7895D01*
G01X17313Y7895D02*
G01X17268Y7850D01*
G01X17268Y7850D02*
G01X17245Y7781D01*
G01X17245Y7781D02*
G01X17245Y7736D01*
G01X17245Y7736D02*
G01X17268Y7668D01*
G01X17268Y7668D02*
G01X17313Y7622D01*
G01X17313Y7622D02*
G01X17359Y7600D01*
G01X17359Y7600D02*
G01X17427Y7600D01*
G01X17427Y7600D02*
G01X17472Y7622D01*
G01X17472Y7622D02*
G01X17518Y7668D01*
G01X17813Y7918D02*
G01X17768Y7895D01*
G01X17768Y7895D02*
G01X17722Y7850D01*
G01X17722Y7850D02*
G01X17700Y7781D01*
G01X17700Y7781D02*
G01X17700Y7736D01*
G01X17700Y7736D02*
G01X17722Y7668D01*
G01X17722Y7668D02*
G01X17768Y7622D01*
G01X17768Y7622D02*
G01X17813Y7600D01*
G01X17813Y7600D02*
G01X17881Y7600D01*
G01X17881Y7600D02*
G01X17927Y7622D01*
G01X17927Y7622D02*
G01X17972Y7668D01*
G01X17972Y7668D02*
G01X17995Y7736D01*
G01X17995Y7736D02*
G01X17995Y7781D01*
G01X17995Y7781D02*
G01X17972Y7850D01*
G01X17972Y7850D02*
G01X17927Y7895D01*
G01X17927Y7895D02*
G01X17881Y7918D01*
G01X17881Y7918D02*
G01X17813Y7918D01*
G01X18177Y7918D02*
G01X18177Y7600D01*
G01X18177Y7827D02*
G01X18245Y7895D01*
G01X18245Y7895D02*
G01X18290Y7918D01*
G01X18290Y7918D02*
G01X18359Y7918D01*
G01X18359Y7918D02*
G01X18404Y7895D01*
G01X18404Y7895D02*
G01X18427Y7827D01*
G01X18427Y7827D02*
G01X18427Y7600D01*
G01X18427Y7827D02*
G01X18495Y7895D01*
G01X18495Y7895D02*
G01X18540Y7918D01*
G01X18540Y7918D02*
G01X18609Y7918D01*
G01X18609Y7918D02*
G01X18654Y7895D01*
G01X18654Y7895D02*
G01X18677Y7827D01*
G01X18677Y7827D02*
G01X18677Y7600D01*
G01X9900Y8504D02*
G01X9900Y8595D01*
G01X9900Y8595D02*
G01X9877Y8663D01*
G01X9877Y8663D02*
G01X9831Y8731D01*
G01X9831Y8731D02*
G01X9763Y8777D01*
G01X9763Y8777D02*
G01X9695Y8800D01*
G01X9695Y8800D02*
G01X9604Y8800D01*
G01X9604Y8800D02*
G01X9536Y8777D01*
G01X9536Y8777D02*
G01X9468Y8731D01*
G01X9468Y8731D02*
G01X9422Y8663D01*
G01X9422Y8663D02*
G01X9400Y8595D01*
G01X9400Y8595D02*
G01X9400Y8504D01*
G01X9400Y8504D02*
G01X9422Y8436D01*
G01X9422Y8436D02*
G01X9468Y8368D01*
G01X9468Y8368D02*
G01X9536Y8322D01*
G01X9536Y8322D02*
G01X9604Y8300D01*
G01X9604Y8300D02*
G01X9695Y8300D01*
G01X9695Y8300D02*
G01X9763Y8322D01*
G01X9763Y8322D02*
G01X9831Y8368D01*
G01X9831Y8368D02*
G01X9877Y8436D01*
G01X9877Y8436D02*
G01X9900Y8504D01*
G01X9900Y8504D02*
G01X9900Y8504D01*
G01X9786Y8640D02*
G01X9740Y8686D01*
G01X9740Y8686D02*
G01X9672Y8709D01*
G01X9672Y8709D02*
G01X9627Y8709D01*
G01X9627Y8709D02*
G01X9559Y8686D01*
G01X9559Y8686D02*
G01X9513Y8640D01*
G01X9513Y8640D02*
G01X9490Y8572D01*
G01X9490Y8572D02*
G01X9490Y8527D01*
G01X9490Y8527D02*
G01X9513Y8459D01*
G01X9513Y8459D02*
G01X9559Y8413D01*
G01X9559Y8413D02*
G01X9627Y8390D01*
G01X9627Y8390D02*
G01X9672Y8390D01*
G01X9672Y8390D02*
G01X9740Y8413D01*
G01X9740Y8413D02*
G01X9786Y8459D01*
G01X9786Y8459D02*
G01X9786Y8459D01*
G01X10104Y8663D02*
G01X10104Y8686D01*
G01X10104Y8686D02*
G01X10127Y8731D01*
G01X10127Y8731D02*
G01X10149Y8754D01*
G01X10149Y8754D02*
G01X10195Y8777D01*
G01X10195Y8777D02*
G01X10286Y8777D01*
G01X10286Y8777D02*
G01X10331Y8754D01*
G01X10331Y8754D02*
G01X10354Y8731D01*
G01X10354Y8731D02*
G01X10377Y8686D01*
G01X10377Y8686D02*
G01X10377Y8640D01*
G01X10377Y8640D02*
G01X10354Y8595D01*
G01X10354Y8595D02*
G01X10309Y8527D01*
G01X10309Y8527D02*
G01X10081Y8300D01*
G01X10081Y8300D02*
G01X10399Y8300D01*
G01X10718Y8777D02*
G01X10649Y8754D01*
G01X10649Y8754D02*
G01X10604Y8686D01*
G01X10604Y8686D02*
G01X10581Y8572D01*
G01X10581Y8572D02*
G01X10581Y8504D01*
G01X10581Y8504D02*
G01X10604Y8390D01*
G01X10604Y8390D02*
G01X10649Y8322D01*
G01X10649Y8322D02*
G01X10718Y8300D01*
G01X10718Y8300D02*
G01X10763Y8300D01*
G01X10763Y8300D02*
G01X10831Y8322D01*
G01X10831Y8322D02*
G01X10877Y8390D01*
G01X10877Y8390D02*
G01X10899Y8504D01*
G01X10899Y8504D02*
G01X10899Y8572D01*
G01X10899Y8572D02*
G01X10877Y8686D01*
G01X10877Y8686D02*
G01X10831Y8754D01*
G01X10831Y8754D02*
G01X10763Y8777D01*
G01X10763Y8777D02*
G01X10718Y8777D01*
G01X11081Y8686D02*
G01X11127Y8709D01*
G01X11127Y8709D02*
G01X11195Y8777D01*
G01X11195Y8777D02*
G01X11195Y8300D01*
G01X11399Y8663D02*
G01X11399Y8686D01*
G01X11399Y8686D02*
G01X11422Y8731D01*
G01X11422Y8731D02*
G01X11445Y8754D01*
G01X11445Y8754D02*
G01X11490Y8777D01*
G01X11490Y8777D02*
G01X11581Y8777D01*
G01X11581Y8777D02*
G01X11627Y8754D01*
G01X11627Y8754D02*
G01X11649Y8731D01*
G01X11649Y8731D02*
G01X11672Y8686D01*
G01X11672Y8686D02*
G01X11672Y8640D01*
G01X11672Y8640D02*
G01X11649Y8595D01*
G01X11649Y8595D02*
G01X11604Y8527D01*
G01X11604Y8527D02*
G01X11377Y8300D01*
G01X11377Y8300D02*
G01X11695Y8300D01*
G01X12468Y8777D02*
G01X12468Y8413D01*
G01X12468Y8413D02*
G01X12445Y8345D01*
G01X12445Y8345D02*
G01X12422Y8322D01*
G01X12422Y8322D02*
G01X12377Y8300D01*
G01X12377Y8300D02*
G01X12331Y8300D01*
G01X12331Y8300D02*
G01X12286Y8322D01*
G01X12286Y8322D02*
G01X12263Y8345D01*
G01X12263Y8345D02*
G01X12240Y8413D01*
G01X12240Y8413D02*
G01X12240Y8459D01*
G01X12763Y8618D02*
G01X12718Y8595D01*
G01X12718Y8595D02*
G01X12672Y8550D01*
G01X12672Y8550D02*
G01X12649Y8481D01*
G01X12649Y8481D02*
G01X12649Y8436D01*
G01X12649Y8436D02*
G01X12672Y8368D01*
G01X12672Y8368D02*
G01X12718Y8322D01*
G01X12718Y8322D02*
G01X12763Y8300D01*
G01X12763Y8300D02*
G01X12831Y8300D01*
G01X12831Y8300D02*
G01X12877Y8322D01*
G01X12877Y8322D02*
G01X12922Y8368D01*
G01X12922Y8368D02*
G01X12945Y8436D01*
G01X12945Y8436D02*
G01X12945Y8481D01*
G01X12945Y8481D02*
G01X12922Y8550D01*
G01X12922Y8550D02*
G01X12877Y8595D01*
G01X12877Y8595D02*
G01X12831Y8618D01*
G01X12831Y8618D02*
G01X12763Y8618D01*
G01X13127Y8618D02*
G01X13127Y8300D01*
G01X13127Y8527D02*
G01X13195Y8595D01*
G01X13195Y8595D02*
G01X13240Y8618D01*
G01X13240Y8618D02*
G01X13309Y8618D01*
G01X13309Y8618D02*
G01X13354Y8595D01*
G01X13354Y8595D02*
G01X13377Y8527D01*
G01X13377Y8527D02*
G01X13377Y8300D01*
G01X13831Y8618D02*
G01X13831Y8300D01*
G01X13831Y8550D02*
G01X13786Y8595D01*
G01X13786Y8595D02*
G01X13740Y8618D01*
G01X13740Y8618D02*
G01X13672Y8618D01*
G01X13672Y8618D02*
G01X13627Y8595D01*
G01X13627Y8595D02*
G01X13581Y8550D01*
G01X13581Y8550D02*
G01X13559Y8481D01*
G01X13559Y8481D02*
G01X13559Y8436D01*
G01X13559Y8436D02*
G01X13581Y8368D01*
G01X13581Y8368D02*
G01X13627Y8322D01*
G01X13627Y8322D02*
G01X13672Y8300D01*
G01X13672Y8300D02*
G01X13740Y8300D01*
G01X13740Y8300D02*
G01X13786Y8322D01*
G01X13786Y8322D02*
G01X13831Y8368D01*
G01X14081Y8777D02*
G01X14081Y8390D01*
G01X14081Y8390D02*
G01X14104Y8322D01*
G01X14104Y8322D02*
G01X14149Y8300D01*
G01X14149Y8300D02*
G01X14195Y8300D01*
G01X14013Y8618D02*
G01X14172Y8618D01*
G01X14377Y8777D02*
G01X14377Y8300D01*
G01X14377Y8527D02*
G01X14445Y8595D01*
G01X14445Y8595D02*
G01X14490Y8618D01*
G01X14490Y8618D02*
G01X14559Y8618D01*
G01X14559Y8618D02*
G01X14604Y8595D01*
G01X14604Y8595D02*
G01X14627Y8527D01*
G01X14627Y8527D02*
G01X14627Y8300D01*
G01X15081Y8618D02*
G01X15081Y8300D01*
G01X15081Y8550D02*
G01X15036Y8595D01*
G01X15036Y8595D02*
G01X14990Y8618D01*
G01X14990Y8618D02*
G01X14922Y8618D01*
G01X14922Y8618D02*
G01X14877Y8595D01*
G01X14877Y8595D02*
G01X14831Y8550D01*
G01X14831Y8550D02*
G01X14809Y8481D01*
G01X14809Y8481D02*
G01X14809Y8436D01*
G01X14809Y8436D02*
G01X14831Y8368D01*
G01X14831Y8368D02*
G01X14877Y8322D01*
G01X14877Y8322D02*
G01X14922Y8300D01*
G01X14922Y8300D02*
G01X14990Y8300D01*
G01X14990Y8300D02*
G01X15036Y8322D01*
G01X15036Y8322D02*
G01X15081Y8368D01*
G01X15263Y8618D02*
G01X15263Y8300D01*
G01X15263Y8527D02*
G01X15331Y8595D01*
G01X15331Y8595D02*
G01X15377Y8618D01*
G01X15377Y8618D02*
G01X15445Y8618D01*
G01X15445Y8618D02*
G01X15490Y8595D01*
G01X15490Y8595D02*
G01X15513Y8527D01*
G01X15513Y8527D02*
G01X15513Y8300D01*
G01X16059Y8777D02*
G01X16172Y8300D01*
G01X16286Y8777D02*
G01X16172Y8300D01*
G01X16286Y8777D02*
G01X16399Y8300D01*
G01X16513Y8777D02*
G01X16399Y8300D01*
G01X16695Y8481D02*
G01X16968Y8481D01*
G01X16968Y8481D02*
G01X16968Y8527D01*
G01X16968Y8527D02*
G01X16945Y8572D01*
G01X16945Y8572D02*
G01X16922Y8595D01*
G01X16922Y8595D02*
G01X16877Y8618D01*
G01X16877Y8618D02*
G01X16809Y8618D01*
G01X16809Y8618D02*
G01X16763Y8595D01*
G01X16763Y8595D02*
G01X16718Y8550D01*
G01X16718Y8550D02*
G01X16695Y8481D01*
G01X16695Y8481D02*
G01X16695Y8436D01*
G01X16695Y8436D02*
G01X16718Y8368D01*
G01X16718Y8368D02*
G01X16763Y8322D01*
G01X16763Y8322D02*
G01X16809Y8300D01*
G01X16809Y8300D02*
G01X16877Y8300D01*
G01X16877Y8300D02*
G01X16922Y8322D01*
G01X16922Y8322D02*
G01X16968Y8368D01*
G01X17422Y8618D02*
G01X17422Y8300D01*
G01X17422Y8550D02*
G01X17377Y8595D01*
G01X17377Y8595D02*
G01X17331Y8618D01*
G01X17331Y8618D02*
G01X17263Y8618D01*
G01X17263Y8618D02*
G01X17218Y8595D01*
G01X17218Y8595D02*
G01X17172Y8550D01*
G01X17172Y8550D02*
G01X17150Y8481D01*
G01X17150Y8481D02*
G01X17150Y8436D01*
G01X17150Y8436D02*
G01X17172Y8368D01*
G01X17172Y8368D02*
G01X17218Y8322D01*
G01X17218Y8322D02*
G01X17263Y8300D01*
G01X17263Y8300D02*
G01X17331Y8300D01*
G01X17331Y8300D02*
G01X17377Y8322D01*
G01X17377Y8322D02*
G01X17422Y8368D01*
G01X17604Y8618D02*
G01X17740Y8300D01*
G01X17877Y8618D02*
G01X17740Y8300D01*
G01X18059Y8481D02*
G01X18331Y8481D01*
G01X18331Y8481D02*
G01X18331Y8527D01*
G01X18331Y8527D02*
G01X18309Y8572D01*
G01X18309Y8572D02*
G01X18286Y8595D01*
G01X18286Y8595D02*
G01X18240Y8618D01*
G01X18240Y8618D02*
G01X18172Y8618D01*
G01X18172Y8618D02*
G01X18127Y8595D01*
G01X18127Y8595D02*
G01X18081Y8550D01*
G01X18081Y8550D02*
G01X18059Y8481D01*
G01X18059Y8481D02*
G01X18059Y8436D01*
G01X18059Y8436D02*
G01X18081Y8368D01*
G01X18081Y8368D02*
G01X18127Y8322D01*
G01X18127Y8322D02*
G01X18172Y8300D01*
G01X18172Y8300D02*
G01X18240Y8300D01*
G01X18240Y8300D02*
G01X18286Y8322D01*
G01X18286Y8322D02*
G01X18331Y8368D01*
G01X18513Y8618D02*
G01X18513Y8300D01*
G01X18513Y8481D02*
G01X18536Y8550D01*
G01X18536Y8550D02*
G01X18581Y8595D01*
G01X18581Y8595D02*
G01X18627Y8618D01*
G01X18627Y8618D02*
G01X18695Y8618D01*
G01X10536Y1377D02*
G01X10490Y1354D01*
G01X10490Y1354D02*
G01X10445Y1309D01*
G01X10445Y1309D02*
G01X10422Y1263D01*
G01X10422Y1263D02*
G01X10400Y1195D01*
G01X10400Y1195D02*
G01X10400Y1081D01*
G01X10400Y1081D02*
G01X10422Y1013D01*
G01X10422Y1013D02*
G01X10445Y968D01*
G01X10445Y968D02*
G01X10490Y922D01*
G01X10490Y922D02*
G01X10536Y900D01*
G01X10536Y900D02*
G01X10627Y900D01*
G01X10627Y900D02*
G01X10672Y922D01*
G01X10672Y922D02*
G01X10718Y968D01*
G01X10718Y968D02*
G01X10740Y1013D01*
G01X10740Y1013D02*
G01X10763Y1081D01*
G01X10763Y1081D02*
G01X10763Y1195D01*
G01X10763Y1195D02*
G01X10740Y1263D01*
G01X10740Y1263D02*
G01X10718Y1309D01*
G01X10718Y1309D02*
G01X10672Y1354D01*
G01X10672Y1354D02*
G01X10627Y1377D01*
G01X10627Y1377D02*
G01X10536Y1377D01*
G01X11263Y1309D02*
G01X11218Y1354D01*
G01X11218Y1354D02*
G01X11149Y1377D01*
G01X11149Y1377D02*
G01X11059Y1377D01*
G01X11059Y1377D02*
G01X10990Y1354D01*
G01X10990Y1354D02*
G01X10945Y1309D01*
G01X10945Y1309D02*
G01X10945Y1263D01*
G01X10945Y1263D02*
G01X10968Y1218D01*
G01X10968Y1218D02*
G01X10990Y1195D01*
G01X10990Y1195D02*
G01X11036Y1172D01*
G01X11036Y1172D02*
G01X11172Y1127D01*
G01X11172Y1127D02*
G01X11218Y1104D01*
G01X11218Y1104D02*
G01X11240Y1081D01*
G01X11240Y1081D02*
G01X11263Y1036D01*
G01X11263Y1036D02*
G01X11263Y968D01*
G01X11263Y968D02*
G01X11218Y922D01*
G01X11218Y922D02*
G01X11149Y900D01*
G01X11149Y900D02*
G01X11059Y900D01*
G01X11059Y900D02*
G01X10990Y922D01*
G01X10990Y922D02*
G01X10945Y968D01*
G01X11445Y1377D02*
G01X11445Y900D01*
G01X11763Y1377D02*
G01X11763Y900D01*
G01X11445Y1150D02*
G01X11763Y1150D01*
G01X11945Y1377D02*
G01X12059Y900D01*
G01X12172Y1377D02*
G01X12059Y900D01*
G01X12172Y1377D02*
G01X12286Y900D01*
G01X12399Y1377D02*
G01X12286Y900D01*
G01X13649Y1263D02*
G01X13627Y1309D01*
G01X13627Y1309D02*
G01X13581Y1354D01*
G01X13581Y1354D02*
G01X13536Y1377D01*
G01X13536Y1377D02*
G01X13445Y1377D01*
G01X13445Y1377D02*
G01X13399Y1354D01*
G01X13399Y1354D02*
G01X13354Y1309D01*
G01X13354Y1309D02*
G01X13331Y1263D01*
G01X13331Y1263D02*
G01X13309Y1195D01*
G01X13309Y1195D02*
G01X13309Y1081D01*
G01X13309Y1081D02*
G01X13331Y1013D01*
G01X13331Y1013D02*
G01X13354Y968D01*
G01X13354Y968D02*
G01X13399Y922D01*
G01X13399Y922D02*
G01X13445Y900D01*
G01X13445Y900D02*
G01X13536Y900D01*
G01X13536Y900D02*
G01X13581Y922D01*
G01X13581Y922D02*
G01X13627Y968D01*
G01X13627Y968D02*
G01X13649Y1013D01*
G01X14172Y1263D02*
G01X14149Y1309D01*
G01X14149Y1309D02*
G01X14104Y1354D01*
G01X14104Y1354D02*
G01X14059Y1377D01*
G01X14059Y1377D02*
G01X13968Y1377D01*
G01X13968Y1377D02*
G01X13922Y1354D01*
G01X13922Y1354D02*
G01X13877Y1309D01*
G01X13877Y1309D02*
G01X13854Y1263D01*
G01X13854Y1263D02*
G01X13831Y1195D01*
G01X13831Y1195D02*
G01X13831Y1081D01*
G01X13831Y1081D02*
G01X13854Y1013D01*
G01X13854Y1013D02*
G01X13877Y968D01*
G01X13877Y968D02*
G01X13922Y922D01*
G01X13922Y922D02*
G01X13968Y900D01*
G01X13968Y900D02*
G01X14059Y900D01*
G01X14059Y900D02*
G01X14104Y922D01*
G01X14104Y922D02*
G01X14149Y968D01*
G01X14149Y968D02*
G01X14172Y1013D01*
G01X14718Y1377D02*
G01X14718Y900D01*
G01X14718Y1377D02*
G01X14922Y1377D01*
G01X14922Y1377D02*
G01X14990Y1354D01*
G01X14990Y1354D02*
G01X15013Y1331D01*
G01X15013Y1331D02*
G01X15036Y1286D01*
G01X15036Y1286D02*
G01X15036Y1240D01*
G01X15036Y1240D02*
G01X15013Y1195D01*
G01X15013Y1195D02*
G01X14990Y1172D01*
G01X14990Y1172D02*
G01X14922Y1150D01*
G01X14718Y1150D02*
G01X14922Y1150D01*
G01X14922Y1150D02*
G01X14990Y1127D01*
G01X14990Y1127D02*
G01X15013Y1104D01*
G01X15013Y1104D02*
G01X15036Y1059D01*
G01X15036Y1059D02*
G01X15036Y990D01*
G01X15036Y990D02*
G01X15013Y945D01*
G01X15013Y945D02*
G01X14990Y922D01*
G01X14990Y922D02*
G01X14922Y900D01*
G01X14922Y900D02*
G01X14718Y900D01*
G01X15218Y1377D02*
G01X15399Y1150D01*
G01X15399Y1150D02*
G01X15399Y900D01*
G01X15581Y1377D02*
G01X15399Y1150D01*
G01X15763Y1104D02*
G01X16172Y1104D01*
G01X16672Y1309D02*
G01X16627Y1354D01*
G01X16627Y1354D02*
G01X16559Y1377D01*
G01X16559Y1377D02*
G01X16468Y1377D01*
G01X16468Y1377D02*
G01X16399Y1354D01*
G01X16399Y1354D02*
G01X16354Y1309D01*
G01X16354Y1309D02*
G01X16354Y1263D01*
G01X16354Y1263D02*
G01X16377Y1218D01*
G01X16377Y1218D02*
G01X16399Y1195D01*
G01X16399Y1195D02*
G01X16445Y1172D01*
G01X16445Y1172D02*
G01X16581Y1127D01*
G01X16581Y1127D02*
G01X16627Y1104D01*
G01X16627Y1104D02*
G01X16649Y1081D01*
G01X16649Y1081D02*
G01X16672Y1036D01*
G01X16672Y1036D02*
G01X16672Y968D01*
G01X16672Y968D02*
G01X16627Y922D01*
G01X16627Y922D02*
G01X16559Y900D01*
G01X16559Y900D02*
G01X16468Y900D01*
G01X16468Y900D02*
G01X16399Y922D01*
G01X16399Y922D02*
G01X16354Y968D01*
G01X17036Y1377D02*
G01X16854Y900D01*
G01X17036Y1377D02*
G01X17218Y900D01*
G01X16922Y1059D02*
G01X17149Y1059D01*
G01X17809Y1377D02*
G01X18059Y1377D01*
G01X18059Y1377D02*
G01X17922Y1195D01*
G01X17922Y1195D02*
G01X17990Y1195D01*
G01X17990Y1195D02*
G01X18036Y1172D01*
G01X18036Y1172D02*
G01X18059Y1150D01*
G01X18059Y1150D02*
G01X18081Y1081D01*
G01X18081Y1081D02*
G01X18081Y1036D01*
G01X18081Y1036D02*
G01X18059Y968D01*
G01X18059Y968D02*
G01X18013Y922D01*
G01X18013Y922D02*
G01X17945Y900D01*
G01X17945Y900D02*
G01X17877Y900D01*
G01X17877Y900D02*
G01X17809Y922D01*
G01X17809Y922D02*
G01X17786Y945D01*
G01X17786Y945D02*
G01X17763Y990D01*
G01X18286Y945D02*
G01X18263Y922D01*
G01X18263Y922D02*
G01X18286Y900D01*
G01X18286Y900D02*
G01X18309Y922D01*
G01X18309Y922D02*
G01X18286Y945D01*
G01X18627Y1377D02*
G01X18559Y1354D01*
G01X18559Y1354D02*
G01X18513Y1286D01*
G01X18513Y1286D02*
G01X18490Y1172D01*
G01X18490Y1172D02*
G01X18490Y1104D01*
G01X18490Y1104D02*
G01X18513Y990D01*
G01X18513Y990D02*
G01X18559Y922D01*
G01X18559Y922D02*
G01X18627Y900D01*
G01X18627Y900D02*
G01X18672Y900D01*
G01X18672Y900D02*
G01X18740Y922D01*
G01X18740Y922D02*
G01X18786Y990D01*
G01X18786Y990D02*
G01X18809Y1104D01*
G01X18809Y1104D02*
G01X18809Y1172D01*
G01X18809Y1172D02*
G01X18786Y1286D01*
G01X18786Y1286D02*
G01X18740Y1354D01*
G01X18740Y1354D02*
G01X18672Y1377D01*
G01X18672Y1377D02*
G01X18627Y1377D01*
G01X7700Y677D02*
G01X7700Y200D01*
G01X7700Y427D02*
G01X7768Y495D01*
G01X7768Y495D02*
G01X7813Y518D01*
G01X7813Y518D02*
G01X7881Y518D01*
G01X7881Y518D02*
G01X7927Y495D01*
G01X7927Y495D02*
G01X7950Y427D01*
G01X7950Y427D02*
G01X7950Y200D01*
G01X8199Y677D02*
G01X8199Y290D01*
G01X8199Y290D02*
G01X8222Y222D01*
G01X8222Y222D02*
G01X8268Y200D01*
G01X8268Y200D02*
G01X8313Y200D01*
G01X8131Y518D02*
G01X8290Y518D01*
G01X8563Y677D02*
G01X8563Y290D01*
G01X8563Y290D02*
G01X8586Y222D01*
G01X8586Y222D02*
G01X8631Y200D01*
G01X8631Y200D02*
G01X8677Y200D01*
G01X8495Y518D02*
G01X8654Y518D01*
G01X8859Y518D02*
G01X8859Y40D01*
G01X8859Y450D02*
G01X8904Y495D01*
G01X8904Y495D02*
G01X8949Y518D01*
G01X8949Y518D02*
G01X9018Y518D01*
G01X9018Y518D02*
G01X9063Y495D01*
G01X9063Y495D02*
G01X9109Y450D01*
G01X9109Y450D02*
G01X9131Y381D01*
G01X9131Y381D02*
G01X9131Y336D01*
G01X9131Y336D02*
G01X9109Y268D01*
G01X9109Y268D02*
G01X9063Y222D01*
G01X9063Y222D02*
G01X9018Y200D01*
G01X9018Y200D02*
G01X8949Y200D01*
G01X8949Y200D02*
G01X8904Y222D01*
G01X8904Y222D02*
G01X8859Y268D01*
G01X9336Y518D02*
G01X9313Y495D01*
G01X9313Y495D02*
G01X9336Y472D01*
G01X9336Y472D02*
G01X9359Y495D01*
G01X9359Y495D02*
G01X9336Y518D01*
G01X9336Y245D02*
G01X9313Y222D01*
G01X9313Y222D02*
G01X9336Y200D01*
G01X9336Y200D02*
G01X9359Y222D01*
G01X9359Y222D02*
G01X9336Y245D01*
G01X9949Y768D02*
G01X9540Y40D01*
G01X10540Y768D02*
G01X10131Y40D01*
G01X10813Y677D02*
G01X10836Y654D01*
G01X10836Y654D02*
G01X10859Y677D01*
G01X10859Y677D02*
G01X10836Y700D01*
G01X10836Y700D02*
G01X10813Y677D01*
G01X10836Y518D02*
G01X10836Y131D01*
G01X10836Y131D02*
G01X10813Y63D01*
G01X10813Y63D02*
G01X10768Y40D01*
G01X10768Y40D02*
G01X10722Y40D01*
G01X11154Y518D02*
G01X11109Y495D01*
G01X11109Y495D02*
G01X11063Y450D01*
G01X11063Y450D02*
G01X11040Y381D01*
G01X11040Y381D02*
G01X11040Y336D01*
G01X11040Y336D02*
G01X11063Y268D01*
G01X11063Y268D02*
G01X11109Y222D01*
G01X11109Y222D02*
G01X11154Y200D01*
G01X11154Y200D02*
G01X11222Y200D01*
G01X11222Y200D02*
G01X11268Y222D01*
G01X11268Y222D02*
G01X11313Y268D01*
G01X11313Y268D02*
G01X11336Y336D01*
G01X11336Y336D02*
G01X11336Y381D01*
G01X11336Y381D02*
G01X11313Y450D01*
G01X11313Y450D02*
G01X11268Y495D01*
G01X11268Y495D02*
G01X11222Y518D01*
G01X11222Y518D02*
G01X11154Y518D01*
G01X11518Y518D02*
G01X11518Y200D01*
G01X11518Y427D02*
G01X11586Y495D01*
G01X11586Y495D02*
G01X11631Y518D01*
G01X11631Y518D02*
G01X11699Y518D01*
G01X11699Y518D02*
G01X11745Y495D01*
G01X11745Y495D02*
G01X11768Y427D01*
G01X11768Y427D02*
G01X11768Y200D01*
G01X11949Y518D02*
G01X12040Y200D01*
G01X12131Y518D02*
G01X12040Y200D01*
G01X12131Y518D02*
G01X12222Y200D01*
G01X12313Y518D02*
G01X12222Y200D01*
G01X12631Y677D02*
G01X12563Y654D01*
G01X12563Y654D02*
G01X12518Y586D01*
G01X12518Y586D02*
G01X12495Y472D01*
G01X12495Y472D02*
G01X12495Y404D01*
G01X12495Y404D02*
G01X12518Y290D01*
G01X12518Y290D02*
G01X12563Y222D01*
G01X12563Y222D02*
G01X12631Y200D01*
G01X12631Y200D02*
G01X12677Y200D01*
G01X12677Y200D02*
G01X12745Y222D01*
G01X12745Y222D02*
G01X12790Y290D01*
G01X12790Y290D02*
G01X12813Y404D01*
G01X12813Y404D02*
G01X12813Y472D01*
G01X12813Y472D02*
G01X12790Y586D01*
G01X12790Y586D02*
G01X12745Y654D01*
G01X12745Y654D02*
G01X12677Y677D01*
G01X12677Y677D02*
G01X12631Y677D01*
G01X13018Y563D02*
G01X13018Y586D01*
G01X13018Y586D02*
G01X13040Y631D01*
G01X13040Y631D02*
G01X13063Y654D01*
G01X13063Y654D02*
G01X13109Y677D01*
G01X13109Y677D02*
G01X13199Y677D01*
G01X13199Y677D02*
G01X13245Y654D01*
G01X13245Y654D02*
G01X13268Y631D01*
G01X13268Y631D02*
G01X13290Y586D01*
G01X13290Y586D02*
G01X13290Y540D01*
G01X13290Y540D02*
G01X13268Y495D01*
G01X13268Y495D02*
G01X13222Y427D01*
G01X13222Y427D02*
G01X12995Y200D01*
G01X12995Y200D02*
G01X13313Y200D01*
G01X13518Y563D02*
G01X13518Y586D01*
G01X13518Y586D02*
G01X13540Y631D01*
G01X13540Y631D02*
G01X13563Y654D01*
G01X13563Y654D02*
G01X13609Y677D01*
G01X13609Y677D02*
G01X13699Y677D01*
G01X13699Y677D02*
G01X13745Y654D01*
G01X13745Y654D02*
G01X13768Y631D01*
G01X13768Y631D02*
G01X13790Y586D01*
G01X13790Y586D02*
G01X13790Y540D01*
G01X13790Y540D02*
G01X13768Y495D01*
G01X13768Y495D02*
G01X13722Y427D01*
G01X13722Y427D02*
G01X13495Y200D01*
G01X13495Y200D02*
G01X13813Y200D01*
G01X14222Y677D02*
G01X13995Y359D01*
G01X13995Y359D02*
G01X14336Y359D01*
G01X14222Y677D02*
G01X14222Y200D01*
G01X14540Y245D02*
G01X14518Y222D01*
G01X14518Y222D02*
G01X14540Y200D01*
G01X14540Y200D02*
G01X14563Y222D01*
G01X14563Y222D02*
G01X14540Y245D01*
G01X14813Y677D02*
G01X14813Y290D01*
G01X14813Y290D02*
G01X14836Y222D01*
G01X14836Y222D02*
G01X14881Y200D01*
G01X14881Y200D02*
G01X14927Y200D01*
G01X14745Y518D02*
G01X14904Y518D01*
G01X15109Y518D02*
G01X15109Y200D01*
G01X15109Y381D02*
G01X15131Y450D01*
G01X15131Y450D02*
G01X15177Y495D01*
G01X15177Y495D02*
G01X15222Y518D01*
G01X15222Y518D02*
G01X15290Y518D01*
G01X15472Y677D02*
G01X15495Y654D01*
G01X15495Y654D02*
G01X15518Y677D01*
G01X15518Y677D02*
G01X15495Y700D01*
G01X15495Y700D02*
G01X15472Y677D01*
G01X15495Y518D02*
G01X15495Y200D01*
G01X15699Y518D02*
G01X15699Y40D01*
G01X15699Y450D02*
G01X15745Y495D01*
G01X15745Y495D02*
G01X15790Y518D01*
G01X15790Y518D02*
G01X15859Y518D01*
G01X15859Y518D02*
G01X15904Y495D01*
G01X15904Y495D02*
G01X15949Y450D01*
G01X15949Y450D02*
G01X15972Y381D01*
G01X15972Y381D02*
G01X15972Y336D01*
G01X15972Y336D02*
G01X15949Y268D01*
G01X15949Y268D02*
G01X15904Y222D01*
G01X15904Y222D02*
G01X15859Y200D01*
G01X15859Y200D02*
G01X15790Y200D01*
G01X15790Y200D02*
G01X15745Y222D01*
G01X15745Y222D02*
G01X15699Y268D01*
G01X16268Y518D02*
G01X16222Y495D01*
G01X16222Y495D02*
G01X16177Y450D01*
G01X16177Y450D02*
G01X16154Y381D01*
G01X16154Y381D02*
G01X16154Y336D01*
G01X16154Y336D02*
G01X16177Y268D01*
G01X16177Y268D02*
G01X16222Y222D01*
G01X16222Y222D02*
G01X16268Y200D01*
G01X16268Y200D02*
G01X16336Y200D01*
G01X16336Y200D02*
G01X16381Y222D01*
G01X16381Y222D02*
G01X16427Y268D01*
G01X16427Y268D02*
G01X16449Y336D01*
G01X16449Y336D02*
G01X16449Y381D01*
G01X16449Y381D02*
G01X16427Y450D01*
G01X16427Y450D02*
G01X16381Y495D01*
G01X16381Y495D02*
G01X16336Y518D01*
G01X16336Y518D02*
G01X16268Y518D01*
G01X16904Y677D02*
G01X16904Y200D01*
G01X16904Y450D02*
G01X16859Y495D01*
G01X16859Y495D02*
G01X16813Y518D01*
G01X16813Y518D02*
G01X16745Y518D01*
G01X16745Y518D02*
G01X16699Y495D01*
G01X16699Y495D02*
G01X16654Y450D01*
G01X16654Y450D02*
G01X16631Y381D01*
G01X16631Y381D02*
G01X16631Y336D01*
G01X16631Y336D02*
G01X16654Y268D01*
G01X16654Y268D02*
G01X16699Y222D01*
G01X16699Y222D02*
G01X16745Y200D01*
G01X16745Y200D02*
G01X16813Y200D01*
G01X16813Y200D02*
G01X16859Y222D01*
G01X16859Y222D02*
G01X16904Y268D01*
G01X17109Y245D02*
G01X17086Y222D01*
G01X17086Y222D02*
G01X17109Y200D01*
G01X17109Y200D02*
G01X17131Y222D01*
G01X17131Y222D02*
G01X17109Y245D01*
G01X17586Y450D02*
G01X17540Y495D01*
G01X17540Y495D02*
G01X17495Y518D01*
G01X17495Y518D02*
G01X17427Y518D01*
G01X17427Y518D02*
G01X17381Y495D01*
G01X17381Y495D02*
G01X17336Y450D01*
G01X17336Y450D02*
G01X17313Y381D01*
G01X17313Y381D02*
G01X17313Y336D01*
G01X17313Y336D02*
G01X17336Y268D01*
G01X17336Y268D02*
G01X17381Y222D01*
G01X17381Y222D02*
G01X17427Y200D01*
G01X17427Y200D02*
G01X17495Y200D01*
G01X17495Y200D02*
G01X17540Y222D01*
G01X17540Y222D02*
G01X17586Y268D01*
G01X17881Y518D02*
G01X17836Y495D01*
G01X17836Y495D02*
G01X17790Y450D01*
G01X17790Y450D02*
G01X17768Y381D01*
G01X17768Y381D02*
G01X17768Y336D01*
G01X17768Y336D02*
G01X17790Y268D01*
G01X17790Y268D02*
G01X17836Y222D01*
G01X17836Y222D02*
G01X17881Y200D01*
G01X17881Y200D02*
G01X17949Y200D01*
G01X17949Y200D02*
G01X17995Y222D01*
G01X17995Y222D02*
G01X18040Y268D01*
G01X18040Y268D02*
G01X18063Y336D01*
G01X18063Y336D02*
G01X18063Y381D01*
G01X18063Y381D02*
G01X18040Y450D01*
G01X18040Y450D02*
G01X17995Y495D01*
G01X17995Y495D02*
G01X17949Y518D01*
G01X17949Y518D02*
G01X17881Y518D01*
G01X18245Y518D02*
G01X18245Y200D01*
G01X18245Y427D02*
G01X18313Y495D01*
G01X18313Y495D02*
G01X18359Y518D01*
G01X18359Y518D02*
G01X18427Y518D01*
G01X18427Y518D02*
G01X18472Y495D01*
G01X18472Y495D02*
G01X18495Y427D01*
G01X18495Y427D02*
G01X18495Y200D01*
G01X18495Y427D02*
G01X18563Y495D01*
G01X18563Y495D02*
G01X18609Y518D01*
G01X18609Y518D02*
G01X18677Y518D01*
G01X18677Y518D02*
G01X18722Y495D01*
G01X18722Y495D02*
G01X18745Y427D01*
G01X18745Y427D02*
G01X18745Y200D01*
M00*
M02*
