G04 FreePCB version 1.359*
G04 E:\Projects\USBToSerial\PCB\CAM\top_copper.grb*
G04 top copper layer *
G04 Scale: 100 percent, Rotated: No, Reflected: No *
%FSLAX24Y24*%
%MOIN*%
%LN top copper *%
G04 Rounded Rectangle Macro, params: W/2, H/2, R *
%AMRNDREC*
21,1,$1+$1,$2+$2-$3-$3,0,0,0*
21,1,$1+$1-$3-$3,$2+$2,0,0,0*
1,1,$3+$3,$1-$3,$2-$3*
1,1,$3+$3,$3-$1,$2-$3*
1,1,$3+$3,$1-$3,$3-$2*
1,1,$3+$3,$3-$1,$3-$2*%
G04 Rectangular Thermal Macro, params: W/2, H/2, T/2 *
%AMRECTHERM*
$4=$3/2*
21,1,$1-$3,$2-$3,0-$1/2-$4,0-$2/2-$4,0*
21,1,$1-$3,$2-$3,0-$1/2-$4,$2/2+$4,0*
21,1,$1-$3,$2-$3,$1/2+$4,0-$2/2-$4,0*
21,1,$1-$3,$2-$3,$1/2+$4,$2/2+$4,0*%
%ADD10C,0.005000*%
%ADD11R,0.120000X0.120000*%
%ADD12C,0.120000*%
%AMTHERM13*7,0,0,0.120000,0.060000,0.010000,45.0*%
%ADD13THERM13*%
%ADD14C,0.001000*%
%ADD15RNDREC,0.064449X0.038858X0.038858*%
%ADD16R,0.122992X0.138740*%
%ADD17R,0.138740X0.122992*%
%ADD18R,0.111181X0.122992*%
%ADD19R,0.122992X0.122992*%
%ADD20C,0.200000*%
%ADD21C,0.085000*%
%ADD22C,0.070000*%
%ADD23C,0.125000*%
%ADD24C,0.088000*%
%AMTHERM25*7,0,0,0.125000,0.065000,0.010000,45.0*%
%ADD25THERM25*%
%ADD26R,0.060000X0.060000*%
%ADD27C,0.060000*%
%ADD28RNDREC,0.034449X0.008858X0.008858*%
%ADD29R,0.062992X0.078740*%
%ADD30R,0.078740X0.062992*%
%ADD31R,0.051181X0.062992*%
%ADD32R,0.062992X0.062992*%
%ADD33C,0.140000*%
%ADD34C,0.025000*%
%ADD35C,0.010000*%
%ADD36C,0.065000*%
%ADD37C,0.028000*%
%ADD38C,0.015000*%
G90*
G70D02*

G04 Step and Repeat for panelization *

G04 ----------------------- Draw board outline (positive)*
%LPD*%
G54D10*
G01X0Y0D02*
G01X0Y0D01*
G04 end of side 1*
G01X0Y9000D01*
G04 end of side 2*
G01X19000Y9000D01*
G04 end of side 3*
G01X19000Y0D01*
G04 end of side 4*
G01X0Y0D01*

G04 ----------------------- Draw copper area (positive)*
G36*
G01X18500Y500D02*
G01X500Y500D01*
G01X500Y8550D01*
G01X18500Y8550D01*
G01X18500Y500D01*
G37*

G04 -------------------- Draw copper area cutout (negative)*
%LPC*%
G36*
G01X5350Y6600D02*
G01X3950Y6600D01*
G01X3950Y2500D01*
G01X5350Y2500D01*
G01X5350Y6600D01*
G37*

G04 -------------------- Draw copper area cutout (negative)*
G36*
G01X8100Y6600D02*
G01X6600Y6600D01*
G01X6600Y2500D01*
G01X7950Y2500D01*
G01X7950Y2050D01*
G01X13050Y2050D01*
G01X13050Y5700D01*
G01X9000Y5700D01*
G01X9000Y3850D01*
G01X8100Y3850D01*
G01X8100Y6600D01*
G37*

G04 -------------------- Draw copper area clearances (negative)*
%LPC*%

G04 Draw clearances for pads*
G54D11*
G01X1000Y8000D03*
G54D12*
G01X1000Y7000D03*
G01X1000Y6000D03*
G01X1000Y5000D03*
G01X1000Y4000D03*
G01X1000Y3000D03*
G01X1000Y2000D03*
G54D13*
G01X1000Y1000D03*
G54D14*
G54D15*
G01X4622Y6163D03*
G01X4622Y5907D03*
G01X4622Y5651D03*
G01X4622Y5395D03*
G01X4622Y5139D03*
G01X4622Y4883D03*
G01X4622Y4627D03*
G01X4622Y4372D03*
G01X4622Y4116D03*
G01X4622Y3860D03*
G01X4622Y3604D03*
G01X4622Y3348D03*
G01X4622Y3092D03*
G01X4622Y2836D03*
G01X7377Y2836D03*
G01X7377Y3092D03*
G01X7377Y3348D03*
G01X7377Y3604D03*
G01X7377Y3860D03*
G01X7377Y4116D03*
G01X7377Y4372D03*
G01X7377Y4627D03*
G01X7377Y4883D03*
G01X7377Y5139D03*
G01X7377Y5395D03*
G01X7377Y5651D03*
G01X7377Y5907D03*
G01X7377Y6163D03*
G54D16*
G01X9250Y2750D03*
G01X10352Y2750D03*
G54D17*
G01X12750Y4000D03*
G01X12750Y5102D03*
G01X10250Y4000D03*
G01X10250Y5102D03*
G01X11500Y4000D03*
G01X11500Y5102D03*
G54D18*
G01X12500Y2750D03*
G01X11751Y2750D03*
G54D19*
G01X3000Y2000D03*
G01X3000Y3102D03*
G54D12*
G01X15250Y4000D03*
G01X14250Y4000D03*
G54D13*
G01X15250Y5000D03*
G54D14*
G54D12*
G01X14250Y5000D03*
G54D20*
G01X16320Y2120D03*
G01X16320Y6860D03*

G04 Draw clearances for traces*
G54D21*
G01X1000Y6000D02*
G01X1500Y6000D01*
G01X1500Y6000D02*
G01X2500Y7000D01*
G01X2500Y7000D02*
G01X4150Y7000D01*
G01X4150Y7000D02*
G01X4600Y6550D01*
G01X4600Y6550D02*
G01X4600Y6250D01*
G54D22*
G01X4600Y6250D02*
G01X4622Y6163D01*
G54D23*
G01X3000Y6000D03*
G54D21*
G01X3000Y6000D02*
G01X3300Y5700D01*
G54D22*
G01X3300Y5700D02*
G01X3348Y5651D01*
G01X3348Y5651D02*
G01X4622Y5651D01*
G54D21*
G01X1000Y5000D02*
G01X1500Y5000D01*
G01X1500Y5000D02*
G01X1650Y5150D01*
G01X1650Y5150D02*
G01X3700Y5150D01*
G54D22*
G01X3700Y5150D02*
G01X4300Y5150D01*
G01X4300Y5150D02*
G01X4622Y5139D01*
G01X7377Y3348D02*
G01X7350Y3350D01*
G01X7350Y3350D02*
G01X8400Y3350D01*
G01X8400Y3350D02*
G01X8550Y3200D01*
G54D21*
G01X8550Y3200D02*
G01X9000Y2750D01*
G54D22*
G01X9000Y2750D02*
G01X9250Y2750D01*
G54D23*
G01X7000Y1000D03*
G54D21*
G01X7000Y1000D02*
G01X6500Y1500D01*
G01X6500Y1500D02*
G01X6500Y3000D01*
G01X6500Y3000D02*
G01X6700Y3200D01*
G54D22*
G01X6700Y3200D02*
G01X6850Y3350D01*
G01X6850Y3350D02*
G01X7400Y3350D01*
G01X7400Y3350D02*
G01X7377Y3348D01*
G54D21*
G01X1000Y2000D02*
G01X3000Y2000D01*
G01X3000Y2000D02*
G01X4000Y2000D01*
G01X4000Y2000D02*
G01X4600Y2600D01*
G01X4600Y2600D02*
G01X4600Y2750D01*
G54D22*
G01X4600Y2750D02*
G01X4600Y2850D01*
G01X4600Y2850D02*
G01X4622Y2836D01*
G01X7377Y3092D02*
G01X7600Y3100D01*
G01X7600Y3100D02*
G01X7900Y3100D01*
G01X7900Y3100D02*
G01X8000Y3000D01*
G54D23*
G01X8000Y2050D03*
G54D22*
G01X8000Y3000D02*
G01X8000Y2050D01*
G01X7377Y2836D02*
G01X7400Y2800D01*
G54D21*
G01X7400Y2800D02*
G01X7400Y1600D01*
G54D23*
G01X8000Y1000D03*
G54D21*
G01X7400Y1600D02*
G01X8000Y1000D01*
G54D22*
G01X10250Y4000D02*
G01X10150Y4000D01*
G54D21*
G01X10150Y4000D02*
G01X11500Y4000D01*
G01X11500Y4000D02*
G01X11500Y3250D01*
G01X11500Y3250D02*
G01X11850Y2900D01*
G01X11850Y2900D02*
G01X11751Y2750D01*
G54D22*
G01X7377Y4116D02*
G01X7600Y4100D01*
G01X7600Y4100D02*
G01X9000Y4100D01*
G54D21*
G01X9000Y4100D02*
G01X9950Y4100D01*
G54D22*
G01X9950Y4100D02*
G01X10133Y4116D01*
G01X10133Y4116D02*
G01X10250Y4000D01*
G54D21*
G01X3000Y3102D02*
G01X3000Y3050D01*
G54D23*
G01X3000Y4000D03*
G54D21*
G01X3000Y3050D02*
G01X3000Y4000D01*
G54D24*
G01X9000Y8000D03*
G54D21*
G01X9000Y8000D02*
G01X5650Y8000D01*
G01X5650Y8000D02*
G01X5650Y5750D01*
G01X5650Y5750D02*
G01X5300Y5400D01*
G54D22*
G01X5300Y5400D02*
G01X4650Y5400D01*
G01X4650Y5400D02*
G01X4622Y5395D01*
G01X4622Y5395D02*
G01X5300Y5400D01*
G01X5300Y5400D02*
G01X5650Y5750D01*
G01X5650Y5750D02*
G01X5650Y8000D01*
G54D23*
G01X9000Y8000D03*
G54D22*
G01X5650Y8000D02*
G01X9000Y8000D01*
G54D23*
G01X9000Y5050D03*
G54D21*
G01X9000Y5050D02*
G01X9000Y4150D01*
G54D22*
G01X9000Y4150D02*
G01X9000Y4100D01*
G01X9000Y4100D02*
G01X7350Y4100D01*
G01X7350Y4100D02*
G01X7377Y4116D01*
G54D21*
G01X1000Y8000D02*
G01X1500Y8000D01*
G01X1500Y8000D02*
G01X1450Y8000D01*
G01X1450Y8000D02*
G01X5650Y8000D01*
G54D22*
G01X5650Y8000D02*
G01X5650Y5750D01*
G01X5650Y5750D02*
G01X5300Y5400D01*
G01X5300Y5400D02*
G01X4622Y5395D01*
G54D23*
G01X13000Y7000D03*
G54D21*
G01X13000Y7000D02*
G01X13600Y6400D01*
G01X13600Y6400D02*
G01X13600Y4500D01*
G01X13600Y4500D02*
G01X13100Y4000D01*
G01X13100Y4000D02*
G01X12750Y4000D01*
G54D22*
G01X12750Y4000D02*
G01X12500Y3750D01*
G54D21*
G01X12500Y3750D02*
G01X12500Y2750D01*
G54D22*
G01X4622Y3604D02*
G01X4550Y3600D01*
G01X4550Y3600D02*
G01X4050Y3600D01*
G01X4050Y3600D02*
G01X3750Y3300D01*
G01X3750Y3300D02*
G01X3750Y2850D01*
G01X3750Y2850D02*
G01X3450Y2550D01*
G01X3450Y2550D02*
G01X2400Y2550D01*
G54D21*
G01X2400Y2550D02*
G01X1450Y2550D01*
G01X1450Y2550D02*
G01X1000Y3000D01*
G54D25*
G01X11950Y7000D03*

G04 Draw clearances for text*

G04 -------------- Draw Parts, Pads, Traces, Vias and Text (positive)*
%LPD*%
G04 Draw part H1*
G54D26*
G01X1000Y8000D03*
G54D27*
G01X1000Y7000D03*
G01X1000Y6000D03*
G01X1000Y5000D03*
G01X1000Y4000D03*
G01X1000Y3000D03*
G01X1000Y2000D03*
G01X1000Y1000D03*
G04 Draw part U1*
G54D28*
G01X4622Y6163D03*
G01X4622Y5907D03*
G01X4622Y5651D03*
G01X4622Y5395D03*
G01X4622Y5139D03*
G01X4622Y4883D03*
G01X4622Y4627D03*
G01X4622Y4372D03*
G01X4622Y4116D03*
G01X4622Y3860D03*
G01X4622Y3604D03*
G01X4622Y3348D03*
G01X4622Y3092D03*
G01X4622Y2836D03*
G01X7377Y2836D03*
G01X7377Y3092D03*
G01X7377Y3348D03*
G01X7377Y3604D03*
G01X7377Y3860D03*
G01X7377Y4116D03*
G01X7377Y4372D03*
G01X7377Y4627D03*
G01X7377Y4883D03*
G01X7377Y5139D03*
G01X7377Y5395D03*
G01X7377Y5651D03*
G01X7377Y5907D03*
G01X7377Y6163D03*
G04 Draw part C4*
G54D29*
G01X9250Y2750D03*
G01X10352Y2750D03*
G04 Draw part C1*
G54D30*
G01X12750Y4000D03*
G01X12750Y5102D03*
G04 Draw part C2*
G01X10250Y4000D03*
G01X10250Y5102D03*
G04 Draw part C3*
G01X11500Y4000D03*
G01X11500Y5102D03*
G04 Draw part L1*
G54D31*
G01X12500Y2750D03*
G01X11751Y2750D03*
G04 Draw part R1*
G54D32*
G01X3000Y2000D03*
G01X3000Y3102D03*
G04 Draw part K1*
G54D27*
G01X15250Y4000D03*
G01X14250Y4000D03*
G01X15250Y5000D03*
G01X14250Y5000D03*
G54D33*
G01X16320Y2120D03*
G01X16320Y6860D03*

G04 Draw traces*
G54D34*
G01X1000Y6000D02*
G01X1500Y6000D01*
G01X1500Y6000D02*
G01X2500Y7000D01*
G01X2500Y7000D02*
G01X4150Y7000D01*
G01X4150Y7000D02*
G01X4600Y6550D01*
G01X4600Y6550D02*
G01X4600Y6250D01*
G54D35*
G01X4600Y6250D02*
G01X4622Y6163D01*
G54D36*
G01X3000Y6000D03*
G54D34*
G01X3000Y6000D02*
G01X3300Y5700D01*
G54D35*
G01X3300Y5700D02*
G01X3348Y5651D01*
G01X3348Y5651D02*
G01X4622Y5651D01*
G54D34*
G01X1000Y5000D02*
G01X1500Y5000D01*
G01X1500Y5000D02*
G01X1650Y5150D01*
G01X1650Y5150D02*
G01X3700Y5150D01*
G54D35*
G01X3700Y5150D02*
G01X4300Y5150D01*
G01X4300Y5150D02*
G01X4622Y5139D01*
G01X7377Y3348D02*
G01X7350Y3350D01*
G01X7350Y3350D02*
G01X8400Y3350D01*
G01X8400Y3350D02*
G01X8550Y3200D01*
G54D34*
G01X8550Y3200D02*
G01X9000Y2750D01*
G54D35*
G01X9000Y2750D02*
G01X9250Y2750D01*
G54D36*
G01X7000Y1000D03*
G54D34*
G01X7000Y1000D02*
G01X6500Y1500D01*
G01X6500Y1500D02*
G01X6500Y3000D01*
G01X6500Y3000D02*
G01X6700Y3200D01*
G54D35*
G01X6700Y3200D02*
G01X6850Y3350D01*
G01X6850Y3350D02*
G01X7400Y3350D01*
G01X7400Y3350D02*
G01X7377Y3348D01*
G54D34*
G01X1000Y2000D02*
G01X3000Y2000D01*
G01X3000Y2000D02*
G01X4000Y2000D01*
G01X4000Y2000D02*
G01X4600Y2600D01*
G01X4600Y2600D02*
G01X4600Y2750D01*
G54D35*
G01X4600Y2750D02*
G01X4600Y2850D01*
G01X4600Y2850D02*
G01X4622Y2836D01*
G01X7377Y3092D02*
G01X7600Y3100D01*
G01X7600Y3100D02*
G01X7900Y3100D01*
G01X7900Y3100D02*
G01X8000Y3000D01*
G01X8000Y3000D02*
G01X8000Y2050D01*
G54D36*
G01X8000Y2050D03*
G54D35*
G01X7377Y2836D02*
G01X7400Y2800D01*
G54D34*
G01X7400Y2800D02*
G01X7400Y1600D01*
G01X7400Y1600D02*
G01X8000Y1000D01*
G54D36*
G01X8000Y1000D03*
G54D35*
G01X10250Y4000D02*
G01X10150Y4000D01*
G54D34*
G01X10150Y4000D02*
G01X11500Y4000D01*
G01X11500Y4000D02*
G01X11500Y3250D01*
G01X11500Y3250D02*
G01X11850Y2900D01*
G01X11850Y2900D02*
G01X11751Y2750D01*
G54D35*
G01X7377Y4116D02*
G01X7600Y4100D01*
G01X7600Y4100D02*
G01X9000Y4100D01*
G54D34*
G01X9000Y4100D02*
G01X9950Y4100D01*
G54D35*
G01X9950Y4100D02*
G01X10133Y4116D01*
G01X10133Y4116D02*
G01X10250Y4000D01*
G54D34*
G01X3000Y3102D02*
G01X3000Y3050D01*
G01X3000Y3050D02*
G01X3000Y4000D01*
G54D36*
G01X3000Y4000D03*
G54D37*
G01X9000Y8000D03*
G54D34*
G01X9000Y8000D02*
G01X5650Y8000D01*
G01X5650Y8000D02*
G01X5650Y5750D01*
G01X5650Y5750D02*
G01X5300Y5400D01*
G54D35*
G01X5300Y5400D02*
G01X4650Y5400D01*
G01X4650Y5400D02*
G01X4622Y5395D01*
G01X4622Y5395D02*
G01X5300Y5400D01*
G01X5300Y5400D02*
G01X5650Y5750D01*
G01X5650Y5750D02*
G01X5650Y8000D01*
G01X5650Y8000D02*
G01X9000Y8000D01*
G54D36*
G01X9000Y8000D03*
G01X9000Y5050D03*
G54D34*
G01X9000Y5050D02*
G01X9000Y4150D01*
G54D35*
G01X9000Y4150D02*
G01X9000Y4100D01*
G01X9000Y4100D02*
G01X7350Y4100D01*
G01X7350Y4100D02*
G01X7377Y4116D01*
G54D34*
G01X1000Y8000D02*
G01X1500Y8000D01*
G01X1500Y8000D02*
G01X1450Y8000D01*
G01X1450Y8000D02*
G01X5650Y8000D01*
G54D35*
G01X5650Y8000D02*
G01X5650Y5750D01*
G01X5650Y5750D02*
G01X5300Y5400D01*
G01X5300Y5400D02*
G01X4622Y5395D01*
G54D36*
G01X13000Y7000D03*
G54D34*
G01X13000Y7000D02*
G01X13600Y6400D01*
G01X13600Y6400D02*
G01X13600Y4500D01*
G01X13600Y4500D02*
G01X13100Y4000D01*
G01X13100Y4000D02*
G01X12750Y4000D01*
G54D35*
G01X12750Y4000D02*
G01X12500Y3750D01*
G54D34*
G01X12500Y3750D02*
G01X12500Y2750D01*
G54D35*
G01X4622Y3604D02*
G01X4550Y3600D01*
G01X4550Y3600D02*
G01X4050Y3600D01*
G01X4050Y3600D02*
G01X3750Y3300D01*
G01X3750Y3300D02*
G01X3750Y2850D01*
G01X3750Y2850D02*
G01X3450Y2550D01*
G01X3450Y2550D02*
G01X2400Y2550D01*
G54D34*
G01X2400Y2550D02*
G01X1450Y2550D01*
G01X1450Y2550D02*
G01X1000Y3000D01*
G01X10250Y5102D02*
G01X11452Y5102D01*
G54D35*
G01X11452Y5102D02*
G01X11550Y5200D01*
G01X11550Y5200D02*
G01X11500Y5102D01*
G01X11500Y5102D02*
G01X11350Y5200D01*
G01X11350Y5200D02*
G01X11447Y5102D01*
G54D34*
G01X11447Y5102D02*
G01X12750Y5102D01*
G54D35*
G01X10250Y5102D02*
G01X10197Y5102D01*
G54D34*
G01X10197Y5102D02*
G01X10200Y6000D01*
G01X10200Y6000D02*
G01X8750Y6000D01*
G01X8750Y6000D02*
G01X8400Y5650D01*
G54D35*
G01X8400Y5650D02*
G01X7400Y5650D01*
G01X7400Y5650D02*
G01X7377Y5651D01*
G01X7377Y5395D02*
G01X7400Y5450D01*
G54D34*
G01X7400Y5450D02*
G01X7400Y5600D01*
G54D35*
G01X7400Y5600D02*
G01X7377Y5651D01*
G01X7377Y3604D02*
G01X5750Y3600D01*
G01X5750Y3600D02*
G01X5750Y4400D01*
G01X5750Y4400D02*
G01X7400Y4400D01*
G01X7400Y4400D02*
G01X7377Y4372D01*
G01X7377Y5395D02*
G01X7200Y5400D01*
G01X7200Y5400D02*
G01X6050Y5400D01*
G01X6050Y5400D02*
G01X5750Y5100D01*
G01X5750Y5100D02*
G01X5750Y4400D01*
G01X5750Y4400D02*
G01X7150Y4400D01*
G01X7150Y4400D02*
G01X7377Y4372D01*
G54D36*
G01X11950Y7000D03*
G54D34*
G01X11950Y7000D02*
G01X11500Y6550D01*
G01X11500Y6550D02*
G01X11500Y5102D01*
G54D35*
G01X7377Y3604D02*
G01X7350Y3600D01*
G01X7350Y3600D02*
G01X9450Y3600D01*
G01X9450Y3600D02*
G01X9650Y3400D01*
G01X9650Y3400D02*
G01X9800Y3400D01*
G54D34*
G01X9800Y3400D02*
G01X10050Y3400D01*
G01X10050Y3400D02*
G01X10352Y3097D01*
G54D35*
G01X10352Y3097D02*
G01X10352Y2750D01*
G01X4622Y4627D02*
G01X4900Y4650D01*
G01X4900Y4650D02*
G01X5750Y4650D01*
G01X5750Y4650D02*
G01X5750Y4400D01*
G01X5750Y4400D02*
G01X7350Y4400D01*
G01X7350Y4400D02*
G01X7377Y4372D01*
G01X1000Y1000D02*
G01X950Y1000D01*
G54D34*
G01X950Y1000D02*
G01X5250Y1000D01*
G01X5250Y1000D02*
G01X5750Y1500D01*
G01X5750Y1500D02*
G01X5750Y4650D01*
G54D35*
G01X5750Y4650D02*
G01X4850Y4650D01*
G01X4850Y4650D02*
G01X4622Y4627D01*
G01X7377Y5651D02*
G01X6301Y5651D01*
G01X6301Y5651D02*
G01X6050Y5400D01*
G01X7377Y5395D02*
G01X8145Y5395D01*
G01X8145Y5395D02*
G01X8400Y5650D01*
G54D34*
G01X10352Y2750D02*
G01X10350Y1800D01*
G01X10350Y1800D02*
G01X10600Y1550D01*
G01X10600Y1550D02*
G01X13850Y1550D01*
G01X13850Y1550D02*
G01X16300Y4000D01*
G01X16300Y4000D02*
G01X16300Y4600D01*
G01X16300Y4600D02*
G01X15950Y5000D01*
G01X15950Y5000D02*
G01X15250Y5000D01*
G01X12750Y5102D02*
G01X12750Y6000D01*
G01X12750Y6000D02*
G01X11500Y6000D01*
G01X11500Y6000D02*
G01X11500Y6550D01*

G04 Draw Text*

G04 ----------------------- Draw Pilot Holes (scratch)*
%LPC*%
G04 draw pilot holes for part H1*
G54D38*
G01X1000Y8000D03*
G01X1000Y7000D03*
G01X1000Y6000D03*
G01X1000Y5000D03*
G01X1000Y4000D03*
G01X1000Y3000D03*
G01X1000Y2000D03*
G01X1000Y1000D03*
G04 draw pilot holes for part U1*
G04 draw pilot holes for part C4*
G04 draw pilot holes for part C1*
G04 draw pilot holes for part C2*
G04 draw pilot holes for part C3*
G04 draw pilot holes for part L1*
G04 draw pilot holes for part R1*
G04 draw pilot holes for part K1*
G01X15250Y4000D03*
G01X14250Y4000D03*
G01X15250Y5000D03*
G01X14250Y5000D03*
G01X16320Y2120D03*
G01X16320Y6860D03*

G04 Draw pilot holes for vias*
G01X3000Y6000D03*
G01X7000Y1000D03*
G01X8000Y2050D03*
G01X8000Y1000D03*
G01X3000Y4000D03*
G01X9000Y8000D03*
G01X9000Y8000D03*
G01X9000Y5050D03*
G01X13000Y7000D03*
G01X11950Y7000D03*
M00*
M02*
