;Holesize 1 =   41.0 PLATED MILS
;Holesize 2 =   21.0 PLATED MILS
M48
INCH,00.0000
T01C0.041
T02C0.021
%
G05
G90
T01
X010000Y003250
X010000Y004250
X010000Y005250
X010000Y006250
X010000Y007250
X010000Y008250
X010000Y013500
X010000Y014500
X010000Y015500
X010000Y016500
X010000Y017500
X010000Y018500
X022500Y003250
X022500Y004250
X022500Y005250
X022500Y006250
X022500Y007250
X022500Y008250
X022500Y013500
X022500Y014500
X022500Y015500
X022500Y016500
X022500Y017500
X022500Y018500
T02
X004370Y000850
X008770Y002450
X006530Y004880
X008410Y008250
X007700Y006130
X006090Y001650
X005170Y007210
X006010Y007210
X006010Y005900
X002870Y000850
X003540Y001360
X000800Y002880
X004300Y006950
X000800Y002880
X002510Y006770
X000800Y002880
X002510Y006770
X004300Y006950
X006090Y002620
X004370Y011100
X008770Y012700
X006530Y015130
X008410Y018500
X007700Y016380
X006090Y011900
X005170Y017460
X006010Y017460
X006010Y016150
X002870Y011100
X003540Y011610
X000800Y013130
X004300Y017200
X000800Y013130
X002510Y017020
X000800Y013130
X002510Y017020
X004300Y017200
X006090Y012870
X016870Y000850
X021270Y002450
X019030Y004880
X020910Y008250
X020200Y006130
X018590Y001650
X017670Y007210
X018510Y007210
X018510Y005900
X015370Y000850
X016040Y001360
X013300Y002880
X016800Y006950
X013300Y002880
X015010Y006770
X013300Y002880
X015010Y006770
X016800Y006950
X018590Y002620
X016870Y011100
X021270Y012700
X019030Y015130
X020910Y018500
X020200Y016380
X018590Y011900
X017670Y017460
X018510Y017460
X018510Y016150
X015370Y011100
X016040Y011610
X013300Y013130
X016800Y017200
X013300Y013130
X015010Y017020
X013300Y013130
X015010Y017020
X016800Y017200
X018590Y012870
M30
