G04 FreePCB version 1.359*
G04 C:\Users\pmesser\_Paul\Design\DSOscope\PCB\A01\CAM_DSOscope_USBBrd_A01\top_silk.grb*
G04 top silk layer *
G04 Scale: 100 percent, Rotated: No, Reflected: No *
%FSLAX24Y24*%
%MOIN*%
%LN top silk *%
G04 Rounded Rectangle Macro, params: W/2, H/2, R *
%AMRNDREC*
21,1,$1+$1,$2+$2-$3-$3,0,0,0*
21,1,$1+$1-$3-$3,$2+$2,0,0,0*
1,1,$3+$3,$1-$3,$2-$3*
1,1,$3+$3,$3-$1,$2-$3*
1,1,$3+$3,$1-$3,$3-$2*
1,1,$3+$3,$3-$1,$3-$2*%
G04 Rectangular Thermal Macro, params: W/2, H/2, T/2 *
%AMRECTHERM*
$4=$3/2*
21,1,$1-$3,$2-$3,0-$1/2-$4,0-$2/2-$4,0*
21,1,$1-$3,$2-$3,0-$1/2-$4,$2/2+$4,0*
21,1,$1-$3,$2-$3,$1/2+$4,0-$2/2-$4,0*
21,1,$1-$3,$2-$3,$1/2+$4,$2/2+$4,0*%
%ADD10C,0.005000*%
%ADD11C,0.010000*%
G90*
G70D02*

G04 Step and Repeat for panelization *
%SRX2Y2I1.250000J1.025000*%

G04 ----------------------- Draw board outline (positive)*
%LPD*%
G54D10*
G01X0Y0D02*
G01X0Y2250D01*
G04 end of side 1*
G01X0Y9250D01*
G04 end of side 2*
G01X11500Y9250D01*
G04 end of side 3*
G01X11500Y0D01*
G04 end of side 4*
G01X0Y0D01*

G04 -------------- Draw Parts, Pads, Traces, Vias and Text (positive)*
%LPD*%
G04 Draw part U1*
G04 draw part outline for part U1*
G54D11*
G01X1500Y3150D02*
G01X1500Y4050D01*
G01X1500Y4050D02*
G01X1700Y4250D01*
G01X1700Y4250D02*
G01X1500Y4450D01*
G01X1500Y4450D02*
G01X1500Y5350D01*
G01X1500Y5350D02*
G01X5800Y5350D01*
G01X5800Y5350D02*
G01X5800Y3150D01*
G01X5800Y3150D02*
G01X1500Y3150D01*
G04 draw reference designator for part U1*
G54D10*
G01X2000Y4477D02*
G01X2000Y4136D01*
G01X2000Y4136D02*
G01X2022Y4068D01*
G01X2022Y4068D02*
G01X2068Y4022D01*
G01X2068Y4022D02*
G01X2136Y4000D01*
G01X2181Y4000D02*
G01X2136Y4000D01*
G01X2250Y4022D02*
G01X2181Y4000D01*
G01X2295Y4068D02*
G01X2250Y4022D01*
G01X2318Y4136D02*
G01X2295Y4068D01*
G01X2318Y4477D02*
G01X2318Y4136D01*
G01X2545Y4409D02*
G01X2500Y4386D01*
G01X2613Y4477D02*
G01X2545Y4409D01*
G01X2613Y4477D02*
G01X2613Y4000D01*
G04 Draw part C2*
G04 draw part outline for part C2*
G54D11*
G01X1200Y5050D02*
G01X1200Y3350D01*
G01X1200Y3350D02*
G01X400Y3350D01*
G01X400Y3350D02*
G01X400Y5050D01*
G01X400Y5050D02*
G01X1200Y5050D01*
G04 draw reference designator for part C2*
G54D10*
G01X909Y4531D02*
G01X863Y4509D01*
G01X954Y4577D02*
G01X909Y4531D01*
G01X977Y4622D02*
G01X954Y4577D01*
G01X977Y4713D02*
G01X977Y4622D01*
G01X977Y4713D02*
G01X954Y4759D01*
G01X954Y4759D02*
G01X909Y4804D01*
G01X909Y4804D02*
G01X863Y4827D01*
G01X863Y4827D02*
G01X795Y4850D01*
G01X795Y4850D02*
G01X681Y4850D01*
G01X681Y4850D02*
G01X613Y4827D01*
G01X613Y4827D02*
G01X568Y4804D01*
G01X568Y4804D02*
G01X522Y4759D01*
G01X522Y4759D02*
G01X500Y4713D01*
G01X500Y4622D02*
G01X500Y4713D01*
G01X522Y4577D02*
G01X500Y4622D01*
G01X568Y4531D02*
G01X522Y4577D01*
G01X613Y4509D02*
G01X568Y4531D01*
G01X886Y4304D02*
G01X863Y4304D01*
G01X931Y4281D02*
G01X886Y4304D01*
G01X954Y4259D02*
G01X931Y4281D01*
G01X977Y4213D02*
G01X954Y4259D01*
G01X977Y4122D02*
G01X977Y4213D01*
G01X977Y4122D02*
G01X954Y4077D01*
G01X954Y4077D02*
G01X931Y4054D01*
G01X931Y4054D02*
G01X886Y4031D01*
G01X886Y4031D02*
G01X840Y4031D01*
G01X840Y4031D02*
G01X795Y4054D01*
G01X795Y4054D02*
G01X727Y4100D01*
G01X727Y4100D02*
G01X500Y4327D01*
G01X500Y4009D02*
G01X500Y4327D01*
G04 Draw part C1*
G04 draw part outline for part C1*
G54D11*
G01X7300Y5750D02*
G01X9000Y5750D01*
G01X9000Y5750D02*
G01X9000Y4950D01*
G01X9000Y4950D02*
G01X7300Y4950D01*
G01X7300Y4950D02*
G01X7300Y5750D01*
G04 draw reference designator for part C1*
G54D10*
G01X8118Y5509D02*
G01X8140Y5463D01*
G01X8072Y5554D02*
G01X8118Y5509D01*
G01X8027Y5577D02*
G01X8072Y5554D01*
G01X7936Y5577D02*
G01X8027Y5577D01*
G01X7936Y5577D02*
G01X7890Y5554D01*
G01X7890Y5554D02*
G01X7845Y5509D01*
G01X7845Y5509D02*
G01X7822Y5463D01*
G01X7822Y5463D02*
G01X7800Y5395D01*
G01X7800Y5395D02*
G01X7800Y5281D01*
G01X7800Y5281D02*
G01X7822Y5213D01*
G01X7822Y5213D02*
G01X7845Y5168D01*
G01X7845Y5168D02*
G01X7890Y5122D01*
G01X7890Y5122D02*
G01X7936Y5100D01*
G01X8027Y5100D02*
G01X7936Y5100D01*
G01X8072Y5122D02*
G01X8027Y5100D01*
G01X8118Y5168D02*
G01X8072Y5122D01*
G01X8140Y5213D02*
G01X8118Y5168D01*
G01X8368Y5509D02*
G01X8322Y5486D01*
G01X8436Y5577D02*
G01X8368Y5509D01*
G01X8436Y5577D02*
G01X8436Y5100D01*
G04 Draw part L1*
G04 draw part outline for part L1*
G54D11*
G01X7300Y4950D02*
G01X9000Y4950D01*
G01X9000Y4950D02*
G01X9000Y4150D01*
G01X9000Y4150D02*
G01X7300Y4150D01*
G01X7300Y4150D02*
G01X7300Y4950D01*
G04 draw reference designator for part L1*
G54D10*
G01X7800Y4777D02*
G01X7800Y4300D01*
G01X8072Y4300D02*
G01X7800Y4300D01*
G01X8300Y4709D02*
G01X8254Y4686D01*
G01X8368Y4777D02*
G01X8300Y4709D01*
G01X8368Y4777D02*
G01X8368Y4300D01*
G04 Draw part R6*
G04 draw part outline for part R6*
G54D11*
G01X900Y1250D02*
G01X2600Y1250D01*
G01X2600Y1250D02*
G01X2600Y450D01*
G01X2600Y450D02*
G01X900Y450D01*
G01X900Y450D02*
G01X900Y1250D01*
G04 draw reference designator for part R6*
G54D10*
G01X1300Y1077D02*
G01X1300Y600D01*
G01X1504Y1077D02*
G01X1300Y1077D01*
G01X1504Y1077D02*
G01X1572Y1054D01*
G01X1572Y1054D02*
G01X1595Y1031D01*
G01X1595Y1031D02*
G01X1618Y986D01*
G01X1618Y986D02*
G01X1618Y940D01*
G01X1618Y940D02*
G01X1595Y895D01*
G01X1595Y895D02*
G01X1572Y872D01*
G01X1572Y872D02*
G01X1504Y850D01*
G01X1300Y850D02*
G01X1504Y850D01*
G01X1459Y850D02*
G01X1618Y600D01*
G01X2050Y1054D02*
G01X2072Y1009D01*
G01X1981Y1077D02*
G01X2050Y1054D01*
G01X1936Y1077D02*
G01X1981Y1077D01*
G01X1936Y1077D02*
G01X1868Y1054D01*
G01X1868Y1054D02*
G01X1822Y986D01*
G01X1822Y986D02*
G01X1800Y872D01*
G01X1800Y872D02*
G01X1800Y759D01*
G01X1800Y759D02*
G01X1822Y668D01*
G01X1822Y668D02*
G01X1868Y622D01*
G01X1868Y622D02*
G01X1936Y600D01*
G01X1959Y600D02*
G01X1936Y600D01*
G01X2027Y622D02*
G01X1959Y600D01*
G01X2072Y668D02*
G01X2027Y622D01*
G01X2095Y736D02*
G01X2072Y668D01*
G01X2095Y759D02*
G01X2095Y736D01*
G01X2072Y827D02*
G01X2095Y759D01*
G01X2027Y872D02*
G01X2072Y827D01*
G01X1959Y895D02*
G01X2027Y872D01*
G01X1936Y895D02*
G01X1959Y895D01*
G01X1936Y895D02*
G01X1868Y872D01*
G01X1868Y872D02*
G01X1822Y827D01*
G01X1822Y827D02*
G01X1800Y759D01*
G04 Draw part R5*
G04 draw part outline for part R5*
G54D11*
G01X6400Y450D02*
G01X4700Y450D01*
G01X4700Y450D02*
G01X4700Y1250D01*
G01X4700Y1250D02*
G01X6400Y1250D01*
G01X6400Y1250D02*
G01X6400Y450D01*
G04 draw reference designator for part R5*
G54D10*
G01X5100Y1077D02*
G01X5100Y600D01*
G01X5304Y1077D02*
G01X5100Y1077D01*
G01X5304Y1077D02*
G01X5372Y1054D01*
G01X5372Y1054D02*
G01X5395Y1031D01*
G01X5395Y1031D02*
G01X5418Y986D01*
G01X5418Y986D02*
G01X5418Y940D01*
G01X5418Y940D02*
G01X5395Y895D01*
G01X5395Y895D02*
G01X5372Y872D01*
G01X5372Y872D02*
G01X5304Y850D01*
G01X5100Y850D02*
G01X5304Y850D01*
G01X5259Y850D02*
G01X5418Y600D01*
G01X5645Y1077D02*
G01X5872Y1077D01*
G01X5645Y1077D02*
G01X5622Y872D01*
G01X5645Y895D02*
G01X5622Y872D01*
G01X5713Y918D02*
G01X5645Y895D01*
G01X5781Y918D02*
G01X5713Y918D01*
G01X5781Y918D02*
G01X5850Y895D01*
G01X5850Y895D02*
G01X5895Y850D01*
G01X5895Y850D02*
G01X5918Y781D01*
G01X5918Y781D02*
G01X5918Y736D01*
G01X5918Y736D02*
G01X5895Y668D01*
G01X5895Y668D02*
G01X5850Y622D01*
G01X5850Y622D02*
G01X5781Y600D01*
G01X5713Y600D02*
G01X5781Y600D01*
G01X5645Y622D02*
G01X5713Y600D01*
G01X5622Y645D02*
G01X5645Y622D01*
G01X5600Y690D02*
G01X5622Y645D01*
G04 Draw part R4*
G04 draw part outline for part R4*
G54D11*
G01X8200Y1250D02*
G01X6500Y1250D01*
G01X6500Y1250D02*
G01X6500Y2050D01*
G01X6500Y2050D02*
G01X8200Y2050D01*
G01X8200Y2050D02*
G01X8200Y1250D01*
G04 draw reference designator for part R4*
G54D10*
G01X6900Y1877D02*
G01X6900Y1400D01*
G01X7104Y1877D02*
G01X6900Y1877D01*
G01X7104Y1877D02*
G01X7172Y1854D01*
G01X7172Y1854D02*
G01X7195Y1831D01*
G01X7195Y1831D02*
G01X7218Y1786D01*
G01X7218Y1786D02*
G01X7218Y1740D01*
G01X7218Y1740D02*
G01X7195Y1695D01*
G01X7195Y1695D02*
G01X7172Y1672D01*
G01X7172Y1672D02*
G01X7104Y1650D01*
G01X6900Y1650D02*
G01X7104Y1650D01*
G01X7059Y1650D02*
G01X7218Y1400D01*
G01X7627Y1877D02*
G01X7400Y1559D01*
G01X7740Y1559D02*
G01X7400Y1559D01*
G01X7627Y1877D02*
G01X7627Y1400D01*
G04 Draw part R3*
G04 draw part outline for part R3*
G54D11*
G01X8200Y2050D02*
G01X6500Y2050D01*
G01X6500Y2050D02*
G01X6500Y2850D01*
G01X6500Y2850D02*
G01X8200Y2850D01*
G01X8200Y2850D02*
G01X8200Y2050D01*
G04 draw reference designator for part R3*
G54D10*
G01X6900Y2677D02*
G01X6900Y2200D01*
G01X7104Y2677D02*
G01X6900Y2677D01*
G01X7104Y2677D02*
G01X7172Y2654D01*
G01X7172Y2654D02*
G01X7195Y2631D01*
G01X7195Y2631D02*
G01X7218Y2586D01*
G01X7218Y2586D02*
G01X7218Y2540D01*
G01X7218Y2540D02*
G01X7195Y2495D01*
G01X7195Y2495D02*
G01X7172Y2472D01*
G01X7172Y2472D02*
G01X7104Y2450D01*
G01X6900Y2450D02*
G01X7104Y2450D01*
G01X7059Y2450D02*
G01X7218Y2200D01*
G01X7695Y2677D02*
G01X7445Y2677D01*
G01X7695Y2677D02*
G01X7559Y2495D01*
G01X7627Y2495D02*
G01X7559Y2495D01*
G01X7627Y2495D02*
G01X7672Y2472D01*
G01X7672Y2472D02*
G01X7695Y2450D01*
G01X7695Y2450D02*
G01X7718Y2381D01*
G01X7718Y2381D02*
G01X7718Y2336D01*
G01X7718Y2336D02*
G01X7695Y2268D01*
G01X7695Y2268D02*
G01X7650Y2222D01*
G01X7650Y2222D02*
G01X7581Y2200D01*
G01X7513Y2200D02*
G01X7581Y2200D01*
G01X7445Y2222D02*
G01X7513Y2200D01*
G01X7422Y2245D02*
G01X7445Y2222D01*
G01X7400Y2290D02*
G01X7422Y2245D01*
G04 Draw part R9*
G04 Draw part R8*
G04 Draw part R7*
G04 Draw part R10*
G04 Draw part R2*
G04 draw part outline for part R2*
G54D11*
G01X7900Y7850D02*
G01X6200Y7850D01*
G01X6200Y7850D02*
G01X6200Y8650D01*
G01X6200Y8650D02*
G01X7900Y8650D01*
G01X7900Y8650D02*
G01X7900Y7850D01*
G04 draw reference designator for part R2*
G54D10*
G01X6600Y8477D02*
G01X6600Y8000D01*
G01X6804Y8477D02*
G01X6600Y8477D01*
G01X6804Y8477D02*
G01X6872Y8454D01*
G01X6872Y8454D02*
G01X6895Y8431D01*
G01X6895Y8431D02*
G01X6918Y8386D01*
G01X6918Y8386D02*
G01X6918Y8340D01*
G01X6918Y8340D02*
G01X6895Y8295D01*
G01X6895Y8295D02*
G01X6872Y8272D01*
G01X6872Y8272D02*
G01X6804Y8250D01*
G01X6600Y8250D02*
G01X6804Y8250D01*
G01X6759Y8250D02*
G01X6918Y8000D01*
G01X7122Y8386D02*
G01X7122Y8363D01*
G01X7145Y8431D02*
G01X7122Y8386D01*
G01X7168Y8454D02*
G01X7145Y8431D01*
G01X7213Y8477D02*
G01X7168Y8454D01*
G01X7304Y8477D02*
G01X7213Y8477D01*
G01X7304Y8477D02*
G01X7350Y8454D01*
G01X7350Y8454D02*
G01X7372Y8431D01*
G01X7372Y8431D02*
G01X7395Y8386D01*
G01X7395Y8386D02*
G01X7395Y8340D01*
G01X7395Y8340D02*
G01X7372Y8295D01*
G01X7372Y8295D02*
G01X7327Y8227D01*
G01X7327Y8227D02*
G01X7100Y8000D01*
G01X7418Y8000D02*
G01X7100Y8000D01*
G04 Draw part R1*
G04 draw part outline for part R1*
G54D11*
G01X600Y5650D02*
G01X600Y7350D01*
G01X600Y7350D02*
G01X1400Y7350D01*
G01X1400Y7350D02*
G01X1400Y5650D01*
G01X1400Y5650D02*
G01X600Y5650D01*
G04 draw reference designator for part R1*
G54D10*
G01X1177Y6800D02*
G01X700Y6800D01*
G01X1177Y6595D02*
G01X1177Y6800D01*
G01X1177Y6595D02*
G01X1154Y6527D01*
G01X1154Y6527D02*
G01X1131Y6504D01*
G01X1131Y6504D02*
G01X1086Y6481D01*
G01X1086Y6481D02*
G01X1040Y6481D01*
G01X1040Y6481D02*
G01X995Y6504D01*
G01X995Y6504D02*
G01X972Y6527D01*
G01X972Y6527D02*
G01X950Y6595D01*
G01X950Y6800D02*
G01X950Y6595D01*
G01X950Y6640D02*
G01X700Y6481D01*
G01X1109Y6254D02*
G01X1086Y6300D01*
G01X1177Y6186D02*
G01X1109Y6254D01*
G01X1177Y6186D02*
G01X700Y6186D01*
G04 Draw part D2*
G04 draw part outline for part D2*
G54D11*
G01X3300Y8950D02*
G01X6000Y8950D01*
G01X6000Y8950D02*
G01X6000Y7550D01*
G01X6000Y7550D02*
G01X3300Y7550D01*
G01X3300Y7550D02*
G01X3300Y8950D01*
G01X3600Y8950D02*
G01X3600Y7550D01*
G01X3400Y8950D02*
G01X3400Y7550D01*
G01X3500Y8950D02*
G01X3500Y7550D01*
G04 draw reference designator for part D2*
G54D10*
G01X4200Y8427D02*
G01X4200Y7950D01*
G01X4359Y8427D02*
G01X4200Y8427D01*
G01X4359Y8427D02*
G01X4427Y8404D01*
G01X4427Y8404D02*
G01X4472Y8359D01*
G01X4472Y8359D02*
G01X4495Y8313D01*
G01X4495Y8313D02*
G01X4518Y8245D01*
G01X4518Y8245D02*
G01X4518Y8131D01*
G01X4518Y8131D02*
G01X4495Y8063D01*
G01X4495Y8063D02*
G01X4472Y8018D01*
G01X4472Y8018D02*
G01X4427Y7972D01*
G01X4427Y7972D02*
G01X4359Y7950D01*
G01X4200Y7950D02*
G01X4359Y7950D01*
G01X4722Y8336D02*
G01X4722Y8313D01*
G01X4745Y8381D02*
G01X4722Y8336D01*
G01X4768Y8404D02*
G01X4745Y8381D01*
G01X4813Y8427D02*
G01X4768Y8404D01*
G01X4904Y8427D02*
G01X4813Y8427D01*
G01X4904Y8427D02*
G01X4950Y8404D01*
G01X4950Y8404D02*
G01X4972Y8381D01*
G01X4972Y8381D02*
G01X4995Y8336D01*
G01X4995Y8336D02*
G01X4995Y8290D01*
G01X4995Y8290D02*
G01X4972Y8245D01*
G01X4972Y8245D02*
G01X4927Y8177D01*
G01X4927Y8177D02*
G01X4700Y7950D01*
G01X5018Y7950D02*
G01X4700Y7950D01*
G04 Draw part D1*
G04 draw part outline for part D1*
G54D11*
G01X3100Y7550D02*
G01X400Y7550D01*
G01X400Y7550D02*
G01X400Y8950D01*
G01X400Y8950D02*
G01X3100Y8950D01*
G01X3100Y8950D02*
G01X3100Y7550D01*
G01X2800Y7550D02*
G01X2800Y8950D01*
G01X3000Y7550D02*
G01X3000Y8950D01*
G01X2900Y7550D02*
G01X2900Y8950D01*
G04 draw reference designator for part D1*
G54D10*
G01X1400Y8477D02*
G01X1400Y8000D01*
G01X1559Y8477D02*
G01X1400Y8477D01*
G01X1559Y8477D02*
G01X1627Y8454D01*
G01X1627Y8454D02*
G01X1672Y8409D01*
G01X1672Y8409D02*
G01X1695Y8363D01*
G01X1695Y8363D02*
G01X1718Y8295D01*
G01X1718Y8295D02*
G01X1718Y8181D01*
G01X1718Y8181D02*
G01X1695Y8113D01*
G01X1695Y8113D02*
G01X1672Y8068D01*
G01X1672Y8068D02*
G01X1627Y8022D01*
G01X1627Y8022D02*
G01X1559Y8000D01*
G01X1400Y8000D02*
G01X1559Y8000D01*
G01X1945Y8409D02*
G01X1900Y8386D01*
G01X2013Y8477D02*
G01X1945Y8409D01*
G01X2013Y8477D02*
G01X2013Y8000D01*
G04 Draw part P1*
G04 Draw part C3*

G04 Draw traces*

G04 Draw Text*
M00*
M02*
