;Holesize 1 =   41.0 PLATED MILS
;Holesize 2 =   35.0 PLATED MILS
;Holesize 3 =   90.0 PLATED MILS
;Holesize 4 =   36.0 PLATED MILS
;Holesize 5 =   52.0 PLATED MILS
;Holesize 6 =   50.0 PLATED MILS
;Holesize 7 =   21.0 PLATED MILS
M48
INCH,00.0000
T01C0.041
T02C0.035
T03C0.090
T04C0.036
T05C0.052
T06C0.050
T07C0.021
%
G05
G90
T01
X027000Y001500
X026000Y001500
X025000Y001500
X024000Y001500
X023000Y001500
X022000Y001500
X021000Y001500
X020000Y001500
X019000Y001500
X018000Y001500
X017000Y001500
X016000Y001500
X015000Y001500
X014000Y001500
X013000Y001500
X012000Y001500
X011000Y001500
X010000Y001500
X001500Y011500
X001500Y012500
X001500Y013500
X001500Y014500
X001500Y015500
X001500Y016500
X001500Y017500
X003000Y009800
X003000Y010800
X013900Y012900
X013900Y013900
X013900Y014900
X013900Y015900
X013900Y016900
X013900Y017900
X035000Y006000
X035000Y008000
X035000Y012100
X035000Y010100
T02
X004700Y006800
X002800Y006800
X027100Y011700
X027100Y012700
X027900Y017000
X027900Y018000
X024900Y010300
X024900Y011300
X024700Y004000
X023700Y004000
T03
X020900Y015950
X016100Y015950
T04
X018010Y014100
X018990Y014100
X018990Y014890
X018010Y014890
T05
X032500Y006000
X032500Y011000
X036000Y013000
X036000Y018000
X019900Y012800
X024900Y012800
X024900Y008400
X024900Y007400
X024900Y006400
T06
X024700Y014600
X024700Y017000
X022800Y015800
T07
X006550Y008170
X021090Y008170
X014250Y008750
X015740Y008750
X030000Y016970
X014250Y009430
X015650Y009430
X019100Y011160
X009080Y011160
X014250Y010110
X015220Y010110
X009100Y008920
X010890Y017570
X011290Y008900
X006760Y012730
X019050Y011950
X017850Y010250
X016550Y010250
X012020Y006620
X006010Y011450
X030320Y012200
X029980Y011160
X029980Y011160
X029980Y011160
X012090Y007460
X025990Y002360
X008960Y010390
X009680Y010780
X009680Y010780
X008960Y010390
X012500Y014400
X014890Y014400
X011070Y016900
X010700Y009230
X020000Y004120
X018600Y004110
X026300Y008810
X022900Y007360
X020000Y004120
X009900Y017280
X004600Y014100
X013300Y008270
X013300Y008270
X017880Y008260
X013300Y008270
X017880Y008260
X022900Y007360
X018600Y004100
X009590Y014600
X006010Y012500
X008420Y016700
X006600Y016170
X004580Y012500
X008660Y009700
X012770Y007450
X011420Y010370
X008660Y009700
X017020Y007450
X012770Y007450
X012730Y004100
X015000Y003230
X017020Y004100
X016660Y013520
X030790Y017170
X028110Y013360
X004100Y008400
X008660Y009700
X026100Y004450
X031400Y012420
X026100Y004450
X012770Y007450
X028600Y005690
X017020Y007450
X017020Y007450
X012770Y006640
X005810Y006650
X004580Y011610
X012330Y008160
X014020Y011010
X015490Y013420
X003600Y013420
X028010Y012350
X026290Y005240
X006380Y006000
X022900Y006000
X010340Y014600
X003010Y014070
X008900Y014600
X018350Y011800
X009740Y011790
M30
